<?xml version="1.0" standalone="no"?>
<!DOCTYPE svg PUBLIC "-//W3C//DTD SVG 1.1//EN" "http://www.w3.org/Graphics/SVG/1.1/DTD/svg11.dtd" >
<svg xmlns="http://www.w3.org/2000/svg" xmlns:xlink="http://www.w3.org/1999/xlink" version="1.1">
<metadata>
Created by FontForge 20170731 at Fri Oct 23 17:21:28 2020
 By Aleksey,,,
Copyright (c) 2015 ParaType, Inc., ParaType Ltd. All rights reserved.
</metadata>
<defs>
<font id="CirceRounded-ExtraBold" horiz-adv-x="1228" >
  <font-face 
    font-family="Circe Rounded Extra Bold"
    font-weight="800"
    font-stretch="normal"
    units-per-em="2048"
    panose-1="2 15 8 2 2 2 3 2 2 3"
    ascent="1583"
    descent="-465"
    x-height="922"
    cap-height="1434"
    bbox="-1061 -655 2935 1960"
    underline-thickness="102"
    underline-position="-307"
    unicode-range="U+0020-FB02"
  />
<missing-glyph horiz-adv-x="409" 
 />
    <glyph glyph-name="uniF350.var.accented" unicode="&#xf350;`" horiz-adv-x="1286" 
d="M872 154h-479l-39 -91q-13 -29 -40 -46t-58 -17h-113q-40 0 -67 28t-27 66q0 23 8 39l410 879q12 29 39.5 46t58.5 17h156q31 0 58.5 -17t39.5 -46l410 -879q8 -16 8 -39q0 -38 -27 -66t-67 -28h-133q-31 0 -58.5 17t-40.5 46zM635 696l-105 -235h207zM522 1395l137 139
q27 27 70 27q49 0 74 -35l53 -68q23 -30 23 -61q0 -53 -45 -84l-152 -103q-29 -20 -66 -20q-54 0 -96 45q-31 39 -31 82q0 49 33 78z" />
    <glyph glyph-name="uniF355.var.accented" unicode="&#xf355;`" horiz-adv-x="1040" 
d="M942 215v-123q0 -38 -27 -65t-65 -27h-610q-38 0 -65.5 27t-27.5 65v891q0 38 27.5 65t65.5 27h591q38 0 65.5 -27t27.5 -65v-123q0 -38 -27.5 -65t-65.5 -27h-356v-76h305q38 0 65 -27t27 -65v-123q0 -38 -27 -65t-65 -27h-305v-78h375q38 0 65 -27t27 -65zM393 1395
l137 139q27 27 70 27q49 0 74 -35l53 -68q23 -30 23 -61q0 -53 -45 -84l-152 -103q-29 -20 -66 -20q-54 0 -96 45q-31 39 -31 82q0 49 33 78z" />
    <glyph glyph-name="uniF358.var.accented" unicode="&#xf358;`" horiz-adv-x="1374" 
d="M1135 0h-144q-38 0 -65 27t-27 65v461l-420 -500q-47 -53 -104 -53h-135q-38 0 -65.5 27t-27.5 65v891q0 38 27.5 65t65.5 27h143q38 0 65 -27t27 -65v-461l420 500q47 53 104 53h136q38 0 65 -27t27 -65v-891q0 -38 -27 -65t-65 -27zM557 1395l137 139q27 27 70 27
q49 0 74 -35l53 -68q22 -28 22 -61q0 -53 -45 -84l-151 -103q-29 -20 -66 -20q-54 0 -96 45q-31 39 -31 82q0 49 33 78z" />
    <glyph glyph-name="uniF35E.var.accented" unicode="&#xf35e;`" horiz-adv-x="1359" 
d="M63 535q0 116 44 218t122.5 177t195.5 118.5t255 43.5q179 0 317.5 -65t218.5 -192.5t80 -299.5q0 -163 -79.5 -291.5t-220 -198.5t-316.5 -70q-179 0 -317.5 65.5t-219 193.5t-80.5 301zM412 535q0 -107 77.5 -179.5t190.5 -72.5q137 0 202.5 69.5t65.5 182.5
q0 116 -75.5 182.5t-192.5 66.5q-121 0 -194.5 -66t-73.5 -183zM578 1395l137 139q27 27 69 27q49 0 74 -35l53 -68q23 -30 23 -61q0 -53 -45 -84l-152 -103q-29 -20 -65 -20q-55 0 -97 45q-30 37 -30 82q0 49 33 78z" />
    <glyph glyph-name="uniF363.var.accented" unicode="&#xf363;`" horiz-adv-x="1187" 
d="M453 1016l204 -336l162 334q13 28 41 44.5t60 16.5h106q45 0 72.5 -27.5t27.5 -66.5q0 -18 -10 -41l-334 -670q-65 -133 -153.5 -201.5t-218.5 -68.5q-61 0 -99 14q-61 26 -61 84q0 7 4 27l37 113q12 39 32 55t56 16q23 0 35 -2q2 0 6 -1t6 -1q27 0 47 27l16 24l-383 570
q-16 21 -16 53q0 38 27.5 67t68.5 29h162q33 0 61.5 -16t43.5 -43zM539 1395l137 139q27 27 69 27q49 0 74 -35l53 -68q23 -30 23 -61q0 -53 -45 -84l-152 -103q-29 -20 -65 -20q-54 0 -96 45q-31 39 -31 82q0 49 33 78z" />
    <glyph glyph-name="uniF36B.var.accented" unicode="&#xf36b;`" horiz-adv-x="1568" 
d="M1421 983v-891q0 -38 -27 -65t-65 -27h-143q-38 0 -65 27t-27 65v891q0 38 27 65t65 27h143q38 0 65 -27t27 -65zM475 479v-172q25 -4 57 -4q123 0 123 92q0 86 -123 86q-32 0 -57 -2zM147 92v891q0 38 27.5 65t65.5 27h143q38 0 65 -27t27 -65v-199q35 4 88 4
q217 0 329 -102.5t112 -282.5t-134.5 -293.5t-375.5 -113.5q-46 0 -133 1t-121 1q-39 2 -66 29t-27 65zM643 1395l137 139q27 27 70 27q49 0 74 -35l53 -68q22 -28 22 -61q0 -53 -45 -84l-151 -103q-29 -20 -66 -20q-54 0 -96 45q-31 39 -31 82q0 49 33 78z" />
    <glyph glyph-name="uniF36D.var.accented" unicode="&#xf36d;`" horiz-adv-x="1142" 
d="M184 332q22 0 52 -10q93 -39 237 -39q97 0 163 24.5t99 87.5h-342q-38 0 -65 27t-27 65v123q0 38 27 65t65 27h320q-78 91 -250 91q-138 0 -236 -37q-28 -8 -43 -8q-59 0 -86 61l-35 78q-10 23 -10 43q0 57 53 84q156 82 371 82q173 0 313 -69.5t221 -198t81 -293.5
q0 -265 -177 -410t-485 -145q-182 0 -319 63q-60 27 -60 82q0 22 8 41l45 110q23 56 80 56zM367 1395l137 139q27 27 69 27q49 0 74 -35l53 -68q23 -30 23 -61q0 -53 -45 -84l-152 -103q-29 -20 -65 -20q-54 0 -96 45q-31 39 -31 82q0 49 33 78z" />
    <glyph glyph-name="uniF36E.var.accented" unicode="&#xf36e;`" horiz-adv-x="1810" 
d="M475 395v-303q0 -38 -27 -65t-65 -27h-143q-38 0 -65.5 27t-27.5 65v891q0 38 27.5 65t65.5 27h143q38 0 65 -27t27 -65v-281h115q46 179 190 286.5t367 107.5q284 0 442 -146.5t158 -410.5q0 -253 -160 -406t-440 -153q-220 0 -371 109t-192 306h-109zM918 539
q0 -110 64.5 -181t174.5 -71q125 0 183.5 69.5t58.5 182.5q0 119 -63.5 184t-178.5 65q-109 0 -174 -66t-65 -183zM641 1395l137 139q27 27 70 27q49 0 74 -35l53 -68q22 -28 22 -61q0 -53 -45 -84l-151 -103q-29 -20 -66 -20q-54 0 -96 45q-31 39 -31 82q0 49 33 78z" />
    <glyph glyph-name="uniF36F.var.accented" unicode="&#xf36f;`" horiz-adv-x="1187" 
d="M1040 983v-891q0 -38 -27 -65t-65 -27h-143q-38 0 -65 27t-27 65v195h-146l-143 -230q-17 -26 -46 -41.5t-61 -15.5h-137q-41 0 -67.5 28t-26.5 66q0 32 16 53l150 220q-154 103 -154 295q0 65 17.5 124.5t57 114t98.5 94.5t148 64t199 24q60 0 330 -6q38 -2 65 -29
t27 -65zM713 594v174q-20 8 -125 8q-65 0 -103.5 -23.5t-38.5 -68.5q0 -40 27.5 -65t67.5 -25h172zM508 1395l137 139q27 27 70 27q48 0 73 -35l54 -68q22 -28 22 -61q0 -53 -45 -84l-151 -103q-29 -20 -66 -20q-54 0 -96 45q-31 39 -31 82q0 49 33 78z" />
    <glyph glyph-name="uniF371.var.accented" unicode="&#xf371;`" horiz-adv-x="1040" 
d="M152 1305q0 70 48 111.5t119 41.5q59 0 105.5 -42.5t46.5 -110.5q0 -74 -46 -118t-106 -44q-72 0 -119.5 43.5t-47.5 118.5zM604 1305q0 69 48 111t116 42q63 0 109.5 -42t46.5 -111q0 -74 -46 -118t-110 -44q-68 0 -116 43.5t-48 118.5zM942 215v-123q0 -38 -27 -65
t-65 -27h-610q-38 0 -65.5 27t-27.5 65v891q0 38 27.5 65t65.5 27h591q38 0 65.5 -27t27.5 -65v-123q0 -38 -27.5 -65t-65.5 -27h-356v-76h305q38 0 65 -27t27 -65v-123q0 -38 -27 -65t-65 -27h-305v-78h375q38 0 65 -27t27 -65zM436 1610l158 159q25 25 59 25q39 0 64 -31
l74 -92q18 -24 18 -53q0 -46 -37 -70l-180 -123q-21 -16 -57 -16q-48 0 -78 35l-27 31q-22 25 -22 63q0 44 28 72z" />
    <glyph glyph-name="afii10017.var.accented" unicode="&#x410;`" horiz-adv-x="1476" 
d="M1012 301h-568l-92 -233q-12 -31 -39 -49.5t-59 -18.5h-125q-37 0 -62.5 26.5t-25.5 61.5q0 20 6 35l516 1243q14 31 41.5 49.5t59.5 18.5h149q32 0 59 -18.5t41 -49.5l517 -1243q6 -15 6 -35q0 -35 -25.5 -61.5t-62.5 -26.5h-146q-32 0 -59 18.5t-39 49.5zM729 1014
l-162 -406h322zM610 1718l303 152q18 10 41 10q28 0 52 -14.5t34 -40.5l37 -84q8 -20 8 -35q0 -29 -17.5 -53t-45.5 -31l-322 -102q-21 -7 -36 -7q-33 0 -60.5 16.5t-40.5 45.5q-10 27 -10 47q0 31 15.5 56.5t41.5 39.5z" />
    <glyph glyph-name="afii10022.var.accented" unicode="&#x415;`" horiz-adv-x="1177" 
d="M1055 213v-119q0 -38 -28 -66t-66 -28h-682q-38 0 -66.5 28t-28.5 66v1245q0 38 28.5 66.5t66.5 28.5h661q38 0 66 -28.5t28 -66.5v-118q0 -38 -28 -66.5t-66 -28.5h-428v-252h367q38 0 66 -28t28 -66v-118q0 -38 -28 -66.5t-66 -28.5h-367v-260h449q38 0 66 -28t28 -66z
M553 1718l303 152q18 10 41 10q28 0 52 -14.5t34 -40.5l37 -84q8 -20 8 -35q0 -29 -17.5 -53t-45.5 -31l-322 -102q-21 -7 -37 -7q-33 0 -60 16.5t-40 45.5q-10 27 -10 47q0 31 15.5 56.5t41.5 39.5z" />
    <glyph glyph-name="afii10026.var.accented" unicode="&#x418;`" horiz-adv-x="1617" 
d="M1339 0h-139q-38 0 -66 28t-28 66v797l-594 -832q-40 -59 -106 -59h-127q-38 0 -66.5 28t-28.5 66v1245q0 38 28.5 66.5t66.5 28.5h139q38 0 66 -28.5t28 -66.5v-796l594 831q41 60 106 60h127q38 0 66.5 -28.5t28.5 -66.5v-1245q0 -38 -28.5 -66t-66.5 -28zM737 1718
l303 152q18 10 41 10q28 0 52 -14.5t34 -40.5l37 -84q8 -20 8 -35q0 -29 -17.5 -53t-45.5 -31l-322 -102q-21 -7 -36 -7q-33 0 -60.5 16.5t-40.5 45.5q-10 27 -10 47q0 31 15.5 56.5t41.5 39.5z" />
    <glyph glyph-name="afii10032.var.accented" unicode="&#x41e;`" horiz-adv-x="1687" 
d="M82 717q0 155 55.5 291t153.5 235.5t241.5 157t311.5 57.5q218 0 390.5 -89t272 -258.5t99.5 -393.5q0 -160 -58 -298.5t-159 -235.5t-242 -152.5t-303 -55.5q-163 0 -303 52t-241.5 147t-159.5 235t-58 308zM430 717q0 -183 120.5 -308.5t293.5 -125.5q132 0 227 58.5
t140.5 155.5t45.5 220q0 193 -118 313.5t-295 120.5q-181 0 -297.5 -120t-116.5 -314zM758 1718l303 152q17 10 41 10q28 0 52 -14.5t34 -40.5l37 -84q8 -20 8 -35q0 -29 -17.5 -53t-46.5 -31l-321 -102q-21 -7 -37 -7q-33 0 -60 16.5t-40 45.5q-11 29 -11 47q0 31 16 56.5
t42 39.5z" />
    <glyph glyph-name="afii10037.var.accented" unicode="&#x423;`" horiz-adv-x="1421" 
d="M420 1370l366 -637l263 633q14 31 41 49.5t59 18.5h117q41 0 66.5 -25.5t25.5 -62.5q0 -20 -10 -43l-422 -963q-75 -170 -175 -255t-245 -85q-91 0 -168 35q-47 23 -47 76q0 22 8 43l39 100q23 63 86 63q13 0 37 -4q27 -6 53 -6q71 0 96 58l19 43l-531 882q-14 25 -14 56
q0 37 24.5 62.5t65.5 25.5h137q32 0 62 -17.5t47 -46.5zM647 1718l303 152q17 10 41 10q28 0 52 -14.5t34 -40.5l37 -84q8 -20 8 -35q0 -29 -17.5 -53t-45.5 -31l-322 -102q-21 -7 -37 -7q-33 0 -60 16.5t-40 45.5q-10 27 -10 47q0 31 15.5 56.5t41.5 39.5z" />
    <glyph glyph-name="afii10045.var.accented" unicode="&#x42b;`" horiz-adv-x="1812" 
d="M1628 1339v-1245q0 -38 -28 -66t-66 -28h-139q-38 0 -66.5 28t-28.5 66v1245q0 38 28.5 66.5t66.5 28.5h139q38 0 66 -28.5t28 -66.5zM512 676v-365q74 -8 96 -8q205 0 205 199q0 92 -54.5 138t-148.5 46q-30 0 -98 -10zM184 96v1243q0 38 28.5 66.5t66.5 28.5h139
q38 0 66 -28.5t28 -66.5v-354q68 8 127 8q258 0 390 -128.5t132 -354.5q0 -234 -156 -374t-436 -140q-122 0 -290 4q-39 0 -67 28t-28 68zM778 1718l303 152q18 10 41 10q28 0 52 -14.5t34 -40.5l37 -84q8 -20 8 -35q0 -29 -17.5 -53t-45.5 -31l-322 -102q-21 -7 -37 -7
q-33 0 -60 16.5t-40 45.5q-10 27 -10 47q0 31 15.5 56.5t41.5 39.5z" />
    <glyph glyph-name="afii10047.var.accented" unicode="&#x42d;`" horiz-adv-x="1368" 
d="M201 367q27 0 57 -15q128 -69 256 -69q154 0 271.5 73t156.5 222h-481q-38 0 -66 28t-28 66v119q0 38 28 66t66 28h469q-47 129 -164.5 197.5t-282.5 68.5q-113 0 -229 -55q-30 -15 -59 -15q-54 0 -82 47l-47 76q-15 24 -15 51q0 52 47 82q193 121 465 121
q207 0 371 -91.5t258 -261t94 -388.5q0 -345 -206.5 -543.5t-559.5 -198.5q-242 0 -430 119q-20 12 -31.5 34.5t-11.5 47.5q0 29 14 49l64 97q29 45 76 45zM467 1718l303 152q18 10 41 10q28 0 52 -14.5t34 -40.5l37 -84q8 -20 8 -35q0 -29 -17.5 -53t-45.5 -31l-322 -102
q-21 -7 -37 -7q-33 0 -60 16.5t-40 45.5q-10 27 -10 47q0 31 15.5 56.5t41.5 39.5z" />
    <glyph glyph-name="afii10048.var.accented" unicode="&#x42e;`" horiz-adv-x="2220" 
d="M512 578v-484q0 -38 -28 -66t-66 -28h-139q-38 0 -66.5 28t-28.5 66v1245q0 38 28.5 66.5t66.5 28.5h139q38 0 66 -28.5t28 -66.5v-454h180q51 255 239.5 414t465.5 159q217 0 384.5 -89t262 -258t94.5 -394q0 -161 -55 -299t-152 -235.5t-235 -152.5t-299 -55
q-177 0 -327.5 71.5t-252.5 209.5t-131 322h-174zM1024 717q0 -183 112.5 -308.5t270.5 -125.5q99 0 174 33.5t120 93.5t67 137t22 170q0 196 -105 315t-278 119q-165 0 -274 -120t-109 -314zM1065 1718l303 152q18 10 41 10q28 0 52 -14.5t34 -40.5l37 -84q8 -20 8 -35
q0 -29 -17.5 -53t-45.5 -31l-322 -102q-21 -7 -37 -7q-33 0 -60 16.5t-40 45.5q-10 27 -10 47q0 31 15.5 56.5t41.5 39.5z" />
    <glyph glyph-name="afii10049.var.accented" unicode="&#x42f;`" horiz-adv-x="1308" 
d="M1124 1337v-1243q0 -38 -28 -66t-66 -28h-139q-38 0 -66 28t-28 66v367h-146l-235 -400q-17 -28 -47 -44.5t-62 -16.5h-125q-40 0 -67 28t-27 66q0 27 14 49l246 389q-100 59 -160.5 157t-60.5 235q0 83 21 157.5t68.5 141t117.5 115t175 76.5t234 28q29 0 77 -1
t113 -2.5t97 -2.5q40 -1 67 -30t27 -69zM797 768v358q-45 9 -119 9q-85 0 -144 -51.5t-59 -137.5q0 -75 43 -120t107 -58h172zM627 1718l303 152q18 10 41 10q28 0 52 -14.5t34 -40.5l37 -84q8 -20 8 -35q0 -29 -17.5 -53t-46.5 -31l-321 -102q-21 -7 -37 -7q-33 0 -60 16.5
t-40 45.5q-11 29 -11 47q0 31 16 56.5t42 39.5z" />
    <glyph glyph-name="afii10023.var.accented" unicode="&#x401;`" horiz-adv-x="1177" 
d="M143 1712q0 74 43.5 118t108.5 44q57 0 100 -44.5t43 -117.5q0 -82 -42.5 -128t-100.5 -46q-66 0 -109 45.5t-43 128.5zM809 1712q0 74 45 118t109 44q58 0 99.5 -44t41.5 -118q0 -82 -41 -128t-100 -46q-65 0 -109.5 46t-44.5 128zM477 1653l58 192q7 29 31 46.5
t52 17.5q18 0 33 -6l62 -21q26 -9 40.5 -31t14.5 -49t-14 -47l-117 -172q-34 -53 -84 -53q-15 0 -33 6q-49 14 -49 72q0 21 6 45zM1055 213v-119q0 -38 -28 -66t-66 -28h-682q-38 0 -66.5 28t-28.5 66v1245q0 38 28.5 66.5t66.5 28.5h661q38 0 66 -28.5t28 -66.5v-118
q0 -38 -28 -66.5t-66 -28.5h-428v-252h367q38 0 66 -28t28 -66v-118q0 -38 -28 -66.5t-66 -28.5h-367v-260h449q38 0 66 -28t28 -66z" />
    <glyph glyph-name="afii10065.var.accented" unicode="&#x430;`" horiz-adv-x="952" 
d="M61 279q0 150 93.5 227.5t238.5 77.5q56 0 105.5 -16t74.5 -36v19q0 139 -131 139q-72 0 -151 -22q-20 -4 -29 -4q-62 0 -80 53l-26 67q-6 15 -6 31q0 52 49 74q132 57 278 57q204 0 293.5 -98t89.5 -293v-477q0 -32 -23 -55t-55 -23h-110q-33 0 -55.5 23.5t-22.5 58.5
q-33 -45 -99 -69.5t-143 -24.5q-128 0 -209.5 77.5t-81.5 213.5zM573 291v57q-45 31 -116 31q-39 0 -63.5 -18.5t-24.5 -51.5q0 -30 24.5 -47.5t63.5 -17.5q82 0 116 47zM391 1251l101 168q27 47 81 47q37 0 60 -20l67 -51q39 -29 39 -80q0 -39 -24 -66l-125 -139
q-36 -39 -88 -39q-38 0 -74 25q-53 38 -53 98q0 28 16 57z" />
    <glyph glyph-name="afii10070.var.accented" unicode="&#x435;`" horiz-adv-x="1048" 
d="M932 358h-553q21 -63 78.5 -95t136.5 -32q92 0 166 27q21 8 45 8q51 0 72 -43l32 -65q9 -18 9 -37q0 -45 -37 -68q-82 -46 -154.5 -62t-165.5 -16q-227 0 -363.5 133.5t-136.5 352.5q0 134 61 244t176 175.5t263 65.5q119 0 220.5 -53t164 -153.5t62.5 -227.5
q0 -48 -7 -92q-3 -23 -24.5 -42.5t-44.5 -19.5zM700 563q0 51 -40 89t-109 38q-74 0 -116.5 -31.5t-65.5 -95.5h331zM440 1251l101 168q27 47 82 47q36 0 59 -20l68 -51q38 -28 38 -80q0 -39 -24 -66l-125 -139q-36 -39 -88 -39q-38 0 -74 25q-53 38 -53 98q0 28 16 57z" />
    <glyph glyph-name="afii10074.var.accented" unicode="&#x438;`" horiz-adv-x="1167" 
d="M977 0h-152q-32 0 -54.5 23t-22.5 55v403l-293 -430q-33 -51 -88 -51h-177q-32 0 -54.5 23t-22.5 55v766q0 32 22.5 55t54.5 23h152q32 0 55 -23t23 -55v-404l293 430q34 52 86 52h178q32 0 55 -23t23 -55v-766q0 -32 -23 -55t-55 -23zM463 1251l100 168q27 47 82 47
q37 0 60 -20l67 -51q39 -29 39 -80q0 -38 -25 -66l-124 -139q-36 -39 -89 -39q-37 0 -73 25q-54 39 -54 98q0 26 17 57z" />
    <glyph glyph-name="afii10080.var.accented" unicode="&#x43e;`" horiz-adv-x="1146" 
d="M61 461q0 211 140 348t372 137t372 -137t140 -348t-140 -348.5t-372 -137.5t-372 137.5t-140 348.5zM389 461q0 -87 52.5 -143t131.5 -56q80 0 132.5 54t52.5 145q0 88 -53.5 143t-131.5 55q-77 0 -130.5 -54t-53.5 -144zM473 1251l100 168q27 47 82 47q37 0 60 -20
l67 -51q39 -29 39 -80q0 -39 -24 -66l-125 -139q-36 -39 -88 -39q-38 0 -74 25q-53 38 -53 98q0 28 16 57z" />
    <glyph glyph-name="afii10085.var.accented" unicode="&#x443;`" horiz-adv-x="1054" 
d="M524 500q15 -39 35 -127q8 77 23 129l104 360q7 26 29.5 43t48.5 17h145q42 0 70.5 -30t28.5 -69q0 -14 -7 -35l-307 -788q-68 -166 -124 -254t-112.5 -122t-135.5 -34q-97 0 -195 62q-33 23 -33 63q0 24 12 45l46 80q15 28 28 38.5t39 10.5q11 0 39 -8t49 -8q48 0 80 78
l21 49l-353 791q-8 16 -8 38q0 38 26.5 65.5t65.5 27.5h166q27 0 50 -16.5t34 -43.5zM408 1251l100 168q27 47 82 47q36 0 59 -20l68 -51q39 -29 39 -80q0 -38 -25 -66l-125 -139q-36 -39 -88 -39q-38 0 -74 25q-53 38 -53 98q0 26 17 57z" />
    <glyph glyph-name="afii10093.var.accented" unicode="&#x44b;`" horiz-adv-x="1443" 
d="M420 707h96q116 0 201 -28t131 -77t67 -105t21 -122q0 -57 -14.5 -109t-48 -101.5t-83.5 -85.5t-126 -57.5t-170 -21.5h-304q-32 0 -54.5 23t-22.5 55v766q0 32 22.5 55t54.5 23h152q32 0 55 -23t23 -55v-137zM1331 844v-766q0 -32 -23 -55t-55 -23h-151q-32 0 -55 23
t-23 55v766q0 32 23 55t55 23h151q32 0 55 -23t23 -55zM420 266h67q60 0 90.5 25.5t30.5 70.5q0 99 -119 99h-69v-195zM555 1251l100 168q27 47 82 47q37 0 60 -20l67 -51q39 -29 39 -80q0 -39 -24 -66l-125 -139q-36 -39 -88 -39q-38 0 -74 25q-53 38 -53 98q0 28 16 57z
" />
    <glyph glyph-name="afii10095.var.accented" unicode="&#x44d;`" horiz-adv-x="1013" 
d="M193 295q29 0 61 -14q84 -39 168 -39q167 0 205 120h-291q-32 0 -55 23t-23 55v49q0 32 23 55t55 23h285q-25 58 -76.5 85.5t-116.5 27.5q-98 0 -176 -37q-20 -10 -47 -10q-49 0 -72 41l-41 67q-14 24 -14 45q0 43 41 68q149 92 309 92q241 0 380.5 -131t139.5 -354
q0 -136 -56.5 -244.5t-173.5 -175t-278 -66.5q-113 0 -192.5 24.5t-149.5 74.5q-32 22 -32 63q0 25 14 49l43 70q23 39 70 39zM326 1251l100 168q27 47 82 47q36 0 59 -20l68 -51q39 -29 39 -80q0 -38 -25 -66l-125 -139q-36 -39 -88 -39q-38 0 -74 25q-53 38 -53 98
q0 26 17 57z" />
    <glyph glyph-name="afii10096.var.accented" unicode="&#x44e;`" horiz-adv-x="1607" 
d="M440 317v-239q0 -32 -23 -55t-55 -23h-172q-32 0 -54.5 23t-22.5 55v766q0 32 22.5 55t54.5 23h172q32 0 55 -23t23 -55v-219h125q45 146 168.5 233.5t300.5 87.5q230 0 371 -137.5t141 -347.5q0 -209 -143 -347.5t-369 -138.5q-184 0 -309 93t-166 249h-119zM891 461
q0 -87 42.5 -132.5t110.5 -45.5q69 0 111.5 46t42.5 132q0 85 -40.5 131.5t-113.5 46.5q-68 0 -110.5 -47t-42.5 -131zM709 1251l100 168q27 47 82 47q36 0 59 -20l68 -51q39 -29 39 -80q0 -38 -25 -66l-125 -139q-36 -39 -88 -39q-38 0 -74 25q-53 38 -53 98q0 26 17 57z
" />
    <glyph glyph-name="afii10097.var.accented" unicode="&#x44f;`" horiz-adv-x="1003" 
d="M123 127l127 176q-62 33 -108 100t-46 172q0 73 28.5 134t86 109.5t154.5 76t225 27.5h239q32 0 55 -23t23 -55v-766q0 -32 -23 -55t-55 -23h-151q-32 0 -55 23t-23 55v158h-74l-112 -183q-15 -24 -41 -38.5t-54 -14.5h-131q-34 0 -58 24t-24 56q0 23 17 47zM600 461v194
h-59q-54 0 -85.5 -27t-31.5 -69q0 -46 34 -72t87 -26h55zM436 1251l101 168q27 47 81 47q37 0 60 -20l67 -51q39 -29 39 -80q0 -39 -24 -66l-125 -139q-36 -39 -88 -39q-38 0 -74 25q-53 38 -53 98q0 28 16 57z" />
    <glyph glyph-name="afii10071.var.accented" unicode="&#x451;`" horiz-adv-x="1048" 
d="M96 1176q0 63 39 99t98 36q51 0 89 -37t38 -98q0 -67 -38 -105.5t-89 -38.5q-59 0 -98 38t-39 106zM739 1176q0 62 40 98.5t98 36.5q52 0 89.5 -36.5t37.5 -98.5q0 -67 -37 -105.5t-90 -38.5q-58 0 -98 38t-40 106zM426 1198l129 217q21 35 61 35q20 0 41 -14l76 -60
q27 -21 27 -55q0 -29 -19 -51l-161 -180q-25 -31 -68 -31q-33 0 -59 20q-39 26 -39 74q0 24 12 45zM700 563q0 51 -40 89t-109 38q-74 0 -116.5 -31.5t-65.5 -95.5h331zM881 53q-82 -46 -154.5 -62t-165.5 -16q-227 0 -363.5 133.5t-136.5 352.5q0 134 61 244t176 175.5
t263 65.5q119 0 220.5 -53t164 -153.5t62.5 -227.5q0 -48 -7 -92q-3 -23 -24.5 -42.5t-44.5 -19.5h-553q21 -63 78.5 -95t136.5 -32q92 0 166 27q21 8 45 8q51 0 72 -43l32 -65q9 -18 9 -37q0 -45 -37 -68z" />
    <glyph glyph-name="fi" unicode="fi" horiz-adv-x="1120" 
d="M1008 844v-766q0 -32 -23 -55t-55 -23h-152q-32 0 -55 23t-23 55v557h-280v-557q0 -32 -23 -55t-55 -23h-152q-32 0 -54.5 23t-22.5 55v946q0 219 117.5 326.5t320.5 107.5q134 0 223.5 -36t165.5 -115q25 -25 25 -58q0 -36 -25 -61l-84 -88q-25 -25 -53 -25
q-36 0 -74 33q-70 63 -151 63q-77 0 -117.5 -37t-40.5 -130v-82h510q32 0 55 -23t23 -55z" />
    <glyph glyph-name="fl" unicode="fl" horiz-adv-x="1185" 
d="M1149 215l29 -90q4 -12 4 -31q0 -55 -56 -74q-113 -45 -219 -45q-241 0 -241 289v862q-65 45 -125 45q-121 0 -121 -118v-131h45q32 0 55 -23t23 -55v-131q0 -32 -23 -55t-55 -23h-45v-557q0 -32 -23 -55t-55 -23h-152q-32 0 -54.5 23t-22.5 55v993q0 188 89.5 287.5
t246.5 99.5q155 0 243 -57h203q32 0 55 -23t23 -55v-942q0 -66 11.5 -92.5t45.5 -26.5q3 0 22 1t33 1q27 0 41 -11t23 -38z" />
    <glyph glyph-name=".notdef" horiz-adv-x="409" 
 />
    <glyph glyph-name=".null" horiz-adv-x="0" 
 />
    <glyph glyph-name="nonmarkingreturn" horiz-adv-x="682" 
 />
    <glyph glyph-name="space" unicode=" " horiz-adv-x="409" 
 />
    <glyph glyph-name="exclam" unicode="!" horiz-adv-x="634" 
d="M481 1339v-692q0 -38 -28 -66t-66 -28h-139q-38 0 -66 28t-28 66v692q0 38 28 66.5t66 28.5h139q38 0 66 -28.5t28 -66.5zM117 197q0 74 58 133t151 59q82 0 137 -59.5t55 -132.5q0 -85 -54 -147t-138 -62q-95 0 -152 61.5t-57 147.5z" />
    <glyph glyph-name="quotedbl" unicode="&#x22;" horiz-adv-x="921" 
d="M819 1335v-336q0 -40 -29 -69t-69 -29h-111q-40 0 -69 29t-29 69v336q0 40 29 69.5t69 29.5h111q40 0 69 -29.5t29 -69.5zM410 1335v-336q0 -40 -29.5 -69t-69.5 -29h-110q-40 0 -69.5 29t-29.5 69v336q0 40 29.5 69.5t69.5 29.5h110q40 0 69.5 -29.5t29.5 -69.5z" />
    <glyph glyph-name="numbersign" unicode="#" horiz-adv-x="1523" 
d="M1001 338l-100 -272q-10 -29 -35 -46.5t-55 -17.5q-18 0 -33 6l-55 19q-29 10 -46.5 35t-17.5 55q0 15 7 33l69 188h-246l-102 -275q-10 -28 -36 -44.5t-56 -16.5q-21 0 -31 4l-57 21q-29 9 -46.5 33.5t-17.5 54.5q0 13 7 30l71 193h-45q-38 0 -66 28t-28 66v78
q0 38 28 66t66 28h143l84 225h-227q-38 0 -66 28.5t-28 66.5v77q0 38 28 66.5t66 28.5h326l102 274q10 28 35.5 45t54.5 17q16 0 33 -7l57 -20q29 -10 46.5 -35t17.5 -55q0 -16 -6 -31l-70 -188h242l102 274q10 28 36 45t56 17q18 0 31 -5l57 -20q29 -9 46.5 -33.5
t17.5 -54.5q0 -16 -6 -31l-72 -192h66q38 0 66 -28.5t28 -66.5v-77q0 -38 -28 -66.5t-66 -28.5h-164l-84 -225h248q38 0 66 -28t28 -66v-78q0 -38 -28 -66t-66 -28h-347zM588 604h246l81 225h-243z" />
    <glyph glyph-name="dollar" unicode="$" horiz-adv-x="1220" 
d="M158 281l71 90q27 35 72 35q39 0 76 -29q117 -94 246 -94q62 0 88 28t26 82q0 43 -33 79t-85.5 64t-116.5 57.5t-128 68.5t-116.5 87.5t-85.5 124.5t-33 170q0 132 86.5 240t231.5 150v90q0 38 28 66t66 28h119q38 0 66 -28t28 -66v-80q110 -21 201 -84q41 -24 41 -76
q0 -26 -17 -53l-57 -90q-27 -47 -82 -47q-28 0 -57 16q-74 41 -142 41q-164 0 -164 -107q0 -42 25.5 -77t67.5 -59t96 -50.5t110 -51t110 -62.5t96 -82.5t67.5 -112.5t25.5 -152q0 -151 -86.5 -258.5t-234.5 -144.5v-105q0 -38 -28 -66t-66 -28h-119q-38 0 -66 28t-28 66
v105q-175 38 -289 149q-33 33 -33 74q0 34 23 64z" />
    <glyph glyph-name="percent" unicode="%" horiz-adv-x="1935" 
d="M1499 1251l-895 -1198q-28 -39 -80 -39q-34 0 -67 23q-47 30 -47 84q0 29 18 53l899 1206q27 37 76 37q38 0 70 -22q47 -38 47 -86q0 -30 -21 -58zM494 692q-191 0 -312 106t-121 279t121 277t312 104t311.5 -104t120.5 -277t-120.5 -279t-311.5 -106zM494 1212
q-65 0 -105.5 -36.5t-40.5 -98.5q0 -65 40.5 -102t105.5 -37q67 0 106 37t39 102q0 62 -40 98.5t-105 36.5zM1442 -25q-191 0 -311.5 106t-120.5 279t120.5 277t311.5 104t311.5 -104t120.5 -277t-120.5 -279t-311.5 -106zM1442 496q-65 0 -105.5 -37t-40.5 -99
q0 -65 40.5 -102t105.5 -37q67 0 106 37t39 102q0 62 -40 99t-105 37z" />
    <glyph glyph-name="ampersand" unicode="&#x26;" horiz-adv-x="1548" 
d="M1415 834v-7q-27 -288 -192 -497l145 -189q18 -24 18 -53q0 -35 -25 -61.5t-63 -26.5h-129q-32 0 -64 15t-52 40l-47 58q-153 -138 -402 -138q-228 0 -365 116t-137 298q0 87 20.5 155t65.5 124t90 94t121 92q-141 97 -141 279q0 149 108.5 237t256.5 88q96 0 178 -36.5
t135 -112.5t53 -176q0 -88 -46.5 -167t-111.5 -114l207 -277q60 132 72 252q5 43 33 69t71 26h115q34 0 60 -27t26 -61zM821 358l-221 320q-91 -78 -120 -124.5t-29 -100.5q0 -68 46.5 -119t116.5 -51q144 0 207 75zM545 1133q0 -32 22 -55t56 -23q35 0 57 23t22 55
q0 33 -23 56t-56 23q-34 0 -56 -22t-22 -57z" />
    <glyph glyph-name="quotesingle" unicode="'" horiz-adv-x="512" 
d="M410 1335v-336q0 -40 -29.5 -69t-69.5 -29h-110q-40 0 -69.5 29t-29.5 69v336q0 40 29.5 69.5t69.5 29.5h110q40 0 69.5 -29.5t29.5 -69.5z" />
    <glyph glyph-name="parenleft" unicode="(" horiz-adv-x="686" 
d="M569 1280l43 -37q35 -30 35 -76q0 -36 -24 -63q-118 -138 -176 -293.5t-58 -349.5q0 -183 65 -350t169 -293q26 -29 26 -66q0 -44 -37 -74l-45 -38q-26 -23 -67 -23q-47 0 -76 29q-342 337 -342 815q0 466 344 815q29 29 74 29q41 0 69 -25z" />
    <glyph glyph-name="parenright" unicode=")" horiz-adv-x="686" 
d="M74 1243l43 37q28 25 69 25q45 0 74 -29q344 -349 344 -815q0 -478 -342 -815q-29 -29 -76 -29q-41 0 -67 23l-45 38q-37 30 -37 74q0 37 26 66q104 126 169 293t65 350q0 194 -58 349.5t-176 293.5q-24 30 -24 65q0 44 35 74z" />
    <glyph glyph-name="asterisk" unicode="*" horiz-adv-x="1056" 
d="M528 1159q-61 0 -104 43t-43 105t43 105.5t104 43.5q62 0 106 -44t44 -105t-44 -104.5t-106 -43.5zM524 477q-61 0 -104 43t-43 105t43 105.5t104 43.5q62 0 106 -44t44 -105t-44 -104.5t-106 -43.5zM825 993q-61 0 -104 43t-43 105t43 105.5t104 43.5q62 0 106 -44
t44 -105t-44 -104.5t-106 -43.5zM825 653q-61 0 -104 43t-43 105t43 105.5t104 43.5q62 0 106 -44t44 -105t-44 -104.5t-106 -43.5zM229 653q-61 0 -104 43t-43 105t43 105.5t104 43.5q62 0 106 -44t44 -105t-44 -104.5t-106 -43.5zM229 993q-61 0 -104 43t-43 105t43 105.5
t104 43.5q62 0 106 -44t44 -105t-44 -104.5t-106 -43.5z" />
    <glyph glyph-name="plus" unicode="+" 
d="M657 250h-90q-40 0 -69 29t-29 69v256h-242q-40 0 -69 29t-29 69v70q0 40 29 69t69 29h242v252q0 40 29 69.5t69 29.5h90q40 0 69.5 -29.5t29.5 -69.5v-252h245q40 0 69.5 -29t29.5 -69v-70q0 -40 -29.5 -69t-69.5 -29h-245v-256q0 -40 -29.5 -69t-69.5 -29z" />
    <glyph glyph-name="comma" unicode="," horiz-adv-x="575" 
d="M182 -123q41 25 60 47q34 37 34 82v8q-14 -14 -51 -14h-12q-52 0 -91.5 48t-39.5 118q0 86 51.5 138t147.5 52q99 0 156 -72.5t57 -185.5q0 -133 -50 -218t-180 -150q-18 -9 -41 -9q-50 0 -73 41q-11 19 -11 39q0 48 43 76z" />
    <glyph glyph-name="hyphen" unicode="-" horiz-adv-x="745" 
d="M643 608v-90q0 -40 -29 -69t-69 -29h-344q-40 0 -69.5 29t-29.5 69v90q0 40 29.5 69.5t69.5 29.5h344q40 0 69 -29.5t29 -69.5z" />
    <glyph glyph-name="period" unicode="." horiz-adv-x="565" 
d="M82 197q0 74 58 133t151 59q82 0 137 -59.5t55 -132.5q0 -85 -54 -147t-138 -62q-95 0 -152 61.5t-57 147.5z" />
    <glyph glyph-name="slash" unicode="/" horiz-adv-x="786" 
d="M811 1278l-598 -1612q-10 -29 -35.5 -46t-56.5 -17q-17 0 -35 6l-53 18q-29 10 -46.5 35.5t-17.5 56.5q0 17 6 35l600 1612q10 29 36 46.5t57 17.5q13 0 34 -7l52 -18q30 -10 46.5 -35.5t16.5 -56.5q0 -17 -6 -35z" />
    <glyph glyph-name="zero" unicode="0" horiz-adv-x="1114" 
d="M61 717q0 343 125.5 538t370.5 195t370.5 -195t125.5 -538q0 -344 -124 -538.5t-368 -194.5q-245 0 -372.5 195t-127.5 538zM389 717q0 -447 172 -447q89 0 126.5 99t37.5 348q0 248 -39 347t-129 99q-88 0 -128 -102t-40 -344z" />
    <glyph glyph-name="one" unicode="1" horiz-adv-x="811" 
d="M319 997l-65 -45q-24 -18 -55 -18q-51 0 -78 41l-64 88q-18 24 -18 55q0 51 41 78l270 197q54 41 105 41h77q38 0 66.5 -28.5t28.5 -66.5v-1245q0 -38 -28.5 -66t-66.5 -28h-118q-38 0 -66.5 28t-28.5 66v903z" />
    <glyph glyph-name="two" unicode="2" horiz-adv-x="1062" 
d="M981 193v-99q0 -38 -28 -66t-66 -28h-737q-38 0 -66.5 28t-28.5 66v103q0 50 49 96q9 9 28 27q63 61 96.5 93.5t92 93t91 100t74.5 97t64 102t38 96.5t16 99q0 142 -131 142q-74 0 -127 -80q-42 -64 -90 -64q-20 0 -53 13l-99 41q-23 11 -37 32.5t-14 47.5q0 22 8 38
q54 133 170 206t279 73q199 0 310.5 -112.5t111.5 -274.5q0 -405 -479 -776h434q38 0 66 -28t28 -66z" />
    <glyph glyph-name="three" unicode="3" horiz-adv-x="1083" 
d="M496 1458q191 0 310.5 -99.5t119.5 -266.5q0 -125 -52 -205.5t-161 -132.5q129 -29 198.5 -120.5t69.5 -223.5q0 -198 -138 -316.5t-349 -118.5q-137 0 -245.5 45t-205.5 148q-23 23 -23 63q0 45 27 72l70 70q33 33 73 33q36 0 70 -27q123 -96 213 -96q89 0 134.5 39.5
t45.5 99.5q0 158 -243 158q-38 0 -64.5 25.5t-26.5 62.5v139q0 32 24 56t58 24q87 0 142 36.5t55 106.5q0 51 -32 86t-99 35q-83 0 -186 -64q-29 -16 -60 -16q-50 0 -80 43l-49 70q-18 24 -18 59q0 50 35 74q183 141 387 141z" />
    <glyph glyph-name="four" unicode="4" horiz-adv-x="1187" 
d="M979 307v-213q0 -38 -28 -66t-66 -28h-119q-38 0 -66 28t-28 66v213h-578q-38 0 -66 28t-28 66v66q0 12 3.5 25.5t11 29.5t12 25t15.5 27t13 22l443 778q15 27 43.5 43.5t60.5 16.5h135q36 0 61 -25.5t25 -58.5q0 -22 -12 -43l-395 -693h256v213q0 38 28 66.5t66 28.5
h119q38 0 66 -28.5t28 -66.5v-213h74q38 0 66 -28t28 -66v-119q0 -38 -28 -66t-66 -28h-74z" />
    <glyph glyph-name="five" unicode="5" horiz-adv-x="1044" 
d="M254 340q102 -57 195 -57q83 0 134.5 50t51.5 130q0 91 -69.5 148t-194.5 57q-57 0 -113 -6q-3 0 -10 -1.5t-10 -1.5q-44 0 -70.5 26.5t-26.5 70.5q0 3 1 10t1 10l68 563q6 40 36.5 67.5t69.5 27.5h521q38 0 66 -28.5t28 -66.5v-118q0 -38 -28 -66.5t-66 -28.5h-344
l-29 -182h49q125 0 226 -54.5t162 -162.5t61 -250q0 -157 -70 -272t-187.5 -172.5t-265.5 -57.5q-213 0 -372 123q-35 24 -35 78q0 33 16 55l62 84q34 43 79 43q30 0 64 -18z" />
    <glyph glyph-name="six" unicode="6" horiz-adv-x="1155" 
d="M446 815q45 42 104 60t148 18q103 0 193 -53.5t146.5 -154.5t56.5 -228q0 -93 -27.5 -172.5t-74.5 -135.5t-109.5 -96t-131.5 -59t-141 -19q-117 0 -216.5 42t-167.5 114.5t-106 170t-38 206.5q0 177 51.5 332.5t141.5 271.5t205.5 200t250.5 134q19 8 43 8q60 0 88 -61
l29 -62q8 -16 8 -39q0 -61 -63 -90q-133 -58 -234.5 -158.5t-155.5 -228.5zM410 506q0 -103 53 -163t149 -60q76 0 115 44.5t39 106.5q0 76 -45.5 124t-128.5 48q-112 0 -182 -100z" />
    <glyph glyph-name="seven" unicode="7" horiz-adv-x="1044" 
d="M428 0h-119q-42 0 -71 29.5t-29 68.5q0 23 8 39l399 989h-481q-38 0 -66 28.5t-28 66.5v118q0 38 28 66.5t66 28.5h754q38 0 66 -28.5t28 -66.5v-65q0 -47 -25 -113l-436 -1098q-10 -28 -36.5 -45.5t-57.5 -17.5z" />
    <glyph glyph-name="eight" unicode="8" horiz-adv-x="1239" 
d="M635 891q67 0 103 40t36 93q0 61 -40.5 94t-117.5 33q-75 0 -113 -36t-38 -91q0 -53 36.5 -93t106.5 -40h27zM610 584q-74 0 -127 -40t-53 -112q0 -65 46.5 -107t141.5 -42q191 0 191 143v6q-1 74 -49 113t-125 39h-25zM618 1458q204 0 344 -106.5t140 -272.5
q0 -106 -55 -198.5t-150 -141.5q101 -30 170.5 -120t69.5 -222q0 -198 -143 -310t-373 -112q-228 0 -373.5 108t-145.5 288q0 136 61.5 228.5t158.5 137.5q-79 45 -132 131.5t-53 210.5q0 166 138.5 272.5t342.5 106.5z" />
    <glyph glyph-name="nine" unicode="9" horiz-adv-x="1144" 
d="M698 598q-83 -78 -223 -78q-116 0 -215 56.5t-159 159.5t-60 231q0 93 28.5 173.5t77.5 137.5t112.5 98.5t133.5 61.5t142 20q239 0 383.5 -151t144.5 -402q0 -383 -168 -605.5t-502 -313.5q-16 -4 -24 -4q-31 0 -58.5 20t-36.5 49l-24 80q-4 10 -4 31q0 31 17.5 56.5
t47.5 35.5q169 60 256 137.5t131 206.5zM735 907q0 105 -54.5 174.5t-148.5 69.5q-76 0 -119.5 -50t-43.5 -112q0 -76 50 -129t134 -53q112 0 182 100z" />
    <glyph glyph-name="colon" unicode=":" horiz-adv-x="647" 
d="M123 754q0 74 58 133t151 59q82 0 137 -59.5t55 -132.5q0 -85 -54 -147t-138 -62q-95 0 -152 61.5t-57 147.5zM123 197q0 74 58 133t151 59q82 0 137 -59.5t55 -132.5q0 -85 -54 -147t-138 -62q-95 0 -152 61.5t-57 147.5z" />
    <glyph glyph-name="semicolon" unicode=";" horiz-adv-x="661" 
d="M123 754q0 74 58 133t151 59q82 0 137 -59.5t55 -132.5q0 -85 -54 -147t-138 -62q-95 0 -152 61.5t-57 147.5zM227 -123q41 25 60 47q35 38 35 82v8q-14 -14 -52 -14h-12q-52 0 -91.5 48t-39.5 118q0 86 51.5 138t147.5 52q99 0 156 -72.5t57 -185.5q0 -133 -50 -218
t-180 -150q-18 -9 -41 -9q-50 0 -73 41q-11 19 -11 39q0 48 43 76z" />
    <glyph glyph-name="less" unicode="&#x3c;" 
d="M1085 377v-117q0 -38 -26 -63t-62 -25q-22 0 -43 12l-815 459q-26 15 -41.5 42t-15.5 56q0 30 15.5 57t41.5 42l815 454q23 13 43 13q36 0 62 -25t26 -63v-117q0 -30 -16 -56t-43 -38l-522 -267l524 -268q26 -13 41.5 -39.5t15.5 -56.5z" />
    <glyph glyph-name="equal" unicode="=" 
d="M1100 977v-70q0 -40 -29.5 -69t-69.5 -29h-774q-40 0 -69 29t-29 69v70q0 40 29 69t69 29h774q40 0 69.5 -29t29.5 -69zM1100 567v-69q0 -40 -29.5 -69.5t-69.5 -29.5h-774q-40 0 -69 29.5t-29 69.5v69q0 40 29 69.5t69 29.5h774q40 0 69.5 -29.5t29.5 -69.5z" />
    <glyph glyph-name="greater" unicode="&#x3e;" 
d="M143 260v117q0 29 16 56t42 40l524 268l-522 267q-27 12 -43.5 38t-16.5 56v117q0 38 26 63t62 25q20 0 43 -13l816 -454q26 -15 41.5 -42t15.5 -57q0 -29 -15.5 -56t-41.5 -42l-816 -459q-21 -12 -43 -12q-36 0 -62 25t-26 63z" />
    <glyph glyph-name="question" unicode="?" horiz-adv-x="978" 
d="M492 475h-117q-34 0 -52 24t-18 60q0 15 2 21q8 53 29 96.5t48 71.5t58 52.5t60 46t53 45.5t38.5 57t14.5 75q0 50 -39.5 88.5t-95.5 38.5q-50 0 -88.5 -12.5t-83.5 -44.5q-39 -27 -74 -27t-65 27l-60 55q-32 26 -32 72q0 36 26 65q71 82 177.5 127t215.5 45
q206 0 327.5 -105t121.5 -261q0 -67 -14.5 -120.5t-39 -90.5t-55 -67.5t-65 -59t-65.5 -57t-59.5 -69.5t-45.5 -89q-13 -38 -35 -51t-67 -13zM254 197q0 74 58 133t151 59q82 0 137 -59.5t55 -132.5q0 -85 -54 -147t-138 -62q-95 0 -152 61.5t-57 147.5z" />
    <glyph glyph-name="at" unicode="@" horiz-adv-x="2019" 
d="M102 461q0 189 71 356.5t193.5 288.5t295.5 191.5t368 70.5q187 0 349.5 -57.5t281.5 -160t187.5 -254t68.5 -331.5q0 -143 -49.5 -265t-152.5 -205.5t-242 -94.5h-263q-19 0 -32 13.5t-13 33.5q-92 -72 -219 -72q-207 0 -328.5 133.5t-121.5 352.5q0 205 150.5 345
t387.5 140q197 0 375 -80q25 -12 44.5 -42t19.5 -58v-479h38q47 0 83 72.5t36 205.5q0 102 -40 194.5t-114 164.5t-189.5 114.5t-256.5 42.5q-129 0 -244 -40.5t-204 -116t-141 -195.5t-52 -268q0 -136 52 -253.5t140 -197.5t204.5 -125t244.5 -45q72 0 127 8q3 0 9.5 1
t9.5 1q84 0 96 -71l16 -96q0 -2 1 -7.5t1 -7.5q0 -34 -21.5 -62t-54.5 -34q-102 -18 -184 -18q-197 0 -368.5 67t-294.5 185.5t-194 288t-71 366.5zM1165 330v297q-69 32 -133 32q-109 0 -159 -60.5t-50 -152.5q0 -88 50 -136t128 -48q93 0 164 68z" />
    <glyph glyph-name="A" unicode="A" horiz-adv-x="1476" 
d="M1012 301h-568l-92 -233q-12 -31 -39 -49.5t-59 -18.5h-125q-37 0 -62.5 26.5t-25.5 61.5q0 20 6 35l516 1243q14 31 41.5 49.5t59.5 18.5h149q32 0 59 -18.5t41 -49.5l517 -1243q6 -15 6 -35q0 -35 -25.5 -61.5t-62.5 -26.5h-146q-32 0 -59 18.5t-39 49.5zM729 1014
l-162 -406h322z" />
    <glyph glyph-name="B" unicode="B" horiz-adv-x="1263" 
d="M1100 1085q0 -210 -164 -321q87 -34 146 -118t59 -212q0 -146 -72.5 -247.5t-193 -148t-279.5 -46.5q-176 0 -317 6q-37 2 -66 31.5t-29 66.5v1239q0 38 28.5 68t66.5 31q192 8 339 8q125 0 219 -27.5t150.5 -77t84.5 -112.5t28 -140zM512 580v-269q46 -12 111 -12
q94 0 142 39.5t48 112.5q0 129 -174 129h-127zM512 866h109q69 0 110 33.5t41 106.5q0 61 -46.5 95t-111.5 34q-19 0 -102 -9v-260z" />
    <glyph glyph-name="C" unicode="C" horiz-adv-x="1337" 
d="M1036 1114q-92 37 -205 37q-173 0 -287 -114.5t-114 -319.5q0 -191 120.5 -312.5t313.5 -121.5q116 0 223 55q28 14 60 14q56 0 84 -49l49 -78q14 -25 14 -51q0 -53 -45 -86q-90 -62 -188.5 -87.5t-226.5 -25.5q-220 0 -391 92t-266 261t-95 389q0 124 30 235t91.5 204
t150 160t210.5 104.5t267 37.5q105 0 185.5 -19.5t163.5 -60.5q23 -10 36 -32.5t13 -47.5q0 -22 -10 -45l-45 -94q-24 -55 -89 -55q-22 0 -49 10z" />
    <glyph glyph-name="D" unicode="D" horiz-adv-x="1523" 
d="M279 1434q41 1 124 2.5t142.5 2.5t91.5 1q167 0 303 -37.5t228.5 -103t155 -156t90.5 -194t28 -220.5q0 -152 -52.5 -284t-152 -232.5t-258.5 -158.5t-358 -58q-56 0 -342 4q-39 0 -67 28t-28 68v1241q0 40 28.5 68.5t66.5 28.5zM512 1126v-819q43 -4 119 -4
q215 0 339 112t124 314q0 193 -127.5 298.5t-333.5 105.5q-73 0 -121 -7z" />
    <glyph glyph-name="E" unicode="E" horiz-adv-x="1177" 
d="M1055 213v-119q0 -38 -28 -66t-66 -28h-682q-38 0 -66.5 28t-28.5 66v1245q0 38 28.5 66.5t66.5 28.5h661q38 0 66 -28.5t28 -66.5v-118q0 -38 -28 -66.5t-66 -28.5h-428v-252h367q38 0 66 -28t28 -66v-118q0 -38 -28 -66.5t-66 -28.5h-367v-260h449q38 0 66 -28t28 -66z
" />
    <glyph glyph-name="F" unicode="F" horiz-adv-x="1095" 
d="M512 516v-422q0 -38 -28 -66t-66 -28h-139q-38 0 -66.5 28t-28.5 66v1245q0 38 28.5 66.5t66.5 28.5h641q38 0 66 -28.5t28 -66.5v-118q0 -38 -28 -66.5t-66 -28.5h-408v-303h346q38 0 66 -28t28 -66v-119q0 -38 -28 -66t-66 -28h-346z" />
    <glyph glyph-name="G" unicode="G" horiz-adv-x="1488" 
d="M430 717q0 -198 116 -316t308 -118q61 0 129.5 23t95.5 48v156h-211q-38 0 -66 28t-28 66v119q0 38 28 66t66 28h424q38 0 66 -28t28 -66v-483q0 -71 -55 -109q-96 -72 -228.5 -114t-252.5 -42q-182 0 -327 53t-241.5 150.5t-148 234.5t-51.5 304q0 154 51 289.5
t143 235.5t230 158t303 58q128 0 218 -19.5t173 -64.5q57 -31 57 -88q0 -24 -12 -45l-55 -98q-30 -53 -86 -53q-25 0 -49 12q-100 49 -207 49q-121 0 -213.5 -46t-148.5 -145.5t-56 -242.5z" />
    <glyph glyph-name="H" unicode="H" horiz-adv-x="1546" 
d="M1362 1339v-1245q0 -38 -28 -66t-66 -28h-140q-38 0 -66 28t-28 66v484h-522v-484q0 -38 -28 -66t-66 -28h-139q-38 0 -66.5 28t-28.5 66v1245q0 38 28.5 66.5t66.5 28.5h139q38 0 66 -28.5t28 -66.5v-454h522v454q0 38 28 66.5t66 28.5h140q38 0 66 -28.5t28 -66.5z" />
    <glyph glyph-name="I" unicode="I" horiz-adv-x="737" 
d="M532 1339v-1245q0 -38 -28 -66t-66 -28h-139q-38 0 -66 28t-28 66v1245q0 38 28 66.5t66 28.5h139q38 0 66 -28.5t28 -66.5z" />
    <glyph glyph-name="J" unicode="J" horiz-adv-x="833" 
d="M322 410v929q0 38 28 66.5t66 28.5h139q38 0 66 -28.5t28 -66.5v-989q0 -183 -98 -279t-281 -96q-121 0 -223 52q-53 26 -53 77q0 23 12 50l37 84q25 57 80 57q23 0 47 -6q23 -6 45 -6h10q44 0 70.5 33t26.5 94z" />
    <glyph glyph-name="K" unicode="K" horiz-adv-x="1409" 
d="M512 682v-588q0 -38 -28 -66t-66 -28h-139q-38 0 -66.5 28t-28.5 66v1245q0 38 28.5 66.5t66.5 28.5h139q38 0 66 -28.5t28 -66.5v-530l426 567q20 26 51.5 42t63.5 16h135q39 0 64.5 -26.5t25.5 -61.5q0 -31 -21 -58l-421 -516l469 -622q20 -26 20 -58q0 -36 -27 -64
t-67 -28h-158q-33 0 -64 16t-51 43z" />
    <glyph glyph-name="L" unicode="L" horiz-adv-x="1116" 
d="M1096 213v-119q0 -38 -28.5 -66t-66.5 -28h-722q-38 0 -66.5 28t-28.5 66v1245q0 38 28.5 66.5t66.5 28.5h139q38 0 66 -28.5t28 -66.5v-1032h489q38 0 66.5 -28t28.5 -66z" />
    <glyph glyph-name="M" unicode="M" horiz-adv-x="1867" 
d="M512 907v-813q0 -38 -28 -66t-66 -28h-139q-38 0 -66.5 28t-28.5 66v1245q0 38 28.5 66.5t66.5 28.5h172q61 0 106 -58l399 -547l377 545q41 60 103 60h153q38 0 66 -28.5t28 -66.5v-1245q0 -38 -28 -66t-66 -28h-139q-38 0 -66 28t-28 66v819l-297 -417
q-54 -72 -125 -72t-125 72z" />
    <glyph glyph-name="N" unicode="N" horiz-adv-x="1617" 
d="M1221 1434h118q38 0 66.5 -28.5t28.5 -66.5v-1245q0 -38 -28.5 -66t-66.5 -28h-96q-33 0 -65 15.5t-52 41.5l-634 803v-766q0 -38 -28.5 -66t-66.5 -28h-118q-38 0 -66.5 28t-28.5 66v1245q0 38 28.5 66.5t66.5 28.5h96q32 0 64.5 -16t52.5 -42l634 -807v770
q0 38 28.5 66.5t66.5 28.5z" />
    <glyph glyph-name="O" unicode="O" horiz-adv-x="1687" 
d="M82 717q0 155 55.5 291t153.5 235.5t241.5 157t311.5 57.5q218 0 390.5 -89t272 -258.5t99.5 -393.5q0 -160 -58 -298.5t-159 -235.5t-242 -152.5t-303 -55.5q-163 0 -303 52t-241.5 147t-159.5 235t-58 308zM430 717q0 -183 120.5 -308.5t293.5 -125.5q132 0 227 58.5
t140.5 155.5t45.5 220q0 193 -118 313.5t-295 120.5q-181 0 -297.5 -120t-116.5 -314z" />
    <glyph glyph-name="P" unicode="P" horiz-adv-x="1284" 
d="M623 1438q127 0 227.5 -26t165.5 -69.5t107.5 -105.5t60.5 -129.5t18 -144.5q0 -96 -36.5 -183t-103 -153.5t-168 -106t-222.5 -39.5q-109 0 -160 6v-393q0 -38 -28 -66t-66 -28h-139q-38 0 -66.5 28t-28.5 66v1243q0 40 28.5 68.5t66.5 28.5q218 4 344 4zM512 1126v-327
q86 -11 150 -11q35 0 66.5 8.5t61 27.5t47 55t17.5 86q0 90 -52 127.5t-147 37.5q-7 0 -143 -4z" />
    <glyph glyph-name="Q" unicode="Q" horiz-adv-x="1687" 
d="M1276 -35l-78 86q-161 -76 -354 -76q-163 0 -303 52t-241.5 147t-159.5 235t-58 308q0 155 55.5 291t153.5 235.5t241.5 157t311.5 57.5q218 0 390.5 -89t272 -258.5t99.5 -393.5q0 -291 -179 -492l60 -65q24 -27 24 -66q0 -42 -30 -69l-72 -66q-28 -25 -63 -25
q-42 0 -70 31zM1147 553l57 -68q53 100 53 232q0 193 -118 313.5t-295 120.5q-181 0 -297.5 -120t-116.5 -314q0 -183 120.5 -308.5t293.5 -125.5q74 0 139 18l-51 59q-23 30 -23 64q0 46 33 72l72 65q28 25 63 25q40 0 70 -33z" />
    <glyph glyph-name="R" unicode="R" horiz-adv-x="1370" 
d="M940 59l-307 443h-121v-408q0 -38 -28 -66t-66 -28h-139q-38 0 -66.5 28t-28.5 66v1245q0 38 28.5 66.5t66.5 28.5q278 4 393 4q143 0 247 -34t165 -97t89.5 -144t28.5 -184q0 -76 -18 -141.5t-43.5 -108t-61.5 -78.5t-62.5 -54t-55.5 -32l315 -426q18 -24 18 -51
q0 -35 -25.5 -61.5t-64.5 -26.5h-151q-33 0 -64 16t-49 43zM512 809h119q101 0 162 40t61 126q0 155 -199 155q-7 0 -143 -4v-317z" />
    <glyph glyph-name="S" unicode="S" horiz-adv-x="1140" 
d="M109 270l59 86q27 43 76 43q34 0 63 -20q147 -96 258 -96q64 0 99.5 29.5t35.5 80.5q0 43 -33 79t-85.5 64t-116.5 57.5t-128 68.5t-116.5 87.5t-85.5 124.5t-33 170q0 172 127.5 293t335.5 121q210 0 355 -94q38 -23 38 -80q0 -28 -12 -49l-53 -90q-30 -49 -82 -49
q-26 0 -55 16q-76 39 -162 39q-67 0 -105 -28.5t-38 -78.5q0 -42 25.5 -77t67.5 -59t96 -50.5t110 -51t110 -62.5t96 -82.5t67.5 -112.5t25.5 -152q0 -185 -141 -303.5t-351 -118.5q-225 0 -434 164q-31 25 -31 72q0 36 17 59z" />
    <glyph glyph-name="T" unicode="T" 
d="M684 0h-139q-38 0 -66 28t-28 66v1032h-336q-38 0 -66.5 28.5t-28.5 66.5v118q0 38 28.5 66.5t66.5 28.5h999q38 0 66 -28.5t28 -66.5v-118q0 -38 -28 -66.5t-66 -28.5h-336v-1032q0 -38 -28 -66t-66 -28z" />
    <glyph glyph-name="U" unicode="U" horiz-adv-x="1538" 
d="M1047 657v682q0 38 28 66.5t66 28.5h139q38 0 66 -28.5t28 -66.5v-747q0 -128 -31.5 -232t-86 -174.5t-129.5 -119t-160 -70t-179 -21.5q-139 0 -253 40t-197 117.5t-128.5 198t-45.5 275.5v733q0 38 28 66.5t66 28.5h139q38 0 66.5 -28.5t28.5 -66.5v-663
q0 -88 14.5 -156t47 -123t92 -84.5t142.5 -29.5q142 0 200.5 95t58.5 279z" />
    <glyph glyph-name="V" unicode="V" horiz-adv-x="1339" 
d="M354 1366l334 -879l320 879q11 30 37.5 49t58.5 19h125q37 0 63.5 -27.5t26.5 -63.5q0 -16 -6 -34l-484 -1241q-12 -31 -39 -49.5t-59 -18.5h-108q-32 0 -59.5 18.5t-39.5 49.5l-497 1241q-7 17 -7 32q0 37 26.5 65t64.5 28h145q32 0 59 -18.5t39 -49.5z" />
    <glyph glyph-name="W" unicode="W" horiz-adv-x="2041" 
d="M129 1434h143q41 0 74.5 -26.5t44.5 -66.5l217 -813l242 815q12 40 46 65.5t75 25.5h141q41 0 76 -25.5t47 -65.5l248 -815l221 813q11 40 44.5 66.5t74.5 26.5h88q41 0 70.5 -30.5t29.5 -72.5q0 -10 -4 -26l-340 -1213q-12 -40 -46 -66t-75 -26h-147q-31 0 -57.5 19.5
t-36.5 50.5l-277 852l-272 -852q-10 -31 -36.5 -50.5t-57.5 -19.5h-148q-41 0 -75 25t-46 65l-358 1215q-4 10 -4 30q0 40 28.5 69.5t69.5 29.5z" />
    <glyph glyph-name="X" unicode="X" horiz-adv-x="1363" 
d="M438 1372l252 -399l242 399q17 28 46.5 45t61.5 17h134q41 0 69.5 -29.5t28.5 -67.5q0 -26 -17 -53l-360 -553l379 -581q16 -26 16 -54q0 -38 -28 -67t-70 -29h-133q-32 0 -62 16.5t-49 44.5l-268 420l-264 -420q-19 -28 -49 -44.5t-62 -16.5h-133q-42 0 -70 29t-28 67
q0 28 16 54l379 581l-356 551q-17 27 -17 53q0 39 28.5 69t70.5 30h133q68 0 110 -62z" />
    <glyph glyph-name="Y" unicode="Y" horiz-adv-x="1327" 
d="M403 1370l273 -479l268 479q15 29 44.5 46.5t62.5 17.5h102q43 0 72.5 -31t29.5 -72q0 -29 -14 -51l-416 -696v-490q0 -38 -28 -66t-66 -28h-139q-38 0 -66 28t-28 66v490l-412 696q-14 22 -14 51q0 41 29.5 72t72.5 31h123q33 0 62 -17.5t44 -46.5z" />
    <glyph glyph-name="Z" unicode="Z" horiz-adv-x="1331" 
d="M82 94v64q0 32 13 60t44 69l641 839h-563q-38 0 -66 28.5t-28 66.5v118q0 38 28 66.5t66 28.5h918q38 0 66 -28.5t28 -66.5v-63q0 -57 -55 -129l-644 -840h625q38 0 66 -28t28 -66v-119q0 -38 -28 -66t-66 -28h-979q-38 0 -66 28t-28 66z" />
    <glyph glyph-name="bracketleft" unicode="[" horiz-adv-x="778" 
d="M737 -221v-90q0 -40 -29 -69.5t-69 -29.5h-418q-40 0 -69 29.5t-29 69.5v1544q0 40 29 69t69 29h418q40 0 69 -29t29 -69v-90q0 -40 -29 -69.5t-69 -29.5h-209v-1167h209q40 0 69 -29t29 -69z" />
    <glyph glyph-name="backslash" unicode="\" horiz-adv-x="786" 
d="M573 -334l-598 1612q-6 18 -6 35q0 30 17 56t47 36l51 18q21 7 35 7q31 0 56.5 -17.5t35.5 -46.5l600 -1612q6 -18 6 -35q0 -31 -17 -56.5t-46 -35.5l-54 -18q-18 -6 -34 -6q-31 0 -57 17t-36 46z" />
    <glyph glyph-name="bracketright" unicode="]" horiz-adv-x="778" 
d="M41 1143v90q0 40 29 69t69 29h418q40 0 69 -29t29 -69v-1544q0 -40 -29 -69.5t-69 -29.5h-418q-40 0 -69 29.5t-29 69.5v90q0 40 29 69t69 29h209v1167h-209q-40 0 -69 29.5t-29 69.5z" />
    <glyph glyph-name="asciicircum" unicode="^" horiz-adv-x="1069" 
d="M653 983l-118 164l-119 -164q-45 -61 -119 -61h-80q-39 0 -64.5 27t-25.5 63q0 27 18 51l240 326q20 28 53 44.5t68 16.5h61q73 0 121 -61l236 -324q18 -24 18 -53q0 -36 -25.5 -63t-64.5 -27h-80q-74 0 -119 61z" />
    <glyph glyph-name="underscore" unicode="_" horiz-adv-x="768" 
d="M768 -201v-110q0 -40 -29 -69.5t-69 -29.5h-572q-40 0 -69 29.5t-29 69.5v110q0 40 29 69.5t69 29.5h572q40 0 69 -29.5t29 -69.5z" />
    <glyph glyph-name="grave" unicode="`" horiz-adv-x="700" 
d="M422 1415l100 -164q17 -31 17 -59q0 -57 -52 -96q-36 -25 -75 -25q-51 0 -90 39l-125 135q-27 30 -27 68q0 50 39 78l72 51q23 20 59 20q58 0 82 -47z" />
    <glyph glyph-name="a" unicode="a" horiz-adv-x="952" 
d="M61 279q0 150 93.5 227.5t238.5 77.5q56 0 105.5 -16t74.5 -36v19q0 139 -131 139q-72 0 -151 -22q-20 -4 -29 -4q-62 0 -80 53l-26 67q-6 15 -6 31q0 52 49 74q132 57 278 57q204 0 293.5 -98t89.5 -293v-477q0 -32 -23 -55t-55 -23h-110q-33 0 -55.5 23.5t-22.5 58.5
q-33 -45 -99 -69.5t-143 -24.5q-128 0 -209.5 77.5t-81.5 213.5zM573 291v57q-45 31 -116 31q-39 0 -63.5 -18.5t-24.5 -51.5q0 -30 24.5 -47.5t63.5 -17.5q82 0 116 47z" />
    <glyph glyph-name="b" unicode="b" horiz-adv-x="1120" 
d="M420 897q93 49 203 49q200 0 318 -131.5t118 -339.5q0 -229 -144 -364.5t-395 -135.5q-175 0 -350 72q-23 9 -40 34t-17 50v1225q0 32 22.5 55t54.5 23h152q32 0 55 -23t23 -55v-459zM420 600v-311q52 -27 115 -27q86 0 141 51.5t55 143.5q0 101 -54 151.5t-128 50.5
q-70 0 -129 -59z" />
    <glyph glyph-name="c" unicode="c" horiz-adv-x="997" 
d="M729 623q-71 36 -141 36q-79 0 -139 -53t-60 -145q0 -89 62.5 -144t140.5 -55q73 0 143 45q29 19 58 19q40 0 63 -33l64 -84q16 -22 16 -49q0 -43 -33 -66q-147 -119 -330 -119q-234 0 -373 133.5t-139 352.5q0 134 60.5 244t173 175.5t254.5 65.5q97 0 170 -18t151 -68
q45 -28 45 -72q0 -20 -12 -38l-59 -99q-24 -41 -70 -41q-22 0 -45 13z" />
    <glyph glyph-name="d" unicode="d" horiz-adv-x="1140" 
d="M1028 1356v-1278q0 -32 -23 -55t-55 -23h-155q-31 0 -52.5 22t-21.5 54q-95 -92 -234 -92q-195 0 -310.5 127t-115.5 338q0 220 141.5 358.5t366.5 138.5q91 0 152 -28v438q0 32 23 55t55 23h151q32 0 55 -23t23 -55zM721 338v283q-65 38 -137 38q-79 0 -137 -52
t-58 -148q0 -88 49 -138.5t113 -50.5q95 0 170 68z" />
    <glyph glyph-name="e" unicode="e" horiz-adv-x="1048" 
d="M932 358h-553q21 -63 78.5 -95t136.5 -32q92 0 166 27q21 8 45 8q51 0 72 -43l32 -65q9 -18 9 -37q0 -45 -37 -68q-82 -46 -154.5 -62t-165.5 -16q-227 0 -363.5 133.5t-136.5 352.5q0 134 61 244t176 175.5t263 65.5q119 0 220.5 -53t164 -153.5t62.5 -227.5
q0 -48 -7 -92q-3 -23 -24.5 -42.5t-44.5 -19.5zM700 563q0 51 -40 89t-109 38q-74 0 -116.5 -31.5t-65.5 -95.5h331z" />
    <glyph glyph-name="f" unicode="f" horiz-adv-x="661" 
d="M420 635v-557q0 -32 -23 -55t-55 -23h-152q-32 0 -54.5 23t-22.5 55v993q0 188 89.5 287.5t246.5 99.5q123 0 229 -53q45 -22 45 -68q0 -23 -10 -43l-49 -94q-22 -43 -62 -43q-11 0 -31 4q-43 10 -67 10q-84 0 -84 -118v-131h117q32 0 54.5 -23t22.5 -55v-131
q0 -32 -22.5 -55t-54.5 -23h-117z" />
    <glyph glyph-name="g" unicode="g" horiz-adv-x="1044" 
d="M518 223q0 -17 6 -35q131 -4 230.5 -36.5t162 -102t62.5 -168.5q0 -103 -68 -173.5t-175.5 -102t-246.5 -31.5q-104 0 -190 17.5t-154.5 53.5t-106.5 96t-38 140q0 115 82 188.5t223 102.5q-12 24 -12 51q0 31 14 53q-107 42 -167 127.5t-60 188.5q0 145 111.5 249.5
t295.5 104.5q137 0 236 -61l209 43q3 0 8 1t8 1q28 0 50 -18t28 -46l16 -82q0 -3 1 -8t1 -8q0 -28 -17.5 -50t-45.5 -28l-96 -20q10 -45 10 -78q0 -136 -103 -236t-272 -110q-2 -8 -2 -23zM287 -119q0 -61 202 -61q203 0 203 61q0 64 -203 64q-101 0 -151.5 -17.5
t-50.5 -46.5zM367 592q0 -44 31.5 -72t88.5 -28q54 0 87.5 26t33.5 74q0 46 -30.5 77t-90.5 31q-56 0 -88 -32t-32 -76z" />
    <glyph glyph-name="h" unicode="h" horiz-adv-x="1114" 
d="M420 592v-514q0 -32 -23 -55t-55 -23h-152q-32 0 -54.5 23t-22.5 55v1278q0 32 22.5 55t54.5 23h152q32 0 55 -23t23 -55v-498q90 80 227 80q83 0 149 -22t118 -68t80 -124t28 -183v-463q0 -32 -23 -55t-55 -23h-151q-32 0 -55 23t-23 55v424q0 68 -41.5 108.5
t-106.5 40.5q-88 0 -147 -59z" />
    <glyph glyph-name="i" unicode="i" horiz-adv-x="585" 
d="M446 844v-766q0 -32 -22.5 -55t-54.5 -23h-152q-32 0 -55 23t-23 55v766q0 32 23 55t55 23h152q32 0 54.5 -23t22.5 -55zM113 1239q0 79 54 126.5t132 47.5q70 0 122 -48t52 -126q0 -86 -51.5 -136t-122.5 -50q-79 0 -132.5 49.5t-53.5 136.5z" />
    <glyph glyph-name="j" unicode="j" horiz-adv-x="581" 
d="M162 -39v883q0 32 23 55t55 23h151q32 0 55 -23t23 -55v-912q0 -358 -289 -358q-102 0 -190 33q-51 16 -51 71q0 7 4 27l34 109q17 51 66 51q17 0 25 -2q20 -4 36 -4q58 0 58 102zM137 1239q0 79 54.5 126.5t132.5 47.5q70 0 122 -48t52 -126q0 -86 -51.5 -136
t-122.5 -50q-79 0 -133 49.5t-54 136.5z" />
    <glyph glyph-name="k" unicode="k" horiz-adv-x="1093" 
d="M420 440v-362q0 -32 -23 -55t-55 -23h-152q-32 0 -54.5 23t-22.5 55v1278q0 32 22.5 55t54.5 23h152q32 0 55 -23t23 -55v-834l219 346q33 54 94 54h166q34 0 58 -24t24 -56q0 -25 -16 -47l-207 -289l254 -377q14 -20 14 -47q0 -33 -24 -57.5t-60 -24.5h-174
q-28 0 -54.5 14.5t-41.5 38.5z" />
    <glyph glyph-name="l" unicode="l" horiz-adv-x="632" 
d="M113 264v1092q0 32 22.5 55t54.5 23h152q32 0 55 -23t23 -55v-975q0 -66 11.5 -92.5t45.5 -26.5q3 0 22 1t33 1q27 0 41 -11t23 -38l29 -90q4 -12 4 -31q0 -55 -56 -74q-113 -45 -219 -45q-241 0 -241 289z" />
    <glyph glyph-name="m" unicode="m" horiz-adv-x="1634" 
d="M420 840q106 98 272 98q101 0 168.5 -38t93.5 -97q109 135 297 135q134 0 212.5 -79t78.5 -257v-524q0 -32 -23 -55t-55 -23h-151q-32 0 -55 23t-23 55v442q0 131 -115 131q-47 0 -85.5 -22.5t-53.5 -57.5v-493q0 -32 -23 -55t-55 -23h-151q-32 0 -55 23t-23 55v444
q0 60 -27.5 94.5t-81.5 34.5q-94 0 -145 -73v-500q0 -32 -23 -55t-55 -23h-152q-32 0 -54.5 23t-22.5 55v766q0 32 22.5 55t54.5 23h152q33 0 55.5 -23.5t22.5 -58.5z" />
    <glyph glyph-name="n" unicode="n" horiz-adv-x="1114" 
d="M420 588v-510q0 -32 -23 -55t-55 -23h-152q-32 0 -54.5 23t-22.5 55v766q0 32 22.5 55t54.5 23h160q29 0 49.5 -20.5t20.5 -49.5q40 37 99.5 61.5t127.5 24.5q83 0 149 -20.5t118 -65t80 -121.5t28 -182v-471q0 -32 -23 -55t-55 -23h-151q-32 0 -55 23t-23 55v418
q0 77 -41 116t-111 39q-80 0 -143 -63z" />
    <glyph glyph-name="o" unicode="o" horiz-adv-x="1146" 
d="M61 461q0 211 140 348t372 137t372 -137t140 -348t-140 -348.5t-372 -137.5t-372 137.5t-140 348.5zM389 461q0 -87 52.5 -143t131.5 -56q80 0 132.5 54t52.5 145q0 88 -53.5 143t-131.5 55q-77 0 -130.5 -54t-53.5 -144z" />
    <glyph glyph-name="p" unicode="p" horiz-adv-x="1148" 
d="M420 4v-336q0 -32 -23 -55t-55 -23h-152q-32 0 -54.5 23t-22.5 55v1176q0 32 22.5 55t54.5 23h162q28 0 48 -20t20 -48q41 40 108.5 66t147.5 26q184 0 297.5 -132.5t113.5 -338.5q0 -140 -60.5 -253.5t-174.5 -180t-260 -66.5q-103 0 -172 29zM420 578v-281
q34 -20 64 -27.5t79 -7.5q95 0 146 58.5t51 148.5q0 83 -47.5 136.5t-132.5 53.5q-88 0 -160 -81z" />
    <glyph glyph-name="q" unicode="q" horiz-adv-x="1150" 
d="M1038 774v-1106q0 -32 -22.5 -55t-54.5 -23h-152q-32 0 -55 23t-23 55v350q-93 -43 -184 -43q-224 0 -355 133t-131 353q0 205 151 345t388 140q204 0 383 -84q23 -10 39 -36.5t16 -51.5zM731 315v312q-69 32 -133 32q-109 0 -159 -60.5t-50 -152.5q0 -76 55.5 -130
t143.5 -54q87 0 143 53z" />
    <glyph glyph-name="r" unicode="r" horiz-adv-x="755" 
d="M420 586v-508q0 -32 -23 -55t-55 -23h-152q-32 0 -54.5 23t-22.5 55v766q0 32 22.5 55t54.5 23h158q29 0 50.5 -21.5t21.5 -50.5q64 88 180 88q64 0 111 -14q51 -15 51 -66q0 -22 -8 -41l-60 -129q-21 -49 -82 -49q-10 0 -30 4q-32 8 -58 8q-69 0 -104 -65z" />
    <glyph glyph-name="s" unicode="s" horiz-adv-x="940" 
d="M84 211l55 76q18 30 58 30q31 0 67 -20q118 -66 232 -66q69 0 69 41q0 19 -27 33.5t-70 25t-94.5 23t-103.5 34.5t-95 53t-70 83.5t-27 120.5q0 143 102.5 222t257.5 79q172 0 320 -76q20 -10 31.5 -30.5t11.5 -42.5q0 -20 -8 -33l-41 -78q-26 -47 -76 -47q-11 0 -35 8
q-98 43 -184 43q-32 0 -52 -12.5t-20 -28.5q0 -22 36 -38t90 -25.5t117.5 -30.5t117.5 -49.5t90 -85t36 -133.5q0 -141 -107 -226.5t-290 -85.5q-235 0 -377 121q-30 23 -30 64q0 29 16 51z" />
    <glyph glyph-name="t" unicode="t" horiz-adv-x="743" 
d="M641 240l43 -84q8 -16 8 -37q0 -48 -43 -72q-126 -72 -270 -72q-152 0 -219.5 95.5t-67.5 279.5v750q0 32 23 55t55 23h152q32 0 54.5 -23t22.5 -55v-178h179q32 0 54.5 -23t22.5 -55v-131q0 -32 -22.5 -55t-54.5 -23h-179v-270q0 -45 16.5 -74t51.5 -29t70 14q21 9 38 9
q46 0 66 -45z" />
    <glyph glyph-name="u" unicode="u" horiz-adv-x="1085" 
d="M666 346v498q0 32 22.5 55t54.5 23h152q32 0 55 -23t23 -55v-766q0 -32 -23 -55t-55 -23h-152q-33 0 -55 24t-22 62q-98 -111 -265 -111q-60 0 -114.5 22t-98.5 65.5t-70 115.5t-26 164v502q0 32 23 55t55 23h152q32 0 54.5 -23t22.5 -55v-436q0 -62 28.5 -104t90.5 -42
q81 0 148 84z" />
    <glyph glyph-name="v" unicode="v" horiz-adv-x="995" 
d="M461 631q41 -95 61 -213q20 115 60 215l86 229q11 27 34 43.5t50 16.5h118q41 0 69 -29t28 -68q0 -19 -9 -37l-307 -731q-10 -26 -34 -41.5t-52 -15.5h-108q-28 0 -52 15.5t-36 41.5l-332 734q-8 16 -8 38q0 38 26.5 65.5t65.5 27.5h160q28 0 52 -16t34 -42z" />
    <glyph glyph-name="w" unicode="w" horiz-adv-x="1505" 
d="M1044 502q12 -33 29 -121q11 77 23 125l86 354q6 27 27 44.5t48 17.5h127q38 0 64.5 -27t26.5 -64q0 -4 -5 -24l-231 -748q-7 -26 -30 -42.5t-50 -16.5h-158q-27 0 -49.5 16t-33.5 41l-142 369q-6 15 -10.5 31.5t-9 40t-6.5 32.5q-8 -56 -29 -108l-141 -365
q-11 -25 -34 -41t-50 -16h-142q-27 0 -50 16.5t-30 42.5l-239 748q-4 16 -4 27q0 36 26 62t62 26h147q26 0 48.5 -17t29.5 -43l96 -362q8 -29 21 -117q13 77 26 117l119 362q9 26 32.5 43t49.5 17h152q28 0 50.5 -17t31.5 -43z" />
    <glyph glyph-name="x" unicode="x" horiz-adv-x="1085" 
d="M436 866l113 -207l117 207q14 25 39 40.5t53 15.5h133q37 0 61.5 -25.5t24.5 -60.5q0 -28 -14 -48l-199 -305l221 -348q14 -20 14 -47q0 -36 -25 -62t-63 -26h-153q-28 0 -53.5 15t-38.5 40l-129 236l-140 -238q-13 -24 -38.5 -38.5t-53.5 -14.5h-133q-37 0 -61.5 25.5
t-24.5 60.5q0 27 14 47l217 334l-198 319q-15 24 -15 48q0 36 25.5 62t63.5 26h153q28 0 53 -15.5t37 -40.5z" />
    <glyph glyph-name="y" unicode="y" horiz-adv-x="1054" 
d="M524 500q15 -39 35 -127q8 77 23 129l104 360q7 26 29.5 43t48.5 17h145q42 0 70.5 -30t28.5 -69q0 -14 -7 -35l-307 -788q-68 -166 -124 -254t-112.5 -122t-135.5 -34q-97 0 -195 62q-33 23 -33 63q0 24 12 45l46 80q15 28 28 38.5t39 10.5q11 0 39 -8t49 -8q48 0 80 78
l21 49l-353 791q-8 16 -8 38q0 38 26.5 65.5t65.5 27.5h166q27 0 50 -16.5t34 -43.5z" />
    <glyph glyph-name="z" unicode="z" horiz-adv-x="1013" 
d="M82 78v102q0 45 33 78l389 377h-314q-32 0 -54.5 23t-22.5 55v131q0 32 22.5 55t54.5 23h664q32 0 55 -23t23 -55v-103q0 -44 -33 -77l-391 -377h336q32 0 55 -23t23 -55v-131q0 -32 -23 -55t-55 -23h-684q-32 0 -55 23t-23 55z" />
    <glyph glyph-name="braceleft" unicode="{" horiz-adv-x="798" 
d="M758 -201v-131q0 -32 -23 -55t-55 -23h-117q-168 0 -253 74.5t-85 247.5v215q0 145 -106 188q-44 17 -61 41.5t-17 71.5v64q0 50 15.5 73t62.5 45q106 48 106 209v174q0 176 82.5 257t280.5 81h92q32 0 55 -23t23 -55v-131q0 -33 -24 -55.5t-62 -22.5q-81 0 -110.5 -31.5
t-29.5 -127.5v-189q0 -99 -41.5 -161.5t-111.5 -71.5q70 -8 111.5 -65t41.5 -169v-188q0 -91 32 -127.5t116 -36.5q32 0 55 -23t23 -55z" />
    <glyph glyph-name="bar" unicode="|" horiz-adv-x="716" 
d="M512 1356v-1278q0 -32 -23 -55t-55 -23h-151q-32 0 -55 23t-23 55v1278q0 32 23 55t55 23h151q32 0 55 -23t23 -55z" />
    <glyph glyph-name="braceright" unicode="}" horiz-adv-x="798" 
d="M758 492v-64q0 -47 -17 -71.5t-61 -41.5q-107 -43 -107 -188v-215q0 -173 -85 -247.5t-252 -74.5h-117q-32 0 -55 23t-23 55v131q0 32 23 55t57 23q82 0 113.5 36.5t31.5 127.5v188q0 112 42 169t112 65q-70 9 -112 71.5t-42 161.5v189q0 96 -29 127.5t-110 31.5
q-38 0 -62 22.5t-24 55.5v131q0 32 23 55t55 23h92q198 0 280 -81t82 -257v-174q0 -160 107 -209q47 -22 62.5 -45t15.5 -73z" />
    <glyph glyph-name="asciitilde" unicode="~" 
d="M1178 768q0 -33 -18 -66.5t-42 -54.5q-132 -106 -254 -106q-69 0 -156 29.5t-169 59t-138 29.5q-53 0 -131 -53q-42 -28 -80 -28q-50 0 -90 43q-26 26 -26 73q0 52 37 86q151 142 284 142q56 0 122 -18.5t116.5 -41t113.5 -41t113 -18.5q43 0 125 53q42 25 76 25
q53 0 92 -45q25 -28 25 -68z" />
    <glyph glyph-name="uni00A0" unicode="&#xa0;" horiz-adv-x="409" 
 />
    <glyph glyph-name="exclamdown" unicode="&#xa1;" horiz-adv-x="634" 
d="M154 -406v693q0 38 28 66t66 28h139q38 0 66 -28t28 -66v-693q0 -38 -28 -66t-66 -28h-139q-38 0 -66 28t-28 66zM518 737q0 -74 -58 -133t-151 -59q-82 0 -137 59.5t-55 132.5q0 85 54 147t138 62q95 0 152 -61.5t57 -147.5z" />
    <glyph glyph-name="cent" unicode="&#xa2;" horiz-adv-x="1222" 
d="M842 623q-71 36 -142 36q-79 0 -138.5 -53t-59.5 -145q0 -89 62.5 -144t140.5 -55q73 0 143 45q28 19 57 19q41 0 64 -33l63 -84q17 -24 17 -49q0 -43 -33 -66q-101 -80 -207 -104v-158q0 -32 -23 -55t-55 -23h-151q-32 0 -55 23t-23 55v168q-154 46 -241 167t-87 294
q0 162 89 288t239 173v153q0 32 23 55t55 23h151q32 0 55 -23t23 -55v-141q87 -18 174 -74q45 -28 45 -72q0 -20 -12 -38l-60 -99q-24 -41 -69 -41q-22 0 -45 13z" />
    <glyph glyph-name="sterling" unicode="&#xa3;" horiz-adv-x="1249" 
d="M1214 182q0 -49 -38 -76q-148 -112 -314 -112q-79 0 -233.5 53t-233.5 53q-59 0 -137 -55q-36 -25 -70 -25q-41 0 -75 37l-56 66q-22 28 -22 67q0 42 24 66q70 65 179 115q43 77 51 151h-90q-38 0 -66.5 28t-28.5 66v58q0 38 28.5 66t66.5 28h51q-3 7 -17.5 41.5t-19 47
t-15 43.5t-14.5 50.5t-8 49t-4 57.5q0 176 135.5 285.5t347.5 109.5q111 0 184.5 -22.5t153.5 -75.5q39 -26 39 -80q0 -31 -14 -51l-53 -84q-30 -47 -84 -47q-29 0 -54 14q-71 39 -157 39q-69 0 -109.5 -34t-40.5 -103q0 -44 36.5 -121.5t47.5 -118.5h213q38 0 66 -28
t28 -66v-58q0 -38 -28 -66t-66 -28h-215q-17 -63 -67 -135q36 -10 105 -34.5t122.5 -38t103.5 -13.5q75 0 142 37q29 16 57 16q51 0 84 -47l47 -67q18 -27 18 -58z" />
    <glyph glyph-name="currency" unicode="&#xa4;" horiz-adv-x="1208" 
d="M227 188q-52 0 -94 39q-39 39 -39 95q0 55 39 94l49 49q-57 102 -57 231q0 128 59 234l-51 51q-39 42 -39 96q0 55 39 94t94 39q54 0 95 -41l55 -55q96 47 227 47q123 0 225 -47l56 55q39 39 96 39q58 0 94 -39q39 -36 39 -94q0 -55 -39 -94l-51 -51q59 -106 59 -234
q0 -123 -57 -231l47 -47q41 -41 41 -94q0 -56 -39 -95t-94 -39q-54 0 -96 39l-51 52q-106 -50 -230 -50q-127 0 -229 50l-53 -54q-39 -39 -95 -39zM412 696q0 -87 51.5 -142.5t140.5 -55.5q95 0 144 54.5t49 143.5q0 95 -51 147t-142 52q-88 0 -140 -53t-52 -146z" />
    <glyph glyph-name="yen" unicode="&#xa5;" horiz-adv-x="1214" 
d="M217 461h225v123h-225q-38 0 -66 28t-28 66v57q0 38 28 66t66 28h96l-247 478q-11 22 -11 39q0 35 25.5 61.5t62.5 26.5h160q32 0 60.5 -18.5t42.5 -47.5l215 -477l213 477q12 29 40 47.5t60 18.5h139q37 0 61.5 -25.5t24.5 -60.5q0 -21 -10 -41l-250 -478h100
q38 0 66.5 -28t28.5 -66v-57q0 -38 -28.5 -66t-66.5 -28h-229v-123h229q38 0 66.5 -28t28.5 -66v-58q0 -38 -28.5 -66t-66.5 -28h-229v-121q0 -38 -28 -66t-66 -28h-139q-38 0 -66.5 28t-28.5 66v121h-225q-38 0 -66 28t-28 66v58q0 38 28 66t66 28z" />
    <glyph glyph-name="brokenbar" unicode="&#xa6;" horiz-adv-x="716" 
d="M303 1434h111q40 0 69 -29.5t29 -69.5v-336q0 -40 -29 -69t-69 -29h-111q-40 0 -69 29t-29 69v336q0 40 29 69.5t69 29.5zM414 0h-111q-40 0 -69 29t-29 69v336q0 40 29 69t69 29h111q40 0 69 -29t29 -69v-336q0 -40 -29 -69t-69 -29z" />
    <glyph glyph-name="section" unicode="&#xa7;" horiz-adv-x="1073" 
d="M416 -96q39 -27 71 -27q31 0 50.5 23.5t19.5 60.5q0 51 -28.5 91t-90.5 79q-163 25 -249.5 129t-86.5 250q0 119 57.5 211t168.5 137q-59 66 -91 130.5t-32 148.5q0 124 96 210.5t274 86.5q143 0 281 -103q29 -23 29 -55q0 -25 -23 -62l-65 -88q-24 -34 -60 -34
q-23 0 -61 20q-65 35 -90 35q-34 0 -54 -23t-20 -59q0 -97 117 -176q166 -24 254 -128t88 -251q0 -119 -58.5 -211t-169.5 -137q121 -135 121 -275q0 -124 -96 -210.5t-274 -86.5q-168 0 -273 105q-28 25 -28 63q0 31 20 54l78 88q27 30 57 30q27 0 68 -26zM410 510
q0 -43 29.5 -81t97.5 -38q72 0 99.5 36.5t27.5 82.5q0 44 -30 82.5t-97 38.5q-66 0 -96.5 -38t-30.5 -83z" />
    <glyph glyph-name="dieresis" unicode="&#xa8;" horiz-adv-x="964" 
d="M291 1030q-72 0 -120 46.5t-48 129.5q0 76 48.5 121t119.5 45q62 0 108.5 -45.5t46.5 -120.5q0 -82 -46 -129t-109 -47zM686 1030q-71 0 -119.5 46.5t-48.5 129.5q0 75 49 120.5t119 45.5q63 0 109.5 -45.5t46.5 -120.5q0 -82 -46 -129t-110 -47z" />
    <glyph glyph-name="copyright" unicode="&#xa9;" horiz-adv-x="2084" 
d="M143 453q0 187 70 353.5t189.5 286t286 189.5t353.5 70t353.5 -70t286.5 -189.5t190 -286t70 -353.5t-70 -353.5t-190 -286t-286.5 -189.5t-353.5 -70t-353.5 70t-286 189.5t-189.5 286t-70 353.5zM410 451q0 -172 81 -316t227 -229.5t326 -85.5q177 0 322.5 85.5
t227 230t81.5 315.5q0 173 -81.5 318.5t-227 230.5t-322.5 85q-135 0 -253.5 -50t-201.5 -135.5t-131 -202t-48 -246.5zM1393 94q-147 -119 -336 -119q-230 0 -368 133.5t-138 352.5q0 205 136.5 345t350.5 140q98 0 171 -18t151 -68q45 -28 45 -72q0 -20 -12 -38l-60 -99
q-24 -41 -69 -41q-22 0 -45 13q-71 36 -142 36q-79 0 -138.5 -53t-59.5 -145q0 -89 62 -144t140 -55q74 0 144 45q29 19 57 19q41 0 64 -33l63 -84q16 -22 16 -49q0 -44 -32 -66z" />
    <glyph glyph-name="ordfeminine" unicode="&#xaa;" horiz-adv-x="952" 
d="M82 817q0 125 70 188.5t200 63.5q120 0 207 -35q-19 88 -121 88q-32 0 -102 -12q-28 -4 -41 -4q-78 0 -102 76q-7 17 -7 32q0 34 22.5 60.5t53.5 36.5q109 37 230 37q49 0 96.5 -10.5t91.5 -33.5t76.5 -56.5t52.5 -83t20 -109.5v-363q0 -40 -29 -69t-69 -29h-92
q-31 0 -53.5 23t-22.5 55q-41 -46 -98 -68t-156 -22q-102 0 -164.5 68t-62.5 167zM563 836v30q-70 19 -114 19q-80 0 -80 -39q0 -19 16.5 -29t65.5 -10q53 0 112 29z" />
    <glyph glyph-name="guillemotleft" unicode="&#xab;" horiz-adv-x="1200" 
d="M887 512l200 -236q23 -30 23 -63q0 -46 -35 -76l-57 -47q-25 -22 -64 -22q-51 0 -75 34l-283 334q-27 34 -27 76q0 44 27 74l293 338q25 32 72 32q38 0 65 -24l51 -47q33 -29 33 -76q0 -38 -23 -64zM408 512l200 -236q23 -30 23 -63q0 -46 -35 -76l-57 -47
q-25 -22 -64 -22q-52 0 -76 34l-282 334q-27 34 -27 76q0 44 27 74l293 338q25 32 71 32q39 0 66 -24l51 -47q33 -29 33 -76q0 -38 -23 -64z" />
    <glyph glyph-name="logicalnot" unicode="&#xac;" 
d="M1042 336h-69q-40 0 -69.5 29t-29.5 69v170h-688q-40 0 -69 29t-29 69v70q0 40 29 69t69 29h856q40 0 69.5 -29t29.5 -69v-338q0 -40 -29.5 -69t-69.5 -29z" />
    <glyph glyph-name="uni00AD" unicode="&#xad;" horiz-adv-x="745" 
d="M643 608v-90q0 -40 -29 -69t-69 -29h-344q-40 0 -69.5 29t-29.5 69v90q0 40 29.5 69.5t69.5 29.5h344q40 0 69 -29.5t29 -69.5z" />
    <glyph glyph-name="registered" unicode="&#xae;" horiz-adv-x="1449" 
d="M772 813l-61 80h-33v-57q0 -40 -30.5 -69.5t-72.5 -29.5t-72 29.5t-30 69.5v376q0 40 29 69.5t69 29.5h181q122 0 183.5 -53t61.5 -148q0 -60 -28 -105.5t-66 -64.5l49 -61q23 -26 23 -58q0 -35 -27 -59.5t-61 -24.5q-27 0 -48.5 11.5t-32.5 23.5t-34 41zM678 1036h39
q76 0 76 70q0 61 -72 61h-43v-131zM729 1659q136 0 254.5 -48.5t203 -133t133 -203t48.5 -254.5q0 -138 -50.5 -259.5t-136.5 -206.5t-203.5 -134t-248.5 -49q-179 0 -327 83.5t-234 232.5t-86 333q0 131 48.5 248.5t132.5 203.5t205.5 136.5t260.5 50.5zM729 616
q172 0 282.5 109.5t110.5 294.5q0 171 -110.5 283t-282.5 112q-180 0 -290.5 -111t-110.5 -284q0 -187 113.5 -295.5t287.5 -108.5z" />
    <glyph glyph-name="macron" unicode="&#xaf;" horiz-adv-x="847" 
d="M725 1212v-49q0 -40 -29 -69t-69 -29h-406q-40 0 -69 29t-29 69v49q0 40 29 69.5t69 29.5h406q40 0 69 -29.5t29 -69.5z" />
    <glyph glyph-name="degree" unicode="&#xb0;" horiz-adv-x="901" 
d="M446 799q-151 0 -257.5 104.5t-106.5 259.5q0 159 106.5 266t257.5 107q157 0 265 -100t108 -258q0 -157 -109.5 -268t-263.5 -111zM451 1270q-41 0 -72 -31t-31 -72t31 -71.5t72 -30.5t71.5 30.5t30.5 71.5t-30.5 72t-71.5 31z" />
    <glyph glyph-name="plusminus" unicode="&#xb1;" 
d="M678 639h-131q-32 0 -55 23t-23 55v92h-262q-32 0 -55 23t-23 55v110q0 32 23 55t55 23h262v273q0 32 23 54.5t55 22.5h131q32 0 55 -22.5t23 -54.5v-273h266q32 0 55 -23t23 -55v-110q0 -32 -23 -55t-55 -23h-266v-92q0 -32 -23 -55t-55 -23zM1100 485v-110
q0 -32 -23 -55t-55 -23h-815q-32 0 -55 23t-23 55v110q0 32 23 55t55 23h815q32 0 55 -23t23 -55z" />
    <glyph glyph-name="twosuperior" unicode="&#xb2;" horiz-adv-x="770" 
d="M719 850v-41q0 -38 -27 -65t-65 -27h-484q-38 0 -65 27t-27 65v45q0 31 16.5 52t49.5 40q69 38 109 62t86.5 56t68.5 57.5t22 47.5q0 48 -53 48q-24 0 -67 -43q-37 -37 -76 -37q-23 0 -47 12l-45 25q-43 22 -43 69q0 29 20 62q88 137 289 137q147 0 227 -63t80 -171
q0 -34 -11.5 -65t-28 -54t-44 -44.5t-50 -35t-56.5 -28.5t-53 -22t-50 -17h232q38 0 65 -27t27 -65z" />
    <glyph glyph-name="threesuperior" unicode="&#xb3;" horiz-adv-x="749" 
d="M381 1448q127 0 209 -50.5t82 -133.5q0 -68 -44 -110t-120 -56q90 -6 138 -52.5t48 -115.5q0 -103 -97 -165.5t-232 -62.5q-97 0 -160 19t-115 65q-35 28 -35 80q0 40 25 68q34 37 78 37q36 0 80 -29q37 -24 79 -24q91 0 91 36q0 31 -93 31q-23 0 -39 15.5t-16 37.5v82
q0 20 14.5 34.5t36.5 14.5q74 0 74 37q0 10 -15.5 18.5t-43.5 8.5q-40 0 -84 -21q-37 -18 -70 -18q-47 0 -80 47q-14 20 -14 47q0 51 49 86q104 74 254 74z" />
    <glyph glyph-name="acute" unicode="&#xb4;" horiz-adv-x="696" 
d="M178 1251l101 168q27 47 81 47q37 0 60 -20l67 -51q39 -29 39 -80q0 -39 -24 -66l-125 -139q-36 -39 -88 -39q-38 0 -74 25q-53 38 -53 98q0 28 16 57z" />
    <glyph glyph-name="mu" unicode="&#xb5;" horiz-adv-x="1105" 
d="M686 346v498q0 32 23 55t55 23h151q32 0 55 -23t23 -55v-766q0 -32 -23 -55t-55 -23h-151q-33 0 -55.5 24t-22.5 62q-98 -111 -266 -111v-307q0 -32 -23 -55t-55 -23h-152q-32 0 -54.5 23t-22.5 55v1176q0 32 22.5 55t54.5 23h152q32 0 55 -23t23 -55v-436
q0 -62 28.5 -104t90.5 -42q80 0 147 84z" />
    <glyph glyph-name="mu" unicode="&#x3bc;" horiz-adv-x="1105" 
d="M686 346v498q0 32 23 55t55 23h151q32 0 55 -23t23 -55v-766q0 -32 -23 -55t-55 -23h-151q-33 0 -55.5 24t-22.5 62q-98 -111 -266 -111v-307q0 -32 -23 -55t-55 -23h-152q-32 0 -54.5 23t-22.5 55v1176q0 32 22.5 55t54.5 23h152q32 0 55 -23t23 -55v-436
q0 -62 28.5 -104t90.5 -42q80 0 147 84z" />
    <glyph glyph-name="paragraph" unicode="&#xb6;" horiz-adv-x="1067" 
d="M301 -127q37 -12 82 -12q143 0 143 209v469q-119 1 -223.5 52.5t-173 155t-68.5 238.5q0 136 63.5 239.5t169 156.5t236.5 53h402q38 0 66 -28.5t28 -66.5v-98q0 -38 -28 -66t-66 -28h-98v-1090q0 -242 -111 -362.5t-317 -120.5q-137 0 -252 70q-50 30 -50 80q0 14 11 40
l39 76q25 45 75 45q31 0 72 -12z" />
    <glyph glyph-name="periodcentered" unicode="&#xb7;" horiz-adv-x="409" 
d="M4 627q0 74 58 133t151 59q83 0 138 -59.5t55 -132.5q0 -85 -54.5 -147t-138.5 -62q-95 0 -152 61.5t-57 147.5z" />
    <glyph glyph-name="cedilla" unicode="&#xb8;" horiz-adv-x="827" 
d="M487 -18v-35q104 -9 161 -56t57 -129q0 -88 -79.5 -140t-230.5 -52q-127 0 -229 65q-14 9 -26.5 29t-12.5 43q0 25 14 47q25 37 66 37q30 0 55 -14q56 -23 90 -23q45 0 45 27q0 14 -37 57q-26 33 -26 90v113h153v-59z" />
    <glyph glyph-name="onesuperior" unicode="&#xb9;" horiz-adv-x="579" 
d="M190 815v315q-24 -12 -47 -12q-49 0 -84 47q-18 30 -18 64q0 55 43 82l117 82q39 27 64.5 34t60.5 7h22q46 0 77.5 -29.5t31.5 -69.5v-520q0 -40 -29.5 -69t-69.5 -29h-69q-40 0 -69.5 29t-29.5 69z" />
    <glyph glyph-name="ordmasculine" unicode="&#xba;" horiz-adv-x="1069" 
d="M535 582q-191 0 -312 106t-121 279t121 277t312 104t311.5 -104t120.5 -277t-120.5 -279t-311.5 -106zM535 1102q-65 0 -105.5 -36.5t-40.5 -98.5q0 -65 41 -102.5t105 -37.5q67 0 106 37.5t39 102.5q0 62 -40 98.5t-105 36.5z" />
    <glyph glyph-name="guillemotright" unicode="&#xbb;" horiz-adv-x="1200" 
d="M600 885l51 47q27 24 66 24q46 0 71 -32l293 -338q29 -32 29 -76q0 -41 -29 -78l-282 -330q-24 -34 -76 -34q-39 0 -64 22l-57 47q-35 30 -35 76q0 33 23 63l201 236l-201 233q-25 28 -25 64q0 46 35 76zM125 885l51 47q27 24 66 24q46 0 71 -32l293 -338q29 -32 29 -76
q0 -41 -29 -78l-282 -330q-24 -34 -76 -34q-39 0 -64 22l-57 47q-35 30 -35 76q0 33 23 63l200 236l-200 233q-25 28 -25 64q0 46 35 76z" />
    <glyph glyph-name="onequarter" unicode="&#xbc;" horiz-adv-x="1464" 
d="M190 815v315q-24 -12 -47 -12q-49 0 -84 47q-18 30 -18 64q0 55 43 82l117 82q39 27 64.5 34t60.5 7h22q46 0 77.5 -29.5t31.5 -69.5v-520q0 -40 -29.5 -69t-69.5 -29h-69q-40 0 -69.5 29t-29.5 69zM1208 1251l-895 -1198q-28 -39 -80 -39q-34 0 -67 23q-47 30 -47 84
q0 29 18 53l899 1206q27 37 76 37q38 0 70 -22q47 -38 47 -86q0 -30 -21 -58zM1309 125v-33q0 -38 -27 -65t-65 -27h-62q-38 0 -65 27t-27 65v33h-299q-39 0 -65.5 24t-26.5 64q0 25 8 48.5t17 40t38 63.5l183 290q24 38 49 56t63 18q47 0 72.5 -29t25.5 -69q0 -30 -16 -56
l-154 -245h105v39q0 38 27 65t65 27h62q38 0 65 -27t27 -65v-39q42 0 71 -26.5t29 -65.5v-21q0 -39 -29 -65.5t-71 -26.5z" />
    <glyph glyph-name="onehalf" unicode="&#xbd;" horiz-adv-x="1462" 
d="M190 815v315q-24 -12 -47 -12q-49 0 -84 47q-18 30 -18 64q0 55 43 82l117 82q39 27 64.5 34t60.5 7h22q46 0 77.5 -29.5t31.5 -69.5v-520q0 -40 -29.5 -69t-69.5 -29h-69q-40 0 -69.5 29t-29.5 69zM1208 1251l-895 -1198q-28 -39 -80 -39q-34 0 -67 23q-47 30 -47 84
q0 29 18 53l899 1206q27 37 76 37q38 0 70 -22q47 -38 47 -86q0 -30 -21 -58zM1411 133v-41q0 -38 -27 -65t-65 -27h-483q-38 0 -65.5 27t-27.5 65v45q0 31 16.5 52t49.5 40q68 38 109 62.5t87.5 56t68.5 57.5t22 48q0 47 -54 47q-24 0 -67 -43q-37 -37 -76 -37
q-23 0 -47 12l-45 25q-43 22 -43 69q0 29 20 62q88 137 289 137q147 0 227 -62.5t80 -170.5q0 -34 -11.5 -65t-28 -54t-44 -45t-50 -35.5t-56.5 -28.5t-53.5 -22t-49.5 -17h232q38 0 65 -27t27 -65z" />
    <glyph glyph-name="threequarters" unicode="&#xbe;" horiz-adv-x="1605" 
d="M1376 1251l-895 -1198q-28 -39 -80 -39q-34 0 -67 23q-47 30 -47 84q0 29 18 53l899 1206q27 37 76 37q38 0 70 -22q47 -38 47 -86q0 -30 -21 -58zM1450 125v-33q0 -38 -27 -65t-65 -27h-62q-38 0 -65 27t-27 65v33h-299q-39 0 -65.5 24t-26.5 64q0 25 8.5 49.5
t16.5 38.5t39 64l182 290q24 38 49 56t63 18q47 0 73 -29t26 -69q0 -29 -17 -56l-153 -245h104v39q0 38 27 65t65 27h62q38 0 65 -27t27 -65v-39q42 0 71 -26.5t29 -65.5v-21q0 -39 -29 -65.5t-71 -26.5zM395 1448q127 0 209 -50.5t82 -133.5q0 -68 -44 -110t-120 -56
q90 -6 138.5 -52.5t48.5 -115.5q0 -103 -97.5 -165.5t-232.5 -62.5q-97 0 -160 19t-115 65q-34 27 -34 80q0 41 24 68q34 37 78 37q36 0 80 -29q37 -24 80 -24q90 0 90 36q0 31 -92 31q-23 0 -39.5 15.5t-16.5 37.5v82q0 20 15 34.5t37 14.5q73 0 73 37q0 10 -15.5 18.5
t-43.5 8.5q-40 0 -84 -21q-37 -18 -70 -18q-47 0 -80 47q-14 20 -14 47q0 51 49 86q104 74 254 74z" />
    <glyph glyph-name="questiondown" unicode="&#xbf;" horiz-adv-x="978" 
d="M494 459h116q34 0 52 -24t18 -60q0 -15 -2 -21q-8 -53 -29 -96.5t-48 -71.5t-58 -52.5t-60 -46t-53 -45.5t-38.5 -57t-14.5 -75q0 -50 39.5 -88.5t95.5 -38.5q50 0 88.5 12.5t83.5 44.5q39 27 74 27t65 -27l60 -55q32 -26 32 -72q0 -36 -26 -65q-71 -82 -177.5 -127
t-215.5 -45q-206 0 -327.5 105t-121.5 261q0 67 14.5 120.5t39 90.5t55 67.5t65 59t65.5 57t59.5 69.5t45.5 89q13 38 35.5 51t67.5 13zM731 737q0 -74 -58 -133t-151 -59q-82 0 -137 59.5t-55 132.5q0 85 54 147t138 62q95 0 152 -61.5t57 -147.5z" />
    <glyph glyph-name="Agrave" unicode="&#xc0;" horiz-adv-x="1476" 
d="M1012 301h-568l-92 -233q-12 -31 -39 -49.5t-59 -18.5h-125q-37 0 -62.5 26.5t-25.5 61.5q0 20 6 35l516 1243q14 31 41.5 49.5t59.5 18.5h149q32 0 59 -18.5t41 -49.5l517 -1243q6 -15 6 -35q0 -35 -25.5 -61.5t-62.5 -26.5h-146q-32 0 -59 18.5t-39 49.5zM729 1014
l-162 -406h322zM561 1870l303 -152q56 -29 56 -92q0 -22 -9 -43q-15 -32 -43 -49.5t-61 -17.5q-23 0 -33 4l-321 102q-29 7 -46.5 31t-17.5 53q0 15 8 35l37 84q10 26 34 40.5t52 14.5q24 0 41 -10z" />
    <glyph glyph-name="Aacute" unicode="&#xc1;" horiz-adv-x="1476" 
d="M1012 301h-568l-92 -233q-12 -31 -39 -49.5t-59 -18.5h-125q-37 0 -62.5 26.5t-25.5 61.5q0 20 6 35l516 1243q14 31 41.5 49.5t59.5 18.5h149q32 0 59 -18.5t41 -49.5l517 -1243q6 -15 6 -35q0 -35 -25.5 -61.5t-62.5 -26.5h-146q-32 0 -59 18.5t-39 49.5zM729 1014
l-162 -406h322zM610 1718l303 152q18 10 41 10q28 0 52 -14.5t34 -40.5l37 -84q8 -20 8 -35q0 -29 -17.5 -53t-45.5 -31l-322 -102q-21 -7 -36 -7q-33 0 -60.5 16.5t-40.5 45.5q-10 27 -10 47q0 31 15.5 56.5t41.5 39.5z" />
    <glyph glyph-name="Acircumflex" unicode="&#xc2;" horiz-adv-x="1476" 
d="M1012 301h-568l-92 -233q-12 -31 -39 -49.5t-59 -18.5h-125q-37 0 -62.5 26.5t-25.5 61.5q0 20 6 35l516 1243q14 31 41.5 49.5t59.5 18.5h149q32 0 59 -18.5t41 -49.5l517 -1243q6 -15 6 -35q0 -35 -25.5 -61.5t-62.5 -26.5h-146q-32 0 -59 18.5t-39 49.5zM729 1014
l-162 -406h322zM731 1616l-174 -90q-26 -13 -47 -13q-63 0 -94 54q-17 27 -17 55q0 54 45 82l224 149q32 19 63 19q35 0 64 -19l233 -145q43 -27 43 -80q0 -32 -18 -59q-38 -56 -97 -56q-25 0 -51 13z" />
    <glyph glyph-name="Atilde" unicode="&#xc3;" horiz-adv-x="1476" 
d="M1012 301h-568l-92 -233q-12 -31 -39 -49.5t-59 -18.5h-125q-37 0 -62.5 26.5t-25.5 61.5q0 20 6 35l516 1243q14 31 41.5 49.5t59.5 18.5h149q32 0 59 -18.5t41 -49.5l517 -1243q6 -15 6 -35q0 -35 -25.5 -61.5t-62.5 -26.5h-146q-32 0 -59 18.5t-39 49.5zM729 1014
l-162 -406h322zM1147 1718q0 -40 -31 -76q-63 -65 -120.5 -92.5t-121.5 -27.5q-40 0 -88.5 22.5t-99.5 45t-98 22.5q-36 0 -86 -31q-49 -29 -78 -29q-41 0 -74 39q-26 29 -26 64q0 44 43 84q122 110 225 110q55 0 106 -22t93.5 -44t78.5 -22q18 0 35 5t23.5 8t24.5 15t20 13
q39 25 67 25q42 0 82 -43q25 -28 25 -66z" />
    <glyph glyph-name="Adieresis" unicode="&#xc4;" horiz-adv-x="1476" 
d="M1012 301h-568l-92 -233q-12 -31 -39 -49.5t-59 -18.5h-125q-37 0 -62.5 26.5t-25.5 61.5q0 20 6 35l516 1243q14 31 41.5 49.5t59.5 18.5h149q32 0 59 -18.5t41 -49.5l517 -1243q6 -15 6 -35q0 -35 -25.5 -61.5t-62.5 -26.5h-146q-32 0 -59 18.5t-39 49.5zM729 1014
l-162 -406h322zM307 1714q0 73 57.5 116.5t143.5 43.5q75 0 130.5 -44t55.5 -116q0 -80 -55 -126t-131 -46q-87 0 -144 45t-57 127zM780 1714q0 73 58 116.5t143 43.5q76 0 131 -44t55 -116q0 -81 -54.5 -126.5t-131.5 -45.5q-86 0 -143.5 45.5t-57.5 126.5z" />
    <glyph glyph-name="Aring" unicode="&#xc5;" horiz-adv-x="1476" 
d="M254 0h-125q-37 0 -62.5 26.5t-25.5 61.5q0 20 6 35l543 1307q-80 28 -127 85.5t-47 141.5q0 121 88.5 181t228.5 60q146 0 237 -60t91 -181q0 -84 -47 -140.5t-129 -84.5l545 -1309q6 -15 6 -35q0 -35 -25.5 -61.5t-62.5 -26.5h-146q-32 0 -59 18.5t-39 49.5l-92 233
h-568l-92 -233q-12 -31 -39 -49.5t-59 -18.5zM729 1014l-162 -406h322zM641 1657q0 -41 26.5 -62.5t69.5 -21.5q44 0 71.5 21.5t27.5 62.5q0 39 -27.5 58.5t-71.5 19.5t-70 -19.5t-26 -58.5z" />
    <glyph glyph-name="AE" unicode="&#xc6;" horiz-adv-x="1937" 
d="M1720 0h-682q-38 0 -66 28t-28 66v207h-440l-166 -242q-18 -27 -49 -43t-64 -16h-141q-37 0 -61.5 25.5t-24.5 60.5q0 23 16 49l891 1239q20 28 51.5 44t63.5 16h680q38 0 66 -28.5t28 -66.5v-118q0 -38 -28 -66.5t-66 -28.5h-428v-252h366q38 0 66.5 -28t28.5 -66v-118
q0 -38 -28.5 -66.5t-66.5 -28.5h-366v-260h448q38 0 66.5 -28t28.5 -66v-119q0 -38 -28.5 -66t-66.5 -28zM944 936l-227 -328h227v328z" />
    <glyph glyph-name="Ccedilla" unicode="&#xc7;" horiz-adv-x="1337" 
d="M1036 1114q-92 37 -205 37q-173 0 -287 -114.5t-114 -319.5q0 -191 120.5 -312.5t313.5 -121.5q116 0 223 55q28 14 60 14q56 0 84 -49l49 -78q14 -25 14 -51q0 -53 -45 -86q-88 -62 -184 -86.5t-223 -26.5v-28q237 -17 237 -185q0 -87 -78.5 -139.5t-218.5 -52.5
q-158 0 -284 78q-14 9 -26.5 29t-12.5 44q0 26 14 48q24 36 66 36q23 0 51 -14q68 -37 117 -37q45 0 45 27q0 16 -13 26q-35 23 -43 38t-8 57v86q-276 42 -441 238t-165 491q0 124 30 235t91.5 204t150 160t210.5 104.5t267 37.5q105 0 185.5 -19.5t163.5 -60.5
q23 -10 36 -32.5t13 -47.5q0 -22 -10 -45l-45 -94q-24 -55 -89 -55q-22 0 -49 10z" />
    <glyph glyph-name="Egrave" unicode="&#xc8;" horiz-adv-x="1177" 
d="M1055 213v-119q0 -38 -28 -66t-66 -28h-682q-38 0 -66.5 28t-28.5 66v1245q0 38 28.5 66.5t66.5 28.5h661q38 0 66 -28.5t28 -66.5v-118q0 -38 -28 -66.5t-66 -28.5h-428v-252h367q38 0 66 -28t28 -66v-118q0 -38 -28 -66.5t-66 -28.5h-367v-260h449q38 0 66 -28t28 -66z
M442 1870l303 -152q56 -29 56 -92q0 -24 -8 -43q-15 -32 -43.5 -49.5t-61.5 -17.5q-23 0 -33 4l-321 102q-29 7 -46.5 31t-17.5 53q0 13 9 35l36 84q10 26 34 40.5t52 14.5q23 0 41 -10z" />
    <glyph glyph-name="Eacute" unicode="&#xc9;" horiz-adv-x="1177" 
d="M1055 213v-119q0 -38 -28 -66t-66 -28h-682q-38 0 -66.5 28t-28.5 66v1245q0 38 28.5 66.5t66.5 28.5h661q38 0 66 -28.5t28 -66.5v-118q0 -38 -28 -66.5t-66 -28.5h-428v-252h367q38 0 66 -28t28 -66v-118q0 -38 -28 -66.5t-66 -28.5h-367v-260h449q38 0 66 -28t28 -66z
M512 1718l303 152q18 10 41 10q28 0 52 -14.5t34 -40.5l37 -84q8 -20 8 -35q0 -29 -17.5 -53t-45.5 -31l-322 -102q-21 -7 -37 -7q-33 0 -60 16.5t-40 45.5q-10 27 -10 47q0 31 15.5 56.5t41.5 39.5z" />
    <glyph glyph-name="Ecircumflex" unicode="&#xca;" horiz-adv-x="1177" 
d="M1055 213v-119q0 -38 -28 -66t-66 -28h-682q-38 0 -66.5 28t-28.5 66v1245q0 38 28.5 66.5t66.5 28.5h661q38 0 66 -28.5t28 -66.5v-118q0 -38 -28 -66.5t-66 -28.5h-428v-252h367q38 0 66 -28t28 -66v-118q0 -38 -28 -66.5t-66 -28.5h-367v-260h449q38 0 66 -28t28 -66z
M604 1616l-174 -90q-26 -13 -47 -13q-63 0 -94 54q-17 27 -17 55q0 54 45 82l224 149q32 19 63 19q36 0 64 -19l233 -145q43 -27 43 -80q0 -32 -18 -59q-38 -56 -97 -56q-25 0 -51 13z" />
    <glyph glyph-name="Edieresis" unicode="&#xcb;" horiz-adv-x="1177" 
d="M1055 213v-119q0 -38 -28 -66t-66 -28h-682q-38 0 -66.5 28t-28.5 66v1245q0 38 28.5 66.5t66.5 28.5h661q38 0 66 -28.5t28 -66.5v-118q0 -38 -28 -66.5t-66 -28.5h-428v-252h367q38 0 66 -28t28 -66v-118q0 -38 -28 -66.5t-66 -28.5h-367v-260h449q38 0 66 -28t28 -66z
M188 1714q0 73 57.5 116.5t143.5 43.5q75 0 130.5 -44t55.5 -116q0 -80 -55 -126t-131 -46q-87 0 -144 45t-57 127zM662 1714q0 73 57.5 116.5t142.5 43.5q76 0 131.5 -44t55.5 -116q0 -81 -55 -126.5t-132 -45.5q-86 0 -143 45.5t-57 126.5z" />
    <glyph glyph-name="Igrave" unicode="&#xcc;" horiz-adv-x="737" 
d="M532 1339v-1245q0 -38 -28 -66t-66 -28h-139q-38 0 -66 28t-28 66v1245q0 38 28 66.5t66 28.5h139q38 0 66 -28.5t28 -66.5zM176 1870l303 -152q56 -29 56 -92q0 -22 -9 -43q-15 -32 -43 -49.5t-61 -17.5q-23 0 -33 4l-321 102q-29 7 -46.5 31t-17.5 53q0 15 8 35l37 84
q10 26 34 40.5t52 14.5q23 0 41 -10z" />
    <glyph glyph-name="Iacute" unicode="&#xcd;" horiz-adv-x="737" 
d="M532 1339v-1245q0 -38 -28 -66t-66 -28h-139q-38 0 -66 28t-28 66v1245q0 38 28 66.5t66 28.5h139q38 0 66 -28.5t28 -66.5zM266 1718l303 152q17 10 41 10q28 0 52 -14.5t34 -40.5l37 -84q8 -20 8 -35q0 -29 -17.5 -53t-45.5 -31l-322 -102q-21 -7 -37 -7
q-33 0 -60 16.5t-40 45.5q-10 27 -10 47q0 31 15.5 56.5t41.5 39.5z" />
    <glyph glyph-name="Icircumflex" unicode="&#xce;" horiz-adv-x="737" 
d="M532 1339v-1245q0 -38 -28 -66t-66 -28h-139q-38 0 -66 28t-28 66v1245q0 38 28 66.5t66 28.5h139q38 0 66 -28.5t28 -66.5zM362 1616l-174 -90q-26 -13 -47 -13q-63 0 -94 54q-16 26 -16 55q0 54 45 82l223 149q32 19 63 19q36 0 64 -19l233 -145q43 -27 43 -80
q0 -32 -18 -59q-38 -56 -96 -56q-25 0 -51 13z" />
    <glyph glyph-name="Idieresis" unicode="&#xcf;" horiz-adv-x="737" 
d="M532 1339v-1245q0 -38 -28 -66t-66 -28h-139q-38 0 -66 28t-28 66v1245q0 38 28 66.5t66 28.5h139q38 0 66 -28.5t28 -66.5zM-61 1714q0 73 57 116.5t143 43.5q75 0 131 -44t56 -116q0 -80 -55.5 -126t-131.5 -46q-87 0 -143.5 45t-56.5 127zM412 1714q0 73 57.5 116.5
t142.5 43.5q76 0 131.5 -44t55.5 -116q0 -81 -55 -126.5t-132 -45.5q-86 0 -143 45.5t-57 126.5z" />
    <glyph glyph-name="Eth" unicode="&#xd0;" horiz-adv-x="1523" 
d="M621 -4q-56 0 -342 4q-39 0 -67 28t-28 68v473h-69q-38 0 -66.5 28.5t-28.5 66.5v98q0 38 28.5 66t66.5 28h69v481q0 40 28.5 68.5t66.5 28.5q41 1 124 2.5t142.5 2.5t91.5 1q167 0 303 -37.5t228.5 -103t155 -156t90.5 -194t28 -220.5q0 -152 -52.5 -284t-152 -232.5
t-258.5 -158.5t-358 -58zM512 569v-262q43 -4 119 -4q215 0 339 112t124 314q0 193 -127.5 298.5t-333.5 105.5q-73 0 -121 -7v-270h242q38 0 66 -28t28 -66v-98q0 -38 -28 -66.5t-66 -28.5h-242z" />
    <glyph glyph-name="Ntilde" unicode="&#xd1;" horiz-adv-x="1617" 
d="M1221 1434h118q38 0 66.5 -28.5t28.5 -66.5v-1245q0 -38 -28.5 -66t-66.5 -28h-96q-33 0 -65 15.5t-52 41.5l-634 803v-766q0 -38 -28.5 -66t-66.5 -28h-118q-38 0 -66.5 28t-28.5 66v1245q0 38 28.5 66.5t66.5 28.5h96q32 0 64.5 -16t52.5 -42l634 -807v770
q0 38 28.5 66.5t66.5 28.5zM1235 1718q0 -40 -31 -76q-63 -65 -120 -92.5t-121 -27.5q-47 0 -138.5 45t-148.5 45q-36 0 -86 -31q-49 -29 -78 -29q-41 0 -74 39q-26 29 -26 64q0 44 43 84q122 110 225 110q55 0 106 -22t93.5 -44t78.5 -22q18 0 35 5t23.5 8t24.5 15t20 13
q39 25 67 25q42 0 82 -43q25 -28 25 -66z" />
    <glyph glyph-name="Ograve" unicode="&#xd2;" horiz-adv-x="1687" 
d="M82 717q0 155 55.5 291t153.5 235.5t241.5 157t311.5 57.5q218 0 390.5 -89t272 -258.5t99.5 -393.5q0 -160 -58 -298.5t-159 -235.5t-242 -152.5t-303 -55.5q-163 0 -303 52t-241.5 147t-159.5 235t-58 308zM430 717q0 -183 120.5 -308.5t293.5 -125.5q132 0 227 58.5
t140.5 155.5t45.5 220q0 193 -118 313.5t-295 120.5q-181 0 -297.5 -120t-116.5 -314zM688 1870l303 -152q56 -29 56 -92q0 -22 -9 -43q-15 -32 -43 -49.5t-61 -17.5q-23 0 -33 4l-321 102q-29 7 -46.5 31t-17.5 53q0 15 8 35l37 84q10 26 34 40.5t52 14.5q23 0 41 -10z" />
    <glyph glyph-name="Oacute" unicode="&#xd3;" horiz-adv-x="1687" 
d="M82 717q0 155 55.5 291t153.5 235.5t241.5 157t311.5 57.5q218 0 390.5 -89t272 -258.5t99.5 -393.5q0 -160 -58 -298.5t-159 -235.5t-242 -152.5t-303 -55.5q-163 0 -303 52t-241.5 147t-159.5 235t-58 308zM430 717q0 -183 120.5 -308.5t293.5 -125.5q132 0 227 58.5
t140.5 155.5t45.5 220q0 193 -118 313.5t-295 120.5q-181 0 -297.5 -120t-116.5 -314zM758 1718l303 152q17 10 41 10q28 0 52 -14.5t34 -40.5l37 -84q8 -20 8 -35q0 -29 -17.5 -53t-46.5 -31l-321 -102q-21 -7 -37 -7q-33 0 -60 16.5t-40 45.5q-11 29 -11 47q0 31 16 56.5
t42 39.5z" />
    <glyph glyph-name="Ocircumflex" unicode="&#xd4;" horiz-adv-x="1687" 
d="M82 717q0 155 55.5 291t153.5 235.5t241.5 157t311.5 57.5q218 0 390.5 -89t272 -258.5t99.5 -393.5q0 -160 -58 -298.5t-159 -235.5t-242 -152.5t-303 -55.5q-163 0 -303 52t-241.5 147t-159.5 235t-58 308zM430 717q0 -183 120.5 -308.5t293.5 -125.5q132 0 227 58.5
t140.5 155.5t45.5 220q0 193 -118 313.5t-295 120.5q-181 0 -297.5 -120t-116.5 -314zM844 1616l-174 -90q-26 -13 -47 -13q-64 0 -95 54q-16 26 -16 55q0 54 45 82l223 149q32 19 64 19q34 0 63 -19l234 -145q43 -27 43 -80q0 -30 -19 -59q-38 -56 -96 -56q-25 0 -51 13z
" />
    <glyph glyph-name="Otilde" unicode="&#xd5;" horiz-adv-x="1687" 
d="M82 717q0 155 55.5 291t153.5 235.5t241.5 157t311.5 57.5q218 0 390.5 -89t272 -258.5t99.5 -393.5q0 -160 -58 -298.5t-159 -235.5t-242 -152.5t-303 -55.5q-163 0 -303 52t-241.5 147t-159.5 235t-58 308zM430 717q0 -183 120.5 -308.5t293.5 -125.5q132 0 227 58.5
t140.5 155.5t45.5 220q0 193 -118 313.5t-295 120.5q-181 0 -297.5 -120t-116.5 -314zM1239 1718q0 -40 -31 -76q-63 -65 -120 -92.5t-121 -27.5q-47 0 -138.5 45t-148.5 45q-36 0 -86 -31q-49 -29 -78 -29q-41 0 -74 39q-26 29 -26 64q0 44 43 84q122 110 225 110
q55 0 106 -22t94 -44t79 -22q18 0 34.5 4.5t24 8.5t24 15l19.5 13q39 25 68 25q41 0 81 -43q25 -28 25 -66z" />
    <glyph glyph-name="Odieresis" unicode="&#xd6;" horiz-adv-x="1687" 
d="M82 717q0 155 55.5 291t153.5 235.5t241.5 157t311.5 57.5q218 0 390.5 -89t272 -258.5t99.5 -393.5q0 -160 -58 -298.5t-159 -235.5t-242 -152.5t-303 -55.5q-163 0 -303 52t-241.5 147t-159.5 235t-58 308zM430 717q0 -183 120.5 -308.5t293.5 -125.5q132 0 227 58.5
t140.5 155.5t45.5 220q0 193 -118 313.5t-295 120.5q-181 0 -297.5 -120t-116.5 -314zM403 1714q0 73 57.5 116.5t143.5 43.5q75 0 131 -44t56 -116q0 -80 -55.5 -126t-131.5 -46q-87 0 -144 45t-57 127zM877 1714q0 73 57.5 116.5t142.5 43.5q76 0 131.5 -44t55.5 -116
q0 -81 -55 -126.5t-132 -45.5q-86 0 -143 45.5t-57 126.5z" />
    <glyph glyph-name="multiply" unicode="&#xd7;" horiz-adv-x="1187" 
d="M274 369l-49 49q-28 28 -28 69q0 42 28 70l181 180l-179 178q-28 31 -28 70q0 42 28 70l49 49q29 29 70 29q44 0 70 -29l178 -178l178 178q29 29 70 29q43 0 69 -29l50 -49q28 -25 28 -70q0 -42 -28 -70l-179 -178l181 -180q28 -25 28 -70q0 -41 -28 -69l-50 -49
q-29 -29 -69 -29q-38 0 -70 29l-180 180l-180 -180q-29 -29 -70 -29q-38 0 -70 29z" />
    <glyph glyph-name="Oslash" unicode="&#xd8;" horiz-adv-x="1687" 
d="M217 111l-20 20q-31 31 -31 76q0 49 35 84q-119 183 -119 426q0 155 55.5 291t153.5 235.5t241.5 157t311.5 57.5q244 0 432 -115q36 31 76 31q43 0 71 -31l43 -43q25 -25 25 -61q0 -38 -27 -65q142 -188 142 -457q0 -160 -58 -298.5t-159 -235.5t-242 -152.5t-303 -55.5
q-271 0 -467 136q-33 -33 -80 -33q-51 0 -80 33zM1210 928l-589 -578q98 -67 223 -67q132 0 227 58.5t140.5 155.5t45.5 220q0 119 -47 211zM461 547l573 559q-88 45 -190 45q-181 0 -297.5 -120t-116.5 -314q0 -91 31 -170z" />
    <glyph glyph-name="Ugrave" unicode="&#xd9;" horiz-adv-x="1538" 
d="M1047 657v682q0 38 28 66.5t66 28.5h139q38 0 66 -28.5t28 -66.5v-747q0 -128 -31.5 -232t-86 -174.5t-129.5 -119t-160 -70t-179 -21.5q-139 0 -253 40t-197 117.5t-128.5 198t-45.5 275.5v733q0 38 28 66.5t66 28.5h139q38 0 66.5 -28.5t28.5 -66.5v-663
q0 -88 14.5 -156t47 -123t92 -84.5t142.5 -29.5q142 0 200.5 95t58.5 279zM586 1870l303 -152q55 -28 55 -92q0 -24 -8 -43q-15 -32 -43.5 -49.5t-61.5 -17.5q-22 0 -32 4l-322 102q-28 7 -45.5 31t-17.5 53q0 15 8 35l37 84q10 26 34 40.5t52 14.5q23 0 41 -10z" />
    <glyph glyph-name="Uacute" unicode="&#xda;" horiz-adv-x="1538" 
d="M1047 657v682q0 38 28 66.5t66 28.5h139q38 0 66 -28.5t28 -66.5v-747q0 -128 -31.5 -232t-86 -174.5t-129.5 -119t-160 -70t-179 -21.5q-139 0 -253 40t-197 117.5t-128.5 198t-45.5 275.5v733q0 38 28 66.5t66 28.5h139q38 0 66.5 -28.5t28.5 -66.5v-663
q0 -88 14.5 -156t47 -123t92 -84.5t142.5 -29.5q142 0 200.5 95t58.5 279zM676 1718l303 152q18 10 41 10q28 0 52 -14.5t34 -40.5l37 -84q8 -20 8 -35q0 -29 -17.5 -53t-46.5 -31l-321 -102q-21 -7 -37 -7q-33 0 -60 16.5t-40 45.5q-11 29 -11 47q0 31 16 56.5t42 39.5z
" />
    <glyph glyph-name="Ucircumflex" unicode="&#xdb;" horiz-adv-x="1538" 
d="M1047 657v682q0 38 28 66.5t66 28.5h139q38 0 66 -28.5t28 -66.5v-747q0 -128 -31.5 -232t-86 -174.5t-129.5 -119t-160 -70t-179 -21.5q-139 0 -253 40t-197 117.5t-128.5 198t-45.5 275.5v733q0 38 28 66.5t66 28.5h139q38 0 66.5 -28.5t28.5 -66.5v-663
q0 -88 14.5 -156t47 -123t92 -84.5t142.5 -29.5q142 0 200.5 95t58.5 279zM760 1616l-174 -90q-26 -13 -47 -13q-64 0 -95 54q-16 26 -16 55q0 54 45 82l223 149q32 19 64 19q34 0 63 -19l234 -145q43 -27 43 -80q0 -30 -19 -59q-38 -56 -96 -56q-25 0 -51 13z" />
    <glyph glyph-name="Udieresis" unicode="&#xdc;" horiz-adv-x="1538" 
d="M1047 657v682q0 38 28 66.5t66 28.5h139q38 0 66 -28.5t28 -66.5v-747q0 -128 -31.5 -232t-86 -174.5t-129.5 -119t-160 -70t-179 -21.5q-139 0 -253 40t-197 117.5t-128.5 198t-45.5 275.5v733q0 38 28 66.5t66 28.5h139q38 0 66.5 -28.5t28.5 -66.5v-663
q0 -88 14.5 -156t47 -123t92 -84.5t142.5 -29.5q142 0 200.5 95t58.5 279zM322 1714q0 73 57 116.5t143 43.5q75 0 131 -44t56 -116q0 -80 -55.5 -126t-131.5 -46q-87 0 -143.5 45t-56.5 127zM795 1714q0 73 57.5 116.5t142.5 43.5q76 0 131.5 -44t55.5 -116
q0 -81 -55 -126.5t-132 -45.5q-86 0 -143 45.5t-57 126.5z" />
    <glyph glyph-name="Yacute" unicode="&#xdd;" horiz-adv-x="1327" 
d="M403 1370l273 -479l268 479q15 29 44.5 46.5t62.5 17.5h102q43 0 72.5 -31t29.5 -72q0 -29 -14 -51l-416 -696v-490q0 -38 -28 -66t-66 -28h-139q-38 0 -66 28t-28 66v490l-412 696q-14 22 -14 51q0 41 29.5 72t72.5 31h123q33 0 62 -17.5t44 -46.5zM567 1718l303 152
q18 10 41 10q28 0 52 -14.5t34 -40.5l37 -84q8 -20 8 -35q0 -29 -17.5 -53t-45.5 -31l-322 -102q-21 -7 -36 -7q-33 0 -60.5 16.5t-40.5 45.5q-10 27 -10 47q0 31 15.5 56.5t41.5 39.5z" />
    <glyph glyph-name="Thorn" unicode="&#xde;" horiz-adv-x="1284" 
d="M623 1233q127 0 227.5 -26t165.5 -69.5t107.5 -105.5t60.5 -129.5t18 -144.5q0 -96 -36.5 -183t-103 -153.5t-168 -106t-222.5 -39.5q-100 0 -160 7v-189q0 -38 -28 -66t-66 -28h-139q-38 0 -66.5 28t-28.5 66v1245q0 38 28.5 66.5t66.5 28.5h139q38 0 66 -28.5t28 -66.5
v-110q7 0 53 2t58 2zM512 918v-324q78 -10 150 -10q35 0 66.5 8.5t61 27t47 54.5t17.5 86q0 90 -59 128t-168 38q-57 0 -115 -8z" />
    <glyph glyph-name="germandbls" unicode="&#xdf;" horiz-adv-x="1138" 
d="M477 147l41 86q21 46 60 46q9 0 25 -4.5t18 -4.5q35 -8 61 -8h16q30 0 51 19.5t21 60.5q0 33 -21.5 64t-54.5 54.5t-70.5 53t-70.5 59.5t-54.5 75t-21.5 97q0 66 22 123.5t48.5 90t48.5 69t22 66.5q0 33 -27.5 55t-72.5 22q-59 0 -83.5 -44t-24.5 -140v-909
q0 -32 -23 -55t-55 -23h-152q-32 0 -55 23t-23 55v932q0 230 120 339t341 109q165 0 274 -89t109 -216q0 -57 -14.5 -101t-35 -71t-41.5 -51t-35.5 -54.5t-14.5 -68.5q0 -35 16 -64.5t42 -51.5t57 -44t62.5 -50t57.5 -62t42 -86t16 -117q0 -145 -93.5 -251t-242.5 -106
q-137 0 -256 76q-37 26 -37 66q0 10 8 30z" />
    <glyph glyph-name="agrave" unicode="&#xe0;" horiz-adv-x="952" 
d="M61 279q0 150 93.5 227.5t238.5 77.5q56 0 105.5 -16t74.5 -36v19q0 139 -131 139q-72 0 -151 -22q-20 -4 -29 -4q-62 0 -80 53l-26 67q-6 15 -6 31q0 52 49 74q132 57 278 57q204 0 293.5 -98t89.5 -293v-477q0 -32 -23 -55t-55 -23h-110q-33 0 -55.5 23.5t-22.5 58.5
q-33 -45 -99 -69.5t-143 -24.5q-128 0 -209.5 77.5t-81.5 213.5zM573 291v57q-45 31 -116 31q-39 0 -63.5 -18.5t-24.5 -51.5q0 -30 24.5 -47.5t63.5 -17.5q82 0 116 47zM526 1415l101 -164q16 -29 16 -59q0 -57 -51 -96q-36 -25 -76 -25q-51 0 -90 39l-125 135
q-27 30 -27 68q0 50 39 78l72 51q23 20 59 20q58 0 82 -47z" />
    <glyph glyph-name="aacute" unicode="&#xe1;" horiz-adv-x="952" 
d="M61 279q0 150 93.5 227.5t238.5 77.5q56 0 105.5 -16t74.5 -36v19q0 139 -131 139q-72 0 -151 -22q-20 -4 -29 -4q-62 0 -80 53l-26 67q-6 15 -6 31q0 52 49 74q132 57 278 57q204 0 293.5 -98t89.5 -293v-477q0 -32 -23 -55t-55 -23h-110q-33 0 -55.5 23.5t-22.5 58.5
q-33 -45 -99 -69.5t-143 -24.5q-128 0 -209.5 77.5t-81.5 213.5zM573 291v57q-45 31 -116 31q-39 0 -63.5 -18.5t-24.5 -51.5q0 -30 24.5 -47.5t63.5 -17.5q82 0 116 47zM350 1251l101 168q27 47 81 47q37 0 60 -20l67 -51q39 -29 39 -80q0 -39 -24 -66l-125 -139
q-36 -39 -88 -39q-38 0 -74 25q-53 38 -53 98q0 28 16 57z" />
    <glyph glyph-name="acircumflex" unicode="&#xe2;" horiz-adv-x="952" 
d="M61 279q0 150 93.5 227.5t238.5 77.5q56 0 105.5 -16t74.5 -36v19q0 139 -131 139q-72 0 -151 -22q-20 -4 -29 -4q-62 0 -80 53l-26 67q-6 15 -6 31q0 52 49 74q132 57 278 57q204 0 293.5 -98t89.5 -293v-477q0 -32 -23 -55t-55 -23h-110q-33 0 -55.5 23.5t-22.5 58.5
q-33 -45 -99 -69.5t-143 -24.5q-128 0 -209.5 77.5t-81.5 213.5zM573 291v57q-45 31 -116 31q-39 0 -63.5 -18.5t-24.5 -51.5q0 -30 24.5 -47.5t63.5 -17.5q82 0 116 47zM473 1153l-115 -90q-31 -25 -69 -25q-58 0 -88 43q-25 31 -25 70q0 54 45 90l164 133q42 31 90 31
q53 0 92 -33l162 -131q41 -33 41 -90q0 -43 -25 -74q-34 -43 -88 -43q-41 0 -71 27z" />
    <glyph glyph-name="atilde" unicode="&#xe3;" horiz-adv-x="952" 
d="M61 279q0 150 93.5 227.5t238.5 77.5q56 0 105.5 -16t74.5 -36v19q0 139 -131 139q-72 0 -151 -22q-20 -4 -29 -4q-62 0 -80 53l-26 67q-6 15 -6 31q0 52 49 74q132 57 278 57q204 0 293.5 -98t89.5 -293v-477q0 -32 -23 -55t-55 -23h-110q-33 0 -55.5 23.5t-22.5 58.5
q-33 -45 -99 -69.5t-143 -24.5q-128 0 -209.5 77.5t-81.5 213.5zM573 291v57q-45 31 -116 31q-39 0 -63.5 -18.5t-24.5 -51.5q0 -30 24.5 -47.5t63.5 -17.5q82 0 116 47zM846 1251q0 -51 -39 -90q-65 -61 -111 -83.5t-102 -22.5q-45 0 -130.5 42t-131.5 42q-22 0 -66 -29
q-41 -27 -73 -27q-44 0 -70 33q-23 26 -23 58q0 47 41 88q57 57 101.5 77.5t101.5 20.5q50 0 135 -38t125 -38q9 0 21 4.5t19.5 9t20 12.5t13.5 9q41 24 72 24q42 0 79 -43q17 -20 17 -49z" />
    <glyph glyph-name="adieresis" unicode="&#xe4;" horiz-adv-x="952" 
d="M61 279q0 150 93.5 227.5t238.5 77.5q56 0 105.5 -16t74.5 -36v19q0 139 -131 139q-72 0 -151 -22q-20 -4 -29 -4q-62 0 -80 53l-26 67q-6 15 -6 31q0 52 49 74q132 57 278 57q204 0 293.5 -98t89.5 -293v-477q0 -32 -23 -55t-55 -23h-110q-33 0 -55.5 23.5t-22.5 58.5
q-33 -45 -99 -69.5t-143 -24.5q-128 0 -209.5 77.5t-81.5 213.5zM573 291v57q-45 31 -116 31q-39 0 -63.5 -18.5t-24.5 -51.5q0 -30 24.5 -47.5t63.5 -17.5q82 0 116 47zM305 1030q-72 0 -120 46.5t-48 129.5q0 76 48.5 121t119.5 45q62 0 109 -46t47 -120q0 -82 -46.5 -129
t-109.5 -47zM700 1030q-71 0 -119.5 46.5t-48.5 129.5q0 75 49 120.5t119 45.5q63 0 109.5 -45.5t46.5 -120.5q0 -82 -46 -129t-110 -47z" />
    <glyph glyph-name="aring" unicode="&#xe5;" horiz-adv-x="952" 
d="M61 279q0 150 93.5 227.5t238.5 77.5q56 0 105.5 -16t74.5 -36v19q0 139 -131 139q-72 0 -151 -22q-20 -4 -29 -4q-62 0 -80 53l-26 67q-6 15 -6 31q0 52 49 74q132 57 278 57q204 0 293.5 -98t89.5 -293v-477q0 -32 -23 -55t-55 -23h-110q-33 0 -55.5 23.5t-22.5 58.5
q-33 -45 -99 -69.5t-143 -24.5q-128 0 -209.5 77.5t-81.5 213.5zM573 291v57q-45 31 -116 31q-39 0 -63.5 -18.5t-24.5 -51.5q0 -30 24.5 -47.5t63.5 -17.5q82 0 116 47zM500 991q-121 0 -201 75.5t-80 184.5q0 110 80 187.5t201 77.5q123 0 203.5 -77.5t80.5 -187.5
q0 -109 -80.5 -184.5t-203.5 -75.5zM504 1352q-40 0 -65 -28t-25 -69q0 -42 25 -71t65 -29q39 0 62.5 29t23.5 71q0 41 -23.5 69t-62.5 28z" />
    <glyph glyph-name="ae" unicode="&#xe6;" horiz-adv-x="1519" 
d="M860 563h311q-5 53 -43 90t-112 37h-4q-42 0 -85.5 -20.5t-68.5 -65.5q0 -6 1 -20t1 -21zM569 285l4 63q-45 31 -116 31q-41 0 -64.5 -21t-23.5 -49q0 -25 21.5 -45t66.5 -20q57 0 112 41zM860 330q21 -43 77.5 -71t135.5 -28q93 0 166 27q21 8 45 8q51 0 72 -43l33 -65
q8 -16 8 -37q0 -45 -37 -68q-82 -46 -154.5 -62t-165.5 -16q-209 0 -340 103q-61 -43 -121 -66t-95 -27.5t-78 -4.5q-169 0 -257 81t-88 234q0 130 91.5 209.5t240.5 79.5q47 0 102 -17t78 -35q2 8 2 25q0 61 -35 98t-81 37q-82 0 -168 -24q-20 -4 -29 -4q-62 0 -80 53
l-26 67q-6 15 -6 31q0 52 49 74q132 57 278 57q181 0 271 -78q124 78 284 78q119 0 220.5 -53t164 -153.5t62.5 -227.5q0 -54 -6 -92q-3 -23 -25 -42.5t-45 -19.5h-543v-28z" />
    <glyph glyph-name="ccedilla" unicode="&#xe7;" horiz-adv-x="997" 
d="M729 623q-71 36 -141 36q-79 0 -139 -53t-60 -145q0 -89 62.5 -144t140.5 -55q73 0 143 45q29 19 58 19q40 0 63 -33l64 -84q16 -22 16 -49q0 -43 -33 -66q-127 -102 -280 -117v-30q104 -9 160.5 -56t56.5 -129q0 -88 -79.5 -140t-230.5 -52q-127 0 -229 65
q-14 9 -26.5 29t-12.5 43q0 25 14 47q25 37 66 37q30 0 55 -14q56 -23 90 -23q45 0 45 27q0 15 -36 57q-27 34 -27 90v56q-189 29 -298.5 156.5t-109.5 320.5q0 134 60.5 244t173 175.5t254.5 65.5q97 0 170 -18t151 -68q45 -28 45 -72q0 -20 -12 -38l-59 -99
q-24 -41 -70 -41q-22 0 -45 13z" />
    <glyph glyph-name="egrave" unicode="&#xe8;" horiz-adv-x="1048" 
d="M932 358h-553q21 -63 78.5 -95t136.5 -32q92 0 166 27q21 8 45 8q51 0 72 -43l32 -65q9 -18 9 -37q0 -45 -37 -68q-82 -46 -154.5 -62t-165.5 -16q-227 0 -363.5 133.5t-136.5 352.5q0 134 61 244t176 175.5t263 65.5q119 0 220.5 -53t164 -153.5t62.5 -227.5
q0 -48 -7 -92q-3 -23 -24.5 -42.5t-44.5 -19.5zM700 563q0 51 -40 89t-109 38q-74 0 -116.5 -31.5t-65.5 -95.5h331zM618 1415l101 -164q16 -29 16 -59q0 -57 -51 -96q-36 -25 -76 -25q-51 0 -90 39l-125 135q-26 29 -26 68q0 50 39 78l71 51q23 20 60 20q57 0 81 -47z" />
    <glyph glyph-name="eacute" unicode="&#xe9;" horiz-adv-x="1048" 
d="M932 358h-553q21 -63 78.5 -95t136.5 -32q92 0 166 27q21 8 45 8q51 0 72 -43l32 -65q9 -18 9 -37q0 -45 -37 -68q-82 -46 -154.5 -62t-165.5 -16q-227 0 -363.5 133.5t-136.5 352.5q0 134 61 244t176 175.5t263 65.5q119 0 220.5 -53t164 -153.5t62.5 -227.5
q0 -48 -7 -92q-3 -23 -24.5 -42.5t-44.5 -19.5zM700 563q0 51 -40 89t-109 38q-74 0 -116.5 -31.5t-65.5 -95.5h331zM442 1251l101 168q27 47 82 47q36 0 59 -20l68 -51q39 -29 39 -80q0 -38 -25 -66l-125 -139q-36 -39 -88 -39q-38 0 -74 25q-53 38 -53 98q0 28 16 57z" />
    <glyph glyph-name="ecircumflex" unicode="&#xea;" horiz-adv-x="1048" 
d="M932 358h-553q21 -63 78.5 -95t136.5 -32q92 0 166 27q21 8 45 8q51 0 72 -43l32 -65q9 -18 9 -37q0 -45 -37 -68q-82 -46 -154.5 -62t-165.5 -16q-227 0 -363.5 133.5t-136.5 352.5q0 134 61 244t176 175.5t263 65.5q119 0 220.5 -53t164 -153.5t62.5 -227.5
q0 -48 -7 -92q-3 -23 -24.5 -42.5t-44.5 -19.5zM700 563q0 51 -40 89t-109 38q-74 0 -116.5 -31.5t-65.5 -95.5h331zM545 1153l-115 -90q-31 -25 -70 -25q-58 0 -88 43q-24 30 -24 70q0 54 45 90l164 133q42 31 90 31q53 0 92 -33l162 -131q41 -33 41 -90q0 -43 -25 -74
q-34 -43 -88 -43q-42 0 -72 27z" />
    <glyph glyph-name="edieresis" unicode="&#xeb;" horiz-adv-x="1048" 
d="M932 358h-553q21 -63 78.5 -95t136.5 -32q92 0 166 27q21 8 45 8q51 0 72 -43l32 -65q9 -18 9 -37q0 -45 -37 -68q-82 -46 -154.5 -62t-165.5 -16q-227 0 -363.5 133.5t-136.5 352.5q0 134 61 244t176 175.5t263 65.5q119 0 220.5 -53t164 -153.5t62.5 -227.5
q0 -48 -7 -92q-3 -23 -24.5 -42.5t-44.5 -19.5zM700 563q0 51 -40 89t-109 38q-74 0 -116.5 -31.5t-65.5 -95.5h331zM362 1030q-72 0 -119.5 46.5t-47.5 129.5q0 76 48 121t119 45q62 0 109 -46t47 -120q0 -82 -46.5 -129t-109.5 -47zM758 1030q-71 0 -119.5 46.5
t-48.5 129.5q0 75 49 120.5t119 45.5q63 0 109 -45.5t46 -120.5q0 -82 -45.5 -129t-109.5 -47z" />
    <glyph glyph-name="igrave" unicode="&#xec;" horiz-adv-x="585" 
d="M446 844v-766q0 -32 -22.5 -55t-54.5 -23h-152q-32 0 -55 23t-23 55v766q0 32 23 55t55 23h152q32 0 54.5 -23t22.5 -55zM270 1415l101 -164q16 -29 16 -59q0 -57 -51 -96q-36 -25 -76 -25q-51 0 -90 39l-125 135q-27 30 -27 68q0 50 39 78l72 51q23 20 59 20
q58 0 82 -47z" />
    <glyph glyph-name="iacute" unicode="&#xed;" horiz-adv-x="585" 
d="M446 844v-766q0 -32 -22.5 -55t-54.5 -23h-152q-32 0 -55 23t-23 55v766q0 32 23 55t55 23h152q32 0 54.5 -23t22.5 -55zM156 1251l100 168q27 47 82 47q36 0 59 -20l68 -51q39 -29 39 -80q0 -38 -25 -66l-125 -139q-36 -39 -88 -39q-37 0 -73 25q-54 39 -54 98
q0 26 17 57z" />
    <glyph glyph-name="icircumflex" unicode="&#xee;" horiz-adv-x="585" 
d="M446 844v-766q0 -32 -22.5 -55t-54.5 -23h-152q-32 0 -55 23t-23 55v766q0 32 23 55t55 23h152q32 0 54.5 -23t22.5 -55zM293 1153l-115 -90q-31 -25 -69 -25q-59 0 -89 43q-24 30 -24 70q0 54 45 90l164 133q42 31 90 31q53 0 92 -33l162 -131q41 -33 41 -90
q0 -43 -25 -74q-34 -43 -88 -43q-41 0 -71 27z" />
    <glyph glyph-name="idieresis" unicode="&#xef;" horiz-adv-x="585" 
d="M446 844v-766q0 -32 -22.5 -55t-54.5 -23h-152q-32 0 -55 23t-23 55v766q0 32 23 55t55 23h152q32 0 54.5 -23t22.5 -55zM102 1030q-72 0 -120 46.5t-48 129.5q0 76 48.5 121t119.5 45q62 0 109 -46t47 -120q0 -82 -46.5 -129t-109.5 -47zM498 1030q-71 0 -119.5 46.5
t-48.5 129.5q0 75 49 120.5t119 45.5q63 0 109 -45.5t46 -120.5q0 -82 -45.5 -129t-109.5 -47z" />
    <glyph glyph-name="eth" unicode="&#xf0;" horiz-adv-x="1146" 
d="M61 461q0 211 140 348t372 137q57 0 111 -24q-23 55 -66 122l-172 -53q-16 -4 -22 -4q-25 0 -47 16t-29 41l-41 123q-4 16 -4 23q0 25 16 47t41 29l60 18q-5 4 -13 12t-12 11q-26 23 -26 61q0 29 18 53l47 64q30 33 68 33q26 0 47 -15q153 -105 176 -127l129 41
q16 4 23 4q25 0 46.5 -16t28.5 -41l39 -123q4 -16 4 -22q0 -26 -15.5 -47.5t-41.5 -30.5l-20 -6q81 -138 124 -295t43 -293q0 -270 -137 -421t-375 -151q-232 0 -372 137.5t-140 348.5zM389 461q0 -87 52.5 -143t131.5 -56q84 0 135.5 65.5t51.5 180.5q0 33 -2 51
q-44 100 -185 100q-77 0 -130.5 -54t-53.5 -144z" />
    <glyph glyph-name="ntilde" unicode="&#xf1;" horiz-adv-x="1114" 
d="M420 588v-510q0 -32 -23 -55t-55 -23h-152q-32 0 -54.5 23t-22.5 55v766q0 32 22.5 55t54.5 23h160q29 0 49.5 -20.5t20.5 -49.5q40 37 99.5 61.5t127.5 24.5q83 0 149 -20.5t118 -65t80 -121.5t28 -182v-471q0 -32 -23 -55t-55 -23h-151q-32 0 -55 23t-23 55v418
q0 77 -41 116t-111 39q-80 0 -143 -63zM934 1251q0 -51 -39 -90q-65 -61 -111 -83.5t-102 -22.5q-45 0 -130.5 42t-131.5 42q-22 0 -66 -29q-40 -27 -73 -27q-44 0 -70 33q-23 26 -23 58q0 47 41 88q57 57 101.5 77.5t101.5 20.5q50 0 135 -38t125 -38q9 0 21 4.5t19.5 9
t19.5 12.5t14 9q40 24 72 24q43 0 80 -43q16 -19 16 -49z" />
    <glyph glyph-name="ograve" unicode="&#xf2;" horiz-adv-x="1146" 
d="M61 461q0 211 140 348t372 137t372 -137t140 -348t-140 -348.5t-372 -137.5t-372 137.5t-140 348.5zM389 461q0 -87 52.5 -143t131.5 -56q80 0 132.5 54t52.5 145q0 88 -53.5 143t-131.5 55q-77 0 -130.5 -54t-53.5 -144zM592 1415l100 -164q17 -31 17 -59q0 -57 -52 -96
q-36 -25 -75 -25q-51 0 -90 39l-125 135q-27 30 -27 68q0 50 39 78l72 51q23 20 59 20q58 0 82 -47z" />
    <glyph glyph-name="oacute" unicode="&#xf3;" horiz-adv-x="1146" 
d="M61 461q0 211 140 348t372 137t372 -137t140 -348t-140 -348.5t-372 -137.5t-372 137.5t-140 348.5zM389 461q0 -87 52.5 -143t131.5 -56q80 0 132.5 54t52.5 145q0 88 -53.5 143t-131.5 55q-77 0 -130.5 -54t-53.5 -144zM457 1251l100 168q27 47 82 47q36 0 59 -20
l68 -51q39 -29 39 -80q0 -38 -25 -66l-125 -139q-36 -39 -88 -39q-37 0 -73 25q-54 39 -54 98q0 26 17 57z" />
    <glyph glyph-name="ocircumflex" unicode="&#xf4;" horiz-adv-x="1146" 
d="M61 461q0 211 140 348t372 137t372 -137t140 -348t-140 -348.5t-372 -137.5t-372 137.5t-140 348.5zM389 461q0 -87 52.5 -143t131.5 -56q80 0 132.5 54t52.5 145q0 88 -53.5 143t-131.5 55q-77 0 -130.5 -54t-53.5 -144zM578 1153l-115 -90q-31 -25 -70 -25
q-58 0 -88 43q-24 30 -24 70q0 54 45 90l163 133q42 31 91 31q53 0 92 -33l162 -131q40 -32 40 -90q0 -44 -24 -74q-34 -43 -88 -43q-42 0 -72 27z" />
    <glyph glyph-name="otilde" unicode="&#xf5;" horiz-adv-x="1146" 
d="M61 461q0 211 140 348t372 137t372 -137t140 -348t-140 -348.5t-372 -137.5t-372 137.5t-140 348.5zM389 461q0 -87 52.5 -143t131.5 -56q80 0 132.5 54t52.5 145q0 88 -53.5 143t-131.5 55q-77 0 -130.5 -54t-53.5 -144zM950 1251q0 -51 -39 -90q-65 -61 -111 -83.5
t-102 -22.5q-45 0 -130.5 42t-131.5 42q-22 0 -65 -29q-41 -27 -74 -27q-44 0 -70 33q-22 25 -22 58q0 47 41 88q57 57 101.5 77.5t101.5 20.5q49 0 134 -38t126 -38q9 0 21 4.5t19.5 9t19 12.5t13.5 9q40 24 72 24q43 0 80 -43q16 -19 16 -49z" />
    <glyph glyph-name="odieresis" unicode="&#xf6;" horiz-adv-x="1146" 
d="M61 461q0 211 140 348t372 137t372 -137t140 -348t-140 -348.5t-372 -137.5t-372 137.5t-140 348.5zM389 461q0 -87 52.5 -143t131.5 -56q80 0 132.5 54t52.5 145q0 88 -53.5 143t-131.5 55q-77 0 -130.5 -54t-53.5 -144zM399 1030q-72 0 -120 46.5t-48 129.5
q0 76 48.5 121t119.5 45q62 0 109 -46t47 -120q0 -82 -46.5 -129t-109.5 -47zM795 1030q-71 0 -119.5 46.5t-48.5 129.5q0 75 49 120.5t119 45.5q63 0 109 -45.5t46 -120.5q0 -82 -45.5 -129t-109.5 -47z" />
    <glyph glyph-name="divide" unicode="&#xf7;" 
d="M436 1126q0 67 47.5 118.5t130.5 51.5q79 0 126.5 -52t47.5 -118q0 -73 -47.5 -127.5t-126.5 -54.5q-83 0 -130.5 54t-47.5 128zM436 352q0 66 48 118t130 52q76 0 125 -53t49 -117q0 -75 -47 -128.5t-127 -53.5q-84 0 -131 53.5t-47 128.5zM1100 772v-70
q0 -40 -29.5 -69t-69.5 -29h-774q-40 0 -69 29t-29 69v70q0 40 29 69t69 29h774q40 0 69.5 -29t29.5 -69z" />
    <glyph glyph-name="oslash" unicode="&#xf8;" horiz-adv-x="1187" 
d="M1126 461q0 -209 -149 -347.5t-383 -138.5q-190 0 -326 93q-26 -23 -57 -23q-42 0 -72 33q-18 24 -18 51q0 33 24 57q-84 116 -84 275q0 209 149.5 347t383.5 138q177 0 315 -88q26 23 60 23q45 0 71 -33q19 -22 19 -49q0 -32 -25 -54q92 -125 92 -284zM788 528
l-282 -252q35 -14 88 -14q94 0 149.5 53t55.5 146q0 30 -11 67zM395 406l275 241q-35 12 -76 12q-91 0 -148 -53t-57 -145q0 -28 6 -55z" />
    <glyph glyph-name="ugrave" unicode="&#xf9;" horiz-adv-x="1085" 
d="M666 346v498q0 32 22.5 55t54.5 23h152q32 0 55 -23t23 -55v-766q0 -32 -23 -55t-55 -23h-152q-33 0 -55 24t-22 62q-98 -111 -265 -111q-60 0 -114.5 22t-98.5 65.5t-70 115.5t-26 164v502q0 32 23 55t55 23h152q32 0 54.5 -23t22.5 -55v-436q0 -62 28.5 -104t90.5 -42
q81 0 148 84zM551 1415l100 -164q17 -31 17 -59q0 -57 -52 -96q-36 -25 -75 -25q-51 0 -90 39l-125 135q-27 30 -27 68q0 50 39 78l72 51q23 20 59 20q58 0 82 -47z" />
    <glyph glyph-name="uacute" unicode="&#xfa;" horiz-adv-x="1085" 
d="M666 346v498q0 32 22.5 55t54.5 23h152q32 0 55 -23t23 -55v-766q0 -32 -23 -55t-55 -23h-152q-33 0 -55 24t-22 62q-98 -111 -265 -111q-60 0 -114.5 22t-98.5 65.5t-70 115.5t-26 164v502q0 32 23 55t55 23h152q32 0 54.5 -23t22.5 -55v-436q0 -62 28.5 -104t90.5 -42
q81 0 148 84zM436 1251l101 168q27 47 81 47q37 0 60 -20l67 -51q39 -29 39 -80q0 -39 -24 -66l-125 -139q-36 -39 -88 -39q-38 0 -74 25q-53 38 -53 98q0 28 16 57z" />
    <glyph glyph-name="ucircumflex" unicode="&#xfb;" horiz-adv-x="1085" 
d="M666 346v498q0 32 22.5 55t54.5 23h152q32 0 55 -23t23 -55v-766q0 -32 -23 -55t-55 -23h-152q-33 0 -55 24t-22 62q-98 -111 -265 -111q-60 0 -114.5 22t-98.5 65.5t-70 115.5t-26 164v502q0 32 23 55t55 23h152q32 0 54.5 -23t22.5 -55v-436q0 -62 28.5 -104t90.5 -42
q81 0 148 84zM543 1153l-115 -90q-31 -25 -70 -25q-58 0 -88 43q-24 30 -24 70q0 54 45 90l164 133q42 31 90 31q53 0 92 -33l162 -131q41 -33 41 -90q0 -43 -25 -74q-34 -43 -88 -43q-42 0 -72 27z" />
    <glyph glyph-name="udieresis" unicode="&#xfc;" horiz-adv-x="1085" 
d="M666 346v498q0 32 22.5 55t54.5 23h152q32 0 55 -23t23 -55v-766q0 -32 -23 -55t-55 -23h-152q-33 0 -55 24t-22 62q-98 -111 -265 -111q-60 0 -114.5 22t-98.5 65.5t-70 115.5t-26 164v502q0 32 23 55t55 23h152q32 0 54.5 -23t22.5 -55v-436q0 -62 28.5 -104t90.5 -42
q81 0 148 84zM344 1030q-72 0 -120 46.5t-48 129.5q0 76 48.5 121t119.5 45q62 0 109 -46t47 -120q0 -82 -46.5 -129t-109.5 -47zM739 1030q-71 0 -119.5 46.5t-48.5 129.5q0 75 49 120.5t119 45.5q63 0 109.5 -45.5t46.5 -120.5q0 -82 -46 -129t-110 -47z" />
    <glyph glyph-name="yacute" unicode="&#xfd;" horiz-adv-x="1054" 
d="M524 500q15 -39 35 -127q8 77 23 129l104 360q7 26 29.5 43t48.5 17h145q42 0 70.5 -30t28.5 -69q0 -14 -7 -35l-307 -788q-68 -166 -124 -254t-112.5 -122t-135.5 -34q-97 0 -195 62q-33 23 -33 63q0 24 12 45l46 80q15 28 28 38.5t39 10.5q11 0 39 -8t49 -8q48 0 80 78
l21 49l-353 791q-8 16 -8 38q0 38 26.5 65.5t65.5 27.5h166q27 0 50 -16.5t34 -43.5zM397 1251l101 168q27 47 82 47q36 0 59 -20l68 -51q38 -28 38 -80q0 -39 -24 -66l-125 -139q-36 -39 -88 -39q-38 0 -74 25q-53 38 -53 98q0 28 16 57z" />
    <glyph glyph-name="thorn" unicode="&#xfe;" horiz-adv-x="1148" 
d="M420 4v-336q0 -32 -23 -55t-55 -23h-152q-32 0 -54.5 23t-22.5 55v1688q0 32 22.5 55t54.5 23h152q32 0 55 -23t23 -55v-488q103 78 256 78q184 0 297.5 -132.5t113.5 -338.5q0 -140 -60.5 -253.5t-174.5 -180t-260 -66.5q-103 0 -172 29zM420 578v-281q34 -20 64 -27.5
t79 -7.5q95 0 146 58.5t51 148.5q0 83 -47.5 136.5t-132.5 53.5q-88 0 -160 -81z" />
    <glyph glyph-name="ydieresis" unicode="&#xff;" horiz-adv-x="1054" 
d="M524 500q15 -39 35 -127q8 77 23 129l104 360q7 26 29.5 43t48.5 17h145q42 0 70.5 -30t28.5 -69q0 -14 -7 -35l-307 -788q-68 -166 -124 -254t-112.5 -122t-135.5 -34q-97 0 -195 62q-33 23 -33 63q0 24 12 45l46 80q15 28 28 38.5t39 10.5q11 0 39 -8t49 -8q48 0 80 78
l21 49l-353 791q-8 16 -8 38q0 38 26.5 65.5t65.5 27.5h166q27 0 50 -16.5t34 -43.5zM352 1030q-72 0 -120 46.5t-48 129.5q0 76 48.5 121t119.5 45q62 0 109 -46t47 -120q0 -82 -46.5 -129t-109.5 -47zM748 1030q-71 0 -119.5 46.5t-48.5 129.5q0 75 49 120.5t119 45.5
q63 0 109 -45.5t46 -120.5q0 -82 -45.5 -129t-109.5 -47z" />
    <glyph glyph-name="Amacron" unicode="&#x100;" horiz-adv-x="1476" 
d="M1012 301h-568l-92 -233q-12 -31 -39 -49.5t-59 -18.5h-125q-37 0 -62.5 26.5t-25.5 61.5q0 20 6 35l516 1243q14 31 41.5 49.5t59.5 18.5h149q32 0 59 -18.5t41 -49.5l517 -1243q6 -15 6 -35q0 -35 -25.5 -61.5t-62.5 -26.5h-146q-32 0 -59 18.5t-39 49.5zM729 1014
l-162 -406h322zM1059 1683v-49q0 -40 -29 -69t-69 -29h-447q-40 0 -69 29t-29 69v49q0 40 29 69.5t69 29.5h447q40 0 69 -29.5t29 -69.5z" />
    <glyph glyph-name="amacron" unicode="&#x101;" horiz-adv-x="952" 
d="M61 279q0 150 93.5 227.5t238.5 77.5q56 0 105.5 -16t74.5 -36v19q0 139 -131 139q-72 0 -151 -22q-20 -4 -29 -4q-62 0 -80 53l-26 67q-6 15 -6 31q0 52 49 74q132 57 278 57q204 0 293.5 -98t89.5 -293v-477q0 -32 -23 -55t-55 -23h-110q-33 0 -55.5 23.5t-22.5 58.5
q-33 -45 -99 -69.5t-143 -24.5q-128 0 -209.5 77.5t-81.5 213.5zM573 291v57q-45 31 -116 31q-39 0 -63.5 -18.5t-24.5 -51.5q0 -30 24.5 -47.5t63.5 -17.5q82 0 116 47zM788 1212v-49q0 -40 -29 -69t-69 -29h-405q-40 0 -69.5 29t-29.5 69v49q0 40 29.5 69.5t69.5 29.5h405
q40 0 69 -29.5t29 -69.5z" />
    <glyph glyph-name="Abreve" unicode="&#x102;" horiz-adv-x="1476" 
d="M1012 301h-568l-92 -233q-12 -31 -39 -49.5t-59 -18.5h-125q-37 0 -62.5 26.5t-25.5 61.5q0 20 6 35l516 1243q14 31 41.5 49.5t59.5 18.5h149q32 0 59 -18.5t41 -49.5l517 -1243q6 -15 6 -35q0 -35 -25.5 -61.5t-62.5 -26.5h-146q-32 0 -59 18.5t-39 49.5zM729 1014
l-162 -406h322zM528 1823q94 -62 222 -62q127 0 221 62q42 28 78 28q40 0 77 -34q33 -29 33 -78q0 -39 -22 -64q-156 -180 -387 -180q-232 0 -388 180q-22 25 -22 64q0 49 33 78q37 34 78 34q35 0 77 -28z" />
    <glyph glyph-name="abreve" unicode="&#x103;" horiz-adv-x="952" 
d="M61 279q0 150 93.5 227.5t238.5 77.5q56 0 105.5 -16t74.5 -36v19q0 139 -131 139q-72 0 -151 -22q-20 -4 -29 -4q-62 0 -80 53l-26 67q-6 15 -6 31q0 52 49 74q132 57 278 57q204 0 293.5 -98t89.5 -293v-477q0 -32 -23 -55t-55 -23h-110q-33 0 -55.5 23.5t-22.5 58.5
q-33 -45 -99 -69.5t-143 -24.5q-128 0 -209.5 77.5t-81.5 213.5zM573 291v57q-45 31 -116 31q-39 0 -63.5 -18.5t-24.5 -51.5q0 -30 24.5 -47.5t63.5 -17.5q82 0 116 47zM326 1333q64 -43 145 -43t145 43q46 31 84 31q41 0 74 -33q29 -29 29 -69t-27 -70
q-138 -150 -305 -150t-305 150q-27 30 -27 70t29 69q33 33 74 33q38 0 84 -31z" />
    <glyph glyph-name="Aogonek" unicode="&#x104;" horiz-adv-x="1476" 
d="M1012 301h-568l-92 -233q-12 -31 -39 -49.5t-59 -18.5h-125q-37 0 -62.5 26.5t-25.5 61.5q0 20 6 35l516 1243q14 31 41.5 49.5t59.5 18.5h149q32 0 59 -18.5t41 -49.5l517 -1243q6 -15 6 -35q0 -35 -25.5 -61.5t-62.5 -26.5h-41q-61 -4 -102.5 -40t-41.5 -71
q0 -53 62 -53q18 0 44 5t42 5q62 0 90 -57q14 -32 14 -57q0 -58 -63 -97q-82 -45 -199 -45q-129 0 -213 49.5t-84 145.5q0 90 77 152t200 90q-20 17 -29 41zM729 1014l-162 -406h322z" />
    <glyph glyph-name="aogonek" unicode="&#x105;" horiz-adv-x="952" 
d="M61 279q0 150 93.5 227.5t238.5 77.5q56 0 105.5 -16t74.5 -36v19q0 139 -131 139q-72 0 -151 -22q-20 -4 -29 -4q-62 0 -80 53l-26 67q-6 15 -6 31q0 52 49 74q132 57 278 57q204 0 293.5 -98t89.5 -293v-477q0 -32 -23 -55t-55 -23h-32q-30 -4 -49 -40t-19 -71
q0 -53 61 -53q31 0 44 -0.5t34.5 -3.5t32 -10t22 -20.5t19.5 -34.5q8 -19 8 -46q0 -71 -65 -100q-72 -31 -166 -31q-129 0 -213 49.5t-84 145.5q0 58 38.5 107.5t91 79t116.5 48.5q-27 24 -27 62q-33 -45 -99 -69.5t-143 -24.5q-128 0 -209.5 77.5t-81.5 213.5zM573 291v57
q-45 31 -116 31q-39 0 -63.5 -18.5t-24.5 -51.5q0 -30 24.5 -47.5t63.5 -17.5q82 0 116 47z" />
    <glyph glyph-name="Cacute" unicode="&#x106;" horiz-adv-x="1337" 
d="M1036 1114q-92 37 -205 37q-173 0 -287 -114.5t-114 -319.5q0 -191 120.5 -312.5t313.5 -121.5q116 0 223 55q28 14 60 14q56 0 84 -49l49 -78q14 -25 14 -51q0 -53 -45 -86q-90 -62 -188.5 -87.5t-226.5 -25.5q-220 0 -391 92t-266 261t-95 389q0 124 30 235t91.5 204
t150 160t210.5 104.5t267 37.5q105 0 185.5 -19.5t163.5 -60.5q23 -10 36 -32.5t13 -47.5q0 -22 -10 -45l-45 -94q-24 -55 -89 -55q-22 0 -49 10zM676 1718l303 152q18 10 41 10q28 0 52 -14.5t34 -40.5l37 -84q8 -20 8 -35q0 -29 -17.5 -53t-46.5 -31l-321 -102
q-21 -7 -37 -7q-33 0 -60 16.5t-40 45.5q-11 29 -11 47q0 31 16 56.5t42 39.5z" />
    <glyph glyph-name="cacute" unicode="&#x107;" horiz-adv-x="997" 
d="M729 623q-71 36 -141 36q-79 0 -139 -53t-60 -145q0 -89 62.5 -144t140.5 -55q73 0 143 45q29 19 58 19q40 0 63 -33l64 -84q16 -22 16 -49q0 -43 -33 -66q-147 -119 -330 -119q-234 0 -373 133.5t-139 352.5q0 134 60.5 244t173 175.5t254.5 65.5q97 0 170 -18t151 -68
q45 -28 45 -72q0 -20 -12 -38l-59 -99q-24 -41 -70 -41q-22 0 -45 13zM422 1251l100 168q27 47 82 47q37 0 60 -20l67 -51q39 -29 39 -80q0 -38 -25 -66l-124 -139q-36 -39 -89 -39q-37 0 -73 25q-53 38 -53 98q0 28 16 57z" />
    <glyph glyph-name="Ccircumflex" unicode="&#x108;" horiz-adv-x="1337" 
d="M1036 1114q-92 37 -205 37q-173 0 -287 -114.5t-114 -319.5q0 -191 120.5 -312.5t313.5 -121.5q116 0 223 55q28 14 60 14q56 0 84 -49l49 -78q14 -25 14 -51q0 -53 -45 -86q-90 -62 -188.5 -87.5t-226.5 -25.5q-220 0 -391 92t-266 261t-95 389q0 124 30 235t91.5 204
t150 160t210.5 104.5t267 37.5q105 0 185.5 -19.5t163.5 -60.5q23 -10 36 -32.5t13 -47.5q0 -22 -10 -45l-45 -94q-24 -55 -89 -55q-22 0 -49 10zM782 1616l-174 -90q-26 -13 -47 -13q-63 0 -94 54q-16 26 -16 55q0 54 45 82l223 149q32 19 63 19q36 0 64 -19l233 -145
q43 -27 43 -80q0 -32 -18 -59q-38 -56 -96 -56q-26 0 -52 13z" />
    <glyph glyph-name="ccircumflex" unicode="&#x109;" horiz-adv-x="997" 
d="M729 623q-71 36 -141 36q-79 0 -139 -53t-60 -145q0 -89 62.5 -144t140.5 -55q73 0 143 45q29 19 58 19q40 0 63 -33l64 -84q16 -22 16 -49q0 -43 -33 -66q-147 -119 -330 -119q-234 0 -373 133.5t-139 352.5q0 134 60.5 244t173 175.5t254.5 65.5q97 0 170 -18t151 -68
q45 -28 45 -72q0 -20 -12 -38l-59 -99q-24 -41 -70 -41q-22 0 -45 13zM565 1153l-114 -90q-31 -25 -70 -25q-58 0 -88 43q-25 31 -25 70q0 54 45 90l164 133q42 31 90 31q53 0 92 -33l162 -131q41 -33 41 -90q0 -44 -24 -74q-34 -43 -88 -43q-42 0 -72 27z" />
    <glyph glyph-name="Cdotaccent" unicode="&#x10a;" horiz-adv-x="1337" 
d="M1036 1114q-92 37 -205 37q-173 0 -287 -114.5t-114 -319.5q0 -191 120.5 -312.5t313.5 -121.5q116 0 223 55q28 14 60 14q56 0 84 -49l49 -78q14 -25 14 -51q0 -53 -45 -86q-90 -62 -188.5 -87.5t-226.5 -25.5q-220 0 -391 92t-266 261t-95 389q0 124 30 235t91.5 204
t150 160t210.5 104.5t267 37.5q105 0 185.5 -19.5t163.5 -60.5q23 -10 36 -32.5t13 -47.5q0 -22 -10 -45l-45 -94q-24 -55 -89 -55q-22 0 -49 10zM582 1731q0 84 60 134t146 50q79 0 138 -50.5t59 -133.5q0 -91 -58.5 -144t-138.5 -53q-87 0 -146.5 52.5t-59.5 144.5z" />
    <glyph glyph-name="cdotaccent" unicode="&#x10b;" horiz-adv-x="997" 
d="M729 623q-71 36 -141 36q-79 0 -139 -53t-60 -145q0 -89 62.5 -144t140.5 -55q73 0 143 45q29 19 58 19q40 0 63 -33l64 -84q16 -22 16 -49q0 -43 -33 -66q-147 -119 -330 -119q-234 0 -373 133.5t-139 352.5q0 134 60.5 244t173 175.5t254.5 65.5q97 0 170 -18t151 -68
q45 -28 45 -72q0 -20 -12 -38l-59 -99q-24 -41 -70 -41q-22 0 -45 13zM369 1239q0 79 54 126.5t132 47.5q70 0 122 -48t52 -126q0 -86 -51.5 -136t-122.5 -50q-79 0 -132.5 49.5t-53.5 136.5z" />
    <glyph glyph-name="Ccaron" unicode="&#x10c;" horiz-adv-x="1337" 
d="M1036 1114q-92 37 -205 37q-173 0 -287 -114.5t-114 -319.5q0 -191 120.5 -312.5t313.5 -121.5q116 0 223 55q28 14 60 14q56 0 84 -49l49 -78q14 -25 14 -51q0 -53 -45 -86q-90 -62 -188.5 -87.5t-226.5 -25.5q-220 0 -391 92t-266 261t-95 389q0 124 30 235t91.5 204
t150 160t210.5 104.5t267 37.5q105 0 185.5 -19.5t163.5 -60.5q23 -10 36 -32.5t13 -47.5q0 -22 -10 -45l-45 -94q-24 -55 -89 -55q-22 0 -49 10zM793 1759l174 105q28 14 53 14q59 0 88 -47q14 -22 14 -55q0 -57 -45 -86l-200 -134q-38 -24 -86 -24q-49 0 -89 24l-204 130
q-45 28 -45 83q0 33 18 60q34 49 94 49q31 0 53 -14z" />
    <glyph glyph-name="ccaron" unicode="&#x10d;" horiz-adv-x="997" 
d="M729 623q-71 36 -141 36q-79 0 -139 -53t-60 -145q0 -89 62.5 -144t140.5 -55q73 0 143 45q29 19 58 19q40 0 63 -33l64 -84q16 -22 16 -49q0 -43 -33 -66q-147 -119 -330 -119q-234 0 -373 133.5t-139 352.5q0 134 60.5 244t173 175.5t254.5 65.5q97 0 170 -18t151 -68
q45 -28 45 -72q0 -20 -12 -38l-59 -99q-24 -41 -70 -41q-22 0 -45 13zM541 1292l114 90q31 25 72 25q53 0 88 -41q23 -33 23 -70q0 -59 -45 -92l-164 -133q-42 -31 -90 -31q-54 0 -93 33l-161 131q-41 33 -41 90q0 44 24 74q34 43 88 43q42 0 72 -27z" />
    <glyph glyph-name="Dcaron" unicode="&#x10e;" horiz-adv-x="1523" 
d="M279 1434q41 1 124 2.5t142.5 2.5t91.5 1q167 0 303 -37.5t228.5 -103t155 -156t90.5 -194t28 -220.5q0 -152 -52.5 -284t-152 -232.5t-258.5 -158.5t-358 -58q-56 0 -342 4q-39 0 -67 28t-28 68v1241q0 40 28.5 68.5t66.5 28.5zM512 1126v-819q43 -4 119 -4
q215 0 339 112t124 314q0 193 -127.5 298.5t-333.5 105.5q-73 0 -121 -7zM690 1759l174 105q28 14 54 14q59 0 88 -47q14 -22 14 -55q0 -57 -45 -86l-201 -134q-37 -24 -86 -24q-48 0 -88 24l-205 130q-45 28 -45 83q0 31 19 60q34 49 94 49q31 0 53 -14z" />
    <glyph glyph-name="dcaron" unicode="&#x10f;" horiz-adv-x="1140" 
d="M1028 1356v-1278q0 -32 -23 -55t-55 -23h-155q-31 0 -52.5 22t-21.5 54q-95 -92 -234 -92q-195 0 -310.5 127t-115.5 338q0 220 141.5 358.5t366.5 138.5q91 0 152 -28v438q0 32 23 55t55 23h151q32 0 55 -23t23 -55zM721 338v283q-65 38 -137 38q-79 0 -137 -52
t-58 -148q0 -88 49 -138.5t113 -50.5q95 0 170 68zM1217 997q-41 0 -70 23q-41 33 -41 82q0 39 20 78q35 72 35 155q0 51 24 75t75 24h124q29 0 46.5 -20.5t17.5 -43.5q0 -215 -154 -346q-30 -27 -77 -27z" />
    <glyph glyph-name="Dcroat" unicode="&#x110;" horiz-adv-x="1523" 
d="M621 -4q-56 0 -342 4q-39 0 -67 28t-28 68v473h-69q-38 0 -66.5 28.5t-28.5 66.5v98q0 38 28.5 66t66.5 28h69v481q0 40 28.5 68.5t66.5 28.5q41 1 124 2.5t142.5 2.5t91.5 1q167 0 303 -37.5t228.5 -103t155 -156t90.5 -194t28 -220.5q0 -152 -52.5 -284t-152 -232.5
t-258.5 -158.5t-358 -58zM512 569v-262q43 -4 119 -4q215 0 339 112t124 314q0 193 -127.5 298.5t-333.5 105.5q-73 0 -121 -7v-270h242q38 0 66 -28t28 -66v-98q0 -38 -28 -66.5t-66 -28.5h-242z" />
    <glyph glyph-name="dcroat" unicode="&#x111;" horiz-adv-x="1140" 
d="M61 449q0 220 141.5 358.5t366.5 138.5q91 0 152 -28v120h-135q-32 0 -55 23t-23 55v90q0 32 23 55t55 23h135v72q0 32 23 55t55 23h151q32 0 55 -23t23 -55v-72h55q32 0 55 -23t23 -55v-90q0 -32 -23 -55t-55 -23h-55v-960q0 -32 -23 -55t-55 -23h-155q-31 0 -52.5 22
t-21.5 54q-95 -92 -234 -92q-195 0 -310.5 127t-115.5 338zM721 338v283q-65 38 -137 38q-79 0 -137 -52t-58 -148q0 -88 49 -138.5t113 -50.5q95 0 170 68z" />
    <glyph glyph-name="Emacron" unicode="&#x112;" horiz-adv-x="1177" 
d="M1055 213v-119q0 -38 -28 -66t-66 -28h-682q-38 0 -66.5 28t-28.5 66v1245q0 38 28.5 66.5t66.5 28.5h661q38 0 66 -28.5t28 -66.5v-118q0 -38 -28 -66.5t-66 -28.5h-428v-252h367q38 0 66 -28t28 -66v-118q0 -38 -28 -66.5t-66 -28.5h-367v-260h449q38 0 66 -28t28 -66z
M930 1683v-49q0 -40 -29.5 -69t-69.5 -29h-446q-40 0 -69 29t-29 69v49q0 40 29 69.5t69 29.5h446q40 0 69.5 -29.5t29.5 -69.5z" />
    <glyph glyph-name="emacron" unicode="&#x113;" horiz-adv-x="1048" 
d="M932 358h-553q21 -63 78.5 -95t136.5 -32q92 0 166 27q21 8 45 8q51 0 72 -43l32 -65q9 -18 9 -37q0 -45 -37 -68q-82 -46 -154.5 -62t-165.5 -16q-227 0 -363.5 133.5t-136.5 352.5q0 134 61 244t176 175.5t263 65.5q119 0 220.5 -53t164 -153.5t62.5 -227.5
q0 -48 -7 -92q-3 -23 -24.5 -42.5t-44.5 -19.5zM700 563q0 51 -40 89t-109 38q-74 0 -116.5 -31.5t-65.5 -95.5h331zM842 1212v-49q0 -40 -29.5 -69t-69.5 -29h-405q-40 0 -69 29t-29 69v49q0 40 29 69.5t69 29.5h405q40 0 69.5 -29.5t29.5 -69.5z" />
    <glyph glyph-name="Edotaccent" unicode="&#x116;" horiz-adv-x="1177" 
d="M1055 213v-119q0 -38 -28 -66t-66 -28h-682q-38 0 -66.5 28t-28.5 66v1245q0 38 28.5 66.5t66.5 28.5h661q38 0 66 -28.5t28 -66.5v-118q0 -38 -28 -66.5t-66 -28.5h-428v-252h367q38 0 66 -28t28 -66v-118q0 -38 -28 -66.5t-66 -28.5h-367v-260h449q38 0 66 -28t28 -66z
M418 1731q0 83 60 133.5t147 50.5q79 0 137.5 -50.5t58.5 -133.5q0 -91 -58 -144t-138 -53q-87 0 -147 52.5t-60 144.5z" />
    <glyph glyph-name="edotaccent" unicode="&#x117;" horiz-adv-x="1048" 
d="M932 358h-553q21 -63 78.5 -95t136.5 -32q92 0 166 27q21 8 45 8q51 0 72 -43l32 -65q9 -18 9 -37q0 -45 -37 -68q-82 -46 -154.5 -62t-165.5 -16q-227 0 -363.5 133.5t-136.5 352.5q0 134 61 244t176 175.5t263 65.5q119 0 220.5 -53t164 -153.5t62.5 -227.5
q0 -48 -7 -92q-3 -23 -24.5 -42.5t-44.5 -19.5zM700 563q0 51 -40 89t-109 38q-74 0 -116.5 -31.5t-65.5 -95.5h331zM369 1239q0 79 54 126.5t132 47.5q70 0 122 -48t52 -126q0 -86 -51.5 -136t-122.5 -50q-79 0 -132.5 49.5t-53.5 136.5z" />
    <glyph glyph-name="Eogonek" unicode="&#x118;" horiz-adv-x="1177" 
d="M1055 213v-119q0 -38 -28 -66t-66 -28h-25q-67 0 -112.5 -37t-45.5 -74q0 -53 62 -53q18 0 44 5t42 5q62 0 90 -57q14 -32 14 -57q0 -58 -63 -97q-82 -45 -199 -45q-129 0 -213 49.5t-84 145.5q0 73 51 128t137 87h-380q-38 0 -66.5 28t-28.5 66v1245q0 38 28.5 66.5
t66.5 28.5h661q38 0 66 -28.5t28 -66.5v-118q0 -38 -28 -66.5t-66 -28.5h-428v-252h367q38 0 66 -28t28 -66v-118q0 -38 -28 -66.5t-66 -28.5h-367v-260h449q38 0 66 -28t28 -66z" />
    <glyph glyph-name="eogonek" unicode="&#x119;" horiz-adv-x="1048" 
d="M932 358h-553q21 -63 78.5 -95t136.5 -32q92 0 166 27q21 8 45 8q51 0 72 -43l32 -65q9 -18 9 -37q0 -45 -37 -68q-117 -67 -244 -76q-31 -17 -49.5 -41.5t-18.5 -46.5q0 -53 62 -53q31 0 44 -0.5t34 -3.5t31.5 -10t22 -20.5t19.5 -34.5q9 -21 9 -46q0 -71 -66 -100
q-72 -31 -166 -31q-129 0 -213 49.5t-84 145.5q0 68 44.5 120.5t121.5 84.5q-171 37 -269 162t-98 309q0 134 61 244t176 175.5t263 65.5q119 0 220.5 -53t164 -153.5t62.5 -227.5q0 -48 -7 -92q-3 -23 -24.5 -42.5t-44.5 -19.5zM700 563q0 51 -40 89t-109 38
q-74 0 -116.5 -31.5t-65.5 -95.5h331z" />
    <glyph glyph-name="Ecaron" unicode="&#x11a;" horiz-adv-x="1177" 
d="M1055 213v-119q0 -38 -28 -66t-66 -28h-682q-38 0 -66.5 28t-28.5 66v1245q0 38 28.5 66.5t66.5 28.5h661q38 0 66 -28.5t28 -66.5v-118q0 -38 -28 -66.5t-66 -28.5h-428v-252h367q38 0 66 -28t28 -66v-118q0 -38 -28 -66.5t-66 -28.5h-367v-260h449q38 0 66 -28t28 -66z
M629 1759l174 105q28 14 53 14q59 0 88 -47q14 -22 14 -55q0 -57 -45 -86l-200 -134q-38 -24 -86 -24q-47 0 -88 24l-205 130q-45 28 -45 83q0 33 18 60q34 49 94 49q32 0 54 -14z" />
    <glyph glyph-name="ecaron" unicode="&#x11b;" horiz-adv-x="1048" 
d="M932 358h-553q21 -63 78.5 -95t136.5 -32q92 0 166 27q21 8 45 8q51 0 72 -43l32 -65q9 -18 9 -37q0 -45 -37 -68q-82 -46 -154.5 -62t-165.5 -16q-227 0 -363.5 133.5t-136.5 352.5q0 134 61 244t176 175.5t263 65.5q119 0 220.5 -53t164 -153.5t62.5 -227.5
q0 -48 -7 -92q-3 -23 -24.5 -42.5t-44.5 -19.5zM700 563q0 51 -40 89t-109 38q-74 0 -116.5 -31.5t-65.5 -95.5h331zM561 1292l115 90q31 25 72 25q53 0 88 -41q22 -31 22 -70q0 -59 -45 -92l-164 -133q-42 -31 -90 -31q-53 0 -92 33l-162 131q-41 33 -41 90q0 43 25 74
q34 43 88 43q42 0 72 -27z" />
    <glyph glyph-name="Gcircumflex" unicode="&#x11c;" horiz-adv-x="1488" 
d="M430 717q0 -198 116 -316t308 -118q61 0 129.5 23t95.5 48v156h-211q-38 0 -66 28t-28 66v119q0 38 28 66t66 28h424q38 0 66 -28t28 -66v-483q0 -71 -55 -109q-96 -72 -228.5 -114t-252.5 -42q-182 0 -327 53t-241.5 150.5t-148 234.5t-51.5 304q0 154 51 289.5
t143 235.5t230 158t303 58q128 0 218 -19.5t173 -64.5q57 -31 57 -88q0 -24 -12 -45l-55 -98q-30 -53 -86 -53q-25 0 -49 12q-100 49 -207 49q-121 0 -213.5 -46t-148.5 -145.5t-56 -242.5zM782 1616l-174 -90q-26 -13 -47 -13q-63 0 -94 54q-16 26 -16 55q0 54 45 82
l223 149q32 19 63 19q36 0 64 -19l233 -145q43 -27 43 -80q0 -32 -18 -59q-38 -56 -96 -56q-26 0 -52 13z" />
    <glyph glyph-name="gcircumflex" unicode="&#x11d;" horiz-adv-x="1044" 
d="M518 223q0 -17 6 -35q131 -4 230.5 -36.5t162 -102t62.5 -168.5q0 -103 -68 -173.5t-175.5 -102t-246.5 -31.5q-104 0 -190 17.5t-154.5 53.5t-106.5 96t-38 140q0 115 82 188.5t223 102.5q-12 24 -12 51q0 31 14 53q-107 42 -167 127.5t-60 188.5q0 145 111.5 249.5
t295.5 104.5q137 0 236 -61l209 43q3 0 8 1t8 1q28 0 50 -18t28 -46l16 -82q0 -3 1 -8t1 -8q0 -28 -17.5 -50t-45.5 -28l-96 -20q10 -45 10 -78q0 -136 -103 -236t-272 -110q-2 -8 -2 -23zM287 -119q0 -61 202 -61q203 0 203 61q0 64 -203 64q-101 0 -151.5 -17.5
t-50.5 -46.5zM367 592q0 -44 31.5 -72t88.5 -28q54 0 87.5 26t33.5 74q0 46 -30.5 77t-90.5 31q-56 0 -88 -32t-32 -76zM500 1153l-115 -90q-31 -25 -70 -25q-58 0 -88 43q-24 30 -24 70q0 54 45 90l164 133q42 31 90 31q53 0 92 -33l162 -131q41 -33 41 -90q0 -43 -25 -74
q-34 -43 -88 -43q-42 0 -72 27z" />
    <glyph glyph-name="Gbreve" unicode="&#x11e;" horiz-adv-x="1488" 
d="M430 717q0 -198 116 -316t308 -118q61 0 129.5 23t95.5 48v156h-211q-38 0 -66 28t-28 66v119q0 38 28 66t66 28h424q38 0 66 -28t28 -66v-483q0 -71 -55 -109q-96 -72 -228.5 -114t-252.5 -42q-182 0 -327 53t-241.5 150.5t-148 234.5t-51.5 304q0 154 51 289.5
t143 235.5t230 158t303 58q128 0 218 -19.5t173 -64.5q57 -31 57 -88q0 -24 -12 -45l-55 -98q-30 -53 -86 -53q-25 0 -49 12q-100 49 -207 49q-121 0 -213.5 -46t-148.5 -145.5t-56 -242.5zM618 1823q94 -62 222 -62q127 0 221 62q42 28 78 28q41 0 78 -34q32 -28 32 -78
q0 -39 -22 -64q-156 -180 -387 -180t-387 180q-23 26 -23 64q0 49 33 78q37 34 78 34q35 0 77 -28z" />
    <glyph glyph-name="gbreve" unicode="&#x11f;" horiz-adv-x="1044" 
d="M518 223q0 -17 6 -35q131 -4 230.5 -36.5t162 -102t62.5 -168.5q0 -103 -68 -173.5t-175.5 -102t-246.5 -31.5q-104 0 -190 17.5t-154.5 53.5t-106.5 96t-38 140q0 115 82 188.5t223 102.5q-12 24 -12 51q0 31 14 53q-107 42 -167 127.5t-60 188.5q0 145 111.5 249.5
t295.5 104.5q137 0 236 -61l209 43q3 0 8 1t8 1q28 0 50 -18t28 -46l16 -82q0 -3 1 -8t1 -8q0 -28 -17.5 -50t-45.5 -28l-96 -20q10 -45 10 -78q0 -136 -103 -236t-272 -110q-2 -8 -2 -23zM287 -119q0 -61 202 -61q203 0 203 61q0 64 -203 64q-101 0 -151.5 -17.5
t-50.5 -46.5zM367 592q0 -44 31.5 -72t88.5 -28q54 0 87.5 26t33.5 74q0 46 -30.5 77t-90.5 31q-56 0 -88 -32t-32 -76zM352 1333q64 -43 146 -43q81 0 145 43q47 31 84 31q41 0 74 -33q28 -28 28 -69t-26 -70q-138 -150 -305 -150t-305 150q-27 30 -27 70t29 69
q33 33 73 33q38 0 84 -31z" />
    <glyph glyph-name="Gdotaccent" unicode="&#x120;" horiz-adv-x="1488" 
d="M430 717q0 -198 116 -316t308 -118q61 0 129.5 23t95.5 48v156h-211q-38 0 -66 28t-28 66v119q0 38 28 66t66 28h424q38 0 66 -28t28 -66v-483q0 -71 -55 -109q-96 -72 -228.5 -114t-252.5 -42q-182 0 -327 53t-241.5 150.5t-148 234.5t-51.5 304q0 154 51 289.5
t143 235.5t230 158t303 58q128 0 218 -19.5t173 -64.5q57 -31 57 -88q0 -24 -12 -45l-55 -98q-30 -53 -86 -53q-25 0 -49 12q-100 49 -207 49q-121 0 -213.5 -46t-148.5 -145.5t-56 -242.5zM561 1731q0 83 60 133.5t147 50.5q79 0 138 -50.5t59 -133.5q0 -91 -58.5 -144
t-138.5 -53q-87 0 -147 52.5t-60 144.5z" />
    <glyph glyph-name="gdotaccent" unicode="&#x121;" horiz-adv-x="1044" 
d="M518 223q0 -17 6 -35q131 -4 230.5 -36.5t162 -102t62.5 -168.5q0 -103 -68 -173.5t-175.5 -102t-246.5 -31.5q-104 0 -190 17.5t-154.5 53.5t-106.5 96t-38 140q0 115 82 188.5t223 102.5q-12 24 -12 51q0 31 14 53q-107 42 -167 127.5t-60 188.5q0 145 111.5 249.5
t295.5 104.5q137 0 236 -61l209 43q3 0 8 1t8 1q28 0 50 -18t28 -46l16 -82q0 -3 1 -8t1 -8q0 -28 -17.5 -50t-45.5 -28l-96 -20q10 -45 10 -78q0 -136 -103 -236t-272 -110q-2 -8 -2 -23zM287 -119q0 -61 202 -61q203 0 203 61q0 64 -203 64q-101 0 -151.5 -17.5
t-50.5 -46.5zM367 592q0 -44 31.5 -72t88.5 -28q54 0 87.5 26t33.5 74q0 46 -30.5 77t-90.5 31q-56 0 -88 -32t-32 -76zM307 1239q0 79 54.5 126.5t132.5 47.5q70 0 122 -48t52 -126q0 -86 -51.5 -136t-122.5 -50q-79 0 -133 49.5t-54 136.5z" />
    <glyph glyph-name="Gcommaaccent" unicode="&#x122;" horiz-adv-x="1488" 
d="M430 717q0 -198 116 -316t308 -118q61 0 129.5 23t95.5 48v156h-211q-38 0 -66 28t-28 66v119q0 38 28 66t66 28h424q38 0 66 -28t28 -66v-483q0 -71 -55 -109q-96 -72 -228.5 -114t-252.5 -42q-182 0 -327 53t-241.5 150.5t-148 234.5t-51.5 304q0 154 51 289.5
t143 235.5t230 158t303 58q128 0 218 -19.5t173 -64.5q57 -31 57 -88q0 -24 -12 -45l-55 -98q-30 -53 -86 -53q-25 0 -49 12q-100 49 -207 49q-121 0 -213.5 -46t-148.5 -145.5t-56 -242.5zM721 -418q-52 0 -74 31q-20 26 -20 53q0 36 39 78q26 30 26 82q0 45 12 63t50 25
l168 33h10q27 0 47 -21.5t20 -66.5q0 -95 -68.5 -167t-164.5 -104q-18 -6 -45 -6z" />
    <glyph glyph-name="gcommaaccent" unicode="&#x123;" horiz-adv-x="1044" 
d="M518 223q0 -17 6 -35q131 -4 230.5 -36.5t162 -102t62.5 -168.5q0 -103 -68 -173.5t-175.5 -102t-246.5 -31.5q-104 0 -190 17.5t-154.5 53.5t-106.5 96t-38 140q0 115 82 188.5t223 102.5q-12 24 -12 51q0 31 14 53q-107 42 -167 127.5t-60 188.5q0 145 111.5 249.5
t295.5 104.5q137 0 236 -61l209 43q3 0 8 1t8 1q28 0 50 -18t28 -46l16 -82q0 -3 1 -8t1 -8q0 -28 -17.5 -50t-45.5 -28l-96 -20q10 -45 10 -78q0 -136 -103 -236t-272 -110q-2 -8 -2 -23zM287 -119q0 -61 202 -61q203 0 203 61q0 64 -203 64q-101 0 -151.5 -17.5
t-50.5 -46.5zM367 592q0 -44 31.5 -72t88.5 -28q54 0 87.5 26t33.5 74q0 46 -30.5 77t-90.5 31q-56 0 -88 -32t-32 -76zM594 1436q52 0 74 -31q20 -26 20 -53q0 -36 -39 -78q-26 -30 -26 -82q0 -45 -12 -63t-50 -25l-168 -33h-10q-27 0 -47.5 21.5t-20.5 66.5q0 94 69 166
t165 105q18 6 45 6z" />
    <glyph glyph-name="Hcircumflex" unicode="&#x124;" horiz-adv-x="1546" 
d="M1362 1339v-1245q0 -38 -28 -66t-66 -28h-140q-38 0 -66 28t-28 66v484h-522v-484q0 -38 -28 -66t-66 -28h-139q-38 0 -66.5 28t-28.5 66v1245q0 38 28.5 66.5t66.5 28.5h139q38 0 66 -28.5t28 -66.5v-454h522v454q0 38 28 66.5t66 28.5h140q38 0 66 -28.5t28 -66.5z
M772 1616l-174 -90q-26 -13 -47 -13q-63 0 -94 54q-17 27 -17 55q0 54 45 82l224 149q32 19 63 19q35 0 64 -19l233 -145q43 -27 43 -80q0 -32 -18 -59q-38 -56 -97 -56q-25 0 -51 13z" />
    <glyph glyph-name="hcircumflex" unicode="&#x125;" horiz-adv-x="1114" 
d="M420 592v-514q0 -32 -23 -55t-55 -23h-152q-32 0 -54.5 23t-22.5 55v1278q0 32 22.5 55t54.5 23h152q32 0 55 -23t23 -55v-498q90 80 227 80q83 0 149 -22t118 -68t80 -124t28 -183v-463q0 -32 -23 -55t-55 -23h-151q-32 0 -55 23t-23 55v424q0 68 -41.5 108.5
t-106.5 40.5q-88 0 -147 -59zM301 1616l-174 -90q-26 -13 -47 -13q-63 0 -94 54q-17 27 -17 55q0 54 45 82l224 149q32 19 63 19q35 0 64 -19l233 -145q43 -27 43 -80q0 -32 -18 -59q-38 -56 -97 -56q-25 0 -51 13z" />
    <glyph glyph-name="Hbar" unicode="&#x126;" horiz-adv-x="1566" 
d="M428 0h-139q-38 0 -66 28t-28 66v924h-60q-38 0 -66 28t-28 66v98q0 38 28 66.5t66 28.5h60v34q0 38 28 66.5t66 28.5h139q38 0 66 -28.5t28 -66.5v-34h522v34q0 38 28.5 66.5t66.5 28.5h139q38 0 66 -28.5t28 -66.5v-34h60q38 0 66 -28.5t28 -66.5v-98q0 -38 -28 -66
t-66 -28h-60v-924q0 -38 -28 -66t-66 -28h-139q-38 0 -66.5 28t-28.5 66v484h-522v-484q0 -38 -28 -66t-66 -28zM1044 885v133h-522v-133h522z" />
    <glyph glyph-name="hbar" unicode="&#x127;" horiz-adv-x="1216" 
d="M444 0h-151q-32 0 -55 23t-23 55v926h-117q-32 0 -55 22.5t-23 54.5v131q0 32 23 55t55 23h117v66q0 32 23 55t55 23h151q32 0 55 -23t23 -55v-66h197q32 0 55 -23t23 -55v-131q0 -32 -23 -54.5t-55 -22.5h-197v-146q90 80 228 80q171 0 272.5 -95.5t101.5 -301.5v-463
q0 -32 -22.5 -55t-54.5 -23h-152q-32 0 -55 23t-23 55v424q0 68 -41 108.5t-106 40.5q-89 0 -148 -59v-514q0 -32 -23 -55t-55 -23z" />
    <glyph glyph-name="Imacron" unicode="&#x12a;" horiz-adv-x="737" 
d="M532 1339v-1245q0 -38 -28 -66t-66 -28h-139q-38 0 -66 28t-28 66v1245q0 38 28 66.5t66 28.5h139q38 0 66 -28.5t28 -66.5zM700 1683v-49q0 -40 -29 -69t-69 -29h-446q-40 0 -69.5 29t-29.5 69v49q0 40 29.5 69.5t69.5 29.5h446q40 0 69 -29.5t29 -69.5z" />
    <glyph glyph-name="imacron" unicode="&#x12b;" horiz-adv-x="585" 
d="M446 844v-766q0 -32 -22.5 -55t-54.5 -23h-152q-32 0 -55 23t-23 55v766q0 32 23 55t55 23h152q32 0 54.5 -23t22.5 -55zM594 1212v-49q0 -40 -29 -69t-69 -29h-406q-40 0 -69 29t-29 69v49q0 40 29 69.5t69 29.5h406q40 0 69 -29.5t29 -69.5z" />
    <glyph glyph-name="Iogonek" unicode="&#x12e;" horiz-adv-x="737" 
d="M532 1339v-1245q0 -38 -28 -66t-66 -28h-22q-67 0 -112.5 -37t-45.5 -74q0 -53 61 -53q18 0 44.5 5t42.5 5q62 0 90 -57q14 -32 14 -57q0 -57 -64 -97q-82 -45 -198 -45q-129 0 -213 49.5t-84 145.5q0 92 78 153.5t202 88.5q-26 29 -26 67v1245q0 38 28 66.5t66 28.5h139
q38 0 66 -28.5t28 -66.5z" />
    <glyph glyph-name="iogonek" unicode="&#x12f;" horiz-adv-x="585" 
d="M446 844v-766q0 -32 -22.5 -55t-54.5 -23h-35q-61 -4 -102.5 -40t-41.5 -71q0 -53 62 -53q31 0 44 -0.5t34 -3.5t31.5 -10t22 -20.5t19.5 -34.5q9 -21 9 -46q0 -71 -66 -100q-72 -31 -166 -31q-129 0 -213 49.5t-84 145.5q0 90 77 151t200 89q-21 21 -21 53v766
q0 32 23 55t55 23h152q32 0 54.5 -23t22.5 -55zM113 1239q0 79 54 126.5t132 47.5q70 0 122 -48t52 -126q0 -86 -51.5 -136t-122.5 -50q-79 0 -132.5 49.5t-53.5 136.5z" />
    <glyph glyph-name="Idotaccent" unicode="&#x130;" horiz-adv-x="737" 
d="M532 1339v-1245q0 -38 -28 -66t-66 -28h-139q-38 0 -66 28t-28 66v1245q0 38 28 66.5t66 28.5h139q38 0 66 -28.5t28 -66.5zM168 1731q0 83 60 133.5t147 50.5q79 0 137.5 -50.5t58.5 -133.5q0 -91 -58 -144t-138 -53q-87 0 -147 52.5t-60 144.5z" />
    <glyph glyph-name="dotlessi" unicode="&#x131;" horiz-adv-x="585" 
d="M446 844v-766q0 -32 -22.5 -55t-54.5 -23h-152q-32 0 -55 23t-23 55v766q0 32 23 55t55 23h152q32 0 54.5 -23t22.5 -55z" />
    <glyph glyph-name="Jcircumflex" unicode="&#x134;" horiz-adv-x="833" 
d="M322 410v929q0 38 28 66.5t66 28.5h139q38 0 66 -28.5t28 -66.5v-989q0 -183 -98 -279t-281 -96q-121 0 -223 52q-53 26 -53 77q0 23 12 50l37 84q25 57 80 57q23 0 47 -6q23 -6 45 -6h10q44 0 70.5 33t26.5 94zM481 1616l-174 -90q-26 -13 -47 -13q-63 0 -94 54
q-16 26 -16 55q0 54 45 82l223 149q32 19 63 19q35 0 64 -19l233 -145q43 -27 43 -80q0 -32 -18 -59q-38 -56 -96 -56q-26 0 -52 13z" />
    <glyph glyph-name="jcircumflex" unicode="&#x135;" horiz-adv-x="581" 
d="M162 -39v883q0 32 23 55t55 23h151q32 0 55 -23t23 -55v-912q0 -358 -289 -358q-102 0 -190 33q-51 16 -51 71q0 7 4 27l34 109q17 51 66 51q17 0 25 -2q20 -4 36 -4q58 0 58 102zM315 1153l-114 -90q-31 -25 -70 -25q-58 0 -88 43q-25 31 -25 70q0 54 45 90l164 133
q42 31 90 31q54 0 93 -33l161 -131q41 -33 41 -90q0 -44 -24 -74q-34 -43 -88 -43q-42 0 -72 27z" />
    <glyph glyph-name="Kcommaaccent" unicode="&#x136;" horiz-adv-x="1409" 
d="M512 682v-588q0 -38 -28 -66t-66 -28h-139q-38 0 -66.5 28t-28.5 66v1245q0 38 28.5 66.5t66.5 28.5h139q38 0 66 -28.5t28 -66.5v-530l426 567q20 26 51.5 42t63.5 16h135q39 0 64.5 -26.5t25.5 -61.5q0 -31 -21 -58l-421 -516l469 -622q20 -26 20 -58q0 -36 -27 -64
t-67 -28h-158q-33 0 -64 16t-51 43zM598 -418q-52 0 -74 31q-20 26 -20 53q0 36 39 78q26 30 26 82q0 45 12 63t50 25l168 33h10q27 0 47.5 -21.5t20.5 -66.5q0 -94 -69 -166t-165 -105q-18 -6 -45 -6z" />
    <glyph glyph-name="kcommaaccent" unicode="&#x137;" horiz-adv-x="1093" 
d="M420 440v-362q0 -32 -23 -55t-55 -23h-152q-32 0 -54.5 23t-22.5 55v1278q0 32 22.5 55t54.5 23h152q32 0 55 -23t23 -55v-834l219 346q33 54 94 54h166q34 0 58 -24t24 -56q0 -25 -16 -47l-207 -289l254 -377q14 -20 14 -47q0 -33 -24 -57.5t-60 -24.5h-174
q-28 0 -54.5 14.5t-41.5 38.5zM408 -418q-52 0 -74 31q-21 27 -21 53q0 36 39 78q27 31 27 82q0 45 11.5 63t49.5 25l168 33h10q27 0 47.5 -21.5t20.5 -66.5q0 -95 -68.5 -167t-164.5 -104q-18 -6 -45 -6z" />
    <glyph glyph-name="Lacute" unicode="&#x139;" horiz-adv-x="1116" 
d="M1096 213v-119q0 -38 -28.5 -66t-66.5 -28h-722q-38 0 -66.5 28t-28.5 66v1245q0 38 28.5 66.5t66.5 28.5h139q38 0 66 -28.5t28 -66.5v-1032h489q38 0 66.5 -28t28.5 -66zM451 1718l303 152q18 10 41 10q28 0 52 -14.5t34 -40.5l37 -84q8 -20 8 -35q0 -29 -17.5 -53
t-46.5 -31l-321 -102q-21 -7 -37 -7q-33 0 -60.5 16.5t-40.5 45.5q-10 27 -10 47q0 31 16 56.5t42 39.5z" />
    <glyph glyph-name="lacute" unicode="&#x13a;" horiz-adv-x="632" 
d="M113 264v1092q0 32 22.5 55t54.5 23h152q32 0 55 -23t23 -55v-975q0 -66 11.5 -92.5t45.5 -26.5q3 0 22 1t33 1q27 0 41 -11t23 -38l29 -90q4 -12 4 -31q0 -55 -56 -74q-113 -45 -219 -45q-241 0 -241 289zM236 1718l303 152q17 10 41 10q28 0 52 -14.5t34 -40.5l36 -84
q9 -22 9 -35q0 -29 -17.5 -53t-46.5 -31l-321 -102q-21 -7 -37 -7q-33 0 -60.5 16.5t-40.5 45.5q-10 27 -10 47q0 31 16 56.5t42 39.5z" />
    <glyph glyph-name="Lcommaaccent" unicode="&#x13b;" horiz-adv-x="1116" 
d="M1096 213v-119q0 -38 -28.5 -66t-66.5 -28h-722q-38 0 -66.5 28t-28.5 66v1245q0 38 28.5 66.5t66.5 28.5h139q38 0 66 -28.5t28 -66.5v-1032h489q38 0 66.5 -28t28.5 -66zM516 -418q-52 0 -74 31q-20 26 -20 53q0 36 39 78q26 30 26 82q0 45 12 63t50 25l168 33h10
q27 0 47.5 -21.5t20.5 -66.5q0 -94 -69 -166t-165 -105q-18 -6 -45 -6z" />
    <glyph glyph-name="lcommaaccent" unicode="&#x13c;" horiz-adv-x="632" 
d="M113 264v1092q0 32 22.5 55t54.5 23h152q32 0 55 -23t23 -55v-975q0 -66 11.5 -92.5t45.5 -26.5q3 0 22 1t33 1q27 0 41 -11t23 -38l29 -90q4 -12 4 -31q0 -55 -56 -74q-113 -45 -219 -45q-241 0 -241 289zM260 -418q-52 0 -74 31q-20 26 -20 53q0 36 39 78q26 30 26 82
q0 45 12 63t50 25l168 33h10q27 0 47.5 -21.5t20.5 -66.5q0 -94 -69 -166t-165 -105q-18 -6 -45 -6z" />
    <glyph glyph-name="Lcaron" unicode="&#x13d;" horiz-adv-x="1116" 
d="M1096 213v-119q0 -38 -28.5 -66t-66.5 -28h-722q-38 0 -66.5 28t-28.5 66v1245q0 38 28.5 66.5t66.5 28.5h139q38 0 66 -28.5t28 -66.5v-1032h489q38 0 66.5 -28t28.5 -66zM807 997q-41 0 -70 23q-41 33 -41 82q0 38 21 78q35 72 35 155q0 51 23.5 75t74.5 24h125
q28 0 45.5 -20.5t17.5 -43.5q0 -215 -153 -346q-30 -27 -78 -27z" />
    <glyph glyph-name="lcaron" unicode="&#x13e;" horiz-adv-x="632" 
d="M113 264v1092q0 32 22.5 55t54.5 23h152q32 0 55 -23t23 -55v-975q0 -66 11.5 -92.5t45.5 -26.5q3 0 22 1t33 1q27 0 41 -11t23 -38l29 -90q4 -12 4 -31q0 -55 -56 -74q-113 -45 -219 -45q-241 0 -241 289zM623 997q-41 0 -70 23q-41 33 -41 82q0 39 20 78q35 72 35 155
q0 51 24 75t75 24h125q28 0 45.5 -20.5t17.5 -43.5q0 -215 -154 -346q-30 -27 -77 -27z" />
    <glyph glyph-name="Ldot" unicode="&#x13f;" horiz-adv-x="1116" 
d="M1096 213v-119q0 -38 -28.5 -66t-66.5 -28h-722q-38 0 -66.5 28t-28.5 66v1245q0 38 28.5 66.5t66.5 28.5h139q38 0 66 -28.5t28 -66.5v-1032h489q38 0 66.5 -28t28.5 -66zM705 770q0 74 57.5 133.5t150.5 59.5q82 0 137.5 -60t55.5 -133q0 -85 -54.5 -147t-138.5 -62
q-94 0 -151 61.5t-57 147.5z" />
    <glyph glyph-name="ldot" unicode="&#x140;" horiz-adv-x="772" 
d="M113 264v1092q0 32 22.5 55t54.5 23h152q32 0 55 -23t23 -55v-975q0 -66 11.5 -92.5t45.5 -26.5q3 0 22 1t33 1q27 0 41 -11t23 -38l29 -90q4 -12 4 -31q0 -55 -56 -74q-113 -45 -219 -45q-241 0 -241 289zM473 717q0 79 54 126.5t132 47.5q70 0 122.5 -48t52.5 -126
q0 -86 -52 -136.5t-123 -50.5q-79 0 -132.5 50t-53.5 137z" />
    <glyph glyph-name="Lslash" unicode="&#x141;" horiz-adv-x="1120" 
d="M1022 0h-723q-38 0 -66 28t-28 66v371l-27 -14q-18 -9 -41 -9q-27 0 -50.5 14t-35.5 40l-39 79q-8 16 -8 41q0 27 14 50.5t39 35.5l148 72v565q0 38 28 66.5t66 28.5h139q38 0 66 -28.5t28 -66.5v-419l175 75q18 9 38 9q28 0 52 -15t34 -41l39 -86q9 -18 9 -39
q0 -27 -15 -51.5t-41 -34.5l-291 -133v-297h490q38 0 66 -28t28 -66v-119q0 -38 -28 -66t-66 -28z" />
    <glyph glyph-name="lslash" unicode="&#x142;" horiz-adv-x="694" 
d="M156 264v166l-21 -8q-20 -8 -33 -8q-48 0 -71 47l-51 119q-9 22 -9 32q0 49 47 72l138 61v611q0 32 22.5 55t54.5 23h152q32 0 55 -23t23 -55v-475l53 22q15 6 31 6q22 0 42 -13t29 -34l52 -119q6 -15 6 -30q0 -22 -13 -42.5t-34 -29.5l-166 -74v-186q0 -66 11.5 -92.5
t45.5 -26.5q3 0 22 1t33 1q27 0 41 -11t23 -38l29 -90q4 -12 4 -31q0 -55 -56 -74q-113 -45 -219 -45q-241 0 -241 289z" />
    <glyph glyph-name="Nacute" unicode="&#x143;" horiz-adv-x="1617" 
d="M1221 1434h118q38 0 66.5 -28.5t28.5 -66.5v-1245q0 -38 -28.5 -66t-66.5 -28h-96q-33 0 -65 15.5t-52 41.5l-634 803v-766q0 -38 -28.5 -66t-66.5 -28h-118q-38 0 -66.5 28t-28.5 66v1245q0 38 28.5 66.5t66.5 28.5h96q32 0 64.5 -16t52.5 -42l634 -807v770
q0 38 28.5 66.5t66.5 28.5zM717 1718l303 152q17 10 41 10q28 0 52 -14.5t34 -40.5l37 -84q8 -20 8 -35q0 -29 -17.5 -53t-46.5 -31l-321 -102q-21 -7 -37 -7q-33 0 -60 16.5t-40 45.5q-11 29 -11 47q0 31 16 56.5t42 39.5z" />
    <glyph glyph-name="nacute" unicode="&#x144;" horiz-adv-x="1114" 
d="M420 588v-510q0 -32 -23 -55t-55 -23h-152q-32 0 -54.5 23t-22.5 55v766q0 32 22.5 55t54.5 23h160q29 0 49.5 -20.5t20.5 -49.5q40 37 99.5 61.5t127.5 24.5q83 0 149 -20.5t118 -65t80 -121.5t28 -182v-471q0 -32 -23 -55t-55 -23h-151q-32 0 -55 23t-23 55v418
q0 77 -41 116t-111 39q-80 0 -143 -63zM461 1251l100 168q27 47 82 47q36 0 59 -20l68 -51q39 -29 39 -80q0 -38 -25 -66l-125 -139q-36 -39 -88 -39q-37 0 -73 25q-54 39 -54 98q0 26 17 57z" />
    <glyph glyph-name="Ncommaaccent" unicode="&#x145;" horiz-adv-x="1617" 
d="M1221 1434h118q38 0 66.5 -28.5t28.5 -66.5v-1245q0 -38 -28.5 -66t-66.5 -28h-96q-33 0 -65 15.5t-52 41.5l-634 803v-766q0 -38 -28.5 -66t-66.5 -28h-118q-38 0 -66.5 28t-28.5 66v1245q0 38 28.5 66.5t66.5 28.5h96q32 0 64.5 -16t52.5 -42l634 -807v770
q0 38 28.5 66.5t66.5 28.5zM700 -418q-51 0 -73 31q-21 27 -21 53q0 36 39 78q27 31 27 82q0 45 11.5 63t49.5 25l168 33h10q27 0 47.5 -21.5t20.5 -66.5q0 -94 -69 -166t-165 -105q-18 -6 -45 -6z" />
    <glyph glyph-name="ncommaaccent" unicode="&#x146;" horiz-adv-x="1114" 
d="M420 588v-510q0 -32 -23 -55t-55 -23h-152q-32 0 -54.5 23t-22.5 55v766q0 32 22.5 55t54.5 23h160q29 0 49.5 -20.5t20.5 -49.5q40 37 99.5 61.5t127.5 24.5q83 0 149 -20.5t118 -65t80 -121.5t28 -182v-471q0 -32 -23 -55t-55 -23h-151q-32 0 -55 23t-23 55v418
q0 77 -41 116t-111 39q-80 0 -143 -63zM436 -418q-52 0 -74 31q-20 26 -20 53q0 36 39 78q27 31 27 82q0 45 11.5 63t49.5 25l168 33h10q27 0 47.5 -21.5t20.5 -66.5q0 -94 -69 -166t-165 -105q-18 -6 -45 -6z" />
    <glyph glyph-name="Ncaron" unicode="&#x147;" horiz-adv-x="1617" 
d="M1221 1434h118q38 0 66.5 -28.5t28.5 -66.5v-1245q0 -38 -28.5 -66t-66.5 -28h-96q-33 0 -65 15.5t-52 41.5l-634 803v-766q0 -38 -28.5 -66t-66.5 -28h-118q-38 0 -66.5 28t-28.5 66v1245q0 38 28.5 66.5t66.5 28.5h96q32 0 64.5 -16t52.5 -42l634 -807v770
q0 38 28.5 66.5t66.5 28.5zM817 1759l174 105q28 14 53 14q27 0 51.5 -13t37.5 -34q14 -22 14 -55q0 -57 -45 -86l-201 -134q-37 -24 -86 -24q-47 0 -88 24l-205 130q-45 28 -45 83q0 31 19 60q34 49 94 49q31 0 53 -14z" />
    <glyph glyph-name="ncaron" unicode="&#x148;" horiz-adv-x="1114" 
d="M420 588v-510q0 -32 -23 -55t-55 -23h-152q-32 0 -54.5 23t-22.5 55v766q0 32 22.5 55t54.5 23h160q29 0 49.5 -20.5t20.5 -49.5q40 37 99.5 61.5t127.5 24.5q83 0 149 -20.5t118 -65t80 -121.5t28 -182v-471q0 -32 -23 -55t-55 -23h-151q-32 0 -55 23t-23 55v418
q0 77 -41 116t-111 39q-80 0 -143 -63zM557 1292l115 90q31 25 71 25q53 0 88 -41q23 -33 23 -70q0 -59 -45 -92l-164 -133q-42 -31 -90 -31q-53 0 -92 33l-162 131q-41 33 -41 90q0 43 25 74q34 43 88 43q41 0 71 -27z" />
    <glyph glyph-name="Omacron" unicode="&#x14c;" horiz-adv-x="1687" 
d="M82 717q0 155 55.5 291t153.5 235.5t241.5 157t311.5 57.5q218 0 390.5 -89t272 -258.5t99.5 -393.5q0 -160 -58 -298.5t-159 -235.5t-242 -152.5t-303 -55.5q-163 0 -303 52t-241.5 147t-159.5 235t-58 308zM430 717q0 -183 120.5 -308.5t293.5 -125.5q132 0 227 58.5
t140.5 155.5t45.5 220q0 193 -118 313.5t-295 120.5q-181 0 -297.5 -120t-116.5 -314zM1186 1683v-49q0 -40 -29.5 -69t-69.5 -29h-446q-40 0 -69 29t-29 69v49q0 40 29 69.5t69 29.5h446q40 0 69.5 -29.5t29.5 -69.5z" />
    <glyph glyph-name="omacron" unicode="&#x14d;" horiz-adv-x="1146" 
d="M61 461q0 211 140 348t372 137t372 -137t140 -348t-140 -348.5t-372 -137.5t-372 137.5t-140 348.5zM389 461q0 -87 52.5 -143t131.5 -56q80 0 132.5 54t52.5 145q0 88 -53.5 143t-131.5 55q-77 0 -130.5 -54t-53.5 -144zM895 1212v-49q0 -40 -29 -69t-69 -29h-406
q-40 0 -69 29t-29 69v49q0 40 29 69.5t69 29.5h406q40 0 69 -29.5t29 -69.5z" />
    <glyph glyph-name="Ohungarumlaut" unicode="&#x150;" horiz-adv-x="1687" 
d="M82 717q0 155 55.5 291t153.5 235.5t241.5 157t311.5 57.5q218 0 390.5 -89t272 -258.5t99.5 -393.5q0 -160 -58 -298.5t-159 -235.5t-242 -152.5t-303 -55.5q-163 0 -303 52t-241.5 147t-159.5 235t-58 308zM430 717q0 -183 120.5 -308.5t293.5 -125.5q132 0 227 58.5
t140.5 155.5t45.5 220q0 193 -118 313.5t-295 120.5q-181 0 -297.5 -120t-116.5 -314zM946 1679l195 176q28 25 67 25q36 0 64 -25l86 -73q20 -17 20 -47q0 -39 -32 -56l-263 -145q-36 -18 -65 -18q-51 0 -78 34q-22 25 -22 62q0 39 28 67zM549 1683l108 158q28 45 84 45
q22 0 45 -10l107 -55q33 -14 33 -52q0 -27 -21 -45l-207 -176q-25 -22 -65 -22q-39 0 -72 26q-31 31 -31 72q0 30 19 59z" />
    <glyph glyph-name="ohungarumlaut" unicode="&#x151;" horiz-adv-x="1146" 
d="M61 461q0 211 140 348t372 137t372 -137t140 -348t-140 -348.5t-372 -137.5t-372 137.5t-140 348.5zM389 461q0 -87 52.5 -143t131.5 -56q80 0 132.5 54t52.5 145q0 88 -53.5 143t-131.5 55q-77 0 -130.5 -54t-53.5 -144zM647 1249l111 148q31 45 88 45q35 0 65 -23
l52 -37q36 -26 36 -77q0 -43 -28 -68l-127 -129q-46 -43 -103 -43q-40 0 -71 25q-43 34 -43 92q0 38 20 67zM287 1255l92 164q24 49 86 49q30 0 57 -18l41 -33q45 -31 45 -90q0 -36 -20 -65l-107 -142q-34 -43 -92 -43q-42 0 -72 21q-47 35 -47 94q0 29 17 63z" />
    <glyph glyph-name="OE" unicode="&#x152;" horiz-adv-x="2117" 
d="M1995 213v-119q0 -38 -28 -66t-66 -28h-750q-11 0 -19 8.5t-8 20.5q-141 -54 -290 -54q-220 0 -391 92t-266 261t-95 389q0 124 30 235t91.5 204t150 160t210.5 104.5t267 37.5q156 0 293 -55q0 12 9.5 21.5t21.5 9.5h725q38 0 66 -28.5t28 -66.5v-118q0 -38 -28 -66.5
t-66 -28.5h-428v-252h367q38 0 66 -28t28 -66v-118q0 -38 -28 -66.5t-66 -28.5h-367v-260h449q38 0 66 -28t28 -66zM1124 352v711q-71 43 -136 65.5t-157 22.5q-173 0 -287 -114.5t-114 -319.5q0 -191 120.5 -312.5t313.5 -121.5q137 0 260 69z" />
    <glyph glyph-name="oe" unicode="&#x153;" horiz-adv-x="1695" 
d="M709 461q0 75 18 143q-63 55 -154 55q-77 0 -130.5 -54t-53.5 -144q0 -87 52.5 -143t131.5 -56q95 0 152 57q-16 57 -16 142zM1348 563q0 51 -40 89t-110 38q-74 0 -116.5 -31.5t-65.5 -95.5h332zM1528 53q-82 -46 -154.5 -62t-165.5 -16q-186 0 -315 93
q-132 -93 -320 -93q-232 0 -372 137.5t-140 348.5t140 348t372 137q192 0 324 -96q133 96 311 96q119 0 220.5 -53t164 -153.5t62.5 -227.5q0 -54 -6 -92q-3 -23 -25 -42.5t-45 -19.5h-553q21 -63 78.5 -95t136.5 -32q93 0 166 27q21 8 45 8q51 0 72 -43l32 -65q9 -18 9 -37
q0 -45 -37 -68z" />
    <glyph glyph-name="Racute" unicode="&#x154;" horiz-adv-x="1370" 
d="M940 59l-307 443h-121v-408q0 -38 -28 -66t-66 -28h-139q-38 0 -66.5 28t-28.5 66v1245q0 38 28.5 66.5t66.5 28.5q278 4 393 4q143 0 247 -34t165 -97t89.5 -144t28.5 -184q0 -76 -18 -141.5t-43.5 -108t-61.5 -78.5t-62.5 -54t-55.5 -32l315 -426q18 -24 18 -51
q0 -35 -25.5 -61.5t-64.5 -26.5h-151q-33 0 -64 16t-49 43zM512 809h119q101 0 162 40t61 126q0 155 -199 155q-7 0 -143 -4v-317zM512 1718l303 152q18 10 41 10q28 0 52 -14.5t34 -40.5l37 -84q8 -20 8 -35q0 -29 -17.5 -53t-45.5 -31l-322 -102q-21 -7 -37 -7
q-33 0 -60 16.5t-40 45.5q-10 27 -10 47q0 31 15.5 56.5t41.5 39.5z" />
    <glyph glyph-name="racute" unicode="&#x155;" horiz-adv-x="755" 
d="M420 586v-508q0 -32 -23 -55t-55 -23h-152q-32 0 -54.5 23t-22.5 55v766q0 32 22.5 55t54.5 23h158q29 0 50.5 -21.5t21.5 -50.5q64 88 180 88q64 0 111 -14q51 -15 51 -66q0 -22 -8 -41l-60 -129q-21 -49 -82 -49q-10 0 -30 4q-32 8 -58 8q-69 0 -104 -65zM274 1251
l101 168q27 47 82 47q36 0 59 -20l68 -51q39 -29 39 -80q0 -38 -25 -66l-125 -139q-36 -39 -88 -39q-38 0 -74 25q-53 38 -53 98q0 28 16 57z" />
    <glyph glyph-name="Rcommaaccent" unicode="&#x156;" horiz-adv-x="1370" 
d="M940 59l-307 443h-121v-408q0 -38 -28 -66t-66 -28h-139q-38 0 -66.5 28t-28.5 66v1245q0 38 28.5 66.5t66.5 28.5q278 4 393 4q143 0 247 -34t165 -97t89.5 -144t28.5 -184q0 -76 -18 -141.5t-43.5 -108t-61.5 -78.5t-62.5 -54t-55.5 -32l315 -426q18 -24 18 -51
q0 -35 -25.5 -61.5t-64.5 -26.5h-151q-33 0 -64 16t-49 43zM512 809h119q101 0 162 40t61 126q0 155 -199 155q-7 0 -143 -4v-317zM578 -418q-52 0 -74 31q-21 27 -21 53q0 36 39 78q27 31 27 82q0 45 11.5 63t49.5 25l168 33h10q27 0 47.5 -21.5t20.5 -66.5
q0 -95 -68.5 -167t-164.5 -104q-18 -6 -45 -6z" />
    <glyph glyph-name="rcommaaccent" unicode="&#x157;" horiz-adv-x="755" 
d="M420 586v-508q0 -32 -23 -55t-55 -23h-152q-32 0 -54.5 23t-22.5 55v766q0 32 22.5 55t54.5 23h158q29 0 50.5 -21.5t21.5 -50.5q64 88 180 88q64 0 111 -14q51 -15 51 -66q0 -22 -8 -41l-60 -129q-21 -49 -82 -49q-10 0 -30 4q-32 8 -58 8q-69 0 -104 -65zM252 -418
q-52 0 -74 31q-20 26 -20 53q0 36 39 78q26 30 26 82q0 45 12 63t50 25l168 33h10q27 0 47 -21.5t20 -66.5q0 -95 -68.5 -167t-164.5 -104q-18 -6 -45 -6z" />
    <glyph glyph-name="Rcaron" unicode="&#x158;" horiz-adv-x="1370" 
d="M940 59l-307 443h-121v-408q0 -38 -28 -66t-66 -28h-139q-38 0 -66.5 28t-28.5 66v1245q0 38 28.5 66.5t66.5 28.5q278 4 393 4q143 0 247 -34t165 -97t89.5 -144t28.5 -184q0 -76 -18 -141.5t-43.5 -108t-61.5 -78.5t-62.5 -54t-55.5 -32l315 -426q18 -24 18 -51
q0 -35 -25.5 -61.5t-64.5 -26.5h-151q-33 0 -64 16t-49 43zM512 809h119q101 0 162 40t61 126q0 155 -199 155q-7 0 -143 -4v-317zM649 1759l174 105q28 14 54 14q59 0 88 -47q14 -22 14 -55q0 -57 -45 -86l-201 -134q-38 -24 -86 -24q-47 0 -88 24l-205 130q-45 28 -45 83
q0 31 19 60q34 49 94 49q31 0 53 -14z" />
    <glyph glyph-name="rcaron" unicode="&#x159;" horiz-adv-x="755" 
d="M420 586v-508q0 -32 -23 -55t-55 -23h-152q-32 0 -54.5 23t-22.5 55v766q0 32 22.5 55t54.5 23h158q29 0 50.5 -21.5t21.5 -50.5q64 88 180 88q64 0 111 -14q51 -15 51 -66q0 -22 -8 -41l-60 -129q-21 -49 -82 -49q-10 0 -30 4q-32 8 -58 8q-69 0 -104 -65zM414 1292
l114 90q31 25 72 25q53 0 88 -41q23 -33 23 -70q0 -59 -45 -92l-164 -133q-42 -31 -90 -31q-54 0 -93 33l-161 131q-41 33 -41 90q0 44 24 74q34 43 88 43q42 0 72 -27z" />
    <glyph glyph-name="Sacute" unicode="&#x15a;" horiz-adv-x="1140" 
d="M109 270l59 86q27 43 76 43q34 0 63 -20q147 -96 258 -96q64 0 99.5 29.5t35.5 80.5q0 43 -33 79t-85.5 64t-116.5 57.5t-128 68.5t-116.5 87.5t-85.5 124.5t-33 170q0 172 127.5 293t335.5 121q210 0 355 -94q38 -23 38 -80q0 -28 -12 -49l-53 -90q-30 -49 -82 -49
q-26 0 -55 16q-76 39 -162 39q-67 0 -105 -28.5t-38 -78.5q0 -42 25.5 -77t67.5 -59t96 -50.5t110 -51t110 -62.5t96 -82.5t67.5 -112.5t25.5 -152q0 -185 -141 -303.5t-351 -118.5q-225 0 -434 164q-31 25 -31 72q0 36 17 59zM494 1718l303 152q17 10 41 10q28 0 52 -14.5
t34 -40.5l37 -84q8 -20 8 -35q0 -29 -17.5 -53t-46.5 -31l-321 -102q-21 -7 -37 -7q-33 0 -60.5 16.5t-40.5 45.5q-10 27 -10 47q0 31 16 56.5t42 39.5z" />
    <glyph glyph-name="sacute" unicode="&#x15b;" horiz-adv-x="940" 
d="M84 211l55 76q18 30 58 30q31 0 67 -20q118 -66 232 -66q69 0 69 41q0 19 -27 33.5t-70 25t-94.5 23t-103.5 34.5t-95 53t-70 83.5t-27 120.5q0 143 102.5 222t257.5 79q172 0 320 -76q20 -10 31.5 -30.5t11.5 -42.5q0 -20 -8 -33l-41 -78q-26 -47 -76 -47q-11 0 -35 8
q-98 43 -184 43q-32 0 -52 -12.5t-20 -28.5q0 -22 36 -38t90 -25.5t117.5 -30.5t117.5 -49.5t90 -85t36 -133.5q0 -141 -107 -226.5t-290 -85.5q-235 0 -377 121q-30 23 -30 64q0 29 16 51zM324 1251l100 168q27 47 82 47q36 0 59 -20l68 -51q39 -29 39 -80q0 -38 -25 -66
l-125 -139q-36 -39 -88 -39q-38 0 -74 25q-53 38 -53 98q0 26 17 57z" />
    <glyph glyph-name="Scircumflex" unicode="&#x15c;" horiz-adv-x="1140" 
d="M109 270l59 86q27 43 76 43q34 0 63 -20q147 -96 258 -96q64 0 99.5 29.5t35.5 80.5q0 43 -33 79t-85.5 64t-116.5 57.5t-128 68.5t-116.5 87.5t-85.5 124.5t-33 170q0 172 127.5 293t335.5 121q210 0 355 -94q38 -23 38 -80q0 -28 -12 -49l-53 -90q-30 -49 -82 -49
q-26 0 -55 16q-76 39 -162 39q-67 0 -105 -28.5t-38 -78.5q0 -42 25.5 -77t67.5 -59t96 -50.5t110 -51t110 -62.5t96 -82.5t67.5 -112.5t25.5 -152q0 -185 -141 -303.5t-351 -118.5q-225 0 -434 164q-31 25 -31 72q0 36 17 59zM553 1616l-174 -90q-26 -13 -47 -13
q-63 0 -94 54q-17 27 -17 55q0 54 45 82l223 149q32 19 64 19q35 0 63 -19l234 -145q43 -27 43 -80q0 -30 -19 -59q-38 -56 -96 -56q-25 0 -51 13z" />
    <glyph glyph-name="scircumflex" unicode="&#x15d;" horiz-adv-x="940" 
d="M84 211l55 76q18 30 58 30q31 0 67 -20q118 -66 232 -66q69 0 69 41q0 19 -27 33.5t-70 25t-94.5 23t-103.5 34.5t-95 53t-70 83.5t-27 120.5q0 143 102.5 222t257.5 79q172 0 320 -76q20 -10 31.5 -30.5t11.5 -42.5q0 -20 -8 -33l-41 -78q-26 -47 -76 -47q-11 0 -35 8
q-98 43 -184 43q-32 0 -52 -12.5t-20 -28.5q0 -22 36 -38t90 -25.5t117.5 -30.5t117.5 -49.5t90 -85t36 -133.5q0 -141 -107 -226.5t-290 -85.5q-235 0 -377 121q-30 23 -30 64q0 29 16 51zM463 1153l-115 -90q-31 -25 -69 -25q-59 0 -89 43q-24 30 -24 70q0 54 45 90
l164 133q42 31 90 31q53 0 92 -33l162 -131q41 -33 41 -90q0 -43 -25 -74q-34 -43 -88 -43q-42 0 -72 27z" />
    <glyph glyph-name="Scedilla" unicode="&#x15e;" horiz-adv-x="1140" 
d="M109 270l59 86q27 43 76 43q34 0 63 -20q147 -96 258 -96q64 0 99.5 29.5t35.5 80.5q0 43 -33 79t-85.5 64t-116.5 57.5t-128 68.5t-116.5 87.5t-85.5 124.5t-33 170q0 172 127.5 293t335.5 121q210 0 355 -94q38 -23 38 -80q0 -28 -12 -49l-53 -90q-30 -49 -82 -49
q-26 0 -55 16q-76 39 -162 39q-67 0 -105 -28.5t-38 -78.5q0 -42 25.5 -77t67.5 -59t96 -50.5t110 -51t110 -62.5t96 -82.5t67.5 -112.5t25.5 -152q0 -171 -120.5 -285t-307.5 -132v-33q237 -17 237 -185q0 -87 -78.5 -139.5t-218.5 -52.5q-159 0 -285 78q-14 9 -26 29
t-12 44q0 26 14 48q24 36 65 36q24 0 52 -14q68 -37 116 -37q45 0 45 27q0 17 -12 26q-35 23 -43 38t-8 57v82q-175 24 -344 155q-31 25 -31 72q0 36 17 59z" />
    <glyph glyph-name="scedilla" unicode="&#x15f;" horiz-adv-x="940" 
d="M84 211l55 76q18 30 58 30q31 0 67 -20q118 -66 232 -66q69 0 69 41q0 19 -27 33.5t-70 25t-94.5 23t-103.5 34.5t-95 53t-70 83.5t-27 120.5q0 143 102.5 222t257.5 79q172 0 320 -76q20 -10 31.5 -30.5t11.5 -42.5q0 -20 -8 -33l-41 -78q-26 -47 -76 -47q-11 0 -35 8
q-98 43 -184 43q-32 0 -52 -12.5t-20 -28.5q0 -22 36 -38t90 -25.5t117.5 -30.5t117.5 -49.5t90 -85t36 -133.5q0 -128 -89.5 -211t-245.5 -96v-33q104 -9 160.5 -56t56.5 -129q0 -88 -79.5 -140t-230.5 -52q-127 0 -229 65q-14 9 -26.5 29t-12.5 43q0 25 14 47q25 37 66 37
q30 0 55 -14q56 -23 90 -23q45 0 45 27q0 15 -36 57q-27 34 -27 90v54q-174 18 -285 114q-30 23 -30 64q0 29 16 51z" />
    <glyph glyph-name="Scaron" unicode="&#x160;" horiz-adv-x="1140" 
d="M109 270l59 86q27 43 76 43q34 0 63 -20q147 -96 258 -96q64 0 99.5 29.5t35.5 80.5q0 43 -33 79t-85.5 64t-116.5 57.5t-128 68.5t-116.5 87.5t-85.5 124.5t-33 170q0 172 127.5 293t335.5 121q210 0 355 -94q38 -23 38 -80q0 -28 -12 -49l-53 -90q-30 -49 -82 -49
q-26 0 -55 16q-76 39 -162 39q-67 0 -105 -28.5t-38 -78.5q0 -42 25.5 -77t67.5 -59t96 -50.5t110 -51t110 -62.5t96 -82.5t67.5 -112.5t25.5 -152q0 -185 -141 -303.5t-351 -118.5q-225 0 -434 164q-31 25 -31 72q0 36 17 59zM569 1759l174 105q28 14 54 14q59 0 88 -47
q14 -22 14 -55q0 -57 -45 -86l-201 -134q-37 -24 -86 -24q-47 0 -88 24l-205 130q-45 28 -45 83q0 31 19 60q34 49 94 49q31 0 53 -14z" />
    <glyph glyph-name="scaron" unicode="&#x161;" horiz-adv-x="940" 
d="M84 211l55 76q18 30 58 30q31 0 67 -20q118 -66 232 -66q69 0 69 41q0 19 -27 33.5t-70 25t-94.5 23t-103.5 34.5t-95 53t-70 83.5t-27 120.5q0 143 102.5 222t257.5 79q172 0 320 -76q20 -10 31.5 -30.5t11.5 -42.5q0 -20 -8 -33l-41 -78q-26 -47 -76 -47q-11 0 -35 8
q-98 43 -184 43q-32 0 -52 -12.5t-20 -28.5q0 -22 36 -38t90 -25.5t117.5 -30.5t117.5 -49.5t90 -85t36 -133.5q0 -141 -107 -226.5t-290 -85.5q-235 0 -377 121q-30 23 -30 64q0 29 16 51zM463 1292l115 90q31 25 71 25q53 0 88 -41q23 -33 23 -70q0 -59 -45 -92l-164 -133
q-42 -31 -90 -31q-53 0 -92 33l-162 131q-41 33 -41 90q0 44 24 74q34 43 89 43q41 0 71 -27z" />
    <glyph glyph-name="Tcedilla" unicode="&#x162;" 
d="M778 94q0 -37 -26.5 -64.5t-61.5 -29.5v-53q238 -17 238 -185q0 -87 -78.5 -139.5t-218.5 -52.5q-159 0 -285 78q-14 9 -26.5 29t-12.5 44t15 48q24 36 65 36q23 0 51 -14q68 -37 117 -37q45 0 45 27q0 17 -12 26q-35 23 -43 38t-8 57v98q-36 3 -61 30.5t-25 63.5v1032
h-336q-38 0 -66.5 28.5t-28.5 66.5v118q0 38 28.5 66.5t66.5 28.5h999q38 0 66 -28.5t28 -66.5v-118q0 -38 -28 -66.5t-66 -28.5h-336v-1032z" />
    <glyph glyph-name="tcedilla" unicode="&#x163;" horiz-adv-x="743" 
d="M641 240l43 -84q8 -16 8 -37q0 -48 -43 -72q-93 -54 -190 -67v-33q104 -9 160.5 -56t56.5 -129q0 -88 -79 -140t-230 -52q-128 0 -230 65q-14 9 -26.5 29t-12.5 43t15 47q25 37 65 37q30 0 55 -14q56 -23 91 -23q45 0 45 27q0 14 -37 57q-27 34 -27 90v54
q-112 23 -162.5 115t-50.5 253v750q0 32 23 55t55 23h152q32 0 54.5 -23t22.5 -55v-178h179q32 0 54.5 -23t22.5 -55v-131q0 -32 -22.5 -55t-54.5 -23h-179v-270q0 -45 16.5 -74t51.5 -29t70 14q21 9 38 9q46 0 66 -45z" />
    <glyph glyph-name="Tcaron" unicode="&#x164;" 
d="M684 0h-139q-38 0 -66 28t-28 66v1032h-336q-38 0 -66.5 28.5t-28.5 66.5v118q0 38 28.5 66.5t66.5 28.5h999q38 0 66 -28.5t28 -66.5v-118q0 -38 -28 -66.5t-66 -28.5h-336v-1032q0 -38 -28 -66t-66 -28zM606 1759l174 105q28 14 54 14q59 0 88 -47q14 -22 14 -55
q0 -57 -45 -86l-201 -134q-38 -24 -86 -24t-88 24l-205 130q-45 28 -45 83q0 31 19 60q34 49 94 49q31 0 53 -14z" />
    <glyph glyph-name="tcaron" unicode="&#x165;" horiz-adv-x="743" 
d="M641 240l43 -84q8 -16 8 -37q0 -48 -43 -72q-126 -72 -270 -72q-152 0 -219.5 95.5t-67.5 279.5v750q0 32 23 55t55 23h152q32 0 54.5 -23t22.5 -55v-178h179q32 0 54.5 -23t22.5 -55v-131q0 -32 -22.5 -55t-54.5 -23h-179v-270q0 -45 16.5 -74t51.5 -29t70 14q21 9 38 9
q46 0 66 -45zM602 997q-41 0 -70 23q-40 32 -40 82q0 39 20 78q35 72 35 155q0 51 23.5 75t74.5 24h125q29 0 46.5 -20.5t17.5 -43.5q0 -215 -154 -346q-30 -27 -78 -27z" />
    <glyph glyph-name="Umacron" unicode="&#x16a;" horiz-adv-x="1538" 
d="M1047 657v682q0 38 28 66.5t66 28.5h139q38 0 66 -28.5t28 -66.5v-747q0 -128 -31.5 -232t-86 -174.5t-129.5 -119t-160 -70t-179 -21.5q-139 0 -253 40t-197 117.5t-128.5 198t-45.5 275.5v733q0 38 28 66.5t66 28.5h139q38 0 66.5 -28.5t28.5 -66.5v-663
q0 -88 14.5 -156t47 -123t92 -84.5t142.5 -29.5q142 0 200.5 95t58.5 279zM1110 1683v-49q0 -40 -29 -69t-69 -29h-447q-40 0 -69 29t-29 69v49q0 40 29 69.5t69 29.5h447q40 0 69 -29.5t29 -69.5z" />
    <glyph glyph-name="umacron" unicode="&#x16b;" horiz-adv-x="1085" 
d="M666 346v498q0 32 22.5 55t54.5 23h152q32 0 55 -23t23 -55v-766q0 -32 -23 -55t-55 -23h-152q-33 0 -55 24t-22 62q-98 -111 -265 -111q-60 0 -114.5 22t-98.5 65.5t-70 115.5t-26 164v502q0 32 23 55t55 23h152q32 0 54.5 -23t22.5 -55v-436q0 -62 28.5 -104t90.5 -42
q81 0 148 84zM834 1212v-49q0 -40 -29.5 -69t-69.5 -29h-405q-40 0 -69.5 29t-29.5 69v49q0 40 29.5 69.5t69.5 29.5h405q40 0 69.5 -29.5t29.5 -69.5z" />
    <glyph glyph-name="Ubreve" unicode="&#x16c;" horiz-adv-x="1538" 
d="M1047 657v682q0 38 28 66.5t66 28.5h139q38 0 66 -28.5t28 -66.5v-747q0 -128 -31.5 -232t-86 -174.5t-129.5 -119t-160 -70t-179 -21.5q-139 0 -253 40t-197 117.5t-128.5 198t-45.5 275.5v733q0 38 28 66.5t66 28.5h139q38 0 66.5 -28.5t28.5 -66.5v-663
q0 -88 14.5 -156t47 -123t92 -84.5t142.5 -29.5q142 0 200.5 95t58.5 279zM551 1823q94 -62 221 -62t221 62q42 28 78 28q41 0 78 -34q33 -29 33 -78q0 -38 -23 -64q-156 -180 -387 -180t-387 180q-23 26 -23 64q0 49 33 78q37 34 78 34q36 0 78 -28z" />
    <glyph glyph-name="ubreve" unicode="&#x16d;" horiz-adv-x="1085" 
d="M666 346v498q0 32 22.5 55t54.5 23h152q32 0 55 -23t23 -55v-766q0 -32 -23 -55t-55 -23h-152q-33 0 -55 24t-22 62q-98 -111 -265 -111q-60 0 -114.5 22t-98.5 65.5t-70 115.5t-26 164v502q0 32 23 55t55 23h152q32 0 54.5 -23t22.5 -55v-436q0 -62 28.5 -104t90.5 -42
q81 0 148 84zM395 1333q64 -43 146 -43q81 0 145 43q46 31 84 31q41 0 74 -33q28 -28 28 -69t-26 -70q-138 -150 -305 -150t-305 150q-27 30 -27 70t29 69q33 33 73 33q37 0 84 -31z" />
    <glyph glyph-name="Uring" unicode="&#x16e;" horiz-adv-x="1538" 
d="M1047 657v682q0 38 28 66.5t66 28.5h139q38 0 66 -28.5t28 -66.5v-747q0 -128 -31.5 -232t-86 -174.5t-129.5 -119t-160 -70t-179 -21.5q-139 0 -253 40t-197 117.5t-128.5 198t-45.5 275.5v733q0 38 28 66.5t66 28.5h139q38 0 66.5 -28.5t28.5 -66.5v-663
q0 -88 14.5 -156t47 -123t92 -84.5t142.5 -29.5q142 0 200.5 95t58.5 279zM451 1657q0 121 88.5 181t228.5 60q146 0 237 -60t91 -181q0 -120 -92 -184t-236 -64q-138 0 -227.5 64.5t-89.5 183.5zM676 1657q0 -41 26.5 -62.5t69.5 -21.5t70.5 21.5t27.5 62.5q0 39 -27 58.5
t-71 19.5t-70 -19.5t-26 -58.5z" />
    <glyph glyph-name="uring" unicode="&#x16f;" horiz-adv-x="1085" 
d="M666 346v498q0 32 22.5 55t54.5 23h152q32 0 55 -23t23 -55v-766q0 -32 -23 -55t-55 -23h-152q-33 0 -55 24t-22 62q-98 -111 -265 -111q-60 0 -114.5 22t-98.5 65.5t-70 115.5t-26 164v502q0 32 23 55t55 23h152q32 0 54.5 -23t22.5 -55v-436q0 -62 28.5 -104t90.5 -42
q81 0 148 84zM532 991q-121 0 -200.5 75.5t-79.5 184.5q0 111 79.5 188t200.5 77q123 0 204 -77.5t81 -187.5q0 -109 -81 -184.5t-204 -75.5zM537 1352q-40 0 -65.5 -28t-25.5 -69q0 -42 25.5 -71t65.5 -29q39 0 62.5 29t23.5 71q0 41 -23.5 69t-62.5 28z" />
    <glyph glyph-name="Uhungarumlaut" unicode="&#x170;" horiz-adv-x="1538" 
d="M1047 657v682q0 38 28 66.5t66 28.5h139q38 0 66 -28.5t28 -66.5v-747q0 -128 -31.5 -232t-86 -174.5t-129.5 -119t-160 -70t-179 -21.5q-139 0 -253 40t-197 117.5t-128.5 198t-45.5 275.5v733q0 38 28 66.5t66 28.5h139q38 0 66.5 -28.5t28.5 -66.5v-663
q0 -88 14.5 -156t47 -123t92 -84.5t142.5 -29.5q142 0 200.5 95t58.5 279zM844 1679l194 176q28 25 68 25q35 0 63 -25l86 -73q21 -18 21 -47q0 -39 -33 -56l-262 -145q-36 -18 -66 -18q-50 0 -77 34q-23 26 -23 62q0 38 29 67zM446 1683l109 158q28 45 84 45q22 0 45 -10
l107 -55q32 -14 32 -52q0 -28 -20 -45l-207 -176q-25 -22 -66 -22q-38 0 -71 26q-31 31 -31 72q0 32 18 59z" />
    <glyph glyph-name="uhungarumlaut" unicode="&#x171;" horiz-adv-x="1085" 
d="M666 346v498q0 32 22.5 55t54.5 23h152q32 0 55 -23t23 -55v-766q0 -32 -23 -55t-55 -23h-152q-33 0 -55 24t-22 62q-98 -111 -265 -111q-60 0 -114.5 22t-98.5 65.5t-70 115.5t-26 164v502q0 32 23 55t55 23h152q32 0 54.5 -23t22.5 -55v-436q0 -62 28.5 -104t90.5 -42
q81 0 148 84zM606 1249l111 148q31 45 88 45q35 0 65 -23l52 -37q36 -26 36 -77q0 -43 -28 -68l-127 -129q-46 -43 -103 -43q-40 0 -71 25q-43 34 -43 92q0 38 20 67zM246 1255l92 164q24 49 86 49q30 0 57 -18l41 -33q45 -31 45 -90q0 -36 -20 -65l-107 -142
q-34 -43 -92 -43q-42 0 -72 21q-47 35 -47 94q0 29 17 63z" />
    <glyph glyph-name="Uogonek" unicode="&#x172;" horiz-adv-x="1538" 
d="M1047 657v682q0 38 28 66.5t66 28.5h139q38 0 66 -28.5t28 -66.5v-747q0 -121 -28 -220.5t-77 -169t-117 -119t-145 -75t-165 -31.5q-30 -17 -48 -42t-18 -46q0 -53 62 -53q18 0 44 5t42 5q62 0 90 -57q14 -32 14 -57q0 -58 -63 -97q-82 -45 -199 -45q-129 0 -213 49.5
t-84 145.5q0 132 164 205q-218 39 -343.5 196.5t-125.5 419.5v733q0 38 28 66.5t66 28.5h139q38 0 66.5 -28.5t28.5 -66.5v-663q0 -88 14.5 -156t47 -123t92 -84.5t142.5 -29.5q142 0 200.5 95t58.5 279z" />
    <glyph glyph-name="uogonek" unicode="&#x173;" horiz-adv-x="1085" 
d="M666 346v498q0 32 22.5 55t54.5 23h152q32 0 55 -23t23 -55v-766q0 -32 -23 -55t-55 -23h-25q-32 0 -53.5 -37t-21.5 -74q0 -53 61 -53q31 0 44 -0.5t34.5 -3.5t32 -10t22 -20.5t19.5 -34.5q8 -19 8 -46q0 -71 -66 -100q-72 -31 -166 -31q-129 0 -213 49.5t-84 145.5
q0 78 61.5 134.5t153.5 90.5q-36 22 -36 76q-98 -111 -265 -111q-60 0 -114.5 22t-98.5 65.5t-70 115.5t-26 164v502q0 32 23 55t55 23h152q32 0 54.5 -23t22.5 -55v-436q0 -62 28.5 -104t90.5 -42q81 0 148 84z" />
    <glyph glyph-name="Ydieresis" unicode="&#x178;" horiz-adv-x="1327" 
d="M403 1370l273 -479l268 479q15 29 44.5 46.5t62.5 17.5h102q43 0 72.5 -31t29.5 -72q0 -29 -14 -51l-416 -696v-490q0 -38 -28 -66t-66 -28h-139q-38 0 -66 28t-28 66v490l-412 696q-14 22 -14 51q0 41 29.5 72t72.5 31h123q33 0 62 -17.5t44 -46.5zM233 1714
q0 73 57.5 116.5t143.5 43.5q75 0 131 -44t56 -116q0 -80 -55.5 -126t-131.5 -46q-87 0 -144 45t-57 127zM707 1714q0 73 57.5 116.5t142.5 43.5q76 0 131.5 -44t55.5 -116q0 -81 -55 -126.5t-132 -45.5q-86 0 -143 45.5t-57 126.5z" />
    <glyph glyph-name="Zacute" unicode="&#x179;" horiz-adv-x="1331" 
d="M82 94v64q0 32 13 60t44 69l641 839h-563q-38 0 -66 28.5t-28 66.5v118q0 38 28 66.5t66 28.5h918q38 0 66 -28.5t28 -66.5v-63q0 -57 -55 -129l-644 -840h625q38 0 66 -28t28 -66v-119q0 -38 -28 -66t-66 -28h-979q-38 0 -66 28t-28 66zM573 1718l304 152q17 10 41 10
q28 0 52 -14.5t34 -40.5l36 -84q9 -22 9 -35q0 -29 -17.5 -53t-46.5 -31l-321 -102q-21 -7 -37 -7q-33 0 -60.5 16.5t-40.5 45.5q-10 27 -10 47q0 31 15.5 56.5t41.5 39.5z" />
    <glyph glyph-name="zacute" unicode="&#x17a;" horiz-adv-x="1013" 
d="M82 78v102q0 45 33 78l389 377h-314q-32 0 -54.5 23t-22.5 55v131q0 32 22.5 55t54.5 23h664q32 0 55 -23t23 -55v-103q0 -44 -33 -77l-391 -377h336q32 0 55 -23t23 -55v-131q0 -32 -23 -55t-55 -23h-684q-32 0 -55 23t-23 55zM389 1251l100 168q27 47 82 47
q37 0 60 -20l67 -51q39 -29 39 -80q0 -39 -24 -66l-125 -139q-36 -39 -88 -39q-38 0 -74 25q-53 38 -53 98q0 28 16 57z" />
    <glyph glyph-name="Zdotaccent" unicode="&#x17b;" horiz-adv-x="1331" 
d="M82 94v64q0 32 13 60t44 69l641 839h-563q-38 0 -66 28.5t-28 66.5v118q0 38 28 66.5t66 28.5h918q38 0 66 -28.5t28 -66.5v-63q0 -57 -55 -129l-644 -840h625q38 0 66 -28t28 -66v-119q0 -38 -28 -66t-66 -28h-979q-38 0 -66 28t-28 66zM479 1731q0 83 60 133.5
t147 50.5q79 0 138 -50.5t59 -133.5q0 -91 -58.5 -144t-138.5 -53q-87 0 -147 52.5t-60 144.5z" />
    <glyph glyph-name="zdotaccent" unicode="&#x17c;" horiz-adv-x="1013" 
d="M82 78v102q0 45 33 78l389 377h-314q-32 0 -54.5 23t-22.5 55v131q0 32 22.5 55t54.5 23h664q32 0 55 -23t23 -55v-103q0 -44 -33 -77l-391 -377h336q32 0 55 -23t23 -55v-131q0 -32 -23 -55t-55 -23h-684q-32 0 -55 23t-23 55zM319 1239q0 79 54.5 126.5t132.5 47.5
q70 0 122 -48t52 -126q0 -86 -51.5 -136t-122.5 -50q-79 0 -133 49.5t-54 136.5z" />
    <glyph glyph-name="Zcaron" unicode="&#x17d;" horiz-adv-x="1331" 
d="M82 94v64q0 32 13 60t44 69l641 839h-563q-38 0 -66 28.5t-28 66.5v118q0 38 28 66.5t66 28.5h918q38 0 66 -28.5t28 -66.5v-63q0 -57 -55 -129l-644 -840h625q38 0 66 -28t28 -66v-119q0 -38 -28 -66t-66 -28h-979q-38 0 -66 28t-28 66zM690 1759l174 105q28 14 54 14
q59 0 88 -47q14 -22 14 -55q0 -57 -45 -86l-201 -134q-37 -24 -86 -24q-48 0 -88 24l-205 130q-45 28 -45 83q0 31 19 60q34 49 94 49q31 0 53 -14z" />
    <glyph glyph-name="zcaron" unicode="&#x17e;" horiz-adv-x="1013" 
d="M82 78v102q0 45 33 78l389 377h-314q-32 0 -54.5 23t-22.5 55v131q0 32 22.5 55t54.5 23h664q32 0 55 -23t23 -55v-103q0 -44 -33 -77l-391 -377h336q32 0 55 -23t23 -55v-131q0 -32 -23 -55t-55 -23h-684q-32 0 -55 23t-23 55zM528 1292l115 90q31 25 72 25q53 0 88 -41
q22 -31 22 -70q0 -59 -45 -92l-164 -133q-42 -31 -90 -31q-53 0 -92 33l-162 131q-41 33 -41 90q0 43 25 74q34 43 88 43q42 0 72 -27z" />
    <glyph glyph-name="longs" unicode="&#x17f;" horiz-adv-x="548" 
d="M420 1053v-975q0 -32 -23 -55t-55 -23h-152q-32 0 -54.5 23t-22.5 55v993q0 188 89.5 287.5t246.5 99.5q123 0 229 -53q45 -22 45 -68q0 -23 -10 -43l-49 -94q-22 -43 -62 -43q-11 0 -31 4q-43 10 -67 10q-34 0 -59 -30.5t-25 -87.5z" />
    <glyph glyph-name="uni018F" unicode="&#x18f;" horiz-adv-x="1589" 
d="M317 1335q201 123 474 123q155 0 288 -53.5t229 -149.5t150.5 -235t54.5 -303q0 -227 -92.5 -396t-259.5 -257.5t-387 -88.5q-151 0 -278.5 50t-221 143.5t-146 235.5t-52.5 317q0 45 2 70q2 37 32 65.5t68 28.5h979q-47 129 -164 197.5t-282 68.5q-119 0 -232 -55
q-30 -15 -57 -15q-54 0 -84 49l-49 76q-15 21 -15 51q0 51 43 78zM426 578q16 -123 106.5 -209t237.5 -86q322 0 399 295h-743z" />
    <glyph glyph-name="florin" unicode="&#x192;" horiz-adv-x="1214" 
d="M1151 1315l-49 -107q-21 -47 -66 -47q-14 0 -22 2q-41 8 -56 8q-37 0 -58 -28t-32 -90l-22 -131h104q32 0 55 -23t23 -55v-131q0 -32 -23 -55t-55 -23h-153l-121 -703q-17 -90 -39 -151.5t-58 -110.5t-90 -72.5t-129 -23.5q-130 0 -237 55q-43 21 -43 68q0 16 10 39
l45 96q12 25 25.5 34t36.5 9q13 0 42 -7t46 -7q31 0 53.5 28.5t30.5 71.5l116 674h-116q-32 0 -55 23t-23 55v131q0 32 23 55t55 23h166l26 149q40 205 116.5 296t225.5 91q109 0 209 -41q47 -21 47 -65q0 -21 -8 -37z" />
    <glyph glyph-name="uni01DD" unicode="&#x1dd;" horiz-adv-x="1048" 
d="M360 358q0 -51 40 -89t110 -38q74 0 116.5 31.5t65.5 95.5h-332zM180 868q82 46 154.5 62t165.5 16q225 0 356 -132.5t131 -352.5q0 -137 -53 -245t-162.5 -174.5t-261.5 -66.5q-199 0 -334 121t-135 314q0 55 6 92q3 23 25 42t45 19h565q-21 63 -78.5 95t-136.5 32
q-95 0 -166 -26q-24 -9 -45 -9q-51 0 -72 43l-32 66q-9 18 -9 37q0 44 37 67z" />
    <glyph glyph-name="Scommaaccent" unicode="&#x218;" horiz-adv-x="1140" 
d="M109 270l59 86q27 43 76 43q34 0 63 -20q147 -96 258 -96q64 0 99.5 29.5t35.5 80.5q0 43 -33 79t-85.5 64t-116.5 57.5t-128 68.5t-116.5 87.5t-85.5 124.5t-33 170q0 172 127.5 293t335.5 121q210 0 355 -94q38 -23 38 -80q0 -28 -12 -49l-53 -90q-30 -49 -82 -49
q-26 0 -55 16q-76 39 -162 39q-67 0 -105 -28.5t-38 -78.5q0 -42 25.5 -77t67.5 -59t96 -50.5t110 -51t110 -62.5t96 -82.5t67.5 -112.5t25.5 -152q0 -185 -141 -303.5t-351 -118.5q-225 0 -434 164q-31 25 -31 72q0 36 17 59zM477 -418q-52 0 -74 31q-20 26 -20 53
q0 36 39 78q27 31 27 82q0 45 11.5 63t49.5 25l168 33h10q27 0 47.5 -21.5t20.5 -66.5q0 -94 -69 -166t-165 -105q-18 -6 -45 -6z" />
    <glyph glyph-name="scommaaccent" unicode="&#x219;" horiz-adv-x="940" 
d="M84 211l55 76q18 30 58 30q31 0 67 -20q118 -66 232 -66q69 0 69 41q0 19 -27 33.5t-70 25t-94.5 23t-103.5 34.5t-95 53t-70 83.5t-27 120.5q0 143 102.5 222t257.5 79q172 0 320 -76q20 -10 31.5 -30.5t11.5 -42.5q0 -20 -8 -33l-41 -78q-26 -47 -76 -47q-11 0 -35 8
q-98 43 -184 43q-32 0 -52 -12.5t-20 -28.5q0 -22 36 -38t90 -25.5t117.5 -30.5t117.5 -49.5t90 -85t36 -133.5q0 -141 -107 -226.5t-290 -85.5q-235 0 -377 121q-30 23 -30 64q0 29 16 51zM362 -418q-51 0 -73 31q-21 27 -21 53q0 36 39 78q27 31 27 82q0 45 11.5 63
t49.5 25l168 33h10q27 0 47.5 -21.5t20.5 -66.5q0 -95 -68.5 -167t-164.5 -104q-18 -6 -46 -6z" />
    <glyph glyph-name="Tcommaaccent" unicode="&#x21a;" 
d="M684 0h-139q-38 0 -66 28t-28 66v1032h-336q-38 0 -66.5 28.5t-28.5 66.5v118q0 38 28.5 66.5t66.5 28.5h999q38 0 66 -28.5t28 -66.5v-118q0 -38 -28 -66.5t-66 -28.5h-336v-1032q0 -38 -28 -66t-66 -28zM485 -418q-51 0 -73 31q-21 27 -21 53q0 36 39 78q27 31 27 82
q0 45 11.5 63t49.5 25l168 33h10q27 0 47.5 -21.5t20.5 -66.5q0 -94 -69 -166t-165 -105q-18 -6 -45 -6z" />
    <glyph glyph-name="tcommaaccent" unicode="&#x21b;" horiz-adv-x="743" 
d="M641 240l43 -84q8 -16 8 -37q0 -48 -43 -72q-126 -72 -270 -72q-152 0 -219.5 95.5t-67.5 279.5v750q0 32 23 55t55 23h152q32 0 54.5 -23t22.5 -55v-178h179q32 0 54.5 -23t22.5 -55v-131q0 -32 -22.5 -55t-54.5 -23h-179v-270q0 -45 16.5 -74t51.5 -29t70 14q21 9 38 9
q46 0 66 -45zM229 -418q-51 0 -73 31q-21 27 -21 53q0 36 39 78q27 31 27 82q0 45 11.5 63t49.5 25l168 33h10q27 0 47.5 -21.5t20.5 -66.5q0 -94 -69 -166t-165 -105q-18 -6 -45 -6z" />
    <glyph glyph-name="uni0237" unicode="&#x237;" horiz-adv-x="581" 
d="M162 -39v883q0 32 23 55t55 23h151q32 0 55 -23t23 -55v-912q0 -358 -289 -358q-102 0 -190 33q-51 16 -51 71q0 7 4 27l34 109q17 51 66 51q17 0 25 -2q20 -4 36 -4q58 0 58 102z" />
    <glyph glyph-name="uni0259" unicode="&#x259;" horiz-adv-x="1048" 
d="M360 358q0 -51 40 -89t110 -38q74 0 116.5 31.5t65.5 95.5h-332zM180 868q82 46 154.5 62t165.5 16q225 0 356 -132.5t131 -352.5q0 -137 -53 -245t-162.5 -174.5t-261.5 -66.5q-199 0 -334 121t-135 314q0 55 6 92q3 23 25 42t45 19h565q-21 63 -78.5 95t-136.5 32
q-95 0 -166 -26q-24 -9 -45 -9q-51 0 -72 43l-32 66q-9 18 -9 37q0 44 37 67z" />
    <glyph glyph-name="afii57929" unicode="&#x2bc;" horiz-adv-x="489" 
d="M260 850q-36 0 -70 24q-38 28 -38 78q0 30 22 76q29 63 29 123q0 30 -10 68q-9 24 -9 43q0 41 49 69l107 62q21 12 43 12q26 0 49 -16.5t31 -38.5q26 -62 26 -131q0 -201 -151 -340q-33 -29 -78 -29z" />
    <glyph glyph-name="circumflex" unicode="&#x2c6;" horiz-adv-x="931" 
d="M465 1153l-115 -90q-31 -25 -69 -25q-58 0 -88 43q-25 31 -25 70q0 54 45 90l164 133q42 31 90 31q53 0 92 -33l162 -131q41 -33 41 -90q0 -43 -25 -74q-34 -43 -88 -43q-41 0 -71 27z" />
    <glyph glyph-name="caron" unicode="&#x2c7;" horiz-adv-x="931" 
d="M467 1292l115 90q31 25 71 25q53 0 88 -41q23 -33 23 -70q0 -59 -45 -92l-164 -133q-42 -31 -90 -31q-53 0 -92 33l-162 131q-41 33 -41 90q0 43 25 74q34 43 88 43q41 0 71 -27z" />
    <glyph glyph-name="breve" unicode="&#x2d8;" horiz-adv-x="925" 
d="M328 1333q64 -43 145 -43t145 43q46 31 84 31q41 0 74 -33q29 -29 29 -69t-27 -70q-138 -150 -305 -150t-305 150q-27 30 -27 70t29 69q33 33 74 33q38 0 84 -31z" />
    <glyph glyph-name="dotaccent" unicode="&#x2d9;" horiz-adv-x="606" 
d="M123 1239q0 79 54 126.5t132 47.5q70 0 122 -48t52 -126q0 -86 -51.5 -136t-122.5 -50q-79 0 -132.5 49.5t-53.5 136.5z" />
    <glyph glyph-name="ring" unicode="&#x2da;" horiz-adv-x="811" 
d="M403 991q-121 0 -200.5 75.5t-79.5 184.5q0 111 79.5 188t200.5 77q123 0 204 -77.5t81 -187.5q0 -109 -81 -184.5t-204 -75.5zM408 1352q-40 0 -65.5 -28t-25.5 -69q0 -42 25.5 -71t65.5 -29q39 0 62.5 29t23.5 71q0 41 -23.5 69t-62.5 28z" />
    <glyph glyph-name="ogonek" unicode="&#x2db;" horiz-adv-x="788" 
d="M612 0h-24q-67 0 -112.5 -37t-45.5 -74q0 -53 62 -53q31 0 44 -0.5t34 -3.5t31.5 -10t22 -20.5t19.5 -34.5q8 -19 8 -46q0 -71 -65 -100q-72 -31 -166 -31q-129 0 -213 49.5t-84 145.5q0 64 41.5 115.5t109.5 82t148.5 46.5t165.5 16h24v-45z" />
    <glyph glyph-name="tilde" unicode="&#x2dc;" horiz-adv-x="993" 
d="M879 1251q0 -51 -39 -90q-65 -61 -111 -83.5t-102 -22.5q-45 0 -130.5 42t-131.5 42q-23 0 -66 -29q-41 -27 -74 -27q-43 0 -69 33q-23 26 -23 58q0 47 41 88q57 57 101.5 77.5t101.5 20.5q49 0 134 -38t126 -38q9 0 21 4.5t19.5 9t20 12.5t13.5 9q40 24 71 24
q43 0 80 -43q17 -20 17 -49z" />
    <glyph glyph-name="hungarumlaut" unicode="&#x2dd;" horiz-adv-x="1062" 
d="M537 1249l110 148q31 45 88 45q36 0 66 -23l51 -37q37 -27 37 -77q0 -42 -29 -68l-127 -129q-46 -43 -102 -43q-41 0 -72 25q-43 34 -43 92q0 37 21 67zM176 1255l92 164q24 49 86 49q31 0 58 -18l41 -33q45 -31 45 -90q0 -35 -21 -65l-106 -142q-34 -43 -92 -43
q-42 0 -72 21q-47 35 -47 94q0 31 16 63z" />
    <glyph glyph-name="gravecomb" unicode="&#x300;" horiz-adv-x="0" 
d="M-580 1415l101 -164q16 -29 16 -57q0 -60 -53 -98q-36 -25 -74 -25q-51 0 -90 39l-125 135q-26 29 -26 68q0 51 38 78l72 51q23 20 59 20q58 0 82 -47z" />
    <glyph glyph-name="acutecomb" unicode="&#x301;" horiz-adv-x="0" 
d="M-647 1251l100 168q27 47 82 47q36 0 59 -20l68 -51q39 -29 39 -80q0 -38 -25 -66l-125 -139q-36 -39 -88 -39q-37 0 -73 25q-54 39 -54 98q0 26 17 57z" />
    <glyph glyph-name="uni0394" unicode="&#x394;" horiz-adv-x="1531" 
d="M725 1450h68q32 0 60 -18.5t40 -47.5l553 -1261q8 -24 8 -35q0 -36 -25 -62t-63 -26h-1200q-38 0 -63 26t-25 62q0 11 8 35l539 1261q12 29 40 47.5t60 18.5zM752 901l-244 -594h504z" />
    <glyph glyph-name="uni0394" unicode="&#x2206;" horiz-adv-x="1531" 
d="M725 1450h68q32 0 60 -18.5t40 -47.5l553 -1261q8 -24 8 -35q0 -36 -25 -62t-63 -26h-1200q-38 0 -63 26t-25 62q0 11 8 35l539 1261q12 29 40 47.5t60 18.5zM752 901l-244 -594h504z" />
    <glyph glyph-name="uni03A9" unicode="&#x3a9;" horiz-adv-x="1697" 
d="M780 229v-135q0 -38 -28 -66t-66 -28h-510q-38 0 -66 28t-28 66v119q0 38 28 66t66 28h201q-40 13 -85.5 54.5t-86.5 104t-68.5 151t-27.5 182.5q0 152 58 277.5t158 208.5t235 128t290 45q213 0 380 -77t264 -228t97 -354q0 -102 -28 -192.5t-71.5 -150t-87.5 -97.5
t-83 -52h201q38 0 66 -28t28 -66v-119q0 -38 -28 -66t-66 -28h-510q-38 0 -66 28t-28 66v139q0 37 20.5 62t67.5 49q113 57 175 168.5t62 230.5q0 78 -25.5 150t-73 130t-124 93t-170.5 35q-100 0 -177.5 -35t-123.5 -94t-69 -131.5t-23 -153.5q0 -103 62 -220.5t173 -174.5
q49 -25 68.5 -49.5t19.5 -63.5z" />
    <glyph glyph-name="uni03A9" unicode="&#x2126;" horiz-adv-x="1697" 
d="M780 229v-135q0 -38 -28 -66t-66 -28h-510q-38 0 -66 28t-28 66v119q0 38 28 66t66 28h201q-40 13 -85.5 54.5t-86.5 104t-68.5 151t-27.5 182.5q0 152 58 277.5t158 208.5t235 128t290 45q213 0 380 -77t264 -228t97 -354q0 -102 -28 -192.5t-71.5 -150t-87.5 -97.5
t-83 -52h201q38 0 66 -28t28 -66v-119q0 -38 -28 -66t-66 -28h-510q-38 0 -66 28t-28 66v139q0 37 20.5 62t67.5 49q113 57 175 168.5t62 230.5q0 78 -25.5 150t-73 130t-124 93t-170.5 35q-100 0 -177.5 -35t-123.5 -94t-69 -131.5t-23 -153.5q0 -103 62 -220.5t173 -174.5
q49 -25 68.5 -49.5t19.5 -63.5z" />
    <glyph glyph-name="pi" unicode="&#x3c0;" horiz-adv-x="1261" 
d="M41 186q0 44 15.5 65t58.5 38q45 19 70.5 73t31.5 170l4 103h-71q-32 0 -55 23t-23 55v131q0 32 23 55t55 23h935q32 0 55 -23t23 -55v-131q0 -32 -23 -55t-55 -23h-55v-254q0 -121 64 -121q10 0 29 1t26 1q25 0 41 -10t27 -39l28 -74q6 -15 6 -30q0 -48 -39 -70
q-66 -35 -125 -49.5t-135 -14.5q-229 0 -229 289v371h-197v-62q0 -164 -23 -275.5t-74 -180t-123.5 -100.5t-178.5 -40h-4q-31 0 -56.5 21.5t-25.5 54.5v133z" />
    <glyph glyph-name="afii10023" unicode="&#x401;" horiz-adv-x="1177" 
d="M1055 213v-119q0 -38 -28 -66t-66 -28h-682q-38 0 -66.5 28t-28.5 66v1245q0 38 28.5 66.5t66.5 28.5h661q38 0 66 -28.5t28 -66.5v-118q0 -38 -28 -66.5t-66 -28.5h-428v-252h367q38 0 66 -28t28 -66v-118q0 -38 -28 -66.5t-66 -28.5h-367v-260h449q38 0 66 -28t28 -66z
M205 1714q0 73 57.5 116.5t143.5 43.5q75 0 130.5 -44t55.5 -116q0 -80 -55 -126t-131 -46q-87 0 -144 45t-57 127zM678 1714q0 73 58 116.5t143 43.5q76 0 131 -44t55 -116q0 -81 -54.5 -126.5t-131.5 -45.5q-86 0 -143.5 45.5t-57.5 126.5z" />
    <glyph glyph-name="afii10051" unicode="&#x402;" horiz-adv-x="1570" 
d="M778 1126v-321q106 61 277 61q434 0 434 -450q0 -215 -99.5 -328t-279.5 -113q-111 0 -211 54q-45 25 -45 75q0 21 8 37l43 99q25 57 78 57q19 0 37 -6q39 -8 55 -8q86 0 86 127q0 80 -43 114.5t-125 34.5q-127 0 -215 -53v-412q0 -38 -28 -66t-66 -28h-139q-38 0 -66 28
t-28 66v1032h-336q-38 0 -66.5 28.5t-28.5 66.5v118q0 38 28.5 66.5t66.5 28.5h999q38 0 66 -28.5t28 -66.5v-118q0 -38 -28 -66.5t-66 -28.5h-336z" />
    <glyph glyph-name="afii10052" unicode="&#x403;" horiz-adv-x="1044" 
d="M512 1126v-1032q0 -38 -28 -66t-66 -28h-139q-38 0 -66.5 28t-28.5 66v1245q0 38 28.5 66.5t66.5 28.5h630q38 0 66.5 -28.5t28.5 -66.5v-118q0 -38 -28.5 -66.5t-66.5 -28.5h-397zM594 1718l303 152q17 10 41 10q28 0 52 -14.5t34 -40.5l37 -84q8 -20 8 -35
q0 -29 -17.5 -53t-45.5 -31l-322 -102q-21 -7 -37 -7q-33 0 -60 16.5t-40 45.5q-10 27 -10 47q0 31 15.5 56.5t41.5 39.5z" />
    <glyph glyph-name="afii10053" unicode="&#x404;" horiz-adv-x="1368" 
d="M1141 1094q-27 0 -54 12q-98 45 -223 45q-164 0 -276 -68.5t-154 -197.5h473q38 0 66 -28t28 -66v-119q0 -38 -28 -66t-66 -28h-479q28 -101 99 -169.5t158.5 -97t188.5 -28.5q131 0 246 59q27 12 54 12q56 0 83 -49l52 -90q12 -21 12 -49q0 -56 -49 -86
q-168 -105 -424 -105q-353 0 -559.5 198.5t-206.5 543.5q0 219 94 388.5t258 261t371 91.5q260 0 436 -102q43 -25 43 -80q0 -25 -12 -49l-45 -80q-29 -53 -86 -53z" />
    <glyph glyph-name="afii10054" unicode="&#x405;" horiz-adv-x="1140" 
d="M109 270l59 86q27 43 76 43q34 0 63 -20q147 -96 258 -96q64 0 99.5 29.5t35.5 80.5q0 43 -33 79t-85.5 64t-116.5 57.5t-128 68.5t-116.5 87.5t-85.5 124.5t-33 170q0 172 127.5 293t335.5 121q210 0 355 -94q38 -23 38 -80q0 -28 -12 -49l-53 -90q-30 -49 -82 -49
q-26 0 -55 16q-76 39 -162 39q-67 0 -105 -28.5t-38 -78.5q0 -42 25.5 -77t67.5 -59t96 -50.5t110 -51t110 -62.5t96 -82.5t67.5 -112.5t25.5 -152q0 -185 -141 -303.5t-351 -118.5q-225 0 -434 164q-31 25 -31 72q0 36 17 59z" />
    <glyph glyph-name="afii10055" unicode="&#x406;" horiz-adv-x="737" 
d="M532 1339v-1245q0 -38 -28 -66t-66 -28h-139q-38 0 -66 28t-28 66v1245q0 38 28 66.5t66 28.5h139q38 0 66 -28.5t28 -66.5z" />
    <glyph glyph-name="afii10056" unicode="&#x407;" horiz-adv-x="739" 
d="M20 1714q0 73 49 116.5t121 43.5q68 0 116 -44t48 -116q0 -81 -47.5 -126.5t-116.5 -45.5q-73 0 -121.5 45.5t-48.5 126.5zM385 1714q0 73 49.5 116.5t122.5 43.5q66 0 114 -44t48 -116q0 -81 -47.5 -126.5t-114.5 -45.5q-74 0 -123 45.5t-49 126.5zM532 1339v-1245
q0 -38 -28 -66t-66 -28h-139q-38 0 -66 28t-28 66v1245q0 38 28 66.5t66 28.5h139q38 0 66 -28.5t28 -66.5z" />
    <glyph glyph-name="afii10057" unicode="&#x408;" horiz-adv-x="833" 
d="M322 410v929q0 38 28 66.5t66 28.5h139q38 0 66 -28.5t28 -66.5v-989q0 -183 -98 -279t-281 -96q-121 0 -223 52q-53 26 -53 77q0 23 12 50l37 84q25 57 80 57q23 0 47 -6q23 -6 45 -6h10q44 0 70.5 33t26.5 94z" />
    <glyph glyph-name="afii10058" unicode="&#x409;" horiz-adv-x="2041" 
d="M1313 676v-365q70 -8 94 -8q205 0 205 199q0 92 -54.5 138t-148.5 46q-31 0 -96 -10zM342 1147l14 192q3 40 32 67.5t69 27.5h762q38 0 66 -28.5t28 -66.5v-354q65 8 125 8q258 0 390 -128.5t132 -354.5q0 -237 -155.5 -375.5t-436.5 -138.5q-125 0 -289 4q-38 0 -66 28
t-28 68v1030h-315l-31 -270q-29 -255 -72 -423t-106.5 -266t-141.5 -137.5t-188 -39.5q-41 0 -66.5 24t-25.5 60v123q0 47 17.5 72t68.5 48q42 18 71.5 58t57 129.5t49 246.5t39.5 396z" />
    <glyph glyph-name="afii10059" unicode="&#x40a;" horiz-adv-x="2072" 
d="M512 623v-529q0 -38 -28 -66t-66 -28h-139q-38 0 -66.5 28t-28.5 66v1245q0 38 28.5 66.5t66.5 28.5h139q38 0 66 -28.5t28 -66.5v-409h502v409q0 38 28 66.5t66 28.5h139q38 0 66 -28.5t28 -66.5v-395q68 8 127 8q256 0 389.5 -126t133.5 -337q0 -221 -157 -357
t-435 -136q-79 0 -291 4q-38 0 -66 28t-28 68v527h-502zM1341 311q74 -8 97 -8q100 0 152 46t52 132q0 78 -54.5 121t-147.5 43q-31 0 -99 -10v-324z" />
    <glyph glyph-name="afii10060" unicode="&#x40b;" horiz-adv-x="1572" 
d="M684 0h-139q-38 0 -66 28t-28 66v1032h-336q-38 0 -66.5 28.5t-28.5 66.5v118q0 38 28.5 66.5t66.5 28.5h999q38 0 66 -28.5t28 -66.5v-118q0 -38 -28 -66.5t-66 -28.5h-336v-321q106 61 273 61q65 0 125.5 -13.5t118.5 -47t101 -84t69 -130.5t26 -181v-316
q0 -38 -28 -66t-66 -28h-140q-38 0 -66 28t-28 66v217q0 76 -16 127.5t-46 76.5t-62.5 34.5t-75.5 9.5q-99 0 -185 -55v-410q0 -38 -28 -66t-66 -28z" />
    <glyph glyph-name="afii10061" unicode="&#x40c;" horiz-adv-x="1409" 
d="M512 682v-588q0 -38 -28 -66t-66 -28h-139q-38 0 -66.5 28t-28.5 66v1245q0 38 28.5 66.5t66.5 28.5h139q38 0 66 -28.5t28 -66.5v-530l426 567q20 26 51.5 42t63.5 16h135q39 0 64.5 -26.5t25.5 -61.5q0 -31 -21 -58l-421 -516l469 -622q20 -26 20 -58q0 -36 -27 -64
t-67 -28h-158q-33 0 -64 16t-51 43zM717 1718l303 152q17 10 41 10q28 0 52 -14.5t34 -40.5l37 -84q8 -20 8 -35q0 -29 -17.5 -53t-46.5 -31l-321 -102q-21 -7 -37 -7q-33 0 -60 16.5t-40 45.5q-11 29 -11 47q0 31 16 56.5t42 39.5z" />
    <glyph glyph-name="afii10062" unicode="&#x40e;" horiz-adv-x="1421" 
d="M420 1370l366 -637l263 633q14 31 41 49.5t59 18.5h117q41 0 66.5 -25.5t25.5 -62.5q0 -20 -10 -43l-422 -963q-75 -170 -175 -255t-245 -85q-91 0 -168 35q-47 23 -47 76q0 22 8 43l39 100q23 63 86 63q13 0 37 -4q27 -6 53 -6q71 0 96 58l19 43l-531 882q-14 25 -14 56
q0 37 24.5 62.5t65.5 25.5h137q32 0 62 -17.5t47 -46.5zM1176 1763q0 -132 -115 -210t-320 -78t-319.5 78t-114.5 210q0 63 35.5 102.5t116.5 39.5q155 0 155 -142q0 -36 29 -49.5t98 -13.5t98 13.5t29 49.5q0 64 36.5 103t119.5 39q81 0 116.5 -39.5t35.5 -102.5z" />
    <glyph glyph-name="afii10145" unicode="&#x40f;" horiz-adv-x="1505" 
d="M811 -307h-119q-38 0 -66 28t-28 66v213h-319q-38 0 -66.5 28t-28.5 66v1245q0 38 28.5 66.5t66.5 28.5h139q38 0 66 -28.5t28 -66.5v-1032h481v1032q0 38 28 66.5t66 28.5h140q38 0 66 -28.5t28 -66.5v-1245q0 -38 -28 -66t-66 -28h-322v-213q0 -38 -28 -66t-66 -28z
" />
    <glyph glyph-name="afii10017" unicode="&#x410;" horiz-adv-x="1476" 
d="M1012 301h-568l-92 -233q-12 -31 -39 -49.5t-59 -18.5h-125q-37 0 -62.5 26.5t-25.5 61.5q0 20 6 35l516 1243q14 31 41.5 49.5t59.5 18.5h149q32 0 59 -18.5t41 -49.5l517 -1243q6 -15 6 -35q0 -35 -25.5 -61.5t-62.5 -26.5h-146q-32 0 -59 18.5t-39 49.5zM729 1014
l-162 -406h322z" />
    <glyph glyph-name="afii10018" unicode="&#x411;" horiz-adv-x="1263" 
d="M512 899q58 12 164 12q208 0 336.5 -120.5t128.5 -321.5q0 -226 -145 -352.5t-412 -126.5q-149 0 -305 8q-40 2 -67.5 30t-27.5 68v1243q0 38 28.5 66.5t66.5 28.5h675q38 0 66.5 -28.5t28.5 -66.5v-118q0 -38 -28.5 -66.5t-66.5 -28.5h-442v-227zM512 592v-285
q88 -10 123 -10q95 0 136.5 40.5t41.5 106.5q0 69 -40 114.5t-124 45.5q-63 0 -137 -12z" />
    <glyph glyph-name="afii10019" unicode="&#x412;" horiz-adv-x="1263" 
d="M1100 1085q0 -210 -164 -321q87 -34 146 -118t59 -212q0 -146 -72.5 -247.5t-193 -148t-279.5 -46.5q-176 0 -317 6q-37 2 -66 31.5t-29 66.5v1239q0 38 28.5 68t66.5 31q192 8 339 8q125 0 219 -27.5t150.5 -77t84.5 -112.5t28 -140zM512 580v-269q46 -12 111 -12
q94 0 142 39.5t48 112.5q0 129 -174 129h-127zM512 866h109q69 0 110 33.5t41 106.5q0 61 -46.5 95t-111.5 34q-19 0 -102 -9v-260z" />
    <glyph glyph-name="afii10020" unicode="&#x413;" horiz-adv-x="1044" 
d="M512 1126v-1032q0 -38 -28 -66t-66 -28h-139q-38 0 -66.5 28t-28.5 66v1245q0 38 28.5 66.5t66.5 28.5h630q38 0 66.5 -28.5t28.5 -66.5v-118q0 -38 -28.5 -66.5t-66.5 -28.5h-397z" />
    <glyph glyph-name="afii10021" unicode="&#x414;" horiz-adv-x="1564" 
d="M328 0v-152q0 -38 -28.5 -66t-66.5 -28h-118q-38 0 -66.5 28t-28.5 66v365q0 38 28.5 66t66.5 28h59q24 32 54 99t63 170t58 254.5t32 316.5l8 192q2 38 31 66.5t67 28.5h748q38 0 66 -28.5t28 -66.5v-1032h101q38 0 66 -28t28 -66v-365q0 -38 -28 -66t-66 -28h-119
q-38 0 -66 28t-28 66v152h-889zM1001 307v819h-290l-23 -241q-16 -176 -65 -351.5t-88 -226.5h466z" />
    <glyph glyph-name="afii10022" unicode="&#x415;" horiz-adv-x="1177" 
d="M1055 213v-119q0 -38 -28 -66t-66 -28h-682q-38 0 -66.5 28t-28.5 66v1245q0 38 28.5 66.5t66.5 28.5h661q38 0 66 -28.5t28 -66.5v-118q0 -38 -28 -66.5t-66 -28.5h-428v-252h367q38 0 66 -28t28 -66v-118q0 -38 -28 -66.5t-66 -28.5h-367v-260h449q38 0 66 -28t28 -66z
" />
    <glyph glyph-name="afii10024" unicode="&#x416;" horiz-adv-x="1978" 
d="M195 1434h124q33 0 63.5 -16t49.5 -44l393 -567v532q0 38 28.5 66.5t66.5 28.5h139q38 0 66 -28.5t28 -66.5v-532l393 567q19 28 49.5 44t63.5 16h125q40 0 66 -27t26 -64q0 -31 -18 -55l-392 -538l418 -603q17 -23 17 -53q0 -37 -27.5 -65.5t-67.5 -28.5h-125
q-32 0 -62.5 16.5t-49.5 42.5l-416 627v-592q0 -38 -28 -66t-66 -28h-139q-38 0 -66.5 28t-28.5 66v592l-415 -627q-19 -26 -50 -42.5t-63 -16.5h-125q-40 0 -67 28.5t-27 65.5q0 32 16 53l418 601l-391 540q-19 25 -19 55q0 36 26.5 63.5t66.5 27.5z" />
    <glyph glyph-name="afii10025" unicode="&#x417;" horiz-adv-x="1206" 
d="M586 1458q198 0 320 -106t122 -297q0 -82 -44 -163t-136 -144q235 -79 235 -347q0 -96 -44 -177.5t-117 -135t-164.5 -83.5t-188.5 -30q-262 0 -471 193q-30 27 -30 72q0 35 22 63l72 82q30 35 74 35q31 0 61 -23q142 -114 258 -114q36 0 69 7.5t64 24t49.5 47t18.5 72.5
q0 66 -56 106t-168 40h-36q-38 0 -66.5 28t-28.5 66v119q0 38 28.5 66t66.5 28h28q76 0 126 33.5t50 97.5q0 65 -42.5 99t-114.5 34q-94 0 -193 -74q-31 -22 -63 -22q-46 0 -76 37l-64 75q-20 23 -20 60q0 50 33 73q196 158 426 158z" />
    <glyph glyph-name="afii10026" unicode="&#x418;" horiz-adv-x="1617" 
d="M1339 0h-139q-38 0 -66 28t-28 66v797l-594 -832q-40 -59 -106 -59h-127q-38 0 -66.5 28t-28.5 66v1245q0 38 28.5 66.5t66.5 28.5h139q38 0 66 -28.5t28 -66.5v-796l594 831q41 60 106 60h127q38 0 66.5 -28.5t28.5 -66.5v-1245q0 -38 -28.5 -66t-66.5 -28z" />
    <glyph glyph-name="afii10027" unicode="&#x419;" horiz-adv-x="1617" 
d="M1339 0h-139q-38 0 -66 28t-28 66v797l-594 -832q-40 -59 -106 -59h-127q-38 0 -66.5 28t-28.5 66v1245q0 38 28.5 66.5t66.5 28.5h139q38 0 66 -28.5t28 -66.5v-796l594 831q41 60 106 60h127q38 0 66.5 -28.5t28.5 -66.5v-1245q0 -38 -28.5 -66t-66.5 -28zM1278 1763
q0 -132 -114.5 -210t-319.5 -78t-319.5 78t-114.5 210q0 63 35.5 102.5t115.5 39.5q83 0 119.5 -39t36.5 -103q0 -36 29 -49.5t98 -13.5t98 13.5t29 49.5q0 142 155 142q81 0 116.5 -39.5t35.5 -102.5z" />
    <glyph glyph-name="afii10028" unicode="&#x41a;" horiz-adv-x="1409" 
d="M512 682v-588q0 -38 -28 -66t-66 -28h-139q-38 0 -66.5 28t-28.5 66v1245q0 38 28.5 66.5t66.5 28.5h139q38 0 66 -28.5t28 -66.5v-530l426 567q20 26 51.5 42t63.5 16h135q39 0 64.5 -26.5t25.5 -61.5q0 -31 -21 -58l-421 -516l469 -622q20 -26 20 -58q0 -36 -27 -64
t-67 -28h-158q-33 0 -64 16t-51 43z" />
    <glyph glyph-name="afii10029" unicode="&#x41b;" horiz-adv-x="1497" 
d="M1313 1339v-1245q0 -38 -28 -66t-66 -28h-140q-38 0 -66 28t-28 66v1032h-315l-31 -270q-29 -255 -72 -423t-106.5 -266t-141.5 -137.5t-188 -39.5q-41 0 -66.5 24t-25.5 60v123q0 47 17.5 72t68.5 48q42 18 71.5 58t57 129.5t49 246.5t39.5 396l14 192q3 40 32 67.5
t69 27.5h762q38 0 66 -28.5t28 -66.5z" />
    <glyph glyph-name="afii10030" unicode="&#x41c;" horiz-adv-x="1867" 
d="M512 907v-813q0 -38 -28 -66t-66 -28h-139q-38 0 -66.5 28t-28.5 66v1245q0 38 28.5 66.5t66.5 28.5h172q61 0 106 -58l399 -547l377 545q41 60 103 60h153q38 0 66 -28.5t28 -66.5v-1245q0 -38 -28 -66t-66 -28h-139q-38 0 -66 28t-28 66v819l-297 -417
q-54 -72 -125 -72t-125 72z" />
    <glyph glyph-name="afii10031" unicode="&#x41d;" horiz-adv-x="1546" 
d="M1362 1339v-1245q0 -38 -28 -66t-66 -28h-140q-38 0 -66 28t-28 66v484h-522v-484q0 -38 -28 -66t-66 -28h-139q-38 0 -66.5 28t-28.5 66v1245q0 38 28.5 66.5t66.5 28.5h139q38 0 66 -28.5t28 -66.5v-454h522v454q0 38 28 66.5t66 28.5h140q38 0 66 -28.5t28 -66.5z" />
    <glyph glyph-name="afii10032" unicode="&#x41e;" horiz-adv-x="1687" 
d="M82 717q0 155 55.5 291t153.5 235.5t241.5 157t311.5 57.5q218 0 390.5 -89t272 -258.5t99.5 -393.5q0 -160 -58 -298.5t-159 -235.5t-242 -152.5t-303 -55.5q-163 0 -303 52t-241.5 147t-159.5 235t-58 308zM430 717q0 -183 120.5 -308.5t293.5 -125.5q132 0 227 58.5
t140.5 155.5t45.5 220q0 193 -118 313.5t-295 120.5q-181 0 -297.5 -120t-116.5 -314z" />
    <glyph glyph-name="afii10033" unicode="&#x41f;" horiz-adv-x="1525" 
d="M1341 1339v-1245q0 -38 -28 -66t-66 -28h-139q-38 0 -66 28t-28 66v1032h-502v-1032q0 -38 -28 -66t-66 -28h-139q-38 0 -66.5 28t-28.5 66v1245q0 38 28.5 66.5t66.5 28.5h968q38 0 66 -28.5t28 -66.5z" />
    <glyph glyph-name="afii10034" unicode="&#x420;" horiz-adv-x="1284" 
d="M623 1438q127 0 227.5 -26t165.5 -69.5t107.5 -105.5t60.5 -129.5t18 -144.5q0 -96 -36.5 -183t-103 -153.5t-168 -106t-222.5 -39.5q-109 0 -160 6v-393q0 -38 -28 -66t-66 -28h-139q-38 0 -66.5 28t-28.5 66v1243q0 40 28.5 68.5t66.5 28.5q218 4 344 4zM512 1126v-327
q86 -11 150 -11q35 0 66.5 8.5t61 27.5t47 55t17.5 86q0 90 -52 127.5t-147 37.5q-7 0 -143 -4z" />
    <glyph glyph-name="afii10035" unicode="&#x421;" horiz-adv-x="1337" 
d="M1036 1114q-92 37 -205 37q-173 0 -287 -114.5t-114 -319.5q0 -191 120.5 -312.5t313.5 -121.5q116 0 223 55q28 14 60 14q56 0 84 -49l49 -78q14 -25 14 -51q0 -53 -45 -86q-90 -62 -188.5 -87.5t-226.5 -25.5q-220 0 -391 92t-266 261t-95 389q0 124 30 235t91.5 204
t150 160t210.5 104.5t267 37.5q105 0 185.5 -19.5t163.5 -60.5q23 -10 36 -32.5t13 -47.5q0 -22 -10 -45l-45 -94q-24 -55 -89 -55q-22 0 -49 10z" />
    <glyph glyph-name="afii10036" unicode="&#x422;" 
d="M684 0h-139q-38 0 -66 28t-28 66v1032h-336q-38 0 -66.5 28.5t-28.5 66.5v118q0 38 28.5 66.5t66.5 28.5h999q38 0 66 -28.5t28 -66.5v-118q0 -38 -28 -66.5t-66 -28.5h-336v-1032q0 -38 -28 -66t-66 -28z" />
    <glyph glyph-name="afii10037" unicode="&#x423;" horiz-adv-x="1421" 
d="M420 1370l366 -637l263 633q14 31 41 49.5t59 18.5h117q41 0 66.5 -25.5t25.5 -62.5q0 -20 -10 -43l-422 -963q-75 -170 -175 -255t-245 -85q-91 0 -168 35q-47 23 -47 76q0 22 8 43l39 100q23 63 86 63q13 0 37 -4q27 -6 53 -6q71 0 96 58l19 43l-531 882q-14 25 -14 56
q0 37 24.5 62.5t65.5 25.5h137q32 0 62 -17.5t47 -46.5z" />
    <glyph glyph-name="afii10038" unicode="&#x424;" horiz-adv-x="1728" 
d="M1026 176v-98q0 -38 -28 -66t-66 -28h-139q-38 0 -66.5 28t-28.5 66v98q-292 3 -464.5 150t-172.5 411q0 173 81 299.5t223.5 191.5t332.5 70v58q0 38 28.5 66t66.5 28h139q38 0 66 -28t28 -66v-58q188 -4 331.5 -70t226.5 -193t83 -298q0 -262 -175 -410t-466 -151z
M1026 477q157 3 225 66.5t68 193.5q0 53 -15.5 97t-48.5 81t-91.5 58.5t-137.5 23.5v-520zM698 997q-148 -4 -218 -75.5t-70 -184.5q0 -127 70 -192t218 -68v520z" />
    <glyph glyph-name="afii10039" unicode="&#x425;" horiz-adv-x="1363" 
d="M438 1372l252 -399l242 399q17 28 46.5 45t61.5 17h134q41 0 69.5 -29.5t28.5 -67.5q0 -26 -17 -53l-360 -553l379 -581q16 -26 16 -54q0 -38 -28 -67t-70 -29h-133q-32 0 -62 16.5t-49 44.5l-268 420l-264 -420q-19 -28 -49 -44.5t-62 -16.5h-133q-42 0 -70 29t-28 67
q0 28 16 54l379 581l-356 551q-17 27 -17 53q0 39 28.5 69t70.5 30h133q68 0 110 -62z" />
    <glyph glyph-name="afii10040" unicode="&#x426;" horiz-adv-x="1566" 
d="M1432 -246h-119q-38 0 -66 28t-28 66v152h-940q-38 0 -66.5 28t-28.5 66v1245q0 38 28.5 66.5t66.5 28.5h139q38 0 66 -28.5t28 -66.5v-1032h492v1032q0 38 28 66.5t66 28.5h139q38 0 66 -28.5t28 -66.5v-1032h101q38 0 66 -28t28 -66v-365q0 -38 -28 -66t-66 -28z" />
    <glyph glyph-name="afii10041" unicode="&#x427;" horiz-adv-x="1402" 
d="M891 848v491q0 38 28 66.5t66 28.5h139q38 0 66.5 -28.5t28.5 -66.5v-1245q0 -38 -28.5 -66t-66.5 -28h-139q-38 0 -66 28t-28 66v455q-105 -84 -307 -84q-65 0 -125.5 13.5t-119 47.5t-101 84.5t-69 130.5t-26.5 181v417q0 38 28.5 66.5t66.5 28.5h139q38 0 66 -28.5
t28 -66.5v-319q0 -76 16 -127.5t46 -76.5t63 -34.5t76 -9.5q112 0 219 76z" />
    <glyph glyph-name="afii10042" unicode="&#x428;" horiz-adv-x="2048" 
d="M1864 1339v-1245q0 -38 -28.5 -66t-66.5 -28h-1490q-38 0 -66.5 28t-28.5 66v1245q0 38 28.5 66.5t66.5 28.5h139q38 0 66 -28.5t28 -66.5v-1032h348v1032q0 38 28 66.5t66 28.5h140q38 0 66 -28.5t28 -66.5v-1032h348v1032q0 38 28 66.5t66 28.5h139q38 0 66.5 -28.5
t28.5 -66.5z" />
    <glyph glyph-name="afii10043" unicode="&#x429;" horiz-adv-x="2099" 
d="M1964 -246h-119q-38 0 -66 28t-28 66v152h-1472q-38 0 -66.5 28t-28.5 66v1245q0 38 28.5 66.5t66.5 28.5h139q38 0 66 -28.5t28 -66.5v-1032h348v1032q0 38 28 66.5t66 28.5h140q38 0 66 -28.5t28 -66.5v-1032h348v1032q0 38 28 66.5t66 28.5h139q38 0 66.5 -28.5
t28.5 -66.5v-1032h100q38 0 66 -28t28 -66v-365q0 -38 -28 -66t-66 -28z" />
    <glyph glyph-name="afii10044" unicode="&#x42a;" horiz-adv-x="1386" 
d="M692 -4q-123 0 -291 4q-38 0 -66 28t-28 68v1030h-192q-38 0 -66.5 28.5t-28.5 66.5v118q0 38 28.5 66.5t66.5 28.5h426q38 0 66 -28.5t28 -66.5v-354q68 8 127 8q272 0 407.5 -128t135.5 -355q0 -235 -160 -374.5t-453 -139.5zM635 676v-365q74 -8 96 -8q225 0 225 199
q0 96 -61.5 140t-161.5 44q-30 0 -98 -10z" />
    <glyph glyph-name="afii10045" unicode="&#x42b;" horiz-adv-x="1812" 
d="M1628 1339v-1245q0 -38 -28 -66t-66 -28h-139q-38 0 -66.5 28t-28.5 66v1245q0 38 28.5 66.5t66.5 28.5h139q38 0 66 -28.5t28 -66.5zM512 676v-365q74 -8 96 -8q205 0 205 199q0 92 -54.5 138t-148.5 46q-30 0 -98 -10zM184 96v1243q0 38 28.5 66.5t66.5 28.5h139
q38 0 66 -28.5t28 -66.5v-354q68 8 127 8q258 0 390 -128.5t132 -354.5q0 -234 -156 -374t-436 -140q-122 0 -290 4q-39 0 -67 28t-28 68z" />
    <glyph glyph-name="afii10046" unicode="&#x42c;" horiz-adv-x="1263" 
d="M512 676v-365q74 -8 96 -8q226 0 226 199q0 96 -62 140t-162 44q-30 0 -98 -10zM184 96v1243q0 38 28.5 66.5t66.5 28.5h139q38 0 66 -28.5t28 -66.5v-354q68 8 127 8q272 0 407.5 -128t135.5 -355q0 -235 -160 -374.5t-453 -139.5q-122 0 -290 4q-39 0 -67 28t-28 68z
" />
    <glyph glyph-name="afii10047" unicode="&#x42d;" horiz-adv-x="1368" 
d="M201 367q27 0 57 -15q128 -69 256 -69q154 0 271.5 73t156.5 222h-481q-38 0 -66 28t-28 66v119q0 38 28 66t66 28h469q-47 129 -164.5 197.5t-282.5 68.5q-113 0 -229 -55q-30 -15 -59 -15q-54 0 -82 47l-47 76q-15 24 -15 51q0 52 47 82q193 121 465 121
q207 0 371 -91.5t258 -261t94 -388.5q0 -345 -206.5 -543.5t-559.5 -198.5q-242 0 -430 119q-20 12 -31.5 34.5t-11.5 47.5q0 29 14 49l64 97q29 45 76 45z" />
    <glyph glyph-name="afii10048" unicode="&#x42e;" horiz-adv-x="2220" 
d="M512 578v-484q0 -38 -28 -66t-66 -28h-139q-38 0 -66.5 28t-28.5 66v1245q0 38 28.5 66.5t66.5 28.5h139q38 0 66 -28.5t28 -66.5v-454h180q51 255 239.5 414t465.5 159q217 0 384.5 -89t262 -258t94.5 -394q0 -161 -55 -299t-152 -235.5t-235 -152.5t-299 -55
q-177 0 -327.5 71.5t-252.5 209.5t-131 322h-174zM1024 717q0 -183 112.5 -308.5t270.5 -125.5q99 0 174 33.5t120 93.5t67 137t22 170q0 196 -105 315t-278 119q-165 0 -274 -120t-109 -314z" />
    <glyph glyph-name="afii10049" unicode="&#x42f;" horiz-adv-x="1308" 
d="M1124 1337v-1243q0 -38 -28 -66t-66 -28h-139q-38 0 -66 28t-28 66v367h-146l-235 -400q-17 -28 -47 -44.5t-62 -16.5h-125q-40 0 -67 28t-27 66q0 27 14 49l246 389q-100 59 -160.5 157t-60.5 235q0 83 21 157.5t68.5 141t117.5 115t175 76.5t234 28q29 0 77 -1
t113 -2.5t97 -2.5q40 -1 67 -30t27 -69zM797 768v358q-45 9 -119 9q-85 0 -144 -51.5t-59 -137.5q0 -75 43 -120t107 -58h172z" />
    <glyph glyph-name="afii10065" unicode="&#x430;" horiz-adv-x="952" 
d="M61 279q0 150 93.5 227.5t238.5 77.5q56 0 105.5 -16t74.5 -36v19q0 139 -131 139q-72 0 -151 -22q-20 -4 -29 -4q-62 0 -80 53l-26 67q-6 15 -6 31q0 52 49 74q132 57 278 57q204 0 293.5 -98t89.5 -293v-477q0 -32 -23 -55t-55 -23h-110q-33 0 -55.5 23.5t-22.5 58.5
q-33 -45 -99 -69.5t-143 -24.5q-128 0 -209.5 77.5t-81.5 213.5zM573 291v57q-45 31 -116 31q-39 0 -63.5 -18.5t-24.5 -51.5q0 -30 24.5 -47.5t63.5 -17.5q82 0 116 47z" />
    <glyph glyph-name="afii10066" unicode="&#x431;" horiz-adv-x="1103" 
d="M1053 453q0 -130 -59 -238t-172.5 -174t-260.5 -66q-239 0 -374.5 159.5t-135.5 432.5q0 586 355 742q73 33 182 62.5t153 55.5q48 25 72 25q39 0 66 -37l79 -102q19 -25 19 -56t-19 -53q-56 -57 -118.5 -89t-109.5 -39.5t-107.5 -22t-104.5 -37.5q-140 -75 -158 -244
q43 55 121.5 92t163.5 37q183 0 295.5 -121.5t112.5 -326.5zM379 502q2 -98 47 -169t127 -71q83 0 127.5 50.5t44.5 125.5t-41 125.5t-119 50.5q-65 0 -113 -29t-73 -83z" />
    <glyph glyph-name="afii10067" unicode="&#x432;" horiz-adv-x="1046" 
d="M944 688q0 -81 -49.5 -136t-112.5 -67q86 -27 134.5 -81.5t48.5 -127.5q0 -288 -455 -288q-75 0 -320 10q-32 2 -54.5 25t-22.5 57v762q0 34 22.5 58t54.5 24q215 10 318 10q436 0 436 -246zM420 369v-127q103 -9 125 -9q42 0 68 19.5t26 46.5q0 33 -31.5 51.5
t-89.5 18.5h-98zM420 553h102q40 0 68 17.5t28 52.5q0 28 -21.5 46.5t-59.5 18.5q-81 0 -117 -6v-129z" />
    <glyph glyph-name="afii10068" unicode="&#x433;" horiz-adv-x="788" 
d="M420 635v-557q0 -32 -23 -55t-55 -23h-152q-32 0 -54.5 23t-22.5 55v766q0 32 22.5 55t54.5 23h500q32 0 55 -23t23 -55v-131q0 -32 -23 -55t-55 -23h-270z" />
    <glyph glyph-name="afii10069" unicode="&#x434;" horiz-adv-x="1175" 
d="M307 0v-127q0 -32 -23 -55t-55 -23h-131q-32 0 -55 23t-23 55v336q0 32 23 55t55 23h41q50 65 80.5 185t38.5 251l8 121q1 32 25.5 55t56.5 23h576q32 0 54.5 -23t22.5 -55v-557h76q32 0 55 -23t23 -55v-336q0 -32 -23 -55t-55 -23h-131q-32 0 -55 23t-23 55v127h-561z
M694 287v348h-137l-4 -37q-24 -206 -92 -311h233z" />
    <glyph glyph-name="afii10070" unicode="&#x435;" horiz-adv-x="1048" 
d="M932 358h-553q21 -63 78.5 -95t136.5 -32q92 0 166 27q21 8 45 8q51 0 72 -43l32 -65q9 -18 9 -37q0 -45 -37 -68q-82 -46 -154.5 -62t-165.5 -16q-227 0 -363.5 133.5t-136.5 352.5q0 134 61 244t176 175.5t263 65.5q119 0 220.5 -53t164 -153.5t62.5 -227.5
q0 -48 -7 -92q-3 -23 -24.5 -42.5t-44.5 -19.5zM700 563q0 51 -40 89t-109 38q-74 0 -116.5 -31.5t-65.5 -95.5h331z" />
    <glyph glyph-name="afii10072" unicode="&#x436;" horiz-adv-x="1501" 
d="M156 922h166q28 0 53 -15.5t37 -40.5l182 -354v332q0 32 23 55t55 23h151q32 0 55 -23t23 -55v-334l191 356q12 25 37 40.5t53 15.5h157q35 0 58.5 -24.5t23.5 -57.5q0 -23 -12 -41l-197 -326l220 -350q12 -18 12 -41q0 -33 -23 -57.5t-57 -24.5h-158q-28 0 -53.5 15
t-38.5 40l-213 381v-358q0 -32 -23 -55t-55 -23h-151q-32 0 -55 23t-23 55v356l-207 -379q-13 -25 -38.5 -40t-53.5 -15h-158q-34 0 -57 24t-23 56q0 20 13 43l213 350l-197 326q-12 18 -12 41q0 33 23.5 57.5t58.5 24.5z" />
    <glyph glyph-name="afii10073" unicode="&#x437;" horiz-adv-x="958" 
d="M485 946q189 0 288 -72t99 -198q0 -66 -45 -120.5t-122 -80.5q93 -23 140.5 -80t47.5 -139q0 -129 -118.5 -205t-317.5 -76q-121 0 -201 23.5t-162 89.5q-28 22 -28 64q0 28 16 47l47 61q25 35 68 35q26 0 51 -14q98 -60 184 -60q67 0 100 18t33 48q0 31 -24.5 50
t-73.5 19h-98q-32 0 -55 23t-23 55v49q0 32 23 55t55 23h88q44 0 66 21.5t22 52.5q0 65 -119 65q-83 0 -174 -59q-22 -14 -49 -14q-43 0 -70 37l-39 53q-14 20 -14 47q0 38 29 61q87 63 173.5 92t202.5 29z" />
    <glyph glyph-name="afii10074" unicode="&#x438;" horiz-adv-x="1167" 
d="M977 0h-152q-32 0 -54.5 23t-22.5 55v403l-293 -430q-33 -51 -88 -51h-177q-32 0 -54.5 23t-22.5 55v766q0 32 22.5 55t54.5 23h152q32 0 55 -23t23 -55v-404l293 430q34 52 86 52h178q32 0 55 -23t23 -55v-766q0 -32 -23 -55t-55 -23z" />
    <glyph glyph-name="afii10075" unicode="&#x439;" horiz-adv-x="1167" 
d="M977 0h-152q-32 0 -54.5 23t-22.5 55v403l-293 -430q-33 -51 -88 -51h-177q-32 0 -54.5 23t-22.5 55v766q0 32 22.5 55t54.5 23h152q32 0 55 -23t23 -55v-404l293 430q34 52 86 52h178q32 0 55 -23t23 -55v-766q0 -32 -23 -55t-55 -23zM944 1313q0 -129 -86 -209
t-266 -80t-266 80t-86 209q0 62 32.5 101.5t100.5 39.5t100.5 -39.5t32.5 -101.5q0 -60 86 -60t86 60q0 62 32.5 101.5t100.5 39.5t100.5 -39.5t32.5 -101.5z" />
    <glyph glyph-name="afii10076" unicode="&#x43a;" horiz-adv-x="1085" 
d="M420 430v-352q0 -32 -23 -55t-55 -23h-152q-32 0 -54.5 23t-22.5 55v766q0 32 22.5 55t54.5 23h152q32 0 55 -23t23 -55v-348l219 372q13 25 38.5 39.5t53.5 14.5h174q34 0 57 -24t23 -56q0 -25 -14 -45l-215 -314l256 -360q14 -20 14 -45q0 -32 -21.5 -55t-54.5 -23
h-186q-28 0 -54.5 14t-41.5 37z" />
    <glyph glyph-name="afii10077" unicode="&#x43b;" horiz-adv-x="1112" 
d="M999 844v-766q0 -32 -22.5 -55t-54.5 -23h-152q-32 0 -55 23t-23 55v536h-162l-4 -45q-20 -219 -66.5 -347.5t-125 -185t-201.5 -56.5q-37 0 -62.5 22.5t-25.5 54.5v107q0 57 11 79t57 44q51 26 79.5 101.5t36.5 246.5l11 209q1 32 25.5 55t56.5 23h600q32 0 54.5 -23
t22.5 -55z" />
    <glyph glyph-name="afii10078" unicode="&#x43c;" horiz-adv-x="1302" 
d="M420 453v-375q0 -32 -23 -55t-55 -23h-152q-32 0 -54.5 23t-22.5 55v766q0 32 22.5 55t54.5 23h146q53 0 94 -48l236 -266l217 264q43 50 92 50h137q32 0 55 -23t23 -55v-766q0 -32 -23 -55t-55 -23h-151q-32 0 -55 23t-23 55v375l-174 -197q-22 -25 -54 -25
q-30 0 -53 23z" />
    <glyph glyph-name="afii10079" unicode="&#x43d;" horiz-adv-x="1136" 
d="M1024 844v-766q0 -32 -23 -55t-55 -23h-151q-32 0 -55 23t-23 55v239h-297v-239q0 -32 -23 -55t-55 -23h-152q-32 0 -54.5 23t-22.5 55v766q0 32 22.5 55t54.5 23h152q32 0 55 -23t23 -55v-240h297v240q0 32 23 55t55 23h151q32 0 55 -23t23 -55z" />
    <glyph glyph-name="afii10080" unicode="&#x43e;" horiz-adv-x="1146" 
d="M61 461q0 211 140 348t372 137t372 -137t140 -348t-140 -348.5t-372 -137.5t-372 137.5t-140 348.5zM389 461q0 -87 52.5 -143t131.5 -56q80 0 132.5 54t52.5 145q0 88 -53.5 143t-131.5 55q-77 0 -130.5 -54t-53.5 -144z" />
    <glyph glyph-name="afii10081" unicode="&#x43f;" horiz-adv-x="1126" 
d="M1014 844v-766q0 -32 -23 -55t-55 -23h-152q-32 0 -54.5 23t-22.5 55v557h-287v-557q0 -32 -23 -55t-55 -23h-152q-32 0 -54.5 23t-22.5 55v766q0 32 22.5 55t54.5 23h746q32 0 55 -23t23 -55z" />
    <glyph glyph-name="afii10082" unicode="&#x440;" horiz-adv-x="1148" 
d="M420 4v-336q0 -32 -23 -55t-55 -23h-152q-32 0 -54.5 23t-22.5 55v1176q0 32 22.5 55t54.5 23h162q28 0 48 -20t20 -48q41 40 108.5 66t147.5 26q184 0 297.5 -132.5t113.5 -338.5q0 -140 -60.5 -253.5t-174.5 -180t-260 -66.5q-103 0 -172 29zM420 578v-281
q34 -20 64 -27.5t79 -7.5q95 0 146 58.5t51 148.5q0 83 -47.5 136.5t-132.5 53.5q-88 0 -160 -81z" />
    <glyph glyph-name="afii10083" unicode="&#x441;" horiz-adv-x="997" 
d="M729 623q-71 36 -141 36q-79 0 -139 -53t-60 -145q0 -89 62.5 -144t140.5 -55q73 0 143 45q29 19 58 19q40 0 63 -33l64 -84q16 -22 16 -49q0 -43 -33 -66q-147 -119 -330 -119q-234 0 -373 133.5t-139 352.5q0 134 60.5 244t173 175.5t254.5 65.5q97 0 170 -18t151 -68
q45 -28 45 -72q0 -20 -12 -38l-59 -99q-24 -41 -70 -41q-22 0 -45 13z" />
    <glyph glyph-name="afii10084" unicode="&#x442;" horiz-adv-x="921" 
d="M537 0h-152q-32 0 -55 23t-23 55v536h-188q-32 0 -55 23t-23 55v152q0 32 23 55t55 23h684q32 0 55 -23t23 -55v-152q0 -32 -23 -55t-55 -23h-189v-536q0 -32 -22.5 -55t-54.5 -23z" />
    <glyph glyph-name="afii10085" unicode="&#x443;" horiz-adv-x="1054" 
d="M524 500q15 -39 35 -127q8 77 23 129l104 360q7 26 29.5 43t48.5 17h145q42 0 70.5 -30t28.5 -69q0 -14 -7 -35l-307 -788q-68 -166 -124 -254t-112.5 -122t-135.5 -34q-97 0 -195 62q-33 23 -33 63q0 24 12 45l46 80q15 28 28 38.5t39 10.5q11 0 39 -8t49 -8q48 0 80 78
l21 49l-353 791q-8 16 -8 38q0 38 26.5 65.5t65.5 27.5h166q27 0 50 -16.5t34 -43.5z" />
    <glyph glyph-name="afii10086" unicode="&#x444;" horiz-adv-x="1433" 
d="M870 -25v-307q0 -32 -22.5 -55t-54.5 -23h-152q-32 0 -55 23t-23 55v307q-239 0 -370.5 136t-131.5 350q0 95 32.5 181.5t94 154.5t158.5 108.5t217 40.5v410q0 32 23 55t55 23h152q32 0 54.5 -23t22.5 -55v-410q160 0 275.5 -65.5t171 -174t55.5 -245.5
q0 -105 -30.5 -192t-90.5 -153.5t-157.5 -103.5t-223.5 -37zM563 659q-174 0 -174 -198q0 -92 42.5 -145t131.5 -54v397zM870 659v-397q174 0 174 199q0 84 -43 141t-131 57z" />
    <glyph glyph-name="afii10087" unicode="&#x445;" horiz-adv-x="1085" 
d="M436 866l113 -207l117 207q14 25 39 40.5t53 15.5h133q37 0 61.5 -25.5t24.5 -60.5q0 -28 -14 -48l-199 -305l221 -348q14 -20 14 -47q0 -36 -25 -62t-63 -26h-153q-28 0 -53.5 15t-38.5 40l-129 236l-140 -238q-13 -24 -38.5 -38.5t-53.5 -14.5h-133q-37 0 -61.5 25.5
t-24.5 60.5q0 27 14 47l217 334l-198 319q-15 24 -15 48q0 36 25.5 62t63.5 26h153q28 0 53 -15.5t37 -40.5z" />
    <glyph glyph-name="afii10088" unicode="&#x446;" horiz-adv-x="1167" 
d="M1069 -205h-131q-32 0 -55 23t-23 55v127h-670q-32 0 -54.5 23t-22.5 55v766q0 32 22.5 55t54.5 23h152q32 0 55 -23t23 -55v-557h266v557q0 32 23 55t55 23h151q32 0 55 -23t23 -55v-557h76q32 0 55 -23t23 -55v-336q0 -32 -23 -55t-55 -23z" />
    <glyph glyph-name="afii10089" unicode="&#x447;" horiz-adv-x="1024" 
d="M604 547v297q0 32 23 55t55 23h152q32 0 54.5 -23t22.5 -55v-766q0 -32 -22.5 -55t-54.5 -23h-152q-32 0 -55 23t-23 55v201q-86 -39 -205 -39q-181 0 -259.5 94.5t-78.5 275.5v234q0 32 23 55t55 23h172q32 0 55 -23t23 -55v-193q0 -61 26 -93t72 -32q73 0 117 21z" />
    <glyph glyph-name="afii10090" unicode="&#x448;" horiz-adv-x="1515" 
d="M1403 844v-766q0 -32 -23 -55t-55 -23h-1135q-32 0 -54.5 23t-22.5 55v766q0 32 22.5 55t54.5 23h152q32 0 55 -23t23 -55v-557h184v557q0 32 23 55t55 23h152q32 0 54.5 -23t22.5 -55v-557h185v557q0 32 23 55t55 23h151q32 0 55 -23t23 -55z" />
    <glyph glyph-name="afii10091" unicode="&#x449;" horiz-adv-x="1576" 
d="M1479 -205h-131q-32 0 -55 23t-23 55v127h-1080q-32 0 -54.5 23t-22.5 55v766q0 32 22.5 55t54.5 23h152q32 0 55 -23t23 -55v-557h184v557q0 32 23 55t55 23h152q32 0 54.5 -23t22.5 -55v-557h185v557q0 32 23 55t55 23h151q32 0 55 -23t23 -55v-557h76q32 0 54.5 -23
t22.5 -55v-336q0 -32 -22.5 -55t-54.5 -23z" />
    <glyph glyph-name="afii10092" unicode="&#x44a;" horiz-adv-x="1130" 
d="M647 0h-313q-32 0 -55 23t-23 55v557h-137q-32 0 -55 23t-23 55v131q0 32 23 55t55 23h366q32 0 55 -23t23 -55v-137h107q116 0 201 -28t131 -77t67 -105t21 -122q0 -72 -24.5 -136t-74.5 -119t-138.5 -87.5t-205.5 -32.5zM563 266h78q60 0 90.5 25.5t30.5 70.5
q0 99 -119 99h-80v-195z" />
    <glyph glyph-name="afii10093" unicode="&#x44b;" horiz-adv-x="1443" 
d="M420 707h96q116 0 201 -28t131 -77t67 -105t21 -122q0 -57 -14.5 -109t-48 -101.5t-83.5 -85.5t-126 -57.5t-170 -21.5h-304q-32 0 -54.5 23t-22.5 55v766q0 32 22.5 55t54.5 23h152q32 0 55 -23t23 -55v-137zM1331 844v-766q0 -32 -23 -55t-55 -23h-151q-32 0 -55 23
t-23 55v766q0 32 23 55t55 23h151q32 0 55 -23t23 -55zM420 266h67q60 0 90.5 25.5t30.5 70.5q0 99 -119 99h-69v-195z" />
    <glyph glyph-name="afii10094" unicode="&#x44c;" horiz-adv-x="987" 
d="M420 707h106q116 0 201 -28t131 -77t67 -105t21 -122q0 -57 -14.5 -109t-48 -101.5t-83.5 -85.5t-126 -57.5t-170 -21.5h-314q-32 0 -54.5 23t-22.5 55v766q0 32 22.5 55t54.5 23h152q32 0 55 -23t23 -55v-137zM420 266h78q60 0 90 25t30 71q0 99 -118 99h-80v-195z" />
    <glyph glyph-name="afii10095" unicode="&#x44d;" horiz-adv-x="1013" 
d="M193 295q29 0 61 -14q84 -39 168 -39q167 0 205 120h-291q-32 0 -55 23t-23 55v49q0 32 23 55t55 23h285q-25 58 -76.5 85.5t-116.5 27.5q-98 0 -176 -37q-20 -10 -47 -10q-49 0 -72 41l-41 67q-14 24 -14 45q0 43 41 68q149 92 309 92q241 0 380.5 -131t139.5 -354
q0 -136 -56.5 -244.5t-173.5 -175t-278 -66.5q-113 0 -192.5 24.5t-149.5 74.5q-32 22 -32 63q0 25 14 49l43 70q23 39 70 39z" />
    <glyph glyph-name="afii10096" unicode="&#x44e;" horiz-adv-x="1607" 
d="M440 317v-239q0 -32 -23 -55t-55 -23h-172q-32 0 -54.5 23t-22.5 55v766q0 32 22.5 55t54.5 23h172q32 0 55 -23t23 -55v-219h125q45 146 168.5 233.5t300.5 87.5q230 0 371 -137.5t141 -347.5q0 -209 -143 -347.5t-369 -138.5q-184 0 -309 93t-166 249h-119zM891 461
q0 -87 42.5 -132.5t110.5 -45.5q69 0 111.5 46t42.5 132q0 85 -40.5 131.5t-113.5 46.5q-68 0 -110.5 -47t-42.5 -131z" />
    <glyph glyph-name="afii10097" unicode="&#x44f;" horiz-adv-x="1003" 
d="M123 127l127 176q-62 33 -108 100t-46 172q0 73 28.5 134t86 109.5t154.5 76t225 27.5h239q32 0 55 -23t23 -55v-766q0 -32 -23 -55t-55 -23h-151q-32 0 -55 23t-23 55v158h-74l-112 -183q-15 -24 -41 -38.5t-54 -14.5h-131q-34 0 -58 24t-24 56q0 23 17 47zM600 461v194
h-59q-54 0 -85.5 -27t-31.5 -69q0 -46 34 -72t87 -26h55z" />
    <glyph glyph-name="afii10071" unicode="&#x451;" horiz-adv-x="1048" 
d="M932 358h-553q21 -63 78.5 -95t136.5 -32q92 0 166 27q21 8 45 8q51 0 72 -43l32 -65q9 -18 9 -37q0 -45 -37 -68q-82 -46 -154.5 -62t-165.5 -16q-227 0 -363.5 133.5t-136.5 352.5q0 134 61 244t176 175.5t263 65.5q119 0 220.5 -53t164 -153.5t62.5 -227.5
q0 -48 -7 -92q-3 -23 -24.5 -42.5t-44.5 -19.5zM700 563q0 51 -40 89t-109 38q-74 0 -116.5 -31.5t-65.5 -95.5h331zM367 1030q-72 0 -120 46.5t-48 129.5q0 76 48.5 121t119.5 45q62 0 108.5 -45.5t46.5 -120.5q0 -82 -46 -129t-109 -47zM762 1030q-71 0 -119.5 46.5
t-48.5 129.5q0 75 49 120.5t119 45.5q63 0 109.5 -45.5t46.5 -120.5q0 -82 -46 -129t-110 -47z" />
    </font>
</defs>
</svg>
