<?xml version="1.0" standalone="no"?>
<!DOCTYPE svg PUBLIC "-//W3C//DTD SVG 1.1//EN" "http://www.w3.org/Graphics/SVG/1.1/DTD/svg11.dtd" >
<svg xmlns="http://www.w3.org/2000/svg" xmlns:xlink="http://www.w3.org/1999/xlink" version="1.1">
<metadata>
Created by FontForge 20170731 at Fri Oct 23 17:21:29 2020
 By Aleksey,,,
Copyright (c) 2015 ParaType, Inc., ParaType Ltd. All rights reserved.
</metadata>
<defs>
<font id="CirceRounded-AltExtraBold" horiz-adv-x="1228" >
  <font-face 
    font-family="Circe Rounded Alt Extra Bold"
    font-weight="800"
    font-stretch="normal"
    units-per-em="2048"
    panose-1="2 15 8 2 2 2 3 2 2 3"
    ascent="1583"
    descent="-465"
    x-height="922"
    cap-height="1434"
    bbox="-1059 -655 2937 1960"
    underline-thickness="102"
    underline-position="-307"
    unicode-range="U+0020-FB02"
  />
<missing-glyph horiz-adv-x="409" 
 />
    <glyph glyph-name="uniF350.var.accented" unicode="&#xf350;`" horiz-adv-x="1259" 
d="M864 154h-479l-31 -72q-42 -102 -149 -102q-83 0 -123.5 66t-1.5 151l348 733q36 76 85 115.5t122 39.5t123 -39.5t86 -115.5l338 -715q19 -37 16.5 -78.5t-18 -76.5t-49.5 -57.5t-78 -22.5q-54 0 -95.5 27.5t-62.5 74.5zM627 696l-105 -235h207zM512 1395l137 139
q31 30 74.5 27.5t69.5 -35.5l53 -68q28 -34 21 -77t-44 -68l-151 -103q-38 -26 -84 -19t-78 44q-31 37 -30.5 82.5t32.5 77.5z" />
    <glyph glyph-name="uniF355.var.accented" unicode="&#xf355;`" horiz-adv-x="1040" 
d="M788 307q63 0 108.5 -45t45.5 -108t-45.5 -108.5t-108.5 -45.5h-487q-63 0 -108.5 45.5t-45.5 108.5v768q0 63 45.5 108t108.5 45h469q63 0 108.5 -45t45.5 -108t-45.5 -108.5t-108.5 -45.5h-295v-76h244q63 0 108 -45t45 -108t-45 -108.5t-108 -45.5h-244v-78h313z
M393 1395l137 139q31 30 74.5 27.5t69.5 -35.5l53 -68q28 -34 21.5 -77t-43.5 -68l-152 -103q-38 -26 -84 -19t-78 44q-31 37 -30.5 82.5t32.5 77.5z" />
    <glyph glyph-name="uniF358.var.accented" unicode="&#xf358;`" horiz-adv-x="1374" 
d="M1063 -20q-70 0 -117 44.5t-47 108.5v420l-393 -467q-89 -106 -189 -106q-78 0 -124 48t-46 126v778q0 64 47 108.5t117 44.5t117 -44.5t47 -108.5v-410l393 467q78 96 183 96q79 0 127.5 -48t48.5 -126v-778q0 -64 -47 -108.5t-117 -44.5zM557 1395l137 139
q31 30 74.5 27.5t69.5 -35.5l53 -68q28 -34 21 -77t-44 -68l-151 -103q-38 -26 -84 -19t-78 44q-31 37 -30.5 82.5t32.5 77.5z" />
    <glyph glyph-name="uniF35E.var.accented" unicode="&#xf35e;`" horiz-adv-x="1359" 
d="M680 1092q179 0 317.5 -65t218.5 -192.5t80 -299.5q0 -163 -79.5 -291.5t-220 -198.5t-316.5 -70q-179 0 -317.5 65.5t-219 193.5t-80.5 301q0 116 44 218t122.5 177t195.5 118.5t255 43.5zM680 283q137 0 202.5 69.5t65.5 182.5q0 116 -75.5 182.5t-192.5 66.5
q-121 0 -194.5 -66t-73.5 -183q0 -107 77.5 -179.5t190.5 -72.5zM578 1395l137 139q31 30 74 27.5t69 -35.5l53 -68q28 -34 21.5 -77t-43.5 -68l-152 -103q-38 -26 -84 -19t-78 44q-31 37 -30 82.5t33 77.5z" />
    <glyph glyph-name="uniF363.var.accented" unicode="&#xf363;`" horiz-adv-x="1161" 
d="M451 991l188 -311l149 305q22 45 62 72.5t88 27.5q89 0 127.5 -68t1.5 -140l-303 -607q-143 -290 -365 -290q-77 0 -131 28q-8 4 -17.5 10t-23 17.5t-23.5 27.5t-17 35.5t-6 45.5t12 55q13 36 35.5 57t47.5 27.5t54.5 7.5t56.5 -4q35 -5 68 45l16 24l-319 475
q-26 38 -27.5 83.5t17.5 83t58.5 62.5t90.5 25q102 0 160 -94zM520 1395l137 139q31 30 74.5 27.5t69.5 -35.5l53 -68q28 -34 21 -77t-44 -68l-151 -103q-38 -26 -84 -19t-78 44q-31 37 -30.5 82.5t32.5 77.5z" />
    <glyph glyph-name="uniF36B.var.accented" unicode="&#xf36b;`" horiz-adv-x="1568" 
d="M1421 932v-799q0 -64 -47 -108.5t-117 -44.5t-116.5 44.5t-46.5 108.5v799q0 64 46.5 108.5t116.5 44.5t117 -44.5t47 -108.5zM475 307q25 -4 57 -4q123 0 123 92q0 86 -123 86q-32 0 -57 -2v-172zM147 150v782q0 64 47 108.5t117 44.5t117 -44.5t47 -108.5v-148
q35 4 88 4q217 0 329 -102.5t112 -282.5t-134.5 -293.5t-375.5 -113.5q-35 0 -101 1t-96 1q-63 1 -106.5 45.5t-43.5 106.5zM643 1395l137 139q31 30 74.5 27.5t69.5 -35.5l53 -68q28 -34 21 -77t-44 -68l-151 -103q-38 -26 -84 -19t-78 44q-31 37 -30.5 82.5t32.5 77.5z
" />
    <glyph glyph-name="uniF36D.var.accented" unicode="&#xf36d;`" horiz-adv-x="1134" 
d="M162 20q-42 18 -69.5 46t-37 58t-8.5 59.5t12 56.5q24 54 75 76.5t120 2.5q106 -32 215 -32q99 0 164 22.5t98 85.5h-280q-63 0 -108.5 45.5t-45.5 108.5t45.5 108t108.5 45h258q-74 86 -250 86q-96 0 -168 -16q-78 -18 -130 4.5t-71 77.5q-23 67 6.5 118.5t98.5 78.5
q113 45 278 45q173 0 312.5 -69.5t220.5 -198t81 -293.5q0 -265 -176.5 -410t-484.5 -145q-174 0 -264 40zM362 1395l138 139q31 30 74 27.5t69 -35.5l53 -68q28 -34 21.5 -77t-43.5 -68l-152 -103q-38 -26 -84 -19t-78 44q-31 37 -30.5 82.5t32.5 77.5z" />
    <glyph glyph-name="uniF36E.var.accented" unicode="&#xf36e;`" horiz-adv-x="1810" 
d="M475 395v-262q0 -64 -47 -108.5t-117 -44.5t-117 44.5t-47 108.5v799q0 64 47 108.5t117 44.5t117 -44.5t47 -108.5v-230h115q46 179 190 286.5t367 107.5q284 0 442 -146.5t158 -410.5q0 -253 -160 -406t-440 -153q-220 0 -371 109t-192 306h-109zM1157 287
q125 0 183.5 69.5t58.5 182.5q0 119 -63.5 184t-178.5 65q-109 0 -174 -66t-65 -183q0 -110 64.5 -181t174.5 -71zM641 1395l137 139q31 30 74.5 27.5t69.5 -35.5l53 -68q28 -34 21 -77t-44 -68l-151 -103q-38 -26 -84 -19t-78 44q-31 37 -30.5 82.5t32.5 77.5z" />
    <glyph glyph-name="uniF36F.var.accented" unicode="&#xf36f;`" horiz-adv-x="1177" 
d="M1030 922v-789q0 -64 -47 -108.5t-117 -44.5t-117 44.5t-47 108.5v154h-145l-133 -213q-58 -94 -158 -94q-66 0 -109 38.5t-45 93t33 113.5l97 142q-154 103 -154 295q0 65 17.5 124.5t57 114t98.5 94.5t148 64t199 24q105 0 269 -4q64 -1 108.5 -46.5t44.5 -110.5z
M702 768q-20 8 -124 8q-65 0 -103.5 -23.5t-38.5 -68.5q0 -72 94 -90h172v174zM498 1395l137 139q31 30 74 27.5t69 -35.5l53 -68q28 -34 21.5 -77t-43.5 -68l-152 -103q-38 -26 -83.5 -19t-77.5 44q-31 37 -30.5 82.5t32.5 77.5z" />
    <glyph glyph-name="uniF371.var.accented" unicode="&#xf371;`" horiz-adv-x="1040" 
d="M319 1458q59 0 105.5 -42.5t46.5 -110.5q0 -74 -46 -118t-106 -44q-72 0 -119.5 43.5t-47.5 118.5q0 70 48 111.5t119 41.5zM768 1458q63 0 109.5 -42t46.5 -111q0 -74 -46 -118t-110 -44q-68 0 -116 43.5t-48 118.5q0 69 48 111t116 42zM788 307q63 0 108.5 -45
t45.5 -108t-45.5 -108.5t-108.5 -45.5h-487q-63 0 -108.5 45.5t-45.5 108.5v768q0 63 45.5 108t108.5 45h469q63 0 108.5 -45t45.5 -108t-45.5 -108.5t-108.5 -45.5h-295v-76h244q63 0 108 -45t45 -108t-45 -108.5t-108 -45.5h-244v-78h313zM442 1468q-32 46 -22.5 95.5
t49.5 89.5l111 112q28 28 67 25.5t64 -31.5l65 -84q25 -31 19.5 -69.5t-39.5 -61.5l-123 -84q-52 -36 -105 -35t-86 43z" />
    <glyph glyph-name="afii10017.var.accented" unicode="&#x410;`" horiz-adv-x="1458" 
d="M1090 84l-84 217h-568l-86 -217q-43 -104 -153 -104q-62 0 -103 42.5t-41 100.5q0 32 11 57l462 1123q61 151 203 151q74 0 120.5 -37t78.5 -112l461 -1106q12 -30 12 -62q0 -64 -46 -110.5t-114 -46.5q-54 0 -94 28.5t-59 75.5zM883 608l-160 406l-162 -406h322z
M606 1718l299 152q20 10 43 10q28 0 52 -15.5t36 -41.5l33 -80q8 -16 8 -37q0 -29 -17 -53t-46 -33l-318 -98q-18 -6 -34 -6q-34 0 -62 18t-41 49q-10 23 -10 43q0 28 15.5 53.5t41.5 38.5z" />
    <glyph glyph-name="afii10022.var.accented" unicode="&#x415;`" horiz-adv-x="1177" 
d="M512 307h389q63 0 108.5 -45t45.5 -108t-45.5 -108.5t-108.5 -45.5h-563q-63 0 -108.5 45.5t-45.5 108.5v1126q0 63 45.5 108.5t108.5 45.5h543q63 0 108 -45.5t45 -108.5t-45 -108.5t-108 -45.5h-369v-252h307q63 0 108.5 -45t45.5 -108t-45.5 -108.5t-108.5 -45.5h-307
v-260zM555 1718l299 152q20 10 43 10q28 0 52 -15.5t36 -41.5l33 -80q8 -16 8 -37q0 -29 -17 -53t-46 -33l-318 -98q-18 -6 -35 -6q-34 0 -61 18t-41 49q-10 23 -10 43q0 28 15.5 53.5t41.5 38.5z" />
    <glyph glyph-name="afii10026.var.accented" unicode="&#x418;`" horiz-adv-x="1617" 
d="M1434 1296v-1163q0 -64 -47 -108.5t-117 -44.5t-117 44.5t-47 108.5v758l-553 -774q-55 -77 -99 -107t-106 -30q-72 0 -118 46t-46 111v1163q0 64 47 109t117 45t117 -45t47 -109v-757l551 774q56 79 100 108t103 29q77 0 122.5 -43.5t45.5 -114.5zM739 1718l299 152
q20 10 43 10q28 0 52 -15.5t36 -41.5l33 -80q8 -16 8 -37q0 -29 -17 -53t-46 -33l-318 -98q-18 -6 -34 -6q-34 0 -62 18t-41 49q-10 23 -10 43q0 28 15.5 53.5t41.5 38.5z" />
    <glyph glyph-name="afii10032.var.accented" unicode="&#x41e;`" horiz-adv-x="1687" 
d="M844 -25q-163 0 -303 52t-241.5 147t-159.5 235t-58 308q0 155 55.5 291t153.5 235.5t241.5 157t311.5 57.5q218 0 390.5 -89t272 -258.5t99.5 -393.5q0 -160 -58 -298.5t-159 -235.5t-242 -152.5t-303 -55.5zM844 1151q-181 0 -297.5 -120t-116.5 -314
q0 -183 120.5 -308.5t293.5 -125.5q132 0 227 58.5t140.5 155.5t45.5 220q0 193 -118 313.5t-295 120.5zM760 1718l299 152q20 10 43 10q28 0 52 -15.5t36 -41.5l33 -80q8 -16 8 -37q0 -28 -17.5 -52.5t-46.5 -33.5l-317 -98q-18 -6 -35 -6q-34 0 -61 18t-41 49
q-11 26 -11 43q0 28 16 53.5t42 38.5z" />
    <glyph glyph-name="afii10037.var.accented" unicode="&#x423;`" horiz-adv-x="1400" 
d="M100 1305q0 63 46 106t112 43q53 0 94 -30t78 -95l344 -596l250 598q28 66 65 94.5t97 28.5q61 0 101 -35t40 -96q0 -37 -22 -92l-392 -891q-82 -188 -181 -275.5t-245 -87.5q-34 0 -84 11q-54 11 -92.5 54t-38.5 99q0 25 13 58q22 54 70 70t128 16q43 0 69 17t46 63
l18 43l-485 798q-31 54 -31 99zM637 1718l299 152q20 10 43 10q28 0 52 -15.5t36 -41.5l33 -80q8 -16 8 -37q0 -28 -17.5 -52.5t-46.5 -33.5l-317 -98q-18 -6 -35 -6q-34 0 -61 18t-41 49q-10 23 -10 43q0 28 15.5 53.5t41.5 38.5z" />
    <glyph glyph-name="afii10045.var.accented" unicode="&#x42b;`" horiz-adv-x="1812" 
d="M1300 1300q0 64 47 109t117 45t117 -45t47 -109v-1167q0 -64 -47 -108.5t-117 -44.5t-117 44.5t-47 108.5v1167zM512 676v-365q74 -8 96 -8q205 0 205 199q0 92 -54.5 138t-148.5 46q-30 0 -98 -10zM569 -4q-41 0 -118.5 1t-112.5 1q-65 2 -109.5 47t-44.5 109v1146
q0 64 47 109t117 45t117 -45t47 -109v-315q68 8 127 8q258 0 390 -128.5t132 -354.5q0 -234 -156 -374t-436 -140zM780 1718l299 152q20 10 43 10q28 0 52 -15.5t36 -41.5l33 -80q8 -16 8 -37q0 -29 -17 -53t-46 -33l-318 -98q-18 -6 -34 -6q-34 0 -62 18t-41 49
q-10 23 -10 43q0 28 15.5 53.5t41.5 38.5z" />
    <glyph glyph-name="afii10047.var.accented" unicode="&#x42d;`" horiz-adv-x="1349" 
d="M172 45q-98 55 -98 150q0 64 41 104.5t102 40.5q32 0 127.5 -28.5t159.5 -28.5q154 0 271.5 73t156.5 222h-422q-63 0 -108.5 45t-45.5 108t45.5 108.5t108.5 45.5h410q-47 129 -164.5 197.5t-282.5 68.5q-65 0 -148 -27.5t-116 -27.5q-55 0 -95 41.5t-40 97.5
q0 101 108 149q166 74 371 74q207 0 371 -91.5t258 -261t94 -388.5q0 -345 -206.5 -543.5t-559.5 -198.5q-210 0 -338 70zM459 1718l299 152q20 10 43 10q28 0 52 -15.5t36 -41.5l33 -80q8 -16 8 -37q0 -28 -17.5 -52.5t-46.5 -33.5l-317 -98q-18 -6 -35 -6q-34 0 -61 18
t-41 49q-11 26 -11 43q0 28 16 53.5t42 38.5z" />
    <glyph glyph-name="afii10048.var.accented" unicode="&#x42e;`" horiz-adv-x="2220" 
d="M686 578h-174v-445q0 -64 -47 -108.5t-117 -44.5t-117 44.5t-47 108.5v1167q0 64 47 109t117 45t117 -45t47 -109v-415h180q51 255 239.5 414t465.5 159q217 0 384.5 -89t262 -258t94.5 -394q0 -161 -55 -299t-152 -235.5t-235 -152.5t-299 -55q-177 0 -327.5 71.5
t-252.5 209.5t-131 322zM1407 1151q-165 0 -274 -120t-109 -314q0 -183 112.5 -308.5t270.5 -125.5q99 0 174 33.5t120 93.5t67 137t22 170q0 196 -105 315t-278 119zM1067 1718l299 152q20 10 43 10q28 0 52 -15.5t36 -41.5l33 -80q8 -16 8 -37q0 -29 -17 -53t-46 -33
l-318 -98q-18 -6 -35 -6q-34 0 -61 18t-41 49q-10 23 -10 43q0 28 15.5 53.5t41.5 38.5z" />
    <glyph glyph-name="afii10049.var.accented" unicode="&#x42f;`" horiz-adv-x="1296" 
d="M731 1442q59 0 227 -4q65 -3 109.5 -48.5t44.5 -109.5v-1147q0 -64 -47 -108.5t-117 -44.5t-117 44.5t-47 108.5v328h-145l-233 -391q-53 -90 -150 -90q-63 0 -105 42.5t-42 102.5q0 51 28 94l199 313q-100 59 -160.5 157t-60.5 235q0 83 21 157.5t68.5 141t117.5 115
t175 76.5t234 28zM784 768v358q-45 9 -118 9q-85 0 -144 -51.5t-59 -137.5q0 -75 42.5 -120t106.5 -58h172zM616 1718l299 152q20 10 43 10q28 0 52.5 -15.5t36.5 -41.5l32 -80q8 -16 8 -37q0 -29 -17 -53t-46 -33l-317 -98q-18 -6 -35 -6q-34 0 -62 18t-41 49
q-10 23 -10 43q0 28 15.5 53.5t41.5 38.5z" />
    <glyph glyph-name="afii10023.var.accented" unicode="&#x401;`" horiz-adv-x="1177" 
d="M295 1538q-66 0 -109 45.5t-43 128.5q0 74 43.5 118t108.5 44q57 0 100 -44.5t43 -117.5q0 -82 -42.5 -128t-100.5 -46zM963 1538q-65 0 -109.5 46t-44.5 128q0 74 45 118t109 44q58 0 99.5 -44t41.5 -118q0 -82 -41 -128t-100 -46zM627 1604q-28 -31 -52 -41
q-15 -9 -30 -9q-29 0 -50.5 21.5t-21.5 50.5q0 13 2 19l33 122q12 43 21.5 68t33.5 48.5t58 23.5q21 0 63 -17q34 -14 55 -40t21 -58q0 -37 -35 -78zM512 307h389q63 0 108.5 -45t45.5 -108t-45.5 -108.5t-108.5 -45.5h-563q-63 0 -108.5 45.5t-45.5 108.5v1126
q0 63 45.5 108.5t108.5 45.5h543q63 0 108 -45.5t45 -108.5t-45 -108.5t-108 -45.5h-369v-252h307q63 0 108.5 -45t45.5 -108t-45.5 -108.5t-108.5 -45.5h-307v-260z" />
    <glyph glyph-name="afii10065.var.accented" unicode="&#x430;`" horiz-adv-x="952" 
d="M352 -20q-127 0 -209 81t-82 218q0 150 93.5 227.5t238.5 77.5q56 0 105.5 -16t74.5 -36v19q0 70 -33.5 104.5t-93.5 34.5q-62 0 -129 -18q-12 -4 -34 -4q-39 0 -69.5 22.5t-43.5 63.5q-6 15 -6 32q0 39 27.5 73t70.5 52q95 35 215 35q204 0 293.5 -98t89.5 -293v-424
q0 -70 -39 -110.5t-92 -40.5q-105 0 -135 104q-32 -52 -97.5 -78t-144.5 -26zM573 291v57q-45 31 -116 31q-39 0 -63.5 -18.5t-24.5 -51.5q0 -31 25 -51t63 -20q78 0 116 53zM393 1255l96 160q27 49 86 49q34 0 60 -20l63 -47q39 -29 39 -82q0 -41 -24 -68l-121 -135
q-33 -39 -92 -39q-39 0 -72 23q-53 35 -53 96q0 33 18 63z" />
    <glyph glyph-name="afii10070.var.accented" unicode="&#x435;`" horiz-adv-x="1048" 
d="M369 563h331q0 51 -40 89t-109 38q-74 0 -116.5 -31.5t-65.5 -95.5zM561 946q119 0 220.5 -53t164 -153.5t62.5 -227.5v-41q0 -55 -37 -84t-82 -29h-510q21 -63 78.5 -95t136.5 -32q56 0 129 21q21 6 41 6q36 0 64.5 -19.5t41.5 -54.5q9 -21 9 -43q0 -36 -22 -69.5
t-62 -53.5q-84 -43 -234 -43q-227 0 -363.5 133.5t-136.5 352.5q0 134 61 244t176 175.5t263 65.5zM442 1255l97 160q27 49 86 49q33 0 59 -20l64 -47q38 -28 38 -82q0 -41 -24 -68l-121 -135q-33 -39 -92 -39q-39 0 -72 23q-53 35 -53 96q0 33 18 63z" />
    <glyph glyph-name="afii10074.var.accented" unicode="&#x438;`" horiz-adv-x="1167" 
d="M1055 778v-655q0 -59 -44.5 -101t-109.5 -42t-109 42t-44 101v358l-265 -387q-78 -114 -202 -114q-77 0 -122.5 45t-45.5 118v645q0 59 44 101.5t109 42.5t109.5 -42.5t44.5 -101.5v-348l250 367q45 67 93 96t120 29q76 0 124 -46t48 -108zM465 1255l96 160q27 49 86 49
q34 0 60 -20l63 -47q39 -29 39 -82q0 -40 -25 -68l-120 -135q-33 -39 -93 -39q-38 0 -71 23q-54 35 -54 96q0 31 19 63z" />
    <glyph glyph-name="afii10080.var.accented" unicode="&#x43e;`" horiz-adv-x="1146" 
d="M573 -25q-232 0 -372 137.5t-140 348.5t140 348t372 137t372 -137t140 -348t-140 -348.5t-372 -137.5zM573 659q-77 0 -130.5 -54t-53.5 -144q0 -87 52.5 -143t131.5 -56q80 0 132.5 54t52.5 145q0 88 -53.5 143t-131.5 55zM475 1255l96 160q27 49 86 49q34 0 60 -20
l63 -47q39 -29 39 -82q0 -41 -24 -68l-121 -135q-33 -39 -92 -39q-39 0 -72 23q-53 35 -53 96q0 33 18 63z" />
    <glyph glyph-name="afii10085.var.accented" unicode="&#x443;`" horiz-adv-x="1044" 
d="M393 825l121 -325q15 -39 35 -127q8 82 22 129l95 319q13 49 53.5 80t91.5 31q74 0 119 -45t45 -109q0 -33 -12 -63l-279 -715q-63 -163 -122.5 -254t-115.5 -123.5t-131 -32.5q-59 0 -122 29q-35 17 -54.5 49.5t-19.5 69.5q0 28 8 49q21 54 59.5 71t100.5 17q60 0 90 76
l20 49l-313 700q-14 32 -14 70q0 67 49 114.5t123 47.5q112 0 151 -107zM399 1255l97 160q27 49 86 49q33 0 59 -20l64 -47q38 -28 38 -82q0 -41 -24 -68l-121 -135q-33 -39 -92 -39q-39 0 -72 23q-53 35 -53 96q0 33 18 63z" />
    <glyph glyph-name="afii10093.var.accented" unicode="&#x44b;`" horiz-adv-x="1443" 
d="M420 707h96q116 0 201 -28t131 -77t67 -105t21 -122q0 -57 -14.5 -109t-48 -101.5t-83.5 -85.5t-126 -57.5t-170 -21.5h-238q-58 0 -100.5 42t-42.5 101v645q0 59 44 101.5t109 42.5t109.5 -42.5t44.5 -101.5v-81zM1024 788q0 59 44.5 101.5t109.5 42.5t109 -42.5
t44 -101.5v-665q0 -59 -44 -101t-109 -42t-109.5 42t-44.5 101v665zM420 461v-195h67q60 0 90.5 25.5t30.5 70.5q0 99 -119 99h-69zM557 1255l96 160q27 49 86 49q34 0 60 -20l63 -47q39 -29 39 -82q0 -41 -24 -68l-121 -135q-33 -39 -92 -39q-39 0 -72 23q-53 35 -53 96
q0 33 18 63z" />
    <glyph glyph-name="afii10095.var.accented" unicode="&#x44d;`" horiz-adv-x="999" 
d="M82 152q0 39 18 69q42 62 105 62q29 0 71 -17q58 -24 136 -24q166 0 204 120h-266q-43 0 -72.5 30t-29.5 73t29.5 72.5t72.5 29.5h260q-25 58 -76 85.5t-116 27.5q-63 0 -146 -27q-33 -10 -59 -10q-68 0 -104 64q-19 36 -19 67q0 77 76 119q43 24 112.5 38.5t133.5 14.5
q245 0 385.5 -130.5t140.5 -354.5q0 -136 -56.5 -244.5t-173.5 -175t-278 -66.5q-191 0 -295 68q-53 36 -53 109zM317 1255l97 160q27 49 86 49q33 0 59 -20l64 -47q39 -29 39 -82q0 -40 -25 -68l-121 -135q-33 -39 -92 -39q-39 0 -72 23q-53 35 -53 96q0 33 18 63z" />
    <glyph glyph-name="afii10096.var.accented" unicode="&#x44e;`" horiz-adv-x="1607" 
d="M559 317h-119v-194q0 -60 -46.5 -101.5t-119.5 -41.5q-71 0 -116 41.5t-45 101.5v665q0 60 45.5 102t115.5 42q73 0 119.5 -42t46.5 -102v-163h125q45 146 168.5 233.5t300.5 87.5q230 0 371 -137.5t141 -347.5q0 -209 -143 -347.5t-369 -138.5q-184 0 -309 93t-166 249z
M1044 639q-68 0 -110.5 -47t-42.5 -131q0 -87 42.5 -132.5t110.5 -45.5q69 0 111.5 46t42.5 132q0 85 -40.5 131.5t-113.5 46.5zM711 1255l96 160q27 49 86 49q33 0 59 -20l64 -47q39 -29 39 -82q0 -40 -25 -68l-121 -135q-33 -39 -92 -39q-39 0 -72 23q-53 35 -53 96
q0 31 19 63z" />
    <glyph glyph-name="afii10097.var.accented" unicode="&#x44f;`" horiz-adv-x="1011" 
d="M416 68q-31 -51 -65.5 -69.5t-76.5 -18.5q-63 0 -99 36t-36 90q0 55 37 107l66 90q-62 33 -108 100t-46 172q0 73 28.5 134t86 109.5t154.5 76t225 27.5h174q58 0 100.5 -42.5t42.5 -101.5v-655q0 -59 -44.5 -101t-109.5 -42t-109 42t-44 101v113h-74zM537 461h55v194
h-60q-52 0 -84 -32t-32 -72q0 -37 35 -63.5t86 -26.5zM430 1255l96 160q27 49 86 49q34 0 60 -20l63 -47q39 -29 39 -82q0 -41 -24 -68l-121 -135q-33 -39 -92 -39q-39 0 -72 23q-53 35 -53 96q0 33 18 63z" />
    <glyph glyph-name="afii10071.var.accented" unicode="&#x451;`" horiz-adv-x="1040" 
d="M233 1032q-59 0 -98 38t-39 106q0 63 39 99t98 36q51 0 89 -37t38 -98q0 -67 -38 -105.5t-89 -38.5zM877 1032q-58 0 -98 38t-40 106q0 62 40 98.5t98 36.5q52 0 89.5 -36.5t37.5 -98.5q0 -67 -37 -105.5t-90 -38.5zM719 1243l-117 -127q-36 -45 -88 -45q-31 0 -55 19
q-33 21 -33 69q0 40 18 70l93 155q13 23 37 36.5t51 13.5q34 0 61 -21l19 -14q40 -30 40 -84q0 -43 -26 -72zM369 563h331q0 51 -40 89t-109 38q-74 0 -116.5 -31.5t-65.5 -95.5zM379 358q21 -63 78.5 -95t136.5 -32q56 0 129 21q21 6 41 6q36 0 64.5 -19.5t41.5 -54.5
q9 -21 9 -43q0 -36 -22 -69.5t-62 -53.5q-84 -43 -234 -43q-227 0 -363.5 133.5t-136.5 352.5q0 134 61 244t176 175.5t263 65.5q183 0 310.5 -121t127.5 -313v-41q0 -50 -36 -81.5t-74 -31.5h-510z" />
    <glyph glyph-name="fi" unicode="fi" horiz-adv-x="1120" 
d="M420 922h444q58 0 101 -43t43 -101v-655q0 -59 -44.5 -101t-109.5 -42t-109.5 42t-44.5 101v512h-280v-512q0 -59 -44.5 -101t-109.5 -42t-109 42t-44 101v901q0 219 117.5 326.5t320.5 107.5q126 0 216.5 -32.5t137.5 -79.5q43 -40 43 -99q0 -48 -30 -86
q-43 -49 -103 -49q-39 0 -102 29q-59 30 -131 30q-79 0 -120.5 -37t-41.5 -130v-82z" />
    <glyph glyph-name="fl" unicode="fl" horiz-adv-x="1179" 
d="M973 1257v-895q0 -54 14.5 -73t56.5 -27q105 -20 105 -123q0 -58 -26.5 -95.5t-69.5 -51.5q-52 -17 -99 -17q-74 0 -131 23t-90.5 64t-50 91.5t-16.5 110.5v862q-65 45 -125 45q-121 0 -121 -118v-131q56 0 95.5 -41.5t39.5 -104.5q0 -62 -39 -101.5t-96 -39.5v-512
q0 -59 -44.5 -101t-109.5 -42t-109 42t-44 101v948q0 188 89.5 287.5t246.5 99.5q155 0 243 -57h137q59 0 101.5 -42.5t42.5 -101.5z" />
    <glyph glyph-name=".notdef" horiz-adv-x="409" 
 />
    <glyph glyph-name=".null" horiz-adv-x="0" 
 />
    <glyph glyph-name="nonmarkingreturn" horiz-adv-x="682" 
 />
    <glyph glyph-name="space" unicode=" " horiz-adv-x="409" 
 />
    <glyph glyph-name="exclam" unicode="!" horiz-adv-x="634" 
d="M154 1280q0 64 46.5 109t116.5 45t117 -45t47 -109v-573q0 -64 -47 -109t-117 -45t-116.5 45t-46.5 109v573zM326 -12q-95 0 -152 61.5t-57 147.5q0 74 58 133t151 59q82 0 137 -59.5t55 -132.5q0 -85 -54 -147t-138 -62z" />
    <glyph glyph-name="quotedbl" unicode="&#x22;" horiz-adv-x="921" 
d="M819 1280v-225q0 -63 -45 -108.5t-108 -45.5q-65 0 -109.5 45t-44.5 109v225q0 63 45.5 108.5t108.5 45.5t108 -45.5t45 -108.5zM410 1280v-225q0 -63 -45.5 -108.5t-108.5 -45.5q-65 0 -109.5 45t-44.5 109v225q0 63 45.5 108.5t108.5 45.5t108.5 -45.5t45.5 -108.5z
" />
    <glyph glyph-name="numbersign" unicode="#" horiz-adv-x="1523" 
d="M1315 338h-314l-90 -244q-13 -38 -45 -61t-71 -23q-24 0 -43 8q-38 13 -60 45.5t-22 71.5q0 22 6 43l59 160h-246l-90 -244q-15 -38 -49 -61t-74 -23q-22 0 -43 6q-37 13 -59 45t-22 70q0 20 6 41l57 166q-57 0 -95 38t-38 95t37 95t90 38h110l84 225h-194
q-53 0 -90 38.5t-37 95.5t37 95t90 38h293l90 243q13 37 47.5 59.5t73.5 22.5q22 0 43 -6q38 -13 60 -45.5t22 -71.5q0 -24 -9 -45l-57 -157h242l90 243q15 38 49 61t74 23q22 0 43 -6q37 -14 59.5 -44.5t22.5 -67.5q0 -22 -9 -43l-61 -166h33q53 0 90 -38t37 -95t-37 -95.5
t-90 -38.5h-131l-84 -225h215q53 0 90 -38t37 -95t-37 -95t-90 -38zM672 829l-84 -225h246l81 225h-243z" />
    <glyph glyph-name="dollar" unicode="$" horiz-adv-x="1204" 
d="M446 -51v45q-123 27 -204 84q-84 58 -84 151q0 69 44.5 107.5t92.5 38.5q37 0 75.5 -14.5t67 -31.5t75.5 -31.5t99 -14.5q50 0 82.5 30t32.5 80q0 43 -33 79t-85.5 64t-116.5 57.5t-128 68.5t-116.5 87.5t-85.5 124.5t-33 170q0 132 86 240t231 150v30q0 63 45.5 108.5
t108.5 45.5q64 0 109 -47t45 -117q61 -16 129 -47q47 -22 80.5 -64.5t33.5 -91.5q0 -69 -41 -110t-110 -41q-36 0 -108 25.5t-136 25.5q-57 0 -91 -31t-34 -76q0 -42 25.5 -77t67.5 -59t96 -50.5t110 -51t110 -62.5t96 -82.5t67.5 -112.5t25.5 -152q0 -151 -86.5 -258.5
t-234.5 -144.5v-45q0 -63 -45.5 -108.5t-108.5 -45.5t-108.5 45.5t-45.5 108.5z" />
    <glyph glyph-name="percent" unicode="%" horiz-adv-x="1935" 
d="M1493 1243l-883 -1182q-34 -43 -94 -43q-36 0 -61 19q-41 29 -41 82q0 40 28 78l879 1175q34 43 88 43q38 0 64 -20q43 -34 43 -86q0 -36 -23 -66zM494 692q-191 0 -312 106t-121 279t121 277t312 104t311.5 -104t120.5 -277t-120.5 -279t-311.5 -106zM494 1212
q-65 0 -105.5 -36.5t-40.5 -98.5q0 -65 40.5 -102t105.5 -37q67 0 106 37t39 102q0 62 -40 98.5t-105 36.5zM1442 -25q-191 0 -311.5 106t-120.5 279t120.5 277t311.5 104t311.5 -104t120.5 -277t-120.5 -279t-311.5 -106zM1442 496q-65 0 -105.5 -37t-40.5 -99
q0 -65 40.5 -102t105.5 -37q67 0 106 37t39 102q0 62 -40 99t-105 37z" />
    <glyph glyph-name="ampersand" unicode="&#x26;" horiz-adv-x="1533" 
d="M1098 770q12 74 52 113t101 39q70 0 112 -43t42 -121q0 -85 -55 -212t-127 -216l82 -105q36 -44 36 -100q0 -59 -44 -102t-107 -43q-81 0 -148 86l-41 53q-32 -29 -62.5 -50t-78.5 -45t-113 -36.5t-143 -12.5q-228 0 -365 116t-137 298q0 87 20.5 155t65.5 124t90 94
t121 92q-141 97 -141 279q0 149 108.5 237t256.5 88q96 0 178 -36.5t135 -112.5t53 -176q0 -88 -46.5 -167t-111.5 -114l205 -283q35 54 62 201zM451 453q0 -68 46.5 -119t116.5 -51q141 0 215 71l-229 324q-91 -78 -120 -124.5t-29 -100.5zM623 1212q-34 0 -56 -22t-22 -57
q0 -32 22 -55t56 -23q35 0 57 23t22 55q0 33 -23 56t-56 23z" />
    <glyph glyph-name="quotesingle" unicode="'" horiz-adv-x="512" 
d="M410 1280v-225q0 -63 -45.5 -108.5t-108.5 -45.5q-65 0 -109.5 45t-44.5 109v225q0 63 45.5 108.5t108.5 45.5t108.5 -45.5t45.5 -108.5z" />
    <glyph glyph-name="parenleft" unicode="(" horiz-adv-x="681" 
d="M635 1165q0 -48 -33 -84q-107 -134 -160 -284t-53 -336q0 -174 59.5 -334.5t155.5 -286.5q33 -39 33 -84q0 -58 -49 -98q-39 -31 -88 -31q-58 0 -97 39q-321 332 -321 795q0 451 324 794q39 39 96 39q52 0 86 -30q47 -41 47 -99z" />
    <glyph glyph-name="parenright" unicode=")" horiz-adv-x="681" 
d="M178 1294q56 0 98 -39q324 -343 324 -794q0 -463 -321 -795q-39 -39 -97 -39q-49 0 -88 31q-49 40 -49 98q0 45 33 84q96 126 155.5 286.5t59.5 334.5q0 186 -53 336t-160 284q-33 39 -33 84q0 58 47 99q34 30 84 30z" />
    <glyph glyph-name="asterisk" unicode="*" horiz-adv-x="1056" 
d="M528 1159q-61 0 -104 43t-43 105t43 105.5t104 43.5q62 0 106 -44t44 -105t-44 -104.5t-106 -43.5zM524 477q-61 0 -104 43t-43 105t43 105.5t104 43.5q62 0 106 -44t44 -105t-44 -104.5t-106 -43.5zM825 993q-61 0 -104 43t-43 105t43 105.5t104 43.5q62 0 106 -44
t44 -105t-44 -104.5t-106 -43.5zM825 653q-61 0 -104 43t-43 105t43 105.5t104 43.5q62 0 106 -44t44 -105t-44 -104.5t-106 -43.5zM229 653q-61 0 -104 43t-43 105t43 105.5t104 43.5q62 0 106 -44t44 -105t-44 -104.5t-106 -43.5zM229 993q-61 0 -104 43t-43 105t43 105.5
t104 43.5q62 0 106 -44t44 -105t-44 -104.5t-106 -43.5z" />
    <glyph glyph-name="plus" unicode="+" 
d="M469 383v221h-207q-56 0 -94.5 39t-38.5 94t38.5 94t94.5 39h207v217q0 56 40.5 95t102.5 39t103 -39t41 -95v-217h211q55 0 94 -39t39 -94t-39 -94t-94 -39h-211v-221q0 -56 -41 -94.5t-103 -38.5t-102.5 38.5t-40.5 94.5z" />
    <glyph glyph-name="comma" unicode="," horiz-adv-x="575" 
d="M276 8v6q-14 -14 -51 -14h-12q-52 0 -91.5 48t-39.5 118q0 86 51.5 138t147.5 52q99 0 156 -72.5t57 -185.5q0 -123 -56 -216.5t-162 -145.5q-13 -8 -34 -8q-23 0 -45.5 11t-32.5 28q-14 22 -14 49q0 40 40 67q21 15 46 43q40 47 40 82z" />
    <glyph glyph-name="hyphen" unicode="-" horiz-adv-x="745" 
d="M502 707q59 0 100 -42t41 -102t-41 -101.5t-100 -41.5h-258q-59 0 -100.5 41.5t-41.5 101.5t41.5 102t100.5 42h258z" />
    <glyph glyph-name="period" unicode="." horiz-adv-x="565" 
d="M291 389q82 0 137 -59.5t55 -132.5q0 -85 -54 -147t-138 -62q-95 0 -152 61.5t-57 147.5q0 74 58 133t151 59z" />
    <glyph glyph-name="slash" unicode="/" horiz-adv-x="790" 
d="M805 1253l-582 -1562q-13 -36 -45.5 -58t-71.5 -22q-26 0 -47 8q-36 13 -57.5 46.5t-21.5 72.5q0 20 6 41l583 1562q13 36 46.5 58t72.5 22q22 0 43 -6q36 -13 58 -47.5t22 -73.5q0 -20 -6 -41z" />
    <glyph glyph-name="zero" unicode="0" horiz-adv-x="1114" 
d="M557 1450q245 0 370.5 -195t125.5 -538q0 -344 -124 -538.5t-368 -194.5q-245 0 -372.5 195t-127.5 538t125.5 538t370.5 195zM561 270q89 0 126.5 99t37.5 348q0 248 -39 347t-129 99q-88 0 -128 -102t-40 -344q0 -447 172 -447z" />
    <glyph glyph-name="one" unicode="1" horiz-adv-x="772" 
d="M311 133v864l-22 -16q-49 -34 -109 -21.5t-92 64.5q-34 54 -22.5 116t61.5 97l217 158q51 39 119 39q64 0 109.5 -45.5t45.5 -108.5v-1147q0 -63 -45 -108t-108 -45t-108.5 45t-45.5 108z" />
    <glyph glyph-name="two" unicode="2" horiz-adv-x="1060" 
d="M834 0h-627q-70 0 -118 41t-48 115q0 79 78 153q196 191 274 280q209 240 209 412q0 142 -125 142q-59 0 -110 -51q-43 -43 -102 -52.5t-103 19.5q-47 31 -57.5 91t30.5 130q48 76 145 123t228 47q199 0 310.5 -112.5t111.5 -274.5q0 -405 -479 -776h383
q62 0 103.5 -39.5t41.5 -95.5q0 -66 -42 -109t-103 -43z" />
    <glyph glyph-name="three" unicode="3" horiz-adv-x="1056" 
d="M915 1092q0 -125 -52 -205.5t-161 -132.5q130 -29 199.5 -120.5t69.5 -223.5q0 -198 -138.5 -316.5t-349.5 -118.5q-121 0 -217.5 33t-154.5 86q-48 43 -57.5 106t26.5 111q27 36 64.5 50t74 8t70.5 -27q87 -59 174 -59q89 0 134.5 39.5t45.5 99.5q0 160 -190 160
q-74 0 -122 38t-48 113t45.5 113.5t113.5 38.5q61 0 103.5 37.5t42.5 107.5q0 51 -32 86t-99 35q-82 0 -146 -37q-56 -33 -115 -22.5t-92 63.5q-16 26 -21.5 59.5t9.5 75t55 72.5q129 96 338 96q191 0 310.5 -99.5t119.5 -266.5z" />
    <glyph glyph-name="four" unicode="4" horiz-adv-x="1185" 
d="M977 307v-153q0 -63 -45.5 -108.5t-108.5 -45.5t-108 45.5t-45 108.5v153h-498q-66 0 -113 42t-47 110q0 40 12.5 74t45.5 92l405 712q56 97 154 97q45 0 80 -21.5t51.5 -54t15.5 -73t-22 -77.5l-340 -594h256v154q0 63 45 108.5t108 45.5t108.5 -45.5t45.5 -108.5v-154
q69 0 118.5 -45t49.5 -108t-49.5 -108.5t-118.5 -45.5z" />
    <glyph glyph-name="five" unicode="5" horiz-adv-x="1015" 
d="M440 283q83 0 135 50t52 130q0 91 -70 148t-197 57q-237 0 -210 235l47 379q8 65 57 108.5t115 43.5h401q63 0 108.5 -45.5t45.5 -108.5t-45.5 -108.5t-108.5 -45.5h-285l-28 -182h49q93 0 174.5 -32t142.5 -91t96 -148t35 -196q0 -157 -70 -272t-187 -172.5t-265 -57.5
q-75 0 -152 19.5t-133 56.5q-64 42 -81 110t20 122q68 100 219 30q72 -30 135 -30z" />
    <glyph glyph-name="six" unicode="6" horiz-adv-x="1155" 
d="M698 893q103 0 193 -53.5t146.5 -154.5t56.5 -228q0 -93 -27.5 -172.5t-74.5 -135.5t-109.5 -96t-131.5 -59t-141 -19q-117 0 -216.5 42t-167.5 114.5t-106 170t-38 206.5q0 135 35.5 262t93.5 225.5t134 181.5t154.5 138.5t157.5 89.5q63 28 115.5 17t81.5 -60
q17 -33 17.5 -67.5t-25 -70t-72.5 -61.5q-111 -60 -196.5 -149.5t-131.5 -198.5q45 42 104 60t148 18zM612 283q76 0 115 44.5t39 106.5q0 76 -45.5 124t-128.5 48q-112 0 -182 -100q0 -103 53 -163t149 -60z" />
    <glyph glyph-name="seven" unicode="7" horiz-adv-x="1044" 
d="M530 84q-19 -46 -61 -75t-92 -29q-80 0 -125 65.5t-14 140.5l378 940h-421q-63 0 -108.5 45.5t-45.5 108.5t45.5 108.5t108.5 45.5h634q63 0 108.5 -46t45.5 -110q0 -54 -20 -102z" />
    <glyph glyph-name="eight" unicode="8" horiz-adv-x="1239" 
d="M774 1024q0 61 -40.5 94t-117.5 33q-75 0 -113 -36t-38 -91q0 -53 36.5 -93t106.5 -40h27q67 0 103 40t36 93zM430 432q0 -65 46.5 -107t141.5 -42q195 0 191 149q-1 74 -49 113t-125 39h-25q-74 0 -127 -40t-53 -112zM1102 1079q0 -106 -55 -198.5t-150 -141.5
q101 -30 170.5 -120t69.5 -222q0 -198 -143 -310t-373 -112q-228 0 -373.5 108t-145.5 288q0 136 61.5 228.5t158.5 137.5q-79 45 -132 131.5t-53 210.5q0 166 138.5 272.5t342.5 106.5t344 -106.5t140 -272.5z" />
    <glyph glyph-name="nine" unicode="9" horiz-adv-x="1144" 
d="M475 520q-116 0 -215 56.5t-159 159.5t-60 231q0 93 28.5 173.5t77.5 137.5t112.5 98.5t133.5 61.5t142 20q239 0 383.5 -151t144.5 -402q0 -186 -48 -342.5t-133 -267.5t-194 -185t-237 -108q-68 -18 -122.5 2t-72.5 78q-39 125 104 182q133 54 215.5 136t122.5 198
q-83 -78 -223 -78zM532 1151q-76 0 -119.5 -50t-43.5 -112q0 -76 50 -129t134 -53q112 0 182 100q0 105 -54.5 174.5t-148.5 69.5z" />
    <glyph glyph-name="colon" unicode=":" horiz-adv-x="647" 
d="M332 946q82 0 137 -59.5t55 -132.5q0 -85 -54 -147t-138 -62q-95 0 -152 61.5t-57 147.5q0 74 58 133t151 59zM332 389q82 0 137 -59.5t55 -132.5q0 -85 -54 -147t-138 -62q-95 0 -152 61.5t-57 147.5q0 74 58 133t151 59z" />
    <glyph glyph-name="semicolon" unicode=";" horiz-adv-x="661" 
d="M332 946q82 0 137 -59.5t55 -132.5q0 -85 -54 -147t-138 -62q-95 0 -152 61.5t-57 147.5q0 74 58 133t151 59zM322 8v6q-14 -14 -52 -14h-12q-52 0 -91.5 48t-39.5 118q0 86 51.5 138t147.5 52q99 0 156 -72.5t57 -185.5q0 -123 -55.5 -216.5t-161.5 -145.5
q-13 -8 -35 -8q-23 0 -45.5 11t-32.5 28q-14 22 -14 49q0 40 41 67q19 13 45 43q41 48 41 82z" />
    <glyph glyph-name="less" unicode="&#x3c;" horiz-adv-x="1214" 
d="M170 864l688 385q44 23 80 23q56 0 94.5 -39.5t38.5 -104.5q0 -43 -26.5 -81.5t-77.5 -63.5l-478 -242l478 -245q51 -25 77.5 -64t26.5 -82q0 -64 -41 -101.5t-98 -37.5q-40 0 -74 18l-688 389q-94 54 -94 130q0 62 94 116z" />
    <glyph glyph-name="equal" unicode="=" 
d="M967 1075q55 0 94 -38.5t39 -94.5t-39 -94.5t-94 -38.5h-705q-56 0 -94.5 38.5t-38.5 94.5t38.5 94.5t94.5 38.5h705zM967 666q55 0 94 -39t39 -95t-39 -94.5t-94 -38.5h-705q-56 0 -94.5 38.5t-38.5 94.5t39 95t94 39h705z" />
    <glyph glyph-name="greater" unicode="&#x3e;" horiz-adv-x="1214" 
d="M356 1249l688 -385q95 -55 95 -116q0 -45 -26 -75t-69 -55l-688 -389q-42 -22 -80 -22q-56 0 -94.5 39t-38.5 104q0 43 27 81.5t78 64.5l477 245l-477 242q-51 26 -78 64.5t-27 80.5q0 63 40.5 102.5t97.5 39.5q37 0 75 -21z" />
    <glyph glyph-name="question" unicode="?" horiz-adv-x="960" 
d="M96 1233q0 64 74 121q57 43 147 73.5t185 30.5q209 0 317.5 -102.5t108.5 -261.5q0 -53 -15 -106.5t-33 -90.5t-48.5 -78t-45 -57t-38.5 -41q-123 -129 -200.5 -185.5t-133.5 -56.5q-51 0 -84 35.5t-33 81.5q0 30 23 66t49.5 63t70.5 67q13 11 19 17q77 71 107 119t30 96
q0 62 -37.5 94.5t-97.5 32.5q-55 0 -132.5 -24.5t-109.5 -24.5q-43 0 -83 35.5t-40 95.5zM643 197q0 -85 -54 -147t-138 -62q-95 0 -152 61.5t-57 147.5q0 74 58 133t151 59q82 0 137 -59.5t55 -132.5z" />
    <glyph glyph-name="at" unicode="@" horiz-adv-x="2019" 
d="M1030 -446q-197 0 -368.5 67t-294.5 185.5t-194 288t-71 366.5q0 189 71 356.5t193.5 288.5t295.5 191.5t368 70.5q187 0 349.5 -57.5t281.5 -160t187.5 -254t68.5 -331.5q0 -106 -29.5 -206t-83.5 -180.5t-140.5 -129.5t-190.5 -49h-183q-80 0 -125 47q-92 -72 -219 -72
q-207 0 -328.5 133.5t-121.5 352.5q0 205 150.5 345t387.5 140q161 0 303 -57q136 -55 136 -156v-446h38q47 0 83 72.5t36 205.5q0 102 -40 194.5t-114 164.5t-189.5 114.5t-256.5 42.5q-129 0 -244 -40.5t-204 -116t-141 -195.5t-52 -268q0 -136 52 -253.5t140 -197.5
t204.5 -125t244.5 -45h45h19q75 0 120.5 -35t45.5 -98q0 -40 -15.5 -69t-37.5 -45t-55 -25t-60.5 -11.5t-61.5 -2.5zM1165 330v297q-69 32 -133 32q-109 0 -159 -60.5t-50 -152.5q0 -88 50 -136t128 -48q93 0 164 68z" />
    <glyph glyph-name="A" unicode="A" horiz-adv-x="1458" 
d="M1090 84l-84 217h-568l-86 -217q-43 -104 -153 -104q-62 0 -103 42.5t-41 100.5q0 32 11 57l462 1123q61 151 203 151q74 0 120.5 -37t78.5 -112l461 -1106q12 -30 12 -62q0 -64 -46 -110.5t-114 -46.5q-54 0 -94 28.5t-59 75.5zM883 608l-160 406l-162 -406h322z" />
    <glyph glyph-name="B" unicode="B" horiz-adv-x="1263" 
d="M618 1442q125 0 219 -27.5t150.5 -77t84.5 -112.5t28 -140q0 -210 -164 -321q87 -34 146 -118t59 -212q0 -146 -72.5 -247.5t-193 -148t-279.5 -46.5q-90 0 -258 4q-61 1 -107.5 49.5t-46.5 108.5v1124q0 63 45.5 110t108.5 48q132 6 280 6zM512 580v-269q46 -12 111 -12
q94 0 142 39.5t48 112.5q0 129 -174 129h-127zM512 1126v-260h109q69 0 110 33.5t41 106.5q0 61 -46.5 95t-111.5 34q-19 0 -102 -9z" />
    <glyph glyph-name="C" unicode="C" horiz-adv-x="1304" 
d="M1081 1108q-34 0 -80 16q-79 27 -170 27q-173 0 -287 -114.5t-114 -319.5q0 -191 120.5 -312.5t313.5 -121.5q88 0 164 28q52 21 96 21q81 0 119 -72q19 -40 19 -72q0 -88 -101 -141q-137 -72 -327 -72q-220 0 -391 92t-266 261t-95 389q0 124 30 235t91.5 204t150 160
t210.5 104.5t267 37.5q88 0 165 -16.5t122 -40.5q109 -57 109 -141q0 -38 -21 -78q-44 -74 -125 -74z" />
    <glyph glyph-name="D" unicode="D" horiz-adv-x="1523" 
d="M184 1280q0 64 44.5 109t109.5 47q222 4 299 4q167 0 303 -37.5t228.5 -103t155 -156t90.5 -194t28 -220.5q0 -152 -52.5 -284t-152 -232.5t-258.5 -158.5t-358 -58q-41 0 -283 4q-64 0 -109 45.5t-45 108.5v1126zM512 1126v-819q43 -4 119 -4q215 0 339 112t124 314
q0 193 -127.5 298.5t-333.5 105.5q-73 0 -121 -7z" />
    <glyph glyph-name="E" unicode="E" horiz-adv-x="1177" 
d="M512 307h389q63 0 108.5 -45t45.5 -108t-45.5 -108.5t-108.5 -45.5h-563q-63 0 -108.5 45.5t-45.5 108.5v1126q0 63 45.5 108.5t108.5 45.5h543q63 0 108 -45.5t45 -108.5t-45 -108.5t-108 -45.5h-369v-252h307q63 0 108.5 -45t45.5 -108t-45.5 -108.5t-108.5 -45.5h-307
v-260z" />
    <glyph glyph-name="F" unicode="F" horiz-adv-x="1095" 
d="M799 516h-287v-383q0 -64 -47 -108.5t-117 -44.5t-117 44.5t-47 108.5v1147q0 63 45.5 108.5t108.5 45.5h522q63 0 108.5 -45.5t45.5 -108.5t-45.5 -108.5t-108.5 -45.5h-348v-303h287q63 0 108 -45t45 -108t-45 -108.5t-108 -45.5z" />
    <glyph glyph-name="G" unicode="G" horiz-adv-x="1488" 
d="M82 717q0 154 51 289.5t143 235.5t230 158t303 58q198 0 313 -51q121 -53 121 -147q0 -39 -20 -78q-44 -74 -125 -74q-34 0 -80 16q-79 27 -170 27q-121 0 -213.5 -46t-148.5 -145.5t-56 -242.5q0 -198 116 -316t308 -118q61 0 129.5 23t95.5 48v156h-151
q-63 0 -108.5 45.5t-45.5 108.5t45.5 108t108.5 45h305q63 0 108 -45t45 -108v-375q0 -131 -112 -197q-94 -55 -208.5 -86t-215.5 -31q-182 0 -327 53t-241.5 150.5t-148 234.5t-51.5 304z" />
    <glyph glyph-name="H" unicode="H" horiz-adv-x="1546" 
d="M1034 1300q0 64 47 109t117 45t117 -45t47 -109v-1167q0 -64 -47 -108.5t-117 -44.5t-117 44.5t-47 108.5v445h-522v-445q0 -64 -47 -108.5t-117 -44.5t-117 44.5t-47 108.5v1167q0 64 47 109t117 45t117 -45t47 -109v-415h522v415z" />
    <glyph glyph-name="I" unicode="I" horiz-adv-x="737" 
d="M205 1300q0 64 47 109t117 45t116.5 -45t46.5 -109v-1167q0 -64 -46.5 -108.5t-116.5 -44.5t-117 44.5t-47 108.5v1167z" />
    <glyph glyph-name="J" unicode="J" horiz-adv-x="827" 
d="M264 -25q-105 0 -168 42.5t-63 117.5q0 65 44.5 106.5t127.5 41.5q58 0 84 31.5t26 95.5v890q0 64 47 109t117 45t117 -45t47 -109v-950q0 -183 -98 -279t-281 -96z" />
    <glyph glyph-name="K" unicode="K" horiz-adv-x="1333" 
d="M928 102l-416 580v-549q0 -64 -47 -108.5t-117 -44.5t-117 44.5t-47 108.5v1167q0 64 47 109t117 45t117 -45t47 -109v-491l412 553q40 53 75.5 72.5t83.5 19.5q70 0 107 -38.5t37 -94.5q0 -65 -41 -115l-350 -434l399 -532q33 -42 33 -99q0 -65 -42 -113t-112 -48
q-54 0 -95 27t-91 95z" />
    <glyph glyph-name="L" unicode="L" horiz-adv-x="1116" 
d="M512 307h430q63 0 108.5 -45t45.5 -108t-45.5 -108.5t-108.5 -45.5h-604q-63 0 -108.5 45.5t-45.5 108.5v1146q0 64 47 109t117 45t117 -45t47 -109v-993z" />
    <glyph glyph-name="M" unicode="M" horiz-adv-x="1867" 
d="M817 483l-305 424v-774q0 -64 -47 -108.5t-117 -44.5t-117 44.5t-47 108.5v1137q0 80 52.5 132t140.5 52q58 0 99 -19t71 -51.5t82 -103.5l327 -451l310 449q30 42 41.5 58t37.5 45.5t45 41t48.5 21.5t62.5 10q84 0 133 -49t49 -129v-1143q0 -64 -46.5 -108.5
t-116.5 -44.5t-117 44.5t-47 108.5v780l-307 -430q-47 -65 -115 -65q-70 0 -117 65z" />
    <glyph glyph-name="N" unicode="N" horiz-adv-x="1617" 
d="M1126 569v731q0 63 45.5 108.5t108.5 45.5t108.5 -45.5t45.5 -108.5v-1163q0 -77 -43.5 -117t-114.5 -40q-85 0 -182 120l-602 760v-727q0 -63 -45.5 -108t-108.5 -45t-108.5 45t-45.5 108v1163q0 66 40.5 112t111.5 46q53 0 92 -24.5t92 -92.5z" />
    <glyph glyph-name="O" unicode="O" horiz-adv-x="1687" 
d="M844 -25q-163 0 -303 52t-241.5 147t-159.5 235t-58 308q0 155 55.5 291t153.5 235.5t241.5 157t311.5 57.5q218 0 390.5 -89t272 -258.5t99.5 -393.5q0 -160 -58 -298.5t-159 -235.5t-242 -152.5t-303 -55.5zM844 1151q-181 0 -297.5 -120t-116.5 -314
q0 -183 120.5 -308.5t293.5 -125.5q132 0 227 58.5t140.5 155.5t45.5 220q0 193 -118 313.5t-295 120.5z" />
    <glyph glyph-name="P" unicode="P" horiz-adv-x="1284" 
d="M338 1436q54 0 154.5 1t130.5 1q127 0 227.5 -26t165.5 -69.5t107.5 -105.5t60.5 -129.5t18 -144.5q0 -96 -36.5 -183t-103 -153.5t-168 -106t-222.5 -39.5q-109 0 -160 6v-354q0 -64 -47 -108.5t-117 -44.5t-117 44.5t-47 108.5v1147q0 64 44.5 109t109.5 47zM512 1126
v-327q86 -11 150 -11q35 0 66.5 8.5t61 27.5t47 55t17.5 86q0 90 -52 127.5t-147 37.5q-7 0 -143 -4z" />
    <glyph glyph-name="Q" unicode="Q" horiz-adv-x="1687" 
d="M1606 717q0 -291 -179 -492q48 -57 48 -114q0 -58 -39 -98t-97 -40q-50 0 -82 21t-59 57q-161 -76 -354 -76q-163 0 -303 52t-241.5 147t-159.5 235t-58 308q0 155 55.5 291t153.5 235.5t241.5 157t311.5 57.5q218 0 390.5 -89t272 -258.5t99.5 -393.5zM930 434
q0 57 37 96t98 39q36 0 67 -17.5t72 -66.5q53 100 53 232q0 193 -118 313.5t-295 120.5q-181 0 -297.5 -120t-116.5 -314q0 -183 120.5 -308.5t293.5 -125.5q85 0 133 26q-47 58 -47 125z" />
    <glyph glyph-name="R" unicode="R" horiz-adv-x="1353" 
d="M1235 133q0 -65 -43 -109t-107 -44q-51 0 -88 23.5t-73 76.5l-291 422h-121v-369q0 -64 -47 -108.5t-117 -44.5t-117 44.5t-47 108.5v1147q0 63 45 109t109 47q81 0 208 1l126 1q143 0 247 -34t165 -97t89.5 -144t28.5 -184q0 -76 -18 -141.5t-43.5 -108t-61.5 -78.5
t-62.5 -54t-55.5 -32l229 -307q45 -59 45 -125zM512 1126v-317h119q101 0 162 40t61 126q0 155 -199 155q-7 0 -143 -4z" />
    <glyph glyph-name="S" unicode="S" horiz-adv-x="1134" 
d="M1040 397q0 -185 -140.5 -303.5t-350.5 -118.5q-73 0 -145 14t-138.5 42t-107.5 78t-41 114q0 61 37 103.5t96 42.5q39 0 88.5 -21.5t106 -43t112.5 -21.5q64 0 99.5 29.5t35.5 80.5q0 43 -33 79t-85.5 64t-116.5 57.5t-128 68.5t-116.5 87.5t-85.5 124.5t-33 170
q0 83 32.5 158t92 132t150 90.5t198.5 33.5q153 0 254 -48.5t101 -141.5q0 -61 -40 -104.5t-102 -43.5q-16 0 -76.5 15.5t-117.5 15.5q-67 0 -105.5 -28.5t-38.5 -78.5q0 -42 25.5 -77t67.5 -59t96 -50.5t110 -51t110 -62.5t96 -82.5t67.5 -112.5t25.5 -152z" />
    <glyph glyph-name="T" unicode="T" 
d="M778 1126v-993q0 -64 -47 -108.5t-117 -44.5t-116.5 44.5t-46.5 108.5v993h-277q-63 0 -108.5 45.5t-45.5 108.5t45.5 108.5t108.5 45.5h881q63 0 108 -45.5t45 -108.5t-45 -108.5t-108 -45.5h-277z" />
    <glyph glyph-name="U" unicode="U" horiz-adv-x="1538" 
d="M492 676q0 -88 14.5 -156t47 -123t92 -84.5t142.5 -29.5q142 0 200.5 95t58.5 279v643q0 64 46.5 109t116.5 45t117 -45t47 -109v-708q0 -128 -31.5 -232t-86 -174.5t-129.5 -119t-160 -70t-179 -21.5q-139 0 -253 40t-197 117.5t-128.5 198t-45.5 275.5v694q0 64 47 109
t117 45t117 -45t47 -109v-624z" />
    <glyph glyph-name="V" unicode="V" horiz-adv-x="1337" 
d="M41 1294q0 65 45.5 112.5t114.5 47.5q51 0 92.5 -29t58.5 -75l330 -863l313 863q17 46 59 75t93 29q63 0 106 -43.5t43 -103.5q0 -24 -10 -54l-444 -1134q-31 -77 -72.5 -108t-99.5 -31q-64 0 -103 31t-71 110l-445 1114q-10 25 -10 59z" />
    <glyph glyph-name="W" unicode="W" horiz-adv-x="2043" 
d="M1270 158l-248 764l-242 -758q-31 -97 -77 -140.5t-132 -43.5q-84 0 -131.5 46t-72.5 132l-310 1048q-10 42 -10 70q0 77 49 127.5t131 50.5q126 0 162 -131l213 -795l227 748q27 86 75 132t132 46q86 0 132 -43.5t77 -140.5l232 -742l221 809q15 56 55 86.5t96 30.5
q62 0 105 -40t43 -103q0 -27 -8 -51l-308 -1096q-27 -96 -74.5 -140t-133.5 -44q-83 0 -128.5 45t-74.5 133z" />
    <glyph glyph-name="X" unicode="X" horiz-adv-x="1339" 
d="M123 1296q0 63 42 110.5t111 47.5q47 0 84.5 -20t71.5 -74l246 -387l235 387q58 94 154 94q72 0 112 -43.5t40 -107.5q0 -52 -31 -103l-305 -469l325 -491q33 -47 33 -101q0 -65 -45 -112t-109 -47q-101 0 -159 94l-260 407l-258 -407q-60 -94 -162 -94q-66 0 -108 44.5
t-42 108.5q0 56 35 109l324 489l-307 473q-27 44 -27 92z" />
    <glyph glyph-name="Y" unicode="Y" horiz-adv-x="1306" 
d="M90 1288q0 66 43.5 116t116.5 50q97 0 151 -96l263 -467l262 465q56 98 151 98q63 0 101.5 -41t38.5 -102q0 -49 -31 -103l-373 -624v-451q0 -64 -47 -108.5t-117 -44.5t-117 44.5t-47 108.5v451l-372 616q-23 39 -23 88z" />
    <glyph glyph-name="Z" unicode="Z" horiz-adv-x="1302" 
d="M1083 0h-860q-63 0 -110 46t-47 110q0 67 49 131l663 839h-514q-66 0 -109.5 45t-43.5 109t43.5 109t109.5 45h799q69 0 114.5 -41.5t45.5 -110.5q0 -68 -52 -135l-665 -840h577q67 0 110.5 -44.5t43.5 -108.5q0 -63 -45.5 -108.5t-108.5 -45.5z" />
    <glyph glyph-name="bracketleft" unicode="[" horiz-adv-x="778" 
d="M594 -123q58 0 100.5 -42.5t42.5 -100.5q0 -59 -42.5 -101.5t-100.5 -42.5h-328q-58 0 -100.5 42.5t-42.5 101.5v1454q0 58 42.5 100.5t100.5 42.5h328q58 0 100.5 -42.5t42.5 -100.5q0 -59 -42.5 -101.5t-100.5 -42.5h-164v-1167h164z" />
    <glyph glyph-name="backslash" unicode="\" horiz-adv-x="788" 
d="M567 -309l-581 1562q-9 31 -9 43q0 39 23 72.5t61 46.5q21 6 41 6q39 0 72.5 -22t46.5 -58l584 -1562q6 -21 6 -41q0 -39 -22.5 -73.5t-59.5 -47.5q-19 -8 -43 -8q-40 0 -73 22.5t-46 59.5z" />
    <glyph glyph-name="bracketright" unicode="]" horiz-adv-x="778" 
d="M184 1044q-58 0 -100.5 42.5t-42.5 101.5q0 58 42.5 100.5t100.5 42.5h328q58 0 100.5 -42.5t42.5 -100.5v-1454q0 -59 -42.5 -101.5t-100.5 -42.5h-328q-58 0 -100.5 42.5t-42.5 101.5q0 58 42.5 100.5t100.5 42.5h164v1167h-164z" />
    <glyph glyph-name="asciicircum" unicode="^" horiz-adv-x="1069" 
d="M535 1147l-99 -137q-25 -34 -37.5 -48t-39 -27t-62.5 -13q-62 0 -96.5 38t-34.5 89q0 42 27 81l174 234q73 100 170 100q95 0 170 -102l167 -232q25 -36 25 -77q0 -53 -34 -92t-95 -39q-45 0 -74 21t-63 67z" />
    <glyph glyph-name="underscore" unicode="_" horiz-adv-x="768" 
d="M614 -102q63 0 108.5 -45.5t45.5 -108.5t-45.5 -108.5t-108.5 -45.5h-460q-63 0 -108.5 45.5t-45.5 108.5t45.5 108.5t108.5 45.5h460z" />
    <glyph glyph-name="grave" unicode="`" horiz-adv-x="700" 
d="M424 1413l96 -160q17 -31 17 -57q0 -60 -50 -100q-28 -25 -71 -25q-59 0 -97 41l-120 131q-27 27 -27 68q0 52 41 82l63 47q26 20 62 20q59 0 86 -47z" />
    <glyph glyph-name="a" unicode="a" horiz-adv-x="952" 
d="M352 -20q-127 0 -209 81t-82 218q0 150 93.5 227.5t238.5 77.5q56 0 105.5 -16t74.5 -36v19q0 70 -33.5 104.5t-93.5 34.5q-62 0 -129 -18q-12 -4 -34 -4q-39 0 -69.5 22.5t-43.5 63.5q-6 15 -6 32q0 39 27.5 73t70.5 52q95 35 215 35q204 0 293.5 -98t89.5 -293v-424
q0 -70 -39 -110.5t-92 -40.5q-105 0 -135 104q-32 -52 -97.5 -78t-144.5 -26zM573 291v57q-45 31 -116 31q-39 0 -63.5 -18.5t-24.5 -51.5q0 -31 25 -51t63 -20q78 0 116 53z" />
    <glyph glyph-name="b" unicode="b" horiz-adv-x="1120" 
d="M420 1311v-414q93 49 203 49q200 0 318 -131.5t118 -339.5q0 -229 -144 -364.5t-395 -135.5q-161 0 -295 52q-112 44 -112 149v1135q0 59 44 101t109 42t109.5 -42t44.5 -101zM420 600v-311q52 -27 115 -27q86 0 141 51.5t55 143.5q0 101 -54 151.5t-128 50.5
q-70 0 -129 -59z" />
    <glyph glyph-name="c" unicode="c" horiz-adv-x="966" 
d="M750 633q-30 0 -74 12q-51 14 -88 14q-79 0 -139 -53t-60 -145q0 -89 62.5 -144t140.5 -55q45 0 104 23q49 18 82 18q66 0 107 -63q20 -36 20 -72q0 -39 -19.5 -72.5t-51.5 -54.5q-45 -30 -117 -48t-150 -18q-230 0 -368 133.5t-138 352.5q0 134 60.5 244t173 175.5
t254.5 65.5q145 0 248 -49q41 -19 63.5 -50.5t22.5 -68.5q0 -29 -19 -69q-39 -76 -114 -76z" />
    <glyph glyph-name="d" unicode="d" horiz-adv-x="1140" 
d="M721 1311q0 59 44 101t109 42t109.5 -42t44.5 -101v-1180q0 -65 -43 -108t-106 -43q-107 0 -158 96q-93 -96 -234 -96q-195 0 -310.5 129t-115.5 340q0 220 141.5 358.5t366.5 138.5q91 0 152 -28v393zM721 338v283q-65 38 -137 38q-79 0 -137 -52t-58 -148
q0 -88 49.5 -140.5t112.5 -52.5q91 0 170 72z" />
    <glyph glyph-name="e" unicode="e" horiz-adv-x="1048" 
d="M369 563h331q0 51 -40 89t-109 38q-74 0 -116.5 -31.5t-65.5 -95.5zM561 946q119 0 220.5 -53t164 -153.5t62.5 -227.5v-41q0 -55 -37 -84t-82 -29h-510q21 -63 78.5 -95t136.5 -32q56 0 129 21q21 6 41 6q36 0 64.5 -19.5t41.5 -54.5q9 -21 9 -43q0 -36 -22 -69.5
t-62 -53.5q-84 -43 -234 -43q-227 0 -363.5 133.5t-136.5 352.5q0 134 61 244t176 175.5t263 65.5z" />
    <glyph glyph-name="f" unicode="f" horiz-adv-x="659" 
d="M477 635h-57v-512q0 -59 -44.5 -101t-109.5 -42t-109 42t-44 101v948q0 188 89.5 287.5t246.5 99.5q92 0 159 -28q76 -34 76 -113q0 -28 -8 -49q-19 -56 -59 -76.5t-105 -20.5q-40 0 -66 -30t-26 -88v-131h57q58 0 97.5 -40.5t39.5 -99.5t-39.5 -103t-97.5 -44z" />
    <glyph glyph-name="g" unicode="g" horiz-adv-x="1019" 
d="M520 246q-2 -8 -2 -23q0 -17 6 -35q131 -4 230.5 -36.5t162 -102t62.5 -168.5q0 -103 -68 -173.5t-175.5 -102t-246.5 -31.5q-104 0 -190 17.5t-154.5 53.5t-106.5 96t-38 140q0 115 82 188.5t223 102.5q-12 24 -12 51q0 31 14 53q-107 42 -167 127.5t-60 188.5
q0 145 111.5 249.5t295.5 104.5q137 0 236 -61l143 28q25 5 35 5q41 0 73 -20t40 -60q6 -21 6 -41q0 -85 -90 -113l-45 -14q10 -45 10 -78q0 -136 -103 -236t-272 -110zM489 -55q-101 0 -151.5 -17.5t-50.5 -46.5q0 -61 202 -61q203 0 203 61q0 64 -203 64zM487 700
q-56 0 -88 -32t-32 -76t31.5 -72t88.5 -28q54 0 87.5 26t33.5 74q0 46 -30.5 77t-90.5 31z" />
    <glyph glyph-name="h" unicode="h" horiz-adv-x="1114" 
d="M715 502q0 68 -41.5 108.5t-106.5 40.5q-88 0 -147 -59v-469q0 -59 -44.5 -101t-109.5 -42t-109 42t-44 101v1188q0 59 44 101t109 42t109.5 -42t44.5 -101v-453q90 80 227 80q83 0 149 -22t118 -68t80 -124t28 -183v-418q0 -59 -44.5 -101t-109.5 -42t-109 42t-44 101
v379z" />
    <glyph glyph-name="i" unicode="i" horiz-adv-x="585" 
d="M139 788q0 59 44.5 101.5t109.5 42.5t109 -42.5t44 -101.5v-665q0 -59 -44 -101t-109 -42t-109.5 42t-44.5 101v665zM299 1413q70 0 122 -48t52 -126q0 -86 -51.5 -136t-122.5 -50q-79 0 -132.5 49.5t-53.5 136.5q0 79 54 126.5t132 47.5z" />
    <glyph glyph-name="j" unicode="j" horiz-adv-x="581" 
d="M70 -412q-45 13 -73 47.5t-28 85.5q0 61 33 100.5t96 39.5q35 0 49.5 22.5t14.5 77.5v827q0 59 44 101.5t109 42.5t109.5 -42.5t44.5 -101.5v-856q0 -358 -289 -358q-62 0 -110 14zM324 1413q70 0 122 -48t52 -126q0 -86 -51.5 -136t-122.5 -50q-79 0 -133 49.5
t-54 136.5q0 79 54.5 126.5t132.5 47.5z" />
    <glyph glyph-name="k" unicode="k" horiz-adv-x="1058" 
d="M657 76l-237 364v-317q0 -59 -44.5 -101t-109.5 -42t-109 42t-44 101v1188q0 59 44 101t109 42t109.5 -42t44.5 -101v-789l203 324q62 96 163 96q66 0 105 -43t39 -102q0 -50 -31 -92l-141 -199l186 -277q29 -47 29 -92q0 -63 -42.5 -110t-111.5 -47q-99 0 -162 96z" />
    <glyph glyph-name="l" unicode="l" horiz-adv-x="626" 
d="M420 1311v-949q0 -54 14.5 -73t57.5 -27q104 -20 104 -123q0 -58 -26.5 -95.5t-69.5 -51.5q-52 -17 -99 -17q-74 0 -131 23t-90.5 64t-50 91.5t-16.5 110.5v1047q0 59 44 101t109 42t109.5 -42t44.5 -101z" />
    <glyph glyph-name="m" unicode="m" horiz-adv-x="1634" 
d="M281 932q97 0 139 -94q109 104 272 104q100 0 167.5 -39.5t94.5 -99.5q112 139 297 139q133 0 212 -81t79 -259v-479q0 -59 -44 -101t-109 -42t-109.5 42t-44.5 101v397q0 131 -115 131q-47 0 -85.5 -22.5t-53.5 -57.5v-448q0 -59 -44.5 -101t-109.5 -42t-109 42t-44 101
v399q0 60 -27.5 94.5t-81.5 34.5q-94 0 -145 -73v-455q0 -59 -44.5 -101t-109.5 -42t-109 42t-44 101v655q0 62 46 108t122 46z" />
    <glyph glyph-name="n" unicode="n" horiz-adv-x="1114" 
d="M715 496q0 77 -41 116t-111 39q-80 0 -143 -63v-465q0 -59 -44.5 -101t-109.5 -42t-109 42t-44 101v655q0 62 46 108t122 46q88 0 139 -80q42 38 101 64t126 26q172 0 273.5 -94t101.5 -299v-426q0 -59 -44.5 -101t-109.5 -42t-109 42t-44 101v373z" />
    <glyph glyph-name="o" unicode="o" horiz-adv-x="1146" 
d="M573 -25q-232 0 -372 137.5t-140 348.5t140 348t372 137t372 -137t140 -348t-140 -348.5t-372 -137.5zM573 659q-77 0 -130.5 -54t-53.5 -144q0 -87 52.5 -143t131.5 -56q80 0 132.5 54t52.5 145q0 88 -53.5 143t-131.5 55z" />
    <glyph glyph-name="p" unicode="p" horiz-adv-x="1148" 
d="M420 578v-281q34 -20 64 -27.5t79 -7.5q95 0 146 58.5t51 148.5q0 83 -47.5 136.5t-132.5 53.5q-88 0 -160 -81zM281 932q89 0 139 -78q41 40 108.5 66t147.5 26q184 0 297.5 -132.5t113.5 -338.5q0 -140 -60.5 -253.5t-174.5 -180t-260 -66.5q-103 0 -172 29v-270
q0 -59 -44.5 -101.5t-109.5 -42.5t-109 42.5t-44 101.5v1044q0 63 46 108.5t122 45.5z" />
    <glyph glyph-name="q" unicode="q" horiz-adv-x="1150" 
d="M600 946q197 0 313 -55q65 -31 95 -73.5t30 -106.5v-977q0 -59 -44 -101.5t-109 -42.5t-109.5 42.5t-44.5 101.5v284q-93 -43 -184 -43q-224 0 -355 133t-131 353q0 205 151 345t388 140zM731 315v312q-69 32 -133 32q-109 0 -159 -60.5t-50 -152.5q0 -76 55.5 -130
t143.5 -54q87 0 143 53z" />
    <glyph glyph-name="r" unicode="r" horiz-adv-x="749" 
d="M276 932q91 0 144 -82q84 92 168 92q72 0 105.5 -42t33.5 -99q0 -28 -6 -49q-34 -117 -156 -117q-25 0 -37 2q-10 2 -28 2q-16 0 -29 -4t-20 -9t-13.5 -15t-8.5 -15t-5 -17t-4 -14v-442q0 -59 -44.5 -101t-109.5 -42t-109 42t-44 101v655q0 62 43 108t120 46z" />
    <glyph glyph-name="s" unicode="s" horiz-adv-x="933" 
d="M467 -25q-88 0 -172.5 25.5t-136.5 58.5q-29 19 -46.5 49t-17.5 64t19 66q36 59 104 59q32 0 86 -21q96 -45 184 -45q70 0 70 41q0 19 -27 33.5t-70 25t-94.5 23t-103.5 34.5t-95 53t-70 83.5t-27 120.5q0 143 102.5 222t257.5 79q167 0 275 -53q75 -37 75 -113
q0 -26 -12 -53q-35 -76 -109 -76q-22 0 -59 11q-94 28 -151 28q-32 0 -52 -12.5t-20 -28.5q0 -22 36 -38t90 -25.5t117.5 -30.5t117.5 -49.5t90 -85t36 -133.5q0 -141 -107 -226.5t-290 -85.5z" />
    <glyph glyph-name="t" unicode="t" horiz-adv-x="753" 
d="M92 350v705q0 59 44.5 101t109.5 42t109 -42t44 -101v-133h113q58 0 100.5 -42.5t42.5 -101.5q0 -58 -42.5 -100.5t-100.5 -42.5h-113v-266q0 -44 15.5 -73.5t44.5 -29.5q25 0 43 4q28 4 37 4q79 0 110 -79q13 -29 13 -56q0 -39 -23.5 -71.5t-65.5 -51.5
q-92 -41 -194 -41q-152 0 -219.5 95.5t-67.5 279.5z" />
    <glyph glyph-name="u" unicode="u" horiz-adv-x="1085" 
d="M399 408q0 -62 28.5 -104t90.5 -42q81 0 148 84v442q0 59 44 101.5t109 42.5t109.5 -42.5t44.5 -101.5v-665q0 -60 -44 -101.5t-112 -41.5q-124 0 -151 112q-92 -117 -265 -117q-60 0 -114.5 22t-98.5 65.5t-70 115.5t-26 164v446q0 59 44.5 101.5t109.5 42.5t109 -42.5
t44 -101.5v-380z" />
    <glyph glyph-name="v" unicode="v" horiz-adv-x="995" 
d="M377 815l76 -184q41 -95 61 -213q21 120 59 215l68 182q46 117 156 117q65 0 104 -39.5t39 -95.5q0 -34 -14 -66l-262 -625q-28 -64 -64.5 -95t-95.5 -31q-60 0 -97.5 30t-66.5 94l-268 592q-17 42 -17 76q0 67 45 113.5t125 46.5q57 0 91.5 -27t60.5 -90z" />
    <glyph glyph-name="w" unicode="w" horiz-adv-x="1495" 
d="M932 801l106 -299q12 -33 29 -121q11 77 23 125l75 315q11 47 51 79t91 32q61 0 102 -41.5t41 -99.5q0 -22 -6 -43l-195 -635q-17 -59 -60 -96t-116 -37q-129 0 -180 131l-123 315q-9 24 -27 104q-9 -60 -28 -108l-123 -311q-54 -131 -172 -131q-124 0 -168 133l-199 616
q-8 21 -8 49q0 62 45.5 108t112.5 46q51 0 91 -31.5t52 -79.5l88 -321q8 -29 21 -117q13 77 26 117l103 301q48 131 174 131t174 -131z" />
    <glyph glyph-name="x" unicode="x" horiz-adv-x="1015" 
d="M117 782q0 62 45 106t117 44q89 0 145 -101l94 -172l98 172q55 101 150 101q64 0 103.5 -39.5t39.5 -95.5q0 -44 -26 -86l-150 -228l160 -252q29 -45 29 -98q0 -63 -39.5 -108t-104.5 -45q-58 0 -94 25t-63 75l-115 211l-125 -213q-58 -98 -150 -98q-65 0 -101 40t-36 99
q0 52 31 100l162 248l-144 229q-26 42 -26 86z" />
    <glyph glyph-name="y" unicode="y" horiz-adv-x="1044" 
d="M393 825l121 -325q15 -39 35 -127q8 82 22 129l95 319q13 49 53.5 80t91.5 31q74 0 119 -45t45 -109q0 -33 -12 -63l-279 -715q-63 -163 -122.5 -254t-115.5 -123.5t-131 -32.5q-59 0 -122 29q-35 17 -54.5 49.5t-19.5 69.5q0 28 8 49q21 54 59.5 71t100.5 17q60 0 90 76
l20 49l-313 700q-14 32 -14 70q0 67 49 114.5t123 47.5q112 0 151 -107z" />
    <glyph glyph-name="z" unicode="z" horiz-adv-x="1013" 
d="M778 0h-553q-59 0 -101 42.5t-42 102.5q0 37 15.5 74t41.5 62l365 354h-248q-58 0 -100.5 42.5t-42.5 100.5q0 59 42.5 101.5t100.5 42.5h532q59 0 101.5 -43t42.5 -103q0 -77 -58 -135l-366 -354h270q58 0 101 -42.5t43 -101.5q0 -58 -42.5 -100.5t-101.5 -42.5z" />
    <glyph glyph-name="braceleft" unicode="{" horiz-adv-x="798" 
d="M123 313q-82 58 -82 160t82 160q32 22 50.5 40t35 56.5t16.5 89.5v174q0 176 82.5 257t280.5 81h12q75 0 116.5 -40.5t41.5 -102.5q0 -73 -39.5 -108.5t-106.5 -35.5q-44 0 -62 -32.5t-18 -126.5v-189q0 -99 -41.5 -161.5t-111.5 -71.5q70 -8 111.5 -65t41.5 -169v-188
q0 -91 18.5 -127.5t67.5 -36.5q140 0 140 -143q0 -61 -44.5 -102.5t-119.5 -41.5h-31q-168 0 -253 74.5t-85 247.5v215q0 51 -16 89t-34.5 56t-51.5 41z" />
    <glyph glyph-name="bar" unicode="|" horiz-adv-x="716" 
d="M205 1290q0 59 44 101.5t109 42.5t109.5 -42.5t44.5 -101.5v-1147q0 -59 -44.5 -101t-109.5 -42t-109 42t-44 101v1147z" />
    <glyph glyph-name="braceright" unicode="}" horiz-adv-x="798" 
d="M676 633q82 -58 82 -160t-82 -160q-33 -23 -51.5 -41t-35 -56t-16.5 -89v-215q0 -173 -85 -247.5t-252 -74.5h-31q-75 0 -119.5 41.5t-44.5 102.5q0 143 139 143q49 0 67.5 36.5t18.5 127.5v188q0 112 42 169t112 65q-70 9 -112 71.5t-42 161.5v189q0 94 -18 126.5
t-62 32.5q-67 0 -106 35.5t-39 108.5q0 62 41.5 102.5t116.5 40.5h12q198 0 280 -81t82 -257v-174q0 -51 16.5 -89.5t35.5 -56.5t51 -40z" />
    <glyph glyph-name="asciitilde" unicode="~" 
d="M1087 631q-48 -36 -123 -64t-147 -28q-55 0 -113.5 21t-99.5 46.5t-87.5 46.5t-80.5 21q-22 0 -41 -2.5t-36.5 -9t-26 -10t-27 -13.5t-22.5 -12q-31 -17 -62 -17q-57 0 -94 52q-21 31 -21 63q0 61 68 117q114 90 256 90q55 0 108 -21t88 -46.5t85.5 -46.5t101.5 -21
q16 0 35 4t39 11.5t34 13.5t31.5 14.5t20.5 9.5q32 14 67 14q66 0 101 -59q12 -21 12 -51q0 -33 -17.5 -66.5t-48.5 -56.5z" />
    <glyph glyph-name="uni00A0" unicode="&#xa0;" horiz-adv-x="409" 
 />
    <glyph glyph-name="exclamdown" unicode="&#xa1;" horiz-adv-x="634" 
d="M481 -346q0 -64 -47 -109t-117 -45t-116.5 45t-46.5 109v573q0 64 46.5 109t116.5 45t117 -45t47 -109v-573zM309 946q95 0 152 -61.5t57 -147.5q0 -74 -58 -133t-151 -59q-82 0 -137 59.5t-55 132.5q0 85 54 147t138 62z" />
    <glyph glyph-name="cent" unicode="&#xa2;" horiz-adv-x="1193" 
d="M1020 168q0 -38 -21 -72t-53 -55q-56 -37 -137 -51v-92q0 -59 -44.5 -101.5t-109.5 -42.5t-109 42.5t-44 101.5v102q-154 46 -241 167t-87 294q0 162 89 288t239 173v88q0 59 44 101t109 42t109.5 -42t44.5 -101v-78q35 -6 100 -35q84 -41 84 -121q0 -36 -16 -67
q-39 -76 -113 -76q-32 0 -76 12q-51 14 -88 14q-79 0 -138.5 -53t-59.5 -145q0 -89 62.5 -144t140.5 -55q45 0 104 23q41 18 78 18q72 0 112 -65q21 -35 21 -70z" />
    <glyph glyph-name="sterling" unicode="&#xa3;" horiz-adv-x="1218" 
d="M1161 190q0 -72 -57 -114q-122 -84 -270 -84q-79 0 -233.5 53t-233.5 53q-39 0 -64 -10q-56 -20 -102 -20q-84 0 -121 63q-23 38 -23 82q0 65 54 113q14 12 34.5 22.5t31 14.5t41.5 12.5t34 9.5q64 82 78 137h-74q-71 0 -103 35t-32 92q0 51 36 85t117 34q-4 7 -25.5 49
t-28.5 58.5t-20.5 51t-18.5 65t-5 63.5q0 176 135.5 285.5t347.5 109.5q96 0 174 -21t123 -51q74 -51 74 -118t-34.5 -112.5t-108.5 -45.5q-48 0 -109 20q-64 21 -104 21q-67 0 -108.5 -30t-41.5 -83q0 -42 20 -83t51 -90.5t46 -88.5h127q57 0 93 -32.5t36 -86.5
q0 -56 -36.5 -91.5t-92.5 -35.5h-129q-35 -76 -102 -147q25 -8 74 -24.5t79 -26t71.5 -17.5t76.5 -8q23 0 63 4q13 2 44 9t54.5 10.5t42.5 3.5q25 0 43 -9q37 -18 56.5 -52.5t19.5 -74.5z" />
    <glyph glyph-name="currency" unicode="&#xa4;" horiz-adv-x="1196" 
d="M127 416l49 49q-57 102 -57 231q0 128 59 234l-51 51q-39 42 -39 96q0 55 39 94t94 39q53 0 94 -41l56 -55q96 47 227 47q123 0 225 -47l56 55q39 39 96 39q58 0 94 -39q39 -36 39 -94q0 -55 -39 -94l-51 -51q59 -106 59 -234q0 -123 -57 -231l47 -47q41 -41 41 -94
q0 -56 -39 -95t-94 -39q-54 0 -96 39l-52 52q-106 -50 -229 -50q-127 0 -229 50l-54 -54q-39 -39 -94 -39q-52 0 -94 39q-39 39 -39 95q0 55 39 94zM598 498q95 0 144 54.5t49 143.5q0 95 -51 147t-142 52q-88 0 -140 -53t-52 -146q0 -87 51.5 -142.5t140.5 -55.5z" />
    <glyph glyph-name="yen" unicode="&#xa5;" horiz-adv-x="1202" 
d="M233 215q-50 0 -85 36t-35 87t35 87t85 36h199v123h-199q-50 0 -85 36t-35 87t35 86.5t85 35.5h70l-203 394q-18 37 -18 73q0 63 45.5 110.5t114.5 47.5q110 0 157 -100l211 -463l207 461q45 102 158 102q63 0 104 -43t41 -102q0 -37 -16 -68l-215 -412h74q50 0 85 -35.5
t35 -86.5t-35 -87t-85 -36h-203v-123h203q50 0 85 -36t35 -87t-35 -87t-85 -36h-203v-86q0 -64 -43 -106.5t-123 -42.5q-76 0 -119 43t-43 106v86h-199z" />
    <glyph glyph-name="brokenbar" unicode="&#xa6;" horiz-adv-x="716" 
d="M205 1280q0 63 45 108.5t108 45.5t108.5 -45.5t45.5 -108.5v-225q0 -63 -45.5 -108.5t-108.5 -45.5t-108 45.5t-45 108.5v225zM512 154q0 -63 -45.5 -108.5t-108.5 -45.5t-108 45.5t-45 108.5v225q0 63 45 108t108 45t108.5 -45t45.5 -108v-225z" />
    <glyph glyph-name="section" unicode="&#xa7;" horiz-adv-x="1073" 
d="M360 -96q38 0 84 -19q16 -8 37 -8q29 0 52.5 22.5t23.5 51.5q0 58 -28 99.5t-91 80.5q-163 25 -249.5 129t-86.5 250q0 119 57.5 211t168.5 137q-43 55 -63.5 85t-40 83t-19.5 111q0 123 94 210t260 87q109 0 193 -43q34 -16 58 -50.5t24 -76.5q0 -46 -31 -88
q-33 -48 -98 -48q-30 0 -74 13q-18 6 -43 6q-32 0 -54 -21.5t-22 -60.5q0 -97 117 -176q166 -24 254 -128t88 -251q0 -119 -58.5 -211t-169.5 -137q60 -69 90.5 -130.5t30.5 -144.5q0 -59 -23 -111.5t-66.5 -94.5t-113 -66.5t-155.5 -24.5q-48 0 -102 14.5t-89 39.5
q-31 22 -53 58t-22 75q0 44 32 84q35 43 88 43zM537 631q-66 0 -96.5 -38t-30.5 -83q0 -43 29.5 -81t97.5 -38q72 0 99.5 36.5t27.5 82.5q0 44 -30 82.5t-97 38.5z" />
    <glyph glyph-name="dieresis" unicode="&#xa8;" horiz-adv-x="964" 
d="M291 1030q-72 0 -120 46.5t-48 129.5q0 76 48.5 121t119.5 45q62 0 108.5 -45.5t46.5 -120.5q0 -82 -46 -129t-109 -47zM686 1030q-71 0 -119.5 46.5t-48.5 129.5q0 75 49 120.5t119 45.5q63 0 109.5 -45.5t46.5 -120.5q0 -82 -46 -129t-110 -47z" />
    <glyph glyph-name="copyright" unicode="&#xa9;" horiz-adv-x="2084" 
d="M1241 633q-31 0 -74 12q-51 14 -88 14q-79 0 -138.5 -53t-59.5 -145q0 -89 62 -144t140 -55q46 0 105 23q49 18 82 18q65 0 106 -63q21 -38 21 -72q0 -38 -20 -72t-52 -55q-45 -30 -116.5 -48t-149.5 -18q-230 0 -368 133.5t-138 352.5q0 205 136.5 345t350.5 140
q145 0 248 -49q41 -19 63.5 -50.5t22.5 -68.5q0 -32 -18 -69q-39 -76 -115 -76zM1042 -446q-187 0 -353.5 70t-286 189.5t-189.5 286t-70 353.5t70 353.5t189.5 286t286 189.5t353.5 70t353.5 -70t286.5 -189.5t190 -286t70 -353.5t-70 -353.5t-190 -286t-286.5 -189.5
t-353.5 -70zM1044 1085q-135 0 -253.5 -50t-201.5 -135.5t-131 -202t-48 -246.5q0 -172 81 -316t227 -229.5t326 -85.5q177 0 322.5 85.5t227 230t81.5 315.5q0 173 -81.5 318.5t-227 230.5t-322.5 85z" />
    <glyph glyph-name="ordfeminine" unicode="&#xaa;" horiz-adv-x="952" 
d="M352 1069q120 0 207 -35q-19 88 -121 88q-39 0 -55 -2q-12 -2 -37 -2q-64 0 -99.5 24t-35.5 72q0 40 19 66.5t69 44.5q71 23 193 23q49 0 96.5 -10.5t91.5 -33.5t76.5 -56.5t52.5 -83t20 -109.5v-336q0 -55 -34.5 -92t-96.5 -37q-48 0 -78 20.5t-57 61.5q-41 -46 -98 -68
t-156 -22q-102 0 -164.5 68t-62.5 167q0 125 70 188.5t200 63.5zM563 866q-70 19 -114 19q-80 0 -80 -39q0 -19 16.5 -29t65.5 -10q53 0 112 29v30z" />
    <glyph glyph-name="guillemotleft" unicode="&#xab;" horiz-adv-x="1187" 
d="M887 512l178 -209q31 -39 31 -86q0 -61 -47 -102q-39 -33 -91 -33q-61 0 -102 47l-238 281q-36 42 -36 100q0 59 39 104l243 281q41 47 101 47q47 0 88 -33q43 -40 43 -102q0 -51 -33 -90zM397 512l178 -209q31 -39 31 -86q0 -61 -47 -102q-39 -33 -90 -33q-61 0 -102 47
l-238 281q-37 43 -37 100q0 59 39 104l244 281q41 47 100 47q47 0 88 -33q43 -40 43 -102q0 -51 -33 -90z" />
    <glyph glyph-name="logicalnot" unicode="&#xac;" 
d="M874 469v135h-653q-55 0 -94 39t-39 94t39 94t94 39h787q56 0 94.5 -39t38.5 -94v-268q0 -55 -38.5 -94t-94.5 -39t-95 39t-39 94z" />
    <glyph glyph-name="uni00AD" unicode="&#xad;" horiz-adv-x="745" 
d="M500 707q58 0 100.5 -42.5t42.5 -101.5t-42.5 -101t-100.5 -42h-254q-59 0 -101.5 42.5t-42.5 100.5q0 59 43 101.5t101 42.5h254z" />
    <glyph glyph-name="registered" unicode="&#xae;" horiz-adv-x="1449" 
d="M729 1659q136 0 254.5 -48.5t203 -133t133 -203t48.5 -254.5q0 -138 -50.5 -259.5t-136.5 -206.5t-203.5 -134t-248.5 -49q-179 0 -327 83.5t-234 232.5t-86 333q0 131 48.5 248.5t132.5 203.5t205.5 136.5t260.5 50.5zM729 616q172 0 282.5 109.5t110.5 294.5
q0 171 -110.5 283t-282.5 112q-180 0 -290.5 -111t-110.5 -284q0 -187 113.5 -295.5t287.5 -108.5zM711 893h-33v-53q0 -43 -30 -73t-73 -30t-72.5 30t-29.5 73v368q0 43 29.5 73t72.5 30h177q122 0 183.5 -53t61.5 -148q0 -60 -28 -105.5t-66 -64.5l29 -66q8 -16 8 -43
q0 -39 -25 -66.5t-71 -27.5q-87 0 -115 97zM678 1036h39q76 0 76 70q0 61 -72 61h-43v-131z" />
    <glyph glyph-name="macron" unicode="&#xaf;" horiz-adv-x="847" 
d="M604 1311q50 0 85.5 -36t35.5 -87t-35.5 -87t-85.5 -36h-360q-50 0 -85.5 36t-35.5 87t35.5 87t85.5 36h360z" />
    <glyph glyph-name="degree" unicode="&#xb0;" horiz-adv-x="901" 
d="M446 799q-151 0 -257.5 104.5t-106.5 259.5q0 159 106.5 266t257.5 107q157 0 265 -100t108 -258q0 -157 -109.5 -268t-263.5 -111zM451 1270q-41 0 -72 -31t-31 -72t31 -71.5t72 -30.5t71.5 30.5t30.5 71.5t-30.5 72t-71.5 31z" />
    <glyph glyph-name="plusminus" unicode="&#xb1;" 
d="M756 782q0 -58 -42.5 -100.5t-101.5 -42.5q-58 0 -100.5 42.5t-42.5 100.5v27h-211q-56 0 -92.5 40t-36.5 93q0 56 36.5 94.5t92.5 38.5h211v207q0 58 42.5 100.5t100.5 42.5q59 0 101.5 -42.5t42.5 -100.5v-207h215q56 0 92.5 -40t36.5 -93q0 -56 -36.5 -94.5
t-92.5 -38.5h-215v-27zM971 297h-713q-56 0 -92.5 40t-36.5 93q0 56 36.5 94.5t92.5 38.5h713q56 0 92.5 -40t36.5 -93q0 -56 -36.5 -94.5t-92.5 -38.5z" />
    <glyph glyph-name="twosuperior" unicode="&#xb2;" horiz-adv-x="770" 
d="M608 717h-446q-47 0 -79 30.5t-32 81.5q0 78 96 134q42 25 67 40t59.5 36.5t54 36.5t39 32.5t28 32.5t8.5 28q0 48 -53 48q-21 0 -51 -21q-56 -37 -100 -37q-37 0 -64 21q-19 12 -32 37.5t-13 54.5q0 30 19 59q29 46 104 78.5t168 32.5q147 0 227 -63t80 -171
q0 -34 -11.5 -65t-28 -54t-44 -44.5t-50 -35t-56.5 -28.5t-53 -22t-50 -17h213q44 0 77.5 -33.5t33.5 -79.5q0 -45 -33.5 -78.5t-77.5 -33.5z" />
    <glyph glyph-name="threesuperior" unicode="&#xb3;" horiz-adv-x="745" 
d="M668 1264q0 -68 -44 -110t-120 -56q90 -6 138 -52.5t48 -115.5q0 -103 -97.5 -165.5t-232.5 -62.5q-81 0 -152 20.5t-108 49.5q-45 39 -45 94q0 41 27 68q31 31 70 31q34 0 79 -25q42 -22 93 -22q79 0 79 36q0 25 -63 35q-84 13 -84 90q0 73 82 90q25 5 34 12.5t9 24.5
q0 10 -15.5 18.5t-43.5 8.5q-49 0 -89 -16q-42 -17 -69 -17q-54 0 -80 45q-12 18 -12 43q0 59 59 101q81 59 246 59q127 0 209 -50.5t82 -133.5z" />
    <glyph glyph-name="acute" unicode="&#xb4;" horiz-adv-x="696" 
d="M180 1255l96 160q27 49 86 49q34 0 60 -20l63 -47q39 -29 39 -82q0 -41 -24 -68l-121 -135q-33 -39 -92 -39q-39 0 -72 23q-53 35 -53 96q0 33 18 63z" />
    <glyph glyph-name="mu" unicode="&#xb5;" horiz-adv-x="1105" 
d="M844 -12q-66 0 -103 26t-55 78q-92 -117 -266 -117v-241q0 -59 -44.5 -101.5t-109.5 -42.5t-109 42.5t-44 101.5v1054q0 59 44 101.5t109 42.5t109.5 -42.5t44.5 -101.5v-380q0 -62 28.5 -104t90.5 -42q80 0 147 84v442q0 59 44.5 101.5t109.5 42.5t109 -42.5t44 -101.5
v-657q0 -65 -42.5 -104t-106.5 -39z" />
    <glyph glyph-name="mu" unicode="&#x3bc;" horiz-adv-x="1105" 
d="M844 -12q-66 0 -103 26t-55 78q-92 -117 -266 -117v-241q0 -59 -44.5 -101.5t-109.5 -42.5t-109 42.5t-44 101.5v1054q0 59 44 101.5t109 42.5t109.5 -42.5t44.5 -101.5v-380q0 -62 28.5 -104t90.5 -42q80 0 147 84v442q0 59 44.5 101.5t109.5 42.5t109 -42.5t44 -101.5
v-657q0 -65 -42.5 -104t-106.5 -39z" />
    <glyph glyph-name="paragraph" unicode="&#xb6;" horiz-adv-x="1067" 
d="M127 -256q0 62 36.5 98.5t86.5 36.5q22 0 67 -9t66 -9q143 0 143 209v469q-119 1 -223.5 52.5t-173 155t-68.5 238.5q0 136 63.5 239.5t169 156.5t236.5 53h342q62 0 108 -44t46 -100t-46 -99.5t-108 -43.5h-38v-1090q0 -242 -111 -362.5t-317 -120.5q-90 0 -175 37
q-42 18 -73 56t-31 77z" />
    <glyph glyph-name="periodcentered" unicode="&#xb7;" horiz-adv-x="409" 
d="M213 819q83 0 138 -59.5t55 -132.5q0 -85 -54.5 -147t-138.5 -62q-95 0 -152 61.5t-57 147.5q0 74 58 133t151 59z" />
    <glyph glyph-name="cedilla" unicode="&#xb8;" horiz-adv-x="827" 
d="M541 -74q75 -14 116 -50.5t41 -113.5q0 -86 -72 -139t-198 -53q-81 0 -124.5 13.5t-90.5 41.5q-45 26 -45 74q0 23 10 41q24 43 68 43q22 0 57 -14q52 -23 92 -23q33 0 52.5 12t19.5 31q0 20 -20.5 34.5t-45 23t-45 26t-20.5 41.5q0 38 29 86h98q0 -1 2.5 -10.5
t4.5 -14.5t8 -14t13 -14.5t20 -11.5t30 -9z" />
    <glyph glyph-name="onesuperior" unicode="&#xb9;" horiz-adv-x="575" 
d="M453 1317v-486q0 -50 -37.5 -82t-98.5 -32q-58 0 -94.5 32t-36.5 82v295q-13 -8 -36 -8q-53 0 -82 43q-21 35 -21 66q0 65 64 104l98 64q67 39 119 39q72 0 98.5 -29t26.5 -88z" />
    <glyph glyph-name="ordmasculine" unicode="&#xba;" horiz-adv-x="1069" 
d="M535 582q-191 0 -312 106t-121 279t121 277t312 104t311.5 -104t120.5 -277t-120.5 -279t-311.5 -106zM535 1102q-65 0 -105.5 -36.5t-40.5 -98.5q0 -65 41 -102.5t105 -37.5q67 0 106 37.5t39 102.5q0 62 -40 98.5t-105 36.5z" />
    <glyph glyph-name="guillemotright" unicode="&#xbb;" horiz-adv-x="1187" 
d="M582 807q0 63 45 102q41 33 86 33q59 0 100 -47l244 -281q39 -45 39 -106q0 -59 -37 -102l-238 -277q-41 -47 -100 -47q-51 0 -90 33q-49 40 -49 104q0 47 30 84l179 209l-177 205q-32 38 -32 90zM92 807q0 63 45 102q41 33 86 33q60 0 101 -47l243 -281q39 -45 39 -106
q0 -59 -37 -102l-237 -277q-41 -47 -101 -47q-51 0 -90 33q-49 40 -49 104q0 45 31 84l178 209l-176 205q-33 39 -33 90z" />
    <glyph glyph-name="onequarter" unicode="&#xbc;" horiz-adv-x="1460" 
d="M453 1317v-486q0 -50 -37.5 -82t-98.5 -32q-58 0 -94.5 32t-36.5 82v295q-13 -8 -36 -8q-53 0 -82 43q-21 35 -21 66q0 65 64 104l98 64q67 39 119 39q72 0 98.5 -29t26.5 -88zM1192 1243l-883 -1182q-34 -43 -94 -43q-36 0 -61 19q-41 29 -41 82q0 40 28 78l879 1175
q34 43 88 43q37 0 63 -20q43 -34 43 -86q0 -38 -22 -66zM1294 125q-2 -53 -38 -89t-87 -36t-86.5 36.5t-35.5 88.5h-246q-129 0 -129 108q0 11 1.5 22t3.5 19.5t7.5 20.5t8.5 19t11.5 21.5t12.5 21t15.5 24.5t15.5 25l147 237q46 74 111 74q41 0 71.5 -27t30.5 -69
q0 -32 -23 -68l-143 -223h105q0 54 35.5 92.5t86.5 38.5t87 -36.5t36 -90.5q44 0 75.5 -27t31.5 -74q0 -49 -31.5 -78.5t-73.5 -29.5z" />
    <glyph glyph-name="onehalf" unicode="&#xbd;" horiz-adv-x="1468" 
d="M453 1317v-486q0 -50 -37.5 -82t-98.5 -32q-58 0 -94.5 32t-36.5 82v295q-13 -8 -36 -8q-53 0 -82 43q-21 35 -21 66q0 65 64 104l98 64q67 39 119 39q72 0 98.5 -29t26.5 -88zM1198 1243l-883 -1182q-34 -43 -94 -43q-36 0 -61 19q-41 29 -41 82q0 40 28 78l879 1175
q34 43 88 43q38 0 64 -20q43 -34 43 -86q0 -36 -23 -66zM1296 0h-446q-47 0 -79 31t-32 82q0 76 97 133q85 50 131 79t85.5 65.5t39.5 62.5q0 47 -54 47q-21 0 -51 -21q-56 -37 -100 -37q-37 0 -64 21q-19 12 -32 37.5t-13 54.5q0 31 19 59q29 46 104 78.5t168 32.5
q147 0 227 -62.5t80 -170.5q0 -34 -11.5 -65t-28 -54t-44 -45t-50 -35.5t-56.5 -28.5t-53.5 -22t-49.5 -17h213q44 0 77.5 -33.5t33.5 -78.5q0 -46 -33.5 -79.5t-77.5 -33.5z" />
    <glyph glyph-name="threequarters" unicode="&#xbe;" horiz-adv-x="1601" 
d="M1370 1243l-883 -1182q-34 -43 -94 -43q-36 0 -61 19q-41 29 -41 82q0 40 28 78l879 1175q34 43 88 43q38 0 64 -20q43 -34 43 -86q0 -36 -23 -66zM1436 125q-2 -53 -38 -89t-87 -36t-87 36.5t-36 88.5h-246q-129 0 -129 108q0 11 1.5 22t3.5 19.5t7.5 20.5t8.5 19
t11.5 21.5t12.5 21t15.5 24.5t15.5 25l147 237q46 74 111 74q41 0 71.5 -27t30.5 -69q0 -34 -22 -68l-144 -223h105q0 54 36 92.5t87 38.5t87 -36.5t36 -90.5q44 0 75 -27t31 -74q0 -49 -31 -78.5t-73 -29.5zM672 1264q0 -68 -44 -110t-120 -56q90 -6 138 -52.5t48 -115.5
q0 -103 -97 -165.5t-232 -62.5q-81 0 -152.5 20.5t-108.5 49.5q-45 39 -45 94q0 41 27 68q31 31 70 31q35 0 80 -25q42 -22 92 -22q80 0 80 36q0 25 -64 35q-84 13 -84 90q0 73 82 90q25 5 34 12.5t9 24.5q0 10 -15.5 18.5t-43.5 8.5q-48 0 -88 -16q-42 -17 -70 -17
q-54 0 -80 45q-12 18 -12 43q0 59 59 101q81 59 246 59q127 0 209 -50.5t82 -133.5z" />
    <glyph glyph-name="questiondown" unicode="&#xbf;" horiz-adv-x="960" 
d="M889 -299q0 -64 -74 -121q-57 -43 -147 -73.5t-185 -30.5q-209 0 -317.5 102.5t-108.5 261.5q0 53 15 107t33.5 90t49 77.5t45 57.5t38.5 41q123 129 200 185.5t133 56.5q51 0 84 -35.5t33 -81.5q0 -30 -23 -66t-49.5 -63t-70.5 -67q-13 -11 -19 -17q-77 -71 -107 -119
t-30 -96q0 -62 37.5 -94.5t97.5 -32.5q55 0 132.5 24.5t109.5 24.5q43 0 83 -35.5t40 -95.5zM342 737q0 85 54.5 147t138.5 62q94 0 151 -61.5t57 -147.5q0 -74 -57.5 -133t-150.5 -59q-83 0 -138 59.5t-55 132.5z" />
    <glyph glyph-name="Agrave" unicode="&#xc0;" horiz-adv-x="1458" 
d="M1090 84l-84 217h-568l-86 -217q-43 -104 -153 -104q-62 0 -103 42.5t-41 100.5q0 32 11 57l462 1123q61 151 203 151q74 0 120.5 -37t78.5 -112l461 -1106q12 -30 12 -62q0 -64 -46 -110.5t-114 -46.5q-54 0 -94 28.5t-59 75.5zM883 608l-160 406l-162 -406h322z
M557 1870l299 -152q55 -27 55 -90q0 -24 -8 -43q-12 -28 -38.5 -48.5t-61.5 -20.5q-19 0 -37 6l-317 98q-29 9 -46.5 33.5t-17.5 52.5q0 21 8 37l33 80q12 26 36 41.5t52 15.5q20 0 43 -10z" />
    <glyph glyph-name="Aacute" unicode="&#xc1;" horiz-adv-x="1458" 
d="M1090 84l-84 217h-568l-86 -217q-43 -104 -153 -104q-62 0 -103 42.5t-41 100.5q0 32 11 57l462 1123q61 151 203 151q74 0 120.5 -37t78.5 -112l461 -1106q12 -30 12 -62q0 -64 -46 -110.5t-114 -46.5q-54 0 -94 28.5t-59 75.5zM883 608l-160 406l-162 -406h322z
M606 1718l299 152q20 10 43 10q28 0 52 -15.5t36 -41.5l33 -80q8 -16 8 -37q0 -29 -17 -53t-46 -33l-318 -98q-18 -6 -34 -6q-34 0 -62 18t-41 49q-10 23 -10 43q0 28 15.5 53.5t41.5 38.5z" />
    <glyph glyph-name="Acircumflex" unicode="&#xc2;" horiz-adv-x="1458" 
d="M1090 84l-84 217h-568l-86 -217q-43 -104 -153 -104q-62 0 -103 42.5t-41 100.5q0 32 11 57l462 1123q61 151 203 151q74 0 120.5 -37t78.5 -112l461 -1106q12 -30 12 -62q0 -64 -46 -110.5t-114 -46.5q-54 0 -94 28.5t-59 75.5zM883 608l-160 406l-162 -406h322z
M725 1616l-170 -88q-24 -12 -53 -12q-59 0 -90 45q-19 28 -19 61q0 51 51 86l193 129q41 27 90 27q44 0 86 -25l205 -129q47 -27 47 -86q0 -31 -18 -55q-38 -53 -101 -53q-27 0 -51 12z" />
    <glyph glyph-name="Atilde" unicode="&#xc3;" horiz-adv-x="1458" 
d="M1090 84l-84 217h-568l-86 -217q-43 -104 -153 -104q-62 0 -103 42.5t-41 100.5q0 32 11 57l462 1123q61 151 203 151q74 0 120.5 -37t78.5 -112l461 -1106q12 -30 12 -62q0 -64 -46 -110.5t-114 -46.5q-54 0 -94 28.5t-59 75.5zM883 608l-160 406l-162 -406h322z
M1040 1620q-91 -98 -206 -98q-46 0 -118.5 35.5t-113.5 35.5q-33 0 -80 -28q-26 -13 -49 -13q-50 0 -80 37q-24 30 -24 70q0 43 32 86q84 110 215 110q50 0 121 -35.5t111 -35.5q9 0 23 5.5t24 11.5l25 15l16 9q25 14 53 14q59 0 88 -47q17 -24 17 -53q0 -59 -54 -119z" />
    <glyph glyph-name="Adieresis" unicode="&#xc4;" horiz-adv-x="1458" 
d="M1090 84l-84 217h-568l-86 -217q-43 -104 -153 -104q-62 0 -103 42.5t-41 100.5q0 32 11 57l462 1123q61 151 203 151q74 0 120.5 -37t78.5 -112l461 -1106q12 -30 12 -62q0 -64 -46 -110.5t-114 -46.5q-54 0 -94 28.5t-59 75.5zM883 608l-160 406l-162 -406h322z
M502 1874q75 0 130.5 -44t55.5 -116q0 -80 -55 -126t-131 -46q-87 0 -144 45t-57 127q0 73 57.5 116.5t143.5 43.5zM975 1874q76 0 131 -44t55 -116q0 -81 -54.5 -126.5t-131.5 -45.5q-86 0 -143.5 45.5t-57.5 126.5q0 73 58 116.5t143 43.5z" />
    <glyph glyph-name="Aring" unicode="&#xc5;" horiz-adv-x="1464" 
d="M442 301l-88 -217q-19 -46 -59.5 -75t-89.5 -29q-63 0 -106.5 42.5t-43.5 100.5q0 28 13 57l520 1250q-80 28 -127 85.5t-47 141.5q0 121 88.5 181t228.5 60q146 0 237 -60t91 -181q0 -84 -47 -140.5t-129 -84.5l514 -1233q12 -30 12 -62q0 -64 -46 -110.5t-114 -46.5
q-50 0 -92 29t-61 75l-86 217h-568zM887 608l-160 406l-162 -406h322zM735 1735q-44 0 -70 -19.5t-26 -58.5q0 -41 26.5 -62.5t69.5 -21.5q44 0 71.5 21.5t27.5 62.5q0 39 -27.5 58.5t-71.5 19.5z" />
    <glyph glyph-name="AE" unicode="&#xc6;" horiz-adv-x="1929" 
d="M936 154v147h-440l-158 -229q-33 -47 -67.5 -69.5t-88.5 -22.5q-66 0 -105.5 43.5t-39.5 103.5q0 44 29 88l808 1128q31 42 78.5 66.5t98.5 24.5h581q63 0 108.5 -45.5t45.5 -108.5t-45.5 -108.5t-108.5 -45.5h-368v-252h307q63 0 108 -45t45 -108t-45 -108.5t-108 -45.5
h-307v-260h389q63 0 108 -45t45 -108t-45 -108.5t-108 -45.5h-563q-63 0 -108.5 45.5t-45.5 108.5zM936 608v328l-227 -328h227z" />
    <glyph glyph-name="Ccedilla" unicode="&#xc7;" horiz-adv-x="1304" 
d="M963 -55q84 -8 134 -55t50 -128q0 -87 -78.5 -139.5t-218.5 -52.5q-152 0 -246 57q-22 14 -35.5 36.5t-13.5 47.5q0 17 10 37q24 43 72 43q27 0 57 -12q56 -25 97 -25q65 0 65 43q0 17 -15.5 31t-33.5 23t-33.5 27t-15.5 42q0 29 14 57q-311 19 -500.5 220.5
t-189.5 519.5q0 124 30 235t91.5 204t150 160t210.5 104.5t267 37.5q88 0 165 -16.5t122 -40.5q109 -57 109 -141q0 -38 -21 -78q-44 -74 -125 -74q-34 0 -80 16q-79 27 -170 27q-173 0 -287 -114.5t-114 -319.5q0 -191 120.5 -312.5t313.5 -121.5q88 0 164 28q52 21 96 21
q81 0 119 -72q19 -40 19 -72q0 -88 -101 -141q-110 -58 -268 -70q16 -27 70 -32z" />
    <glyph glyph-name="Egrave" unicode="&#xc8;" horiz-adv-x="1177" 
d="M512 307h389q63 0 108.5 -45t45.5 -108t-45.5 -108.5t-108.5 -45.5h-563q-63 0 -108.5 45.5t-45.5 108.5v1126q0 63 45.5 108.5t108.5 45.5h543q63 0 108 -45.5t45 -108.5t-45 -108.5t-108 -45.5h-369v-252h307q63 0 108.5 -45t45.5 -108t-45.5 -108.5t-108.5 -45.5h-307
v-260zM444 1870l299 -152q56 -27 56 -90q0 -24 -8 -43q-12 -28 -38.5 -48.5t-62.5 -20.5q-19 0 -37 6l-317 98q-29 9 -46.5 33.5t-17.5 52.5q0 19 9 37l32 80q12 26 36 41.5t52 15.5q20 0 43 -10z" />
    <glyph glyph-name="Eacute" unicode="&#xc9;" horiz-adv-x="1177" 
d="M512 307h389q63 0 108.5 -45t45.5 -108t-45.5 -108.5t-108.5 -45.5h-563q-63 0 -108.5 45.5t-45.5 108.5v1126q0 63 45.5 108.5t108.5 45.5h543q63 0 108 -45.5t45 -108.5t-45 -108.5t-108 -45.5h-369v-252h307q63 0 108.5 -45t45.5 -108t-45.5 -108.5t-108.5 -45.5h-307
v-260zM514 1718l299 152q20 10 43 10q28 0 52 -15.5t36 -41.5l33 -80q8 -16 8 -37q0 -29 -17 -53t-46 -33l-318 -98q-18 -6 -35 -6q-34 0 -61 18t-41 49q-10 23 -10 43q0 28 15.5 53.5t41.5 38.5z" />
    <glyph glyph-name="Ecircumflex" unicode="&#xca;" horiz-adv-x="1177" 
d="M512 307h389q63 0 108.5 -45t45.5 -108t-45.5 -108.5t-108.5 -45.5h-563q-63 0 -108.5 45.5t-45.5 108.5v1126q0 63 45.5 108.5t108.5 45.5h543q63 0 108 -45.5t45 -108.5t-45 -108.5t-108 -45.5h-369v-252h307q63 0 108.5 -45t45.5 -108t-45.5 -108.5t-108.5 -45.5h-307
v-260zM604 1616l-170 -88q-24 -12 -53 -12q-59 0 -90 45q-19 28 -19 61q0 50 52 86l192 129q40 27 90 27q44 0 86 -25l205 -129q47 -27 47 -86q0 -31 -18 -55q-38 -53 -101 -53q-27 0 -51 12z" />
    <glyph glyph-name="Edieresis" unicode="&#xcb;" horiz-adv-x="1177" 
d="M512 307h389q63 0 108.5 -45t45.5 -108t-45.5 -108.5t-108.5 -45.5h-563q-63 0 -108.5 45.5t-45.5 108.5v1126q0 63 45.5 108.5t108.5 45.5h543q63 0 108 -45.5t45 -108.5t-45 -108.5t-108 -45.5h-369v-252h307q63 0 108.5 -45t45.5 -108t-45.5 -108.5t-108.5 -45.5h-307
v-260zM389 1874q75 0 130.5 -44t55.5 -116q0 -80 -55 -126t-131 -46q-87 0 -144 45t-57 127q0 73 57.5 116.5t143.5 43.5zM862 1874q76 0 131.5 -44t55.5 -116q0 -81 -55 -126.5t-132 -45.5q-86 0 -143 45.5t-57 126.5q0 73 57.5 116.5t142.5 43.5z" />
    <glyph glyph-name="Igrave" unicode="&#xcc;" horiz-adv-x="737" 
d="M205 1300q0 64 47 109t117 45t116.5 -45t46.5 -109v-1167q0 -64 -46.5 -108.5t-116.5 -44.5t-117 44.5t-47 108.5v1167zM178 1870l299 -152q55 -27 55 -90q0 -24 -8 -43q-12 -28 -38.5 -48.5t-61.5 -20.5q-19 0 -37 6l-317 98q-29 9 -46.5 33.5t-17.5 52.5q0 21 8 37
l33 80q12 26 36 41.5t52 15.5q20 0 43 -10z" />
    <glyph glyph-name="Iacute" unicode="&#xcd;" horiz-adv-x="737" 
d="M205 1300q0 64 47 109t117 45t116.5 -45t46.5 -109v-1167q0 -64 -46.5 -108.5t-116.5 -44.5t-117 44.5t-47 108.5v1167zM268 1718l299 152q20 10 43 10q28 0 52 -15.5t36 -41.5l33 -80q8 -16 8 -37q0 -29 -17 -53t-46 -33l-318 -98q-18 -6 -34 -6q-34 0 -62 18t-41 49
q-10 23 -10 43q0 28 15.5 53.5t41.5 38.5z" />
    <glyph glyph-name="Icircumflex" unicode="&#xce;" horiz-adv-x="737" 
d="M205 1300q0 64 47 109t117 45t116.5 -45t46.5 -109v-1167q0 -64 -46.5 -108.5t-116.5 -44.5t-117 44.5t-47 108.5v1167zM362 1616l-169 -88q-24 -12 -54 -12q-59 0 -90 45q-18 27 -18 61q0 51 51 86l192 129q41 27 91 27q44 0 86 -25l204 -129q47 -27 47 -86
q0 -31 -18 -55q-38 -53 -100 -53q-28 0 -52 12z" />
    <glyph glyph-name="Idieresis" unicode="&#xcf;" horiz-adv-x="737" 
d="M205 1300q0 64 47 109t117 45t116.5 -45t46.5 -109v-1167q0 -64 -46.5 -108.5t-116.5 -44.5t-117 44.5t-47 108.5v1167zM139 1874q75 0 131 -44t56 -116q0 -80 -55.5 -126t-131.5 -46q-87 0 -143.5 45t-56.5 127q0 73 57 116.5t143 43.5zM612 1874q76 0 131.5 -44
t55.5 -116q0 -81 -55 -126.5t-132 -45.5q-86 0 -143 45.5t-57 126.5q0 73 57.5 116.5t142.5 43.5z" />
    <glyph glyph-name="Eth" unicode="&#xd0;" horiz-adv-x="1523" 
d="M1442 729q0 -152 -52.5 -284t-152 -232.5t-258.5 -158.5t-358 -58q-45 0 -295 4q-59 0 -100.5 41.5t-41.5 99.5v428h-22q-59 0 -100.5 42t-41.5 102t41.5 101.5t100.5 41.5h22v436q0 59 41 101t101 43q226 4 311 4q167 0 303 -37.5t228.5 -103t155 -156t90.5 -194
t28 -220.5zM512 569v-262q43 -4 119 -4q215 0 339 112t124 314q0 193 -127.5 298.5t-333.5 105.5q-73 0 -121 -7v-270h195q59 0 100 -41.5t41 -101.5t-41 -102t-100 -42h-195z" />
    <glyph glyph-name="Ntilde" unicode="&#xd1;" horiz-adv-x="1617" 
d="M1126 569v731q0 63 45.5 108.5t108.5 45.5t108.5 -45.5t45.5 -108.5v-1163q0 -77 -43.5 -117t-114.5 -40q-85 0 -182 120l-602 760v-727q0 -63 -45.5 -108t-108.5 -45t-108.5 45t-45.5 108v1163q0 66 40.5 112t111.5 46q53 0 92 -24.5t92 -92.5zM1135 1620
q-91 -98 -207 -98q-46 0 -118.5 35.5t-113.5 35.5q-33 0 -80 -28q-26 -13 -49 -13q-50 0 -80 37q-24 30 -24 70q0 41 33 86q84 110 215 110q49 0 120 -35.5t111 -35.5q9 0 23 5.5t24 11.5l25 15l16 9q25 14 53 14q59 0 88 -47q17 -24 17 -53q0 -60 -53 -119z" />
    <glyph glyph-name="Ograve" unicode="&#xd2;" horiz-adv-x="1687" 
d="M844 -25q-163 0 -303 52t-241.5 147t-159.5 235t-58 308q0 155 55.5 291t153.5 235.5t241.5 157t311.5 57.5q218 0 390.5 -89t272 -258.5t99.5 -393.5q0 -160 -58 -298.5t-159 -235.5t-242 -152.5t-303 -55.5zM844 1151q-181 0 -297.5 -120t-116.5 -314
q0 -183 120.5 -308.5t293.5 -125.5q132 0 227 58.5t140.5 155.5t45.5 220q0 193 -118 313.5t-295 120.5zM690 1870l299 -152q55 -27 55 -90q0 -24 -8 -43q-12 -28 -38.5 -48.5t-61.5 -20.5q-19 0 -37 6l-317 98q-29 9 -46.5 33.5t-17.5 52.5q0 21 8 37l33 80q12 26 36 41.5
t52 15.5q20 0 43 -10z" />
    <glyph glyph-name="Oacute" unicode="&#xd3;" horiz-adv-x="1687" 
d="M844 -25q-163 0 -303 52t-241.5 147t-159.5 235t-58 308q0 155 55.5 291t153.5 235.5t241.5 157t311.5 57.5q218 0 390.5 -89t272 -258.5t99.5 -393.5q0 -160 -58 -298.5t-159 -235.5t-242 -152.5t-303 -55.5zM844 1151q-181 0 -297.5 -120t-116.5 -314
q0 -183 120.5 -308.5t293.5 -125.5q132 0 227 58.5t140.5 155.5t45.5 220q0 193 -118 313.5t-295 120.5zM760 1718l299 152q20 10 43 10q28 0 52 -15.5t36 -41.5l33 -80q8 -16 8 -37q0 -28 -17.5 -52.5t-46.5 -33.5l-317 -98q-18 -6 -35 -6q-34 0 -61 18t-41 49
q-11 26 -11 43q0 28 16 53.5t42 38.5z" />
    <glyph glyph-name="Ocircumflex" unicode="&#xd4;" horiz-adv-x="1687" 
d="M844 -25q-163 0 -303 52t-241.5 147t-159.5 235t-58 308q0 155 55.5 291t153.5 235.5t241.5 157t311.5 57.5q218 0 390.5 -89t272 -258.5t99.5 -393.5q0 -160 -58 -298.5t-159 -235.5t-242 -152.5t-303 -55.5zM844 1151q-181 0 -297.5 -120t-116.5 -314
q0 -183 120.5 -308.5t293.5 -125.5q132 0 227 58.5t140.5 155.5t45.5 220q0 193 -118 313.5t-295 120.5zM844 1616l-170 -88q-24 -12 -53 -12q-60 0 -91 45q-18 27 -18 61q0 51 51 86l193 129q40 27 90 27q44 0 86 -25l205 -129q47 -27 47 -86q0 -30 -19 -55
q-38 -53 -100 -53q-27 0 -51 12z" />
    <glyph glyph-name="Otilde" unicode="&#xd5;" horiz-adv-x="1687" 
d="M844 -25q-163 0 -303 52t-241.5 147t-159.5 235t-58 308q0 155 55.5 291t153.5 235.5t241.5 157t311.5 57.5q218 0 390.5 -89t272 -258.5t99.5 -393.5q0 -160 -58 -298.5t-159 -235.5t-242 -152.5t-303 -55.5zM844 1151q-181 0 -297.5 -120t-116.5 -314
q0 -183 120.5 -308.5t293.5 -125.5q132 0 227 58.5t140.5 155.5t45.5 220q0 193 -118 313.5t-295 120.5zM1139 1620q-91 -98 -207 -98q-46 0 -118.5 35.5t-113.5 35.5q-32 0 -79 -28q-26 -13 -50 -13q-49 0 -79 37q-25 31 -25 70q0 41 33 86q84 110 215 110q49 0 120 -35.5
t111 -35.5q9 0 23 5.5t24 11.5l25 15l16 9q25 14 53 14q60 0 89 -47q16 -22 16 -53q0 -60 -53 -119z" />
    <glyph glyph-name="Odieresis" unicode="&#xd6;" horiz-adv-x="1687" 
d="M844 -25q-163 0 -303 52t-241.5 147t-159.5 235t-58 308q0 155 55.5 291t153.5 235.5t241.5 157t311.5 57.5q218 0 390.5 -89t272 -258.5t99.5 -393.5q0 -160 -58 -298.5t-159 -235.5t-242 -152.5t-303 -55.5zM844 1151q-181 0 -297.5 -120t-116.5 -314
q0 -183 120.5 -308.5t293.5 -125.5q132 0 227 58.5t140.5 155.5t45.5 220q0 193 -118 313.5t-295 120.5zM604 1874q75 0 131 -44t56 -116q0 -80 -55.5 -126t-131.5 -46q-87 0 -144 45t-57 127q0 73 57.5 116.5t143.5 43.5zM1077 1874q76 0 131.5 -44t55.5 -116
q0 -81 -55 -126.5t-132 -45.5q-86 0 -143 45.5t-57 126.5q0 73 57.5 116.5t142.5 43.5z" />
    <glyph glyph-name="multiply" unicode="&#xd7;" horiz-adv-x="1150" 
d="M231 582l156 155l-154 154q-38 41 -38 94q0 56 38 94q39 39 95 39q58 0 94 -39l153 -153l154 153q39 39 94 39q59 0 95 -39q38 -35 38 -94q0 -56 -38 -94l-154 -154l156 -155q38 -35 38 -95q0 -56 -38 -94q-39 -39 -95 -39q-52 0 -94 39l-156 156l-155 -156
q-39 -39 -94 -39q-53 0 -95 39q-38 38 -38 94q0 57 38 95z" />
    <glyph glyph-name="Oslash" unicode="&#xd8;" horiz-adv-x="1687" 
d="M293 78q-49 0 -88 39t-39 90q0 49 35 84q-119 183 -119 426q0 155 55.5 291t153.5 235.5t241.5 157t311.5 57.5q244 0 432 -115q32 29 76 29q53 0 96 -43q39 -36 39 -88q0 -36 -23 -67q142 -188 142 -457q0 -160 -58 -298.5t-159 -235.5t-242 -152.5t-303 -55.5
q-271 0 -467 136q-45 -33 -84 -33zM1210 928l-589 -578q98 -67 223 -67q132 0 227 58.5t140.5 155.5t45.5 220q0 119 -47 211zM461 547l573 559q-88 45 -190 45q-181 0 -297.5 -120t-116.5 -314q0 -91 31 -170z" />
    <glyph glyph-name="Ugrave" unicode="&#xd9;" horiz-adv-x="1538" 
d="M492 676q0 -88 14.5 -156t47 -123t92 -84.5t142.5 -29.5q142 0 200.5 95t58.5 279v643q0 64 46.5 109t116.5 45t117 -45t47 -109v-708q0 -128 -31.5 -232t-86 -174.5t-129.5 -119t-160 -70t-179 -21.5q-139 0 -253 40t-197 117.5t-128.5 198t-45.5 275.5v694q0 64 47 109
t117 45t117 -45t47 -109v-624zM588 1870l299 -152q55 -27 55 -90q0 -24 -8 -43q-12 -28 -38.5 -48.5t-61.5 -20.5q-19 0 -37 6l-318 98q-29 9 -46 33t-17 53q0 21 8 37l33 80q12 26 36 41.5t52 15.5q20 0 43 -10z" />
    <glyph glyph-name="Uacute" unicode="&#xda;" horiz-adv-x="1538" 
d="M492 676q0 -88 14.5 -156t47 -123t92 -84.5t142.5 -29.5q142 0 200.5 95t58.5 279v643q0 64 46.5 109t116.5 45t117 -45t47 -109v-708q0 -128 -31.5 -232t-86 -174.5t-129.5 -119t-160 -70t-179 -21.5q-139 0 -253 40t-197 117.5t-128.5 198t-45.5 275.5v694q0 64 47 109
t117 45t117 -45t47 -109v-624zM678 1718l299 152q20 10 43 10q28 0 52 -15.5t36 -41.5l33 -80q8 -16 8 -37q0 -28 -17.5 -52.5t-46.5 -33.5l-317 -98q-18 -6 -35 -6q-34 0 -61 18t-41 49q-10 23 -10 43q0 28 15.5 53.5t41.5 38.5z" />
    <glyph glyph-name="Ucircumflex" unicode="&#xdb;" horiz-adv-x="1538" 
d="M492 676q0 -88 14.5 -156t47 -123t92 -84.5t142.5 -29.5q142 0 200.5 95t58.5 279v643q0 64 46.5 109t116.5 45t117 -45t47 -109v-708q0 -128 -31.5 -232t-86 -174.5t-129.5 -119t-160 -70t-179 -21.5q-139 0 -253 40t-197 117.5t-128.5 198t-45.5 275.5v694q0 64 47 109
t117 45t117 -45t47 -109v-624zM760 1616l-170 -88q-24 -12 -53 -12q-60 0 -91 45q-18 27 -18 61q0 51 51 86l193 129q40 27 90 27q44 0 86 -25l205 -129q47 -27 47 -86q0 -30 -19 -55q-38 -53 -100 -53q-27 0 -51 12z" />
    <glyph glyph-name="Udieresis" unicode="&#xdc;" horiz-adv-x="1538" 
d="M492 676q0 -88 14.5 -156t47 -123t92 -84.5t142.5 -29.5q142 0 200.5 95t58.5 279v643q0 64 46.5 109t116.5 45t117 -45t47 -109v-708q0 -128 -31.5 -232t-86 -174.5t-129.5 -119t-160 -70t-179 -21.5q-139 0 -253 40t-197 117.5t-128.5 198t-45.5 275.5v694q0 64 47 109
t117 45t117 -45t47 -109v-624zM522 1874q75 0 131 -44t56 -116q0 -80 -55.5 -126t-131.5 -46q-87 0 -143.5 45t-56.5 127q0 73 57 116.5t143 43.5zM995 1874q76 0 131.5 -44t55.5 -116q0 -81 -55 -126.5t-132 -45.5q-86 0 -143 45.5t-57 126.5q0 73 57.5 116.5t142.5 43.5z
" />
    <glyph glyph-name="Yacute" unicode="&#xdd;" horiz-adv-x="1306" 
d="M90 1288q0 66 43.5 116t116.5 50q97 0 151 -96l263 -467l262 465q56 98 151 98q63 0 101.5 -41t38.5 -102q0 -49 -31 -103l-373 -624v-451q0 -64 -47 -108.5t-117 -44.5t-117 44.5t-47 108.5v451l-372 616q-23 39 -23 88zM557 1718l299 152q20 10 43 10q28 0 52 -15.5
t36 -41.5l33 -80q8 -16 8 -37q0 -29 -17 -53t-46 -33l-318 -98q-18 -6 -35 -6q-34 0 -61 18t-41 49q-10 23 -10 43q0 28 15.5 53.5t41.5 38.5z" />
    <glyph glyph-name="Thorn" unicode="&#xde;" horiz-adv-x="1284" 
d="M512 1229q7 0 53 2t58 2q127 0 227.5 -26t165.5 -69.5t107.5 -105.5t60.5 -129.5t18 -144.5q0 -96 -36.5 -183t-103 -153.5t-168 -106t-222.5 -39.5q-100 0 -160 7v-150q0 -64 -47 -108.5t-117 -44.5t-117 44.5t-47 108.5v1167q0 64 47 109t117 45t117 -45t47 -109v-71z
M512 918v-324q78 -10 150 -10q35 0 66.5 8.5t61 27t47 54.5t17.5 86q0 90 -59 128t-168 38q-57 0 -115 -8z" />
    <glyph glyph-name="germandbls" unicode="&#xdf;" horiz-adv-x="1138" 
d="M762 -25q-101 0 -184 29q-41 14 -67 47.5t-26 75.5q0 25 9 49q20 53 55.5 69.5t91.5 16.5h45q84 0 84 80q0 33 -21.5 64t-54.5 54.5t-70.5 53t-70.5 59.5t-54.5 75t-21.5 97q0 55 14.5 102t35.5 78.5t41.5 58.5t35 54.5t14.5 55.5q0 33 -27.5 55t-72.5 22
q-59 0 -83.5 -44t-24.5 -140v-864q0 -59 -44.5 -101t-109.5 -42t-109.5 42t-44.5 101v887q0 230 120 339t341 109q165 0 274 -89t109 -216q0 -57 -22 -108.5t-48.5 -84t-48.5 -74t-22 -79.5q0 -35 16 -64.5t42 -51.5t57 -44t62.5 -50t57.5 -62t42 -86t16 -117
q0 -145 -93.5 -251t-242.5 -106z" />
    <glyph glyph-name="agrave" unicode="&#xe0;" horiz-adv-x="952" 
d="M352 -20q-127 0 -209 81t-82 218q0 150 93.5 227.5t238.5 77.5q56 0 105.5 -16t74.5 -36v19q0 70 -33.5 104.5t-93.5 34.5q-62 0 -129 -18q-12 -4 -34 -4q-39 0 -69.5 22.5t-43.5 63.5q-6 15 -6 32q0 39 27.5 73t70.5 52q95 35 215 35q204 0 293.5 -98t89.5 -293v-424
q0 -70 -39 -110.5t-92 -40.5q-105 0 -135 104q-32 -52 -97.5 -78t-144.5 -26zM573 291v57q-45 31 -116 31q-39 0 -63.5 -18.5t-24.5 -51.5q0 -31 25 -51t63 -20q78 0 116 53zM528 1413l97 -160q16 -29 16 -57q0 -60 -49 -100q-28 -25 -72 -25q-58 0 -96 41l-121 131
q-27 27 -27 68q0 52 41 82l64 47q26 20 61 20q59 0 86 -47z" />
    <glyph glyph-name="aacute" unicode="&#xe1;" horiz-adv-x="952" 
d="M352 -20q-127 0 -209 81t-82 218q0 150 93.5 227.5t238.5 77.5q56 0 105.5 -16t74.5 -36v19q0 70 -33.5 104.5t-93.5 34.5q-62 0 -129 -18q-12 -4 -34 -4q-39 0 -69.5 22.5t-43.5 63.5q-6 15 -6 32q0 39 27.5 73t70.5 52q95 35 215 35q204 0 293.5 -98t89.5 -293v-424
q0 -70 -39 -110.5t-92 -40.5q-105 0 -135 104q-32 -52 -97.5 -78t-144.5 -26zM573 291v57q-45 31 -116 31q-39 0 -63.5 -18.5t-24.5 -51.5q0 -31 25 -51t63 -20q78 0 116 53zM352 1255l97 160q27 49 86 49q33 0 59 -20l63 -47q39 -29 39 -82q0 -41 -24 -68l-121 -135
q-33 -39 -92 -39q-39 0 -72 23q-53 35 -53 96q0 33 18 63z" />
    <glyph glyph-name="acircumflex" unicode="&#xe2;" horiz-adv-x="952" 
d="M352 -20q-127 0 -209 81t-82 218q0 150 93.5 227.5t238.5 77.5q56 0 105.5 -16t74.5 -36v19q0 70 -33.5 104.5t-93.5 34.5q-62 0 -129 -18q-12 -4 -34 -4q-39 0 -69.5 22.5t-43.5 63.5q-6 15 -6 32q0 39 27.5 73t70.5 52q95 35 215 35q204 0 293.5 -98t89.5 -293v-424
q0 -70 -39 -110.5t-92 -40.5q-105 0 -135 104q-32 -52 -97.5 -78t-144.5 -26zM573 291v57q-45 31 -116 31q-39 0 -63.5 -18.5t-24.5 -51.5q0 -31 25 -51t63 -20q78 0 116 53zM287 1036q-57 0 -86 45q-25 31 -25 70q0 53 41 88l172 137q39 31 86 31q49 0 90 -33l166 -135
q41 -35 41 -88q0 -39 -27 -74q-34 -43 -88 -43q-38 0 -69 25l-115 94l-117 -92q-31 -25 -69 -25z" />
    <glyph glyph-name="atilde" unicode="&#xe3;" horiz-adv-x="952" 
d="M352 -20q-127 0 -209 81t-82 218q0 150 93.5 227.5t238.5 77.5q56 0 105.5 -16t74.5 -36v19q0 70 -33.5 104.5t-93.5 34.5q-62 0 -129 -18q-12 -4 -34 -4q-39 0 -69.5 22.5t-43.5 63.5q-6 15 -6 32q0 39 27.5 73t70.5 52q95 35 215 35q204 0 293.5 -98t89.5 -293v-424
q0 -70 -39 -110.5t-92 -40.5q-105 0 -135 104q-32 -52 -97.5 -78t-144.5 -26zM573 291v57q-45 31 -116 31q-39 0 -63.5 -18.5t-24.5 -51.5q0 -31 25 -51t63 -20q78 0 116 53zM784 1139q-102 -84 -206 -84q-46 0 -118.5 31.5t-113.5 31.5q-24 0 -80 -28q-34 -15 -53 -15
q-49 0 -82 45q-18 24 -18 58q0 48 37 82q108 100 210 100q50 0 124 -32t114 -32q26 0 84 33q24 12 51 12q58 0 88 -47q17 -24 17 -55q0 -54 -54 -100z" />
    <glyph glyph-name="adieresis" unicode="&#xe4;" horiz-adv-x="952" 
d="M352 -20q-127 0 -209 81t-82 218q0 150 93.5 227.5t238.5 77.5q56 0 105.5 -16t74.5 -36v19q0 70 -33.5 104.5t-93.5 34.5q-62 0 -129 -18q-12 -4 -34 -4q-39 0 -69.5 22.5t-43.5 63.5q-6 15 -6 32q0 39 27.5 73t70.5 52q95 35 215 35q204 0 293.5 -98t89.5 -293v-424
q0 -70 -39 -110.5t-92 -40.5q-105 0 -135 104q-32 -52 -97.5 -78t-144.5 -26zM573 291v57q-45 31 -116 31q-39 0 -63.5 -18.5t-24.5 -51.5q0 -31 25 -51t63 -20q78 0 116 53zM305 1030q-72 0 -120 46.5t-48 129.5q0 76 48.5 121t119.5 45q62 0 109 -46t47 -120
q0 -82 -46.5 -129t-109.5 -47zM700 1030q-71 0 -119.5 46.5t-48.5 129.5q0 75 49 120.5t119 45.5q63 0 109.5 -45.5t46.5 -120.5q0 -82 -46 -129t-110 -47z" />
    <glyph glyph-name="aring" unicode="&#xe5;" horiz-adv-x="952" 
d="M352 -20q-127 0 -209 81t-82 218q0 150 93.5 227.5t238.5 77.5q56 0 105.5 -16t74.5 -36v19q0 70 -33.5 104.5t-93.5 34.5q-62 0 -129 -18q-12 -4 -34 -4q-39 0 -69.5 22.5t-43.5 63.5q-6 15 -6 32q0 39 27.5 73t70.5 52q95 35 215 35q204 0 293.5 -98t89.5 -293v-424
q0 -70 -39 -110.5t-92 -40.5q-105 0 -135 104q-32 -52 -97.5 -78t-144.5 -26zM573 291v57q-45 31 -116 31q-39 0 -63.5 -18.5t-24.5 -51.5q0 -31 25 -51t63 -20q78 0 116 53zM500 991q-121 0 -201 75.5t-80 184.5q0 110 80 187.5t201 77.5q123 0 203.5 -77.5t80.5 -187.5
q0 -109 -80.5 -184.5t-203.5 -75.5zM504 1352q-40 0 -65 -28t-25 -69q0 -42 25 -71t65 -29q39 0 62.5 29t23.5 71q0 41 -23.5 69t-62.5 28z" />
    <glyph glyph-name="ae" unicode="&#xe6;" horiz-adv-x="1519" 
d="M1012 690q-42 0 -85.5 -20.5t-68.5 -65.5v-41h313q-5 53 -43 90t-112 37h-4zM573 285v63q-45 31 -116 31q-41 0 -64.5 -21t-23.5 -49q0 -25 21.5 -45t66.5 -20q61 0 116 41zM575 557q0 61 -35 98t-81 37q-68 0 -142 -20q-12 -4 -34 -4q-39 0 -69.5 22.5t-43.5 63.5
q-6 18 -6 34q0 40 26 74t68 49q112 35 219 35q181 0 271 -78q124 78 284 78q119 0 220.5 -53t164 -153.5t62.5 -227.5v-41q-1 -51 -36 -82t-83 -31h-500v-28q21 -43 76.5 -71t128.5 -28q65 0 137 21q21 6 43 6q37 0 65 -20.5t40 -53.5q8 -21 8 -47q0 -76 -84 -119
q-85 -43 -234 -43q-209 0 -340 103q-61 -43 -121 -66t-95 -27.5t-78 -4.5q-169 0 -257 81t-88 234q0 130 91.5 209.5t240.5 79.5q47 0 102 -17t78 -35q2 8 2 25z" />
    <glyph glyph-name="ccedilla" unicode="&#xe7;" horiz-adv-x="966" 
d="M690 -74q75 -14 116.5 -50.5t41.5 -113.5q0 -86 -72 -139t-198 -53q-81 0 -125 13.5t-91 41.5q-45 26 -45 74q0 22 11 41q24 43 67 43q23 0 58 -14q52 -23 92 -23q33 0 52 12t19 31q0 20 -20.5 34.5t-45 23t-45 26t-20.5 41.5q0 35 17 66q-203 19 -322 149t-119 332
q0 134 60.5 244t173 175.5t254.5 65.5q145 0 248 -49q41 -19 63.5 -50.5t22.5 -68.5q0 -29 -19 -69q-39 -76 -114 -76q-30 0 -74 12q-51 14 -88 14q-79 0 -139 -53t-60 -145q0 -89 62.5 -144t140.5 -55q45 0 104 23q49 18 82 18q66 0 107 -63q20 -36 20 -72
q0 -39 -19.5 -72.5t-51.5 -54.5q-79 -51 -216 -64q14 -42 72 -51z" />
    <glyph glyph-name="egrave" unicode="&#xe8;" horiz-adv-x="1048" 
d="M369 563h331q0 51 -40 89t-109 38q-74 0 -116.5 -31.5t-65.5 -95.5zM561 946q119 0 220.5 -53t164 -153.5t62.5 -227.5v-41q0 -55 -37 -84t-82 -29h-510q21 -63 78.5 -95t136.5 -32q56 0 129 21q21 6 41 6q36 0 64.5 -19.5t41.5 -54.5q9 -21 9 -43q0 -36 -22 -69.5
t-62 -53.5q-84 -43 -234 -43q-227 0 -363.5 133.5t-136.5 352.5q0 134 61 244t176 175.5t263 65.5zM621 1413l96 -160q16 -29 16 -57q0 -60 -49 -100q-28 -25 -72 -25q-58 0 -96 41l-121 131q-26 26 -26 68q0 52 41 82l63 47q26 20 62 20q59 0 86 -47z" />
    <glyph glyph-name="eacute" unicode="&#xe9;" horiz-adv-x="1048" 
d="M369 563h331q0 51 -40 89t-109 38q-74 0 -116.5 -31.5t-65.5 -95.5zM561 946q119 0 220.5 -53t164 -153.5t62.5 -227.5v-41q0 -55 -37 -84t-82 -29h-510q21 -63 78.5 -95t136.5 -32q56 0 129 21q21 6 41 6q36 0 64.5 -19.5t41.5 -54.5q9 -21 9 -43q0 -36 -22 -69.5
t-62 -53.5q-84 -43 -234 -43q-227 0 -363.5 133.5t-136.5 352.5q0 134 61 244t176 175.5t263 65.5zM444 1255l97 160q27 49 86 49q33 0 59 -20l64 -47q38 -28 38 -82q0 -41 -24 -68l-121 -135q-33 -39 -92 -39q-39 0 -72 23q-53 35 -53 96q0 33 18 63z" />
    <glyph glyph-name="ecircumflex" unicode="&#xea;" horiz-adv-x="1048" 
d="M369 563h331q0 51 -40 89t-109 38q-74 0 -116.5 -31.5t-65.5 -95.5zM561 946q119 0 220.5 -53t164 -153.5t62.5 -227.5v-41q0 -55 -37 -84t-82 -29h-510q21 -63 78.5 -95t136.5 -32q56 0 129 21q21 6 41 6q36 0 64.5 -19.5t41.5 -54.5q9 -21 9 -43q0 -36 -22 -69.5
t-62 -53.5q-84 -43 -234 -43q-227 0 -363.5 133.5t-136.5 352.5q0 134 61 244t176 175.5t263 65.5zM358 1036q-57 0 -86 45q-24 30 -24 70q0 53 41 88l172 137q39 31 86 31q49 0 90 -33l166 -135q41 -35 41 -88q0 -39 -27 -74q-34 -43 -88 -43q-39 0 -70 25l-114 94
l-117 -92q-31 -25 -70 -25z" />
    <glyph glyph-name="edieresis" unicode="&#xeb;" horiz-adv-x="1048" 
d="M369 563h331q0 51 -40 89t-109 38q-74 0 -116.5 -31.5t-65.5 -95.5zM561 946q119 0 220.5 -53t164 -153.5t62.5 -227.5v-41q0 -55 -37 -84t-82 -29h-510q21 -63 78.5 -95t136.5 -32q56 0 129 21q21 6 41 6q36 0 64.5 -19.5t41.5 -54.5q9 -21 9 -43q0 -36 -22 -69.5
t-62 -53.5q-84 -43 -234 -43q-227 0 -363.5 133.5t-136.5 352.5q0 134 61 244t176 175.5t263 65.5zM362 1030q-72 0 -119.5 46.5t-47.5 129.5q0 76 48 121t119 45q62 0 109 -46t47 -120q0 -82 -46.5 -129t-109.5 -47zM758 1030q-71 0 -119.5 46.5t-48.5 129.5q0 75 49 120.5
t119 45.5q63 0 109 -45.5t46 -120.5q0 -82 -45.5 -129t-109.5 -47z" />
    <glyph glyph-name="igrave" unicode="&#xec;" horiz-adv-x="585" 
d="M139 788q0 59 44.5 101.5t109.5 42.5t109 -42.5t44 -101.5v-665q0 -59 -44 -101t-109 -42t-109.5 42t-44.5 101v665zM272 1413l97 -160q16 -29 16 -57q0 -60 -49 -100q-28 -25 -72 -25q-58 0 -96 41l-121 131q-27 27 -27 68q0 52 41 82l64 47q26 20 61 20q59 0 86 -47z
" />
    <glyph glyph-name="iacute" unicode="&#xed;" horiz-adv-x="585" 
d="M139 788q0 59 44.5 101.5t109.5 42.5t109 -42.5t44 -101.5v-665q0 -59 -44 -101t-109 -42t-109.5 42t-44.5 101v665zM158 1255l96 160q27 49 86 49q33 0 59 -20l64 -47q39 -29 39 -82q0 -40 -25 -68l-121 -135q-33 -39 -92 -39q-38 0 -71 23q-54 35 -54 96q0 31 19 63z
" />
    <glyph glyph-name="icircumflex" unicode="&#xee;" horiz-adv-x="585" 
d="M139 788q0 59 44.5 101.5t109.5 42.5t109 -42.5t44 -101.5v-665q0 -59 -44 -101t-109 -42t-109.5 42t-44.5 101v665zM106 1036q-57 0 -86 45q-24 30 -24 70q0 53 41 88l172 137q39 31 86 31q49 0 90 -33l166 -135q41 -35 41 -88q0 -39 -27 -74q-34 -43 -88 -43
q-38 0 -69 25l-115 94l-117 -92q-31 -25 -70 -25z" />
    <glyph glyph-name="idieresis" unicode="&#xef;" horiz-adv-x="585" 
d="M139 788q0 59 44.5 101.5t109.5 42.5t109 -42.5t44 -101.5v-665q0 -59 -44 -101t-109 -42t-109.5 42t-44.5 101v665zM102 1030q-72 0 -120 46.5t-48 129.5q0 76 48.5 121t119.5 45q62 0 109 -46t47 -120q0 -82 -46.5 -129t-109.5 -47zM498 1030q-71 0 -119.5 46.5
t-48.5 129.5q0 75 49 120.5t119 45.5q63 0 109 -45.5t46 -120.5q0 -82 -45.5 -129t-109.5 -47z" />
    <glyph glyph-name="eth" unicode="&#xf0;" horiz-adv-x="1146" 
d="M573 -25q-232 0 -372 137.5t-140 348.5t140 348t372 137q57 0 111 -24q-23 55 -66 122l-110 -32q-28 -8 -45 -8q-45 0 -82.5 26.5t-52.5 71.5q-9 24 -9 45q0 40 22.5 74.5t55.5 48.5l29 12q-6 24 -6 49q0 46 25.5 80.5t74.5 46.5q27 6 49 6q33 0 64 -14.5t46.5 -28.5
t39.5 -39l74 15q24 4 36 4q51 0 91 -26t53 -72q6 -27 6 -50q0 -43 -21 -75.5t-51 -47.5q86 -137 132 -293t46 -290q0 -270 -137 -421t-375 -151zM573 659q-77 0 -130.5 -54t-53.5 -144q0 -87 52.5 -143t131.5 -56q84 0 135.5 65.5t51.5 180.5q0 33 -2 51q-44 100 -185 100z
" />
    <glyph glyph-name="ntilde" unicode="&#xf1;" horiz-adv-x="1114" 
d="M715 496q0 77 -41 116t-111 39q-80 0 -143 -63v-465q0 -59 -44.5 -101t-109.5 -42t-109 42t-44 101v655q0 62 46 108t122 46q88 0 139 -80q42 38 101 64t126 26q172 0 273.5 -94t101.5 -299v-426q0 -59 -44.5 -101t-109.5 -42t-109 42t-44 101v373zM872 1139
q-102 -84 -206 -84q-46 0 -118.5 31.5t-113.5 31.5q-24 0 -80 -28q-34 -15 -53 -15q-49 0 -82 45q-18 24 -18 58q0 48 37 82q108 100 211 100q49 0 123 -32t114 -32q26 0 84 33q24 12 51 12q58 0 88 -47q17 -24 17 -55q0 -54 -54 -100z" />
    <glyph glyph-name="ograve" unicode="&#xf2;" horiz-adv-x="1146" 
d="M573 -25q-232 0 -372 137.5t-140 348.5t140 348t372 137t372 -137t140 -348t-140 -348.5t-372 -137.5zM573 659q-77 0 -130.5 -54t-53.5 -144q0 -87 52.5 -143t131.5 -56q80 0 132.5 54t52.5 145q0 88 -53.5 143t-131.5 55zM594 1413l96 -160q17 -31 17 -57
q0 -60 -50 -100q-28 -25 -71 -25q-59 0 -97 41l-120 131q-27 27 -27 68q0 52 41 82l63 47q26 20 62 20q59 0 86 -47z" />
    <glyph glyph-name="oacute" unicode="&#xf3;" horiz-adv-x="1146" 
d="M573 -25q-232 0 -372 137.5t-140 348.5t140 348t372 137t372 -137t140 -348t-140 -348.5t-372 -137.5zM573 659q-77 0 -130.5 -54t-53.5 -144q0 -87 52.5 -143t131.5 -56q80 0 132.5 54t52.5 145q0 88 -53.5 143t-131.5 55zM459 1255l96 160q27 49 86 49q33 0 59 -20
l64 -47q39 -29 39 -82q0 -40 -25 -68l-121 -135q-33 -39 -92 -39q-38 0 -71 23q-54 35 -54 96q0 31 19 63z" />
    <glyph glyph-name="ocircumflex" unicode="&#xf4;" horiz-adv-x="1146" 
d="M573 -25q-232 0 -372 137.5t-140 348.5t140 348t372 137t372 -137t140 -348t-140 -348.5t-372 -137.5zM573 659q-77 0 -130.5 -54t-53.5 -144q0 -87 52.5 -143t131.5 -56q80 0 132.5 54t52.5 145q0 88 -53.5 143t-131.5 55zM391 1036q-57 0 -86 45q-24 30 -24 70
q0 53 41 88l172 137q39 31 86 31q49 0 90 -33l166 -135q41 -35 41 -88q0 -39 -27 -74q-34 -43 -88 -43q-39 0 -70 25l-114 94l-117 -92q-31 -25 -70 -25z" />
    <glyph glyph-name="otilde" unicode="&#xf5;" horiz-adv-x="1146" 
d="M573 -25q-232 0 -372 137.5t-140 348.5t140 348t372 137t372 -137t140 -348t-140 -348.5t-372 -137.5zM573 659q-77 0 -130.5 -54t-53.5 -144q0 -87 52.5 -143t131.5 -56q80 0 132.5 54t52.5 145q0 88 -53.5 143t-131.5 55zM889 1139q-102 -84 -207 -84q-46 0 -118 31.5
t-113 31.5q-24 0 -80 -28q-34 -15 -54 -15q-48 0 -81 45q-19 25 -19 58q0 48 37 82q108 100 211 100q49 0 123 -32t114 -32q26 0 84 33q24 12 52 12q58 0 88 -47q16 -22 16 -55q0 -55 -53 -100z" />
    <glyph glyph-name="odieresis" unicode="&#xf6;" horiz-adv-x="1146" 
d="M573 -25q-232 0 -372 137.5t-140 348.5t140 348t372 137t372 -137t140 -348t-140 -348.5t-372 -137.5zM573 659q-77 0 -130.5 -54t-53.5 -144q0 -87 52.5 -143t131.5 -56q80 0 132.5 54t52.5 145q0 88 -53.5 143t-131.5 55zM399 1030q-72 0 -120 46.5t-48 129.5
q0 76 48.5 121t119.5 45q62 0 109 -46t47 -120q0 -82 -46.5 -129t-109.5 -47zM795 1030q-71 0 -119.5 46.5t-48.5 129.5q0 75 49 120.5t119 45.5q63 0 109 -45.5t46 -120.5q0 -82 -45.5 -129t-109.5 -47z" />
    <glyph glyph-name="divide" unicode="&#xf7;" 
d="M614 1296q79 0 126.5 -52t47.5 -118q0 -73 -47.5 -127.5t-126.5 -54.5q-83 0 -130.5 54t-47.5 128q0 67 47.5 118.5t130.5 51.5zM614 522q76 0 125 -53t49 -117q0 -75 -47 -128.5t-127 -53.5q-84 0 -131 53.5t-47 128.5q0 66 48 118t130 52zM967 870q55 0 94 -39t39 -94
t-39 -94t-94 -39h-705q-56 0 -94.5 39t-38.5 94t38.5 94t94.5 39h705z" />
    <glyph glyph-name="oslash" unicode="&#xf8;" horiz-adv-x="1187" 
d="M594 -25q-190 0 -326 93q-30 -23 -59 -23q-43 0 -68 31q-18 21 -18 51q0 31 22 59q-84 116 -84 275q0 209 149.5 347t383.5 138q177 0 315 -88q28 25 62 25q37 0 65 -31q21 -21 21 -51q0 -33 -23 -56q92 -125 92 -284q0 -209 -149 -347.5t-383 -138.5zM788 528l-282 -252
q35 -14 88 -14q94 0 149.5 53t55.5 146q0 30 -11 67zM395 406l275 241q-35 12 -76 12q-91 0 -148 -53t-57 -145q0 -28 6 -55z" />
    <glyph glyph-name="ugrave" unicode="&#xf9;" horiz-adv-x="1085" 
d="M399 408q0 -62 28.5 -104t90.5 -42q81 0 148 84v442q0 59 44 101.5t109 42.5t109.5 -42.5t44.5 -101.5v-665q0 -60 -44 -101.5t-112 -41.5q-124 0 -151 112q-92 -117 -265 -117q-60 0 -114.5 22t-98.5 65.5t-70 115.5t-26 164v446q0 59 44.5 101.5t109.5 42.5t109 -42.5
t44 -101.5v-380zM553 1413l96 -160q17 -31 17 -57q0 -60 -50 -100q-28 -25 -71 -25q-58 0 -96 41l-121 131q-27 27 -27 68q0 52 41 82l64 47q26 20 61 20q59 0 86 -47z" />
    <glyph glyph-name="uacute" unicode="&#xfa;" horiz-adv-x="1085" 
d="M399 408q0 -62 28.5 -104t90.5 -42q81 0 148 84v442q0 59 44 101.5t109 42.5t109.5 -42.5t44.5 -101.5v-665q0 -60 -44 -101.5t-112 -41.5q-124 0 -151 112q-92 -117 -265 -117q-60 0 -114.5 22t-98.5 65.5t-70 115.5t-26 164v446q0 59 44.5 101.5t109.5 42.5t109 -42.5
t44 -101.5v-380zM438 1255l97 160q27 49 86 49q33 0 59 -20l63 -47q39 -29 39 -82q0 -41 -24 -68l-121 -135q-33 -39 -92 -39q-39 0 -72 23q-53 35 -53 96q0 33 18 63z" />
    <glyph glyph-name="ucircumflex" unicode="&#xfb;" horiz-adv-x="1085" 
d="M399 408q0 -62 28.5 -104t90.5 -42q81 0 148 84v442q0 59 44 101.5t109 42.5t109.5 -42.5t44.5 -101.5v-665q0 -60 -44 -101.5t-112 -41.5q-124 0 -151 112q-92 -117 -265 -117q-60 0 -114.5 22t-98.5 65.5t-70 115.5t-26 164v446q0 59 44.5 101.5t109.5 42.5t109 -42.5
t44 -101.5v-380zM356 1036q-57 0 -86 45q-24 30 -24 70q0 53 41 88l172 137q39 31 86 31q49 0 90 -33l166 -135q41 -35 41 -88q0 -39 -27 -74q-34 -43 -88 -43q-39 0 -70 25l-114 94l-117 -92q-31 -25 -70 -25z" />
    <glyph glyph-name="udieresis" unicode="&#xfc;" horiz-adv-x="1085" 
d="M399 408q0 -62 28.5 -104t90.5 -42q81 0 148 84v442q0 59 44 101.5t109 42.5t109.5 -42.5t44.5 -101.5v-665q0 -60 -44 -101.5t-112 -41.5q-124 0 -151 112q-92 -117 -265 -117q-60 0 -114.5 22t-98.5 65.5t-70 115.5t-26 164v446q0 59 44.5 101.5t109.5 42.5t109 -42.5
t44 -101.5v-380zM344 1030q-72 0 -120 46.5t-48 129.5q0 76 48.5 121t119.5 45q62 0 109 -46t47 -120q0 -82 -46.5 -129t-109.5 -47zM739 1030q-71 0 -119.5 46.5t-48.5 129.5q0 75 49 120.5t119 45.5q63 0 109.5 -45.5t46.5 -120.5q0 -82 -46 -129t-110 -47z" />
    <glyph glyph-name="yacute" unicode="&#xfd;" horiz-adv-x="1044" 
d="M393 825l121 -325q15 -39 35 -127q8 82 22 129l95 319q13 49 53.5 80t91.5 31q74 0 119 -45t45 -109q0 -33 -12 -63l-279 -715q-63 -163 -122.5 -254t-115.5 -123.5t-131 -32.5q-59 0 -122 29q-35 17 -54.5 49.5t-19.5 69.5q0 28 8 49q21 54 59.5 71t100.5 17q60 0 90 76
l20 49l-313 700q-14 32 -14 70q0 67 49 114.5t123 47.5q112 0 151 -107zM389 1255l96 160q27 49 86 49q34 0 60 -20l63 -47q39 -29 39 -82q0 -41 -24 -68l-121 -135q-33 -39 -92 -39q-39 0 -72 23q-53 35 -53 96q0 33 18 63z" />
    <glyph glyph-name="thorn" unicode="&#xfe;" horiz-adv-x="1148" 
d="M1087 475q0 -140 -60.5 -253.5t-174.5 -180t-260 -66.5q-103 0 -172 29v-270q0 -59 -44.5 -101.5t-109.5 -42.5t-109 42.5t-44 101.5v1577q0 59 44 101t109 42t109.5 -42t44.5 -101v-443q103 78 256 78q184 0 297.5 -132.5t113.5 -338.5zM420 578v-281q34 -20 64 -27.5
t79 -7.5q95 0 146 58.5t51 148.5q0 83 -47.5 136.5t-132.5 53.5q-88 0 -160 -81z" />
    <glyph glyph-name="ydieresis" unicode="&#xff;" horiz-adv-x="1044" 
d="M393 825l121 -325q15 -39 35 -127q8 82 22 129l95 319q13 49 53.5 80t91.5 31q74 0 119 -45t45 -109q0 -33 -12 -63l-279 -715q-63 -163 -122.5 -254t-115.5 -123.5t-131 -32.5q-59 0 -122 29q-35 17 -54.5 49.5t-19.5 69.5q0 28 8 49q21 54 59.5 71t100.5 17q60 0 90 76
l20 49l-313 700q-14 32 -14 70q0 67 49 114.5t123 47.5q112 0 151 -107zM342 1030q-72 0 -120 46.5t-48 129.5q0 76 48.5 121t119.5 45q62 0 109 -46t47 -120q0 -82 -46.5 -129t-109.5 -47zM737 1030q-71 0 -119.5 46.5t-48.5 129.5q0 75 49 120.5t119 45.5
q63 0 109.5 -45.5t46.5 -120.5q0 -82 -46 -129t-110 -47z" />
    <glyph glyph-name="Amacron" unicode="&#x100;" horiz-adv-x="1458" 
d="M1090 84l-84 217h-568l-86 -217q-43 -104 -153 -104q-62 0 -103 42.5t-41 100.5q0 32 11 57l462 1123q61 151 203 151q74 0 120.5 -37t78.5 -112l461 -1106q12 -30 12 -62q0 -64 -46 -110.5t-114 -46.5q-54 0 -94 28.5t-59 75.5zM883 608l-160 406l-162 -406h322z
M932 1782q50 0 85.5 -36t35.5 -87t-35.5 -87t-85.5 -36h-402q-50 0 -85 36t-35 87t35 87t85 36h402z" />
    <glyph glyph-name="amacron" unicode="&#x101;" horiz-adv-x="952" 
d="M352 -20q-127 0 -209 81t-82 218q0 150 93.5 227.5t238.5 77.5q56 0 105.5 -16t74.5 -36v19q0 70 -33.5 104.5t-93.5 34.5q-62 0 -129 -18q-12 -4 -34 -4q-39 0 -69.5 22.5t-43.5 63.5q-6 15 -6 32q0 39 27.5 73t70.5 52q95 35 215 35q204 0 293.5 -98t89.5 -293v-424
q0 -70 -39 -110.5t-92 -40.5q-105 0 -135 104q-32 -52 -97.5 -78t-144.5 -26zM573 291v57q-45 31 -116 31q-39 0 -63.5 -18.5t-24.5 -51.5q0 -31 25 -51t63 -20q78 0 116 53zM668 1311q50 0 85 -36t35 -87t-35 -87t-85 -36h-361q-50 0 -85.5 36t-35.5 87t35.5 87t85.5 36
h361z" />
    <glyph glyph-name="Abreve" unicode="&#x102;" horiz-adv-x="1458" 
d="M1090 84l-84 217h-568l-86 -217q-43 -104 -153 -104q-62 0 -103 42.5t-41 100.5q0 32 11 57l462 1123q61 151 203 151q74 0 120.5 -37t78.5 -112l461 -1106q12 -30 12 -62q0 -64 -46 -110.5t-114 -46.5q-54 0 -94 28.5t-59 75.5zM883 608l-160 406l-162 -406h322z
M1116 1729q0 -49 -35 -84q-64 -68 -153 -109t-185 -41q-104 0 -198 42.5t-162 109.5q-31 31 -31 79q0 40 25 68q41 47 86 47q29 0 65 -22q90 -58 215 -58q116 0 209 58q33 20 62 20q45 0 80 -47q22 -27 22 -63z" />
    <glyph glyph-name="abreve" unicode="&#x103;" horiz-adv-x="952" 
d="M352 -20q-127 0 -209 81t-82 218q0 150 93.5 227.5t238.5 77.5q56 0 105.5 -16t74.5 -36v19q0 70 -33.5 104.5t-93.5 34.5q-62 0 -129 -18q-12 -4 -34 -4q-39 0 -69.5 22.5t-43.5 63.5q-6 15 -6 32q0 39 27.5 73t70.5 52q95 35 215 35q204 0 293.5 -98t89.5 -293v-424
q0 -70 -39 -110.5t-92 -40.5q-105 0 -135 104q-32 -52 -97.5 -78t-144.5 -26zM573 291v57q-45 31 -116 31q-39 0 -63.5 -18.5t-24.5 -51.5q0 -31 25 -51t63 -20q78 0 116 53zM780 1245q0 -50 -30 -80q-117 -121 -291 -121q-91 0 -162.5 35.5t-118.5 89.5q-31 34 -31 82
q0 38 25 66q36 39 80 39q28 0 72 -21q88 -45 147 -45q72 0 156 45q31 17 57 17q45 0 76 -39q20 -23 20 -68z" />
    <glyph glyph-name="Aogonek" unicode="&#x104;" horiz-adv-x="1458" 
d="M1090 84l-84 217h-568l-86 -217q-43 -104 -153 -104q-62 0 -103 42.5t-41 100.5q0 32 11 57l462 1123q61 151 203 151q74 0 120.5 -37t78.5 -112l461 -1106q12 -30 12 -62q0 -64 -46 -110.5t-114 -46.5h-4q-45 -29 -45 -82q0 -62 61 -62q70 0 104 -12.5t50 -59.5
q6 -21 6 -38q0 -36 -22.5 -63t-55.5 -40q-79 -33 -178 -33q-111 0 -191.5 50t-80.5 145q0 89 67 150.5t174 89.5q-27 27 -38 59zM883 608l-160 406l-162 -406h322z" />
    <glyph glyph-name="aogonek" unicode="&#x105;" horiz-adv-x="952" 
d="M352 -20q-127 0 -209 81t-82 218q0 150 93.5 227.5t238.5 77.5q56 0 105.5 -16t74.5 -36v19q0 70 -33.5 104.5t-93.5 34.5q-62 0 -129 -18q-12 -4 -34 -4q-39 0 -69.5 22.5t-43.5 63.5q-6 15 -6 32q0 39 27.5 73t70.5 52q95 35 215 35q204 0 293.5 -98t89.5 -293v-424
q0 -70 -39 -110.5t-92 -40.5h-8q-45 -29 -45 -82q0 -62 61 -62q57 0 88.5 -14.5t44.5 -57.5q7 -21 7 -34q0 -36 -21 -65.5t-53 -41.5q-79 -33 -162 -33q-111 0 -188.5 50t-77.5 145q0 90 68.5 152t177.5 90q-19 25 -27 57q-32 -52 -97.5 -78t-144.5 -26zM573 291v57
q-45 31 -116 31q-39 0 -63.5 -18.5t-24.5 -51.5q0 -31 25 -51t63 -20q78 0 116 53z" />
    <glyph glyph-name="Cacute" unicode="&#x106;" horiz-adv-x="1304" 
d="M1081 1108q-34 0 -80 16q-79 27 -170 27q-173 0 -287 -114.5t-114 -319.5q0 -191 120.5 -312.5t313.5 -121.5q88 0 164 28q52 21 96 21q81 0 119 -72q19 -40 19 -72q0 -88 -101 -141q-137 -72 -327 -72q-220 0 -391 92t-266 261t-95 389q0 124 30 235t91.5 204t150 160
t210.5 104.5t267 37.5q88 0 165 -16.5t122 -40.5q109 -57 109 -141q0 -38 -21 -78q-44 -74 -125 -74zM678 1718l299 152q20 10 43 10q28 0 52 -15.5t36 -41.5l33 -80q8 -16 8 -37q0 -28 -17.5 -52.5t-46.5 -33.5l-317 -98q-18 -6 -35 -6q-34 0 -61 18t-41 49q-10 23 -10 43
q0 28 15.5 53.5t41.5 38.5z" />
    <glyph glyph-name="cacute" unicode="&#x107;" horiz-adv-x="966" 
d="M750 633q-30 0 -74 12q-51 14 -88 14q-79 0 -139 -53t-60 -145q0 -89 62.5 -144t140.5 -55q45 0 104 23q49 18 82 18q66 0 107 -63q20 -36 20 -72q0 -39 -19.5 -72.5t-51.5 -54.5q-45 -30 -117 -48t-150 -18q-230 0 -368 133.5t-138 352.5q0 134 60.5 244t173 175.5
t254.5 65.5q145 0 248 -49q41 -19 63.5 -50.5t22.5 -68.5q0 -29 -19 -69q-39 -76 -114 -76zM424 1255l96 160q27 49 86 49q34 0 60 -20l63 -47q39 -29 39 -82q0 -40 -25 -68l-120 -135q-33 -39 -93 -39q-38 0 -71 23q-53 35 -53 96q0 33 18 63z" />
    <glyph glyph-name="Ccircumflex" unicode="&#x108;" horiz-adv-x="1304" 
d="M1081 1108q-34 0 -80 16q-79 27 -170 27q-173 0 -287 -114.5t-114 -319.5q0 -191 120.5 -312.5t313.5 -121.5q88 0 164 28q52 21 96 21q81 0 119 -72q19 -40 19 -72q0 -88 -101 -141q-137 -72 -327 -72q-220 0 -391 92t-266 261t-95 389q0 124 30 235t91.5 204t150 160
t210.5 104.5t267 37.5q88 0 165 -16.5t122 -40.5q109 -57 109 -141q0 -38 -21 -78q-44 -74 -125 -74zM782 1616l-170 -88q-24 -12 -53 -12q-59 0 -90 45q-18 27 -18 61q0 51 51 86l192 129q40 27 90 27q44 0 86 -25l205 -129q47 -27 47 -86q0 -31 -18 -55q-38 -53 -100 -53
q-28 0 -52 12z" />
    <glyph glyph-name="ccircumflex" unicode="&#x109;" horiz-adv-x="966" 
d="M750 633q-30 0 -74 12q-51 14 -88 14q-79 0 -139 -53t-60 -145q0 -89 62.5 -144t140.5 -55q45 0 104 23q49 18 82 18q66 0 107 -63q20 -36 20 -72q0 -39 -19.5 -72.5t-51.5 -54.5q-45 -30 -117 -48t-150 -18q-230 0 -368 133.5t-138 352.5q0 134 60.5 244t173 175.5
t254.5 65.5q145 0 248 -49q41 -19 63.5 -50.5t22.5 -68.5q0 -29 -19 -69q-39 -76 -114 -76zM379 1036q-57 0 -86 45q-25 31 -25 70q0 53 41 88l172 137q39 31 86 31q49 0 90 -33l166 -135q41 -35 41 -88q0 -41 -26 -74q-34 -43 -88 -43q-39 0 -70 25l-115 94l-116 -92
q-31 -25 -70 -25z" />
    <glyph glyph-name="Cdotaccent" unicode="&#x10a;" horiz-adv-x="1304" 
d="M1081 1108q-34 0 -80 16q-79 27 -170 27q-173 0 -287 -114.5t-114 -319.5q0 -191 120.5 -312.5t313.5 -121.5q88 0 164 28q52 21 96 21q81 0 119 -72q19 -40 19 -72q0 -88 -101 -141q-137 -72 -327 -72q-220 0 -391 92t-266 261t-95 389q0 124 30 235t91.5 204t150 160
t210.5 104.5t267 37.5q88 0 165 -16.5t122 -40.5q109 -57 109 -141q0 -38 -21 -78q-44 -74 -125 -74zM788 1915q79 0 138 -50.5t59 -133.5q0 -91 -58.5 -144t-138.5 -53q-87 0 -146.5 52.5t-59.5 144.5q0 84 60 134t146 50z" />
    <glyph glyph-name="cdotaccent" unicode="&#x10b;" horiz-adv-x="966" 
d="M750 633q-30 0 -74 12q-51 14 -88 14q-79 0 -139 -53t-60 -145q0 -89 62.5 -144t140.5 -55q45 0 104 23q49 18 82 18q66 0 107 -63q20 -36 20 -72q0 -39 -19.5 -72.5t-51.5 -54.5q-45 -30 -117 -48t-150 -18q-230 0 -368 133.5t-138 352.5q0 134 60.5 244t173 175.5
t254.5 65.5q145 0 248 -49q41 -19 63.5 -50.5t22.5 -68.5q0 -29 -19 -69q-39 -76 -114 -76zM555 1413q70 0 122 -48t52 -126q0 -86 -51.5 -136t-122.5 -50q-79 0 -132.5 49.5t-53.5 136.5q0 79 54 126.5t132 47.5z" />
    <glyph glyph-name="Ccaron" unicode="&#x10c;" horiz-adv-x="1304" 
d="M1081 1108q-34 0 -80 16q-79 27 -170 27q-173 0 -287 -114.5t-114 -319.5q0 -191 120.5 -312.5t313.5 -121.5q88 0 164 28q52 21 96 21q81 0 119 -72q19 -40 19 -72q0 -88 -101 -141q-137 -72 -327 -72q-220 0 -391 92t-266 261t-95 389q0 124 30 235t91.5 204t150 160
t210.5 104.5t267 37.5q88 0 165 -16.5t122 -40.5q109 -57 109 -141q0 -38 -21 -78q-44 -74 -125 -74zM1020 1878q58 0 88 -47q16 -29 16 -55q0 -56 -45 -84l-205 -138q-38 -24 -86 -24q-44 0 -81 24l-213 134q-43 25 -43 77q0 35 20 64q36 51 92 51q23 0 51 -14l179 -107
l178 107q24 12 49 12z" />
    <glyph glyph-name="ccaron" unicode="&#x10d;" horiz-adv-x="966" 
d="M750 633q-30 0 -74 12q-51 14 -88 14q-79 0 -139 -53t-60 -145q0 -89 62.5 -144t140.5 -55q45 0 104 23q49 18 82 18q66 0 107 -63q20 -36 20 -72q0 -39 -19.5 -72.5t-51.5 -54.5q-45 -30 -117 -48t-150 -18q-230 0 -368 133.5t-138 352.5q0 134 60.5 244t173 175.5
t254.5 65.5q145 0 248 -49q41 -19 63.5 -50.5t22.5 -68.5q0 -29 -19 -69q-39 -76 -114 -76zM727 1409q54 0 88 -43q23 -38 23 -72q0 -53 -41 -88l-172 -137q-39 -31 -86 -31q-49 0 -90 33l-166 135q-41 35 -41 88q0 41 26 74q34 43 88 43q39 0 70 -25l115 -94l116 92
q31 25 70 25z" />
    <glyph glyph-name="Dcaron" unicode="&#x10e;" horiz-adv-x="1523" 
d="M184 1280q0 64 44.5 109t109.5 47q222 4 299 4q167 0 303 -37.5t228.5 -103t155 -156t90.5 -194t28 -220.5q0 -152 -52.5 -284t-152 -232.5t-258.5 -158.5t-358 -58q-41 0 -283 4q-64 0 -109 45.5t-45 108.5v1126zM512 1126v-819q43 -4 119 -4q215 0 339 112t124 314
q0 193 -127.5 298.5t-333.5 105.5q-73 0 -121 -7zM918 1878q58 0 88 -47q16 -29 16 -55q0 -56 -45 -84l-205 -138q-38 -24 -86 -24q-44 0 -82 24l-213 134q-43 25 -43 77q0 34 21 64q36 51 92 51q23 0 51 -14l178 -107l178 107q24 12 50 12z" />
    <glyph glyph-name="dcaron" unicode="&#x10f;" horiz-adv-x="1140" 
d="M721 1311q0 59 44 101t109 42t109.5 -42t44.5 -101v-1180q0 -65 -43 -108t-106 -43q-107 0 -158 96q-93 -96 -234 -96q-195 0 -310.5 129t-115.5 340q0 220 141.5 358.5t366.5 138.5q91 0 152 -28v393zM721 338v283q-65 38 -137 38q-79 0 -137 -52t-58 -148
q0 -88 49.5 -140.5t112.5 -52.5q91 0 170 72zM1108 1114q0 28 18 66q35 72 35 155v6q0 93 90 93h133q22 0 43 -17.5t21 -46.5q0 -115 -40.5 -200t-100.5 -136q-37 -30 -84 -30q-40 0 -68 22q-47 38 -47 88z" />
    <glyph glyph-name="Dcroat" unicode="&#x110;" horiz-adv-x="1523" 
d="M1442 729q0 -152 -52.5 -284t-152 -232.5t-258.5 -158.5t-358 -58q-45 0 -295 4q-59 0 -100.5 41.5t-41.5 99.5v428h-22q-59 0 -100.5 42t-41.5 102t41.5 101.5t100.5 41.5h22v436q0 59 41 101t101 43q226 4 311 4q167 0 303 -37.5t228.5 -103t155 -156t90.5 -194
t28 -220.5zM512 569v-262q43 -4 119 -4q215 0 339 112t124 314q0 193 -127.5 298.5t-333.5 105.5q-73 0 -121 -7v-270h195q59 0 100 -41.5t41 -101.5t-41 -102t-100 -42h-195z" />
    <glyph glyph-name="dcroat" unicode="&#x111;" horiz-adv-x="1140" 
d="M721 338v283q-65 38 -137 38q-79 0 -137 -52t-58 -148q0 -88 49.5 -140.5t112.5 -52.5q91 0 170 72zM879 -20q-102 0 -158 96q-93 -96 -234 -96q-195 0 -310.5 129t-115.5 340q0 220 141.5 358.5t366.5 138.5q91 0 152 -28v120h-90q-53 0 -87 35t-34 88t34 88t87 35h90
q0 76 43 123t110 47t110.5 -46.5t43.5 -121.5q63 -1 98 -36t35 -85q0 -51 -36 -89t-97 -38v-907q0 -68 -42.5 -109.5t-106.5 -41.5z" />
    <glyph glyph-name="Emacron" unicode="&#x112;" horiz-adv-x="1177" 
d="M512 307h389q63 0 108.5 -45t45.5 -108t-45.5 -108.5t-108.5 -45.5h-563q-63 0 -108.5 45.5t-45.5 108.5v1126q0 63 45.5 108.5t108.5 45.5h543q63 0 108 -45.5t45 -108.5t-45 -108.5t-108 -45.5h-369v-252h307q63 0 108.5 -45t45.5 -108t-45.5 -108.5t-108.5 -45.5h-307
v-260zM809 1782q50 0 85.5 -36t35.5 -87t-35.5 -87t-85.5 -36h-401q-50 0 -85.5 36t-35.5 87t35.5 87t85.5 36h401z" />
    <glyph glyph-name="emacron" unicode="&#x113;" horiz-adv-x="1048" 
d="M369 563h331q0 51 -40 89t-109 38q-74 0 -116.5 -31.5t-65.5 -95.5zM561 946q119 0 220.5 -53t164 -153.5t62.5 -227.5v-41q0 -55 -37 -84t-82 -29h-510q21 -63 78.5 -95t136.5 -32q56 0 129 21q21 6 41 6q36 0 64.5 -19.5t41.5 -54.5q9 -21 9 -43q0 -36 -22 -69.5
t-62 -53.5q-84 -43 -234 -43q-227 0 -363.5 133.5t-136.5 352.5q0 134 61 244t176 175.5t263 65.5zM721 1311q50 0 85.5 -36t35.5 -87t-35.5 -87t-85.5 -36h-361q-50 0 -85 36t-35 87t35 87t85 36h361z" />
    <glyph glyph-name="Edotaccent" unicode="&#x116;" horiz-adv-x="1177" 
d="M512 307h389q63 0 108.5 -45t45.5 -108t-45.5 -108.5t-108.5 -45.5h-563q-63 0 -108.5 45.5t-45.5 108.5v1126q0 63 45.5 108.5t108.5 45.5h543q63 0 108 -45.5t45 -108.5t-45 -108.5t-108 -45.5h-369v-252h307q63 0 108.5 -45t45.5 -108t-45.5 -108.5t-108.5 -45.5h-307
v-260zM625 1915q79 0 137.5 -50.5t58.5 -133.5q0 -91 -58 -144t-138 -53q-87 0 -147 52.5t-60 144.5q0 83 60 133.5t147 50.5z" />
    <glyph glyph-name="edotaccent" unicode="&#x117;" horiz-adv-x="1048" 
d="M369 563h331q0 51 -40 89t-109 38q-74 0 -116.5 -31.5t-65.5 -95.5zM561 946q119 0 220.5 -53t164 -153.5t62.5 -227.5v-41q0 -55 -37 -84t-82 -29h-510q21 -63 78.5 -95t136.5 -32q56 0 129 21q21 6 41 6q36 0 64.5 -19.5t41.5 -54.5q9 -21 9 -43q0 -36 -22 -69.5
t-62 -53.5q-84 -43 -234 -43q-227 0 -363.5 133.5t-136.5 352.5q0 134 61 244t176 175.5t263 65.5zM555 1413q70 0 122 -48t52 -126q0 -86 -51.5 -136t-122.5 -50q-79 0 -132.5 49.5t-53.5 136.5q0 79 54 126.5t132 47.5z" />
    <glyph glyph-name="Eogonek" unicode="&#x118;" horiz-adv-x="1177" 
d="M512 307h389q63 0 108.5 -45t45.5 -108t-45.5 -108.5t-108.5 -45.5q-54 0 -85.5 -32t-31.5 -70q0 -62 62 -62q70 0 103.5 -12.5t49.5 -59.5q7 -25 7 -38q0 -36 -22.5 -63t-55.5 -40q-79 -33 -178 -33q-71 0 -131 20t-101 65.5t-41 109.5q0 73 47 127.5t125 87.5h-311
q-63 0 -108.5 45.5t-45.5 108.5v1126q0 63 45.5 108.5t108.5 45.5h543q63 0 108 -45.5t45 -108.5t-45 -108.5t-108 -45.5h-369v-252h307q63 0 108.5 -45t45.5 -108t-45.5 -108.5t-108.5 -45.5h-307v-260z" />
    <glyph glyph-name="eogonek" unicode="&#x119;" horiz-adv-x="1048" 
d="M561 946q119 0 220.5 -53t164 -153.5t62.5 -227.5v-41q0 -55 -37 -84t-82 -29h-510q21 -63 78.5 -95t136.5 -32q56 0 129 21q21 6 41 6q36 0 64.5 -19.5t41.5 -54.5q9 -21 9 -43q0 -36 -22 -69.5t-62 -53.5q-53 -26 -125 -36q-49 -30 -49 -84q0 -62 61 -62
q57 0 88.5 -14.5t44.5 -57.5q6 -18 6 -34q0 -36 -20.5 -65.5t-52.5 -41.5q-79 -33 -162 -33q-111 0 -189 50t-78 145q0 127 138 199q-183 29 -289.5 157t-106.5 320q0 134 61 244t176 175.5t263 65.5zM369 563h331q0 51 -40 89t-109 38q-74 0 -116.5 -31.5t-65.5 -95.5z" />
    <glyph glyph-name="Ecaron" unicode="&#x11a;" horiz-adv-x="1177" 
d="M512 307h389q63 0 108.5 -45t45.5 -108t-45.5 -108.5t-108.5 -45.5h-563q-63 0 -108.5 45.5t-45.5 108.5v1126q0 63 45.5 108.5t108.5 45.5h543q63 0 108 -45.5t45 -108.5t-45 -108.5t-108 -45.5h-369v-252h307q63 0 108.5 -45t45.5 -108t-45.5 -108.5t-108.5 -45.5h-307
v-260zM856 1878q58 0 88 -47q17 -31 17 -55q0 -55 -46 -84l-204 -138q-38 -24 -86 -24q-45 0 -82 24l-213 134q-43 25 -43 77q0 35 20 64q36 51 92 51q24 0 52 -14l178 -107l178 107q24 12 49 12z" />
    <glyph glyph-name="ecaron" unicode="&#x11b;" horiz-adv-x="1048" 
d="M369 563h331q0 51 -40 89t-109 38q-74 0 -116.5 -31.5t-65.5 -95.5zM561 946q119 0 220.5 -53t164 -153.5t62.5 -227.5v-41q0 -55 -37 -84t-82 -29h-510q21 -63 78.5 -95t136.5 -32q56 0 129 21q21 6 41 6q36 0 64.5 -19.5t41.5 -54.5q9 -21 9 -43q0 -36 -22 -69.5
t-62 -53.5q-84 -43 -234 -43q-227 0 -363.5 133.5t-136.5 352.5q0 134 61 244t176 175.5t263 65.5zM748 1409q54 0 88 -43q22 -36 22 -72q0 -53 -41 -88l-172 -137q-39 -31 -86 -31q-49 0 -90 33l-166 135q-41 35 -41 88q0 40 27 74q34 43 88 43q38 0 69 -25l115 -94l117 92
q31 25 70 25z" />
    <glyph glyph-name="Gcircumflex" unicode="&#x11c;" horiz-adv-x="1488" 
d="M82 717q0 154 51 289.5t143 235.5t230 158t303 58q198 0 313 -51q121 -53 121 -147q0 -39 -20 -78q-44 -74 -125 -74q-34 0 -80 16q-79 27 -170 27q-121 0 -213.5 -46t-148.5 -145.5t-56 -242.5q0 -198 116 -316t308 -118q61 0 129.5 23t95.5 48v156h-151
q-63 0 -108.5 45.5t-45.5 108.5t45.5 108t108.5 45h305q63 0 108 -45t45 -108v-375q0 -131 -112 -197q-94 -55 -208.5 -86t-215.5 -31q-182 0 -327 53t-241.5 150.5t-148 234.5t-51.5 304zM782 1616l-170 -88q-24 -12 -53 -12q-59 0 -90 45q-18 27 -18 61q0 51 51 86
l192 129q40 27 90 27q44 0 86 -25l205 -129q47 -27 47 -86q0 -31 -18 -55q-38 -53 -100 -53q-28 0 -52 12z" />
    <glyph glyph-name="gcircumflex" unicode="&#x11d;" horiz-adv-x="1019" 
d="M520 246q-2 -8 -2 -23q0 -17 6 -35q131 -4 230.5 -36.5t162 -102t62.5 -168.5q0 -103 -68 -173.5t-175.5 -102t-246.5 -31.5q-104 0 -190 17.5t-154.5 53.5t-106.5 96t-38 140q0 115 82 188.5t223 102.5q-12 24 -12 51q0 31 14 53q-107 42 -167 127.5t-60 188.5
q0 145 111.5 249.5t295.5 104.5q137 0 236 -61l143 28q25 5 35 5q41 0 73 -20t40 -60q6 -21 6 -41q0 -85 -90 -113l-45 -14q10 -45 10 -78q0 -136 -103 -236t-272 -110zM489 -55q-101 0 -151.5 -17.5t-50.5 -46.5q0 -61 202 -61q203 0 203 61q0 64 -203 64zM487 700
q-56 0 -88 -32t-32 -76t31.5 -72t88.5 -28q54 0 87.5 26t33.5 74q0 46 -30.5 77t-90.5 31zM313 1036q-57 0 -86 45q-24 30 -24 70q0 53 41 88l172 137q39 31 86 31q49 0 90 -33l166 -135q41 -35 41 -88q0 -39 -27 -74q-34 -43 -88 -43q-39 0 -70 25l-114 94l-117 -92
q-31 -25 -70 -25z" />
    <glyph glyph-name="Gbreve" unicode="&#x11e;" horiz-adv-x="1488" 
d="M82 717q0 154 51 289.5t143 235.5t230 158t303 58q198 0 313 -51q121 -53 121 -147q0 -39 -20 -78q-44 -74 -125 -74q-34 0 -80 16q-79 27 -170 27q-121 0 -213.5 -46t-148.5 -145.5t-56 -242.5q0 -198 116 -316t308 -118q61 0 129.5 23t95.5 48v156h-151
q-63 0 -108.5 45.5t-45.5 108.5t45.5 108t108.5 45h305q63 0 108 -45t45 -108v-375q0 -131 -112 -197q-94 -55 -208.5 -86t-215.5 -31q-182 0 -327 53t-241.5 150.5t-148 234.5t-51.5 304zM1212 1729q0 -50 -34 -84q-64 -68 -153 -109t-185 -41q-104 0 -198.5 42.5
t-162.5 109.5q-30 30 -30 79q0 41 24 68q41 47 86 47q30 0 66 -22q90 -58 215 -58q116 0 209 58q33 20 61 20q45 0 80 -47q22 -27 22 -63z" />
    <glyph glyph-name="gbreve" unicode="&#x11f;" horiz-adv-x="1019" 
d="M520 246q-2 -8 -2 -23q0 -17 6 -35q131 -4 230.5 -36.5t162 -102t62.5 -168.5q0 -103 -68 -173.5t-175.5 -102t-246.5 -31.5q-104 0 -190 17.5t-154.5 53.5t-106.5 96t-38 140q0 115 82 188.5t223 102.5q-12 24 -12 51q0 31 14 53q-107 42 -167 127.5t-60 188.5
q0 145 111.5 249.5t295.5 104.5q137 0 236 -61l143 28q25 5 35 5q41 0 73 -20t40 -60q6 -21 6 -41q0 -85 -90 -113l-45 -14q10 -45 10 -78q0 -136 -103 -236t-272 -110zM489 -55q-101 0 -151.5 -17.5t-50.5 -46.5q0 -61 202 -61q203 0 203 61q0 64 -203 64zM487 700
q-56 0 -88 -32t-32 -76t31.5 -72t88.5 -28q54 0 87.5 26t33.5 74q0 46 -30.5 77t-90.5 31zM807 1245q0 -49 -31 -80q-117 -121 -291 -121q-171 0 -280 125q-31 34 -31 82q0 38 25 66q36 39 80 39q27 0 71 -21q88 -45 148 -45q71 0 155 45q31 17 58 17q44 0 75 -39
q21 -24 21 -68z" />
    <glyph glyph-name="Gdotaccent" unicode="&#x120;" horiz-adv-x="1488" 
d="M82 717q0 154 51 289.5t143 235.5t230 158t303 58q198 0 313 -51q121 -53 121 -147q0 -39 -20 -78q-44 -74 -125 -74q-34 0 -80 16q-79 27 -170 27q-121 0 -213.5 -46t-148.5 -145.5t-56 -242.5q0 -198 116 -316t308 -118q61 0 129.5 23t95.5 48v156h-151
q-63 0 -108.5 45.5t-45.5 108.5t45.5 108t108.5 45h305q63 0 108 -45t45 -108v-375q0 -131 -112 -197q-94 -55 -208.5 -86t-215.5 -31q-182 0 -327 53t-241.5 150.5t-148 234.5t-51.5 304zM768 1915q79 0 138 -50.5t59 -133.5q0 -91 -58.5 -144t-138.5 -53q-87 0 -147 52.5
t-60 144.5q0 83 60 133.5t147 50.5z" />
    <glyph glyph-name="gdotaccent" unicode="&#x121;" horiz-adv-x="1019" 
d="M520 246q-2 -8 -2 -23q0 -17 6 -35q131 -4 230.5 -36.5t162 -102t62.5 -168.5q0 -103 -68 -173.5t-175.5 -102t-246.5 -31.5q-104 0 -190 17.5t-154.5 53.5t-106.5 96t-38 140q0 115 82 188.5t223 102.5q-12 24 -12 51q0 31 14 53q-107 42 -167 127.5t-60 188.5
q0 145 111.5 249.5t295.5 104.5q137 0 236 -61l143 28q25 5 35 5q41 0 73 -20t40 -60q6 -21 6 -41q0 -85 -90 -113l-45 -14q10 -45 10 -78q0 -136 -103 -236t-272 -110zM489 -55q-101 0 -151.5 -17.5t-50.5 -46.5q0 -61 202 -61q203 0 203 61q0 64 -203 64zM487 700
q-56 0 -88 -32t-32 -76t31.5 -72t88.5 -28q54 0 87.5 26t33.5 74q0 46 -30.5 77t-90.5 31zM494 1413q70 0 122 -48t52 -126q0 -86 -51.5 -136t-122.5 -50q-79 0 -133 49.5t-54 136.5q0 79 54.5 126.5t132.5 47.5z" />
    <glyph glyph-name="Gcommaaccent" unicode="&#x122;" horiz-adv-x="1488" 
d="M82 717q0 154 51 289.5t143 235.5t230 158t303 58q198 0 313 -51q121 -53 121 -147q0 -39 -20 -78q-44 -74 -125 -74q-34 0 -80 16q-79 27 -170 27q-121 0 -213.5 -46t-148.5 -145.5t-56 -242.5q0 -198 116 -316t308 -118q61 0 129.5 23t95.5 48v156h-151
q-63 0 -108.5 45.5t-45.5 108.5t45.5 108t108.5 45h305q63 0 108 -45t45 -108v-375q0 -131 -112 -197q-94 -55 -208.5 -86t-215.5 -31q-182 0 -327 53t-241.5 150.5t-148 234.5t-51.5 304zM643 -317q0 35 25 63q24 30 24 70v8v18q0 36 14.5 51t53.5 23l158 31q2 0 7.5 1
t8.5 1q65 0 65 -90q0 -92 -64 -163.5t-138 -94.5q-30 -9 -56 -9q-51 0 -79 35q-19 25 -19 56z" />
    <glyph glyph-name="gcommaaccent" unicode="&#x123;" horiz-adv-x="1019" 
d="M520 246q-2 -8 -2 -23q0 -17 6 -35q131 -4 230.5 -36.5t162 -102t62.5 -168.5q0 -103 -68 -173.5t-175.5 -102t-246.5 -31.5q-104 0 -190 17.5t-154.5 53.5t-106.5 96t-38 140q0 115 82 188.5t223 102.5q-12 24 -12 51q0 31 14 53q-107 42 -167 127.5t-60 188.5
q0 145 111.5 249.5t295.5 104.5q137 0 236 -61l143 28q25 5 35 5q41 0 73 -20t40 -60q6 -21 6 -41q0 -85 -90 -113l-45 -14q10 -45 10 -78q0 -136 -103 -236t-272 -110zM489 -55q-101 0 -151.5 -17.5t-50.5 -46.5q0 -61 202 -61q203 0 203 61q0 64 -203 64zM487 700
q-56 0 -88 -32t-32 -76t31.5 -72t88.5 -28q54 0 87.5 26t33.5 74q0 46 -30.5 77t-90.5 31zM672 1335q0 -35 -25 -63q-24 -30 -24 -70v-8v-18q0 -36 -14.5 -51t-53.5 -23l-158 -31q-2 0 -7.5 -1t-8.5 -1q-66 0 -66 90q0 92 64 163.5t139 94.5q27 8 55 8q53 0 80 -34
q19 -25 19 -56z" />
    <glyph glyph-name="Hcircumflex" unicode="&#x124;" horiz-adv-x="1546" 
d="M1034 1300q0 64 47 109t117 45t117 -45t47 -109v-1167q0 -64 -47 -108.5t-117 -44.5t-117 44.5t-47 108.5v445h-522v-445q0 -64 -47 -108.5t-117 -44.5t-117 44.5t-47 108.5v1167q0 64 47 109t117 45t117 -45t47 -109v-415h522v415zM772 1616l-170 -88q-24 -12 -53 -12
q-59 0 -90 45q-19 28 -19 61q0 50 52 86l192 129q40 27 90 27q44 0 86 -25l205 -129q47 -27 47 -86q0 -31 -18 -55q-38 -53 -101 -53q-27 0 -51 12z" />
    <glyph glyph-name="hcircumflex" unicode="&#x125;" horiz-adv-x="1114" 
d="M715 502q0 68 -41.5 108.5t-106.5 40.5q-88 0 -147 -59v-469q0 -59 -44.5 -101t-109.5 -42t-109 42t-44 101v1188q0 59 44 101t109 42t109.5 -42t44.5 -101v-453q90 80 227 80q83 0 149 -22t118 -68t80 -124t28 -183v-418q0 -59 -44.5 -101t-109.5 -42t-109 42t-44 101
v379zM301 1616l-170 -88q-24 -12 -53 -12q-59 0 -90 45q-19 28 -19 61q0 51 51 86l193 129q41 27 90 27q44 0 86 -25l205 -129q47 -27 47 -86q0 -31 -18 -55q-38 -53 -101 -53q-27 0 -51 12z" />
    <glyph glyph-name="Hbar" unicode="&#x126;" horiz-adv-x="1566" 
d="M522 885h522v110h-522v-110zM1208 1454q71 0 117.5 -47.5t46.5 -122.5q64 -1 109 -44t45 -101q0 -57 -45.5 -100.5t-108.5 -43.5v-862q0 -64 -47 -108.5t-117 -44.5t-117 44.5t-47 108.5v445h-522v-445q0 -64 -47 -108.5t-117 -44.5t-116.5 44.5t-46.5 108.5v862
q-64 0 -109 43t-45 101t45 101t109 44q0 75 46 122.5t117 47.5t117.5 -47.5t46.5 -122.5h522q0 75 46.5 122.5t117.5 47.5z" />
    <glyph glyph-name="hbar" unicode="&#x127;" horiz-adv-x="1216" 
d="M522 592v-469q0 -59 -44 -101t-109 -42t-109.5 42t-44.5 101v881h-51q-59 0 -101.5 42.5t-42.5 100.5q0 57 41.5 100t98.5 43h55q0 73 43.5 118.5t114.5 45.5q65 0 107 -45.5t42 -118.5h131q59 0 101.5 -42.5t42.5 -100.5t-42.5 -100.5t-101.5 -42.5h-131v-146
q90 80 228 80q171 0 272.5 -95.5t101.5 -301.5v-418q0 -59 -44 -101t-109 -42t-109.5 42t-44.5 101v379q0 68 -41 108.5t-106 40.5q-89 0 -148 -59z" />
    <glyph glyph-name="Imacron" unicode="&#x12a;" horiz-adv-x="737" 
d="M205 1300q0 64 47 109t117 45t116.5 -45t46.5 -109v-1167q0 -64 -46.5 -108.5t-116.5 -44.5t-117 44.5t-47 108.5v1167zM580 1782q50 0 85 -36t35 -87t-35 -87t-85 -36h-402q-50 0 -85.5 36t-35.5 87t35.5 87t85.5 36h402z" />
    <glyph glyph-name="imacron" unicode="&#x12b;" horiz-adv-x="585" 
d="M139 788q0 59 44.5 101.5t109.5 42.5t109 -42.5t44 -101.5v-665q0 -59 -44 -101t-109 -42t-109.5 42t-44.5 101v665zM473 1311q50 0 85.5 -36t35.5 -87t-35.5 -87t-85.5 -36h-360q-50 0 -85.5 36t-35.5 87t35.5 87t85.5 36h360z" />
    <glyph glyph-name="Iogonek" unicode="&#x12e;" horiz-adv-x="737" 
d="M205 1300q0 64 47 109t117 45t116.5 -45t46.5 -109v-1167q0 -62 -44 -106t-111 -47q-45 -29 -45 -82q0 -62 61 -62q70 0 104 -12.5t50 -59.5q6 -21 6 -38q0 -36 -22.5 -63t-55.5 -40q-79 -33 -178 -33q-111 0 -191.5 50t-80.5 145q0 86 63 145.5t166 89.5q-49 46 -49 113
v1167z" />
    <glyph glyph-name="iogonek" unicode="&#x12f;" horiz-adv-x="585" 
d="M139 788q0 59 44.5 101.5t109.5 42.5t109 -42.5t44 -101.5v-665q0 -59 -44 -101t-109 -42q-21 0 -53 8q-28 -13 -43 -38t-15 -52q0 -62 62 -62q57 0 88.5 -14.5t44.5 -57.5q6 -18 6 -34q0 -36 -21 -65.5t-53 -41.5q-79 -33 -162 -33q-111 0 -188.5 50t-77.5 145
q0 99 81.5 162.5t207.5 87.5q-31 39 -31 88v665zM299 1413q70 0 122 -48t52 -126q0 -86 -51.5 -136t-122.5 -50q-79 0 -132.5 49.5t-53.5 136.5q0 79 54 126.5t132 47.5z" />
    <glyph glyph-name="Idotaccent" unicode="&#x130;" horiz-adv-x="737" 
d="M205 1300q0 64 47 109t117 45t116.5 -45t46.5 -109v-1167q0 -64 -46.5 -108.5t-116.5 -44.5t-117 44.5t-47 108.5v1167zM375 1915q79 0 137.5 -50.5t58.5 -133.5q0 -91 -58 -144t-138 -53q-87 0 -147 52.5t-60 144.5q0 83 60 133.5t147 50.5z" />
    <glyph glyph-name="dotlessi" unicode="&#x131;" horiz-adv-x="585" 
d="M139 788q0 59 44.5 101.5t109.5 42.5t109 -42.5t44 -101.5v-665q0 -59 -44 -101t-109 -42t-109.5 42t-44.5 101v665z" />
    <glyph glyph-name="Jcircumflex" unicode="&#x134;" horiz-adv-x="827" 
d="M264 -25q-105 0 -168 42.5t-63 117.5q0 65 44.5 106.5t127.5 41.5q58 0 84 31.5t26 95.5v890q0 64 47 109t117 45t117 -45t47 -109v-950q0 -183 -98 -279t-281 -96zM475 1616l-170 -88q-24 -12 -53 -12q-59 0 -90 45q-19 28 -19 61q0 50 52 86l192 129q41 27 90 27
q44 0 86 -25l205 -129q47 -27 47 -86q0 -31 -18 -55q-38 -53 -101 -53q-27 0 -51 12z" />
    <glyph glyph-name="jcircumflex" unicode="&#x135;" horiz-adv-x="581" 
d="M70 -412q-45 13 -73 47.5t-28 85.5q0 61 33 100.5t96 39.5q35 0 49.5 22.5t14.5 77.5v827q0 59 44 101.5t109 42.5t109.5 -42.5t44.5 -101.5v-856q0 -358 -289 -358q-62 0 -110 14zM129 1036q-57 0 -86 45q-25 31 -25 70q0 53 41 88l172 137q39 31 86 31q50 0 91 -33
l165 -135q41 -35 41 -88q0 -41 -26 -74q-34 -43 -88 -43q-39 0 -70 25l-115 94l-116 -92q-31 -25 -70 -25z" />
    <glyph glyph-name="Kcommaaccent" unicode="&#x136;" horiz-adv-x="1333" 
d="M928 102l-416 580v-549q0 -64 -47 -108.5t-117 -44.5t-117 44.5t-47 108.5v1167q0 64 47 109t117 45t117 -45t47 -109v-491l412 553q40 53 75.5 72.5t83.5 19.5q70 0 107 -38.5t37 -94.5q0 -65 -41 -115l-350 -434l399 -532q33 -42 33 -99q0 -65 -42 -113t-112 -48
q-54 0 -95 27t-91 95zM520 -317q0 35 25 63q24 30 24 70v8v18q0 36 14.5 51t53.5 23l158 31q2 0 7.5 1t8.5 1q66 0 66 -90q0 -92 -64 -163.5t-139 -94.5q-30 -9 -56 -9q-51 0 -79 35q-19 25 -19 56z" />
    <glyph glyph-name="kcommaaccent" unicode="&#x137;" horiz-adv-x="1058" 
d="M657 76l-237 364v-317q0 -59 -44.5 -101t-109.5 -42t-109 42t-44 101v1188q0 59 44 101t109 42t109.5 -42t44.5 -101v-789l203 324q62 96 163 96q66 0 105 -43t39 -102q0 -50 -31 -92l-141 -199l186 -277q29 -47 29 -92q0 -63 -42.5 -110t-111.5 -47q-99 0 -162 96z
M330 -317q0 36 24 63q25 31 25 70v8v18q0 36 14 51t53 23l158 31q2 0 8 1t9 1q65 0 65 -90q0 -92 -64 -163.5t-139 -94.5q-30 -9 -55 -9q-52 0 -80 35q-18 24 -18 56z" />
    <glyph glyph-name="Lacute" unicode="&#x139;" horiz-adv-x="1116" 
d="M512 307h430q63 0 108.5 -45t45.5 -108t-45.5 -108.5t-108.5 -45.5h-604q-63 0 -108.5 45.5t-45.5 108.5v1146q0 64 47 109t117 45t117 -45t47 -109v-993zM453 1718l299 152q20 10 43 10q28 0 52 -15.5t36 -41.5l32 -80q9 -18 9 -37q0 -28 -17.5 -52.5t-46.5 -33.5
l-317 -98q-18 -6 -35 -6q-34 0 -61 18t-41 49q-11 26 -11 43q0 28 16 53.5t42 38.5z" />
    <glyph glyph-name="lacute" unicode="&#x13a;" horiz-adv-x="626" 
d="M420 1311v-949q0 -54 14.5 -73t57.5 -27q104 -20 104 -123q0 -58 -26.5 -95.5t-69.5 -51.5q-52 -17 -99 -17q-74 0 -131 23t-90.5 64t-50 91.5t-16.5 110.5v1047q0 59 44 101t109 42t109.5 -42t44.5 -101zM238 1718l299 152q20 10 43 10q28 0 52 -15.5t36 -41.5l32 -80
q9 -18 9 -37q0 -28 -17.5 -52.5t-46.5 -33.5l-317 -98q-18 -6 -35 -6q-34 0 -62 18t-41 49q-10 23 -10 43q0 28 16 53.5t42 38.5z" />
    <glyph glyph-name="Lcommaaccent" unicode="&#x13b;" horiz-adv-x="1116" 
d="M512 307h430q63 0 108.5 -45t45.5 -108t-45.5 -108.5t-108.5 -45.5h-604q-63 0 -108.5 45.5t-45.5 108.5v1146q0 64 47 109t117 45t117 -45t47 -109v-993zM438 -317q0 35 25 63q24 30 24 70v8v18q0 36 14.5 51t53.5 23l158 31q2 0 7.5 1t8.5 1q66 0 66 -90
q0 -92 -64 -163.5t-139 -94.5q-30 -9 -55 -9q-52 0 -80 35q-19 25 -19 56z" />
    <glyph glyph-name="lcommaaccent" unicode="&#x13c;" horiz-adv-x="626" 
d="M420 1311v-949q0 -54 14.5 -73t57.5 -27q104 -20 104 -123q0 -58 -26.5 -95.5t-69.5 -51.5q-52 -17 -99 -17q-74 0 -131 23t-90.5 64t-50 91.5t-16.5 110.5v1047q0 59 44 101t109 42t109.5 -42t44.5 -101zM182 -317q0 35 25 63q24 30 24 70v8v18q0 36 14.5 51t53.5 23
l158 31q2 0 7.5 1t8.5 1q66 0 66 -90q0 -92 -64 -163.5t-139 -94.5q-30 -9 -55 -9q-52 0 -80 35q-19 25 -19 56z" />
    <glyph glyph-name="Lcaron" unicode="&#x13d;" horiz-adv-x="1116" 
d="M512 307h430q63 0 108.5 -45t45.5 -108t-45.5 -108.5t-108.5 -45.5h-604q-63 0 -108.5 45.5t-45.5 108.5v1146q0 64 47 109t117 45t117 -45t47 -109v-993zM698 1114q0 26 19 66q35 72 35 155v6q0 93 90 93h133q22 0 42.5 -17t20.5 -47q0 -115 -40.5 -200t-100.5 -136
q-37 -30 -84 -30q-40 0 -68 22q-47 38 -47 88z" />
    <glyph glyph-name="lcaron" unicode="&#x13e;" horiz-adv-x="626" 
d="M420 1311v-949q0 -54 14.5 -73t57.5 -27q104 -20 104 -123q0 -58 -26.5 -95.5t-69.5 -51.5q-52 -17 -99 -17q-74 0 -131 23t-90.5 64t-50 91.5t-16.5 110.5v1047q0 59 44 101t109 42t109.5 -42t44.5 -101zM514 1114q0 28 18 66q35 72 35 155v6q0 93 90 93h134
q22 0 42.5 -17t20.5 -47q0 -115 -40.5 -200t-100.5 -136q-38 -30 -84 -30q-40 0 -68 22q-47 38 -47 88z" />
    <glyph glyph-name="Ldot" unicode="&#x13f;" horiz-adv-x="1116" 
d="M512 307h430q63 0 108.5 -45t45.5 -108t-45.5 -108.5t-108.5 -45.5h-604q-63 0 -108.5 45.5t-45.5 108.5v1146q0 64 47 109t117 45t117 -45t47 -109v-993zM913 963q82 0 137.5 -60t55.5 -133q0 -85 -54.5 -147t-138.5 -62q-94 0 -151 61.5t-57 147.5q0 74 57.5 133.5
t150.5 59.5z" />
    <glyph glyph-name="ldot" unicode="&#x140;" horiz-adv-x="772" 
d="M420 1311v-949q0 -54 14.5 -73t57.5 -27q104 -20 104 -123q0 -58 -26.5 -95.5t-69.5 -51.5q-52 -17 -99 -17q-74 0 -131 23t-90.5 64t-50 91.5t-16.5 110.5v1047q0 59 44 101t109 42t109.5 -42t44.5 -101zM659 891q70 0 122.5 -48t52.5 -126q0 -86 -52 -136.5t-123 -50.5
q-79 0 -132.5 50t-53.5 137q0 79 54 126.5t132 47.5z" />
    <glyph glyph-name="Lslash" unicode="&#x141;" horiz-adv-x="1136" 
d="M963 0h-605q-63 0 -108 45.5t-45 108.5v309q-15 -6 -35 -6q-49 0 -89 41t-40 108q0 41 24.5 77t65.5 56l74 35v526q0 64 47 109t117 45t116.5 -45t46.5 -109v-380l91 41q43 18 82 18q57 0 95 -36t38 -93q0 -96 -101 -145l-205 -101v-297h431q63 0 108 -45t45 -108
t-45 -108.5t-108 -45.5z" />
    <glyph glyph-name="lslash" unicode="&#x142;" horiz-adv-x="684" 
d="M461 567v-205q0 -54 14.5 -73t56.5 -27q105 -20 105 -123q0 -58 -26.5 -95.5t-69.5 -51.5q-52 -17 -99 -17q-74 0 -131 23t-90.5 64t-50 91.5t-16.5 110.5v166h-9q-51 0 -88 40t-37 110q0 108 105 153l29 12v566q0 59 44 101t109 42t109.5 -42t44.5 -101v-430q21 6 41 6
q54 0 93.5 -36t39.5 -97q0 -107 -107 -158z" />
    <glyph glyph-name="Nacute" unicode="&#x143;" horiz-adv-x="1617" 
d="M1126 569v731q0 63 45.5 108.5t108.5 45.5t108.5 -45.5t45.5 -108.5v-1163q0 -77 -43.5 -117t-114.5 -40q-85 0 -182 120l-602 760v-727q0 -63 -45.5 -108t-108.5 -45t-108.5 45t-45.5 108v1163q0 66 40.5 112t111.5 46q53 0 92 -24.5t92 -92.5zM719 1718l299 152
q20 10 43 10q28 0 52 -15.5t36 -41.5l33 -80q8 -16 8 -37q0 -28 -17.5 -52.5t-46.5 -33.5l-317 -98q-18 -6 -35 -6q-34 0 -61 18t-41 49q-10 23 -10 43q0 28 15.5 53.5t41.5 38.5z" />
    <glyph glyph-name="nacute" unicode="&#x144;" horiz-adv-x="1114" 
d="M715 496q0 77 -41 116t-111 39q-80 0 -143 -63v-465q0 -59 -44.5 -101t-109.5 -42t-109 42t-44 101v655q0 62 46 108t122 46q88 0 139 -80q42 38 101 64t126 26q172 0 273.5 -94t101.5 -299v-426q0 -59 -44.5 -101t-109.5 -42t-109 42t-44 101v373zM463 1255l96 160
q27 49 86 49q34 0 60 -20l63 -47q39 -29 39 -82q0 -40 -25 -68l-120 -135q-33 -39 -93 -39q-38 0 -71 23q-54 35 -54 96q0 31 19 63z" />
    <glyph glyph-name="Ncommaaccent" unicode="&#x145;" horiz-adv-x="1617" 
d="M1126 569v731q0 63 45.5 108.5t108.5 45.5t108.5 -45.5t45.5 -108.5v-1163q0 -77 -43.5 -117t-114.5 -40q-85 0 -182 120l-602 760v-727q0 -63 -45.5 -108t-108.5 -45t-108.5 45t-45.5 108v1163q0 66 40.5 112t111.5 46q53 0 92 -24.5t92 -92.5zM623 -317q0 36 24 63
q25 31 25 70v8v18q0 36 14 51t53 23l158 31q2 0 7.5 1t8.5 1q66 0 66 -90q0 -92 -64 -163.5t-139 -94.5q-30 -9 -55 -9q-52 0 -80 35q-18 24 -18 56z" />
    <glyph glyph-name="ncommaaccent" unicode="&#x146;" horiz-adv-x="1114" 
d="M715 496q0 77 -41 116t-111 39q-80 0 -143 -63v-465q0 -59 -44.5 -101t-109.5 -42t-109 42t-44 101v655q0 62 46 108t122 46q88 0 139 -80q42 38 101 64t126 26q172 0 273.5 -94t101.5 -299v-426q0 -59 -44.5 -101t-109.5 -42t-109 42t-44 101v373zM358 -317q0 35 25 63
q25 31 25 70v8v18q0 36 14 51t53 23l158 31q2 0 7.5 1t8.5 1q66 0 66 -90q0 -92 -64 -163.5t-139 -94.5q-30 -9 -55 -9q-52 0 -80 35q-19 25 -19 56z" />
    <glyph glyph-name="Ncaron" unicode="&#x147;" horiz-adv-x="1617" 
d="M1126 569v731q0 63 45.5 108.5t108.5 45.5t108.5 -45.5t45.5 -108.5v-1163q0 -77 -43.5 -117t-114.5 -40q-85 0 -182 120l-602 760v-727q0 -63 -45.5 -108t-108.5 -45t-108.5 45t-45.5 108v1163q0 66 40.5 112t111.5 46q53 0 92 -24.5t92 -92.5zM1044 1878q59 0 89 -47
q16 -29 16 -55q0 -56 -45 -84l-205 -138q-37 -24 -86 -24q-45 0 -82 24l-213 134q-43 25 -43 77q0 34 21 64q36 51 92 51q23 0 51 -14l178 -107l178 107q24 12 49 12z" />
    <glyph glyph-name="ncaron" unicode="&#x148;" horiz-adv-x="1114" 
d="M715 496q0 77 -41 116t-111 39q-80 0 -143 -63v-465q0 -59 -44.5 -101t-109.5 -42t-109 42t-44 101v655q0 62 46 108t122 46q88 0 139 -80q42 38 101 64t126 26q172 0 273.5 -94t101.5 -299v-426q0 -59 -44.5 -101t-109.5 -42t-109 42t-44 101v373zM743 1409q54 0 88 -43
q23 -38 23 -72q0 -53 -41 -88l-172 -137q-39 -31 -86 -31q-49 0 -90 33l-166 135q-41 35 -41 88q0 40 27 74q34 43 88 43q38 0 69 -25l115 -94l117 92q31 25 69 25z" />
    <glyph glyph-name="Omacron" unicode="&#x14c;" horiz-adv-x="1687" 
d="M844 -25q-163 0 -303 52t-241.5 147t-159.5 235t-58 308q0 155 55.5 291t153.5 235.5t241.5 157t311.5 57.5q218 0 390.5 -89t272 -258.5t99.5 -393.5q0 -160 -58 -298.5t-159 -235.5t-242 -152.5t-303 -55.5zM844 1151q-181 0 -297.5 -120t-116.5 -314
q0 -183 120.5 -308.5t293.5 -125.5q132 0 227 58.5t140.5 155.5t45.5 220q0 193 -118 313.5t-295 120.5zM1065 1782q50 0 85.5 -36t35.5 -87t-35.5 -87t-85.5 -36h-401q-50 0 -85.5 36t-35.5 87t35.5 87t85.5 36h401z" />
    <glyph glyph-name="omacron" unicode="&#x14d;" horiz-adv-x="1146" 
d="M573 -25q-232 0 -372 137.5t-140 348.5t140 348t372 137t372 -137t140 -348t-140 -348.5t-372 -137.5zM573 659q-77 0 -130.5 -54t-53.5 -144q0 -87 52.5 -143t131.5 -56q80 0 132.5 54t52.5 145q0 88 -53.5 143t-131.5 55zM774 1311q50 0 85.5 -36t35.5 -87t-35.5 -87
t-85.5 -36h-360q-50 0 -85.5 36t-35.5 87t35.5 87t85.5 36h360z" />
    <glyph glyph-name="Ohungarumlaut" unicode="&#x150;" horiz-adv-x="1687" 
d="M844 -25q-163 0 -303 52t-241.5 147t-159.5 235t-58 308q0 155 55.5 291t153.5 235.5t241.5 157t311.5 57.5q218 0 390.5 -89t272 -258.5t99.5 -393.5q0 -160 -58 -298.5t-159 -235.5t-242 -152.5t-303 -55.5zM844 1151q-181 0 -297.5 -120t-116.5 -314
q0 -183 120.5 -308.5t293.5 -125.5q132 0 227 58.5t140.5 155.5t45.5 220q0 193 -118 313.5t-295 120.5zM946 1679l195 176q30 27 65 27q36 0 66 -27l86 -73q20 -17 20 -47q0 -39 -32 -56l-263 -145q-22 -14 -55 -14q-51 0 -84 36q-24 24 -24 60q0 40 26 63zM549 1683
l108 158q28 45 84 45q22 0 45 -10l107 -55q33 -14 33 -52q0 -27 -21 -45l-207 -176q-27 -24 -65 -24q-39 0 -68 26q-33 29 -33 76q0 32 17 57z" />
    <glyph glyph-name="ohungarumlaut" unicode="&#x151;" horiz-adv-x="1146" 
d="M573 -25q-232 0 -372 137.5t-140 348.5t140 348t372 137t372 -137t140 -348t-140 -348.5t-372 -137.5zM573 659q-77 0 -130.5 -54t-53.5 -144q0 -87 52.5 -143t131.5 -56q80 0 132.5 54t52.5 145q0 88 -53.5 143t-131.5 55zM647 1249l111 148q31 45 88 45q35 0 65 -23
l52 -37q36 -26 36 -77q0 -43 -28 -68l-127 -129q-40 -37 -92 -37q-42 0 -78 25q-47 35 -47 90q0 37 20 63zM287 1255l92 164q12 23 35.5 36t50.5 13q33 0 57 -18l41 -33q45 -31 45 -90q0 -36 -20 -65l-107 -142q-36 -45 -90 -45q-35 0 -65 21q-54 39 -54 102q0 30 15 57z
" />
    <glyph glyph-name="OE" unicode="&#x152;" horiz-adv-x="2117" 
d="M1452 307h389q63 0 108.5 -45t45.5 -108t-45.5 -108.5t-108.5 -45.5h-690q-11 0 -19 8.5t-8 20.5q-141 -54 -290 -54q-220 0 -391 92t-266 261t-95 389q0 124 30 235t91.5 204t150 160t210.5 104.5t267 37.5q156 0 293 -55q0 12 9.5 21.5t21.5 9.5h666q63 0 108 -45.5
t45 -108.5t-45 -108.5t-108 -45.5h-369v-252h307q63 0 108.5 -45t45.5 -108t-45.5 -108.5t-108.5 -45.5h-307v-260zM1124 352v711q-71 43 -136 65.5t-157 22.5q-173 0 -287 -114.5t-114 -319.5q0 -191 120.5 -312.5t313.5 -121.5q137 0 260 69z" />
    <glyph glyph-name="oe" unicode="&#x153;" horiz-adv-x="1695" 
d="M725 319q-16 57 -16 142q0 75 18 143q-63 55 -154 55q-77 0 -130.5 -54t-53.5 -144q0 -87 52.5 -143t131.5 -56q95 0 152 57zM1016 563h332q0 51 -40 89t-110 38q-74 0 -116.5 -31.5t-65.5 -95.5zM1208 946q119 0 220.5 -53t164 -153.5t62.5 -227.5v-41q0 -55 -37 -84
t-82 -29h-510q21 -63 78.5 -95t136.5 -32q55 0 129 21q21 6 41 6q36 0 65 -19.5t42 -54.5q8 -19 8 -43q0 -36 -22 -69.5t-62 -53.5q-84 -43 -234 -43q-186 0 -315 93q-132 -93 -320 -93q-232 0 -372 137.5t-140 348.5t140 348t372 137q192 0 324 -96q133 96 311 96z" />
    <glyph glyph-name="Racute" unicode="&#x154;" horiz-adv-x="1353" 
d="M1235 133q0 -65 -43 -109t-107 -44q-51 0 -88 23.5t-73 76.5l-291 422h-121v-369q0 -64 -47 -108.5t-117 -44.5t-117 44.5t-47 108.5v1147q0 63 45 109t109 47q81 0 208 1l126 1q143 0 247 -34t165 -97t89.5 -144t28.5 -184q0 -76 -18 -141.5t-43.5 -108t-61.5 -78.5
t-62.5 -54t-55.5 -32l229 -307q45 -59 45 -125zM512 1126v-317h119q101 0 162 40t61 126q0 155 -199 155q-7 0 -143 -4zM514 1718l299 152q20 10 43 10q28 0 52 -15.5t36 -41.5l33 -80q8 -16 8 -37q0 -29 -17 -53t-46 -33l-318 -98q-18 -6 -35 -6q-34 0 -61 18t-41 49
q-10 23 -10 43q0 28 15.5 53.5t41.5 38.5z" />
    <glyph glyph-name="racute" unicode="&#x155;" horiz-adv-x="749" 
d="M276 932q91 0 144 -82q84 92 168 92q72 0 105.5 -42t33.5 -99q0 -28 -6 -49q-34 -117 -156 -117q-25 0 -37 2q-10 2 -28 2q-16 0 -29 -4t-20 -9t-13.5 -15t-8.5 -15t-5 -17t-4 -14v-442q0 -59 -44.5 -101t-109.5 -42t-109 42t-44 101v655q0 62 43 108t120 46zM276 1255
l97 160q27 49 86 49q33 0 59 -20l64 -47q39 -29 39 -82q0 -40 -25 -68l-121 -135q-33 -39 -92 -39q-39 0 -72 23q-53 35 -53 96q0 33 18 63z" />
    <glyph glyph-name="Rcommaaccent" unicode="&#x156;" horiz-adv-x="1353" 
d="M1235 133q0 -65 -43 -109t-107 -44q-51 0 -88 23.5t-73 76.5l-291 422h-121v-369q0 -64 -47 -108.5t-117 -44.5t-117 44.5t-47 108.5v1147q0 63 45 109t109 47q81 0 208 1l126 1q143 0 247 -34t165 -97t89.5 -144t28.5 -184q0 -76 -18 -141.5t-43.5 -108t-61.5 -78.5
t-62.5 -54t-55.5 -32l229 -307q45 -59 45 -125zM512 1126v-317h119q101 0 162 40t61 126q0 155 -199 155q-7 0 -143 -4zM500 -317q0 36 24 63q25 31 25 70v8v18q0 36 14 51t53 23l158 31q2 0 8 1t9 1q65 0 65 -90q0 -92 -64 -163.5t-139 -94.5q-30 -9 -55 -9q-52 0 -80 35
q-18 24 -18 56z" />
    <glyph glyph-name="rcommaaccent" unicode="&#x157;" horiz-adv-x="749" 
d="M276 932q91 0 144 -82q84 92 168 92q72 0 105.5 -42t33.5 -99q0 -28 -6 -49q-34 -117 -156 -117q-25 0 -37 2q-10 2 -28 2q-16 0 -29 -4t-20 -9t-13.5 -15t-8.5 -15t-5 -17t-4 -14v-442q0 -59 -44.5 -101t-109.5 -42t-109 42t-44 101v655q0 62 43 108t120 46zM174 -317
q0 35 25 63q24 30 24 70v8v18q0 36 14.5 51t53.5 23l158 31q2 0 7.5 1t8.5 1q65 0 65 -90q0 -92 -64 -163.5t-138 -94.5q-30 -9 -56 -9q-51 0 -79 35q-19 25 -19 56z" />
    <glyph glyph-name="Rcaron" unicode="&#x158;" horiz-adv-x="1353" 
d="M1235 133q0 -65 -43 -109t-107 -44q-51 0 -88 23.5t-73 76.5l-291 422h-121v-369q0 -64 -47 -108.5t-117 -44.5t-117 44.5t-47 108.5v1147q0 63 45 109t109 47q81 0 208 1l126 1q143 0 247 -34t165 -97t89.5 -144t28.5 -184q0 -76 -18 -141.5t-43.5 -108t-61.5 -78.5
t-62.5 -54t-55.5 -32l229 -307q45 -59 45 -125zM512 1126v-317h119q101 0 162 40t61 126q0 155 -199 155q-7 0 -143 -4zM877 1878q58 0 88 -47q16 -29 16 -55q0 -56 -45 -84l-205 -138q-37 -24 -86 -24q-45 0 -82 24l-213 134q-43 25 -43 77q0 34 21 64q36 51 92 51
q23 0 51 -14l178 -107l178 107q24 12 50 12z" />
    <glyph glyph-name="rcaron" unicode="&#x159;" horiz-adv-x="749" 
d="M276 932q91 0 144 -82q84 92 168 92q72 0 105.5 -42t33.5 -99q0 -28 -6 -49q-34 -117 -156 -117q-25 0 -37 2q-10 2 -28 2q-16 0 -29 -4t-20 -9t-13.5 -15t-8.5 -15t-5 -17t-4 -14v-442q0 -59 -44.5 -101t-109.5 -42t-109 42t-44 101v655q0 62 43 108t120 46zM600 1409
q54 0 88 -43q23 -38 23 -72q0 -53 -41 -88l-172 -137q-39 -31 -86 -31q-49 0 -90 33l-166 135q-41 35 -41 88q0 41 26 74q34 43 88 43q39 0 70 -25l115 -94l116 92q31 25 70 25z" />
    <glyph glyph-name="Sacute" unicode="&#x15a;" horiz-adv-x="1134" 
d="M1040 397q0 -185 -140.5 -303.5t-350.5 -118.5q-73 0 -145 14t-138.5 42t-107.5 78t-41 114q0 61 37 103.5t96 42.5q39 0 88.5 -21.5t106 -43t112.5 -21.5q64 0 99.5 29.5t35.5 80.5q0 43 -33 79t-85.5 64t-116.5 57.5t-128 68.5t-116.5 87.5t-85.5 124.5t-33 170
q0 83 32.5 158t92 132t150 90.5t198.5 33.5q153 0 254 -48.5t101 -141.5q0 -61 -40 -104.5t-102 -43.5q-16 0 -76.5 15.5t-117.5 15.5q-67 0 -105.5 -28.5t-38.5 -78.5q0 -42 25.5 -77t67.5 -59t96 -50.5t110 -51t110 -62.5t96 -82.5t67.5 -112.5t25.5 -152zM487 1718
l299 152q20 10 43 10q28 0 52.5 -15.5t36.5 -41.5l32 -80q8 -16 8 -37q0 -29 -17 -53t-46 -33l-317 -98q-18 -6 -35 -6q-34 0 -62 18t-41 49q-10 23 -10 43q0 28 15.5 53.5t41.5 38.5z" />
    <glyph glyph-name="sacute" unicode="&#x15b;" horiz-adv-x="933" 
d="M467 -25q-88 0 -172.5 25.5t-136.5 58.5q-29 19 -46.5 49t-17.5 64t19 66q36 59 104 59q32 0 86 -21q96 -45 184 -45q70 0 70 41q0 19 -27 33.5t-70 25t-94.5 23t-103.5 34.5t-95 53t-70 83.5t-27 120.5q0 143 102.5 222t257.5 79q167 0 275 -53q75 -37 75 -113
q0 -26 -12 -53q-35 -76 -109 -76q-22 0 -59 11q-94 28 -151 28q-32 0 -52 -12.5t-20 -28.5q0 -22 36 -38t90 -25.5t117.5 -30.5t117.5 -49.5t90 -85t36 -133.5q0 -141 -107 -226.5t-290 -85.5zM317 1255l97 160q27 49 86 49q33 0 59 -20l64 -47q39 -29 39 -82q0 -40 -25 -68
l-121 -135q-33 -39 -92 -39q-39 0 -72 23q-53 35 -53 96q0 33 18 63z" />
    <glyph glyph-name="Scircumflex" unicode="&#x15c;" horiz-adv-x="1134" 
d="M1040 397q0 -185 -140.5 -303.5t-350.5 -118.5q-73 0 -145 14t-138.5 42t-107.5 78t-41 114q0 61 37 103.5t96 42.5q39 0 88.5 -21.5t106 -43t112.5 -21.5q64 0 99.5 29.5t35.5 80.5q0 43 -33 79t-85.5 64t-116.5 57.5t-128 68.5t-116.5 87.5t-85.5 124.5t-33 170
q0 83 32.5 158t92 132t150 90.5t198.5 33.5q153 0 254 -48.5t101 -141.5q0 -61 -40 -104.5t-102 -43.5q-16 0 -76.5 15.5t-117.5 15.5q-67 0 -105.5 -28.5t-38.5 -78.5q0 -42 25.5 -77t67.5 -59t96 -50.5t110 -51t110 -62.5t96 -82.5t67.5 -112.5t25.5 -152zM545 1616
l-170 -88q-24 -12 -53 -12q-60 0 -91 45q-18 27 -18 61q0 51 51 86l193 129q41 27 90 27q44 0 86 -25l205 -129q47 -27 47 -86q0 -30 -19 -55q-38 -53 -100 -53q-27 0 -51 12z" />
    <glyph glyph-name="scircumflex" unicode="&#x15d;" horiz-adv-x="933" 
d="M467 -25q-88 0 -172.5 25.5t-136.5 58.5q-29 19 -46.5 49t-17.5 64t19 66q36 59 104 59q32 0 86 -21q96 -45 184 -45q70 0 70 41q0 19 -27 33.5t-70 25t-94.5 23t-103.5 34.5t-95 53t-70 83.5t-27 120.5q0 143 102.5 222t257.5 79q167 0 275 -53q75 -37 75 -113
q0 -26 -12 -53q-35 -76 -109 -76q-22 0 -59 11q-94 28 -151 28q-32 0 -52 -12.5t-20 -28.5q0 -22 36 -38t90 -25.5t117.5 -30.5t117.5 -49.5t90 -85t36 -133.5q0 -141 -107 -226.5t-290 -85.5zM268 1036q-57 0 -86 45q-24 30 -24 70q0 53 41 88l172 137q39 31 86 31
q49 0 90 -33l166 -135q41 -35 41 -88q0 -39 -27 -74q-34 -43 -88 -43q-39 0 -70 25l-114 94l-117 -92q-31 -25 -70 -25z" />
    <glyph glyph-name="Scedilla" unicode="&#x15e;" horiz-adv-x="1134" 
d="M674 -55q84 -8 134 -55t50 -128q0 -87 -78.5 -139.5t-218.5 -52.5q-152 0 -246 57q-22 14 -35.5 36.5t-13.5 47.5q0 17 10 37q24 43 72 43q28 0 58 -12q56 -25 96 -25q65 0 65 43q0 17 -15.5 31t-33.5 23t-33.5 27t-15.5 42q0 32 14 60q-68 6 -129.5 22t-116.5 44
t-87.5 74t-32.5 103q0 61 37 103.5t96 42.5q39 0 88.5 -21.5t106 -43t112.5 -21.5q64 0 99.5 29.5t35.5 80.5q0 43 -33 79t-85.5 64t-116.5 57.5t-128 68.5t-116.5 87.5t-85.5 124.5t-33 170q0 83 32.5 158t92 132t150 90.5t198.5 33.5q153 0 254 -48.5t101 -141.5
q0 -61 -40 -104.5t-102 -43.5q-16 0 -76.5 15.5t-117.5 15.5q-67 0 -105.5 -28.5t-38.5 -78.5q0 -42 25.5 -77t67.5 -59t96 -50.5t110 -51t110 -62.5t96 -82.5t67.5 -112.5t25.5 -152q0 -172 -122.5 -287t-313.5 -133q16 -27 70 -32z" />
    <glyph glyph-name="scedilla" unicode="&#x15f;" horiz-adv-x="933" 
d="M594 -74q75 -14 116.5 -50.5t41.5 -113.5q0 -86 -72.5 -139t-198.5 -53q-81 0 -124.5 13.5t-90.5 41.5q-45 26 -45 74q0 23 10 41q24 43 68 43q22 0 57 -14q52 -23 93 -23q33 0 52 12t19 31q0 20 -20.5 34.5t-45 23t-45 26t-20.5 41.5q0 35 17 66q-72 7 -139 30t-109 49
q-29 19 -46.5 49t-17.5 64t19 66q36 59 104 59q32 0 86 -21q96 -45 184 -45q70 0 70 41q0 19 -27 33.5t-70 25t-94.5 23t-103.5 34.5t-95 53t-70 83.5t-27 120.5q0 143 102.5 222t257.5 79q167 0 275 -53q75 -37 75 -113q0 -26 -12 -53q-35 -76 -109 -76q-22 0 -59 11
q-94 28 -151 28q-32 0 -52 -12.5t-20 -28.5q0 -22 36 -38t90 -25.5t117.5 -30.5t117.5 -49.5t90 -85t36 -133.5q0 -130 -91.5 -213.5t-250.5 -96.5q14 -42 72 -51z" />
    <glyph glyph-name="Scaron" unicode="&#x160;" horiz-adv-x="1134" 
d="M1040 397q0 -185 -140.5 -303.5t-350.5 -118.5q-73 0 -145 14t-138.5 42t-107.5 78t-41 114q0 61 37 103.5t96 42.5q39 0 88.5 -21.5t106 -43t112.5 -21.5q64 0 99.5 29.5t35.5 80.5q0 43 -33 79t-85.5 64t-116.5 57.5t-128 68.5t-116.5 87.5t-85.5 124.5t-33 170
q0 83 32.5 158t92 132t150 90.5t198.5 33.5q153 0 254 -48.5t101 -141.5q0 -61 -40 -104.5t-102 -43.5q-16 0 -76.5 15.5t-117.5 15.5q-67 0 -105.5 -28.5t-38.5 -78.5q0 -42 25.5 -77t67.5 -59t96 -50.5t110 -51t110 -62.5t96 -82.5t67.5 -112.5t25.5 -152zM788 1878
q59 0 89 -47q16 -29 16 -55q0 -56 -45 -84l-205 -138q-37 -24 -86 -24q-45 0 -82 24l-213 134q-43 25 -43 77q0 34 21 64q36 51 92 51q23 0 51 -14l178 -107l178 107q24 12 49 12z" />
    <glyph glyph-name="scaron" unicode="&#x161;" horiz-adv-x="933" 
d="M467 -25q-88 0 -172.5 25.5t-136.5 58.5q-29 19 -46.5 49t-17.5 64t19 66q36 59 104 59q32 0 86 -21q96 -45 184 -45q70 0 70 41q0 19 -27 33.5t-70 25t-94.5 23t-103.5 34.5t-95 53t-70 83.5t-27 120.5q0 143 102.5 222t257.5 79q167 0 275 -53q75 -37 75 -113
q0 -26 -12 -53q-35 -76 -109 -76q-22 0 -59 11q-94 28 -151 28q-32 0 -52 -12.5t-20 -28.5q0 -22 36 -38t90 -25.5t117.5 -30.5t117.5 -49.5t90 -85t36 -133.5q0 -141 -107 -226.5t-290 -85.5zM641 1409q54 0 88 -43q23 -38 23 -72q0 -53 -41 -88l-172 -137q-39 -31 -86 -31
q-50 0 -91 33l-165 135q-41 35 -41 88q0 41 26 74q34 43 88 43q39 0 70 -25l115 -94l116 92q31 25 70 25z" />
    <glyph glyph-name="Tcedilla" unicode="&#x162;" 
d="M743 -55q85 -8 135 -55t50 -128q0 -87 -78.5 -139.5t-218.5 -52.5q-152 0 -246 57q-22 14 -35.5 36.5t-13.5 47.5q0 17 10 37q24 43 72 43q27 0 57 -12q56 -25 96 -25q66 0 66 43q0 17 -15.5 31t-33.5 23t-33.5 27t-15.5 42q0 40 20 70q-50 15 -79 53.5t-29 89.5v993
h-277q-63 0 -108.5 45.5t-45.5 108.5t45.5 108.5t108.5 45.5h881q63 0 108 -45.5t45 -108.5t-45 -108.5t-108 -45.5h-277v-993q0 -51 -30 -90.5t-80 -54.5q14 -37 75 -43z" />
    <glyph glyph-name="tcedilla" unicode="&#x163;" horiz-adv-x="753" 
d="M506 -74q75 -14 116.5 -50.5t41.5 -113.5q0 -86 -72.5 -139t-198.5 -53q-81 0 -124.5 13.5t-90.5 41.5q-45 26 -45 74q0 23 10 41q24 43 68 43q22 0 57 -14q52 -23 92 -23q33 0 52.5 12t19.5 31q0 20 -20.5 34.5t-45 23t-45 26t-20.5 41.5q0 30 16 66q-119 18 -172 111.5
t-53 258.5v705q0 59 44.5 101t109.5 42t109 -42t44 -101v-133h113q58 0 100.5 -42.5t42.5 -101.5q0 -58 -42.5 -100.5t-100.5 -42.5h-113v-266q0 -44 15.5 -73.5t44.5 -29.5q25 0 43 4q28 4 37 4q79 0 110 -79q13 -29 13 -56q0 -39 -23.5 -71.5t-65.5 -51.5
q-61 -28 -139 -36q13 -44 72 -54z" />
    <glyph glyph-name="Tcaron" unicode="&#x164;" 
d="M778 1126v-993q0 -64 -47 -108.5t-117 -44.5t-116.5 44.5t-46.5 108.5v993h-277q-63 0 -108.5 45.5t-45.5 108.5t45.5 108.5t108.5 45.5h881q63 0 108 -45.5t45 -108.5t-45 -108.5t-108 -45.5h-277zM834 1878q58 0 88 -47q16 -29 16 -55q0 -56 -45 -84l-205 -138
q-38 -24 -86 -24q-44 0 -82 24l-213 134q-43 25 -43 77q0 34 21 64q36 51 92 51q23 0 51 -14l178 -107l178 107q24 12 50 12z" />
    <glyph glyph-name="tcaron" unicode="&#x165;" horiz-adv-x="753" 
d="M92 350v705q0 59 44.5 101t109.5 42t109 -42t44 -101v-133h113q58 0 100.5 -42.5t42.5 -101.5q0 -58 -42.5 -100.5t-100.5 -42.5h-113v-266q0 -44 15.5 -73.5t44.5 -29.5q25 0 43 4q28 4 37 4q79 0 110 -79q13 -29 13 -56q0 -39 -23.5 -71.5t-65.5 -51.5
q-92 -41 -194 -41q-152 0 -219.5 95.5t-67.5 279.5zM494 1114q0 28 18 66q35 72 35 155v6q0 93 90 93h133q22 0 43 -17.5t21 -46.5q0 -115 -41 -200t-101 -136q-38 -30 -84 -30q-39 0 -67 22q-47 38 -47 88z" />
    <glyph glyph-name="Umacron" unicode="&#x16a;" horiz-adv-x="1538" 
d="M492 676q0 -88 14.5 -156t47 -123t92 -84.5t142.5 -29.5q142 0 200.5 95t58.5 279v643q0 64 46.5 109t116.5 45t117 -45t47 -109v-708q0 -128 -31.5 -232t-86 -174.5t-129.5 -119t-160 -70t-179 -21.5q-139 0 -253 40t-197 117.5t-128.5 198t-45.5 275.5v694q0 64 47 109
t117 45t117 -45t47 -109v-624zM989 1782q50 0 85.5 -36t35.5 -87t-35.5 -87t-85.5 -36h-401q-50 0 -85.5 36t-35.5 87t35.5 87t85.5 36h401z" />
    <glyph glyph-name="umacron" unicode="&#x16b;" horiz-adv-x="1085" 
d="M399 408q0 -62 28.5 -104t90.5 -42q81 0 148 84v442q0 59 44 101.5t109 42.5t109.5 -42.5t44.5 -101.5v-665q0 -60 -44 -101.5t-112 -41.5q-124 0 -151 112q-92 -117 -265 -117q-60 0 -114.5 22t-98.5 65.5t-70 115.5t-26 164v446q0 59 44.5 101.5t109.5 42.5t109 -42.5
t44 -101.5v-380zM713 1311q50 0 85.5 -36t35.5 -87t-35.5 -87t-85.5 -36h-361q-50 0 -85.5 36t-35.5 87t35.5 87t85.5 36h361z" />
    <glyph glyph-name="Ubreve" unicode="&#x16c;" horiz-adv-x="1538" 
d="M492 676q0 -88 14.5 -156t47 -123t92 -84.5t142.5 -29.5q142 0 200.5 95t58.5 279v643q0 64 46.5 109t116.5 45t117 -45t47 -109v-708q0 -128 -31.5 -232t-86 -174.5t-129.5 -119t-160 -70t-179 -21.5q-139 0 -253 40t-197 117.5t-128.5 198t-45.5 275.5v694q0 64 47 109
t117 45t117 -45t47 -109v-624zM1145 1729q0 -49 -35 -84q-64 -68 -153 -109t-185 -41q-104 0 -198 42.5t-162 109.5q-31 31 -31 79q0 40 25 68q41 47 86 47q29 0 65 -22q90 -58 215 -58q116 0 209 58q33 20 61 20q45 0 80 -47q23 -29 23 -63z" />
    <glyph glyph-name="ubreve" unicode="&#x16d;" horiz-adv-x="1085" 
d="M399 408q0 -62 28.5 -104t90.5 -42q81 0 148 84v442q0 59 44 101.5t109 42.5t109.5 -42.5t44.5 -101.5v-665q0 -60 -44 -101.5t-112 -41.5q-124 0 -151 112q-92 -117 -265 -117q-60 0 -114.5 22t-98.5 65.5t-70 115.5t-26 164v446q0 59 44.5 101.5t109.5 42.5t109 -42.5
t44 -101.5v-380zM850 1245q0 -49 -31 -80q-117 -121 -291 -121q-171 0 -280 125q-31 34 -31 82q0 38 25 66q36 39 80 39q27 0 71 -21q88 -45 148 -45q71 0 155 45q31 17 58 17q44 0 75 -39q21 -24 21 -68z" />
    <glyph glyph-name="Uring" unicode="&#x16e;" horiz-adv-x="1538" 
d="M492 676q0 -88 14.5 -156t47 -123t92 -84.5t142.5 -29.5q142 0 200.5 95t58.5 279v643q0 64 46.5 109t116.5 45t117 -45t47 -109v-708q0 -128 -31.5 -232t-86 -174.5t-129.5 -119t-160 -70t-179 -21.5q-139 0 -253 40t-197 117.5t-128.5 198t-45.5 275.5v694q0 64 47 109
t117 45t117 -45t47 -109v-624zM768 1898q146 0 237 -60t91 -181q0 -120 -92 -184t-236 -64q-138 0 -227.5 64.5t-89.5 183.5q0 121 88.5 181t228.5 60zM772 1573q43 0 70.5 21.5t27.5 62.5q0 39 -27 58.5t-71 19.5t-70 -19.5t-26 -58.5q0 -41 26.5 -62.5t69.5 -21.5z" />
    <glyph glyph-name="uring" unicode="&#x16f;" horiz-adv-x="1085" 
d="M399 408q0 -62 28.5 -104t90.5 -42q81 0 148 84v442q0 59 44 101.5t109 42.5t109.5 -42.5t44.5 -101.5v-665q0 -60 -44 -101.5t-112 -41.5q-124 0 -151 112q-92 -117 -265 -117q-60 0 -114.5 22t-98.5 65.5t-70 115.5t-26 164v446q0 59 44.5 101.5t109.5 42.5t109 -42.5
t44 -101.5v-380zM532 991q-121 0 -200.5 75.5t-79.5 184.5q0 111 79.5 188t200.5 77q123 0 204 -77.5t81 -187.5q0 -109 -81 -184.5t-204 -75.5zM537 1352q-40 0 -65.5 -28t-25.5 -69q0 -42 25.5 -71t65.5 -29q39 0 62.5 29t23.5 71q0 41 -23.5 69t-62.5 28z" />
    <glyph glyph-name="Uhungarumlaut" unicode="&#x170;" horiz-adv-x="1538" 
d="M492 676q0 -88 14.5 -156t47 -123t92 -84.5t142.5 -29.5q142 0 200.5 95t58.5 279v643q0 64 46.5 109t116.5 45t117 -45t47 -109v-708q0 -128 -31.5 -232t-86 -174.5t-129.5 -119t-160 -70t-179 -21.5q-139 0 -253 40t-197 117.5t-128.5 198t-45.5 275.5v694q0 64 47 109
t117 45t117 -45t47 -109v-624zM844 1679l194 176q30 27 66 27q35 0 65 -27l86 -73q21 -18 21 -47q0 -39 -33 -56l-262 -145q-22 -14 -55 -14q-51 0 -84 36q-25 25 -25 60q0 39 27 63zM446 1683l109 158q28 45 84 45q22 0 45 -10l107 -55q32 -14 32 -52q0 -28 -20 -45
l-207 -176q-27 -24 -66 -24q-38 0 -67 26q-33 29 -33 76q0 33 16 57z" />
    <glyph glyph-name="uhungarumlaut" unicode="&#x171;" horiz-adv-x="1085" 
d="M399 408q0 -62 28.5 -104t90.5 -42q81 0 148 84v442q0 59 44 101.5t109 42.5t109.5 -42.5t44.5 -101.5v-665q0 -60 -44 -101.5t-112 -41.5q-124 0 -151 112q-92 -117 -265 -117q-60 0 -114.5 22t-98.5 65.5t-70 115.5t-26 164v446q0 59 44.5 101.5t109.5 42.5t109 -42.5
t44 -101.5v-380zM606 1249l111 148q31 45 88 45q35 0 65 -23l52 -37q36 -26 36 -77q0 -43 -28 -68l-127 -129q-40 -37 -92 -37q-42 0 -78 25q-47 35 -47 90q0 37 20 63zM246 1255l92 164q12 23 35.5 36t50.5 13q33 0 57 -18l41 -33q45 -31 45 -90q0 -36 -20 -65l-107 -142
q-36 -45 -90 -45q-35 0 -65 21q-54 39 -54 102q0 30 15 57z" />
    <glyph glyph-name="Uogonek" unicode="&#x172;" horiz-adv-x="1538" 
d="M492 676q0 -88 14.5 -156t47 -123t92 -84.5t142.5 -29.5q142 0 200.5 95t58.5 279v643q0 64 46.5 109t116.5 45t117 -45t47 -109v-708q0 -142 -38 -254.5t-106 -185t-153.5 -114.5t-187.5 -56q-49 -30 -49 -84q0 -62 61 -62q70 0 104 -12.5t50 -59.5q6 -21 6 -38
q0 -36 -22.5 -63t-55.5 -40q-79 -33 -178 -33q-71 0 -131 20t-101 65.5t-41 109.5q0 127 138 199q-235 32 -370.5 190.5t-135.5 431.5v694q0 64 47 109t117 45t117 -45t47 -109v-624z" />
    <glyph glyph-name="uogonek" unicode="&#x173;" horiz-adv-x="1085" 
d="M399 408q0 -62 28.5 -104t90.5 -42q81 0 148 84v442q0 59 44 101.5t109 42.5t109.5 -42.5t44.5 -101.5v-665q0 -60 -44 -101.5t-112 -41.5h-8q-45 -29 -45 -82q0 -62 61 -62q57 0 88.5 -14.5t44.5 -57.5q7 -21 7 -34q0 -36 -21 -65.5t-53 -41.5q-79 -33 -162 -33
q-111 0 -188.5 50t-77.5 145q0 89 65.5 149.5t171.5 88.5q-25 28 -34 69q-92 -117 -265 -117q-60 0 -114.5 22t-98.5 65.5t-70 115.5t-26 164v446q0 59 44.5 101.5t109.5 42.5t109 -42.5t44 -101.5v-380z" />
    <glyph glyph-name="Ydieresis" unicode="&#x178;" horiz-adv-x="1306" 
d="M90 1288q0 66 43.5 116t116.5 50q97 0 151 -96l263 -467l262 465q56 98 151 98q63 0 101.5 -41t38.5 -102q0 -49 -31 -103l-373 -624v-451q0 -64 -47 -108.5t-117 -44.5t-117 44.5t-47 108.5v451l-372 616q-23 39 -23 88zM422 1874q75 0 130.5 -44t55.5 -116
q0 -80 -55 -126t-131 -46q-87 0 -144 45t-57 127q0 73 57.5 116.5t143.5 43.5zM895 1874q76 0 131 -44t55 -116q0 -81 -54.5 -126.5t-131.5 -45.5q-86 0 -143.5 45.5t-57.5 126.5q0 73 58 116.5t143 43.5z" />
    <glyph glyph-name="Zacute" unicode="&#x179;" horiz-adv-x="1302" 
d="M1083 0h-860q-63 0 -110 46t-47 110q0 67 49 131l663 839h-514q-66 0 -109.5 45t-43.5 109t43.5 109t109.5 45h799q69 0 114.5 -41.5t45.5 -110.5q0 -68 -52 -135l-665 -840h577q67 0 110.5 -44.5t43.5 -108.5q0 -63 -45.5 -108.5t-108.5 -45.5zM563 1718l299 152
q20 10 43 10q28 0 52 -15.5t36 -41.5l33 -80q8 -16 8 -37q0 -29 -17 -53t-46 -33l-318 -98q-18 -6 -35 -6q-34 0 -61 18t-41 49q-10 23 -10 43q0 28 15.5 53.5t41.5 38.5z" />
    <glyph glyph-name="zacute" unicode="&#x17a;" horiz-adv-x="1013" 
d="M778 0h-553q-59 0 -101 42.5t-42 102.5q0 37 15.5 74t41.5 62l365 354h-248q-58 0 -100.5 42.5t-42.5 100.5q0 59 42.5 101.5t100.5 42.5h532q59 0 101.5 -43t42.5 -103q0 -77 -58 -135l-366 -354h270q58 0 101 -42.5t43 -101.5q0 -58 -42.5 -100.5t-101.5 -42.5z
M391 1255l96 160q27 49 86 49q34 0 60 -20l63 -47q39 -29 39 -82q0 -41 -24 -68l-121 -135q-33 -39 -92 -39q-39 0 -72 23q-53 35 -53 96q0 33 18 63z" />
    <glyph glyph-name="Zdotaccent" unicode="&#x17b;" horiz-adv-x="1302" 
d="M1083 0h-860q-63 0 -110 46t-47 110q0 67 49 131l663 839h-514q-66 0 -109.5 45t-43.5 109t43.5 109t109.5 45h799q69 0 114.5 -41.5t45.5 -110.5q0 -68 -52 -135l-665 -840h577q67 0 110.5 -44.5t43.5 -108.5q0 -63 -45.5 -108.5t-108.5 -45.5zM674 1915
q79 0 137.5 -50.5t58.5 -133.5q0 -91 -58 -144t-138 -53q-87 0 -147 52.5t-60 144.5q0 83 60 133.5t147 50.5z" />
    <glyph glyph-name="zdotaccent" unicode="&#x17c;" horiz-adv-x="1013" 
d="M778 0h-553q-59 0 -101 42.5t-42 102.5q0 37 15.5 74t41.5 62l365 354h-248q-58 0 -100.5 42.5t-42.5 100.5q0 59 42.5 101.5t100.5 42.5h532q59 0 101.5 -43t42.5 -103q0 -77 -58 -135l-366 -354h270q58 0 101 -42.5t43 -101.5q0 -58 -42.5 -100.5t-101.5 -42.5z
M506 1413q70 0 122 -48t52 -126q0 -86 -51.5 -136t-122.5 -50q-79 0 -133 49.5t-54 136.5q0 79 54.5 126.5t132.5 47.5z" />
    <glyph glyph-name="Zcaron" unicode="&#x17d;" horiz-adv-x="1302" 
d="M1083 0h-860q-63 0 -110 46t-47 110q0 67 49 131l663 839h-514q-66 0 -109.5 45t-43.5 109t43.5 109t109.5 45h799q69 0 114.5 -41.5t45.5 -110.5q0 -68 -52 -135l-665 -840h577q67 0 110.5 -44.5t43.5 -108.5q0 -63 -45.5 -108.5t-108.5 -45.5zM905 1878q58 0 88 -47
q17 -31 17 -55q0 -56 -45 -84l-205 -138q-37 -24 -86 -24q-44 0 -82 24l-213 134q-43 25 -43 77q0 35 20 64q36 51 93 51q23 0 51 -14l178 -107l178 107q24 12 49 12z" />
    <glyph glyph-name="zcaron" unicode="&#x17e;" horiz-adv-x="1013" 
d="M778 0h-553q-59 0 -101 42.5t-42 102.5q0 37 15.5 74t41.5 62l365 354h-248q-58 0 -100.5 42.5t-42.5 100.5q0 59 42.5 101.5t100.5 42.5h532q59 0 101.5 -43t42.5 -103q0 -77 -58 -135l-366 -354h270q58 0 101 -42.5t43 -101.5q0 -58 -42.5 -100.5t-101.5 -42.5z
M715 1409q54 0 88 -43q22 -36 22 -72q0 -53 -41 -88l-172 -137q-39 -31 -86 -31q-49 0 -90 33l-166 135q-41 35 -41 88q0 40 27 74q34 43 88 43q39 0 70 -25l114 -94l117 92q31 25 70 25z" />
    <glyph glyph-name="longs" unicode="&#x17f;" horiz-adv-x="557" 
d="M520 1176h-12q-35 0 -61.5 -32.5t-26.5 -90.5v-930q0 -59 -44.5 -101t-109.5 -42t-109 42t-44 101v948q0 188 89.5 287.5t246.5 99.5q103 0 167 -35q70 -33 70 -110q0 -26 -8 -47q-17 -51 -52 -70.5t-106 -19.5z" />
    <glyph glyph-name="uni018F" unicode="&#x18f;" horiz-adv-x="1576" 
d="M457 1108q-63 0 -105.5 42.5t-42.5 100.5q0 21 3.5 38t16 39.5t41.5 43t74 37.5q141 49 340 49q207 0 371 -91.5t258 -261t94 -388.5q0 -227 -92.5 -396t-259.5 -257.5t-387 -88.5q-196 0 -351 81.5t-247.5 241t-99.5 374.5v10q0 86 49.5 144.5t142.5 58.5h889
q-47 129 -164 197.5t-282 68.5q-49 0 -131 -21.5t-117 -21.5zM1163 578h-743q16 -123 106.5 -209t237.5 -86q322 0 399 295z" />
    <glyph glyph-name="florin" unicode="&#x192;" horiz-adv-x="1191" 
d="M889 1458q104 0 170 -31q65 -29 65 -106q0 -17 -8 -49q-26 -101 -170 -101q-72 0 -92 -118l-23 -131h39q58 0 101 -43t43 -101t-42.5 -100.5t-101.5 -42.5h-88l-120 -703q-17 -90 -39 -151.5t-58 -110.5t-90 -72.5t-129 -23.5q-84 0 -143 27q-42 21 -65 54t-23 69
q0 3 1 9t1 9q10 64 47 88t104 31q33 3 55.5 30.5t30.5 69.5l117 674h-51q-59 0 -101.5 42.5t-42.5 100.5t43 101t101 43h100l27 149q40 205 116.5 296t225.5 91z" />
    <glyph glyph-name="uni01DD" unicode="&#x1dd;" horiz-adv-x="1048" 
d="M487 -25q-184 0 -315 122t-131 313v41q0 55 37 83.5t82 28.5h510q-21 63 -78.5 95t-136.5 32q-59 0 -129 -20q-18 -6 -37 -6q-38 0 -67.5 21t-43.5 56q-8 19 -8 43q0 35 22 67t62 52q84 43 233 43q227 0 363.5 -133t136.5 -352q0 -134 -61 -244.5t-176 -176t-263 -65.5z
M680 358h-332q0 -51 42 -89t112 -38q153 0 178 127z" />
    <glyph glyph-name="Scommaaccent" unicode="&#x218;" horiz-adv-x="1134" 
d="M1040 397q0 -185 -140.5 -303.5t-350.5 -118.5q-73 0 -145 14t-138.5 42t-107.5 78t-41 114q0 61 37 103.5t96 42.5q39 0 88.5 -21.5t106 -43t112.5 -21.5q64 0 99.5 29.5t35.5 80.5q0 43 -33 79t-85.5 64t-116.5 57.5t-128 68.5t-116.5 87.5t-85.5 124.5t-33 170
q0 83 32.5 158t92 132t150 90.5t198.5 33.5q153 0 254 -48.5t101 -141.5q0 -61 -40 -104.5t-102 -43.5q-16 0 -76.5 15.5t-117.5 15.5q-67 0 -105.5 -28.5t-38.5 -78.5q0 -42 25.5 -77t67.5 -59t96 -50.5t110 -51t110 -62.5t96 -82.5t67.5 -112.5t25.5 -152zM391 -317
q0 35 25 63q24 30 24 70v8v18q0 36 14.5 51t53.5 23l158 31q2 0 7.5 1t8.5 1q66 0 66 -90q0 -92 -64 -163.5t-139 -94.5q-30 -9 -56 -9q-51 0 -79 35q-19 25 -19 56z" />
    <glyph glyph-name="scommaaccent" unicode="&#x219;" horiz-adv-x="933" 
d="M467 -25q-88 0 -172.5 25.5t-136.5 58.5q-29 19 -46.5 49t-17.5 64t19 66q36 59 104 59q32 0 86 -21q96 -45 184 -45q70 0 70 41q0 19 -27 33.5t-70 25t-94.5 23t-103.5 34.5t-95 53t-70 83.5t-27 120.5q0 143 102.5 222t257.5 79q167 0 275 -53q75 -37 75 -113
q0 -26 -12 -53q-35 -76 -109 -76q-22 0 -59 11q-94 28 -151 28q-32 0 -52 -12.5t-20 -28.5q0 -22 36 -38t90 -25.5t117.5 -30.5t117.5 -49.5t90 -85t36 -133.5q0 -141 -107 -226.5t-290 -85.5zM276 -317q0 35 25 63q25 31 25 70v8v18q0 36 14 51t53 23l158 31q2 0 7.5 1
t8.5 1q66 0 66 -90q0 -92 -64 -163.5t-139 -94.5q-30 -9 -55 -9q-52 0 -80 35q-19 25 -19 56z" />
    <glyph glyph-name="Tcommaaccent" unicode="&#x21a;" 
d="M778 1126v-993q0 -64 -47 -108.5t-117 -44.5t-116.5 44.5t-46.5 108.5v993h-277q-63 0 -108.5 45.5t-45.5 108.5t45.5 108.5t108.5 45.5h881q63 0 108 -45.5t45 -108.5t-45 -108.5t-108 -45.5h-277zM408 -317q0 36 24 63q25 31 25 70v8v18q0 36 14 51t53 23l158 31
q2 0 7.5 1t8.5 1q66 0 66 -90q0 -92 -64 -163.5t-139 -94.5q-30 -9 -55 -9q-52 0 -80 35q-18 24 -18 56z" />
    <glyph glyph-name="tcommaaccent" unicode="&#x21b;" horiz-adv-x="753" 
d="M92 350v705q0 59 44.5 101t109.5 42t109 -42t44 -101v-133h113q58 0 100.5 -42.5t42.5 -101.5q0 -58 -42.5 -100.5t-100.5 -42.5h-113v-266q0 -44 15.5 -73.5t44.5 -29.5q25 0 43 4q28 4 37 4q79 0 110 -79q13 -29 13 -56q0 -39 -23.5 -71.5t-65.5 -51.5
q-92 -41 -194 -41q-152 0 -219.5 95.5t-67.5 279.5zM152 -317q0 36 24 63q25 31 25 70v8v18q0 36 14 51t53 23l158 31q2 0 7.5 1t8.5 1q66 0 66 -90q0 -92 -64 -163.5t-139 -94.5q-30 -9 -55 -9q-52 0 -80 35q-18 24 -18 56z" />
    <glyph glyph-name="uni0237" unicode="&#x237;" horiz-adv-x="581" 
d="M70 -412q-45 13 -73 47.5t-28 85.5q0 61 33 100.5t96 39.5q35 0 49.5 22.5t14.5 77.5v827q0 59 44 101.5t109 42.5t109.5 -42.5t44.5 -101.5v-856q0 -358 -289 -358q-62 0 -110 14z" />
    <glyph glyph-name="uni0259" unicode="&#x259;" horiz-adv-x="1048" 
d="M487 -25q-184 0 -315 122t-131 313v41q0 55 37 83.5t82 28.5h510q-21 63 -78.5 95t-136.5 32q-59 0 -129 -20q-18 -6 -37 -6q-38 0 -67.5 21t-43.5 56q-8 19 -8 43q0 35 22 67t62 52q84 43 233 43q227 0 363.5 -133t136.5 -352q0 -134 -61 -244.5t-176 -176t-263 -65.5z
M680 358h-332q0 -51 42 -89t112 -38q153 0 178 127z" />
    <glyph glyph-name="afii57929" unicode="&#x2bc;" horiz-adv-x="481" 
d="M143 954q0 27 19 70q33 56 33 127q0 23 -7 51q-8 27 -8 53q0 28 15 46.5t53 41.5l88 52q21 12 43 12q25 0 45.5 -15.5t28.5 -35.5q28 -70 28 -137q0 -204 -157 -345q-25 -22 -70 -22q-42 0 -70 22q-41 35 -41 80z" />
    <glyph glyph-name="circumflex" unicode="&#x2c6;" horiz-adv-x="931" 
d="M279 1036q-57 0 -86 45q-25 31 -25 70q0 53 41 88l172 137q39 31 86 31q49 0 90 -33l166 -135q41 -35 41 -88q0 -39 -27 -74q-34 -43 -88 -43q-38 0 -69 25l-115 94l-117 -92q-31 -25 -69 -25z" />
    <glyph glyph-name="caron" unicode="&#x2c7;" horiz-adv-x="931" 
d="M653 1409q54 0 88 -43q23 -38 23 -72q0 -53 -41 -88l-172 -137q-39 -31 -86 -31q-49 0 -90 33l-166 135q-41 35 -41 88q0 40 27 74q34 43 88 43q38 0 69 -25l115 -94l117 92q31 25 69 25z" />
    <glyph glyph-name="breve" unicode="&#x2d8;" horiz-adv-x="925" 
d="M782 1245q0 -50 -30 -80q-117 -121 -291 -121q-91 0 -162.5 35.5t-118.5 89.5q-30 33 -30 82q0 39 24 66q36 39 80 39q28 0 72 -21q88 -45 147 -45q72 0 156 45q31 17 57 17q45 0 76 -39q20 -23 20 -68z" />
    <glyph glyph-name="dotaccent" unicode="&#x2d9;" horiz-adv-x="606" 
d="M309 1413q70 0 122 -48t52 -126q0 -86 -51.5 -136t-122.5 -50q-79 0 -132.5 49.5t-53.5 136.5q0 79 54 126.5t132 47.5z" />
    <glyph glyph-name="ring" unicode="&#x2da;" horiz-adv-x="811" 
d="M403 991q-121 0 -200.5 75.5t-79.5 184.5q0 111 79.5 188t200.5 77q123 0 204 -77.5t81 -187.5q0 -109 -81 -184.5t-204 -75.5zM408 1352q-40 0 -65.5 -28t-25.5 -69q0 -42 25.5 -71t65.5 -29q39 0 62.5 29t23.5 71q0 41 -23.5 69t-62.5 28z" />
    <glyph glyph-name="ogonek" unicode="&#x2db;" horiz-adv-x="788" 
d="M547 0q-54 0 -85.5 -32t-31.5 -70q0 -62 62 -62q57 0 88.5 -14.5t44.5 -57.5q6 -18 6 -34q0 -36 -21 -65.5t-53 -41.5q-79 -33 -162 -33q-111 0 -188.5 50t-77.5 145q0 85 64.5 146t156.5 88.5t197 27.5v-47z" />
    <glyph glyph-name="tilde" unicode="&#x2dc;" horiz-adv-x="993" 
d="M817 1139q-102 -84 -207 -84q-46 0 -118 31.5t-113 31.5q-24 0 -80 -28q-34 -15 -53 -15q-49 0 -82 45q-19 25 -19 58q0 48 37 82q108 100 211 100q49 0 123 -32t115 -32q26 0 84 33q24 12 51 12q58 0 88 -47q16 -22 16 -55q0 -55 -53 -100z" />
    <glyph glyph-name="hungarumlaut" unicode="&#x2dd;" horiz-adv-x="1062" 
d="M537 1249l110 148q31 45 88 45q36 0 66 -23l51 -37q37 -27 37 -77q0 -42 -29 -68l-127 -129q-40 -37 -92 -37q-42 0 -78 25q-47 35 -47 90q0 36 21 63zM176 1255l92 164q12 23 35.5 36t50.5 13q34 0 58 -18l41 -33q45 -31 45 -90q0 -35 -21 -65l-106 -142
q-36 -45 -90 -45q-36 0 -66 21q-53 38 -53 102q0 32 14 57z" />
    <glyph glyph-name="gravecomb" unicode="&#x300;" horiz-adv-x="0" 
d="M-580 1417l101 -168q16 -24 16 -55q0 -57 -51 -96q-37 -27 -80 -27q-50 0 -84 37l-129 139q-27 30 -27 64q0 50 39 78l76 55q23 20 57 20q55 0 82 -47z" />
    <glyph glyph-name="acutecomb" unicode="&#x301;" horiz-adv-x="0" 
d="M-645 1255l96 160q27 49 86 49q34 0 60 -20l63 -47q39 -29 39 -82q0 -40 -25 -68l-120 -135q-33 -39 -93 -39q-38 0 -71 23q-54 35 -54 96q0 31 19 63z" />
    <glyph glyph-name="uni0394" unicode="&#x394;" horiz-adv-x="1505" 
d="M119 227l481 1127q20 46 60.5 73t87.5 27q46 0 86.5 -27.5t60.5 -72.5l491 -1127q15 -35 15 -65q0 -64 -47 -113t-115 -49h-971q-69 0 -116.5 49t-47.5 115q0 33 15 63zM999 307l-260 594l-243 -594h503z" />
    <glyph glyph-name="uni0394" unicode="&#x2206;" horiz-adv-x="1505" 
d="M119 227l481 1127q20 46 60.5 73t87.5 27q46 0 86.5 -27.5t60.5 -72.5l491 -1127q15 -35 15 -65q0 -64 -47 -113t-115 -49h-971q-69 0 -116.5 49t-47.5 115q0 33 15 63zM999 307l-260 594l-243 -594h503z" />
    <glyph glyph-name="uni03A9" unicode="&#x3a9;" horiz-adv-x="1697" 
d="M850 1151q-100 0 -177.5 -35t-123.5 -94t-69 -131.5t-23 -153.5q0 -96 63 -218t158 -191q62 -45 82 -80.5t20 -93.5q0 -76 -48.5 -115t-125.5 -39h-370q-63 0 -108.5 45.5t-45.5 108.5t45.5 108t108.5 45h141q-40 13 -85.5 54.5t-86.5 104t-68.5 151t-27.5 182.5
q0 152 58 277.5t158 208.5t235 128t290 45q213 0 380 -77t264 -228t97 -354q0 -102 -28 -192.5t-71.5 -150t-87.5 -97.5t-83 -52h141q63 0 108.5 -45t45.5 -108t-45.5 -108.5t-108.5 -45.5h-383q-71 0 -116 39t-45 115q0 58 21.5 95t80.5 81q98 72 160.5 185.5t62.5 227.5
q0 78 -25.5 150t-73 130t-124 93t-170.5 35z" />
    <glyph glyph-name="uni03A9" unicode="&#x2126;" horiz-adv-x="1697" 
d="M850 1151q-100 0 -177.5 -35t-123.5 -94t-69 -131.5t-23 -153.5q0 -96 63 -218t158 -191q62 -45 82 -80.5t20 -93.5q0 -76 -48.5 -115t-125.5 -39h-370q-63 0 -108.5 45.5t-45.5 108.5t45.5 108t108.5 45h141q-40 13 -85.5 54.5t-86.5 104t-68.5 151t-27.5 182.5
q0 152 58 277.5t158 208.5t235 128t290 45q213 0 380 -77t264 -228t97 -354q0 -102 -28 -192.5t-71.5 -150t-87.5 -97.5t-83 -52h141q63 0 108.5 -45t45.5 -108t-45.5 -108.5t-108.5 -45.5h-383q-71 0 -116 39t-45 115q0 58 21.5 95t80.5 81q98 72 160.5 185.5t62.5 227.5
q0 78 -25.5 150t-73 130t-124 93t-170.5 35z" />
    <glyph glyph-name="pi" unicode="&#x3c0;" horiz-adv-x="1236" 
d="M182 -18q-50 0 -88.5 27t-52.5 79q-8 24 -8 51q0 90 104 142q67 34 78 251l2 103q-61 0 -104 42t-43 101t42.5 101.5t100.5 42.5h805q59 0 101 -43.5t42 -106.5q0 -58 -39 -97.5t-94 -39.5v-254q0 -119 53 -119h6q90 0 113 -94q4 -14 4 -41q0 -89 -86 -123
q-76 -29 -168 -29q-229 0 -229 289v371h-197v-62q0 -303 -90 -447t-252 -144z" />
    <glyph glyph-name="afii10023" unicode="&#x401;" horiz-adv-x="1177" 
d="M512 307h389q63 0 108.5 -45t45.5 -108t-45.5 -108.5t-108.5 -45.5h-563q-63 0 -108.5 45.5t-45.5 108.5v1126q0 63 45.5 108.5t108.5 45.5h543q63 0 108 -45.5t45 -108.5t-45 -108.5t-108 -45.5h-369v-252h307q63 0 108.5 -45t45.5 -108t-45.5 -108.5t-108.5 -45.5h-307
v-260zM406 1874q75 0 130.5 -44t55.5 -116q0 -80 -55 -126t-131 -46q-87 0 -144 45t-57 127q0 73 57.5 116.5t143.5 43.5zM879 1874q76 0 131 -44t55 -116q0 -81 -54.5 -126.5t-131.5 -45.5q-86 0 -143.5 45.5t-57.5 126.5q0 73 58 116.5t143 43.5z" />
    <glyph glyph-name="afii10051" unicode="&#x402;" horiz-adv-x="1570" 
d="M1055 1126h-277v-321q106 61 277 61q434 0 434 -450q0 -215 -99.5 -328t-279.5 -113q-46 0 -86 8.5t-75 26t-55 50.5t-20 77q0 74 45 110t144 36q98 0 98 127q0 80 -43 114.5t-125 34.5q-127 0 -215 -53v-373q0 -64 -47 -108.5t-117 -44.5t-116.5 44.5t-46.5 108.5v993
h-277q-63 0 -108.5 45.5t-45.5 108.5t45.5 108.5t108.5 45.5h881q63 0 108 -45.5t45 -108.5t-45 -108.5t-108 -45.5z" />
    <glyph glyph-name="afii10052" unicode="&#x403;" horiz-adv-x="1044" 
d="M850 1126h-338v-993q0 -64 -47 -108.5t-117 -44.5t-117 44.5t-47 108.5v1147q0 63 45.5 108.5t108.5 45.5h512q63 0 108.5 -45.5t45.5 -108.5t-45.5 -108.5t-108.5 -45.5zM596 1718l299 152q20 10 43 10q28 0 52 -15.5t36 -41.5l33 -80q8 -16 8 -37q0 -29 -17 -53
t-46 -33l-318 -98q-18 -6 -35 -6q-34 0 -61 18t-41 49q-10 23 -10 43q0 28 15.5 53.5t41.5 38.5z" />
    <glyph glyph-name="afii10053" unicode="&#x404;" horiz-adv-x="1378" 
d="M1174 1389q104 -48 104 -148q0 -69 -45 -106t-113 -37q-31 0 -123.5 26.5t-154.5 26.5q-149 0 -257.5 -69t-150.5 -197h414q63 0 108 -45.5t45 -108.5t-45 -108t-108 -45h-420q28 -101 99 -169.5t158.5 -97t188.5 -28.5q58 0 152.5 26.5t130.5 26.5q59 0 99 -38.5
t40 -96.5q0 -53 -29 -91t-98 -71q-52 -26 -140.5 -45t-180.5 -19q-353 0 -559.5 198.5t-206.5 543.5q0 219 94 388.5t258 261t371 91.5q112 0 210 -19.5t159 -49.5z" />
    <glyph glyph-name="afii10054" unicode="&#x405;" horiz-adv-x="1134" 
d="M1040 397q0 -185 -140.5 -303.5t-350.5 -118.5q-73 0 -145 14t-138.5 42t-107.5 78t-41 114q0 61 37 103.5t96 42.5q39 0 88.5 -21.5t106 -43t112.5 -21.5q64 0 99.5 29.5t35.5 80.5q0 43 -33 79t-85.5 64t-116.5 57.5t-128 68.5t-116.5 87.5t-85.5 124.5t-33 170
q0 83 32.5 158t92 132t150 90.5t198.5 33.5q153 0 254 -48.5t101 -141.5q0 -61 -40 -104.5t-102 -43.5q-16 0 -76.5 15.5t-117.5 15.5q-67 0 -105.5 -28.5t-38.5 -78.5q0 -42 25.5 -77t67.5 -59t96 -50.5t110 -51t110 -62.5t96 -82.5t67.5 -112.5t25.5 -152z" />
    <glyph glyph-name="afii10055" unicode="&#x406;" horiz-adv-x="737" 
d="M205 1300q0 64 47 109t117 45t116.5 -45t46.5 -109v-1167q0 -64 -46.5 -108.5t-116.5 -44.5t-117 44.5t-47 108.5v1167z" />
    <glyph glyph-name="afii10056" unicode="&#x407;" horiz-adv-x="739" 
d="M190 1542q-73 0 -121.5 45.5t-48.5 126.5q0 73 49 116.5t121 43.5q68 0 116 -44t48 -116q0 -81 -47.5 -126.5t-116.5 -45.5zM557 1542q-74 0 -123 45.5t-49 126.5q0 73 49.5 116.5t122.5 43.5q66 0 114 -44t48 -116q0 -81 -47.5 -126.5t-114.5 -45.5zM205 1300
q0 64 47 109t117 45t116.5 -45t46.5 -109v-1167q0 -64 -46.5 -108.5t-116.5 -44.5t-117 44.5t-47 108.5v1167z" />
    <glyph glyph-name="afii10057" unicode="&#x408;" horiz-adv-x="827" 
d="M264 -25q-105 0 -168 42.5t-63 117.5q0 65 44.5 106.5t127.5 41.5q58 0 84 31.5t26 95.5v890q0 64 47 109t117 45t117 -45t47 -109v-950q0 -183 -98 -279t-281 -96z" />
    <glyph glyph-name="afii10058" unicode="&#x409;" horiz-adv-x="2043" 
d="M1315 676v-365q70 -8 94 -8q205 0 205 199q0 92 -54.5 138t-148.5 46q-31 0 -96 -10zM518 1434h643q63 0 108.5 -45.5t45.5 -108.5v-295q65 8 125 8q258 0 390 -128.5t132 -354.5q0 -237 -155.5 -375.5t-436.5 -138.5q-40 0 -117.5 1t-111.5 1q-65 2 -109.5 47t-44.5 109
v972h-315l-31 -270q-37 -326 -102.5 -521t-154.5 -275t-216 -80q-71 0 -113.5 42.5t-42.5 104.5q0 122 131 174q77 30 124 233.5t77 612.5l10 133q5 65 52.5 109.5t111.5 44.5z" />
    <glyph glyph-name="afii10059" unicode="&#x40a;" horiz-adv-x="2072" 
d="M1014 623h-502v-490q0 -64 -47 -108.5t-117 -44.5t-117 44.5t-47 108.5v1167q0 64 47 109t117 45t117 -45t47 -109v-370h502v370q0 64 47 109t117 45t116.5 -45t46.5 -109v-356q68 8 127 8q256 0 389.5 -126t133.5 -337q0 -221 -157 -357t-435 -136q-44 0 -120 2t-103 2
q-77 0 -119.5 45.5t-42.5 114.5v463zM1341 635v-324q74 -8 97 -8q100 0 152 46t52 132q0 78 -54.5 121t-147.5 43q-31 0 -99 -10z" />
    <glyph glyph-name="afii10060" unicode="&#x40b;" horiz-adv-x="1572" 
d="M778 504v-371q0 -64 -47 -108.5t-117 -44.5t-116.5 44.5t-46.5 108.5v993h-277q-63 0 -108.5 45.5t-45.5 108.5t45.5 108.5t108.5 45.5h881q63 0 108 -45.5t45 -108.5t-45 -108.5t-108 -45.5h-277v-321q106 61 273 61q65 0 125.5 -13.5t118.5 -47t101 -84t69 -130.5
t26 -181v-277q0 -64 -47 -108.5t-117 -44.5t-117 44.5t-47 108.5v178q0 76 -16 127.5t-46 76.5t-62.5 34.5t-75.5 9.5q-99 0 -185 -55z" />
    <glyph glyph-name="afii10061" unicode="&#x40c;" horiz-adv-x="1333" 
d="M928 102l-416 580v-549q0 -64 -47 -108.5t-117 -44.5t-117 44.5t-47 108.5v1167q0 64 47 109t117 45t117 -45t47 -109v-491l412 553q40 53 75.5 72.5t83.5 19.5q70 0 107 -38.5t37 -94.5q0 -65 -41 -115l-350 -434l399 -532q33 -42 33 -99q0 -65 -42 -113t-112 -48
q-54 0 -95 27t-91 95zM719 1718l299 152q20 10 43 10q28 0 52 -15.5t36 -41.5l33 -80q8 -16 8 -37q0 -28 -17.5 -52.5t-46.5 -33.5l-317 -98q-18 -6 -35 -6q-34 0 -61 18t-41 49q-10 23 -10 43q0 28 15.5 53.5t41.5 38.5z" />
    <glyph glyph-name="afii10062" unicode="&#x40e;" horiz-adv-x="1400" 
d="M100 1305q0 63 46 106t112 43q53 0 94 -30t78 -95l344 -596l250 598q28 66 65 94.5t97 28.5q61 0 101 -35t40 -96q0 -37 -22 -92l-392 -891q-82 -188 -181 -275.5t-245 -87.5q-34 0 -84 11q-54 11 -92.5 54t-38.5 99q0 25 13 58q22 54 70 70t128 16q43 0 69 17t46 63
l18 43l-485 798q-31 54 -31 99zM1139 1749q0 -124 -112.5 -199t-297.5 -75t-297.5 75t-112.5 199q0 60 32 100.5t89 40.5q67 0 101 -34t34 -87q0 -110 154 -110t154 110q0 53 34 87t101 34q57 0 89 -40.5t32 -100.5z" />
    <glyph glyph-name="afii10145" unicode="&#x40f;" horiz-adv-x="1505" 
d="M905 0v-154q0 -63 -45 -108t-108 -45t-108.5 45t-45.5 108v154h-260q-63 0 -108.5 45.5t-45.5 108.5v1146q0 64 47 109t117 45t117 -45t47 -109v-993h481v993q0 64 47 109t117 45t117 -45t47 -109v-1146q0 -63 -45.5 -108.5t-108.5 -45.5h-262z" />
    <glyph glyph-name="afii10017" unicode="&#x410;" horiz-adv-x="1458" 
d="M1090 84l-84 217h-568l-86 -217q-43 -104 -153 -104q-62 0 -103 42.5t-41 100.5q0 32 11 57l462 1123q61 151 203 151q74 0 120.5 -37t78.5 -112l461 -1106q12 -30 12 -62q0 -64 -46 -110.5t-114 -46.5q-54 0 -94 28.5t-59 75.5zM883 608l-160 406l-162 -406h322z" />
    <glyph glyph-name="afii10018" unicode="&#x411;" horiz-adv-x="1263" 
d="M512 1126v-227q58 12 164 12q208 0 336.5 -120.5t128.5 -321.5q0 -226 -145 -352.5t-412 -126.5q-144 0 -246 6q-66 1 -110 47.5t-44 112.5v1124q0 63 45.5 108.5t108.5 45.5h557q63 0 108.5 -45.5t45.5 -108.5t-45.5 -108.5t-108.5 -45.5h-383zM512 592v-285
q88 -10 123 -10q95 0 136.5 40.5t41.5 106.5q0 69 -40 114.5t-124 45.5q-63 0 -137 -12z" />
    <glyph glyph-name="afii10019" unicode="&#x412;" horiz-adv-x="1263" 
d="M618 1442q125 0 219 -27.5t150.5 -77t84.5 -112.5t28 -140q0 -210 -164 -321q87 -34 146 -118t59 -212q0 -146 -72.5 -247.5t-193 -148t-279.5 -46.5q-90 0 -258 4q-61 1 -107.5 49.5t-46.5 108.5v1124q0 63 45.5 110t108.5 48q132 6 280 6zM512 580v-269q46 -12 111 -12
q94 0 142 39.5t48 112.5q0 129 -174 129h-127zM512 1126v-260h109q69 0 110 33.5t41 106.5q0 61 -46.5 95t-111.5 34q-19 0 -102 -9z" />
    <glyph glyph-name="afii10020" unicode="&#x413;" horiz-adv-x="1044" 
d="M850 1126h-338v-993q0 -64 -47 -108.5t-117 -44.5t-117 44.5t-47 108.5v1147q0 63 45.5 108.5t108.5 45.5h512q63 0 108.5 -45.5t45.5 -108.5t-45.5 -108.5t-108.5 -45.5z" />
    <glyph glyph-name="afii10021" unicode="&#x414;" horiz-adv-x="1564" 
d="M1217 0h-889v-92q0 -63 -45.5 -108.5t-108.5 -45.5t-108.5 45.5t-45.5 108.5v248q0 63 45 107t109 44q24 32 54 99t63 170t58 254.5t32 316.5l6 133q3 65 49.5 109.5t110.5 44.5h629q63 0 108 -45.5t45 -108.5v-973h41q63 0 108.5 -45t45.5 -108v-246q0 -63 -45.5 -108.5
t-108.5 -45.5t-108 45.5t-45 108.5v92zM535 307h466v819h-290l-23 -241q-16 -176 -65 -351.5t-88 -226.5z" />
    <glyph glyph-name="afii10022" unicode="&#x415;" horiz-adv-x="1177" 
d="M512 307h389q63 0 108.5 -45t45.5 -108t-45.5 -108.5t-108.5 -45.5h-563q-63 0 -108.5 45.5t-45.5 108.5v1126q0 63 45.5 108.5t108.5 45.5h543q63 0 108 -45.5t45 -108.5t-45 -108.5t-108 -45.5h-369v-252h307q63 0 108.5 -45t45.5 -108t-45.5 -108.5t-108.5 -45.5h-307
v-260z" />
    <glyph glyph-name="afii10024" unicode="&#x416;" horiz-adv-x="1953" 
d="M813 686l-414 -623q-55 -83 -153 -83q-62 0 -104 40.5t-42 100.5q0 48 33 98l367 529l-340 466q-31 45 -31 95q0 59 41 102t111 43q81 0 147 -92l385 -555v493q0 64 47 109t117 45t117 -45t47 -109v-493l379 547q68 100 157 100q67 0 108.5 -40t41.5 -99q0 -53 -37 -105
l-336 -460l363 -523q36 -50 36 -104q0 -61 -43 -102t-108 -41q-91 0 -152 92l-409 614v-553q0 -64 -47 -108.5t-117 -44.5t-117 44.5t-47 108.5v553z" />
    <glyph glyph-name="afii10025" unicode="&#x417;" horiz-adv-x="1198" 
d="M281 1079q-67 0 -106.5 38.5t-39.5 99.5q0 94 101 153q64 39 157.5 63.5t184.5 24.5q198 0 320 -106t122 -297q0 -82 -44 -163t-136 -144q235 -79 235 -347q0 -96 -44 -177.5t-117 -135t-164.5 -83.5t-188.5 -30q-146 0 -250.5 40.5t-154.5 88.5q-45 42 -61.5 76
t-16.5 74q0 63 42.5 98t100.5 35q33 0 71.5 -16.5t70.5 -35.5t81.5 -35.5t102.5 -16.5q36 0 69 7.5t64 24t49.5 47t18.5 72.5q0 67 -54 106.5t-166 39.5q-76 0 -122 42t-46 115q0 71 46 110.5t122 39.5q70 0 117 33.5t47 97.5q0 65 -42.5 99t-114.5 34q-61 0 -140 -36
t-114 -36z" />
    <glyph glyph-name="afii10026" unicode="&#x418;" horiz-adv-x="1617" 
d="M1434 1296v-1163q0 -64 -47 -108.5t-117 -44.5t-117 44.5t-47 108.5v758l-553 -774q-55 -77 -99 -107t-106 -30q-72 0 -118 46t-46 111v1163q0 64 47 109t117 45t117 -45t47 -109v-757l551 774q56 79 100 108t103 29q77 0 122.5 -43.5t45.5 -114.5z" />
    <glyph glyph-name="afii10027" unicode="&#x419;" horiz-adv-x="1617" 
d="M1434 1296v-1163q0 -64 -47 -108.5t-117 -44.5t-117 44.5t-47 108.5v758l-553 -774q-55 -77 -99 -107t-106 -30q-72 0 -118 46t-46 111v1163q0 64 47 109t117 45t117 -45t47 -109v-757l551 774q56 79 100 108t103 29q77 0 122.5 -43.5t45.5 -114.5zM1253 1749
q0 -124 -112 -199t-297 -75t-297.5 75t-112.5 199q0 60 32 100.5t89 40.5q67 0 101 -34t34 -87q0 -110 154 -110q153 0 153 110q0 53 34.5 87t101.5 34q57 0 88.5 -40.5t31.5 -100.5z" />
    <glyph glyph-name="afii10028" unicode="&#x41a;" horiz-adv-x="1333" 
d="M928 102l-416 580v-549q0 -64 -47 -108.5t-117 -44.5t-117 44.5t-47 108.5v1167q0 64 47 109t117 45t117 -45t47 -109v-491l412 553q40 53 75.5 72.5t83.5 19.5q70 0 107 -38.5t37 -94.5q0 -65 -41 -115l-350 -434l399 -532q33 -42 33 -99q0 -65 -42 -113t-112 -48
q-54 0 -95 27t-91 95z" />
    <glyph glyph-name="afii10029" unicode="&#x41b;" horiz-adv-x="1499" 
d="M344 1147l10 133q5 65 52.5 109.5t111.5 44.5h643q63 0 108.5 -45.5t45.5 -108.5v-1147q0 -64 -47 -108.5t-117 -44.5t-117 44.5t-47 108.5v993h-315l-31 -270q-37 -326 -102.5 -521t-154.5 -275t-216 -80q-71 0 -113.5 42.5t-42.5 104.5q0 122 131 174
q76 30 122.5 232.5t78.5 613.5z" />
    <glyph glyph-name="afii10030" unicode="&#x41c;" horiz-adv-x="1867" 
d="M817 483l-305 424v-774q0 -64 -47 -108.5t-117 -44.5t-117 44.5t-47 108.5v1137q0 80 52.5 132t140.5 52q58 0 99 -19t71 -51.5t82 -103.5l327 -451l310 449q30 42 41.5 58t37.5 45.5t45 41t48.5 21.5t62.5 10q84 0 133 -49t49 -129v-1143q0 -64 -46.5 -108.5
t-116.5 -44.5t-117 44.5t-47 108.5v780l-307 -430q-47 -65 -115 -65q-70 0 -117 65z" />
    <glyph glyph-name="afii10031" unicode="&#x41d;" horiz-adv-x="1546" 
d="M1034 1300q0 64 47 109t117 45t117 -45t47 -109v-1167q0 -64 -47 -108.5t-117 -44.5t-117 44.5t-47 108.5v445h-522v-445q0 -64 -47 -108.5t-117 -44.5t-117 44.5t-47 108.5v1167q0 64 47 109t117 45t117 -45t47 -109v-415h522v415z" />
    <glyph glyph-name="afii10032" unicode="&#x41e;" horiz-adv-x="1687" 
d="M844 -25q-163 0 -303 52t-241.5 147t-159.5 235t-58 308q0 155 55.5 291t153.5 235.5t241.5 157t311.5 57.5q218 0 390.5 -89t272 -258.5t99.5 -393.5q0 -160 -58 -298.5t-159 -235.5t-242 -152.5t-303 -55.5zM844 1151q-181 0 -297.5 -120t-116.5 -314
q0 -183 120.5 -308.5t293.5 -125.5q132 0 227 58.5t140.5 155.5t45.5 220q0 193 -118 313.5t-295 120.5z" />
    <glyph glyph-name="afii10033" unicode="&#x41f;" horiz-adv-x="1525" 
d="M338 1434h850q63 0 108 -45.5t45 -108.5v-1147q0 -64 -46.5 -108.5t-116.5 -44.5t-117 44.5t-47 108.5v993h-502v-993q0 -64 -47 -108.5t-117 -44.5t-117 44.5t-47 108.5v1147q0 63 45.5 108.5t108.5 45.5z" />
    <glyph glyph-name="afii10034" unicode="&#x420;" horiz-adv-x="1284" 
d="M338 1436q54 0 154.5 1t130.5 1q127 0 227.5 -26t165.5 -69.5t107.5 -105.5t60.5 -129.5t18 -144.5q0 -96 -36.5 -183t-103 -153.5t-168 -106t-222.5 -39.5q-109 0 -160 6v-354q0 -64 -47 -108.5t-117 -44.5t-117 44.5t-47 108.5v1147q0 64 44.5 109t109.5 47zM512 1126
v-327q86 -11 150 -11q35 0 66.5 8.5t61 27.5t47 55t17.5 86q0 90 -52 127.5t-147 37.5q-7 0 -143 -4z" />
    <glyph glyph-name="afii10035" unicode="&#x421;" horiz-adv-x="1304" 
d="M1081 1108q-34 0 -80 16q-79 27 -170 27q-173 0 -287 -114.5t-114 -319.5q0 -191 120.5 -312.5t313.5 -121.5q88 0 164 28q52 21 96 21q81 0 119 -72q19 -40 19 -72q0 -88 -101 -141q-137 -72 -327 -72q-220 0 -391 92t-266 261t-95 389q0 124 30 235t91.5 204t150 160
t210.5 104.5t267 37.5q88 0 165 -16.5t122 -40.5q109 -57 109 -141q0 -38 -21 -78q-44 -74 -125 -74z" />
    <glyph glyph-name="afii10036" unicode="&#x422;" 
d="M778 1126v-993q0 -64 -47 -108.5t-117 -44.5t-116.5 44.5t-46.5 108.5v993h-277q-63 0 -108.5 45.5t-45.5 108.5t45.5 108.5t108.5 45.5h881q63 0 108 -45.5t45 -108.5t-45 -108.5t-108 -45.5h-277z" />
    <glyph glyph-name="afii10037" unicode="&#x423;" horiz-adv-x="1400" 
d="M100 1305q0 63 46 106t112 43q53 0 94 -30t78 -95l344 -596l250 598q28 66 65 94.5t97 28.5q61 0 101 -35t40 -96q0 -37 -22 -92l-392 -891q-82 -188 -181 -275.5t-245 -87.5q-34 0 -84 11q-54 11 -92.5 54t-38.5 99q0 25 13 58q22 54 70 70t128 16q43 0 69 17t46 63
l18 43l-485 798q-31 54 -31 99z" />
    <glyph glyph-name="afii10038" unicode="&#x424;" horiz-adv-x="1728" 
d="M1026 1300q188 -5 331.5 -71.5t226.5 -193.5t83 -298q0 -262 -175 -410t-466 -151v-43q0 -64 -47 -108.5t-117 -44.5t-117 44.5t-47 108.5v43q-292 3 -464.5 150t-172.5 411q0 173 81 299.5t223.5 192t332.5 71.5q0 65 46.5 109.5t117.5 44.5t117.5 -44.5t46.5 -109.5z
M1026 997v-520q157 3 225 66.5t68 193.5q0 53 -15.5 97t-48.5 81t-91.5 58.5t-137.5 23.5zM698 477v520q-148 -4 -218 -75.5t-70 -184.5q0 -127 70 -192t218 -68z" />
    <glyph glyph-name="afii10039" unicode="&#x425;" horiz-adv-x="1339" 
d="M123 1296q0 63 42 110.5t111 47.5q47 0 84.5 -20t71.5 -74l246 -387l235 387q58 94 154 94q72 0 112 -43.5t40 -107.5q0 -52 -31 -103l-305 -469l325 -491q33 -47 33 -101q0 -65 -45 -112t-109 -47q-101 0 -159 94l-260 407l-258 -407q-60 -94 -162 -94q-66 0 -108 44.5
t-42 108.5q0 56 35 109l324 489l-307 473q-27 44 -27 92z" />
    <glyph glyph-name="afii10040" unicode="&#x426;" horiz-adv-x="1566" 
d="M1526 154v-246q0 -63 -45.5 -108.5t-108.5 -45.5t-108 45.5t-45 108.5v92h-881q-63 0 -108.5 45.5t-45.5 108.5v1146q0 64 47 109t117 45t117 -45t47 -109v-993h492v993q0 64 46.5 109t116.5 45t117 -45t47 -109v-993h41q63 0 108.5 -45t45.5 -108z" />
    <glyph glyph-name="afii10041" unicode="&#x427;" horiz-adv-x="1402" 
d="M471 1020q0 -76 16 -127.5t46 -76.5t63 -34.5t76 -9.5q112 0 219 76v452q0 64 47 109t117 45t117 -45t47 -109v-1167q0 -64 -47 -108.5t-117 -44.5t-117 44.5t-47 108.5v416q-105 -84 -307 -84q-65 0 -125.5 13.5t-119 47.5t-101 84.5t-69 130.5t-26.5 181v378
q0 64 47 109t117 45t117 -45t47 -109v-280z" />
    <glyph glyph-name="afii10042" unicode="&#x428;" horiz-adv-x="2048" 
d="M1536 1300q0 64 47 109t117 45t117 -45t47 -109v-1146q0 -63 -45.5 -108.5t-108.5 -45.5h-1372q-63 0 -108.5 45.5t-45.5 108.5v1146q0 64 47 109t117 45t117 -45t47 -109v-993h348v993q0 64 47 109t117 45t117 -45t47 -109v-993h348v993z" />
    <glyph glyph-name="afii10043" unicode="&#x429;" horiz-adv-x="2099" 
d="M2058 154v-246q0 -63 -45 -108.5t-108 -45.5t-108.5 45.5t-45.5 108.5v92h-1413q-63 0 -108.5 45.5t-45.5 108.5v1146q0 64 47 109t117 45t117 -45t47 -109v-993h348v993q0 64 47 109t117 45t117 -45t47 -109v-993h348v993q0 64 47 109t117 45t117 -45t47 -109v-993h41
q63 0 108 -45t45 -108z" />
    <glyph glyph-name="afii10044" unicode="&#x42a;" horiz-adv-x="1386" 
d="M1305 510q0 -235 -160 -374.5t-453 -139.5q-41 0 -118.5 1t-112.5 1q-65 2 -109.5 47t-44.5 109v972h-133q-63 0 -108.5 45.5t-45.5 108.5t45.5 108.5t108.5 45.5h307q63 0 108.5 -45.5t45.5 -108.5v-295q68 8 127 8q272 0 407.5 -128t135.5 -355zM635 676v-365
q74 -8 96 -8q225 0 225 199q0 96 -61.5 140t-161.5 44q-30 0 -98 -10z" />
    <glyph glyph-name="afii10045" unicode="&#x42b;" horiz-adv-x="1812" 
d="M1300 1300q0 64 47 109t117 45t117 -45t47 -109v-1167q0 -64 -47 -108.5t-117 -44.5t-117 44.5t-47 108.5v1167zM512 676v-365q74 -8 96 -8q205 0 205 199q0 92 -54.5 138t-148.5 46q-30 0 -98 -10zM569 -4q-41 0 -118.5 1t-112.5 1q-65 2 -109.5 47t-44.5 109v1146
q0 64 47 109t117 45t117 -45t47 -109v-315q68 8 127 8q258 0 390 -128.5t132 -354.5q0 -234 -156 -374t-436 -140z" />
    <glyph glyph-name="afii10046" unicode="&#x42c;" horiz-adv-x="1263" 
d="M512 676v-365q74 -8 96 -8q226 0 226 199q0 96 -62 140t-162 44q-30 0 -98 -10zM569 -4q-41 0 -118.5 1t-112.5 1q-65 2 -109.5 47t-44.5 109v1146q0 64 47 109t117 45t117 -45t47 -109v-315q68 8 127 8q272 0 407.5 -128t135.5 -355q0 -235 -160 -374.5t-453 -139.5z
" />
    <glyph glyph-name="afii10047" unicode="&#x42d;" horiz-adv-x="1349" 
d="M172 45q-98 55 -98 150q0 64 41 104.5t102 40.5q32 0 127.5 -28.5t159.5 -28.5q154 0 271.5 73t156.5 222h-422q-63 0 -108.5 45t-45.5 108t45.5 108.5t108.5 45.5h410q-47 129 -164.5 197.5t-282.5 68.5q-65 0 -148 -27.5t-116 -27.5q-55 0 -95 41.5t-40 97.5
q0 101 108 149q166 74 371 74q207 0 371 -91.5t258 -261t94 -388.5q0 -345 -206.5 -543.5t-559.5 -198.5q-210 0 -338 70z" />
    <glyph glyph-name="afii10048" unicode="&#x42e;" horiz-adv-x="2220" 
d="M686 578h-174v-445q0 -64 -47 -108.5t-117 -44.5t-117 44.5t-47 108.5v1167q0 64 47 109t117 45t117 -45t47 -109v-415h180q51 255 239.5 414t465.5 159q217 0 384.5 -89t262 -258t94.5 -394q0 -161 -55 -299t-152 -235.5t-235 -152.5t-299 -55q-177 0 -327.5 71.5
t-252.5 209.5t-131 322zM1407 1151q-165 0 -274 -120t-109 -314q0 -183 112.5 -308.5t270.5 -125.5q99 0 174 33.5t120 93.5t67 137t22 170q0 196 -105 315t-278 119z" />
    <glyph glyph-name="afii10049" unicode="&#x42f;" horiz-adv-x="1296" 
d="M731 1442q59 0 227 -4q65 -3 109.5 -48.5t44.5 -109.5v-1147q0 -64 -47 -108.5t-117 -44.5t-117 44.5t-47 108.5v328h-145l-233 -391q-53 -90 -150 -90q-63 0 -105 42.5t-42 102.5q0 51 28 94l199 313q-100 59 -160.5 157t-60.5 235q0 83 21 157.5t68.5 141t117.5 115
t175 76.5t234 28zM784 768v358q-45 9 -118 9q-85 0 -144 -51.5t-59 -137.5q0 -75 42.5 -120t106.5 -58h172z" />
    <glyph glyph-name="afii10065" unicode="&#x430;" horiz-adv-x="952" 
d="M352 -20q-127 0 -209 81t-82 218q0 150 93.5 227.5t238.5 77.5q56 0 105.5 -16t74.5 -36v19q0 70 -33.5 104.5t-93.5 34.5q-62 0 -129 -18q-12 -4 -34 -4q-39 0 -69.5 22.5t-43.5 63.5q-6 15 -6 32q0 39 27.5 73t70.5 52q95 35 215 35q204 0 293.5 -98t89.5 -293v-424
q0 -70 -39 -110.5t-92 -40.5q-105 0 -135 104q-32 -52 -97.5 -78t-144.5 -26zM573 291v57q-45 31 -116 31q-39 0 -63.5 -18.5t-24.5 -51.5q0 -31 25 -51t63 -20q78 0 116 53z" />
    <glyph glyph-name="afii10066" unicode="&#x431;" horiz-adv-x="1103" 
d="M645 901q183 0 295.5 -121.5t112.5 -326.5q0 -130 -59 -238t-172.5 -174t-260.5 -66q-239 0 -374.5 159.5t-135.5 432.5q0 622 357 736q58 19 145.5 37t122.5 36q77 39 133 39q77 0 113 -74q18 -41 18 -73q0 -81 -86 -135q-50 -30 -177 -59t-179 -50q-117 -47 -138 -252
q43 55 121.5 92t163.5 37zM565 614q-65 0 -113 -29t-73 -83q2 -98 47 -169t127 -71q83 0 127.5 50.5t44.5 125.5t-41 125.5t-119 50.5z" />
    <glyph glyph-name="afii10067" unicode="&#x432;" horiz-adv-x="1046" 
d="M508 934q436 0 436 -246q0 -81 -49.5 -136t-112.5 -67q86 -27 134.5 -81.5t48.5 -127.5q0 -288 -455 -288q-82 0 -254 8q-62 3 -102.5 45.5t-40.5 103.5v633q0 60 41.5 103.5t101.5 46.5q228 6 252 6zM420 369v-127q103 -9 125 -9q42 0 68 19.5t26 46.5q0 33 -31.5 51.5
t-89.5 18.5h-98zM420 682v-129h102q40 0 68 17.5t28 52.5q0 28 -21.5 46.5t-59.5 18.5q-81 0 -117 -6z" />
    <glyph glyph-name="afii10068" unicode="&#x433;" horiz-adv-x="788" 
d="M625 635h-205v-512q0 -59 -44.5 -101t-109.5 -42t-109 42t-44 101v655q0 59 42.5 101.5t100.5 42.5h369q58 0 100.5 -42.5t42.5 -101.5q0 -58 -42 -100.5t-101 -42.5z" />
    <glyph glyph-name="afii10069" unicode="&#x434;" horiz-adv-x="1175" 
d="M868 0h-561v-61q0 -59 -42.5 -101.5t-100.5 -42.5t-101 42.5t-43 101.5v231q0 48 35 82.5t84 34.5q50 65 80.5 185t38.5 251l4 55q3 60 47.5 102t104.5 42h444q58 0 100.5 -42.5t42.5 -101.5v-491q63 0 108.5 -42.5t45.5 -101.5v-204q0 -59 -42.5 -101.5t-100.5 -42.5
t-101 42.5t-43 101.5v61zM461 287h233v348h-137l-4 -37q-24 -206 -92 -311z" />
    <glyph glyph-name="afii10070" unicode="&#x435;" horiz-adv-x="1048" 
d="M369 563h331q0 51 -40 89t-109 38q-74 0 -116.5 -31.5t-65.5 -95.5zM561 946q119 0 220.5 -53t164 -153.5t62.5 -227.5v-41q0 -55 -37 -84t-82 -29h-510q21 -63 78.5 -95t136.5 -32q56 0 129 21q21 6 41 6q36 0 64.5 -19.5t41.5 -54.5q9 -21 9 -43q0 -36 -22 -69.5
t-62 -53.5q-84 -43 -234 -43q-227 0 -363.5 133.5t-136.5 352.5q0 134 61 244t176 175.5t263 65.5z" />
    <glyph glyph-name="afii10072" unicode="&#x436;" horiz-adv-x="1474" 
d="M584 434l-193 -352q-59 -102 -153 -102q-69 0 -110.5 43.5t-41.5 103.5q0 42 25 84l161 262l-141 234q-20 33 -20 75q0 60 43.5 105t117.5 45q98 0 150 -105l162 -315v276q0 59 44 101.5t109 42.5t109.5 -42.5t44.5 -101.5v-278l170 317q55 105 149 105q72 0 115 -42.5
t43 -101.5q0 -40 -20 -73l-146 -242l162 -262q25 -42 25 -86q0 -60 -39.5 -102.5t-104.5 -42.5q-54 0 -90 26t-65 76l-199 354v-313q0 -59 -44.5 -101t-109.5 -42t-109 42t-44 101v311z" />
    <glyph glyph-name="afii10073" unicode="&#x437;" horiz-adv-x="960" 
d="M156 866q119 80 321 80q189 0 288 -72t99 -198q0 -66 -45.5 -120.5t-122.5 -80.5q93 -23 141 -80.5t48 -138.5q0 -129 -118.5 -205t-317.5 -76q-91 0 -177 22.5t-131 53.5q-65 46 -65 113q0 36 20 65q38 56 94 56q33 0 84 -23q77 -41 150 -41q67 0 100 18t33 48
q0 31 -24.5 50t-73.5 19h-74q-43 0 -72.5 30t-29.5 73t29.5 72.5t72.5 29.5h64q44 0 66 21.5t22 52.5q0 65 -119 65q-58 0 -142 -41q-31 -16 -67 -16q-64 0 -98 57q-17 31 -17 60q0 64 62 106z" />
    <glyph glyph-name="afii10074" unicode="&#x438;" horiz-adv-x="1167" 
d="M1055 778v-655q0 -59 -44.5 -101t-109.5 -42t-109 42t-44 101v358l-265 -387q-78 -114 -202 -114q-77 0 -122.5 45t-45.5 118v645q0 59 44 101.5t109 42.5t109.5 -42.5t44.5 -101.5v-348l250 367q45 67 93 96t120 29q76 0 124 -46t48 -108z" />
    <glyph glyph-name="afii10075" unicode="&#x439;" horiz-adv-x="1167" 
d="M1055 778v-655q0 -59 -44.5 -101t-109.5 -42t-109 42t-44 101v358l-265 -387q-78 -114 -202 -114q-77 0 -122.5 45t-45.5 118v645q0 59 44 101.5t109 42.5t109.5 -42.5t44.5 -101.5v-348l250 367q45 67 93 96t120 29q76 0 124 -46t48 -108zM780 1413q60 0 92.5 -35.5
t32.5 -95.5q0 -112 -82 -185t-231 -73q-163 0 -242.5 71t-79.5 187q0 60 31.5 95.5t91.5 35.5q54 0 83.5 -29.5t29.5 -80.5q0 -101 86 -101q39 0 58.5 28t19.5 73q0 51 28.5 80.5t81.5 29.5z" />
    <glyph glyph-name="afii10076" unicode="&#x43a;" horiz-adv-x="1052" 
d="M651 78l-231 352v-307q0 -59 -44.5 -101t-109.5 -42t-109 42t-44 101v665q0 59 44 101.5t109 42.5t109.5 -42.5t44.5 -101.5v-292l196 333q59 103 154 103q73 0 116.5 -42.5t43.5 -103.5q0 -46 -31 -94l-143 -209l178 -250q33 -44 33 -98q0 -63 -43.5 -109t-110.5 -46
q-55 0 -91.5 24.5t-70.5 73.5z" />
    <glyph glyph-name="afii10077" unicode="&#x43b;" horiz-adv-x="1110" 
d="M385 922h469q58 0 100.5 -42.5t42.5 -101.5v-655q0 -59 -44 -101t-109 -42t-109.5 42t-44.5 101v491h-162l-4 -41q-41 -403 -153 -520q-70 -73 -185 -73q-69 0 -111 42t-42 105q0 109 104 160q75 37 90 348l6 143q3 60 47.5 102t104.5 42z" />
    <glyph glyph-name="afii10078" unicode="&#x43c;" horiz-adv-x="1302" 
d="M580 281l-160 172v-330q0 -59 -44.5 -101t-109.5 -42t-109 42t-44 101v639q0 70 47 120t121 50q57 0 98.5 -23t85.5 -73l201 -228l184 226q42 52 83 75t97 23q68 0 114 -46.5t46 -107.5v-655q0 -59 -44.5 -101t-109.5 -42t-109 42t-44 101v330l-150 -170q-30 -35 -78 -35
q-46 0 -75 33z" />
    <glyph glyph-name="afii10079" unicode="&#x43d;" horiz-adv-x="1136" 
d="M717 788q0 59 44 101.5t109 42.5t109.5 -42.5t44.5 -101.5v-665q0 -59 -44.5 -101t-109.5 -42t-109 42t-44 101v194h-297v-194q0 -59 -44.5 -101t-109.5 -42t-109 42t-44 101v665q0 59 44 101.5t109 42.5t109.5 -42.5t44.5 -101.5v-184h297v184z" />
    <glyph glyph-name="afii10080" unicode="&#x43e;" horiz-adv-x="1146" 
d="M573 -25q-232 0 -372 137.5t-140 348.5t140 348t372 137t372 -137t140 -348t-140 -348.5t-372 -137.5zM573 659q-77 0 -130.5 -54t-53.5 -144q0 -87 52.5 -143t131.5 -56q80 0 132.5 54t52.5 145q0 88 -53.5 143t-131.5 55z" />
    <glyph glyph-name="afii10081" unicode="&#x43f;" horiz-adv-x="1126" 
d="M256 922h614q58 0 101 -43t43 -101v-655q0 -59 -44.5 -101t-109.5 -42t-109 42t-44 101v512h-287v-512q0 -59 -44.5 -101t-109.5 -42t-109 42t-44 101v655q0 59 42.5 101.5t100.5 42.5z" />
    <glyph glyph-name="afii10082" unicode="&#x440;" horiz-adv-x="1148" 
d="M420 578v-281q34 -20 64 -27.5t79 -7.5q95 0 146 58.5t51 148.5q0 83 -47.5 136.5t-132.5 53.5q-88 0 -160 -81zM281 932q89 0 139 -78q41 40 108.5 66t147.5 26q184 0 297.5 -132.5t113.5 -338.5q0 -140 -60.5 -253.5t-174.5 -180t-260 -66.5q-103 0 -172 29v-270
q0 -59 -44.5 -101.5t-109.5 -42.5t-109 42.5t-44 101.5v1044q0 63 46 108.5t122 45.5z" />
    <glyph glyph-name="afii10083" unicode="&#x441;" horiz-adv-x="966" 
d="M750 633q-30 0 -74 12q-51 14 -88 14q-79 0 -139 -53t-60 -145q0 -89 62.5 -144t140.5 -55q45 0 104 23q49 18 82 18q66 0 107 -63q20 -36 20 -72q0 -39 -19.5 -72.5t-51.5 -54.5q-45 -30 -117 -48t-150 -18q-230 0 -368 133.5t-138 352.5q0 134 60.5 244t173 175.5
t254.5 65.5q145 0 248 -49q41 -19 63.5 -50.5t22.5 -68.5q0 -29 -19 -69q-39 -76 -114 -76z" />
    <glyph glyph-name="afii10084" unicode="&#x442;" horiz-adv-x="921" 
d="M614 614v-491q0 -59 -44 -101t-109 -42t-109.5 42t-44.5 101v491h-123q-59 0 -101 44.5t-42 109.5t42 109.5t101 44.5h553q59 0 101.5 -44.5t42.5 -109.5t-42.5 -109.5t-101.5 -44.5h-123z" />
    <glyph glyph-name="afii10085" unicode="&#x443;" horiz-adv-x="1044" 
d="M393 825l121 -325q15 -39 35 -127q8 82 22 129l95 319q13 49 53.5 80t91.5 31q74 0 119 -45t45 -109q0 -33 -12 -63l-279 -715q-63 -163 -122.5 -254t-115.5 -123.5t-131 -32.5q-59 0 -122 29q-35 17 -54.5 49.5t-19.5 69.5q0 28 8 49q21 54 59.5 71t100.5 17q60 0 90 76
l20 49l-313 700q-14 32 -14 70q0 67 49 114.5t123 47.5q112 0 151 -107z" />
    <glyph glyph-name="afii10086" unicode="&#x444;" horiz-adv-x="1433" 
d="M870 946q160 0 275.5 -65.5t171 -174t55.5 -245.5q0 -105 -30 -192t-89.5 -153.5t-157 -103.5t-223.5 -37v-241q0 -59 -45 -101.5t-110 -42.5t-109.5 42.5t-44.5 101.5v241q-239 0 -370.5 136t-131.5 350q0 95 32.5 181.5t94 154.5t158.5 108.5t217 40.5v365
q0 59 44.5 101t109.5 42t109 -42t44 -101v-365zM563 262v397q-174 0 -174 -198q0 -92 42.5 -145t131.5 -54zM870 262q174 0 174 199q0 84 -43 141t-131 57v-397z" />
    <glyph glyph-name="afii10087" unicode="&#x445;" horiz-adv-x="1015" 
d="M117 782q0 62 45 106t117 44q89 0 145 -101l94 -172l98 172q55 101 150 101q64 0 103.5 -39.5t39.5 -95.5q0 -44 -26 -86l-150 -228l160 -252q29 -45 29 -98q0 -63 -39.5 -108t-104.5 -45q-58 0 -94 25t-63 75l-115 211l-125 -213q-58 -98 -150 -98q-65 0 -101 40t-36 99
q0 52 31 100l162 248l-144 229q-26 42 -26 86z" />
    <glyph glyph-name="afii10088" unicode="&#x446;" horiz-adv-x="1167" 
d="M1147 143v-204q0 -59 -42.5 -101.5t-100.5 -42.5t-101 42.5t-43 101.5v61h-604q-58 0 -100.5 42t-42.5 101v645q0 59 44 101.5t109 42.5t109.5 -42.5t44.5 -101.5v-501h266v501q0 59 44.5 101.5t109.5 42.5t111 -42.5t46 -101.5v-501q63 0 106.5 -42.5t43.5 -101.5z" />
    <glyph glyph-name="afii10089" unicode="&#x447;" horiz-adv-x="1024" 
d="M389 651q0 -61 26 -93t72 -32q73 0 117 21v241q0 60 45 102t113 42q66 0 107.5 -42t41.5 -102v-665q0 -59 -44 -101t-109 -42t-109.5 42t-44.5 101v156q-86 -39 -205 -39q-181 0 -259.5 94.5t-78.5 275.5v170q0 61 47.5 106.5t122.5 45.5q68 0 113 -42t45 -102v-137z" />
    <glyph glyph-name="afii10090" unicode="&#x448;" horiz-adv-x="1515" 
d="M1096 788q0 59 44 101.5t109 42.5t109.5 -42.5t44.5 -101.5v-645q0 -59 -42.5 -101t-100.5 -42h-1004q-58 0 -100.5 42t-42.5 101v645q0 59 44 101.5t109 42.5t109.5 -42.5t44.5 -101.5v-501h184v501q0 59 44.5 101.5t109.5 42.5t109 -42.5t44 -101.5v-501h185v501z" />
    <glyph glyph-name="afii10091" unicode="&#x449;" horiz-adv-x="1576" 
d="M1556 143v-204q0 -59 -42.5 -101.5t-100.5 -42.5t-100.5 42.5t-42.5 101.5v61h-1014q-58 0 -100.5 42t-42.5 101v645q0 59 44 101.5t109 42.5t109.5 -42.5t44.5 -101.5v-501h184v501q0 59 44.5 101.5t109.5 42.5t109 -42.5t44 -101.5v-501h185v501q0 59 44 101.5
t109 42.5t110.5 -42.5t45.5 -101.5v-501q63 0 107 -42.5t44 -101.5z" />
    <glyph glyph-name="afii10092" unicode="&#x44a;" horiz-adv-x="1130" 
d="M647 0h-248q-59 0 -101 42t-42 101v492h-72q-58 0 -100.5 42.5t-42.5 100.5q0 59 42.5 101.5t100.5 42.5h236q58 0 100.5 -42.5t42.5 -101.5v-71h107q116 0 201 -28t131 -77t67 -105t21 -122q0 -72 -24.5 -136t-74.5 -119t-138.5 -87.5t-205.5 -32.5zM563 461v-195h78
q60 0 90.5 25.5t30.5 70.5q0 99 -119 99h-80z" />
    <glyph glyph-name="afii10093" unicode="&#x44b;" horiz-adv-x="1443" 
d="M420 707h96q116 0 201 -28t131 -77t67 -105t21 -122q0 -57 -14.5 -109t-48 -101.5t-83.5 -85.5t-126 -57.5t-170 -21.5h-238q-58 0 -100.5 42t-42.5 101v645q0 59 44 101.5t109 42.5t109.5 -42.5t44.5 -101.5v-81zM1024 788q0 59 44.5 101.5t109.5 42.5t109 -42.5
t44 -101.5v-665q0 -59 -44 -101t-109 -42t-109.5 42t-44.5 101v665zM420 461v-195h67q60 0 90.5 25.5t30.5 70.5q0 99 -119 99h-69z" />
    <glyph glyph-name="afii10094" unicode="&#x44c;" horiz-adv-x="987" 
d="M420 707h106q116 0 201 -28t131 -77t67 -105t21 -122q0 -57 -14.5 -109t-48 -101.5t-83.5 -85.5t-126 -57.5t-170 -21.5h-248q-58 0 -100.5 42t-42.5 101v645q0 59 44 101.5t109 42.5t109.5 -42.5t44.5 -101.5v-81zM420 461v-195h78q60 0 90 25t30 71q0 99 -118 99h-80z
" />
    <glyph glyph-name="afii10095" unicode="&#x44d;" horiz-adv-x="999" 
d="M82 152q0 39 18 69q42 62 105 62q29 0 71 -17q58 -24 136 -24q166 0 204 120h-266q-43 0 -72.5 30t-29.5 73t29.5 72.5t72.5 29.5h260q-25 58 -76 85.5t-116 27.5q-63 0 -146 -27q-33 -10 -59 -10q-68 0 -104 64q-19 36 -19 67q0 77 76 119q43 24 112.5 38.5t133.5 14.5
q245 0 385.5 -130.5t140.5 -354.5q0 -136 -56.5 -244.5t-173.5 -175t-278 -66.5q-191 0 -295 68q-53 36 -53 109z" />
    <glyph glyph-name="afii10096" unicode="&#x44e;" horiz-adv-x="1607" 
d="M559 317h-119v-194q0 -60 -46.5 -101.5t-119.5 -41.5q-71 0 -116 41.5t-45 101.5v665q0 60 45.5 102t115.5 42q73 0 119.5 -42t46.5 -102v-163h125q45 146 168.5 233.5t300.5 87.5q230 0 371 -137.5t141 -347.5q0 -209 -143 -347.5t-369 -138.5q-184 0 -309 93t-166 249z
M1044 639q-68 0 -110.5 -47t-42.5 -131q0 -87 42.5 -132.5t110.5 -45.5q69 0 111.5 46t42.5 132q0 85 -40.5 131.5t-113.5 46.5z" />
    <glyph glyph-name="afii10097" unicode="&#x44f;" horiz-adv-x="1011" 
d="M416 68q-31 -51 -65.5 -69.5t-76.5 -18.5q-63 0 -99 36t-36 90q0 55 37 107l66 90q-62 33 -108 100t-46 172q0 73 28.5 134t86 109.5t154.5 76t225 27.5h174q58 0 100.5 -42.5t42.5 -101.5v-655q0 -59 -44.5 -101t-109.5 -42t-109 42t-44 101v113h-74zM537 461h55v194
h-60q-52 0 -84 -32t-32 -72q0 -37 35 -63.5t86 -26.5z" />
    <glyph glyph-name="afii10071" unicode="&#x451;" horiz-adv-x="1048" 
d="M369 563h331q0 51 -40 89t-109 38q-74 0 -116.5 -31.5t-65.5 -95.5zM561 946q119 0 220.5 -53t164 -153.5t62.5 -227.5v-41q0 -55 -37 -84t-82 -29h-510q21 -63 78.5 -95t136.5 -32q56 0 129 21q21 6 41 6q36 0 64.5 -19.5t41.5 -54.5q9 -21 9 -43q0 -36 -22 -69.5
t-62 -53.5q-84 -43 -234 -43q-227 0 -363.5 133.5t-136.5 352.5q0 134 61 244t176 175.5t263 65.5zM367 1030q-72 0 -120 46.5t-48 129.5q0 76 48.5 121t119.5 45q62 0 108.5 -45.5t46.5 -120.5q0 -82 -46 -129t-109 -47zM762 1030q-71 0 -119.5 46.5t-48.5 129.5
q0 75 49 120.5t119 45.5q63 0 109.5 -45.5t46.5 -120.5q0 -82 -46 -129t-110 -47z" />
    <glyph glyph-name="afii10099" unicode="&#x452;" horiz-adv-x="1191" 
d="M903 -330q-24 -26 -42 -42t-50 -31t-66 -15q-50 0 -84 31t-34 78t35 90q77 105 123 232.5t46 258.5q0 85 -39 129.5t-106 44.5q-88 0 -147 -59v-264q0 -59 -44.5 -101t-109.5 -42t-109.5 42t-44.5 101v706h-92q-53 0 -87 35t-34 88t34 88t87 35h92v236q0 59 44.5 101
t109.5 42t109.5 -42t44.5 -101v-236h155q53 0 87 -35t34 -88t-34 -88t-87 -35h-155v-176q90 80 227 80q82 0 149 -22t118 -66.5t79.5 -120t28.5 -176.5q0 -222 -66 -392t-172 -286z" />
    <glyph glyph-name="afii10100" unicode="&#x453;" horiz-adv-x="788" 
d="M625 635h-205v-512q0 -59 -44.5 -101t-109.5 -42t-109 42t-44 101v655q0 59 42.5 101.5t100.5 42.5h369q58 0 100.5 -42.5t42.5 -101.5q0 -58 -42 -100.5t-101 -42.5zM377 1255l96 160q27 49 86 49q33 0 59 -20l64 -47q39 -29 39 -82q0 -40 -25 -68l-121 -135
q-33 -39 -92 -39q-38 0 -71 23q-54 35 -54 96q0 31 19 63z" />
    <glyph glyph-name="afii10101" unicode="&#x454;" horiz-adv-x="983" 
d="M915 776q0 -29 -20 -67q-40 -66 -109 -66q-34 0 -69 14q-63 23 -135 23q-65 0 -117.5 -27.5t-77.5 -85.5h266q40 0 69.5 -30t29.5 -72t-29.5 -72.5t-69.5 -30.5h-268q46 -120 223 -120q62 0 117 20q38 14 72 14q65 0 100 -53q25 -41 25 -80q0 -67 -68 -110
q-90 -58 -264 -58q-126 0 -228 38t-167 104.5t-99.5 154.5t-34.5 189q0 224 141 354.5t386 130.5q64 0 135.5 -15t120.5 -42q71 -41 71 -113z" />
    <glyph glyph-name="afii10102" unicode="&#x455;" horiz-adv-x="933" 
d="M467 -25q-88 0 -172.5 25.5t-136.5 58.5q-29 19 -46.5 49t-17.5 64t19 66q36 59 104 59q32 0 86 -21q96 -45 184 -45q70 0 70 41q0 19 -27 33.5t-70 25t-94.5 23t-103.5 34.5t-95 53t-70 83.5t-27 120.5q0 143 102.5 222t257.5 79q167 0 275 -53q75 -37 75 -113
q0 -26 -12 -53q-35 -76 -109 -76q-22 0 -59 11q-94 28 -151 28q-32 0 -52 -12.5t-20 -28.5q0 -22 36 -38t90 -25.5t117.5 -30.5t117.5 -49.5t90 -85t36 -133.5q0 -141 -107 -226.5t-290 -85.5z" />
    <glyph glyph-name="afii10103" unicode="&#x456;" horiz-adv-x="585" 
d="M139 788q0 59 44.5 101.5t109.5 42.5t109 -42.5t44 -101.5v-665q0 -59 -44 -101t-109 -42t-109.5 42t-44.5 101v665zM299 1413q70 0 122 -48t52 -126q0 -86 -51.5 -136t-122.5 -50q-79 0 -132.5 49.5t-53.5 136.5q0 79 54 126.5t132 47.5z" />
    <glyph glyph-name="afii10104" unicode="&#x457;" horiz-adv-x="690" 
d="M182 1047q-65 0 -108 41t-43 112q0 66 43 106t108 40q55 0 97.5 -40.5t42.5 -105.5q0 -70 -42 -111.5t-98 -41.5zM520 1047q-64 0 -107.5 41t-43.5 112q0 66 43.5 106t107.5 40q56 0 97.5 -40.5t41.5 -105.5q0 -70 -41 -111.5t-98 -41.5zM190 788q0 59 44.5 101.5
t109.5 42.5t109.5 -42.5t44.5 -101.5v-665q0 -59 -44.5 -101t-109.5 -42t-109.5 42t-44.5 101v665z" />
    <glyph glyph-name="afii10105" unicode="&#x458;" horiz-adv-x="581" 
d="M70 -412q-45 13 -73 47.5t-28 85.5q0 61 33 100.5t96 39.5q35 0 49.5 22.5t14.5 77.5v827q0 59 44 101.5t109 42.5t109.5 -42.5t44.5 -101.5v-856q0 -358 -289 -358q-62 0 -110 14zM324 1413q70 0 122 -48t52 -126q0 -86 -51.5 -136t-122.5 -50q-79 0 -133 49.5
t-54 136.5q0 79 54.5 126.5t132.5 47.5z" />
    <glyph glyph-name="afii10106" unicode="&#x459;" horiz-adv-x="1507" 
d="M997 461v-195h29q60 0 90.5 25.5t30.5 70.5q0 99 -119 99h-31zM528 614l-4 -41q-41 -403 -153 -520q-70 -73 -185 -73q-69 0 -111 41t-42 104q0 111 104 162q75 37 90 348l6 143q3 60 47.5 102t104.5 42h469q58 0 100.5 -42.5t42.5 -101.5v-71h58q116 0 201 -28t131 -77
t67 -105t21 -122q0 -72 -24.5 -136t-74.5 -119t-138.5 -87.5t-205.5 -32.5h-198q-59 0 -101.5 42.5t-42.5 100.5v471h-162z" />
    </font>
</defs>
</svg>
