<?xml version="1.0" standalone="no"?>
<!DOCTYPE svg PUBLIC "-//W3C//DTD SVG 1.1//EN" "http://www.w3.org/Graphics/SVG/1.1/DTD/svg11.dtd" >
<svg xmlns="http://www.w3.org/2000/svg" xmlns:xlink="http://www.w3.org/1999/xlink" version="1.1">
<metadata>
Created by FontForge 20170731 at Fri Oct 23 17:21:27 2020
 By Aleksey,,,
Copyright (c) 2015 ParaType, Inc., ParaType Ltd. All rights reserved.
</metadata>
<defs>
<font id="CirceRounded-ExtraLight" horiz-adv-x="1200" >
  <font-face 
    font-family="Circe Rounded Extra Light"
    font-weight="300"
    font-stretch="normal"
    units-per-em="2048"
    panose-1="2 15 3 2 2 2 3 2 2 3"
    ascent="1583"
    descent="-465"
    x-height="922"
    cap-height="1434"
    bbox="-1017.79 -655 3022.2 1843"
    underline-thickness="102"
    underline-position="-307"
    unicode-range="U+0020-FB02"
  />
<missing-glyph horiz-adv-x="497" 
 />
    <glyph glyph-name="uniF350.var.accented" unicode="&#xf350;`" horiz-adv-x="1146" 
d="M858 387h-573l-174 -375q-8 -16 -27 -16t-25 16t2 29l484 1022q10 20 28 20q19 0 29 -20l481 -1018q9 -20 1.5 -34.5t-25.5 -14.5q-19 0 -27 16zM571 1001l-262 -559h522zM721 1518q6 8 19 8.5t22 -8.5q16 -16 -4 -41l-205 -242q-5 -7 -15.5 -8t-19.5 6q-6 4 -6.5 14.5
t4.5 16.5z" />
    <glyph glyph-name="uniF355.var.accented" unicode="&#xf355;`" horiz-adv-x="970" 
d="M817 57q11 0 19 -8t8 -20t-8 -20.5t-19 -8.5h-594q-13 0 -23 10t-10 23v1009q0 14 10 23.5t23 9.5h578q11 0 18.5 -8t7.5 -20t-7.5 -20.5t-18.5 -8.5h-551v-443h502q11 0 18.5 -8t7.5 -20t-7.5 -20.5t-18.5 -8.5h-502v-461h567zM670 1518q6 8 19 8.5t22 -8.5
q16 -16 -4 -41l-205 -242q-5 -7 -15.5 -8t-19.5 6q-6 4 -6.5 14.5t4.5 16.5z" />
    <glyph glyph-name="uniF358.var.accented" unicode="&#xf358;`" horiz-adv-x="1320" 
d="M1102 -4q-13 0 -22 8.5t-9 20.5v956l-815 -971q-10 -14 -35 -14q-14 0 -22.5 9.5t-8.5 21.5v1022q0 11 9 18.5t22 7.5q12 0 20.5 -7.5t8.5 -18.5v-955l801 955q23 26 47 26q15 0 23.5 -9.5t8.5 -23.5v-1017q0 -12 -8 -20.5t-20 -8.5zM786 1518q6 8 19 8.5t22 -8.5
q16 -16 -4 -41l-205 -242q-5 -7 -15 -8t-19 6q-6 4 -6.5 14.5t4.5 16.5z" />
    <glyph glyph-name="uniF35E.var.accented" unicode="&#xf35e;`" horiz-adv-x="1325" 
d="M662 1087q160 0 290.5 -71t204.5 -196.5t74 -280.5q0 -236 -163 -394.5t-406 -158.5q-242 0 -405 157.5t-163 395.5q0 153 74 279t204 197.5t290 71.5zM662 43q219 0 362 141.5t143 354.5q0 139 -66 252t-181.5 176t-257.5 63q-215 0 -359.5 -140t-144.5 -351
q0 -212 145 -354t359 -142zM817 1518q6 8 19 8.5t22 -8.5q16 -16 -4 -41l-205 -242q-5 -7 -15.5 -8t-19.5 6q-6 4 -6.5 14.5t4.5 16.5z" />
    <glyph glyph-name="uniF363.var.accented" unicode="&#xf363;`" horiz-adv-x="1058" 
d="M113 1063l485 -750l360 750q8 12 21 12q18 0 28 -12.5t1 -30.5l-385 -790q-62 -127 -120 -184.5t-134 -57.5q-49 0 -97 20q-9 5 -12.5 15.5t0.5 21.5q14 25 35 15q43 -17 74 -17q56 0 96.5 41t77.5 113l24 45l-506 774q-9 15 0 31t29 16q14 0 23 -12zM684 1518
q6 8 19 8.5t22 -8.5q16 -16 -4 -41l-205 -242q-5 -7 -15.5 -8t-19.5 6q-6 4 -6.5 14.5t4.5 16.5z" />
    <glyph glyph-name="uniF36B.var.accented" unicode="&#xf36b;`" horiz-adv-x="1355" 
d="M1165 1047v-1022q0 -12 -8.5 -20.5t-21.5 -8.5t-22 8.5t-9 20.5v1022q0 12 9 20t22 8t21.5 -8t8.5 -20zM250 57q25 0 83.5 -2t96.5 -2q184 0 280.5 71.5t96.5 209.5q0 121 -94 187.5t-275 66.5q-74 0 -188 -6v-525zM190 33v1016q0 11 9 18.5t22 7.5q12 0 20.5 -7.5
t8.5 -18.5v-410q76 6 188 6q215 0 323.5 -81.5t108.5 -231.5q0 -163 -119 -249.5t-327 -86.5q-83 0 -201 4q-13 0 -23 10t-10 23zM766 1518q6 8 19 8.5t22 -8.5q16 -16 -4 -41l-205 -242q-5 -7 -15.5 -8t-19.5 6q-6 4 -6.5 14.5t4.5 16.5z" />
    <glyph glyph-name="uniF36D.var.accented" unicode="&#xf36d;`" horiz-adv-x="1128" 
d="M125 133q151 -88 336 -88q225 0 364.5 133.5t147.5 341.5h-613q-11 0 -18.5 8.5t-7.5 20.5t7.5 20.5t18.5 8.5h611q-10 210 -149.5 331t-368.5 121q-190 0 -310 -78q-7 -5 -17.5 -1.5t-16.5 12.5q-10 20 8 34q65 45 154.5 69t183.5 24q263 0 421 -149t158 -400
q0 -157 -70.5 -283t-203 -199t-303.5 -73q-199 0 -361 98q-9 6 -11.5 18t3.5 23q6 10 17 12t20 -4zM643 1518q6 8 19 8.5t22 -8.5q16 -16 -4 -41l-205 -242q-5 -7 -15.5 -8t-19.5 6q-6 4 -6.5 14.5t4.5 16.5z" />
    <glyph glyph-name="uniF36E.var.accented" unicode="&#xf36e;`" horiz-adv-x="1765" 
d="M250 520v-495q0 -12 -8.5 -20.5t-20.5 -8.5q-13 0 -22 8.5t-9 20.5v1024q0 11 9 18.5t22 7.5q12 0 20.5 -7.5t8.5 -18.5v-471h321q14 221 165.5 366.5t381.5 145.5q243 0 398 -156t155 -395q0 -156 -69.5 -282t-196.5 -198.5t-287 -72.5q-233 0 -387 150.5t-160 383.5
h-321zM1120 45q215 0 351.5 140t136.5 354q0 213 -137 352t-351 139q-213 0 -349 -139t-136 -352q0 -214 136.5 -354t348.5 -140zM870 1518q6 8 19 8.5t22 -8.5q16 -16 -4 -41l-205 -242q-5 -7 -15 -8t-19 6q-6 4 -6.5 14.5t4.5 16.5z" />
    <glyph glyph-name="uniF36F.var.accented" unicode="&#xf36f;`" horiz-adv-x="1017" 
d="M827 1042v-1017q0 -12 -8 -20.5t-20 -8.5q-13 0 -22 8.5t-9 20.5v405h-291l-338 -420q-11 -14 -26 -14q-21 0 -26.5 18t7.5 31l318 393q-107 28 -183.5 110.5t-76.5 192.5q0 150 107 244t310 94q94 0 226 -4q13 0 22.5 -9.5t9.5 -23.5zM768 1018q-23 0 -93 2t-112 2
q-172 0 -260 -79t-88 -200q0 -96 76 -169t176 -87h301v531zM705 1518q6 8 18.5 8.5t21.5 -8.5q16 -16 -4 -41l-204 -242q-5 -7 -15.5 -8t-19.5 6q-6 4 -6.5 14.5t4.5 16.5z" />
    <glyph glyph-name="uniF371.var.accented" unicode="&#xf371;`" horiz-adv-x="970" 
d="M817 57q11 0 19 -8t8 -20t-8 -20.5t-19 -8.5h-594q-13 0 -23 10t-10 23v1009q0 14 10 23.5t23 9.5h578q11 0 18.5 -8t7.5 -20t-7.5 -20.5t-18.5 -8.5h-551v-443h502q11 0 18.5 -8t7.5 -20t-7.5 -20.5t-18.5 -8.5h-502v-461h567zM281 1366q0 17 13 29t32 12q16 0 28.5 -12
t12.5 -29q0 -19 -12.5 -32t-28.5 -13q-19 0 -32 12.5t-13 32.5zM639 1366q0 17 13 29t32 12q16 0 28.5 -12t12.5 -29q0 -19 -12.5 -32t-28.5 -13q-19 0 -32 12.5t-13 32.5zM582 1518q6 8 19 8.5t22 -8.5q7 -8 5 -19.5t-10 -21.5l-204 -242q-5 -7 -15.5 -8t-19.5 6
q-6 4 -6.5 14.5t4.5 16.5z" />
    <glyph glyph-name="afii10017.var.accented" unicode="&#x410;`" horiz-adv-x="1413" 
d="M1063 532h-717l-225 -522q-7 -18 -31 -18q-14 0 -22 13t-2 26l610 1399q7 18 31 18q23 0 30 -18l611 -1399q6 -14 -3 -26.5t-26 -12.5q-22 0 -29 18zM705 1358l-334 -768h667zM956 1733q7 5 17 2.5t16 -11.5q6 -13 2.5 -23t-12.5 -15l-305 -162q-6 -3 -15 0t-12 10
q-4 8 -1 16t9 11z" />
    <glyph glyph-name="afii10022.var.accented" unicode="&#x415;`" horiz-adv-x="1177" 
d="M1010 57q11 0 18.5 -8t7.5 -20t-7.5 -20.5t-18.5 -8.5h-736q-15 0 -25.5 11t-10.5 26v1360q0 15 10.5 26t25.5 11h715q11 0 19 -8.5t8 -20.5t-8 -20.5t-19 -8.5h-690v-618h629q11 0 18.5 -8.5t7.5 -20.5t-7.5 -20.5t-18.5 -8.5h-629v-643h711zM823 1733q7 5 17 2.5
t16 -11.5q6 -13 2.5 -23t-12.5 -15l-305 -162q-6 -3 -15 0t-12 10q-4 8 -1 16t9 11z" />
    <glyph glyph-name="afii10026.var.accented" unicode="&#x418;`" horiz-adv-x="1636" 
d="M1368 -8q-13 0 -22 8t-9 20v1315l-1032 -1327q-13 -16 -35 -16q-32 0 -32 31v1386q0 12 8.5 20.5t21.5 8.5t22 -8.5t9 -20.5v-1321l1032 1329q17 21 37 21q13 0 22 -8.5t9 -20.5v-1389q0 -12 -9 -20t-22 -8zM1008 1733q19 11 32 -9q6 -13 2.5 -23t-12.5 -15l-305 -162
q-6 -3 -15 0t-12 10q-4 8 -1 16t10 11z" />
    <glyph glyph-name="afii10032.var.accented" unicode="&#x41e;`" horiz-adv-x="1652" 
d="M825 1452q148 0 279.5 -56t226 -153t149 -233.5t54.5 -292.5q0 -206 -93 -374.5t-255.5 -264.5t-360.5 -96q-197 0 -359 95t-255.5 264t-93.5 376q0 205 92.5 373.5t255 265t360.5 96.5zM825 41q183 0 330.5 88t231 243t83.5 345q0 143 -49.5 268.5t-135 215t-205 141
t-255.5 51.5q-135 0 -254.5 -51.5t-205 -141t-135.5 -215t-50 -268.5q0 -142 50 -267.5t135.5 -215t205 -141.5t254.5 -52zM1028 1733q7 5 17 2.5t16 -11.5q6 -13 2.5 -23t-12.5 -15l-306 -162q-6 -3 -14.5 0t-11.5 10q-4 8 -1 16t9 11z" />
    <glyph glyph-name="afii10037.var.accented" unicode="&#x423;`" horiz-adv-x="1310" 
d="M117 1417l624 -1030l461 1028q9 23 29 23q15 0 23 -11.5t1 -29.5l-487 -1078q-77 -171 -147 -248t-162 -77q-70 0 -127 31q-23 15 -10 38q14 24 36 11q48 -25 99 -25q70 0 124.5 59t100.5 158l31 62l-650 1067q-8 14 0 28.5t25 14.5q16 0 29 -21zM909 1733q7 5 17 2.5
t16 -11.5q6 -13 2.5 -23t-12.5 -15l-305 -162q-6 -3 -15 0t-12 10q-4 8 -1 16t9 11z" />
    <glyph glyph-name="afii10045.var.accented" unicode="&#x42b;`" horiz-adv-x="1669" 
d="M1432 1411v-1391q0 -12 -8.5 -20t-20.5 -8q-13 0 -22 8t-9 20v1391q0 11 9 19t22 8q12 0 20.5 -8t8.5 -19zM299 57q31 0 105 -2t124 -2q234 0 358 98.5t124 288.5q0 168 -120.5 260.5t-352.5 92.5q-113 0 -238 -13v-723zM238 37v1372q0 12 8.5 20.5t21.5 8.5t22 -8.5
t9 -20.5v-569q120 10 238 10q267 0 400.5 -108t133.5 -304q0 -217 -145.5 -329.5t-403.5 -112.5q-100 0 -248 4q-15 0 -25.5 11t-10.5 26zM1014 1733q7 5 17 2.5t16 -11.5q6 -13 2 -23t-13 -15l-305 -162q-6 -3 -14.5 0t-11.5 10q-4 8 -1 16t9 11z" />
    <glyph glyph-name="afii10047.var.accented" unicode="&#x42d;`" horiz-adv-x="1398" 
d="M147 166q186 -125 418 -125q190 0 338.5 87t229.5 237t86 337h-777q-11 0 -18.5 8.5t-7.5 20.5t7.5 20.5t18.5 8.5h777q-12 292 -191.5 462.5t-474.5 170.5q-229 0 -381 -109q-7 -7 -18 -5.5t-17 11.5q-12 21 8 37q79 61 190 93t228 32q327 0 522 -197.5t195 -531.5
q0 -156 -51 -292t-142.5 -235.5t-225.5 -156.5t-292 -57q-257 0 -452 133q-9 6 -12 18t4 23q16 25 38 10zM813 1733q7 5 17 2.5t16 -11.5q6 -13 2.5 -23t-12.5 -15l-306 -162q-6 -3 -14.5 0t-11.5 10q-4 8 -1 16t9 11z" />
    <glyph glyph-name="afii10048.var.accented" unicode="&#x42e;`" horiz-adv-x="2199" 
d="M299 702v-682q0 -12 -9 -20t-22 -8t-21.5 8t-8.5 20v1389q0 12 8.5 20.5t21.5 8.5t22 -8.5t9 -20.5v-649h410q10 195 99 352.5t242.5 248.5t342.5 91q197 0 355 -95.5t245.5 -263t87.5 -376.5q0 -155 -51.5 -291t-141.5 -233.5t-218.5 -154t-276.5 -56.5
q-144 0 -270.5 54.5t-216.5 149.5t-142.5 228.5t-54.5 287.5h-410zM1395 41q182 0 324.5 88.5t220 242.5t77.5 345q0 192 -78.5 346t-221 242t-322.5 88q-178 0 -321.5 -88t-223.5 -242.5t-80 -345.5q0 -190 80 -344.5t223.5 -243t321.5 -88.5zM1335 1733q7 5 17 2.5
t16 -11.5q6 -13 2.5 -23t-12.5 -15l-305 -162q-6 -3 -15 0t-12 10q-4 8 -1 16t9 11z" />
    <glyph glyph-name="afii10049.var.accented" unicode="&#x42f;`" horiz-adv-x="1245" 
d="M1008 1397v-1377q0 -12 -8.5 -20t-20.5 -8q-13 0 -22 8t-9 20v566h-362l-432 -578q-13 -16 -33 -16q-17 0 -23.5 17t4.5 30l422 555q-137 33 -236.5 142.5t-99.5 258.5q0 196 134.5 319.5t384.5 123.5q108 0 264 -4q15 0 26 -11t11 -26zM948 1376q-31 0 -117 2t-135 2
q-112 0 -198.5 -30.5t-139 -84t-79.5 -122t-27 -148.5q0 -132 97 -232t224 -120h375v733zM958 1733q7 5 17 2.5t16 -11.5q6 -13 2.5 -23t-12.5 -15l-305 -162q-6 -3 -15 0t-12 10q-4 8 -1 16t9 11z" />
    <glyph glyph-name="afii10023.var.accented" unicode="&#x401;`" horiz-adv-x="1177" 
d="M379 1673q15 0 27 -12.5t12 -30.5q0 -20 -11.5 -32.5t-27.5 -12.5q-19 0 -31 12.5t-12 32.5q0 19 12 31t31 12zM883 1673q15 0 27 -12.5t12 -30.5q0 -20 -11.5 -32.5t-27.5 -12.5q-18 0 -30.5 12.5t-12.5 32.5q0 18 12.5 30.5t30.5 12.5zM1010 57q11 0 18.5 -8t7.5 -20
t-7.5 -20.5t-18.5 -8.5h-736q-15 0 -25.5 11t-10.5 26v1360q0 15 10.5 26t25.5 11h715q11 0 19 -8.5t8 -20.5t-8 -20.5t-19 -8.5h-690v-618h629q11 0 18.5 -8.5t7.5 -20.5t-7.5 -20.5t-18.5 -8.5h-629v-643h711zM774 1733q7 5 17 2.5t16 -11.5q6 -13 2.5 -23t-12.5 -15
l-305 -162q-6 -3 -15 0t-12 10q-4 8 -1 16t9 11z" />
    <glyph glyph-name="afii10065.var.accented" unicode="&#x430;`" horiz-adv-x="935" 
d="M446 535q172 0 279 -76q0 57 -1 92.5t-5 81.5t-12 74t-21.5 60.5t-34 51t-49.5 35.5t-68.5 24t-89.5 7q-68 0 -121 -15.5t-116 -50.5q-7 -5 -18 -0.5t-15 15.5q-8 21 14 34q126 72 263 72q179 0 255 -92t76 -273v-552q0 -11 -8 -19t-20 -8t-20.5 8t-8.5 19v137
q-123 -170 -342 -170q-129 0 -208 72t-79 192q0 134 97.5 207.5t252.5 73.5zM725 403q-116 82 -274 82q-76 0 -140 -22.5t-108.5 -75.5t-44.5 -129q0 -99 67 -156t170 -57q65 0 119.5 15t94 43.5t64.5 54t52 61.5v184zM627 1434q6 8 17 8.5t20 -6.5q9 -6 9.5 -17t-5.5 -20
l-201 -252q-6 -8 -15.5 -9t-17.5 5q-6 5 -7 13.5t3 14.5z" />
    <glyph glyph-name="afii10070.var.accented" unicode="&#x435;`" horiz-adv-x="1079" 
d="M942 463h-772q1 -196 116 -311t306 -115q85 0 161.5 29.5t131.5 78.5q16 12 30 -2q8 -10 5.5 -20t-9.5 -17q-58 -60 -144 -92t-177 -32q-214 0 -349 131.5t-135 347.5q0 137 50 243.5t155 171t252 64.5q180 0 296 -114t116 -300q0 -24 -2 -34q0 -11 -9.5 -20t-21.5 -9z
M555 885q-173 0 -275 -103.5t-114 -269.5h749q1 171 -97 272t-263 101zM696 1434q6 8 17 8.5t20 -6.5q9 -6 9.5 -17t-5.5 -20l-200 -252q-6 -8 -15.5 -9t-17.5 5q-6 5 -7 13.5t3 14.5z" />
    <glyph glyph-name="afii10074.var.accented" unicode="&#x438;`" horiz-adv-x="1148" 
d="M946 -4q-12 0 -20 8t-8 19v815l-672 -822q-16 -20 -39 -20q-14 0 -23.5 10t-9.5 23v870q0 11 9 19t22 8q12 0 20 -8t8 -19v-815l672 821q17 21 37 21q14 0 23.5 -10t9.5 -21v-872q0 -11 -8.5 -19t-20.5 -8zM709 1434q6 8 16.5 8.5t19.5 -6.5q9 -6 10 -17t-5 -20
l-201 -252q-6 -8 -15.5 -9t-17.5 5q-6 5 -7 13.5t3 14.5z" />
    <glyph glyph-name="afii10080.var.accented" unicode="&#x43e;`" horiz-adv-x="1165" 
d="M582 940q210 0 343.5 -135.5t133.5 -343.5t-133.5 -343.5t-343.5 -135.5q-208 0 -342 135.5t-134 343.5t134 343.5t342 135.5zM582 37q183 0 299 119t116 305t-116 305t-299 119q-182 0 -299 -119t-117 -305t116.5 -305t299.5 -119zM719 1434q6 8 17 8.5t20 -6.5
q9 -6 9.5 -17t-5.5 -20l-201 -252q-6 -8 -15.5 -9t-17.5 5q-6 5 -7 13.5t3 14.5z" />
    <glyph glyph-name="afii10085.var.accented" unicode="&#x443;`" horiz-adv-x="966" 
d="M528 66q8 23 18 48.5t22.5 56.5t19.5 48l270 684q10 23 31 23q16 0 24.5 -13.5t1.5 -31.5l-360 -881q-67 -163 -123 -253t-105.5 -123.5t-113.5 -33.5q-57 0 -123 29q-9 4 -12 15t2 20q10 19 31 12q52 -22 94 -22q79 0 143 71.5t131 235.5l21 49l-445 881q-9 18 0 31.5
t27 13.5q19 0 29 -23l346 -688q26 -48 71 -149zM666 1434q6 8 16.5 8.5t19.5 -6.5q9 -6 10 -17t-5 -20l-201 -252q-6 -8 -15.5 -9t-17.5 5q-6 5 -7.5 13.5t3.5 14.5z" />
    <glyph glyph-name="afii10093.var.accented" unicode="&#x44b;`" horiz-adv-x="1234" 
d="M399 584q103 0 176 -22t113 -62.5t58 -91t18 -115.5q0 -134 -87.5 -213.5t-287.5 -79.5h-178q-15 0 -26 11t-11 26v862q0 11 9 19t22 8q12 0 20 -8t8 -19v-315h166zM233 55h156q170 0 243 61t73 177q0 115 -74.5 175t-239.5 60h-158v-473zM1061 899v-876q0 -11 -8.5 -19
t-20.5 -8t-20 8t-8 19v876q0 11 8 19t20 8t20.5 -8t8.5 -19zM737 1434q6 8 17 8.5t20 -6.5q9 -6 9.5 -17t-5.5 -20l-200 -252q-6 -8 -15.5 -9t-17.5 5q-6 5 -7.5 13.5t3.5 14.5z" />
    <glyph glyph-name="afii10095.var.accented" unicode="&#x44d;`" horiz-adv-x="1005" 
d="M141 123q116 -86 301 -86q164 0 279 115t121 292h-490q-11 0 -17.5 7.5t-6.5 19.5q0 11 7 18t17 7h488q-10 180 -127 284.5t-295 104.5q-87 0 -164 -30.5t-131 -82.5q-6 -6 -16.5 -4.5t-16.5 10.5q-12 17 4 33q58 62 145.5 95.5t178.5 33.5q213 0 347 -131.5t134 -347.5
q0 -201 -130 -340t-320 -139q-221 0 -336 96q-20 16 -7 39q6 9 17 10.5t18 -4.5zM590 1434q6 8 17 8.5t20 -6.5q9 -6 9.5 -17t-5.5 -20l-201 -252q-6 -8 -15.5 -9t-17.5 5q-6 5 -7.5 13.5t3.5 14.5z" />
    <glyph glyph-name="afii10096.var.accented" unicode="&#x44e;`" horiz-adv-x="1519" 
d="M236 442v-417q0 -12 -9 -20.5t-22 -8.5t-22 8.5t-9 20.5v872q0 12 9 20.5t22 8.5t22 -8.5t9 -20.5v-397h262q12 194 138 317t318 123q202 0 330.5 -135.5t128.5 -343.5t-129.5 -343.5t-329.5 -135.5q-197 0 -323.5 129t-132.5 331h-262zM954 41q175 0 285.5 117
t110.5 303q0 185 -110 302.5t-286 117.5q-173 0 -283 -117.5t-110 -302.5q0 -186 110 -303t283 -117zM899 1434q6 8 17 8.5t20 -6.5q9 -6 9.5 -17t-5.5 -20l-201 -252q-14 -18 -32 -4q-6 5 -7.5 13.5t2.5 14.5z" />
    <glyph glyph-name="afii10097.var.accented" unicode="&#x44f;`" horiz-adv-x="968" 
d="M125 39l281 348q-97 11 -168.5 81t-71.5 175q0 125 86.5 202t279.5 77h226q15 0 26 -11t11 -26v-862q0 -11 -8.5 -19t-20.5 -8t-20.5 8t-8.5 19v352h-272l-289 -363q-13 -16 -35 -16q-15 0 -21 15.5t5 27.5zM737 430v436h-215q-152 0 -224.5 -61.5t-72.5 -161.5
q0 -63 38 -114t88 -75t98 -24h288zM723 1434q6 8 17 8.5t20 -6.5q9 -6 9.5 -17t-5.5 -20l-201 -252q-6 -8 -15.5 -9t-17.5 5q-6 5 -7 13.5t3 14.5z" />
    <glyph glyph-name="afii10071.var.accented" unicode="&#x451;`" horiz-adv-x="1079" 
d="M313 1317q14 0 26.5 -12t12.5 -27q0 -18 -12.5 -30.5t-26.5 -12.5q-17 0 -29 12t-12 31q0 15 12 27t29 12zM778 1317q15 0 27 -12t12 -27q0 -18 -12 -30.5t-27 -12.5q-17 0 -29 12t-12 31q0 15 12 27t29 12zM442 1165l203 267q5 8 14 9t17 -5q18 -18 4 -33l-205 -258
q-10 -14 -26 -4q-17 10 -7 24zM942 463h-772q1 -196 116 -311t306 -115q84 0 160 30t131 80q20 16 35 -2q15 -17 -7 -39q-58 -60 -144 -92t-177 -32q-214 0 -349 131.5t-135 347.5q0 137 50 243.5t155 171t252 64.5q180 0 296 -114t116 -300q0 -24 -2 -34q0 -11 -9.5 -20
t-21.5 -9zM555 885q-173 0 -275 -103.5t-114 -269.5h749q1 171 -97 272t-263 101z" />
    <glyph glyph-name="fi" unicode="fi" horiz-adv-x="1003" 
d="M805 885v-862q0 -11 -8.5 -19t-20.5 -8t-20 8t-8 19v843h-480v-843q0 -11 -8 -19t-20 -8t-20.5 8t-8.5 19v1042q0 192 90 289.5t254 97.5q147 0 236 -78q8 -6 8.5 -18t-8.5 -21q-16 -16 -41 0q-83 62 -189 62q-293 0 -293 -350v-125h500q15 0 26 -11t11 -26z" />
    <glyph glyph-name="fl" unicode="fl" horiz-adv-x="1124" 
d="M1096 68q3 -7 -1 -17.5t-12 -15.5q-67 -43 -157 -43q-102 0 -147.5 58t-45.5 181v1100q-92 66 -198 66q-134 0 -200.5 -83t-66.5 -261v-131h250q9 0 17 -8.5t8 -18.5q0 -12 -8 -20.5t-17 -8.5h-250v-843q0 -11 -8 -19t-20 -8t-20.5 8t-8.5 19v1048q0 381 313 381
q131 0 232 -72q35 -21 35 -49v-1057q0 -119 34 -173t117 -54q55 0 119 33q11 6 20.5 2.5t14.5 -14.5z" />
    <glyph glyph-name=".notdef" horiz-adv-x="497" 
 />
    <glyph glyph-name=".null" horiz-adv-x="0" 
 />
    <glyph glyph-name="nonmarkingreturn" horiz-adv-x="682" 
 />
    <glyph glyph-name="space" unicode=" " horiz-adv-x="497" 
 />
    <glyph glyph-name="exclam" unicode="!" horiz-adv-x="634" 
d="M348 1409v-1024q0 -12 -9 -20.5t-22 -8.5t-21.5 8.5t-8.5 20.5v1024q0 12 8.5 20.5t21.5 8.5t22 -8.5t9 -20.5zM319 88q19 0 33.5 -14t14.5 -31q0 -20 -14.5 -35.5t-33.5 -15.5q-21 0 -36 15t-15 36q0 18 15 31.5t36 13.5z" />
    <glyph glyph-name="quotedbl" unicode="&#x22;" horiz-adv-x="796" 
d="M569 1061q0 -11 -8.5 -19t-21.5 -8q-11 0 -19 8t-8 19v346q0 11 9 19t22 8q10 0 18 -8t8 -19v-346zM285 1061q0 -11 -9 -19t-22 -8q-10 0 -18.5 8t-8.5 19v346q0 11 9 19t22 8q10 0 18.5 -8t8.5 -19v-346z" />
    <glyph glyph-name="numbersign" unicode="#" horiz-adv-x="1380" 
d="M881 444l-162 -440q-7 -21 -33 -14q-10 4 -14.5 14t-1.5 19l155 421h-475l-162 -440q-7 -21 -32 -14q-10 4 -15 14t-2 19l158 421h-191q-9 0 -16.5 8.5t-7.5 18.5t7.5 18.5t16.5 8.5h209l164 438h-373q-9 0 -16.5 8.5t-7.5 18.5t7.5 18t16.5 8h392l166 443q8 19 30 12
q9 -4 13.5 -13.5t1.5 -17.5l-156 -424h475l164 443q8 19 33 12q9 -3 13 -12t1 -17l-158 -426h195q9 0 16.5 -8t7.5 -18t-7.5 -18.5t-16.5 -8.5h-213l-162 -438h375q9 0 16.5 -8.5t7.5 -18.5t-7.5 -18.5t-16.5 -8.5h-395zM371 498h475l162 438h-476z" />
    <glyph glyph-name="dollar" unicode="$" 
d="M178 205q20 21 41 0q66 -76 169 -120t202 -44q103 0 189 33t142 104.5t56 169.5q0 72 -26.5 128.5t-71.5 93.5t-103 67t-122.5 54t-129 48.5t-122.5 56t-103 71.5t-71.5 101t-26.5 138q0 145 102.5 242t282.5 104v139q0 11 8 19t20 8t20.5 -8t8.5 -19v-141
q98 -4 184.5 -37.5t143.5 -87.5q8 -7 10 -18.5t-6 -22.5q-21 -20 -39 -2q-123 111 -326 111q-160 0 -254 -78.5t-94 -208.5q0 -71 26.5 -125.5t71.5 -90.5t103 -64.5t122.5 -51.5t129 -46.5t122.5 -56t103 -73.5t71.5 -104t26.5 -144q0 -155 -111 -254.5t-284 -111.5v-162
q0 -11 -8.5 -19t-20.5 -8t-20 8t-8 19v160q-119 3 -234.5 52t-173.5 128q-17 26 0 43z" />
    <glyph glyph-name="percent" unicode="%" horiz-adv-x="1693" 
d="M344 -2q-5 -7 -15 -8.5t-20 6.5q-14 14 -2 31l1055 1409q5 6 14 7t17 -5q6 -4 7.5 -13.5t-3.5 -15.5zM115 1118q0 139 94.5 229.5t236.5 90.5t237 -90.5t95 -229.5q0 -140 -95 -230.5t-237 -90.5t-236.5 90.5t-94.5 230.5zM170 1118q0 -119 83 -195.5t193 -76.5
q114 0 195.5 76t81.5 196q0 118 -82.5 194.5t-194.5 76.5t-194 -76.5t-82 -194.5zM913 319q0 139 95 229.5t237 90.5t237 -90.5t95 -229.5q0 -140 -95 -230.5t-237 -90.5t-237 90.5t-95 230.5zM969 319q0 -119 83 -195.5t193 -76.5q114 0 195.5 76t81.5 196
q0 118 -82.5 194.5t-194.5 76.5t-194 -76.5t-82 -194.5z" />
    <glyph glyph-name="ampersand" unicode="&#x26;" horiz-adv-x="1497" 
d="M1286 895q-3 -166 -47 -324.5t-123 -283.5l197 -248q12 -15 4.5 -31t-25.5 -16q-15 0 -28 16l-187 236q-82 -122 -200.5 -192t-268.5 -70q-186 0 -310 115t-124 292q0 69 23.5 136t58.5 119.5t87 104.5t98.5 88t103.5 74q-98 15 -162 89.5t-64 177.5q0 116 82 195t199 79
q115 0 197 -79t82 -195q0 -108 -73.5 -186t-178.5 -83l452 -573q71 121 110.5 266t39.5 293q0 11 8 19t20 8t20.5 -8t8.5 -19zM1040 291l-460 586q-71 -50 -125 -97t-107 -107.5t-81.5 -130.5t-28.5 -143q0 -106 52.5 -189t136.5 -126t181 -43q272 0 432 250zM600 952
q92 0 157.5 66.5t65.5 159.5q0 92 -65.5 157.5t-157.5 65.5q-94 0 -159.5 -65.5t-65.5 -157.5q0 -93 66 -159.5t159 -66.5z" />
    <glyph glyph-name="quotesingle" unicode="'" horiz-adv-x="512" 
d="M285 1061q0 -11 -9 -19t-22 -8q-10 0 -18.5 8t-8.5 19v346q0 11 9 19t22 8q10 0 18.5 -8t8.5 -19v-346z" />
    <glyph glyph-name="parenleft" unicode="(" horiz-adv-x="534" 
d="M139 461q0 -232 92.5 -447t284.5 -387q8 -6 8.5 -17.5t-8.5 -19.5q-8 -6 -19.5 -5t-19.5 9q-395 351 -395 867q0 237 92.5 453t306.5 415q7 7 18.5 7t18.5 -9q6 -6 6 -16.5t-6 -16.5q-203 -191 -291 -395.5t-88 -437.5z" />
    <glyph glyph-name="parenright" unicode=")" horiz-adv-x="534" 
d="M453 461q0 -515 -396 -867q-8 -8 -20 -8.5t-21 8.5q-17 17 2 33q192 172 284.5 387t92.5 447q0 233 -88 437.5t-291 395.5q-6 6 -6 17t8 20q8 7 18 6t17 -8q214 -199 307 -415t93 -453z" />
    <glyph glyph-name="asterisk" unicode="*" horiz-adv-x="919" 
d="M416 1401q0 21 14 35t35 14q19 0 34 -14t15 -35q0 -19 -15 -33t-34 -14q-20 0 -34.5 14t-14.5 33zM414 913q0 20 14.5 35t34.5 15q19 0 34 -15t15 -35q0 -19 -15 -33t-34 -14q-20 0 -34.5 14t-14.5 33zM631 1268q0 20 14 34.5t33 14.5q21 0 35 -14t14 -35
q0 -20 -13.5 -33.5t-35.5 -13.5q-19 0 -33 13.5t-14 33.5zM631 1049q0 19 14 33t33 14q21 0 35 -14t14 -33q0 -22 -13.5 -36t-35.5 -14q-19 0 -33 14.5t-14 35.5zM193 1049q0 19 14 33t35 14q19 0 33 -14t14 -33q0 -21 -14 -35.5t-33 -14.5q-22 0 -35.5 14t-13.5 36z
M193 1268q0 21 14 35t35 14q19 0 33 -14.5t14 -34.5t-14 -33.5t-33 -13.5q-22 0 -35.5 13.5t-13.5 33.5z" />
    <glyph glyph-name="plus" unicode="+" 
d="M571 711h-397q-9 0 -16.5 8t-7.5 20q0 9 7.5 17t16.5 8h397v397q0 9 8.5 17t20.5 8q9 0 17 -8t8 -17v-397h401q9 0 17 -8.5t8 -20.5q0 -9 -8 -16.5t-17 -7.5h-401v-402q0 -9 -8.5 -16.5t-20.5 -7.5q-9 0 -17 7.5t-8 16.5v402z" />
    <glyph glyph-name="comma" unicode="," horiz-adv-x="370" 
d="M172 0q-15 0 -27 13t-12 30q0 20 15 33.5t40 13.5q40 0 70.5 -41.5t30.5 -111.5q0 -87 -47 -149t-117 -85q-16 -4 -23 8q-7 15 9 23q48 19 85.5 66t41.5 110q3 88 -37 110q-3 -20 -29 -20z" />
    <glyph glyph-name="hyphen" unicode="-" horiz-adv-x="833" 
d="M618 526h-401q-11 0 -19 9t-8 22q0 9 8.5 17t18.5 8h401q9 0 17 -8.5t8 -20.5q0 -10 -8 -18.5t-17 -8.5z" />
    <glyph glyph-name="period" unicode="." horiz-adv-x="331" 
d="M168 -2q-21 0 -36 15t-15 36q0 18 15 31.5t36 13.5q19 0 33 -14t14 -31q0 -20 -14 -35.5t-33 -15.5z" />
    <glyph glyph-name="slash" unicode="/" horiz-adv-x="616" 
d="M-4 -403q-3 -10 -13 -14t-22 1q-9 3 -13 12.5t-1 18.5l676 1815q3 9 12 12.5t20 -0.5q9 -3 13.5 -12.5t1.5 -18.5z" />
    <glyph glyph-name="zero" unicode="0" horiz-adv-x="1185" 
d="M592 1450q93 0 167.5 -36t125.5 -100.5t84.5 -157t49 -201.5t15.5 -238t-15 -238t-48 -201.5t-83.5 -157t-124.5 -100.5t-167 -36q-115 0 -202 55t-139.5 155t-78.5 231t-26 292q0 162 25.5 292.5t77 230.5t138 155t201.5 55zM596 39q379 0 379 678q0 154 -21 274.5
t-65 212.5t-119 141.5t-178 49.5q-82 0 -146.5 -33t-108 -91.5t-72.5 -144.5t-41.5 -186.5t-12.5 -222.5q0 -152 22 -273t67 -213.5t120 -142t176 -49.5z" />
    <glyph glyph-name="one" unicode="1" horiz-adv-x="749" 
d="M399 1360l-235 -193q-7 -6 -19 -4t-18 11q-7 9 -6.5 20.5t8.5 17.5l281 228q16 12 28 12q8 0 14.5 -6.5t6.5 -13.5v-1407q0 -12 -8.5 -20.5t-20.5 -8.5q-13 0 -22 8.5t-9 20.5v1335z" />
    <glyph glyph-name="two" unicode="2" horiz-adv-x="1087" 
d="M928 55q9 0 16.5 -8t7.5 -18q0 -12 -7.5 -20.5t-16.5 -8.5h-789q-11 0 -20.5 6.5t-9.5 20.5q0 16 16 32q66 64 115 113.5t126.5 133t134.5 152.5t121 158.5t105 166t68.5 159.5t27.5 154q0 56 -19 108t-56 94.5t-97.5 68.5t-136.5 26q-68 0 -132 -25.5t-119 -87
t-73 -150.5q-2 -9 -11 -14t-21 -2q-11 3 -16 13t-3 20q18 98 79 168.5t137.5 102.5t158.5 32q93 0 167 -31t117 -81.5t65 -109t22 -120.5q0 -82 -33.5 -179.5t-81.5 -183.5t-121 -184.5t-132.5 -168.5t-136 -149t-112 -113.5t-78.5 -74.5h738z" />
    <glyph glyph-name="three" unicode="3" horiz-adv-x="1093" 
d="M883 1092q0 -112 -61.5 -210t-170.5 -141q130 -21 208.5 -123.5t78.5 -230.5q0 -183 -119 -294t-305 -111q-86 0 -159.5 22.5t-137.5 77.5t-102 139q-3 6 -1 15.5t9 13.5q24 18 41 -12q56 -102 152 -149.5t204 -47.5q162 0 260.5 98t98.5 248q0 139 -95.5 228.5
t-232.5 89.5h-105q-11 0 -18.5 8t-7.5 20t7.5 20.5t18.5 8.5h91q109 0 197.5 96.5t88.5 231.5q0 147 -84 225t-225 78q-232 0 -321 -193q-11 -22 -33 -10q-16 11 -8 35q41 107 138.5 167t225.5 60q172 0 269.5 -95.5t97.5 -264.5z" />
    <glyph glyph-name="four" unicode="4" horiz-adv-x="1081" 
d="M782 395v-370q0 -11 -8 -19t-20 -8t-20.5 8t-8.5 19v370h-627q-19 0 -28 17.5t4 42.5l628 966q6 13 25 13q17 0 24.5 -15t-1.5 -28l-613 -936h588v440q0 11 8.5 19t20.5 8t20 -8t8 -19v-440h195q11 0 19 -8.5t8 -20.5q0 -13 -8 -22t-19 -9h-195z" />
    <glyph glyph-name="five" unicode="5" horiz-adv-x="1064" 
d="M514 41q155 0 260 112t105 281q0 162 -115 269.5t-297 107.5q-68 0 -158 -23q-20 -4 -33.5 8t-11.5 31l74 574q1 13 12 23t25 10h540q11 0 19 -8.5t8 -20.5t-8 -20.5t-19 -8.5h-524l-69 -536q82 24 161 24q202 0 328.5 -118t126.5 -310q0 -102 -35 -189t-93.5 -144
t-135 -89t-160.5 -32q-122 0 -228.5 55t-170.5 168q-4 6 -4 17t8 18q24 19 41 -7q58 -95 155 -143.5t199 -48.5z" />
    <glyph glyph-name="six" unicode="6" horiz-adv-x="1120" 
d="M584 874q192 0 306 -122.5t114 -319.5q0 -188 -123.5 -319t-288.5 -131q-116 0 -208 42.5t-149.5 116t-87.5 167.5t-30 200q0 186 60 353.5t157 284.5t214 195.5t238 106.5q21 5 29 -10q6 -12 -0.5 -23t-21.5 -16q-85 -24 -165 -69t-155 -115.5t-134 -158.5t-101 -205
t-56 -249q44 117 149.5 194.5t252.5 77.5zM590 41q145 0 249.5 114t104.5 273q0 169 -98 280t-277 111q-81 0 -151.5 -28.5t-118 -75t-78.5 -99t-43 -106.5q0 -73 16 -141t49 -128t81 -104t116.5 -70t149.5 -26z" />
    <glyph glyph-name="seven" unicode="7" horiz-adv-x="954" 
d="M322 14q-9 -18 -27 -18q-21 0 -28 15t1 34l533 1331h-699q-11 0 -18.5 8.5t-7.5 20.5t7.5 20.5t18.5 8.5h746q12 0 19 -12t1 -25z" />
    <glyph glyph-name="eight" unicode="8" horiz-adv-x="1204" 
d="M934 1077q0 97 -49.5 171t-125 109.5t-161.5 35.5q-85 0 -159 -36t-122.5 -110t-48.5 -170q0 -129 93.5 -220t203.5 -91h74q70 0 137.5 39.5t112.5 112.5t45 159zM217 379q0 -146 113.5 -242t269.5 -96q161 0 274 93t113 245q0 150 -102.5 240t-249.5 90h-60
q-147 0 -252.5 -96t-105.5 -234zM995 1079q0 -108 -70 -204t-188 -136q137 -19 223.5 -120.5t86.5 -243.5q0 -119 -64.5 -210.5t-164.5 -137t-216 -45.5t-216.5 45.5t-165 136t-64.5 207.5q0 129 83.5 231.5t225.5 134.5q-110 30 -183 131t-73 211q0 165 113 269t278 104
t280 -104t115 -269z" />
    <glyph glyph-name="nine" unicode="9" horiz-adv-x="1118" 
d="M537 573q-126 0 -224 60.5t-149 159t-51 217.5q0 93 37.5 176.5t98 141t138 91t156.5 33.5q116 0 205.5 -42t143.5 -116t81.5 -167.5t27.5 -202.5q0 -192 -51.5 -358t-142 -284.5t-213.5 -195.5t-268 -102q-20 -5 -29 12q-6 13 0 24t16 13q262 54 431 262.5t192 531.5
q-43 -113 -147 -183.5t-252 -70.5zM547 1393q-96 0 -182 -49.5t-139.5 -138t-53.5 -191.5q0 -101 41.5 -187t129 -142t206.5 -56q82 0 152 26t117.5 69.5t78.5 94t43 103.5q0 92 -23 174.5t-68.5 150t-123 107t-178.5 39.5z" />
    <glyph glyph-name="colon" unicode=":" horiz-adv-x="663" 
d="M334 842q-21 0 -36 15t-15 36q0 18 15 31.5t36 13.5q19 0 33 -14t14 -31q0 -20 -14 -35.5t-33 -15.5zM334 -2q-21 0 -36 15t-15 36q0 18 15 31.5t36 13.5q19 0 33 -14t14 -31q0 -20 -14 -35.5t-33 -15.5z" />
    <glyph glyph-name="semicolon" unicode=";" horiz-adv-x="667" 
d="M334 842q-21 0 -36 15t-15 36q0 18 15 31.5t36 13.5q19 0 33 -14t14 -31q0 -20 -14 -35.5t-33 -15.5zM319 0q-15 0 -26.5 13t-11.5 30q0 20 15 33.5t40 13.5q40 0 70 -41.5t30 -111.5q0 -87 -47 -149t-117 -85q-15 -4 -22 8q-3 6 -0.5 13t8.5 10q48 19 85.5 66t41.5 110
q3 88 -37 110q-3 -20 -29 -20z" />
    <glyph glyph-name="less" unicode="&#x3c;" 
d="M141 741q0 12 11 19l776 491q17 9 29 1.5t12 -21.5q0 -17 -21 -31l-723 -459l717 -460q27 -17 27 -33q0 -18 -14 -25.5t-31 2.5l-772 498q-11 7 -11 18z" />
    <glyph glyph-name="equal" unicode="=" 
d="M1026 881h-852q-9 0 -16.5 8t-7.5 20q0 9 7.5 17t16.5 8h852q9 0 17 -8.5t8 -20.5q0 -9 -8 -16.5t-17 -7.5zM1026 541h-852q-9 0 -16.5 8t-7.5 20q0 9 7.5 17t16.5 8h852q9 0 17 -8.5t8 -20.5q0 -9 -8 -16.5t-17 -7.5z" />
    <glyph glyph-name="greater" unicode="&#x3e;" 
d="M1049 760q10 -7 10 -19q0 -11 -10 -18l-773 -498q-17 -10 -31 -2.5t-14 25.5q0 16 27 33l717 460l-723 459q-21 14 -21 31q0 14 12 21.5t29 -1.5z" />
    <glyph glyph-name="question" unicode="?" horiz-adv-x="931" 
d="M408 371q-11 -1 -20 5.5t-11 16.5q-6 37 -6 70q0 63 23.5 114.5t61 88t82.5 69.5t90 67.5t82.5 73t61 95t23.5 125.5q0 129 -94 213t-242 84q-94 0 -178 -42.5t-148 -119.5q-6 -7 -16.5 -7t-18.5 7q-7 7 -8 18t4 17q60 85 158.5 135.5t212.5 50.5q92 0 166.5 -28
t122.5 -75.5t74 -110t26 -132.5q0 -77 -23.5 -139.5t-61.5 -104.5t-83.5 -77.5t-91 -68.5t-83.5 -68t-61.5 -84.5t-23.5 -110.5q0 -20 4 -56q3 -22 -22 -26zM401 88q19 0 33.5 -14t14.5 -31q0 -20 -14.5 -35.5t-33.5 -15.5q-21 0 -36 15t-15 36q0 18 15 31.5t36 13.5z" />
    <glyph glyph-name="at" unicode="@" horiz-adv-x="2091" 
d="M1065 1350q185 0 346.5 -59.5t276.5 -164.5t181 -255t66 -324q0 -82 -18 -160.5t-56 -148.5t-92 -123t-131 -84t-168 -31h-53q-15 0 -26 11t-11 26v100q-57 -65 -149 -110t-187 -45q-207 0 -332.5 130.5t-125.5 348.5q0 202 144 340.5t357 138.5q181 0 334 -88
q17 -13 17 -29v-768h43q93 0 170 41t126 109.5t76 156.5t27 183q0 214 -105.5 385.5t-291.5 267.5t-418 96q-182 0 -341.5 -64.5t-271.5 -175.5t-176.5 -265t-64.5 -328q0 -172 64.5 -325.5t176.5 -265.5t271.5 -177.5t341.5 -65.5q100 0 197 19q12 3 22.5 -3.5t11.5 -19.5
q3 -24 -24 -31q-94 -20 -207 -20q-195 0 -365 69.5t-289 188.5t-187 283t-68 348q0 183 68 346.5t187 283t289 189.5t365 70zM1380 805q-130 80 -295 80q-184 0 -312 -123.5t-128 -302.5q0 -194 111.5 -308t296.5 -114q97 0 190.5 52t136.5 114v602z" />
    <glyph glyph-name="A" unicode="A" horiz-adv-x="1413" 
d="M1063 532h-717l-225 -522q-7 -18 -31 -18q-14 0 -22 13t-2 26l610 1399q7 18 31 18q23 0 30 -18l611 -1399q6 -14 -3 -26.5t-26 -12.5q-22 0 -29 18zM705 1358l-334 -768h667z" />
    <glyph glyph-name="B" unicode="B" horiz-adv-x="1263" 
d="M739 743q176 -19 271.5 -108.5t95.5 -241.5q0 -103 -38 -181t-107 -124.5t-159 -69t-200 -22.5q-53 0 -169.5 2t-158.5 2q-15 0 -25.5 11t-10.5 26v1360q0 15 10.5 26t25.5 11q41 0 157.5 2t168.5 2q447 0 447 -353q0 -142 -88.5 -230t-219.5 -112zM299 57q29 0 139.5 -2
t163.5 -2q210 0 326 86.5t116 257.5q0 149 -113.5 230.5t-324.5 81.5h-307v-652zM299 764h319q156 0 261.5 85.5t105.5 227.5q0 151 -94.5 227t-294.5 76q-171 0 -297 -4v-612z" />
    <glyph glyph-name="C" unicode="C" horiz-adv-x="1345" 
d="M811 1393q-186 0 -330.5 -89t-222.5 -242.5t-78 -344.5q0 -304 181 -490t470 -186q225 0 386 123q23 17 38 -2q8 -11 5.5 -22.5t-11.5 -18.5q-75 -65 -189 -102t-233 -37q-156 0 -288 52.5t-225 147.5t-145 232.5t-52 302.5q0 206 85 372.5t244 264.5t363 98
q253 0 414 -119q20 -16 6 -37q-7 -9 -18.5 -10.5t-18.5 4.5q-145 103 -381 103z" />
    <glyph glyph-name="D" unicode="D" horiz-adv-x="1505" 
d="M584 1440q167 0 303 -37.5t228.5 -102t155 -154.5t90.5 -191.5t28 -215.5q0 -156 -52.5 -290t-152.5 -235.5t-258.5 -159.5t-358.5 -58q-51 0 -145 2t-148 2q-15 0 -25.5 11t-10.5 26v1360q0 15 10.5 26t25.5 11q19 0 129 3t181 3zM299 57q37 0 78 -0.5t73.5 -1t59 -1
t42.5 -1t17 -0.5q148 0 272 35t212.5 97.5t150 148.5t91.5 188t30 217q0 134 -43 247.5t-130.5 203.5t-233.5 141t-338 51q-66 0 -151.5 -3t-129.5 -3v-1319z" />
    <glyph glyph-name="E" unicode="E" horiz-adv-x="1177" 
d="M1010 57q11 0 18.5 -8t7.5 -20t-7.5 -20.5t-18.5 -8.5h-736q-15 0 -25.5 11t-10.5 26v1360q0 15 10.5 26t25.5 11h715q11 0 19 -8.5t8 -20.5t-8 -20.5t-19 -8.5h-690v-618h629q11 0 18.5 -8.5t7.5 -20.5t-7.5 -20.5t-18.5 -8.5h-629v-643h711z" />
    <glyph glyph-name="F" unicode="F" horiz-adv-x="1114" 
d="M299 659v-639q0 -12 -9 -20t-22 -8t-21.5 8t-8.5 20v1377q0 15 10.5 26t25.5 11h732q11 0 18.5 -8.5t7.5 -20.5t-7.5 -20.5t-18.5 -8.5h-707v-659h645q11 0 19 -8.5t8 -20.5t-8 -20.5t-19 -8.5h-645z" />
    <glyph glyph-name="G" unicode="G" horiz-adv-x="1488" 
d="M819 41q131 0 264 46t209 122v397h-420q-11 0 -18.5 8.5t-7.5 20.5t7.5 20.5t18.5 8.5h443q15 0 26 -11t11 -26v-430q0 -18 -15 -33q-93 -84 -240 -133t-282 -49q-311 0 -504.5 201.5t-193.5 533.5q0 153 50 288.5t139 234t218.5 155.5t280.5 57q253 0 418 -117
q24 -19 8 -41q-6 -9 -18 -10.5t-21 4.5q-141 105 -379 105q-187 0 -332 -89t-223 -242.5t-78 -344.5q0 -305 177 -490.5t462 -185.5z" />
    <glyph glyph-name="H" unicode="H" horiz-adv-x="1581" 
d="M1343 1411v-1393q0 -12 -8 -20t-20 -8q-13 0 -22 8t-9 20v684h-985v-684q0 -12 -9 -20t-22 -8t-21.5 8t-8.5 20v1391q0 12 8.5 20.5t21.5 8.5t22 -8.5t9 -20.5v-649h985v651q0 11 9 19t22 8q12 0 20 -8t8 -19z" />
    <glyph glyph-name="I" unicode="I" horiz-adv-x="647" 
d="M354 1409v-1389q0 -12 -8.5 -20t-21.5 -8t-22 8t-9 20v1389q0 12 9 20.5t22 8.5t21.5 -8.5t8.5 -20.5z" />
    <glyph glyph-name="J" unicode="J" horiz-adv-x="716" 
d="M418 313v1098q0 11 9 19t22 8q12 0 20 -8t8 -19v-1104q0 -77 -12.5 -133.5t-41.5 -101.5t-81.5 -67.5t-128.5 -22.5q-88 0 -158 45q-8 5 -11.5 15t1.5 21q6 11 17 15t20 -2q64 -35 125 -35q64 0 107.5 20.5t65 60t30 84.5t8.5 107z" />
    <glyph glyph-name="K" unicode="K" horiz-adv-x="1277" 
d="M418 721q-9 10 -8.5 26t10.5 25l667 651q15 15 33 15q17 0 23.5 -17.5t-10.5 -36.5l-656 -632l684 -705q15 -17 7.5 -36t-27.5 -19q-15 0 -29 14zM299 1409v-1389q0 -12 -9 -20t-22 -8t-21.5 8t-8.5 20v1389q0 12 8.5 20.5t21.5 8.5t22 -8.5t9 -20.5z" />
    <glyph glyph-name="L" unicode="L" horiz-adv-x="1134" 
d="M1069 57q11 0 19 -8t8 -20t-8 -20.5t-19 -8.5h-795q-15 0 -25.5 11t-10.5 26v1372q0 12 8.5 20.5t21.5 8.5t22 -8.5t9 -20.5v-1352h770z" />
    <glyph glyph-name="M" unicode="M" horiz-adv-x="1796" 
d="M299 1335v-1315q0 -12 -9 -20t-22 -8t-21.5 8t-8.5 20v1385q0 15 9 25t25 10q23 0 39 -23l596 -813l576 811q20 25 43 25q15 0 24 -10t9 -27v-1383q0 -12 -8.5 -20t-20.5 -8q-13 0 -22 8t-9 20v1321l-555 -774q-14 -20 -38.5 -20t-39.5 20z" />
    <glyph glyph-name="N" unicode="N" horiz-adv-x="1636" 
d="M1339 1411q0 11 9 19t22 8q12 0 20.5 -8t8.5 -19v-1393q0 -12 -8.5 -19t-20.5 -7q-20 0 -33 16l-1042 1319v-1309q0 -11 -8.5 -18.5t-20.5 -7.5t-20 7.5t-8 18.5v1389q0 31 24 31q19 0 37 -21l1040 -1319v1313z" />
    <glyph glyph-name="O" unicode="O" horiz-adv-x="1652" 
d="M825 1452q148 0 279.5 -56t226 -153t149 -233.5t54.5 -292.5q0 -206 -93 -374.5t-255.5 -264.5t-360.5 -96q-197 0 -359 95t-255.5 264t-93.5 376q0 205 92.5 373.5t255 265t360.5 96.5zM825 41q183 0 330.5 88t231 243t83.5 345q0 143 -49.5 268.5t-135 215t-205 141
t-255.5 51.5q-135 0 -254.5 -51.5t-205 -141t-135.5 -215t-50 -268.5q0 -142 50 -267.5t135.5 -215t205 -141.5t254.5 -52z" />
    <glyph glyph-name="P" unicode="P" horiz-adv-x="1177" 
d="M1059 1016q0 -66 -17.5 -127t-56 -116.5t-96 -96t-143.5 -64.5t-191 -24q-109 0 -256 10v-578q0 -12 -9 -20t-22 -8t-21.5 8t-8.5 20v1377q0 15 10.5 26t25.5 11q47 0 155 2t136 2q113 0 201 -24.5t142 -64.5t89 -96t48.5 -114t13.5 -123zM299 655q147 -10 252 -10
q218 0 332 103.5t114 269.5q0 164 -104 263t-322 99q-136 0 -272 -4v-721z" />
    <glyph glyph-name="Q" unicode="Q" horiz-adv-x="1652" 
d="M1339 8l-92 111q-186 -137 -422 -137q-197 0 -359 95t-255.5 264t-93.5 376q0 205 92.5 373.5t255 265t360.5 96.5q148 0 279.5 -56t226 -153t149 -233.5t54.5 -292.5q0 -169 -64 -314.5t-178 -246.5l94 -113q13 -17 6 -34t-26 -17q-14 0 -27 16zM1253 201
q103 94 160 227t57 289q0 143 -49.5 268.5t-135 215t-205 141t-255.5 51.5q-135 0 -254.5 -51.5t-205 -141t-135.5 -215t-50 -268.5q0 -142 50 -267.5t135.5 -215t205 -141.5t254.5 -52q221 0 383 125l-108 135q-17 25 2 41q9 7 20 5.5t17 -9.5z" />
    <glyph glyph-name="R" unicode="R" horiz-adv-x="1271" 
d="M1118 8l-504 619h-315v-607q0 -12 -9 -20t-22 -8t-21.5 8t-8.5 20v1377q0 15 10.5 26t25.5 11q52 0 157 2t116 2q114 0 201.5 -22.5t142 -59t89.5 -89.5t48.5 -109t13.5 -122q0 -145 -100 -255.5t-262 -141.5l487 -600q11 -12 5 -29.5t-25 -17.5q-16 0 -29 16zM299 684
h279q99 0 190.5 44t151 126t59.5 182q0 159 -103 251.5t-333 92.5q-108 0 -244 -4v-692z" />
    <glyph glyph-name="S" unicode="S" horiz-adv-x="1112" 
d="M131 205q9 9 21 8.5t20 -8.5q66 -76 169 -120t202 -44q103 0 189.5 33t143 104.5t56.5 169.5q0 72 -26.5 128.5t-71.5 93.5t-103 67t-122.5 54t-129 48.5t-122.5 56t-103 71.5t-71.5 101t-26.5 138q0 151 109 248.5t300 97.5q107 0 203 -34t156 -93q8 -6 8.5 -18
t-6.5 -21q-8 -9 -18.5 -10t-18.5 6q-123 111 -326 111q-157 0 -250.5 -78.5t-93.5 -208.5q0 -71 26.5 -125.5t71.5 -90.5t103 -64.5t122.5 -51.5t129 -46.5t122.5 -56t103 -73.5t71.5 -104t26.5 -144q0 -165 -128 -266.5t-320 -101.5q-119 0 -237.5 49.5t-178.5 130.5
q-16 24 0 43z" />
    <glyph glyph-name="T" unicode="T" horiz-adv-x="1210" 
d="M606 -8q-13 0 -22 8t-9 20v1356h-528q-11 0 -19 8.5t-8 20.5t8 20.5t19 8.5h1116q11 0 19 -8.5t8 -20.5t-8 -20.5t-19 -8.5h-528v-1356q0 -12 -8.5 -20t-20.5 -8z" />
    <glyph glyph-name="U" unicode="U" horiz-adv-x="1538" 
d="M1260 616v793q0 12 8.5 20.5t21.5 8.5t22 -8.5t9 -20.5v-807q0 -159 -42.5 -280t-117.5 -193t-169 -107.5t-204 -35.5q-123 0 -226 40t-180.5 117t-121 198t-43.5 275v793q0 12 9 20.5t22 8.5t22 -8.5t9 -20.5v-784q0 -277 140.5 -429.5t368.5 -152.5q101 0 185.5 34
t149 102t101 179.5t36.5 257.5z" />
    <glyph glyph-name="V" unicode="V" horiz-adv-x="1343" 
d="M104 1419l578 -1337l559 1337q8 19 31 19q14 0 22 -13t2 -26l-589 -1395q-7 -18 -29 -18q-20 0 -27 18l-602 1391q-6 15 3 29t26 14q18 0 26 -19z" />
    <glyph glyph-name="W" unicode="W" horiz-adv-x="1941" 
d="M1008 1415l452 -1300l381 1304q8 19 27 19q14 0 23 -10.5t5 -26.5l-405 -1387q-9 -22 -29 -22q-21 0 -30 22l-457 1311l-445 -1311q-9 -22 -28 -22q-22 0 -31 22l-424 1381q-5 18 4 30.5t27 12.5q22 0 28 -19l400 -1302l440 1298q8 23 31 23t31 -23z" />
    <glyph glyph-name="X" unicode="X" horiz-adv-x="1345" 
d="M180 1417l494 -643l495 643q17 21 33 21q19 0 26 -16.5t-3 -28.5l-512 -664l532 -690q11 -13 4 -30t-24 -17q-18 0 -31 16l-522 674l-520 -674q-13 -16 -31 -16q-16 0 -24 16t3 31l535 690l-510 664q-10 12 -3.5 28.5t25.5 16.5q18 0 33 -21z" />
    <glyph glyph-name="Y" unicode="Y" horiz-adv-x="1161" 
d="M117 1417l463 -723l467 723q13 21 30 21q16 0 24.5 -14t-1.5 -29l-492 -758v-617q0 -12 -8 -20t-20 -8q-13 0 -22 8t-9 20v617l-488 756q-10 13 -2 29t27 16q17 0 31 -21z" />
    <glyph glyph-name="Z" unicode="Z" horiz-adv-x="1277" 
d="M106 0q-11 0 -17 12t1 23l995 1341h-935q-11 0 -19 8.5t-8 20.5t8 20.5t19 8.5h1001q12 0 17.5 -13t-1.5 -24l-997 -1340h999q11 0 19 -8t8 -20t-8 -20.5t-19 -8.5h-1063z" />
    <glyph glyph-name="bracketleft" unicode="[" horiz-adv-x="565" 
d="M535 -410h-373q-15 0 -27 12t-12 27v1663q0 15 12 27t27 12h373q9 0 16.5 -8t7.5 -20q0 -10 -7.5 -18.5t-16.5 -8.5h-355v-1630h355q9 0 16.5 -9t7.5 -22q0 -9 -7.5 -17t-16.5 -8z" />
    <glyph glyph-name="backslash" unicode="\" horiz-adv-x="616" 
d="M-53 1411q-8 24 14 33q10 4 20 -0.5t13 -13.5l676 -1815q3 -9 -2 -19t-17 -14q-9 -3 -18 1.5t-12 13.5z" />
    <glyph glyph-name="bracketright" unicode="]" horiz-adv-x="565" 
d="M33 1331h370q15 0 27 -12t12 -27v-1663q0 -15 -12 -27t-27 -12h-370q-11 0 -19 8.5t-8 20.5q0 11 8 19t19 8h350v1630h-350q-11 0 -19 9t-8 22q0 9 8.5 16.5t18.5 7.5z" />
    <glyph glyph-name="asciicircum" unicode="^" horiz-adv-x="962" 
d="M158 922q-14 0 -19.5 14t4.5 31l314 471q7 14 24 14q20 0 27 -14l313 -469q10 -15 4 -31t-20 -16q-21 0 -37 26l-285 436l-290 -438q-17 -24 -35 -24z" />
    <glyph glyph-name="underscore" unicode="_" horiz-adv-x="544" 
d="M518 -410h-491q-11 0 -19 9t-8 22q0 11 8 19t19 8h491q11 0 19 -9t8 -22q0 -11 -8.5 -19t-18.5 -8z" />
    <glyph glyph-name="grave" unicode="`" horiz-adv-x="512" 
d="M143 1436q9 7 20 6.5t17 -8.5l197 -263q5 -6 3.5 -14.5t-7.5 -13.5q-8 -6 -17.5 -5t-15.5 9l-201 252q-6 9 -5.5 20t9.5 17z" />
    <glyph glyph-name="a" unicode="a" horiz-adv-x="935" 
d="M446 535q172 0 279 -76q0 57 -1 92.5t-5 81.5t-12 74t-21.5 60.5t-34 51t-49.5 35.5t-68.5 24t-89.5 7q-68 0 -121 -15.5t-116 -50.5q-7 -5 -18 -0.5t-15 15.5q-8 21 14 34q126 72 263 72q179 0 255 -92t76 -273v-552q0 -11 -8 -19t-20 -8t-20.5 8t-8.5 19v137
q-123 -170 -342 -170q-129 0 -208 72t-79 192q0 134 97.5 207.5t252.5 73.5zM725 403q-116 82 -274 82q-76 0 -140 -22.5t-108.5 -75.5t-44.5 -129q0 -99 67 -156t170 -57q65 0 119.5 15t94 43.5t64.5 54t52 61.5v184z" />
    <glyph glyph-name="b" unicode="b" horiz-adv-x="1126" 
d="M582 940q204 0 322 -128.5t118 -336.5q0 -225 -137.5 -359t-356.5 -134q-202 0 -338 100q-16 10 -16 31v1294q0 11 9 19t22 8q12 0 20 -8t8 -19v-621q57 66 154 110t195 44zM233 131q130 -94 299 -94q186 0 307.5 117.5t121.5 312.5q0 191 -104.5 304.5t-285.5 113.5
q-102 0 -198 -50.5t-140 -111.5v-592z" />
    <glyph glyph-name="c" unicode="c" horiz-adv-x="1005" 
d="M567 885q-166 0 -283.5 -122t-117.5 -302q0 -192 120 -308t306 -116q86 0 162.5 31.5t130.5 85.5q17 16 33 0q17 -17 -3 -37q-58 -66 -145 -100.5t-182 -34.5q-213 0 -347.5 131.5t-134.5 347.5q0 201 130.5 340t320.5 139q213 0 334 -96q21 -17 6 -41q-6 -9 -17 -10.5
t-20 4.5q-115 88 -293 88z" />
    <glyph glyph-name="d" unicode="d" horiz-adv-x="1132" 
d="M956 1407v-1384q0 -11 -8 -19t-20 -8t-20.5 8t-8.5 19v122q-59 -69 -149.5 -115t-186.5 -46q-207 0 -332 129.5t-125 345.5q0 211 142 346t356 135q172 0 295 -92v559q0 11 8.5 19t20.5 8t20 -8t8 -19zM899 791q-135 94 -295 94q-187 0 -312.5 -118.5t-125.5 -305.5
q0 -194 111 -308t294 -114q94 0 187 51t141 113v588z" />
    <glyph glyph-name="e" unicode="e" horiz-adv-x="1079" 
d="M942 463h-772q1 -196 116 -311t306 -115q85 0 161.5 29.5t131.5 78.5q16 12 30 -2q8 -10 5.5 -20t-9.5 -17q-58 -60 -144 -92t-177 -32q-214 0 -349 131.5t-135 347.5q0 137 50 243.5t155 171t252 64.5q180 0 296 -114t116 -300q0 -24 -2 -34q0 -11 -9.5 -20t-21.5 -9z
M555 885q-173 0 -275 -103.5t-114 -269.5h749q1 171 -97 272t-263 101z" />
    <glyph glyph-name="f" unicode="f" horiz-adv-x="692" 
d="M268 866v-843q0 -11 -8 -19t-20 -8t-20.5 8t-8.5 19v1048q0 381 313 381q132 0 213 -63q7 -5 9.5 -15.5t-3.5 -21.5q-15 -18 -30 -9q-82 54 -183 54q-131 0 -196.5 -83.5t-65.5 -260.5v-131h367q9 0 16.5 -8.5t7.5 -18.5q0 -12 -7.5 -20.5t-16.5 -8.5h-367z" />
    <glyph glyph-name="g" unicode="g" horiz-adv-x="997" 
d="M489 147q206 0 330.5 -75t124.5 -213q0 -136 -124.5 -210.5t-330.5 -74.5q-207 0 -330.5 74t-123.5 211q0 105 76 175t211 97q-35 38 -35 94q0 62 39 101q-90 39 -141.5 115t-51.5 175q0 140 98.5 232t255.5 92q139 0 232 -74l225 64q12 3 22.5 -5.5t10.5 -21.5
q0 -9 -5.5 -16.5t-13.5 -9.5l-192 -52q76 -85 76 -209q0 -139 -99 -230t-256 -91q-67 0 -116 14q-29 -33 -29 -84q0 -52 37 -86q70 8 110 8zM489 -371q180 0 287 60.5t107 169.5t-107.5 171t-286.5 62q-177 0 -285 -62t-108 -171q0 -107 108 -168.5t285 -61.5zM487 350
q130 0 211.5 75t81.5 191t-82.5 192.5t-210.5 76.5t-210 -76.5t-82 -192.5t81 -191t211 -75z" />
    <glyph glyph-name="h" unicode="h" horiz-adv-x="1132" 
d="M233 725v-700q0 -12 -8 -20.5t-20 -8.5q-13 0 -22 8.5t-9 20.5v1382q0 11 9 19t22 8q12 0 20 -8t8 -19v-625q58 67 157.5 111.5t197.5 44.5q197 0 293 -101.5t96 -316.5v-497q0 -11 -8.5 -19t-20.5 -8t-20 8t-8 19v485q0 191 -84 283t-258 92q-102 0 -200 -47.5
t-145 -110.5z" />
    <glyph glyph-name="i" unicode="i" horiz-adv-x="522" 
d="M289 899v-876q0 -11 -8.5 -19t-20.5 -8t-20.5 8t-8.5 19v876q0 11 8.5 19t20.5 8t20.5 -8t8.5 -19zM262 1241q-19 0 -33 13.5t-14 33.5q0 19 14 32t33 13q17 0 30 -13t13 -32q0 -20 -12.5 -33.5t-30.5 -13.5z" />
    <glyph glyph-name="j" unicode="j" horiz-adv-x="526" 
d="M236 -66v965q0 11 8 19t20 8t20.5 -8t8.5 -19v-967q0 -358 -289 -358q-88 0 -154 41q-19 11 -12 33q4 12 14 15.5t19 -1.5q60 -33 125 -33q126 0 183 77t57 228zM264 1241q-19 0 -33 13.5t-14 33.5q0 19 14 32t33 13q17 0 30 -13t13 -32q0 -20 -12.5 -33.5t-30.5 -13.5z
" />
    <glyph glyph-name="k" unicode="k" horiz-adv-x="935" 
d="M340 457q-10 9 -10 24.5t10 24.5l416 401q19 19 32 19q19 0 24.5 -17t-9.5 -30l-416 -394l451 -436q15 -13 11 -33t-24 -20q-16 0 -32 16zM233 1407v-1382q0 -12 -8 -20.5t-20 -8.5q-13 0 -22 8.5t-9 20.5v1382q0 11 9 19t22 8q12 0 20 -8t8 -19z" />
    <glyph glyph-name="l" unicode="l" horiz-adv-x="565" 
d="M539 66q4 -21 -11 -29q-70 -45 -161 -45q-100 0 -146.5 58.5t-46.5 180.5v1176q0 11 9 19t22 8q12 0 20 -8t8 -19v-1133q0 -119 33.5 -173t116.5 -54q55 0 119 31q11 6 21.5 2.5t15.5 -14.5z" />
    <glyph glyph-name="m" unicode="m" horiz-adv-x="1652" 
d="M561 938q110 0 187.5 -47t103.5 -131q49 81 144 129.5t198 48.5q143 0 223 -76.5t80 -255.5v-583q0 -11 -8.5 -19t-20.5 -8t-20 8t-8 19v567q0 151 -66 222t-196 71q-104 0 -187 -47.5t-131 -124.5q4 -16 4 -64v-624q0 -11 -8 -19t-20 -8t-20.5 8t-8.5 19v624
q0 106 -69 171t-193 65q-99 0 -183.5 -48t-128.5 -114v-696q0 -12 -8 -20.5t-20 -8.5q-13 0 -22 8.5t-9 20.5v874q0 11 9 19t22 8q12 0 20 -8t8 -19v-117q51 69 142 112.5t186 43.5z" />
    <glyph glyph-name="n" unicode="n" horiz-adv-x="1132" 
d="M233 725v-700q0 -12 -8 -20.5t-20 -8.5q-13 0 -22 8.5t-9 20.5v874q0 11 9 19t22 8q12 0 20 -8t8 -19v-117q57 66 156.5 111t198.5 45q197 0 293 -101.5t96 -316.5v-497q0 -11 -8.5 -19t-20.5 -8t-20 8t-8 19v485q0 191 -84 283t-258 92q-102 0 -199 -47.5t-146 -110.5z
" />
    <glyph glyph-name="o" unicode="o" horiz-adv-x="1165" 
d="M582 940q210 0 343.5 -135.5t133.5 -343.5t-133.5 -343.5t-343.5 -135.5q-208 0 -342 135.5t-134 343.5t134 343.5t342 135.5zM582 37q183 0 299 119t116 305t-116 305t-299 119q-182 0 -299 -119t-117 -305t116.5 -305t299.5 -119z" />
    <glyph glyph-name="p" unicode="p" horiz-adv-x="1130" 
d="M233 74v-457q0 -11 -8 -19t-20 -8q-13 0 -22 8t-9 19v1282q0 11 9 19t22 8q12 0 20 -8t8 -19v-113q56 67 155 110.5t200 43.5q202 0 320 -129t118 -336q0 -140 -57.5 -252t-165 -176.5t-246.5 -64.5q-201 0 -324 92zM233 135q137 -98 322 -98q182 0 296 120.5t114 311.5
q0 189 -103.5 302.5t-286.5 113.5q-103 0 -199 -46.5t-143 -109.5v-594z" />
    <glyph glyph-name="q" unicode="q" horiz-adv-x="1132" 
d="M958 819v-1202q0 -11 -8 -19t-20 -8t-20.5 8t-8.5 19v510q-57 -63 -148 -104t-184 -41q-210 0 -336.5 130.5t-126.5 348.5q0 202 144.5 340.5t357.5 138.5q181 0 334 -88q16 -12 16 -33zM901 805q-130 80 -295 80q-184 0 -312 -123.5t-128 -302.5q0 -192 111.5 -307
t297.5 -115q97 0 190.5 48.5t135.5 107.5v612z" />
    <glyph glyph-name="r" unicode="r" horiz-adv-x="655" 
d="M233 721v-696q0 -12 -8 -20.5t-20 -8.5q-13 0 -22 8.5t-9 20.5v874q0 11 9 19t22 8q12 0 20 -8t8 -19v-111q97 150 261 150q82 0 127 -25q9 -4 13.5 -14.5t-1.5 -26.5q-14 -23 -39 -12q-45 23 -109 23q-47 0 -88 -14t-71.5 -39.5t-51.5 -50.5t-41 -58z" />
    <glyph glyph-name="s" unicode="s" horiz-adv-x="837" 
d="M129 127q19 19 39 0q40 -41 110.5 -66.5t135.5 -25.5q102 0 175 51.5t73 146.5q0 48 -22.5 84t-59 56.5t-83.5 39.5t-95.5 32.5t-95.5 35.5t-83.5 49t-59 73t-22.5 106q0 102 76.5 166.5t204.5 64.5q73 0 139 -22.5t109 -59.5q18 -18 4 -37q-6 -9 -17 -10t-20 6
q-82 70 -217 70q-98 0 -158.5 -51.5t-60.5 -124.5q0 -51 22.5 -89.5t59 -60.5t83 -41.5t95.5 -33t95.5 -34.5t83 -46t59 -68t22.5 -100q0 -124 -88 -190t-221 -66q-76 0 -158.5 32t-124.5 76q-6 6 -6.5 17.5t6.5 19.5z" />
    <glyph glyph-name="t" unicode="t" horiz-adv-x="704" 
d="M618 70q9 -22 -12 -35q-74 -45 -164 -45q-151 0 -219.5 89.5t-68.5 270.5v801q0 11 8.5 19t21.5 8q12 0 20.5 -8t8.5 -19v-229h373q9 0 16.5 -8.5t7.5 -18.5q0 -12 -7.5 -20.5t-16.5 -8.5h-373v-497q0 -163 57 -243.5t183 -80.5q65 0 129 35q9 6 20.5 3t15.5 -13z" />
    <glyph glyph-name="u" unicode="u" horiz-adv-x="1120" 
d="M889 219v680q0 11 8.5 19t20.5 8t20 -8t8 -19v-876q0 -11 -8 -19t-20 -8t-20.5 8t-8.5 19v137q-59 -74 -161.5 -126t-209.5 -52q-183 0 -273.5 101.5t-90.5 313.5v502q0 11 8.5 19t21.5 8q12 0 20.5 -8t8.5 -19v-487q0 -189 78.5 -282t245.5 -93q104 0 203 56.5
t149 125.5z" />
    <glyph glyph-name="v" unicode="v" horiz-adv-x="960" 
d="M489 72q45 113 89 207l278 624q10 23 31 23q14 0 21.5 -12t0.5 -29l-397 -881q-3 -7 -11 -12.5t-14 -5.5q-19 0 -26 18l-410 877q-7 18 2 31.5t27 13.5q19 0 29 -23l292 -633q48 -105 88 -198z" />
    <glyph glyph-name="w" unicode="w" horiz-adv-x="1400" 
d="M1040 82q9 34 47 154l211 667q7 23 29 23q14 0 21.5 -11t3.5 -28l-283 -883q-7 -18 -27 -18q-21 0 -28 18l-271 711q-33 93 -41 119q-8 -21 -22.5 -63t-22.5 -64l-264 -703q-7 -18 -24 -18q-20 0 -27 18l-295 879q-6 18 3.5 30.5t27.5 12.5q19 0 26 -23l226 -682
q3 -8 43 -137q10 25 27 71.5t24 65.5l252 682q10 23 29 23q16 0 26 -23l256 -678z" />
    <glyph glyph-name="x" unicode="x" horiz-adv-x="993" 
d="M178 905l318 -393l321 393q15 21 33 21q17 0 22.5 -15t-4.5 -26l-331 -410l352 -436q11 -12 4 -27.5t-27 -15.5q-14 0 -30 20l-340 418l-340 -418q-14 -20 -33 -20q-17 0 -23.5 14.5t4.5 26.5l353 436l-332 410q-10 13 -2.5 28t24.5 15q13 0 31 -21z" />
    <glyph glyph-name="y" unicode="y" horiz-adv-x="966" 
d="M528 66q8 23 18 48.5t22.5 56.5t19.5 48l270 684q10 23 31 23q16 0 24.5 -13.5t1.5 -31.5l-360 -881q-67 -163 -123 -253t-105.5 -123.5t-113.5 -33.5q-57 0 -123 29q-9 4 -12 15t2 20q10 19 31 12q52 -22 94 -22q79 0 143 71.5t131 235.5l21 49l-445 881q-9 18 0 31.5
t27 13.5q19 0 29 -23l346 -688q26 -48 71 -149z" />
    <glyph glyph-name="z" unicode="z" horiz-adv-x="978" 
d="M125 0q-14 0 -18 13.5t6 25.5l675 827h-630q-11 0 -19 8.5t-8 20.5q0 11 8.5 19t18.5 8h696q15 0 20.5 -12t-6.5 -25l-682 -830h658q9 0 16.5 -8t7.5 -18q0 -12 -7.5 -20.5t-16.5 -8.5h-719z" />
    <glyph glyph-name="braceleft" unicode="{" horiz-adv-x="602" 
d="M561 -383q0 -10 -7.5 -18.5t-16.5 -8.5h-82q-115 0 -172.5 60t-57.5 186v397q0 100 -46.5 148t-112.5 53q-10 0 -17.5 8t-7.5 19q0 24 25 28q65 7 112 59.5t47 164.5v366q0 124 51.5 188t172.5 64h88q9 0 16.5 -8t7.5 -18q0 -12 -7.5 -20.5t-16.5 -8.5h-78
q-94 0 -135 -50.5t-41 -160.5v-369q0 -99 -42 -161.5t-112 -71.5q70 -8 112 -65t42 -169v-376q0 -207 188 -207h66q9 0 16.5 -8.5t7.5 -20.5z" />
    <glyph glyph-name="bar" unicode="|" horiz-adv-x="645" 
d="M352 1407v-1382q0 -12 -8 -20.5t-20 -8.5q-13 0 -22 8.5t-9 20.5v1382q0 11 9 19t22 8q12 0 20 -8t8 -19z" />
    <glyph glyph-name="braceright" unicode="}" horiz-adv-x="602" 
d="M537 489q24 -3 24 -28q0 -11 -7 -19t-17 -8q-67 -5 -113.5 -53t-46.5 -148v-397q0 -126 -57.5 -186t-172.5 -60h-79q-10 0 -18.5 8t-8.5 19q0 12 8 20.5t19 8.5h63q188 0 188 207v376q0 112 42 169t112 65q-70 9 -112 71.5t-42 161.5v369q0 110 -41 160.5t-135 50.5h-75
q-11 0 -19 8.5t-8 20.5q0 10 8 18t19 8h86q122 0 172.5 -64t50.5 -188v-366q0 -112 47.5 -164.5t112.5 -59.5z" />
    <glyph glyph-name="asciitilde" unicode="~" 
d="M375 791q-94 0 -197 -89q-6 -6 -17 -5t-18 10q-7 8 -6 17.5t8 16.5q115 101 232 101q56 0 122 -24t116.5 -52t115 -52t117.5 -24q88 0 178 78q6 6 16 4.5t17 -10.5q6 -8 4 -18.5t-8 -16.5q-106 -90 -209 -90q-55 0 -120.5 24t-116.5 53t-116 53t-118 24z" />
    <glyph glyph-name="uni00A0" unicode="&#xa0;" horiz-adv-x="497" 
 />
    <glyph glyph-name="exclamdown" unicode="&#xa1;" horiz-adv-x="634" 
d="M289 -471v1024q0 12 8.5 20.5t21.5 8.5t22 -8.5t9 -20.5v-1024q0 -12 -9 -20.5t-22 -8.5t-21.5 8.5t-8.5 20.5zM317 850q-19 0 -33 14t-14 31q0 20 14 35.5t33 15.5q21 0 36.5 -15t15.5 -36q0 -18 -15.5 -31.5t-36.5 -13.5z" />
    <glyph glyph-name="cent" unicode="&#xa2;" 
d="M971 154q17 16 33 0q15 -15 -3 -39q-115 -126 -315 -133v-201q0 -11 -8.5 -19t-20.5 -8t-20 8t-8 19v203q-196 14 -316 143t-120 334q0 197 125 335t311 144v197q0 11 8 18.5t20 7.5t20.5 -7.5t8.5 -18.5v-199q183 -10 291 -94q21 -17 6 -41q-6 -9 -17 -10.5t-20 4.5
q-115 88 -293 88q-166 0 -283.5 -122t-117.5 -302q0 -192 120 -308t306 -116q86 0 162.5 31.5t130.5 85.5z" />
    <glyph glyph-name="sterling" unicode="&#xa3;" 
d="M248 131q114 134 114 340q0 58 -14 123h-151q-9 0 -16 7t-7 17t7 17.5t16 7.5h137q-11 32 -45 107t-52 144t-18 159q0 75 28 146t79 127t130.5 90t174.5 34q108 0 203 -33.5t155 -93.5q8 -6 8.5 -19t-6.5 -22t-18.5 -9.5t-18.5 5.5q-127 115 -327 115q-102 0 -182.5 -50
t-122 -127.5t-41.5 -164.5q0 -88 18.5 -156t52 -140t45.5 -112h348q9 0 16 -7.5t7 -17.5t-7 -17t-16 -7h-335q12 -52 12 -117q0 -182 -105 -327q30 6 62 6q82 0 235.5 -53.5t229.5 -53.5q115 0 211 84q7 6 18.5 5.5t18.5 -9.5q6 -9 3.5 -21t-10.5 -18q-109 -98 -245 -98
q-79 0 -233.5 53t-233.5 53q-116 0 -223 -96q-7 -6 -19 -4.5t-18 10.5q-7 11 -4.5 21.5t10.5 17.5q58 53 129 84z" />
    <glyph glyph-name="currency" unicode="&#xa4;" 
d="M256 408q-109 131 -109 307t109 307l-178 180q-6 6 -5.5 17t9.5 20q6 6 16.5 6t16.5 -6l178 -178q122 119 309 119q184 0 309 -119l191 190q6 6 17 5.5t20 -9.5q6 -6 6 -16.5t-6 -16.5l-191 -192q109 -131 109 -307t-109 -307l180 -185q6 -6 5.5 -17t-9.5 -20
q-6 -6 -16 -6t-16 6l-181 183q-122 -119 -309 -119q-186 0 -309 117l-195 -193q-6 -6 -17 -5.5t-20 9.5q-6 6 -6 16.5t6 16.5zM602 1126q-120 0 -212.5 -57.5t-139.5 -150t-47 -203.5q0 -82 27.5 -157t77.5 -132t126.5 -91t167.5 -34t167.5 34t126.5 91t77.5 132t27.5 157
q0 171 -109 291t-290 120z" />
    <glyph glyph-name="yen" unicode="&#xa5;" 
d="M172 352h395v283h-393q-11 0 -17.5 7.5t-6.5 19.5q0 10 7 17t17 7h363l-447 707q-9 15 -0.5 30t25.5 15q18 0 28 -17l457 -727l459 727q10 17 28 17q16 0 24.5 -14t-1.5 -31l-451 -707h367q9 0 16 -7t7 -17q0 -12 -7 -19.5t-16 -7.5h-397v-283h397q9 0 16 -7t7 -17
t-7 -17.5t-16 -7.5h-397v-283q0 -12 -9 -20t-22 -8t-22 8t-9 20v283h-395q-9 0 -15.5 7.5t-6.5 17.5t6.5 17t15.5 7z" />
    <glyph glyph-name="brokenbar" unicode="&#xa6;" horiz-adv-x="645" 
d="M352 1407v-477q0 -12 -8.5 -20.5t-21.5 -8.5q-12 0 -20.5 8.5t-8.5 20.5v477q0 11 9 19t24 8q10 0 18 -8t8 -19zM293 29v477q0 11 9 18.5t24 7.5q10 0 18 -8t8 -18v-477q0 -12 -8.5 -20.5t-21.5 -8.5q-12 0 -20.5 8.5t-8.5 20.5z" />
    <glyph glyph-name="section" unicode="&#xa7;" horiz-adv-x="1073" 
d="M514 -354q101 0 170.5 67.5t69.5 165.5q0 51 -21.5 95.5t-58.5 76.5t-78.5 54.5t-87.5 37.5q-154 9 -253 112t-99 255q0 144 88 244t229 120q-90 37 -152.5 108t-62.5 169q0 124 83 203.5t216 79.5q146 0 238 -101q7 -8 8 -19.5t-6 -19.5q-8 -8 -19.5 -8.5t-19.5 8.5
q-75 84 -203 84q-101 0 -170.5 -67.5t-69.5 -165.5q0 -52 22 -97t59.5 -77.5t78 -55t86.5 -38.5q156 -8 256.5 -111t100.5 -256q0 -142 -89 -242.5t-229 -120.5q89 -39 150 -108.5t61 -165.5q0 -124 -83 -203.5t-216 -79.5q-154 0 -238 101q-19 22 0 41q8 8 18.5 8t16.5 -8
q35 -39 81.5 -62.5t123.5 -23.5zM537 195q133 0 228 89.5t95 225.5q0 137 -95.5 227t-227.5 90t-228 -90.5t-96 -226.5q0 -135 97 -225t227 -90z" />
    <glyph glyph-name="dieresis" unicode="&#xa8;" horiz-adv-x="765" 
d="M123 1282q0 17 13 30t32 13q15 0 28 -13t13 -30q0 -21 -12.5 -34t-28.5 -13q-19 0 -32 13t-13 34zM555 1282q0 17 13 30t32 13q17 0 30 -13t13 -30q0 -21 -12.5 -34t-30.5 -13q-19 0 -32 13t-13 34z" />
    <glyph glyph-name="copyright" unicode="&#xa9;" horiz-adv-x="2084" 
d="M1042 1333q186 0 350.5 -69.5t280.5 -187.5t183 -280.5t67 -342.5t-67 -342.5t-183 -281t-280.5 -188t-350.5 -69.5t-350.5 69.5t-280 188t-182.5 281t-67 342.5t67 342.5t182.5 280.5t280 187.5t350.5 69.5zM1042 -377q234 0 425 112t298 302t107 416q0 169 -63 322
t-172.5 264.5t-264.5 177t-330 65.5t-330 -65.5t-264 -177t-172 -264.5t-63 -322t63 -322t172 -264.5t264 -177.5t330 -66zM1356 154q16 16 33 0q17 -17 -3 -37q-58 -66 -145 -100.5t-182 -34.5q-213 0 -347 131.5t-134 347.5q0 201 130 340t320 139q213 0 334 -96
q21 -17 6 -41q-6 -9 -17 -10.5t-20 4.5q-115 88 -293 88q-166 0 -283.5 -122t-117.5 -302q0 -192 120 -308t306 -116q86 0 162.5 31.5t130.5 85.5z" />
    <glyph glyph-name="ordfeminine" unicode="&#xaa;" horiz-adv-x="808" 
d="M391 1300q-85 0 -162 -51q-7 -5 -16.5 -5t-15.5 7q-15 18 4 33q87 64 200 64q120 0 185 -62.5t65 -179.5v-363q0 -9 -8 -16.5t-20 -7.5q-9 0 -17 7.5t-8 16.5v86q-85 -116 -254 -116q-101 0 -164 56.5t-63 135.5q0 94 67.5 146.5t184.5 52.5q144 0 229 -57v47
q0 102 -53 154t-154 52zM172 909q0 -65 55.5 -107t132.5 -42q147 0 238 108v140q-39 24 -102 39.5t-117 15.5q-85 0 -146 -41.5t-61 -112.5z" />
    <glyph glyph-name="guillemotleft" unicode="&#xab;" horiz-adv-x="993" 
d="M821 143q8 -7 7.5 -18.5t-9.5 -20.5q-6 -6 -17.5 -5.5t-17.5 7.5l-317 375q-11 13 -10.5 31t12.5 31l317 370q6 7 17 7t20 -7q7 -6 7.5 -16.5t-5.5 -17.5l-317 -367zM494 143q18 -19 -2 -39q-6 -6 -17.5 -5.5t-17.5 7.5l-318 375q-11 13 -10.5 31t12.5 31l318 370
q6 7 17 7t20 -7q7 -6 7.5 -16.5t-5.5 -17.5l-318 -367z" />
    <glyph glyph-name="logicalnot" unicode="&#xac;" 
d="M1004 711h-834q-9 0 -17 8t-8 20q0 9 8 17t17 8h846q15 0 27 -12t12 -27v-258q0 -11 -7.5 -18t-19.5 -7q-10 0 -17 7t-7 18v244z" />
    <glyph glyph-name="uni00AD" unicode="&#xad;" horiz-adv-x="833" 
d="M618 526h-401q-11 0 -19 9t-8 22q0 9 8.5 17t18.5 8h401q9 0 17 -8.5t8 -20.5q0 -10 -8 -18.5t-17 -8.5z" />
    <glyph glyph-name="registered" unicode="&#xae;" horiz-adv-x="1128" 
d="M565 569q-186 0 -316 130.5t-130 316.5t130 316t316 130t316.5 -130t130.5 -316t-130.5 -316.5t-316.5 -130.5zM565 1413q-164 0 -280.5 -116.5t-116.5 -280.5t116.5 -281t280.5 -117t281 117t117 281t-117 280.5t-281 116.5zM446 981v-223q0 -8 -7 -14.5t-17 -6.5
q-8 0 -14.5 6.5t-6.5 14.5v514q0 15 12 27t27 12h107q201 0 201 -162q0 -57 -39 -102t-105 -60l168 -211q8 -10 4.5 -24.5t-16.5 -14.5t-29 19l-178 225h-107zM702 1149q0 59 -41 92t-118 33h-97v-256h111q55 0 100 36.5t45 94.5z" />
    <glyph glyph-name="macron" unicode="&#xaf;" horiz-adv-x="741" 
d="M596 1278h-449q-24 0 -24 29q0 9 7 15.5t17 6.5h449q9 0 15.5 -7t6.5 -19q0 -10 -6.5 -17.5t-15.5 -7.5z" />
    <glyph glyph-name="degree" unicode="&#xb0;" horiz-adv-x="794" 
d="M117 1167q0 117 81.5 198t198.5 81q116 0 197.5 -80.5t81.5 -196.5q0 -117 -81.5 -199.5t-197.5 -82.5q-117 0 -198.5 81.5t-81.5 198.5zM170 1167q0 -94 66.5 -160.5t160.5 -66.5t161 66.5t67 160.5t-67 161t-161 67t-160.5 -67t-66.5 -161z" />
    <glyph glyph-name="plusminus" unicode="&#xb1;" 
d="M598 549q-10 0 -18.5 7.5t-8.5 16.5v289h-397q-9 0 -16.5 8.5t-7.5 18.5t7.5 18t16.5 8h397v396q0 9 8.5 16.5t18.5 7.5t18.5 -7.5t8.5 -16.5v-396h401q9 0 17 -8t8 -18t-8 -18.5t-17 -8.5h-401v-289q0 -9 -8.5 -16.5t-18.5 -7.5zM1026 422q9 0 17 -8.5t8 -18.5t-8 -18
t-17 -8h-852q-9 0 -16.5 8t-7.5 18t7.5 18.5t16.5 8.5h852z" />
    <glyph glyph-name="twosuperior" unicode="&#xb2;" horiz-adv-x="675" 
d="M586 717h-477q-25 0 -25 22q0 17 16 29q160 116 224 172q186 164 186 293q0 69 -45 115.5t-131 46.5q-60 0 -115 -31t-72 -88q-7 -22 -30 -14q-19 6 -15 28q19 71 86 111.5t146 40.5q115 0 173 -59.5t58 -149.5q0 -43 -19.5 -89.5t-45 -84.5t-69.5 -82t-75 -70.5
t-80.5 -62.5t-65.5 -47t-50 -33h426q8 0 14 -7.5t6 -17.5q0 -9 -6 -15.5t-14 -6.5z" />
    <glyph glyph-name="threesuperior" unicode="&#xb3;" horiz-adv-x="686" 
d="M588 911q0 -92 -73.5 -147t-186.5 -55q-79 0 -144 27t-100 85q-13 22 6 35q17 10 29 -6q30 -49 86.5 -72.5t120.5 -23.5q94 0 150 45.5t56 115.5q0 64 -53.5 105t-132.5 41h-57q-21 0 -21 22q0 9 6 15t15 6h49q63 0 113.5 44t50.5 107q0 69 -48.5 105.5t-129.5 36.5
q-132 0 -185 -86q-6 -9 -16 -10.5t-17 4.5q-14 10 -2 30q65 107 226 107q106 0 166.5 -47t60.5 -131q0 -58 -38 -106t-105 -68q80 -10 127 -61.5t47 -117.5z" />
    <glyph glyph-name="acute" unicode="&#xb4;" horiz-adv-x="512" 
d="M332 1434q6 8 17 8.5t20 -6.5q9 -6 9.5 -17t-5.5 -20l-201 -252q-6 -8 -15.5 -9t-17.5 5q-6 5 -7.5 13.5t3.5 14.5z" />
    <glyph glyph-name="mu" unicode="&#xb5;" horiz-adv-x="1124" 
d="M891 219v680q0 11 8.5 19t20.5 8t20 -8t8 -19v-876q0 -11 -8 -19t-20 -8t-20.5 8t-8.5 19v137q-59 -74 -161.5 -126t-209.5 -52q-222 0 -305 143v-508q0 -11 -8.5 -19t-20.5 -8q-13 0 -21.5 8t-8.5 19v1282q0 11 8.5 19t21.5 8q12 0 20.5 -8t8.5 -19v-487
q0 -189 78.5 -282t245.5 -93q104 0 203 56.5t149 125.5z" />
    <glyph glyph-name="mu" unicode="&#x3bc;" horiz-adv-x="1124" 
d="M891 219v680q0 11 8.5 19t20.5 8t20 -8t8 -19v-876q0 -11 -8 -19t-20 -8t-20.5 8t-8.5 19v137q-59 -74 -161.5 -126t-209.5 -52q-222 0 -305 143v-508q0 -11 -8.5 -19t-20.5 -8q-13 0 -21.5 8t-8.5 19v1282q0 11 8.5 19t21.5 8q12 0 20.5 -8t8.5 -19v-487
q0 -189 78.5 -282t245.5 -93q104 0 203 56.5t149 125.5z" />
    <glyph glyph-name="paragraph" unicode="&#xb6;" horiz-adv-x="854" 
d="M309 -371q54 0 93.5 15t62.5 39.5t37 62.5t19 77t5 89v627q-180 2 -295.5 121.5t-115.5 324.5q0 210 110 329.5t305 119.5h222q9 0 16.5 -8.5t7.5 -18.5q0 -12 -7.5 -20.5t-16.5 -8.5h-168v-1464q0 -165 -61 -252.5t-210 -87.5q-91 0 -161 45q-8 5 -10.5 16t1.5 19
q13 23 35 12q61 -37 131 -37z" />
    <glyph glyph-name="periodcentered" unicode="&#xb7;" horiz-adv-x="497" 
d="M250 553q-21 0 -36 15t-15 36q0 18 15 31.5t36 13.5q19 0 33 -14t14 -31q0 -20 -14 -35.5t-33 -15.5z" />
    <glyph glyph-name="cedilla" unicode="&#xb8;" horiz-adv-x="638" 
d="M305 -412q-86 0 -166 41q-6 3 -8 11t2 16q9 15 27 8q72 -35 135 -35q73 0 119.5 30.5t46.5 80.5q0 108 -144 108q-16 0 -26 9.5t-10 27.5v115h38v-115q201 -3 201 -147q0 -67 -58 -108.5t-157 -41.5z" />
    <glyph glyph-name="onesuperior" unicode="&#xb9;" horiz-adv-x="466" 
d="M104 1284q-20 -10 -30 6q-5 10 -2 19t10 14l162 109q19 14 30 14q17 0 17 -21v-684q0 -11 -7.5 -17.5t-19.5 -6.5q-10 0 -17 6.5t-7 17.5v631z" />
    <glyph glyph-name="ordmasculine" unicode="&#xba;" horiz-adv-x="905" 
d="M121 1028q0 139 95 229.5t237 90.5t236.5 -90.5t94.5 -229.5q0 -140 -94.5 -230.5t-236.5 -90.5t-237 90.5t-95 230.5zM176 1028q0 -119 83.5 -195.5t193.5 -76.5q114 0 195 76t81 196q0 118 -82 194t-194 76q-113 0 -195 -76t-82 -194z" />
    <glyph glyph-name="guillemotright" unicode="&#xbb;" horiz-adv-x="993" 
d="M532 913l318 -370q12 -13 12.5 -33t-10.5 -33l-315 -371q-6 -8 -17 -7t-20 10q-7 6 -7.5 16.5t5.5 17.5l313 369l-317 367q-6 7 -5.5 18t9.5 18q7 6 17.5 5.5t16.5 -7.5zM205 913l317 -370q12 -13 12.5 -33t-10.5 -33l-315 -371q-6 -8 -17 -7t-20 10q-7 6 -7.5 16.5
t5.5 17.5l313 369l-317 367q-6 7 -5.5 18t9.5 18q7 6 18 5.5t17 -7.5z" />
    <glyph glyph-name="onequarter" unicode="&#xbc;" horiz-adv-x="1316" 
d="M139 1284q-19 -10 -30 6q-5 10 -2 19t10 14l162 109q19 14 30 14q17 0 17 -21v-684q0 -11 -7.5 -17.5t-19.5 -6.5q-11 0 -18 7t-7 17v631zM166 -2q-5 -7 -15 -8.5t-20 6.5q-14 14 -2 31l1055 1409q5 6 13.5 7t16.5 -5q6 -5 7.5 -14t-2.5 -15zM1122 0h-4q-9 0 -15.5 7
t-6.5 16v167h-371q-18 0 -24.5 18t4.5 30l362 460q15 19 27 19q13 0 17.5 -11.5t-5.5 -25.5l-350 -444h340v202q0 9 7 16t19 7q9 0 16 -7t7 -16v-202h110q8 0 14.5 -7.5t6.5 -17.5q0 -7 -7 -14t-14 -7h-110v-167q0 -9 -7 -16t-16 -7z" />
    <glyph glyph-name="onehalf" unicode="&#xbd;" horiz-adv-x="1349" 
d="M139 1284q-19 -10 -30 6q-5 10 -2 19t10 14l162 109q19 14 30 14q17 0 17 -21v-684q0 -11 -7.5 -17.5t-19.5 -6.5q-11 0 -18 7t-7 17v631zM96 -2q-5 -7 -15 -8.5t-20 6.5q-14 14 -2 31l1055 1409q5 6 14 7t17 -5q6 -4 7.5 -13.5t-3.5 -15.5zM1247 0h-477q-11 0 -18 6.5
t-7 16.5q0 15 17 28q161 116 226 174q182 163 183 291q0 69 -45 115.5t-131 46.5q-60 0 -114 -31t-72 -88q-8 -23 -31 -14q-18 6 -14 28q19 71 85.5 111.5t145.5 40.5q115 0 173.5 -59.5t58.5 -149.5q0 -43 -19.5 -89.5t-45 -84.5t-70 -82t-75 -70.5t-80.5 -63t-65.5 -46.5
t-50.5 -33h426q8 0 14.5 -7t6.5 -17q0 -9 -6.5 -16t-14.5 -7z" />
    <glyph glyph-name="threequarters" unicode="&#xbe;" horiz-adv-x="1390" 
d="M260 -2q-5 -7 -15 -8.5t-20 6.5q-14 14 -2 31l1055 1409q5 6 14 7t17 -5q6 -4 7.5 -13.5t-3.5 -15.5zM1194 0h-4q-9 0 -16 7t-7 16v167h-370q-18 0 -25 18t4 30l363 460q15 19 26 19q13 0 18 -11.5t-5 -25.5l-351 -444h340v202q0 9 7.5 16t19.5 7q9 0 16 -7t7 -16v-202
h110q8 0 14.5 -7.5t6.5 -17.5q0 -7 -7 -14t-14 -7h-110v-167q0 -9 -7 -16t-16 -7zM590 911q0 -92 -73.5 -147t-186.5 -55q-79 0 -144 27t-100 85q-13 22 6 35q17 10 29 -6q30 -49 86.5 -72.5t120.5 -23.5q94 0 150.5 45.5t56.5 115.5q0 64 -54 105t-133 41h-57q-21 0 -21 22
q0 9 6 15t15 6h49q63 0 113.5 44t50.5 107q0 69 -48.5 105.5t-129.5 36.5q-132 0 -185 -86q-6 -9 -15.5 -10.5t-16.5 4.5q-14 11 -3 30q65 107 226 107q106 0 166.5 -47t60.5 -131q0 -58 -38 -106t-105 -68q80 -10 127 -61.5t47 -117.5z" />
    <glyph glyph-name="questiondown" unicode="&#xbf;" horiz-adv-x="931" 
d="M524 567q11 1 20 -5.5t11 -16.5q6 -37 6 -70q0 -63 -23.5 -114.5t-61 -88t-82.5 -69.5t-90 -67.5t-82.5 -73t-61 -95t-23.5 -125.5q0 -129 94 -213t242 -84q94 0 178 42.5t148 119.5q6 7 16.5 7t18.5 -7q7 -7 8 -18t-4 -17q-60 -85 -158.5 -135.5t-212.5 -50.5
q-92 0 -166.5 28t-122.5 75.5t-74 110t-26 132.5q0 77 23.5 139.5t61.5 104.5t83.5 77.5t91 68.5t83.5 68t61.5 84.5t23.5 110.5q0 20 -4 56q-3 22 22 26zM530 850q-19 0 -33 14t-14 31q0 20 14 35.5t33 15.5q22 0 37 -15t15 -36q0 -18 -15.5 -31.5t-36.5 -13.5z" />
    <glyph glyph-name="Agrave" unicode="&#xc0;" horiz-adv-x="1413" 
d="M1063 532h-717l-225 -522q-7 -18 -31 -18q-14 0 -22 13t-2 26l610 1399q7 18 31 18q23 0 30 -18l611 -1399q6 -14 -3 -26.5t-26 -12.5q-22 0 -29 18zM705 1358l-334 -768h667zM465 1733l301 -172q6 -3 9 -11t-1 -16q-3 -7 -11.5 -10t-14.5 0l-306 162q-9 5 -12.5 15
t2.5 23q6 9 16 11.5t17 -2.5z" />
    <glyph glyph-name="Aacute" unicode="&#xc1;" horiz-adv-x="1413" 
d="M1063 532h-717l-225 -522q-7 -18 -31 -18q-14 0 -22 13t-2 26l610 1399q7 18 31 18q23 0 30 -18l611 -1399q6 -14 -3 -26.5t-26 -12.5q-22 0 -29 18zM705 1358l-334 -768h667zM956 1733q7 5 17 2.5t16 -11.5q6 -13 2.5 -23t-12.5 -15l-305 -162q-6 -3 -15 0t-12 10
q-4 8 -1 16t9 11z" />
    <glyph glyph-name="Acircumflex" unicode="&#xc2;" horiz-adv-x="1413" 
d="M1063 532h-717l-225 -522q-7 -18 -31 -18q-14 0 -22 13t-2 26l610 1399q7 18 31 18q23 0 30 -18l611 -1399q6 -14 -3 -26.5t-26 -12.5q-22 0 -29 18zM705 1358l-334 -768h667zM408 1526q-22 -13 -35 6q-4 8 -2 17t8 12l293 163q34 17 69 0l293 -161q7 -3 8 -13.5
t-6 -19.5q-14 -14 -32 -4l-297 164z" />
    <glyph glyph-name="Atilde" unicode="&#xc3;" horiz-adv-x="1413" 
d="M1063 532h-717l-225 -522q-7 -18 -31 -18q-14 0 -22 13t-2 26l610 1399q7 18 31 18q23 0 30 -18l611 -1399q6 -14 -3 -26.5t-26 -12.5q-22 0 -29 18zM705 1358l-334 -768h667zM530 1636q-61 0 -118 -43q-19 -12 -31 6q-4 6 -2 16t8 15q75 60 152 60q63 0 169 -49.5
t160 -49.5q73 0 136 58q16 12 28 -4q5 -8 3 -18t-9 -17q-73 -70 -160 -70q-57 0 -167 48t-169 48z" />
    <glyph glyph-name="Adieresis" unicode="&#xc4;" horiz-adv-x="1413" 
d="M1063 532h-717l-225 -522q-7 -18 -31 -18q-14 0 -22 13t-2 26l610 1399q7 18 31 18q23 0 30 -18l611 -1399q6 -14 -3 -26.5t-26 -12.5q-22 0 -29 18zM705 1358l-334 -768h667zM469 1585q-21 0 -35 12t-14 33q0 20 14 31.5t35 11.5q20 0 33.5 -11.5t13.5 -31.5
q0 -21 -13.5 -33t-33.5 -12zM948 1585q-21 0 -35 12t-14 33q0 20 14 31.5t35 11.5q18 0 31.5 -12t13.5 -31q0 -21 -13.5 -33t-31.5 -12z" />
    <glyph glyph-name="Aring" unicode="&#xc5;" horiz-adv-x="1413" 
d="M121 10q-7 -18 -31 -18q-14 0 -22 13t-2 26l608 1396q-77 8 -125.5 52t-48.5 116q0 82 57.5 124t147.5 42q92 0 150 -42t58 -124q0 -72 -49 -116t-127 -52l611 -1396q6 -14 -3 -26.5t-26 -12.5q-22 0 -29 18l-227 522h-717zM705 1358l-334 -768h667zM705 1464
q71 0 116 34t45 97q0 64 -44.5 95.5t-116.5 31.5q-71 0 -114.5 -31.5t-43.5 -95.5q0 -63 44.5 -97t113.5 -34z" />
    <glyph glyph-name="AE" unicode="&#xc6;" horiz-adv-x="1974" 
d="M1094 57h712q11 0 19 -8t8 -20t-8 -20.5t-19 -8.5h-737q-15 0 -26 11t-11 26v510h-565l-381 -539q-13 -16 -35 -16q-15 0 -22.5 15t2.5 28l989 1382q14 17 33 17h733q11 0 18.5 -8.5t7.5 -20.5t-7.5 -20.5t-18.5 -8.5h-692v-618h630q11 0 19 -8.5t8 -20.5t-8 -20.5
t-19 -8.5h-630v-643zM1032 1343l-524 -739h524v739z" />
    <glyph glyph-name="Ccedilla" unicode="&#xc7;" horiz-adv-x="1345" 
d="M817 -412q-86 0 -166 41q-6 3 -8 11t2 16q9 15 27 8q72 -35 135 -35q73 0 119.5 30.5t46.5 80.5q0 108 -144 108q-16 0 -26 9.5t-10 27.5v99q-303 11 -489.5 210.5t-186.5 522.5q0 206 85 372.5t244 264.5t363 98q253 0 414 -119q20 -16 6 -37q-7 -9 -18.5 -10.5
t-18.5 4.5q-145 103 -381 103q-186 0 -330.5 -89t-222.5 -242.5t-78 -344.5q0 -304 181 -490t470 -186q225 0 386 123q23 17 38 -2q8 -11 5.5 -22.5t-11.5 -18.5q-75 -65 -187.5 -101t-230.5 -38v-97q201 -3 201 -147q0 -67 -58 -108.5t-157 -41.5z" />
    <glyph glyph-name="Egrave" unicode="&#xc8;" horiz-adv-x="1177" 
d="M1010 57q11 0 18.5 -8t7.5 -20t-7.5 -20.5t-18.5 -8.5h-736q-15 0 -25.5 11t-10.5 26v1360q0 15 10.5 26t25.5 11h715q11 0 19 -8.5t8 -20.5t-8 -20.5t-19 -8.5h-690v-618h629q11 0 18.5 -8.5t7.5 -20.5t-7.5 -20.5t-18.5 -8.5h-629v-643h711zM430 1733l301 -172
q6 -3 9 -11t-1 -16q-3 -7 -11.5 -10t-14.5 0l-305 162q-9 5 -13 15t2 23q6 9 16 11.5t17 -2.5z" />
    <glyph glyph-name="Eacute" unicode="&#xc9;" horiz-adv-x="1177" 
d="M1010 57q11 0 18.5 -8t7.5 -20t-7.5 -20.5t-18.5 -8.5h-736q-15 0 -25.5 11t-10.5 26v1360q0 15 10.5 26t25.5 11h715q11 0 19 -8.5t8 -20.5t-8 -20.5t-19 -8.5h-690v-618h629q11 0 18.5 -8.5t7.5 -20.5t-7.5 -20.5t-18.5 -8.5h-629v-643h711zM819 1733q7 5 17 2.5
t16 -11.5q6 -13 2.5 -23t-12.5 -15l-305 -162q-6 -3 -15 0t-12 10q-4 8 -1 16t9 11z" />
    <glyph glyph-name="Ecircumflex" unicode="&#xca;" horiz-adv-x="1177" 
d="M1010 57q11 0 18.5 -8t7.5 -20t-7.5 -20.5t-18.5 -8.5h-736q-15 0 -25.5 11t-10.5 26v1360q0 15 10.5 26t25.5 11h715q11 0 19 -8.5t8 -20.5t-8 -20.5t-19 -8.5h-690v-618h629q11 0 18.5 -8.5t7.5 -20.5t-7.5 -20.5t-18.5 -8.5h-629v-643h711zM332 1526q-22 -13 -35 6
q-4 8 -2 17t8 12l293 163q15 8 35 8t35 -8l292 -161q7 -3 8.5 -13.5t-5.5 -19.5q-15 -15 -33 -4l-297 164z" />
    <glyph glyph-name="Edieresis" unicode="&#xcb;" horiz-adv-x="1177" 
d="M1010 57q11 0 18.5 -8t7.5 -20t-7.5 -20.5t-18.5 -8.5h-736q-15 0 -25.5 11t-10.5 26v1360q0 15 10.5 26t25.5 11h715q11 0 19 -8.5t8 -20.5t-8 -20.5t-19 -8.5h-690v-618h629q11 0 18.5 -8.5t7.5 -20.5t-7.5 -20.5t-18.5 -8.5h-629v-643h711zM393 1585q-21 0 -35 12
t-14 33q0 20 14 31.5t35 11.5q20 0 33.5 -11.5t13.5 -31.5q0 -21 -13.5 -33t-33.5 -12zM872 1585q-21 0 -35 12t-14 33q0 20 14 31.5t35 11.5q18 0 32 -12t14 -31q0 -21 -14 -33t-32 -12z" />
    <glyph glyph-name="Igrave" unicode="&#xcc;" horiz-adv-x="647" 
d="M354 1409v-1389q0 -12 -8.5 -20t-21.5 -8t-22 8t-9 20v1389q0 12 9 20.5t22 8.5t21.5 -8.5t8.5 -20.5zM57 1733l301 -172q7 -3 10 -11t-1 -16q-3 -7 -12 -10t-15 0l-305 162q-9 5 -12.5 15t2.5 23q13 20 32 9z" />
    <glyph glyph-name="Iacute" unicode="&#xcd;" horiz-adv-x="647" 
d="M354 1409v-1389q0 -12 -8.5 -20t-21.5 -8t-22 8t-9 20v1389q0 12 9 20.5t22 8.5t21.5 -8.5t8.5 -20.5zM590 1733q7 5 17 2.5t16 -11.5q6 -13 2 -23t-13 -15l-305 -162q-6 -3 -14.5 0t-11.5 10q-4 8 -1 16t9 11z" />
    <glyph glyph-name="Icircumflex" unicode="&#xce;" horiz-adv-x="647" 
d="M354 1409v-1389q0 -12 -8.5 -20t-21.5 -8t-22 8t-9 20v1389q0 12 9 20.5t22 8.5t21.5 -8.5t8.5 -20.5zM25 1526q-22 -13 -35 6q-4 8 -2 17t8 12l293 163q35 17 69 0l293 -161q7 -3 8 -13.5t-6 -19.5q-15 -14 -32 -4l-297 164z" />
    <glyph glyph-name="Idieresis" unicode="&#xcf;" horiz-adv-x="647" 
d="M354 1409v-1389q0 -12 -8.5 -20t-21.5 -8t-22 8t-9 20v1389q0 12 9 20.5t22 8.5t21.5 -8.5t8.5 -20.5zM86 1585q-21 0 -35 12t-14 33q0 20 14 31.5t35 11.5q20 0 33.5 -11.5t13.5 -31.5q0 -21 -13.5 -33t-33.5 -12zM565 1585q-21 0 -35 12t-14 33q0 20 14 31.5t35 11.5
q18 0 31.5 -12t13.5 -31q0 -21 -13.5 -33t-31.5 -12z" />
    <glyph glyph-name="Eth" unicode="&#xd0;" horiz-adv-x="1558" 
d="M328 0q-15 0 -26 11t-11 26v670h-244q-11 0 -19 8t-8 20q0 11 8 19t19 8h244v635q0 15 11 26t26 11q20 0 129 3t180 3q167 0 303 -37.5t228.5 -102t155 -154.5t90.5 -191.5t28 -215.5q0 -156 -52 -290t-152 -235.5t-258.5 -159.5t-358.5 -58q-49 0 -144 2t-149 2zM352 57
q37 0 78.5 -0.5t74 -1t59.5 -1t43.5 -1t17.5 -0.5q183 0 328.5 53.5t237 147.5t139.5 217.5t48 267.5q0 134 -43 247.5t-130.5 203.5t-233.5 141t-338 51q-66 0 -151.5 -3t-129.5 -3v-614h398q9 0 16.5 -8.5t7.5 -18.5q0 -12 -7.5 -20t-16.5 -8h-398v-650z" />
    <glyph glyph-name="Ntilde" unicode="&#xd1;" horiz-adv-x="1636" 
d="M1339 1411q0 11 9 19t22 8q12 0 20.5 -8t8.5 -19v-1393q0 -12 -8.5 -19t-20.5 -7q-20 0 -33 16l-1042 1319v-1309q0 -11 -8.5 -18.5t-20.5 -7.5t-20 7.5t-8 18.5v1389q0 31 24 31q19 0 37 -21l1040 -1319v1313zM651 1636q-62 0 -119 -43q-19 -11 -30 6q-4 6 -2 16t8 15
q75 60 151 60q63 0 169.5 -49.5t160.5 -49.5q72 0 135 58q16 12 29 -4q5 -8 3 -18t-9 -17q-73 -70 -160 -70q-57 0 -167 48t-169 48z" />
    <glyph glyph-name="Ograve" unicode="&#xd2;" horiz-adv-x="1652" 
d="M825 1452q148 0 279.5 -56t226 -153t149 -233.5t54.5 -292.5q0 -206 -93 -374.5t-255.5 -264.5t-360.5 -96q-197 0 -359 95t-255.5 264t-93.5 376q0 205 92.5 373.5t255 265t360.5 96.5zM825 41q183 0 330.5 88t231 243t83.5 345q0 143 -49.5 268.5t-135 215t-205 141
t-255.5 51.5q-135 0 -254.5 -51.5t-205 -141t-135.5 -215t-50 -268.5q0 -142 50 -267.5t135.5 -215t205 -141.5t254.5 -52zM676 1733l301 -172q6 -3 9 -11t-1 -16q-3 -7 -12 -10t-15 0l-305 162q-9 5 -12.5 15t2.5 23q6 9 16 11.5t17 -2.5z" />
    <glyph glyph-name="Oacute" unicode="&#xd3;" horiz-adv-x="1652" 
d="M825 1452q148 0 279.5 -56t226 -153t149 -233.5t54.5 -292.5q0 -206 -93 -374.5t-255.5 -264.5t-360.5 -96q-197 0 -359 95t-255.5 264t-93.5 376q0 205 92.5 373.5t255 265t360.5 96.5zM825 41q183 0 330.5 88t231 243t83.5 345q0 143 -49.5 268.5t-135 215t-205 141
t-255.5 51.5q-135 0 -254.5 -51.5t-205 -141t-135.5 -215t-50 -268.5q0 -142 50 -267.5t135.5 -215t205 -141.5t254.5 -52zM1028 1733q7 5 17 2.5t16 -11.5q6 -13 2.5 -23t-12.5 -15l-306 -162q-6 -3 -14.5 0t-11.5 10q-4 8 -1 16t9 11z" />
    <glyph glyph-name="Ocircumflex" unicode="&#xd4;" horiz-adv-x="1652" 
d="M825 1452q148 0 279.5 -56t226 -153t149 -233.5t54.5 -292.5q0 -206 -93 -374.5t-255.5 -264.5t-360.5 -96q-197 0 -359 95t-255.5 264t-93.5 376q0 205 92.5 373.5t255 265t360.5 96.5zM825 41q183 0 330.5 88t231 243t83.5 345q0 143 -49.5 268.5t-135 215t-205 141
t-255.5 51.5q-135 0 -254.5 -51.5t-205 -141t-135.5 -215t-50 -268.5q0 -142 50 -267.5t135.5 -215t205 -141.5t254.5 -52zM535 1526q-22 -13 -35 6q-4 8 -2 17t8 12l293 163q35 17 69 0l293 -161q7 -3 8 -13.5t-6 -19.5q-15 -15 -33 -4l-296 164z" />
    <glyph glyph-name="Otilde" unicode="&#xd5;" horiz-adv-x="1652" 
d="M825 1452q148 0 279.5 -56t226 -153t149 -233.5t54.5 -292.5q0 -206 -93 -374.5t-255.5 -264.5t-360.5 -96q-197 0 -359 95t-255.5 264t-93.5 376q0 205 92.5 373.5t255 265t360.5 96.5zM825 41q183 0 330.5 88t231 243t83.5 345q0 143 -49.5 268.5t-135 215t-205 141
t-255.5 51.5q-135 0 -254.5 -51.5t-205 -141t-135.5 -215t-50 -268.5q0 -142 50 -267.5t135.5 -215t205 -141.5t254.5 -52zM655 1636q-61 0 -118 -43q-19 -12 -31 6q-4 6 -2 16t8 15q75 60 152 60q63 0 169 -49.5t160 -49.5q72 0 135 58q16 12 29 -4q5 -8 3 -18t-9 -17
q-73 -70 -160 -70q-57 0 -167 48t-169 48z" />
    <glyph glyph-name="Odieresis" unicode="&#xd6;" horiz-adv-x="1652" 
d="M825 1452q148 0 279.5 -56t226 -153t149 -233.5t54.5 -292.5q0 -206 -93 -374.5t-255.5 -264.5t-360.5 -96q-197 0 -359 95t-255.5 264t-93.5 376q0 205 92.5 373.5t255 265t360.5 96.5zM825 41q183 0 330.5 88t231 243t83.5 345q0 143 -49.5 268.5t-135 215t-205 141
t-255.5 51.5q-135 0 -254.5 -51.5t-205 -141t-135.5 -215t-50 -268.5q0 -142 50 -267.5t135.5 -215t205 -141.5t254.5 -52zM592 1585q-21 0 -35 12t-14 33q0 20 14 31.5t35 11.5q20 0 33.5 -11.5t13.5 -31.5q0 -21 -13.5 -33t-33.5 -12zM1071 1585q-21 0 -35 12t-14 33
q0 20 14 31.5t35 11.5q18 0 31.5 -12t13.5 -31q0 -21 -13.5 -33t-31.5 -12z" />
    <glyph glyph-name="multiply" unicode="&#xd7;" 
d="M563 737l-280 283q-6 6 -5.5 17t9.5 20q6 6 16 6t16 -6l281 -283l281 283q6 6 17 5.5t20 -9.5q6 -6 6 -16.5t-6 -16.5l-281 -283l285 -282q6 -6 5.5 -17t-9.5 -20q-6 -6 -16.5 -6t-16.5 6l-285 282l-285 -282q-6 -6 -16.5 -5.5t-19.5 9.5q-6 6 -6 16.5t6 16.5z" />
    <glyph glyph-name="Oslash" unicode="&#xd8;" horiz-adv-x="1652" 
d="M283 233q-166 203 -166 484q0 205 92.5 373.5t255 265t360.5 96.5q146 0 274.5 -54t225.5 -151l88 86q6 6 17 5.5t20 -7.5q6 -6 6 -16.5t-6 -16.5l-90 -88q174 -206 174 -493q0 -206 -93 -374.5t-255.5 -264.5t-360.5 -96q-148 0 -278.5 55.5t-227.5 155.5l-83 -82
q-7 -6 -18.5 -5.5t-20.5 9.5q-15 18 2 35zM825 41q183 0 330.5 88t231 243t83.5 345q0 262 -155 450l-950 -929q88 -94 206 -145.5t254 -51.5zM825 1393q-135 0 -254.5 -51.5t-205 -141t-135.5 -215t-50 -268.5q0 -253 148 -441l952 928q-88 90 -205 139.5t-250 49.5z" />
    <glyph glyph-name="Ugrave" unicode="&#xd9;" horiz-adv-x="1538" 
d="M1260 616v793q0 12 8.5 20.5t21.5 8.5t22 -8.5t9 -20.5v-807q0 -159 -42.5 -280t-117.5 -193t-169 -107.5t-204 -35.5q-123 0 -226 40t-180.5 117t-121 198t-43.5 275v793q0 12 9 20.5t22 8.5t22 -8.5t9 -20.5v-784q0 -277 140.5 -429.5t368.5 -152.5q101 0 185.5 34
t149 102t101 179.5t36.5 257.5zM592 1733l301 -172q6 -3 9 -11t-1 -16q-3 -7 -12 -10t-15 0l-305 162q-9 5 -12.5 15t2.5 23q6 9 16 11.5t17 -2.5z" />
    <glyph glyph-name="Uacute" unicode="&#xda;" horiz-adv-x="1538" 
d="M1260 616v793q0 12 8.5 20.5t21.5 8.5t22 -8.5t9 -20.5v-807q0 -159 -42.5 -280t-117.5 -193t-169 -107.5t-204 -35.5q-123 0 -226 40t-180.5 117t-121 198t-43.5 275v793q0 12 9 20.5t22 8.5t22 -8.5t9 -20.5v-784q0 -277 140.5 -429.5t368.5 -152.5q101 0 185.5 34
t149 102t101 179.5t36.5 257.5zM965 1733q19 11 32 -9q6 -13 2.5 -23t-12.5 -15l-305 -162q-6 -3 -15 0t-12 10q-4 8 -1 16t10 11z" />
    <glyph glyph-name="Ucircumflex" unicode="&#xdb;" horiz-adv-x="1538" 
d="M1260 616v793q0 12 8.5 20.5t21.5 8.5t22 -8.5t9 -20.5v-807q0 -159 -42.5 -280t-117.5 -193t-169 -107.5t-204 -35.5q-123 0 -226 40t-180.5 117t-121 198t-43.5 275v793q0 12 9 20.5t22 8.5t22 -8.5t9 -20.5v-784q0 -277 140.5 -429.5t368.5 -152.5q101 0 185.5 34
t149 102t101 179.5t36.5 257.5zM469 1526q-22 -13 -35 6q-4 8 -2 17t8 12l293 163q15 8 35 8t35 -8l293 -161q7 -3 8 -13.5t-6 -19.5q-15 -15 -33 -4l-297 164z" />
    <glyph glyph-name="Udieresis" unicode="&#xdc;" horiz-adv-x="1538" 
d="M1260 616v793q0 12 8.5 20.5t21.5 8.5t22 -8.5t9 -20.5v-807q0 -159 -42.5 -280t-117.5 -193t-169 -107.5t-204 -35.5q-123 0 -226 40t-180.5 117t-121 198t-43.5 275v793q0 12 9 20.5t22 8.5t22 -8.5t9 -20.5v-784q0 -277 140.5 -429.5t368.5 -152.5q101 0 185.5 34
t149 102t101 179.5t36.5 257.5zM526 1585q-21 0 -35 12t-14 33q0 20 14 31.5t35 11.5q20 0 33.5 -11.5t13.5 -31.5q0 -21 -13.5 -33t-33.5 -12zM1006 1585q-21 0 -35.5 12t-14.5 33q0 20 14.5 31.5t35.5 11.5q18 0 31.5 -12t13.5 -31q0 -21 -13.5 -33t-31.5 -12z" />
    <glyph glyph-name="Yacute" unicode="&#xdd;" horiz-adv-x="1161" 
d="M117 1417l463 -723l467 723q13 21 30 21q16 0 24.5 -14t-1.5 -29l-492 -758v-617q0 -12 -8 -20t-20 -8q-13 0 -22 8t-9 20v617l-488 756q-10 13 -2 29t27 16q17 0 31 -21zM791 1733q19 11 32 -9q6 -13 2.5 -23t-12.5 -15l-305 -162q-6 -3 -15 0t-12 10q-4 8 -1 16t9 11z
" />
    <glyph glyph-name="Thorn" unicode="&#xde;" horiz-adv-x="1177" 
d="M1059 793q0 -66 -17.5 -127t-56 -116.5t-96 -96t-143.5 -64.5t-191 -24q-109 0 -256 10v-355q0 -12 -9 -20t-22 -8t-21.5 8t-8.5 20v1389q0 12 8.5 20.5t21.5 8.5t22 -8.5t9 -20.5v-199q41 0 141 2t125 2q113 0 201 -24.5t142 -64t89 -95.5t48.5 -113.5t13.5 -123.5z
M299 434q147 -10 252 -10q218 0 332 103t114 268q0 79 -24 143t-74 114t-134.5 77.5t-197.5 27.5q-146 0 -268 -4v-719z" />
    <glyph glyph-name="germandbls" unicode="&#xdf;" horiz-adv-x="1103" 
d="M418 119q-13 17 2 35q6 8 17.5 8.5t19.5 -8.5q95 -117 223 -117q100 0 175 72.5t75 185.5q0 57 -24 104.5t-62 81t-84.5 63t-93 58.5t-84.5 60t-62 74.5t-24 94.5q0 50 23.5 92t57 73.5t67.5 62.5t57.5 72t23.5 88q0 77 -62.5 127.5t-148.5 50.5q-135 0 -199.5 -85
t-64.5 -268v-1019q0 -12 -8.5 -20.5t-20.5 -8.5q-13 0 -22 8.5t-9 20.5v1038q0 389 330 389q113 0 189.5 -63.5t76.5 -161.5q0 -55 -24 -101t-58 -77.5t-67.5 -61.5t-57.5 -66.5t-24 -78.5q0 -49 24 -89.5t62.5 -70t85 -56.5t93 -57.5t85 -66t62.5 -88t24 -117.5
q0 -137 -87 -226t-214 -89q-91 0 -160.5 39.5t-111.5 97.5z" />
    <glyph glyph-name="agrave" unicode="&#xe0;" horiz-adv-x="935" 
d="M446 535q172 0 279 -76q0 57 -1 92.5t-5 81.5t-12 74t-21.5 60.5t-34 51t-49.5 35.5t-68.5 24t-89.5 7q-68 0 -121 -15.5t-116 -50.5q-7 -5 -18 -0.5t-15 15.5q-8 21 14 34q126 72 263 72q179 0 255 -92t76 -273v-552q0 -11 -8 -19t-20 -8t-20.5 8t-8.5 19v137
q-123 -170 -342 -170q-129 0 -208 72t-79 192q0 134 97.5 207.5t252.5 73.5zM725 403q-116 82 -274 82q-76 0 -140 -22.5t-108.5 -75.5t-44.5 -129q0 -99 67 -156t170 -57q65 0 119.5 15t94 43.5t64.5 54t52 61.5v184zM317 1436q9 7 20 6.5t17 -8.5l197 -263q5 -6 3.5 -14.5
t-7.5 -13.5q-8 -6 -17.5 -5t-15.5 9l-201 252q-6 9 -5.5 20t9.5 17z" />
    <glyph glyph-name="aacute" unicode="&#xe1;" horiz-adv-x="935" 
d="M446 535q172 0 279 -76q0 57 -1 92.5t-5 81.5t-12 74t-21.5 60.5t-34 51t-49.5 35.5t-68.5 24t-89.5 7q-68 0 -121 -15.5t-116 -50.5q-7 -5 -18 -0.5t-15 15.5q-8 21 14 34q126 72 263 72q179 0 255 -92t76 -273v-552q0 -11 -8 -19t-20 -8t-20.5 8t-8.5 19v137
q-123 -170 -342 -170q-129 0 -208 72t-79 192q0 134 97.5 207.5t252.5 73.5zM725 403q-116 82 -274 82q-76 0 -140 -22.5t-108.5 -75.5t-44.5 -129q0 -99 67 -156t170 -57q65 0 119.5 15t94 43.5t64.5 54t52 61.5v184zM586 1434q6 8 17 8.5t20 -6.5q9 -6 9.5 -17t-5.5 -20
l-201 -252q-6 -8 -15.5 -9t-17.5 5q-6 5 -7.5 13.5t3.5 14.5z" />
    <glyph glyph-name="acircumflex" unicode="&#xe2;" horiz-adv-x="935" 
d="M446 535q172 0 279 -76q0 57 -1 92.5t-5 81.5t-12 74t-21.5 60.5t-34 51t-49.5 35.5t-68.5 24t-89.5 7q-68 0 -121 -15.5t-116 -50.5q-7 -5 -18 -0.5t-15 15.5q-8 21 14 34q126 72 263 72q179 0 255 -92t76 -273v-552q0 -11 -8 -19t-20 -8t-20.5 8t-8.5 19v137
q-123 -170 -342 -170q-129 0 -208 72t-79 192q0 134 97.5 207.5t252.5 73.5zM725 403q-116 82 -274 82q-76 0 -140 -22.5t-108.5 -75.5t-44.5 -129q0 -99 67 -156t170 -57q65 0 119.5 15t94 43.5t64.5 54t52 61.5v184zM229 1198l213 223q11 12 29 11.5t29 -11.5l205 -223
q6 -6 6.5 -17t-6.5 -20q-6 -6 -17 -5t-16 7l-203 215l-207 -215q-14 -14 -33 2q-6 6 -6 16.5t6 16.5z" />
    <glyph glyph-name="atilde" unicode="&#xe3;" horiz-adv-x="935" 
d="M446 535q172 0 279 -76q0 57 -1 92.5t-5 81.5t-12 74t-21.5 60.5t-34 51t-49.5 35.5t-68.5 24t-89.5 7q-68 0 -121 -15.5t-116 -50.5q-7 -5 -18 -0.5t-15 15.5q-8 21 14 34q126 72 263 72q179 0 255 -92t76 -273v-552q0 -11 -8 -19t-20 -8t-20.5 8t-8.5 19v137
q-123 -170 -342 -170q-129 0 -208 72t-79 192q0 134 97.5 207.5t252.5 73.5zM725 403q-116 82 -274 82q-76 0 -140 -22.5t-108.5 -75.5t-44.5 -129q0 -99 67 -156t170 -57q65 0 119.5 15t94 43.5t64.5 54t52 61.5v184zM352 1274q-56 0 -141 -62q-18 -14 -31 2t4 29
q100 82 176 82q40 0 78.5 -24.5t74.5 -49t71 -24.5q59 0 141 71q19 14 31 -4q4 -6 2 -14.5t-8 -13.5q-93 -88 -172 -88q-30 0 -60.5 15t-52 33t-52 33t-61.5 15z" />
    <glyph glyph-name="adieresis" unicode="&#xe4;" horiz-adv-x="935" 
d="M446 535q172 0 279 -76q0 57 -1 92.5t-5 81.5t-12 74t-21.5 60.5t-34 51t-49.5 35.5t-68.5 24t-89.5 7q-68 0 -121 -15.5t-116 -50.5q-7 -5 -18 -0.5t-15 15.5q-8 21 14 34q126 72 263 72q179 0 255 -92t76 -273v-552q0 -11 -8 -19t-20 -8t-20.5 8t-8.5 19v137
q-123 -170 -342 -170q-129 0 -208 72t-79 192q0 134 97.5 207.5t252.5 73.5zM725 403q-116 82 -274 82q-76 0 -140 -22.5t-108.5 -75.5t-44.5 -129q0 -99 67 -156t170 -57q65 0 119.5 15t94 43.5t64.5 54t52 61.5v184zM195 1282q0 17 13 30t32 13q15 0 28 -13t13 -30
q0 -21 -12.5 -34t-28.5 -13q-19 0 -32 13t-13 34zM627 1282q0 17 13 30t32 13q17 0 30 -13t13 -30q0 -21 -12.5 -34t-30.5 -13q-19 0 -32 13t-13 34z" />
    <glyph glyph-name="aring" unicode="&#xe5;" horiz-adv-x="935" 
d="M446 535q172 0 279 -76q0 57 -1 92.5t-5 81.5t-12 74t-21.5 60.5t-34 51t-49.5 35.5t-68.5 24t-89.5 7q-68 0 -121 -15.5t-116 -50.5q-7 -5 -18 -0.5t-15 15.5q-8 21 14 34q126 72 263 72q179 0 255 -92t76 -273v-552q0 -11 -8 -19t-20 -8t-20.5 8t-8.5 19v137
q-123 -170 -342 -170q-129 0 -208 72t-79 192q0 134 97.5 207.5t252.5 73.5zM725 403q-116 82 -274 82q-76 0 -140 -22.5t-108.5 -75.5t-44.5 -129q0 -99 67 -156t170 -57q65 0 119.5 15t94 43.5t64.5 54t52 61.5v184zM254 1257q0 84 58.5 142.5t142.5 58.5q85 0 143.5 -59
t58.5 -142q0 -82 -58.5 -139t-143.5 -57t-143 57t-58 139zM297 1260q0 -68 45.5 -114t112.5 -46q66 0 112.5 46.5t46.5 113.5q0 66 -46.5 112.5t-112.5 46.5q-67 0 -112.5 -46.5t-45.5 -112.5z" />
    <glyph glyph-name="ae" unicode="&#xe6;" horiz-adv-x="1640" 
d="M207 819q-7 -5 -17 -1t-16 16q-9 20 14 34q126 72 263 72q239 0 303 -176q126 176 368 176q181 0 297.5 -114.5t116.5 -299.5q0 -24 -2 -34q0 -11 -9.5 -20t-21.5 -9h-721v-232q53 -93 148 -143.5t223 -50.5q169 0 289 108q7 6 18 5.5t17 -9.5q12 -16 -7 -35
q-58 -60 -144 -92t-177 -32q-127 0 -228.5 48t-166.5 136q-73 -87 -159.5 -131.5t-203.5 -44.5q-135 0 -215 72t-80 192q0 134 97.5 207.5t252.5 73.5q55 0 145 -7.5t134 -15.5q9 192 -52.5 282.5t-228.5 90.5q-68 0 -121 -15.5t-116 -50.5zM1477 512q0 171 -99 272
t-264 101q-118 0 -205.5 -51.5t-136.5 -141.5q10 -62 10 -117v-63h695zM725 461q-168 24 -274 24q-76 0 -140 -22.5t-108.5 -75.5t-44.5 -129q0 -99 67 -156t170 -57q65 0 119.5 15t94 43.5t64.5 54t52 61.5v242z" />
    <glyph glyph-name="ccedilla" unicode="&#xe7;" horiz-adv-x="1005" 
d="M571 -412q-85 0 -165 41q-6 3 -8.5 11t1.5 16q9 15 27 8q72 -35 135 -35q73 0 119.5 30.5t46.5 80.5q0 108 -143 108q-16 0 -26.5 9.5t-10.5 27.5v99q-197 12 -319 142t-122 335q0 201 130.5 340t320.5 139q213 0 334 -96q21 -17 6 -41q-6 -9 -17 -10.5t-20 4.5
q-115 88 -293 88q-166 0 -283.5 -122t-117.5 -302q0 -192 120 -308t306 -116q86 0 162.5 31.5t130.5 85.5q17 16 33 0q17 -17 -3 -37q-58 -66 -145 -100.5t-182 -34.5h-2v-97q200 -3 200 -147q0 -67 -58 -108.5t-157 -41.5z" />
    <glyph glyph-name="egrave" unicode="&#xe8;" horiz-adv-x="1079" 
d="M942 463h-772q1 -196 116 -311t306 -115q85 0 161.5 29.5t131.5 78.5q16 12 30 -2q8 -10 5.5 -20t-9.5 -17q-58 -60 -144 -92t-177 -32q-214 0 -349 131.5t-135 347.5q0 137 50 243.5t155 171t252 64.5q180 0 296 -114t116 -300q0 -24 -2 -34q0 -11 -9.5 -20t-21.5 -9z
M555 885q-173 0 -275 -103.5t-114 -269.5h749q1 171 -97 272t-263 101zM377 1436q9 7 20 6.5t17 -8.5l196 -263q4 -6 3 -14.5t-7 -13.5q-8 -6 -17.5 -5t-15.5 9l-200 252q-6 9 -5.5 20t9.5 17z" />
    <glyph glyph-name="eacute" unicode="&#xe9;" horiz-adv-x="1079" 
d="M942 463h-772q1 -196 116 -311t306 -115q85 0 161.5 29.5t131.5 78.5q16 12 30 -2q8 -10 5.5 -20t-9.5 -17q-58 -60 -144 -92t-177 -32q-214 0 -349 131.5t-135 347.5q0 137 50 243.5t155 171t252 64.5q180 0 296 -114t116 -300q0 -24 -2 -34q0 -11 -9.5 -20t-21.5 -9z
M555 885q-173 0 -275 -103.5t-114 -269.5h749q1 171 -97 272t-263 101zM715 1434q6 8 17 8.5t20 -6.5q9 -6 9.5 -17t-5.5 -20l-201 -252q-6 -8 -15.5 -9t-17.5 5q-6 5 -7 13.5t3 14.5z" />
    <glyph glyph-name="ecircumflex" unicode="&#xea;" horiz-adv-x="1079" 
d="M942 463h-772q1 -196 116 -311t306 -115q85 0 161.5 29.5t131.5 78.5q16 12 30 -2q8 -10 5.5 -20t-9.5 -17q-58 -60 -144 -92t-177 -32q-214 0 -349 131.5t-135 347.5q0 137 50 243.5t155 171t252 64.5q180 0 296 -114t116 -300q0 -24 -2 -34q0 -11 -9.5 -20t-21.5 -9z
M555 885q-173 0 -275 -103.5t-114 -269.5h749q1 171 -97 272t-263 101zM322 1198l213 223q11 12 28.5 11.5t28.5 -11.5l205 -223q6 -6 6.5 -17t-6.5 -20q-6 -6 -17 -5t-16 7l-203 215l-207 -215q-13 -13 -32 2q-6 6 -6 16.5t6 16.5z" />
    <glyph glyph-name="edieresis" unicode="&#xeb;" horiz-adv-x="1079" 
d="M942 463h-772q1 -196 116 -311t306 -115q85 0 161.5 29.5t131.5 78.5q16 12 30 -2q8 -10 5.5 -20t-9.5 -17q-58 -60 -144 -92t-177 -32q-214 0 -349 131.5t-135 347.5q0 137 50 243.5t155 171t252 64.5q180 0 296 -114t116 -300q0 -24 -2 -34q0 -11 -9.5 -20t-21.5 -9z
M555 885q-173 0 -275 -103.5t-114 -269.5h749q1 171 -97 272t-263 101zM283 1282q0 17 13 30t32 13q15 0 28 -13t13 -30q0 -21 -12.5 -34t-28.5 -13q-19 0 -32 13t-13 34zM715 1282q0 17 13 30t32 13q17 0 30 -13t13 -30q0 -21 -12.5 -34t-30.5 -13q-19 0 -32 13t-13 34z
" />
    <glyph glyph-name="igrave" unicode="&#xec;" horiz-adv-x="522" 
d="M289 899v-876q0 -11 -8.5 -19t-20.5 -8t-20.5 8t-8.5 19v876q0 11 8.5 19t20.5 8t20.5 -8t8.5 -19zM66 1436q9 7 19.5 6.5t16.5 -8.5l197 -263q5 -6 3.5 -14.5t-7.5 -13.5q-8 -6 -17.5 -5t-15.5 9l-201 252q-6 9 -5 20t10 17z" />
    <glyph glyph-name="iacute" unicode="&#xed;" horiz-adv-x="522" 
d="M289 899v-876q0 -11 -8.5 -19t-20.5 -8t-20.5 8t-8.5 19v876q0 11 8.5 19t20.5 8t20.5 -8t8.5 -19zM414 1434q6 8 17 8.5t20 -6.5q9 -6 9.5 -17t-5.5 -20l-201 -252q-6 -8 -15.5 -9t-17.5 5q-6 5 -7.5 13.5t3.5 14.5z" />
    <glyph glyph-name="icircumflex" unicode="&#xee;" horiz-adv-x="522" 
d="M289 899v-876q0 -11 -8.5 -19t-20.5 -8t-20.5 8t-8.5 19v876q0 11 8.5 19t20.5 8t20.5 -8t8.5 -19zM25 1198l213 223q11 12 28.5 11.5t28.5 -11.5l205 -223q6 -6 6.5 -17t-6.5 -20q-6 -6 -17 -5t-16 7l-203 215l-207 -215q-13 -13 -32 2q-6 6 -6 16.5t6 16.5z" />
    <glyph glyph-name="idieresis" unicode="&#xef;" horiz-adv-x="522" 
d="M289 899v-876q0 -11 -8.5 -19t-20.5 -8t-20.5 8t-8.5 19v876q0 11 8.5 19t20.5 8t20.5 -8t8.5 -19zM2 1282q0 17 13 30t32 13q15 0 28 -13t13 -30q0 -21 -12.5 -34t-28.5 -13q-19 0 -32 13t-13 34zM434 1282q0 17 13 30t32 13q17 0 30 -13t13 -30q0 -21 -12.5 -34
t-30.5 -13q-19 0 -32 13t-13 34z" />
    <glyph glyph-name="eth" unicode="&#xf0;" horiz-adv-x="1165" 
d="M582 940q134 0 238.5 -69.5t160.5 -192.5q-24 165 -103 311t-198 256l-231 -123q-9 -5 -19 -1t-14 14q-4 11 -0.5 21t12.5 15l209 111q-79 69 -207 131q-8 3 -11 12.5t3 18.5q12 19 49 2q101 -45 215 -137l191 100q22 11 32 -12q4 -11 0.5 -21.5t-12.5 -15.5l-168 -90
q157 -145 243.5 -341t86.5 -405q0 -248 -132 -395t-345 -147q-208 0 -342 135.5t-134 343.5t134 343.5t342 135.5zM582 37q187 0 302.5 134t112.5 359q-9 64 -41 126.5t-83.5 114t-127.5 83t-163 31.5q-182 0 -299 -119t-117 -305t116.5 -305t299.5 -119z" />
    <glyph glyph-name="ntilde" unicode="&#xf1;" horiz-adv-x="1132" 
d="M233 725v-700q0 -12 -8 -20.5t-20 -8.5q-13 0 -22 8.5t-9 20.5v874q0 11 9 19t22 8q12 0 20 -8t8 -19v-117q57 66 156.5 111t198.5 45q197 0 293 -101.5t96 -316.5v-497q0 -11 -8.5 -19t-20.5 -8t-20 8t-8 19v485q0 191 -84 283t-258 92q-102 0 -199 -47.5t-146 -110.5z
M449 1274q-57 0 -142 -62q-18 -14 -31 2q-5 8 -3.5 16t8.5 13q100 82 176 82q40 0 78.5 -24.5t74 -49t70.5 -24.5q59 0 141 71q19 14 31 -4q4 -6 2 -14.5t-8 -13.5q-93 -88 -172 -88q-30 0 -60 15t-51.5 33t-52 33t-61.5 15z" />
    <glyph glyph-name="ograve" unicode="&#xf2;" horiz-adv-x="1165" 
d="M582 940q210 0 343.5 -135.5t133.5 -343.5t-133.5 -343.5t-343.5 -135.5q-208 0 -342 135.5t-134 343.5t134 343.5t342 135.5zM582 37q183 0 299 119t116 305t-116 305t-299 119q-182 0 -299 -119t-117 -305t116.5 -305t299.5 -119zM410 1436q9 7 19.5 6.5t16.5 -8.5
l197 -263q5 -6 3.5 -14.5t-7.5 -13.5q-8 -6 -17.5 -5t-15.5 9l-200 252q-6 9 -5.5 20t9.5 17z" />
    <glyph glyph-name="oacute" unicode="&#xf3;" horiz-adv-x="1165" 
d="M582 940q210 0 343.5 -135.5t133.5 -343.5t-133.5 -343.5t-343.5 -135.5q-208 0 -342 135.5t-134 343.5t134 343.5t342 135.5zM582 37q183 0 299 119t116 305t-116 305t-299 119q-182 0 -299 -119t-117 -305t116.5 -305t299.5 -119zM719 1434q6 8 17 8.5t20 -6.5
q9 -6 9.5 -17t-5.5 -20l-201 -252q-6 -8 -15.5 -9t-17.5 5q-6 5 -7 13.5t3 14.5z" />
    <glyph glyph-name="ocircumflex" unicode="&#xf4;" horiz-adv-x="1165" 
d="M582 940q210 0 343.5 -135.5t133.5 -343.5t-133.5 -343.5t-343.5 -135.5q-208 0 -342 135.5t-134 343.5t134 343.5t342 135.5zM582 37q183 0 299 119t116 305t-116 305t-299 119q-182 0 -299 -119t-117 -305t116.5 -305t299.5 -119zM342 1198l213 223q11 12 28.5 11.5
t28.5 -11.5l205 -223q6 -6 6.5 -17t-6.5 -20q-6 -6 -17 -5t-16 7l-202 215l-207 -215q-14 -14 -33 2q-6 6 -6 16.5t6 16.5z" />
    <glyph glyph-name="otilde" unicode="&#xf5;" horiz-adv-x="1165" 
d="M582 940q210 0 343.5 -135.5t133.5 -343.5t-133.5 -343.5t-343.5 -135.5q-208 0 -342 135.5t-134 343.5t134 343.5t342 135.5zM582 37q183 0 299 119t116 305t-116 305t-299 119q-182 0 -299 -119t-117 -305t116.5 -305t299.5 -119zM465 1274q-56 0 -141 -62
q-18 -14 -31 2t4 29q100 82 176 82q40 0 78.5 -24.5t74 -49t70.5 -24.5q60 0 142 71q18 14 30 -4q4 -6 2 -14.5t-8 -13.5q-93 -88 -172 -88q-30 0 -60 15t-51.5 33t-52 33t-61.5 15z" />
    <glyph glyph-name="odieresis" unicode="&#xf6;" horiz-adv-x="1165" 
d="M582 940q210 0 343.5 -135.5t133.5 -343.5t-133.5 -343.5t-343.5 -135.5q-208 0 -342 135.5t-134 343.5t134 343.5t342 135.5zM582 37q183 0 299 119t116 305t-116 305t-299 119q-182 0 -299 -119t-117 -305t116.5 -305t299.5 -119zM326 1282q0 17 13 30t32 13
q15 0 28 -13t13 -30q0 -21 -12.5 -34t-28.5 -13q-19 0 -32 13t-13 34zM758 1282q0 17 13 30t32 13q17 0 30 -13t13 -30q0 -21 -12.5 -34t-30.5 -13q-19 0 -32 13t-13 34z" />
    <glyph glyph-name="divide" unicode="&#xf7;" 
d="M602 1130q-21 0 -34 14t-13 34q0 18 13 30.5t34 12.5q18 0 30.5 -12.5t12.5 -30.5q0 -19 -12.5 -33.5t-30.5 -14.5zM602 252q-21 0 -34 14t-13 33q0 16 13 29.5t34 13.5q18 0 30.5 -13.5t12.5 -29.5q0 -19 -12.5 -33t-30.5 -14zM1026 711h-852q-9 0 -16.5 8t-7.5 20
q0 9 7.5 17t16.5 8h852q9 0 17 -8.5t8 -20.5q0 -9 -8 -16.5t-17 -7.5z" />
    <glyph glyph-name="oslash" unicode="&#xf8;" horiz-adv-x="1165" 
d="M231 125q-125 131 -125 336q0 208 134 343.5t342 135.5q201 0 336 -129l96 96q16 15 35 -4q6 -6 5 -16.5t-7 -16.5l-97 -96q109 -131 109 -313q0 -208 -133.5 -343.5t-343.5 -135.5q-189 0 -312 108l-100 -100q-6 -6 -17 -5.5t-18 9.5q-6 7 -6 18t6 17zM582 885
q-182 0 -299 -119t-117 -305q0 -180 106 -295l605 604q-118 115 -295 115zM582 37q183 0 299 119t116 305q0 155 -88 270l-600 -602q112 -92 273 -92z" />
    <glyph glyph-name="ugrave" unicode="&#xf9;" horiz-adv-x="1120" 
d="M889 219v680q0 11 8.5 19t20.5 8t20 -8t8 -19v-876q0 -11 -8 -19t-20 -8t-20.5 8t-8.5 19v137q-59 -74 -161.5 -126t-209.5 -52q-183 0 -273.5 101.5t-90.5 313.5v502q0 11 8.5 19t21.5 8q12 0 20.5 -8t8.5 -19v-487q0 -189 78.5 -282t245.5 -93q104 0 203 56.5
t149 125.5zM387 1436q9 7 20 6.5t17 -8.5l197 -263q4 -6 2.5 -14.5t-7.5 -13.5q-18 -14 -32 4l-201 252q-6 9 -5.5 20t9.5 17z" />
    <glyph glyph-name="uacute" unicode="&#xfa;" horiz-adv-x="1120" 
d="M889 219v680q0 11 8.5 19t20.5 8t20 -8t8 -19v-876q0 -11 -8 -19t-20 -8t-20.5 8t-8.5 19v137q-59 -74 -161.5 -126t-209.5 -52q-183 0 -273.5 101.5t-90.5 313.5v502q0 11 8.5 19t21.5 8q12 0 20.5 -8t8.5 -19v-487q0 -189 78.5 -282t245.5 -93q104 0 203 56.5
t149 125.5zM698 1434q6 8 17 8.5t20 -6.5q9 -6 9.5 -17t-5.5 -20l-200 -252q-6 -8 -15.5 -9t-17.5 5q-6 5 -7 13.5t3 14.5z" />
    <glyph glyph-name="ucircumflex" unicode="&#xfb;" horiz-adv-x="1120" 
d="M889 219v680q0 11 8.5 19t20.5 8t20 -8t8 -19v-876q0 -11 -8 -19t-20 -8t-20.5 8t-8.5 19v137q-59 -74 -161.5 -126t-209.5 -52q-183 0 -273.5 101.5t-90.5 313.5v502q0 11 8.5 19t21.5 8q12 0 20.5 -8t8.5 -19v-487q0 -189 78.5 -282t245.5 -93q104 0 203 56.5
t149 125.5zM311 1198l213 223q11 12 29 11.5t29 -11.5l204 -223q6 -6 6.5 -17t-6.5 -20q-6 -6 -16.5 -5t-15.5 7l-203 215l-207 -215q-14 -14 -33 2q-6 6 -6 16.5t6 16.5z" />
    <glyph glyph-name="udieresis" unicode="&#xfc;" horiz-adv-x="1120" 
d="M889 219v680q0 11 8.5 19t20.5 8t20 -8t8 -19v-876q0 -11 -8 -19t-20 -8t-20.5 8t-8.5 19v137q-59 -74 -161.5 -126t-209.5 -52q-183 0 -273.5 101.5t-90.5 313.5v502q0 11 8.5 19t21.5 8q12 0 20.5 -8t8.5 -19v-487q0 -189 78.5 -282t245.5 -93q104 0 203 56.5
t149 125.5zM301 1282q0 17 13 30t32 13q15 0 28 -13t13 -30q0 -21 -12.5 -34t-28.5 -13q-19 0 -32 13t-13 34zM733 1282q0 17 13 30t32 13q17 0 30 -13t13 -30q0 -21 -12.5 -34t-30.5 -13q-19 0 -32 13t-13 34z" />
    <glyph glyph-name="yacute" unicode="&#xfd;" horiz-adv-x="966" 
d="M528 66q8 23 18 48.5t22.5 56.5t19.5 48l270 684q10 23 31 23q16 0 24.5 -13.5t1.5 -31.5l-360 -881q-67 -163 -123 -253t-105.5 -123.5t-113.5 -33.5q-57 0 -123 29q-9 4 -12 15t2 20q10 19 31 12q52 -22 94 -22q79 0 143 71.5t131 235.5l21 49l-445 881q-9 18 0 31.5
t27 13.5q19 0 29 -23l346 -688q26 -48 71 -149zM618 1434q6 8 17 8.5t20 -6.5q9 -6 9.5 -17t-5.5 -20l-200 -252q-6 -8 -15.5 -9t-17.5 5q-6 5 -7 13.5t3 14.5z" />
    <glyph glyph-name="thorn" unicode="&#xfe;" horiz-adv-x="1130" 
d="M233 74v-457q0 -11 -8 -19t-20 -8q-13 0 -22 8t-9 19v1790q0 11 9 19t22 8q12 0 20 -8t8 -19v-616q57 66 155 107.5t200 41.5q202 0 320 -129t118 -336q0 -140 -57.5 -252t-165 -176.5t-246.5 -64.5q-201 0 -324 92zM233 135q137 -98 322 -98q182 0 296 120.5t114 311.5
q0 189 -103.5 302.5t-286.5 113.5q-103 0 -199 -46.5t-143 -109.5v-594z" />
    <glyph glyph-name="ydieresis" unicode="&#xff;" horiz-adv-x="966" 
d="M528 66q8 23 18 48.5t22.5 56.5t19.5 48l270 684q10 23 31 23q16 0 24.5 -13.5t1.5 -31.5l-360 -881q-67 -163 -123 -253t-105.5 -123.5t-113.5 -33.5q-57 0 -123 29q-9 4 -12 15t2 20q10 19 31 12q52 -22 94 -22q79 0 143 71.5t131 235.5l21 49l-445 881q-9 18 0 31.5
t27 13.5q19 0 29 -23l346 -688q26 -48 71 -149zM227 1282q0 17 13 30t32 13q15 0 28 -13t13 -30q0 -21 -12.5 -34t-28.5 -13q-19 0 -32 13t-13 34zM659 1282q0 17 13.5 30t32.5 13q17 0 30 -13t13 -30q0 -21 -12.5 -34t-30.5 -13q-19 0 -32.5 13t-13.5 34z" />
    <glyph glyph-name="Amacron" unicode="&#x100;" horiz-adv-x="1413" 
d="M1063 532h-717l-225 -522q-7 -18 -31 -18q-14 0 -22 13t-2 26l610 1399q7 18 31 18q23 0 30 -18l611 -1399q6 -14 -3 -26.5t-26 -12.5q-22 0 -29 18zM705 1358l-334 -768h667zM987 1608h-563q-9 0 -16 7t-7 19q0 9 7 16t16 7h563q9 0 16 -7.5t7 -19.5q0 -9 -7 -15.5
t-16 -6.5z" />
    <glyph glyph-name="amacron" unicode="&#x101;" horiz-adv-x="935" 
d="M446 535q172 0 279 -76q0 57 -1 92.5t-5 81.5t-12 74t-21.5 60.5t-34 51t-49.5 35.5t-68.5 24t-89.5 7q-68 0 -121 -15.5t-116 -50.5q-7 -5 -18 -0.5t-15 15.5q-8 21 14 34q126 72 263 72q179 0 255 -92t76 -273v-552q0 -11 -8 -19t-20 -8t-20.5 8t-8.5 19v137
q-123 -170 -342 -170q-129 0 -208 72t-79 192q0 134 97.5 207.5t252.5 73.5zM725 403q-116 82 -274 82q-76 0 -140 -22.5t-108.5 -75.5t-44.5 -129q0 -99 67 -156t170 -57q65 0 119.5 15t94 43.5t64.5 54t52 61.5v184zM694 1278h-448q-11 0 -18 8t-7 21q0 9 7.5 15.5
t17.5 6.5h448q9 0 16 -7t7 -19q0 -10 -7 -17.5t-16 -7.5z" />
    <glyph glyph-name="Abreve" unicode="&#x102;" horiz-adv-x="1413" 
d="M1063 532h-717l-225 -522q-7 -18 -31 -18q-14 0 -22 13t-2 26l610 1399q7 18 31 18q23 0 30 -18l611 -1399q6 -14 -3 -26.5t-26 -12.5q-22 0 -29 18zM705 1358l-334 -768h667zM711 1548q-107 0 -187.5 45t-124.5 101q-15 20 -2 35q8 7 18 5.5t15 -8.5q114 -124 281 -124
q162 0 274 124q5 6 14 7.5t15 -4.5q15 -12 0 -33q-50 -64 -127.5 -106t-175.5 -42z" />
    <glyph glyph-name="abreve" unicode="&#x103;" horiz-adv-x="935" 
d="M446 535q172 0 279 -76q0 57 -1 92.5t-5 81.5t-12 74t-21.5 60.5t-34 51t-49.5 35.5t-68.5 24t-89.5 7q-68 0 -121 -15.5t-116 -50.5q-7 -5 -18 -0.5t-15 15.5q-8 21 14 34q126 72 263 72q179 0 255 -92t76 -273v-552q0 -11 -8 -19t-20 -8t-20.5 8t-8.5 19v137
q-123 -170 -342 -170q-129 0 -208 72t-79 192q0 134 97.5 207.5t252.5 73.5zM725 403q-116 82 -274 82q-76 0 -140 -22.5t-108.5 -75.5t-44.5 -129q0 -99 67 -156t170 -57q65 0 119.5 15t94 43.5t64.5 54t52 61.5v184zM469 1204q-92 0 -157.5 43.5t-106.5 98.5q-13 17 2 32
q5 6 14.5 6t14.5 -6q104 -123 235 -123t231 123q14 14 29 0q12 -12 -2 -30q-113 -144 -260 -144z" />
    <glyph glyph-name="Aogonek" unicode="&#x104;" horiz-adv-x="1413" 
d="M1063 532h-717l-225 -522q-7 -18 -31 -18q-14 0 -22 13t-2 26l610 1399q7 18 31 18q23 0 30 -18l606 -1391q6 -14 -2.5 -26.5t-23.5 -12.5h-8q-100 -5 -179 -65t-79 -146q0 -43 18.5 -74t46.5 -46.5t54.5 -22t50.5 -6.5q41 0 77 10q23 8 31 -12q3 -6 -1 -15t-11 -12
q-58 -21 -107 -21q-36 0 -71.5 9t-69.5 29t-55 58.5t-21 90.5q0 99 87.5 167t203.5 79zM705 1358l-334 -768h667z" />
    <glyph glyph-name="aogonek" unicode="&#x105;" horiz-adv-x="935" 
d="M657 -360q42 0 78 10q22 7 31 -10q7 -21 -12 -29q-58 -21 -107 -21q-36 0 -71.5 9t-69.5 29t-55 58.5t-21 90.5q0 100 89 168t206 78v137q-123 -170 -342 -170q-129 0 -208 72t-79 192q0 134 97.5 207.5t252.5 73.5q172 0 279 -76q0 57 -1 92.5t-5 81.5t-12 74
t-21.5 60.5t-34 51t-49.5 35.5t-68.5 24t-89.5 7q-68 0 -121 -15.5t-116 -50.5q-7 -5 -18 -0.5t-15 15.5q-8 21 14 34q126 72 263 72q179 0 255 -92t76 -273v-548q0 -11 -8 -19t-20 -8h-6q-100 -3 -180.5 -63.5t-80.5 -147.5q0 -43 18.5 -74t46.5 -46.5t54.5 -22t50.5 -6.5z
M725 403q-116 82 -274 82q-76 0 -140 -22.5t-108.5 -75.5t-44.5 -129q0 -99 67 -156t170 -57q65 0 119.5 15t94 43.5t64.5 54t52 61.5v184z" />
    <glyph glyph-name="Cacute" unicode="&#x106;" horiz-adv-x="1345" 
d="M811 1393q-186 0 -330.5 -89t-222.5 -242.5t-78 -344.5q0 -304 181 -490t470 -186q225 0 386 123q23 17 38 -2q8 -11 5.5 -22.5t-11.5 -18.5q-75 -65 -189 -102t-233 -37q-156 0 -288 52.5t-225 147.5t-145 232.5t-52 302.5q0 206 85 372.5t244 264.5t363 98
q253 0 414 -119q20 -16 6 -37q-7 -9 -18.5 -10.5t-18.5 4.5q-145 103 -381 103zM999 1733q7 5 17 2.5t16 -11.5q6 -13 2.5 -23t-12.5 -15l-305 -162q-6 -3 -15 0t-12 10q-4 8 -1 16t9 11z" />
    <glyph glyph-name="cacute" unicode="&#x107;" horiz-adv-x="1005" 
d="M567 885q-166 0 -283.5 -122t-117.5 -302q0 -192 120 -308t306 -116q86 0 162.5 31.5t130.5 85.5q17 16 33 0q17 -17 -3 -37q-58 -66 -145 -100.5t-182 -34.5q-213 0 -347.5 131.5t-134.5 347.5q0 201 130.5 340t320.5 139q213 0 334 -96q21 -17 6 -41q-6 -9 -17 -10.5
t-20 4.5q-115 88 -293 88zM702 1434q6 8 17 8.5t20 -6.5q9 -6 9.5 -17t-5.5 -20l-200 -252q-6 -8 -15.5 -9t-17.5 5q-6 5 -7 13.5t3 14.5z" />
    <glyph glyph-name="Ccircumflex" unicode="&#x108;" horiz-adv-x="1345" 
d="M811 1393q-186 0 -330.5 -89t-222.5 -242.5t-78 -344.5q0 -304 181 -490t470 -186q225 0 386 123q23 17 38 -2q8 -11 5.5 -22.5t-11.5 -18.5q-75 -65 -189 -102t-233 -37q-156 0 -288 52.5t-225 147.5t-145 232.5t-52 302.5q0 206 85 372.5t244 264.5t363 98
q253 0 414 -119q20 -16 6 -37q-7 -9 -18.5 -10.5t-18.5 4.5q-145 103 -381 103zM510 1526q-22 -13 -35 6q-4 8 -2 17t8 12l293 163q15 8 35 8t35 -8l293 -161q7 -3 8 -13.5t-6 -19.5q-15 -15 -33 -4l-297 164z" />
    <glyph glyph-name="ccircumflex" unicode="&#x109;" horiz-adv-x="1005" 
d="M567 885q-166 0 -283.5 -122t-117.5 -302q0 -192 120 -308t306 -116q86 0 162.5 31.5t130.5 85.5q17 16 33 0q17 -17 -3 -37q-58 -66 -145 -100.5t-182 -34.5q-213 0 -347.5 131.5t-134.5 347.5q0 201 130.5 340t320.5 139q213 0 334 -96q21 -17 6 -41q-6 -9 -17 -10.5
t-20 4.5q-115 88 -293 88zM330 1198l213 223q11 12 28.5 11.5t28.5 -11.5l205 -223q6 -6 6.5 -17t-6.5 -20q-6 -6 -17 -5t-16 7l-203 215l-207 -215q-13 -13 -32 2q-6 6 -6 16.5t6 16.5z" />
    <glyph glyph-name="Cdotaccent" unicode="&#x10a;" horiz-adv-x="1345" 
d="M811 1393q-186 0 -330.5 -89t-222.5 -242.5t-78 -344.5q0 -304 181 -490t470 -186q225 0 386 123q23 17 38 -2q8 -11 5.5 -22.5t-11.5 -18.5q-75 -65 -189 -102t-233 -37q-156 0 -288 52.5t-225 147.5t-145 232.5t-52 302.5q0 206 85 372.5t244 264.5t363 98
q253 0 414 -119q20 -16 6 -37q-7 -9 -18.5 -10.5t-18.5 4.5q-145 103 -381 103zM780 1583q-22 0 -36.5 13t-14.5 36q0 21 14.5 33t36.5 12q18 0 31.5 -12t13.5 -33q0 -22 -13.5 -35.5t-31.5 -13.5z" />
    <glyph glyph-name="cdotaccent" unicode="&#x10b;" horiz-adv-x="1005" 
d="M567 885q-166 0 -283.5 -122t-117.5 -302q0 -192 120 -308t306 -116q86 0 162.5 31.5t130.5 85.5q17 16 33 0q17 -17 -3 -37q-58 -66 -145 -100.5t-182 -34.5q-213 0 -347.5 131.5t-134.5 347.5q0 201 130.5 340t320.5 139q213 0 334 -96q21 -17 6 -41q-6 -9 -17 -10.5
t-20 4.5q-115 88 -293 88zM584 1241q-19 0 -33 13.5t-14 33.5q0 19 14 32t33 13q17 0 30 -13t13 -32q0 -20 -12.5 -33.5t-30.5 -13.5z" />
    <glyph glyph-name="Ccaron" unicode="&#x10c;" horiz-adv-x="1345" 
d="M811 1393q-186 0 -330.5 -89t-222.5 -242.5t-78 -344.5q0 -304 181 -490t470 -186q225 0 386 123q23 17 38 -2q8 -11 5.5 -22.5t-11.5 -18.5q-75 -65 -189 -102t-233 -37q-156 0 -288 52.5t-225 147.5t-145 232.5t-52 302.5q0 206 85 372.5t244 264.5t363 98
q253 0 414 -119q20 -16 6 -37q-7 -9 -18.5 -10.5t-18.5 4.5q-145 103 -381 103zM1137 1700l-291 -162q-39 -18 -74 0l-291 162q-6 3 -8 13t4 18q4 7 15 8t18 -4l301 -164l297 164q22 13 37 -4q5 -6 2 -16.5t-10 -14.5z" />
    <glyph glyph-name="ccaron" unicode="&#x10d;" horiz-adv-x="1005" 
d="M567 885q-166 0 -283.5 -122t-117.5 -302q0 -192 120 -308t306 -116q86 0 162.5 31.5t130.5 85.5q17 16 33 0q17 -17 -3 -37q-58 -66 -145 -100.5t-182 -34.5q-213 0 -347.5 131.5t-134.5 347.5q0 201 130.5 340t320.5 139q213 0 334 -96q21 -17 6 -41q-6 -9 -17 -10.5
t-20 4.5q-115 88 -293 88zM823 1399l-211 -223q-11 -12 -28.5 -11.5t-28.5 11.5l-207 223q-16 19 2 37q4 6 14 6t15 -6l207 -228l205 226q13 13 32 -2q6 -6 6 -16.5t-6 -16.5z" />
    <glyph glyph-name="Dcaron" unicode="&#x10e;" horiz-adv-x="1505" 
d="M584 1440q167 0 303 -37.5t228.5 -102t155 -154.5t90.5 -191.5t28 -215.5q0 -156 -52.5 -290t-152.5 -235.5t-258.5 -159.5t-358.5 -58q-51 0 -145 2t-148 2q-15 0 -25.5 11t-10.5 26v1360q0 15 10.5 26t25.5 11q19 0 129 3t181 3zM299 57q37 0 78 -0.5t73.5 -1t59 -1
t42.5 -1t17 -0.5q148 0 272 35t212.5 97.5t150 148.5t91.5 188t30 217q0 134 -43 247.5t-130.5 203.5t-233.5 141t-338 51q-66 0 -151.5 -3t-129.5 -3v-1319zM1016 1700l-291 -162q-39 -18 -74 0l-291 162q-6 3 -8 13t4 18q4 7 15 8t18 -4l301 -164l297 164q22 13 37 -4
q5 -6 2 -16.5t-10 -14.5z" />
    <glyph glyph-name="dcaron" unicode="&#x10f;" horiz-adv-x="1132" 
d="M956 1407v-1384q0 -11 -8 -19t-20 -8t-20.5 8t-8.5 19v122q-59 -69 -149.5 -115t-186.5 -46q-207 0 -332 129.5t-125 345.5q0 211 142 346t356 135q172 0 295 -92v559q0 11 8.5 19t20.5 8t20 -8t8 -19zM899 791q-135 94 -295 94q-187 0 -312.5 -118.5t-125.5 -305.5
q0 -194 111 -308t294 -114q94 0 187 51t141 113v588zM1214 1341q0 38 -10 68q-3 10 4 19.5t23 9.5q21 0 31 -29q8 -32 8 -61q0 -85 -33 -149t-84 -95q-19 -9 -31 6q-4 6 -3 14t7 13q40 31 64 85.5t24 118.5z" />
    <glyph glyph-name="Dcroat" unicode="&#x110;" horiz-adv-x="1558" 
d="M328 0q-15 0 -26 11t-11 26v670h-244q-11 0 -19 8t-8 20q0 11 8 19t19 8h244v635q0 15 11 26t26 11q20 0 129 3t180 3q167 0 303 -37.5t228.5 -102t155 -154.5t90.5 -191.5t28 -215.5q0 -156 -52 -290t-152 -235.5t-258.5 -159.5t-358.5 -58q-49 0 -144 2t-149 2zM352 57
q37 0 78.5 -0.5t74 -1t59.5 -1t43.5 -1t17.5 -0.5q183 0 328.5 53.5t237 147.5t139.5 217.5t48 267.5q0 134 -43 247.5t-130.5 203.5t-233.5 141t-338 51q-66 0 -151.5 -3t-129.5 -3v-614h398q9 0 16.5 -8.5t7.5 -18.5q0 -12 -7.5 -20t-16.5 -8h-398v-650z" />
    <glyph glyph-name="dcroat" unicode="&#x111;" horiz-adv-x="1132" 
d="M604 940q172 0 295 -92v287h-377q-9 0 -15.5 7t-6.5 17t6.5 17.5t15.5 7.5h377v223q0 11 8.5 19t20.5 8t20 -8t8 -19v-223h209q9 0 16 -7.5t7 -17.5t-7 -17t-16 -7h-209v-1112q0 -11 -8 -19t-20 -8t-20.5 8t-8.5 19v122q-59 -69 -149.5 -115t-186.5 -46
q-207 0 -332 129.5t-125 345.5q0 211 142 346t356 135zM899 791q-135 94 -295 94q-187 0 -312.5 -118.5t-125.5 -305.5q0 -194 111 -308t294 -114q94 0 187 51t141 113v588z" />
    <glyph glyph-name="Emacron" unicode="&#x112;" horiz-adv-x="1177" 
d="M1010 57q11 0 18.5 -8t7.5 -20t-7.5 -20.5t-18.5 -8.5h-736q-15 0 -25.5 11t-10.5 26v1360q0 15 10.5 26t25.5 11h715q11 0 19 -8.5t8 -20.5t-8 -20.5t-19 -8.5h-690v-618h629q11 0 18.5 -8.5t7.5 -20.5t-7.5 -20.5t-18.5 -8.5h-629v-643h711zM907 1608h-563
q-9 0 -15.5 7t-6.5 19q0 9 6.5 16t15.5 7h563q9 0 16 -7.5t7 -19.5q0 -9 -7 -15.5t-16 -6.5z" />
    <glyph glyph-name="emacron" unicode="&#x113;" horiz-adv-x="1079" 
d="M942 463h-772q1 -196 116 -311t306 -115q85 0 161.5 29.5t131.5 78.5q16 12 30 -2q8 -10 5.5 -20t-9.5 -17q-58 -60 -144 -92t-177 -32q-214 0 -349 131.5t-135 347.5q0 137 50 243.5t155 171t252 64.5q180 0 296 -114t116 -300q0 -24 -2 -34q0 -11 -9.5 -20t-21.5 -9z
M555 885q-173 0 -275 -103.5t-114 -269.5h749q1 171 -97 272t-263 101zM768 1278h-449q-24 0 -24 29q0 9 7 15.5t17 6.5h449q9 0 16 -7t7 -19q0 -10 -7 -17.5t-16 -7.5z" />
    <glyph glyph-name="Edotaccent" unicode="&#x116;" horiz-adv-x="1177" 
d="M1010 57q11 0 18.5 -8t7.5 -20t-7.5 -20.5t-18.5 -8.5h-736q-15 0 -25.5 11t-10.5 26v1360q0 15 10.5 26t25.5 11h715q11 0 19 -8.5t8 -20.5t-8 -20.5t-19 -8.5h-690v-618h629q11 0 18.5 -8.5t7.5 -20.5t-7.5 -20.5t-18.5 -8.5h-629v-643h711zM635 1583q-22 0 -36.5 13
t-14.5 36q0 21 14.5 33t36.5 12q18 0 31.5 -12t13.5 -33q0 -22 -13.5 -35.5t-31.5 -13.5z" />
    <glyph glyph-name="edotaccent" unicode="&#x117;" horiz-adv-x="1079" 
d="M942 463h-772q1 -196 116 -311t306 -115q85 0 161.5 29.5t131.5 78.5q16 12 30 -2q8 -10 5.5 -20t-9.5 -17q-58 -60 -144 -92t-177 -32q-214 0 -349 131.5t-135 347.5q0 137 50 243.5t155 171t252 64.5q180 0 296 -114t116 -300q0 -24 -2 -34q0 -11 -9.5 -20t-21.5 -9z
M555 885q-173 0 -275 -103.5t-114 -269.5h749q1 171 -97 272t-263 101zM543 1241q-19 0 -33 13.5t-14 33.5q0 19 14 32t33 13q17 0 30 -13t13 -32q0 -20 -12.5 -33.5t-30.5 -13.5z" />
    <glyph glyph-name="Eogonek" unicode="&#x118;" horiz-adv-x="1177" 
d="M903 -360q42 0 78 10q23 8 31 -12q3 -6 -1.5 -15t-11.5 -12q-58 -21 -106 -21q-36 0 -71.5 9t-69.5 29t-55 58.5t-21 90.5q0 76 53.5 135t136.5 88h-592q-15 0 -25.5 11t-10.5 26v1360q0 15 10.5 26t25.5 11h715q11 0 19 -8.5t8 -20.5t-8 -20.5t-19 -8.5h-690v-618h629
q11 0 18.5 -8.5t7.5 -20.5t-7.5 -20.5t-18.5 -8.5h-629v-643h711q11 0 18.5 -8t7.5 -20t-7.5 -20.5t-18.5 -8.5h-13q-102 -3 -183 -63.5t-81 -147.5q0 -43 18.5 -74t46.5 -46.5t54.5 -22t50.5 -6.5z" />
    <glyph glyph-name="eogonek" unicode="&#x119;" horiz-adv-x="1079" 
d="M616 -360q42 0 78 10q22 7 31 -10q7 -21 -12 -29q-58 -21 -107 -21q-36 0 -71.5 9t-69.5 29t-55 58.5t-21 90.5q0 66 41 120.5t109 86.5q-194 15 -313.5 144.5t-119.5 332.5q0 137 50 243.5t155 171t252 64.5q180 0 296 -114t116 -300q0 -24 -2 -34q0 -11 -9.5 -20
t-21.5 -9h-772q1 -196 116 -311t306 -115q85 0 161.5 29.5t131.5 78.5q16 12 30 -2q8 -10 5.5 -20t-9.5 -17q-111 -114 -299 -124q-71 -25 -118.5 -76.5t-47.5 -116.5q0 -43 18.5 -74t46.5 -46.5t54.5 -22t50.5 -6.5zM555 885q-173 0 -275 -103.5t-114 -269.5h749
q1 171 -97 272t-263 101z" />
    <glyph glyph-name="Ecaron" unicode="&#x11a;" horiz-adv-x="1177" 
d="M1010 57q11 0 18.5 -8t7.5 -20t-7.5 -20.5t-18.5 -8.5h-736q-15 0 -25.5 11t-10.5 26v1360q0 15 10.5 26t25.5 11h715q11 0 19 -8.5t8 -20.5t-8 -20.5t-19 -8.5h-690v-618h629q11 0 18.5 -8.5t7.5 -20.5t-7.5 -20.5t-18.5 -8.5h-629v-643h711zM973 1700l-291 -162
q-39 -18 -74 0l-291 162q-6 3 -8 13t4 18q4 7 15 8t18 -4l301 -164l297 164q22 13 37 -4q5 -6 2 -16.5t-10 -14.5z" />
    <glyph glyph-name="ecaron" unicode="&#x11b;" horiz-adv-x="1079" 
d="M942 463h-772q1 -196 116 -311t306 -115q85 0 161.5 29.5t131.5 78.5q16 12 30 -2q8 -10 5.5 -20t-9.5 -17q-58 -60 -144 -92t-177 -32q-214 0 -349 131.5t-135 347.5q0 137 50 243.5t155 171t252 64.5q180 0 296 -114t116 -300q0 -24 -2 -34q0 -11 -9.5 -20t-21.5 -9z
M555 885q-173 0 -275 -103.5t-114 -269.5h749q1 171 -97 272t-263 101zM801 1399l-211 -223q-11 -12 -29 -11.5t-29 11.5l-206 223q-16 19 2 37q4 6 13.5 6t14.5 -6l207 -228l205 226q14 14 33 -2q6 -6 6 -16.5t-6 -16.5z" />
    <glyph glyph-name="Gcircumflex" unicode="&#x11c;" horiz-adv-x="1488" 
d="M819 41q131 0 264 46t209 122v397h-420q-11 0 -18.5 8.5t-7.5 20.5t7.5 20.5t18.5 8.5h443q15 0 26 -11t11 -26v-430q0 -18 -15 -33q-93 -84 -240 -133t-282 -49q-311 0 -504.5 201.5t-193.5 533.5q0 153 50 288.5t139 234t218.5 155.5t280.5 57q253 0 418 -117
q24 -19 8 -41q-6 -9 -18 -10.5t-21 4.5q-141 105 -379 105q-187 0 -332 -89t-223 -242.5t-78 -344.5q0 -305 177 -490.5t462 -185.5zM510 1526q-22 -13 -35 6q-4 8 -2 17t8 12l293 163q15 8 35 8t35 -8l293 -161q7 -3 8 -13.5t-6 -19.5q-15 -15 -33 -4l-297 164z" />
    <glyph glyph-name="gcircumflex" unicode="&#x11d;" horiz-adv-x="997" 
d="M489 147q206 0 330.5 -75t124.5 -213q0 -136 -124.5 -210.5t-330.5 -74.5q-207 0 -330.5 74t-123.5 211q0 105 76 175t211 97q-35 38 -35 94q0 62 39 101q-90 39 -141.5 115t-51.5 175q0 140 98.5 232t255.5 92q139 0 232 -74l225 64q12 3 22.5 -5.5t10.5 -21.5
q0 -9 -5.5 -16.5t-13.5 -9.5l-192 -52q76 -85 76 -209q0 -139 -99 -230t-256 -91q-67 0 -116 14q-29 -33 -29 -84q0 -52 37 -86q70 8 110 8zM489 -371q180 0 287 60.5t107 169.5t-107.5 171t-286.5 62q-177 0 -285 -62t-108 -171q0 -107 108 -168.5t285 -61.5zM487 350
q130 0 211.5 75t81.5 191t-82.5 192.5t-210.5 76.5t-210 -76.5t-82 -192.5t81 -191t211 -75zM256 1198l213 223q11 12 28.5 11.5t28.5 -11.5l205 -223q6 -6 6.5 -17t-6.5 -20q-6 -6 -17 -5t-16 7l-202 215l-207 -215q-14 -14 -33 2q-6 6 -6 16.5t6 16.5z" />
    <glyph glyph-name="Gbreve" unicode="&#x11e;" horiz-adv-x="1488" 
d="M819 41q131 0 264 46t209 122v397h-420q-11 0 -18.5 8.5t-7.5 20.5t7.5 20.5t18.5 8.5h443q15 0 26 -11t11 -26v-430q0 -18 -15 -33q-93 -84 -240 -133t-282 -49q-311 0 -504.5 201.5t-193.5 533.5q0 153 50 288.5t139 234t218.5 155.5t280.5 57q253 0 418 -117
q24 -19 8 -41q-6 -9 -18 -10.5t-21 4.5q-141 105 -379 105q-187 0 -332 -89t-223 -242.5t-78 -344.5q0 -305 177 -490.5t462 -185.5zM821 1548q-107 0 -187 45t-124 101q-15 20 -2 35q8 7 18 5.5t15 -8.5q114 -124 280 -124q163 0 275 124q5 6 13.5 7.5t14.5 -4.5
q15 -12 0 -33q-50 -64 -127.5 -106t-175.5 -42z" />
    <glyph glyph-name="gbreve" unicode="&#x11f;" horiz-adv-x="997" 
d="M489 147q206 0 330.5 -75t124.5 -213q0 -136 -124.5 -210.5t-330.5 -74.5q-207 0 -330.5 74t-123.5 211q0 105 76 175t211 97q-35 38 -35 94q0 62 39 101q-90 39 -141.5 115t-51.5 175q0 140 98.5 232t255.5 92q139 0 232 -74l225 64q12 3 22.5 -5.5t10.5 -21.5
q0 -9 -5.5 -16.5t-13.5 -9.5l-192 -52q76 -85 76 -209q0 -139 -99 -230t-256 -91q-67 0 -116 14q-29 -33 -29 -84q0 -52 37 -86q70 8 110 8zM489 -371q180 0 287 60.5t107 169.5t-107.5 171t-286.5 62q-177 0 -285 -62t-108 -171q0 -107 108 -168.5t285 -61.5zM487 350
q130 0 211.5 75t81.5 191t-82.5 192.5t-210.5 76.5t-210 -76.5t-82 -192.5t81 -191t211 -75zM496 1204q-92 0 -158 43.5t-107 98.5q-13 17 2 32q4 6 14 6t15 -6q104 -123 236 -123q131 0 231 123q15 14 29 0q12 -12 -2 -30q-113 -144 -260 -144z" />
    <glyph glyph-name="Gdotaccent" unicode="&#x120;" horiz-adv-x="1488" 
d="M819 41q131 0 264 46t209 122v397h-420q-11 0 -18.5 8.5t-7.5 20.5t7.5 20.5t18.5 8.5h443q15 0 26 -11t11 -26v-430q0 -18 -15 -33q-93 -84 -240 -133t-282 -49q-311 0 -504.5 201.5t-193.5 533.5q0 153 50 288.5t139 234t218.5 155.5t280.5 57q253 0 418 -117
q24 -19 8 -41q-6 -9 -18 -10.5t-21 4.5q-141 105 -379 105q-187 0 -332 -89t-223 -242.5t-78 -344.5q0 -305 177 -490.5t462 -185.5zM795 1583q-22 0 -37 13t-15 36q0 21 14.5 33t37.5 12q18 0 31.5 -12t13.5 -33q0 -22 -13.5 -35.5t-31.5 -13.5z" />
    <glyph glyph-name="gdotaccent" unicode="&#x121;" horiz-adv-x="997" 
d="M489 147q206 0 330.5 -75t124.5 -213q0 -136 -124.5 -210.5t-330.5 -74.5q-207 0 -330.5 74t-123.5 211q0 105 76 175t211 97q-35 38 -35 94q0 62 39 101q-90 39 -141.5 115t-51.5 175q0 140 98.5 232t255.5 92q139 0 232 -74l225 64q12 3 22.5 -5.5t10.5 -21.5
q0 -9 -5.5 -16.5t-13.5 -9.5l-192 -52q76 -85 76 -209q0 -139 -99 -230t-256 -91q-67 0 -116 14q-29 -33 -29 -84q0 -52 37 -86q70 8 110 8zM489 -371q180 0 287 60.5t107 169.5t-107.5 171t-286.5 62q-177 0 -285 -62t-108 -171q0 -107 108 -168.5t285 -61.5zM487 350
q130 0 211.5 75t81.5 191t-82.5 192.5t-210.5 76.5t-210 -76.5t-82 -192.5t81 -191t211 -75zM496 1241q-19 0 -33 13.5t-14 33.5q0 19 14 32t33 13q17 0 30 -13t13 -32q0 -20 -12.5 -33.5t-30.5 -13.5z" />
    <glyph glyph-name="Gcommaaccent" unicode="&#x122;" horiz-adv-x="1488" 
d="M819 41q131 0 264 46t209 122v397h-420q-11 0 -18.5 8.5t-7.5 20.5t7.5 20.5t18.5 8.5h443q15 0 26 -11t11 -26v-430q0 -18 -15 -33q-93 -84 -240 -133t-282 -49q-311 0 -504.5 201.5t-193.5 533.5q0 153 50 288.5t139 234t218.5 155.5t280.5 57q253 0 418 -117
q24 -19 8 -41q-6 -9 -18 -10.5t-21 4.5q-141 105 -379 105q-187 0 -332 -89t-223 -242.5t-78 -344.5q0 -305 177 -490.5t462 -185.5zM825 -246q0 64 -45 84q-7 4 -8 11t10 14q20 10 39 2q62 -23 62 -98q0 -126 -129 -175q-22 -5 -27 11q-5 15 10 22q88 42 88 129z" />
    <glyph glyph-name="gcommaaccent" unicode="&#x123;" horiz-adv-x="997" 
d="M489 147q206 0 330.5 -75t124.5 -213q0 -136 -124.5 -210.5t-330.5 -74.5q-207 0 -330.5 74t-123.5 211q0 105 76 175t211 97q-35 38 -35 94q0 62 39 101q-90 39 -141.5 115t-51.5 175q0 140 98.5 232t255.5 92q139 0 232 -74l225 64q12 3 22.5 -5.5t10.5 -21.5
q0 -9 -5.5 -16.5t-13.5 -9.5l-192 -52q76 -85 76 -209q0 -139 -99 -230t-256 -91q-67 0 -116 14q-29 -33 -29 -84q0 -52 37 -86q70 8 110 8zM489 -371q180 0 287 60.5t107 169.5t-107.5 171t-286.5 62q-177 0 -285 -62t-108 -171q0 -107 108 -168.5t285 -61.5zM487 350
q130 0 211.5 75t81.5 191t-82.5 192.5t-210.5 76.5t-210 -76.5t-82 -192.5t81 -191t211 -75zM473 1264q0 -64 45 -84q7 -4 8 -11t-10 -14q-20 -10 -39 -2q-61 23 -61 98q0 69 33.5 109.5t95.5 64.5q21 5 26 -10t-10 -22q-88 -42 -88 -129z" />
    <glyph glyph-name="Hcircumflex" unicode="&#x124;" horiz-adv-x="1581" 
d="M1343 1411v-1393q0 -12 -8 -20t-20 -8q-13 0 -22 8t-9 20v684h-985v-684q0 -12 -9 -20t-22 -8t-21.5 8t-8.5 20v1391q0 12 8.5 20.5t21.5 8.5t22 -8.5t9 -20.5v-649h985v651q0 11 9 19t22 8q12 0 20 -8t8 -19zM492 1526q-22 -13 -35 6q-4 8 -2 17t8 12l293 163
q34 17 69 0l293 -161q7 -3 8 -13.5t-6 -19.5q-15 -15 -33 -4l-296 164z" />
    <glyph glyph-name="hcircumflex" unicode="&#x125;" horiz-adv-x="1132" 
d="M233 725v-700q0 -12 -8 -20.5t-20 -8.5q-13 0 -22 8.5t-9 20.5v1382q0 11 9 19t22 8q12 0 20 -8t8 -19v-625q58 67 157.5 111.5t197.5 44.5q197 0 293 -101.5t96 -316.5v-497q0 -11 -8.5 -19t-20.5 -8t-20 8t-8 19v485q0 191 -84 283t-258 92q-102 0 -200 -47.5
t-145 -110.5zM37 1526q-22 -13 -35 6q-4 8 -2 17t8 12l293 163q15 8 35 8t35 -8l293 -161q7 -3 8 -13.5t-6 -19.5q-15 -15 -33 -4l-297 164z" />
    <glyph glyph-name="Hbar" unicode="&#x126;" horiz-adv-x="1601" 
d="M279 -8q-13 0 -22 8t-9 20v1059h-162q-11 0 -19 8.5t-8 20.5q0 10 8.5 18.5t18.5 8.5h162v274q0 12 9 20.5t22 8.5t21.5 -8.5t8.5 -20.5v-274h985v276q0 11 9 19t22 8q12 0 20.5 -8t8.5 -19v-276h166q9 0 16.5 -8.5t7.5 -18.5q0 -12 -7.5 -20.5t-16.5 -8.5h-166v-1059
q0 -12 -8.5 -20t-20.5 -8q-13 0 -22 8t-9 20v682h-985v-682q0 -12 -8.5 -20t-21.5 -8zM1294 760v319h-985v-319h985z" />
    <glyph glyph-name="hbar" unicode="&#x127;" horiz-adv-x="1144" 
d="M217 -4q-13 0 -22 8.5t-9 20.5v1085h-247q-9 0 -17 8.5t-8 20.5q0 10 8 18t17 8h247v242q0 11 9 19t22 8q12 0 20.5 -8t8.5 -19v-242h348q9 0 16.5 -8t7.5 -18q0 -12 -7.5 -20.5t-16.5 -8.5h-348v-328q58 67 157 111.5t197 44.5q197 0 293 -101.5t96 -316.5v-497
q0 -11 -8 -19t-20 -8t-20.5 8t-8.5 19v485q0 191 -84 283t-258 92q-102 0 -199.5 -47.5t-144.5 -110.5v-700q0 -12 -8.5 -20.5t-20.5 -8.5z" />
    <glyph glyph-name="Imacron" unicode="&#x12a;" horiz-adv-x="647" 
d="M354 1409v-1389q0 -12 -8.5 -20t-21.5 -8t-22 8t-9 20v1389q0 12 9 20.5t22 8.5t21.5 -8.5t8.5 -20.5zM608 1608h-563q-9 0 -15.5 7t-6.5 19q0 9 6.5 16t15.5 7h563q9 0 16 -7.5t7 -19.5q0 -9 -7 -15.5t-16 -6.5z" />
    <glyph glyph-name="imacron" unicode="&#x12b;" horiz-adv-x="522" 
d="M289 899v-876q0 -11 -8.5 -19t-20.5 -8t-20.5 8t-8.5 19v876q0 11 8.5 19t20.5 8t20.5 -8t8.5 -19zM485 1278h-448q-11 0 -18 8t-7 21q0 9 7.5 15.5t17.5 6.5h448q9 0 16 -7t7 -19q0 -10 -7 -17.5t-16 -7.5z" />
    <glyph glyph-name="Iogonek" unicode="&#x12e;" horiz-adv-x="647" 
d="M227 -360q42 0 78 10q23 8 31 -12q3 -6 -1 -15t-11 -12q-58 -21 -107 -21q-36 0 -71.5 9t-69.5 29t-55 58.5t-21 90.5q0 99 87.5 167t205.5 79v1386q0 12 9 20.5t22 8.5t21.5 -8.5t8.5 -20.5v-1380q0 -12 -8.5 -20.5t-21.5 -8.5h-7q-100 -3 -180 -63.5t-80 -147.5
q0 -43 18.5 -74t46.5 -46.5t54.5 -22t50.5 -6.5z" />
    <glyph glyph-name="iogonek" unicode="&#x12f;" horiz-adv-x="522" 
d="M166 -360q42 0 78 10q21 7 30 -10q7 -21 -12 -29q-58 -21 -106 -21q-36 0 -71.5 9t-69.5 29t-55 58.5t-21 90.5q0 99 87.5 167t204.5 79v876q0 11 8.5 19t20.5 8t20.5 -8t8.5 -19v-872q0 -11 -8.5 -19t-20.5 -8q-102 -3 -183 -63.5t-81 -147.5q0 -43 18.5 -74t46.5 -46.5
t54.5 -22t50.5 -6.5zM262 1241q-19 0 -33 13.5t-14 33.5q0 19 14 32t33 13q17 0 30 -13t13 -32q0 -20 -12.5 -33.5t-30.5 -13.5z" />
    <glyph glyph-name="Idotaccent" unicode="&#x130;" horiz-adv-x="647" 
d="M354 1409v-1389q0 -12 -8.5 -20t-21.5 -8t-22 8t-9 20v1389q0 12 9 20.5t22 8.5t21.5 -8.5t8.5 -20.5zM328 1583q-22 0 -37 13t-15 36q0 21 14.5 33t37.5 12q18 0 31.5 -12t13.5 -33q0 -22 -13.5 -35.5t-31.5 -13.5z" />
    <glyph glyph-name="dotlessi" unicode="&#x131;" horiz-adv-x="522" 
d="M289 899v-876q0 -11 -8.5 -19t-20.5 -8t-20.5 8t-8.5 19v876q0 11 8.5 19t20.5 8t20.5 -8t8.5 -19z" />
    <glyph glyph-name="Jcircumflex" unicode="&#x134;" horiz-adv-x="716" 
d="M418 313v1098q0 11 9 19t22 8q12 0 20 -8t8 -19v-1104q0 -77 -12.5 -133.5t-41.5 -101.5t-81.5 -67.5t-128.5 -22.5q-88 0 -158 45q-8 5 -11.5 15t1.5 21q6 11 17 15t20 -2q64 -35 125 -35q64 0 107.5 20.5t65 60t30 84.5t8.5 107zM131 1526q-22 -13 -35 6q-4 8 -2 17
t8 12l293 163q15 8 35 8t35 -8l293 -161q7 -3 8 -13.5t-6 -19.5q-15 -15 -33 -4l-297 164z" />
    <glyph glyph-name="jcircumflex" unicode="&#x135;" horiz-adv-x="522" 
d="M236 -66v965q0 11 8 19t20 8t20.5 -8t8.5 -19v-967q0 -358 -289 -358q-88 0 -154 41q-19 11 -12 33q4 12 14 15.5t19 -1.5q60 -33 125 -33q126 0 183 77t57 228zM25 1198l213 223q11 12 28.5 11.5t28.5 -11.5l205 -223q6 -6 6.5 -17t-6.5 -20q-6 -6 -17 -5t-16 7
l-203 215l-207 -215q-13 -13 -32 2q-6 6 -6 16.5t6 16.5z" />
    <glyph glyph-name="Kcommaaccent" unicode="&#x136;" horiz-adv-x="1277" 
d="M418 721q-9 10 -8.5 26t10.5 25l667 651q15 15 33 15q17 0 23.5 -17.5t-10.5 -36.5l-656 -632l684 -705q15 -17 7.5 -36t-27.5 -19q-15 0 -29 14zM299 1409v-1389q0 -12 -9 -20t-22 -8t-21.5 8t-8.5 20v1389q0 12 8.5 20.5t21.5 8.5t22 -8.5t9 -20.5zM631 -246
q0 64 -45 84q-7 4 -8 11t10 14q20 10 39 2q61 -23 61 -98q0 -126 -129 -175q-22 -5 -27 11q-5 14 11 22q88 42 88 129z" />
    <glyph glyph-name="kcommaaccent" unicode="&#x137;" horiz-adv-x="935" 
d="M340 457q-10 9 -10 24.5t10 24.5l416 401q19 19 32 19q19 0 24.5 -17t-9.5 -30l-416 -394l451 -436q15 -13 11 -33t-24 -20q-16 0 -32 16zM233 1407v-1382q0 -12 -8 -20.5t-20 -8.5q-13 0 -22 8.5t-9 20.5v1382q0 11 9 19t22 8q12 0 20 -8t8 -19zM467 -246q0 64 -45 84
q-7 4 -8 11t10 14q20 10 39 2q61 -23 61 -98q0 -126 -129 -175q-21 -5 -26 11q-5 15 10 22q88 42 88 129z" />
    <glyph glyph-name="Lacute" unicode="&#x139;" horiz-adv-x="1134" 
d="M1069 57q11 0 19 -8t8 -20t-8 -20.5t-19 -8.5h-795q-15 0 -25.5 11t-10.5 26v1372q0 12 8.5 20.5t21.5 8.5t22 -8.5t9 -20.5v-1352h770zM811 1733q7 5 17 2.5t16 -11.5q6 -13 2.5 -23t-12.5 -15l-306 -162q-6 -3 -14.5 0t-11.5 10q-4 8 -1 16t9 11z" />
    <glyph glyph-name="lacute" unicode="&#x13a;" horiz-adv-x="565" 
d="M539 66q4 -21 -11 -29q-70 -45 -161 -45q-100 0 -146.5 58.5t-46.5 180.5v1176q0 11 9 19t22 8q12 0 20 -8t8 -19v-1133q0 -119 33.5 -173t116.5 -54q55 0 119 31q11 6 21.5 2.5t15.5 -14.5zM463 1733q7 5 17 2.5t16 -11.5q6 -13 2 -23t-13 -15l-305 -162q-6 -3 -14.5 0
t-11.5 10q-4 8 -1 16t9 11z" />
    <glyph glyph-name="Lcommaaccent" unicode="&#x13b;" horiz-adv-x="1134" 
d="M1069 57q11 0 19 -8t8 -20t-8 -20.5t-19 -8.5h-795q-15 0 -25.5 11t-10.5 26v1372q0 12 8.5 20.5t21.5 8.5t22 -8.5t9 -20.5v-1352h770zM655 -246q0 64 -45 84q-7 4 -8 11t10 14q20 10 39 2q62 -23 62 -98q0 -126 -129 -175q-22 -5 -27 11q-5 15 10 22q88 42 88 129z" />
    <glyph glyph-name="lcommaaccent" unicode="&#x13c;" horiz-adv-x="565" 
d="M539 66q4 -21 -11 -29q-70 -45 -161 -45q-100 0 -146.5 58.5t-46.5 180.5v1176q0 11 9 19t22 8q12 0 20 -8t8 -19v-1133q0 -119 33.5 -173t116.5 -54q55 0 119 31q11 6 21.5 2.5t15.5 -14.5zM338 -246q0 64 -45 84q-7 4 -8 11t10 14q20 10 39 2q61 -23 61 -98
q0 -126 -129 -175q-21 -5 -26 11q-5 15 10 22q88 42 88 129z" />
    <glyph glyph-name="Lcaron" unicode="&#x13d;" horiz-adv-x="1134" 
d="M1069 57q11 0 19 -8t8 -20t-8 -20.5t-19 -8.5h-795q-15 0 -25.5 11t-10.5 26v1372q0 12 8.5 20.5t21.5 8.5t22 -8.5t9 -20.5v-1352h770zM752 1341q0 35 -11 68q-3 10 4 19.5t23 9.5q21 0 31 -29q8 -32 8 -61q0 -85 -33 -149t-84 -95q-19 -9 -31 6q-4 6 -2.5 14t7.5 13
q40 31 64 85.5t24 118.5z" />
    <glyph glyph-name="lcaron" unicode="&#x13e;" horiz-adv-x="565" 
d="M539 66q4 -21 -11 -29q-70 -45 -161 -45q-100 0 -146.5 58.5t-46.5 180.5v1176q0 11 9 19t22 8q12 0 20 -8t8 -19v-1133q0 -119 33.5 -173t116.5 -54q55 0 119 31q11 6 21.5 2.5t15.5 -14.5zM496 1341q0 35 -11 68q-3 10 4 19.5t23 9.5q21 0 31 -29q8 -32 8 -61
q0 -85 -33 -149t-84 -95q-19 -9 -31 6q-4 6 -2.5 14t7.5 13q40 31 64 85.5t24 118.5z" />
    <glyph glyph-name="Ldot" unicode="&#x13f;" horiz-adv-x="1134" 
d="M1069 57q11 0 19 -8t8 -20t-8 -20.5t-19 -8.5h-795q-15 0 -25.5 11t-10.5 26v1372q0 12 8.5 20.5t21.5 8.5t22 -8.5t9 -20.5v-1352h770zM840 715q-22 0 -37 15.5t-15 35.5q0 18 15.5 31.5t36.5 13.5q19 0 33 -14t14 -31q0 -20 -14 -35.5t-33 -15.5z" />
    <glyph glyph-name="ldot" unicode="&#x140;" horiz-adv-x="583" 
d="M539 66q4 -21 -11 -29q-70 -45 -161 -45q-100 0 -146.5 58.5t-46.5 180.5v1176q0 11 9 19t22 8q12 0 20 -8t8 -19v-1133q0 -119 33.5 -173t116.5 -54q55 0 119 31q11 6 21.5 2.5t15.5 -14.5zM504 584q-19 0 -33 13.5t-14 33.5q0 19 14 32t33 13q17 0 30 -13t13 -32
q0 -20 -12.5 -33.5t-30.5 -13.5z" />
    <glyph glyph-name="Lslash" unicode="&#x141;" horiz-adv-x="1155" 
d="M295 0q-15 0 -26 11t-11 26v561l-162 -86q-12 -6 -24.5 2t-12.5 23q0 20 19 28l180 94v748q0 12 9 20.5t22 8.5t21.5 -8.5t8.5 -20.5v-715l365 191q14 8 27.5 2.5t13.5 -23.5q0 -17 -23 -31l-383 -200v-574h771q11 0 18.5 -8t7.5 -20t-7.5 -20.5t-18.5 -8.5h-795z" />
    <glyph glyph-name="lslash" unicode="&#x142;" horiz-adv-x="626" 
d="M408 -8q-100 0 -146.5 58.5t-46.5 180.5v377l-137 -71q-14 -7 -26.5 0t-12.5 22q0 18 18 29l158 82v737q0 11 9 19t22 8q12 0 20 -8t8 -19v-707l203 107q13 7 27 -0.5t14 -22.5t-18 -26l-226 -119v-365q0 -119 33.5 -173t116.5 -54q55 0 119 31q11 6 21.5 3.5t15.5 -11.5
q4 -9 0.5 -18.5t-11.5 -14.5q-70 -45 -161 -45z" />
    <glyph glyph-name="Nacute" unicode="&#x143;" horiz-adv-x="1636" 
d="M1339 1411q0 11 9 19t22 8q12 0 20.5 -8t8.5 -19v-1393q0 -12 -8.5 -19t-20.5 -7q-20 0 -33 16l-1042 1319v-1309q0 -11 -8.5 -18.5t-20.5 -7.5t-20 7.5t-8 18.5v1389q0 31 24 31q19 0 37 -21l1040 -1319v1313zM1059 1733q7 5 17 2.5t16 -11.5q6 -13 2 -23t-13 -15
l-305 -162q-6 -3 -14.5 0t-11.5 10q-4 8 -1 16t9 11z" />
    <glyph glyph-name="nacute" unicode="&#x144;" horiz-adv-x="1132" 
d="M233 725v-700q0 -12 -8 -20.5t-20 -8.5q-13 0 -22 8.5t-9 20.5v874q0 11 9 19t22 8q12 0 20 -8t8 -19v-117q57 66 156.5 111t198.5 45q197 0 293 -101.5t96 -316.5v-497q0 -11 -8.5 -19t-20.5 -8t-20 8t-8 19v485q0 191 -84 283t-258 92q-102 0 -199 -47.5t-146 -110.5z
M707 1434q6 8 16.5 8.5t19.5 -6.5q9 -6 10 -17t-5 -20l-201 -252q-6 -8 -15.5 -9t-17.5 5q-6 5 -7 13.5t3 14.5z" />
    <glyph glyph-name="Ncommaaccent" unicode="&#x145;" horiz-adv-x="1636" 
d="M1339 1411q0 11 9 19t22 8q12 0 20.5 -8t8.5 -19v-1393q0 -12 -8.5 -19t-20.5 -7q-20 0 -33 16l-1042 1319v-1309q0 -11 -8.5 -18.5t-20.5 -7.5t-20 7.5t-8 18.5v1389q0 31 24 31q19 0 37 -21l1040 -1319v1313zM821 -246q0 64 -45 84q-7 4 -8 11t10 14q20 10 39 2
q62 -23 62 -98q0 -126 -129 -175q-22 -5 -27 11q-5 15 10 22q88 42 88 129z" />
    <glyph glyph-name="ncommaaccent" unicode="&#x146;" horiz-adv-x="1132" 
d="M233 725v-700q0 -12 -8 -20.5t-20 -8.5q-13 0 -22 8.5t-9 20.5v874q0 11 9 19t22 8q12 0 20 -8t8 -19v-117q57 66 156.5 111t198.5 45q197 0 293 -101.5t96 -316.5v-497q0 -11 -8.5 -19t-20.5 -8t-20 8t-8 19v485q0 191 -84 283t-258 92q-102 0 -199 -47.5t-146 -110.5z
M584 -246q0 64 -45 84q-7 4 -8 11t10 14q20 10 39 2q61 -23 61 -98q0 -126 -129 -175q-22 -5 -27 11q-5 14 11 22q88 42 88 129z" />
    <glyph glyph-name="Ncaron" unicode="&#x147;" horiz-adv-x="1636" 
d="M1339 1411q0 11 9 19t22 8q12 0 20.5 -8t8.5 -19v-1393q0 -12 -8.5 -19t-20.5 -7q-20 0 -33 16l-1042 1319v-1309q0 -11 -8.5 -18.5t-20.5 -7.5t-20 7.5t-8 18.5v1389q0 31 24 31q19 0 37 -21l1040 -1319v1313zM1143 1700l-291 -162q-39 -18 -74 0l-291 162q-6 3 -8 13
t4 18q4 7 15 8t18 -4l301 -164l297 164q22 13 37 -4q5 -6 2 -16.5t-10 -14.5z" />
    <glyph glyph-name="ncaron" unicode="&#x148;" horiz-adv-x="1132" 
d="M233 725v-700q0 -12 -8 -20.5t-20 -8.5q-13 0 -22 8.5t-9 20.5v874q0 11 9 19t22 8q12 0 20 -8t8 -19v-117q57 66 156.5 111t198.5 45q197 0 293 -101.5t96 -316.5v-497q0 -11 -8.5 -19t-20.5 -8t-20 8t-8 19v485q0 191 -84 283t-258 92q-102 0 -199 -47.5t-146 -110.5z
M803 1399l-211 -223q-11 -12 -28.5 -11.5t-28.5 11.5l-207 223q-16 19 2 37q4 6 13.5 6t14.5 -6l207 -228l205 226q14 14 33 -2q6 -6 6 -16.5t-6 -16.5z" />
    <glyph glyph-name="Omacron" unicode="&#x14c;" horiz-adv-x="1652" 
d="M825 1452q148 0 279.5 -56t226 -153t149 -233.5t54.5 -292.5q0 -206 -93 -374.5t-255.5 -264.5t-360.5 -96q-197 0 -359 95t-255.5 264t-93.5 376q0 205 92.5 373.5t255 265t360.5 96.5zM825 41q183 0 330.5 88t231 243t83.5 345q0 143 -49.5 268.5t-135 215t-205 141
t-255.5 51.5q-135 0 -254.5 -51.5t-205 -141t-135.5 -215t-50 -268.5q0 -142 50 -267.5t135.5 -215t205 -141.5t254.5 -52zM1110 1608h-563q-9 0 -16 7t-7 19q0 9 7 16t16 7h563q9 0 16 -7.5t7 -19.5q0 -9 -7 -15.5t-16 -6.5z" />
    <glyph glyph-name="omacron" unicode="&#x14d;" horiz-adv-x="1165" 
d="M582 940q210 0 343.5 -135.5t133.5 -343.5t-133.5 -343.5t-343.5 -135.5q-208 0 -342 135.5t-134 343.5t134 343.5t342 135.5zM582 37q183 0 299 119t116 305t-116 305t-299 119q-182 0 -299 -119t-117 -305t116.5 -305t299.5 -119zM809 1278h-449q-24 0 -24 29
q0 9 7 15.5t17 6.5h449q9 0 15.5 -7t6.5 -19q0 -10 -6.5 -17.5t-15.5 -7.5z" />
    <glyph glyph-name="Ohungarumlaut" unicode="&#x150;" horiz-adv-x="1652" 
d="M825 1452q148 0 279.5 -56t226 -153t149 -233.5t54.5 -292.5q0 -206 -93 -374.5t-255.5 -264.5t-360.5 -96q-197 0 -359 95t-255.5 264t-93.5 376q0 205 92.5 373.5t255 265t360.5 96.5zM825 41q183 0 330.5 88t231 243t83.5 345q0 143 -49.5 268.5t-135 215t-205 141
t-255.5 51.5q-135 0 -254.5 -51.5t-205 -141t-135.5 -215t-50 -268.5q0 -142 50 -267.5t135.5 -215t205 -141.5t254.5 -52zM1262 1751q17 11 34 -6q14 -23 -8 -41l-293 -182q-6 -3 -15 -1t-13 9q-4 8 -1 15.5t9 10.5zM903 1751q18 11 35 -6q14 -23 -8 -41l-293 -182
q-6 -3 -15.5 -1t-13.5 9q-4 8 -1 15.5t9 10.5z" />
    <glyph glyph-name="ohungarumlaut" unicode="&#x151;" horiz-adv-x="1165" 
d="M582 940q210 0 343.5 -135.5t133.5 -343.5t-133.5 -343.5t-343.5 -135.5q-208 0 -342 135.5t-134 343.5t134 343.5t342 135.5zM582 37q183 0 299 119t116 305t-116 305t-299 119q-182 0 -299 -119t-117 -305t116.5 -305t299.5 -119zM889 1436q6 8 17 8.5t20 -6.5
q9 -6 9.5 -17t-5.5 -20l-197 -256q-6 -8 -15.5 -9t-17.5 5q-6 4 -7 13t3 15zM592 1436q6 8 17 8.5t20 -6.5q9 -6 9.5 -17t-5.5 -20l-197 -256q-6 -8 -15.5 -9t-17.5 5q-6 5 -7.5 13.5t3.5 14.5z" />
    <glyph glyph-name="OE" unicode="&#x152;" horiz-adv-x="2146" 
d="M1978 57q11 0 19 -8t8 -20t-8 -20.5t-19 -8.5h-735q-15 0 -26 11t-11 26v51q-154 -106 -379 -106q-156 0 -288 52.5t-225 147.5t-145 232.5t-52 302.5q0 206 85 372.5t244 264.5t363 98q245 0 397 -106v51q0 15 11 26t26 11h715q11 0 19 -8.5t8 -20.5t-8 -20.5t-19 -8.5
h-690v-618h628q11 0 19 -8.5t8 -20.5t-8 -20.5t-19 -8.5h-628v-643h710zM1206 1278q-149 115 -395 115q-186 0 -330.5 -89t-222.5 -242.5t-78 -344.5q0 -304 181 -490t470 -186q223 0 375 117v1120z" />
    <glyph glyph-name="oe" unicode="&#x153;" horiz-adv-x="1734" 
d="M1597 463h-772q1 -196 116 -311t306 -115q85 0 161.5 29.5t131.5 78.5q7 6 18 5.5t17 -9.5q11 -16 -8 -35q-58 -60 -144.5 -92t-177.5 -32q-202 0 -336 118q-127 -118 -325 -118q-210 0 -344 135.5t-134 343.5t134 343.5t344 135.5q187 0 315 -115q121 115 320 115
q180 0 295.5 -114t115.5 -300q0 -24 -2 -34q0 -11 -9.5 -20t-21.5 -9zM864 784q-115 101 -280 101q-182 0 -299 -119t-117 -305t116.5 -305t299.5 -119q171 0 284 104q-106 128 -106 320q0 197 102 323zM1210 885q-173 0 -275 -103.5t-114 -269.5h752q0 171 -99 272
t-264 101z" />
    <glyph glyph-name="Racute" unicode="&#x154;" horiz-adv-x="1271" 
d="M1118 8l-504 619h-315v-607q0 -12 -9 -20t-22 -8t-21.5 8t-8.5 20v1377q0 15 10.5 26t25.5 11q52 0 157 2t116 2q114 0 201.5 -22.5t142 -59t89.5 -89.5t48.5 -109t13.5 -122q0 -145 -100 -255.5t-262 -141.5l487 -600q11 -12 5 -29.5t-25 -17.5q-16 0 -29 16zM299 684
h279q99 0 190.5 44t151 126t59.5 182q0 159 -103 251.5t-333 92.5q-108 0 -244 -4v-692zM748 1733q19 11 32 -9q6 -13 2.5 -23t-12.5 -15l-305 -162q-6 -3 -15 0t-12 10q-4 8 -1 16t9 11z" />
    <glyph glyph-name="racute" unicode="&#x155;" horiz-adv-x="655" 
d="M233 721v-696q0 -12 -8 -20.5t-20 -8.5q-13 0 -22 8.5t-9 20.5v874q0 11 9 19t22 8q12 0 20 -8t8 -19v-111q97 150 261 150q82 0 127 -25q9 -4 13.5 -14.5t-1.5 -26.5q-14 -23 -39 -12q-45 23 -109 23q-47 0 -88 -14t-71.5 -39.5t-51.5 -50.5t-41 -58zM537 1434
q6 8 16.5 8.5t19.5 -6.5q9 -6 10 -17t-5 -20l-201 -252q-6 -8 -15.5 -9t-17.5 5q-6 5 -7 13.5t3 14.5z" />
    <glyph glyph-name="Rcommaaccent" unicode="&#x156;" horiz-adv-x="1271" 
d="M1118 8l-504 619h-315v-607q0 -12 -9 -20t-22 -8t-21.5 8t-8.5 20v1377q0 15 10.5 26t25.5 11q52 0 157 2t116 2q114 0 201.5 -22.5t142 -59t89.5 -89.5t48.5 -109t13.5 -122q0 -145 -100 -255.5t-262 -141.5l487 -600q11 -12 5 -29.5t-25 -17.5q-16 0 -29 16zM299 684
h279q99 0 190.5 44t151 126t59.5 182q0 159 -103 251.5t-333 92.5q-108 0 -244 -4v-692zM627 -246q0 64 -45 84q-7 4 -8 11t10 14q20 10 39 2q61 -23 61 -98q0 -126 -129 -175q-22 -5 -27 11q-5 14 11 22q88 42 88 129z" />
    <glyph glyph-name="rcommaaccent" unicode="&#x157;" horiz-adv-x="655" 
d="M233 721v-696q0 -12 -8 -20.5t-20 -8.5q-13 0 -22 8.5t-9 20.5v874q0 11 9 19t22 8q12 0 20 -8t8 -19v-111q97 150 261 150q82 0 127 -25q9 -4 13.5 -14.5t-1.5 -26.5q-14 -23 -39 -12q-45 23 -109 23q-47 0 -88 -14t-71.5 -39.5t-51.5 -50.5t-41 -58zM311 -246
q0 64 -45 84q-7 4 -8 11t10 14q20 10 39 2q62 -23 62 -98q0 -126 -129 -175q-22 -5 -27 11q-5 15 10 22q88 42 88 129z" />
    <glyph glyph-name="Rcaron" unicode="&#x158;" horiz-adv-x="1271" 
d="M1118 8l-504 619h-315v-607q0 -12 -9 -20t-22 -8t-21.5 8t-8.5 20v1377q0 15 10.5 26t25.5 11q52 0 157 2t116 2q114 0 201.5 -22.5t142 -59t89.5 -89.5t48.5 -109t13.5 -122q0 -145 -100 -255.5t-262 -141.5l487 -600q11 -12 5 -29.5t-25 -17.5q-16 0 -29 16zM299 684
h279q99 0 190.5 44t151 126t59.5 182q0 159 -103 251.5t-333 92.5q-108 0 -244 -4v-692zM887 1700l-291 -162q-39 -18 -74 0l-291 162q-6 3 -8 13t4 18q4 7 15 8t18 -4l301 -164l297 164q22 13 37 -4q5 -6 2 -16.5t-10 -14.5z" />
    <glyph glyph-name="rcaron" unicode="&#x159;" horiz-adv-x="655" 
d="M233 721v-696q0 -12 -8 -20.5t-20 -8.5q-13 0 -22 8.5t-9 20.5v874q0 11 9 19t22 8q12 0 20 -8t8 -19v-111q97 150 261 150q82 0 127 -25q9 -4 13.5 -14.5t-1.5 -26.5q-14 -23 -39 -12q-45 23 -109 23q-47 0 -88 -14t-71.5 -39.5t-51.5 -50.5t-41 -58zM625 1399
l-211 -223q-11 -12 -29 -11.5t-29 11.5l-206 223q-16 19 2 37q5 6 14.5 6t13.5 -6l207 -228l205 226q14 14 33 -2q6 -6 6 -16.5t-6 -16.5z" />
    <glyph glyph-name="Sacute" unicode="&#x15a;" horiz-adv-x="1112" 
d="M131 205q9 9 21 8.5t20 -8.5q66 -76 169 -120t202 -44q103 0 189.5 33t143 104.5t56.5 169.5q0 72 -26.5 128.5t-71.5 93.5t-103 67t-122.5 54t-129 48.5t-122.5 56t-103 71.5t-71.5 101t-26.5 138q0 151 109 248.5t300 97.5q107 0 203 -34t156 -93q8 -6 8.5 -18
t-6.5 -21q-8 -9 -18.5 -10t-18.5 6q-123 111 -326 111q-157 0 -250.5 -78.5t-93.5 -208.5q0 -71 26.5 -125.5t71.5 -90.5t103 -64.5t122.5 -51.5t129 -46.5t122.5 -56t103 -73.5t71.5 -104t26.5 -144q0 -165 -128 -266.5t-320 -101.5q-119 0 -237.5 49.5t-178.5 130.5
q-16 24 0 43zM782 1733q7 5 17 2.5t16 -11.5q6 -13 2.5 -23t-12.5 -15l-305 -162q-6 -3 -15 0t-12 10q-4 8 -1 16t9 11z" />
    <glyph glyph-name="sacute" unicode="&#x15b;" horiz-adv-x="837" 
d="M129 127q19 19 39 0q40 -41 110.5 -66.5t135.5 -25.5q102 0 175 51.5t73 146.5q0 48 -22.5 84t-59 56.5t-83.5 39.5t-95.5 32.5t-95.5 35.5t-83.5 49t-59 73t-22.5 106q0 102 76.5 166.5t204.5 64.5q73 0 139 -22.5t109 -59.5q18 -18 4 -37q-6 -9 -17 -10t-20 6
q-82 70 -217 70q-98 0 -158.5 -51.5t-60.5 -124.5q0 -51 22.5 -89.5t59 -60.5t83 -41.5t95.5 -33t95.5 -34.5t83 -46t59 -68t22.5 -100q0 -124 -88 -190t-221 -66q-76 0 -158.5 32t-124.5 76q-6 6 -6.5 17.5t6.5 19.5zM569 1434q6 8 17 8.5t20 -6.5q9 -6 9.5 -17t-5.5 -20
l-200 -252q-6 -8 -15.5 -9t-17.5 5q-6 5 -7.5 13.5t3.5 14.5z" />
    <glyph glyph-name="Scircumflex" unicode="&#x15c;" horiz-adv-x="1112" 
d="M131 205q9 9 21 8.5t20 -8.5q66 -76 169 -120t202 -44q103 0 189.5 33t143 104.5t56.5 169.5q0 72 -26.5 128.5t-71.5 93.5t-103 67t-122.5 54t-129 48.5t-122.5 56t-103 71.5t-71.5 101t-26.5 138q0 151 109 248.5t300 97.5q107 0 203 -34t156 -93q8 -6 8.5 -18
t-6.5 -21q-8 -9 -18.5 -10t-18.5 6q-123 111 -326 111q-157 0 -250.5 -78.5t-93.5 -208.5q0 -71 26.5 -125.5t71.5 -90.5t103 -64.5t122.5 -51.5t129 -46.5t122.5 -56t103 -73.5t71.5 -104t26.5 -144q0 -165 -128 -266.5t-320 -101.5q-119 0 -237.5 49.5t-178.5 130.5
q-16 24 0 43zM256 1526q-22 -13 -35 6q-4 8 -2 17t8 12l293 163q15 8 35 8t35 -8l293 -161q7 -3 8 -13.5t-6 -19.5q-15 -15 -33 -4l-297 164z" />
    <glyph glyph-name="scircumflex" unicode="&#x15d;" horiz-adv-x="837" 
d="M129 127q19 19 39 0q40 -41 110.5 -66.5t135.5 -25.5q102 0 175 51.5t73 146.5q0 48 -22.5 84t-59 56.5t-83.5 39.5t-95.5 32.5t-95.5 35.5t-83.5 49t-59 73t-22.5 106q0 102 76.5 166.5t204.5 64.5q73 0 139 -22.5t109 -59.5q18 -18 4 -37q-6 -9 -17 -10t-20 6
q-82 70 -217 70q-98 0 -158.5 -51.5t-60.5 -124.5q0 -51 22.5 -89.5t59 -60.5t83 -41.5t95.5 -33t95.5 -34.5t83 -46t59 -68t22.5 -100q0 -124 -88 -190t-221 -66q-76 0 -158.5 32t-124.5 76q-6 6 -6.5 17.5t6.5 19.5zM186 1198l213 223q11 12 29 11.5t29 -11.5l205 -223
q6 -6 6.5 -17t-6.5 -20q-6 -6 -17 -5t-16 7l-203 215l-207 -215q-14 -14 -33 2q-6 6 -6 16.5t6 16.5z" />
    <glyph glyph-name="Scedilla" unicode="&#x15e;" horiz-adv-x="1112" 
d="M530 -412q-85 0 -165 41q-6 3 -8.5 11t1.5 16q9 15 27 8q72 -35 135 -35q73 0 119.5 30.5t46.5 80.5q0 108 -143 108q-16 0 -26.5 9.5t-10.5 27.5v99q-111 8 -216 56t-159 122q-16 24 0 43q9 9 21 8.5t20 -8.5q66 -76 169 -120t202 -44q103 0 189.5 33t143 104.5
t56.5 169.5q0 72 -26.5 128.5t-71.5 93.5t-103 67t-122.5 54t-129 48.5t-122.5 56t-103 71.5t-71.5 101t-26.5 138q0 151 109 248.5t300 97.5q107 0 203 -34t156 -93q8 -6 8.5 -18t-6.5 -21q-8 -9 -18.5 -10t-18.5 6q-123 111 -326 111q-157 0 -250.5 -78.5t-93.5 -208.5
q0 -71 26.5 -125.5t71.5 -90.5t103 -64.5t122.5 -51.5t129 -46.5t122.5 -56t103 -73.5t71.5 -104t26.5 -144q0 -165 -128 -266.5t-320 -101.5h-2v-97q200 -3 200 -147q0 -67 -58 -108.5t-157 -41.5z" />
    <glyph glyph-name="scedilla" unicode="&#x15f;" horiz-adv-x="837" 
d="M412 -412q-86 0 -166 41q-6 3 -8 11t2 16q9 15 26 8q72 -35 135 -35q73 0 119.5 30.5t46.5 80.5q0 108 -143 108q-16 0 -26.5 9.5t-10.5 27.5v99q-72 4 -145.5 35t-112.5 71q-6 6 -6.5 17.5t6.5 19.5q19 19 39 0q40 -41 110.5 -66.5t135.5 -25.5q102 0 175 51.5t73 146.5
q0 48 -22.5 84t-59 56.5t-83.5 39.5t-95.5 32.5t-95.5 35.5t-83.5 49t-59 73t-22.5 106q0 102 76.5 166.5t204.5 64.5q73 0 139 -22.5t109 -59.5q18 -18 4 -37q-6 -9 -17 -10t-20 6q-82 70 -217 70q-98 0 -158.5 -51.5t-60.5 -124.5q0 -51 22.5 -89.5t59 -60.5t83 -41.5
t95.5 -33t95.5 -34.5t83 -46t59 -68t22.5 -100q0 -121 -83 -186t-212 -70v-97q201 -3 201 -147q0 -67 -58 -108.5t-157 -41.5z" />
    <glyph glyph-name="Scaron" unicode="&#x160;" horiz-adv-x="1112" 
d="M131 205q9 9 21 8.5t20 -8.5q66 -76 169 -120t202 -44q103 0 189.5 33t143 104.5t56.5 169.5q0 72 -26.5 128.5t-71.5 93.5t-103 67t-122.5 54t-129 48.5t-122.5 56t-103 71.5t-71.5 101t-26.5 138q0 151 109 248.5t300 97.5q107 0 203 -34t156 -93q8 -6 8.5 -18
t-6.5 -21q-8 -9 -18.5 -10t-18.5 6q-123 111 -326 111q-157 0 -250.5 -78.5t-93.5 -208.5q0 -71 26.5 -125.5t71.5 -90.5t103 -64.5t122.5 -51.5t129 -46.5t122.5 -56t103 -73.5t71.5 -104t26.5 -144q0 -165 -128 -266.5t-320 -101.5q-119 0 -237.5 49.5t-178.5 130.5
q-16 24 0 43zM895 1700l-291 -162q-39 -18 -74 0l-290 162q-6 3 -8 13t4 18q4 7 14.5 8t17.5 -4l301 -164l297 164q22 13 37 -4q5 -6 2 -16.5t-10 -14.5z" />
    <glyph glyph-name="scaron" unicode="&#x161;" horiz-adv-x="837" 
d="M129 127q19 19 39 0q40 -41 110.5 -66.5t135.5 -25.5q102 0 175 51.5t73 146.5q0 48 -22.5 84t-59 56.5t-83.5 39.5t-95.5 32.5t-95.5 35.5t-83.5 49t-59 73t-22.5 106q0 102 76.5 166.5t204.5 64.5q73 0 139 -22.5t109 -59.5q18 -18 4 -37q-6 -9 -17 -10t-20 6
q-82 70 -217 70q-98 0 -158.5 -51.5t-60.5 -124.5q0 -51 22.5 -89.5t59 -60.5t83 -41.5t95.5 -33t95.5 -34.5t83 -46t59 -68t22.5 -100q0 -124 -88 -190t-221 -66q-76 0 -158.5 32t-124.5 76q-6 6 -6.5 17.5t6.5 19.5zM657 1399l-211 -223q-11 -12 -28.5 -11.5t-28.5 11.5
l-207 223q-16 19 2 37q4 6 14 6t15 -6l207 -228l205 226q13 13 32 -2q6 -6 6 -16.5t-6 -16.5z" />
    <glyph glyph-name="Tcedilla" unicode="&#x162;" horiz-adv-x="1210" 
d="M610 -412q-86 0 -166 41q-6 3 -8 11t2 16q9 15 27 8q72 -35 135 -35q73 0 119.5 30.5t46.5 80.5q0 108 -143 108q-16 0 -26.5 9.5t-10.5 27.5v113q-11 7 -11 22v1356h-528q-11 0 -19 8.5t-8 20.5t8 20.5t19 8.5h1116q11 0 19 -8.5t8 -20.5t-8 -20.5t-19 -8.5h-528v-1356
q0 -15 -10 -22v-113q200 -3 200 -147q0 -67 -58 -108.5t-157 -41.5z" />
    <glyph glyph-name="tcedilla" unicode="&#x163;" horiz-adv-x="704" 
d="M387 -412q-86 0 -166 41q-6 3 -8 11t2 16q9 15 27 8q72 -35 135 -35q73 0 119.5 30.5t46.5 80.5q0 108 -144 108q-16 0 -26.5 9.5t-10.5 27.5v113q-108 21 -158 109t-50 243v801q0 11 8.5 19t21.5 8q12 0 20.5 -8t8.5 -19v-229h373q9 0 16.5 -8.5t7.5 -18.5
q0 -12 -7.5 -20.5t-16.5 -8.5h-373v-497q0 -163 57 -243.5t183 -80.5q65 0 129 35q9 6 20.5 3t15.5 -13q9 -22 -12 -35q-74 -45 -164 -45q-7 0 -21 1t-20 1v-107q201 -3 201 -147q0 -67 -58 -108.5t-157 -41.5z" />
    <glyph glyph-name="Tcaron" unicode="&#x164;" horiz-adv-x="1210" 
d="M606 -8q-13 0 -22 8t-9 20v1356h-528q-11 0 -19 8.5t-8 20.5t8 20.5t19 8.5h1116q11 0 19 -8.5t8 -20.5t-8 -20.5t-19 -8.5h-528v-1356q0 -12 -8.5 -20t-20.5 -8zM932 1700l-291 -162q-39 -18 -74 0l-291 162q-6 3 -8 13t4 18q4 7 15 8t18 -4l301 -164l297 164
q22 13 37 -4q5 -6 2 -16.5t-10 -14.5z" />
    <glyph glyph-name="tcaron" unicode="&#x165;" horiz-adv-x="704" 
d="M618 70q9 -22 -12 -35q-74 -45 -164 -45q-151 0 -219.5 89.5t-68.5 270.5v801q0 11 8.5 19t21.5 8q12 0 20.5 -8t8.5 -19v-229h373q9 0 16.5 -8.5t7.5 -18.5q0 -12 -7.5 -20.5t-16.5 -8.5h-373v-497q0 -163 57 -243.5t183 -80.5q65 0 129 35q9 6 20.5 3t15.5 -13z
M510 1341q0 38 -10 68q-3 10 3.5 19.5t22.5 9.5q21 0 31 -29q8 -32 8 -61q0 -85 -32.5 -149t-83.5 -95q-19 -9 -31 6q-4 6 -3 14t7 13q40 31 64 85.5t24 118.5z" />
    <glyph glyph-name="Umacron" unicode="&#x16a;" horiz-adv-x="1538" 
d="M1260 616v793q0 12 8.5 20.5t21.5 8.5t22 -8.5t9 -20.5v-807q0 -159 -42.5 -280t-117.5 -193t-169 -107.5t-204 -35.5q-123 0 -226 40t-180.5 117t-121 198t-43.5 275v793q0 12 9 20.5t22 8.5t22 -8.5t9 -20.5v-784q0 -277 140.5 -429.5t368.5 -152.5q101 0 185.5 34
t149 102t101 179.5t36.5 257.5zM1053 1608h-564q-9 0 -15.5 7t-6.5 19q0 9 6.5 16t15.5 7h564q9 0 15.5 -7.5t6.5 -19.5q0 -9 -6.5 -15.5t-15.5 -6.5z" />
    <glyph glyph-name="umacron" unicode="&#x16b;" horiz-adv-x="1120" 
d="M889 219v680q0 11 8.5 19t20.5 8t20 -8t8 -19v-876q0 -11 -8 -19t-20 -8t-20.5 8t-8.5 19v137q-59 -74 -161.5 -126t-209.5 -52q-183 0 -273.5 101.5t-90.5 313.5v502q0 11 8.5 19t21.5 8q12 0 20.5 -8t8.5 -19v-487q0 -189 78.5 -282t245.5 -93q104 0 203 56.5
t149 125.5zM784 1278h-448q-11 0 -18 8t-7 21q0 9 7.5 15.5t17.5 6.5h448q9 0 16 -7t7 -19q0 -10 -7 -17.5t-16 -7.5z" />
    <glyph glyph-name="Ubreve" unicode="&#x16c;" horiz-adv-x="1538" 
d="M1260 616v793q0 12 8.5 20.5t21.5 8.5t22 -8.5t9 -20.5v-807q0 -159 -42.5 -280t-117.5 -193t-169 -107.5t-204 -35.5q-123 0 -226 40t-180.5 117t-121 198t-43.5 275v793q0 12 9 20.5t22 8.5t22 -8.5t9 -20.5v-784q0 -277 140.5 -429.5t368.5 -152.5q101 0 185.5 34
t149 102t101 179.5t36.5 257.5zM772 1548q-107 0 -187 45t-124 101q-15 20 -2 35q8 7 18 5.5t15 -8.5q114 -124 280 -124q163 0 275 124q5 6 13.5 7.5t14.5 -4.5q15 -12 0 -33q-50 -64 -127.5 -106t-175.5 -42z" />
    <glyph glyph-name="ubreve" unicode="&#x16d;" horiz-adv-x="1120" 
d="M889 219v680q0 11 8.5 19t20.5 8t20 -8t8 -19v-876q0 -11 -8 -19t-20 -8t-20.5 8t-8.5 19v137q-59 -74 -161.5 -126t-209.5 -52q-183 0 -273.5 101.5t-90.5 313.5v502q0 11 8.5 19t21.5 8q12 0 20.5 -8t8.5 -19v-487q0 -189 78.5 -282t245.5 -93q104 0 203 56.5
t149 125.5zM559 1204q-92 0 -157.5 43.5t-106.5 98.5q-13 17 2 32q5 6 14.5 6t14.5 -6q104 -123 235 -123q132 0 232 123q14 14 28 0q12 -12 -2 -30q-113 -144 -260 -144z" />
    <glyph glyph-name="Uring" unicode="&#x16e;" horiz-adv-x="1538" 
d="M1260 616v793q0 12 8.5 20.5t21.5 8.5t22 -8.5t9 -20.5v-807q0 -159 -42.5 -280t-117.5 -193t-169 -107.5t-204 -35.5q-123 0 -226 40t-180.5 117t-121 198t-43.5 275v793q0 12 9 20.5t22 8.5t22 -8.5t9 -20.5v-784q0 -277 140.5 -429.5t368.5 -152.5q101 0 185.5 34
t149 102t101 179.5t36.5 257.5zM768 1425q-89 0 -147 45t-58 125q0 82 57.5 124t147.5 42q92 0 150.5 -42t58.5 -124q0 -80 -59.5 -125t-149.5 -45zM768 1722q-71 0 -114.5 -31.5t-43.5 -95.5q0 -63 44.5 -97t113.5 -34q71 0 116.5 34t45.5 97q0 64 -45 95.5t-117 31.5z" />
    <glyph glyph-name="uring" unicode="&#x16f;" horiz-adv-x="1120" 
d="M889 219v680q0 11 8.5 19t20.5 8t20 -8t8 -19v-876q0 -11 -8 -19t-20 -8t-20.5 8t-8.5 19v137q-59 -74 -161.5 -126t-209.5 -52q-183 0 -273.5 101.5t-90.5 313.5v502q0 11 8.5 19t21.5 8q12 0 20.5 -8t8.5 -19v-487q0 -189 78.5 -282t245.5 -93q104 0 203 56.5
t149 125.5zM356 1257q0 84 58.5 142.5t142.5 58.5q85 0 144 -59t59 -142q0 -82 -59 -139t-144 -57t-143 57t-58 139zM399 1260q0 -68 45.5 -114t112.5 -46q66 0 113 46.5t47 113.5q0 66 -47 112.5t-113 46.5q-67 0 -112.5 -46.5t-45.5 -112.5z" />
    <glyph glyph-name="Uhungarumlaut" unicode="&#x170;" horiz-adv-x="1538" 
d="M1260 616v793q0 12 8.5 20.5t21.5 8.5t22 -8.5t9 -20.5v-807q0 -159 -42.5 -280t-117.5 -193t-169 -107.5t-204 -35.5q-123 0 -226 40t-180.5 117t-121 198t-43.5 275v793q0 12 9 20.5t22 8.5t22 -8.5t9 -20.5v-784q0 -277 140.5 -429.5t368.5 -152.5q101 0 185.5 34
t149 102t101 179.5t36.5 257.5zM1178 1751q18 11 34 -6q14 -23 -8 -41l-293 -182q-6 -3 -15 -1t-13 9q-4 8 -1 15.5t9 10.5zM819 1751q18 11 35 -6q14 -23 -8 -41l-293 -182q-6 -3 -15.5 -1t-13.5 9q-4 8 -1 15.5t9 10.5z" />
    <glyph glyph-name="uhungarumlaut" unicode="&#x171;" horiz-adv-x="1120" 
d="M889 219v680q0 11 8.5 19t20.5 8t20 -8t8 -19v-876q0 -11 -8 -19t-20 -8t-20.5 8t-8.5 19v137q-59 -74 -161.5 -126t-209.5 -52q-183 0 -273.5 101.5t-90.5 313.5v502q0 11 8.5 19t21.5 8q12 0 20.5 -8t8.5 -19v-487q0 -189 78.5 -282t245.5 -93q104 0 203 56.5
t149 125.5zM866 1436q6 8 17 8.5t20 -6.5q9 -6 9.5 -17t-5.5 -20l-196 -256q-6 -8 -15.5 -9t-17.5 5q-6 4 -7 13t3 15zM569 1436q6 8 17 8.5t20 -6.5q9 -6 9.5 -17t-5.5 -20l-196 -256q-6 -8 -15.5 -9t-17.5 5q-6 5 -7.5 13.5t3.5 14.5z" />
    <glyph glyph-name="Uogonek" unicode="&#x172;" horiz-adv-x="1538" 
d="M821 -360q42 0 78 10q23 8 31 -12q3 -6 -1 -15t-11 -12q-58 -21 -107 -21q-36 0 -71.5 9t-69.5 29t-55 58.5t-21 90.5q0 68 43.5 122.5t114.5 88.5q-116 5 -212.5 48t-169 119.5t-113 194.5t-40.5 266v793q0 12 9 20.5t22 8.5t22 -8.5t9 -20.5v-784q0 -277 140.5 -429.5
t368.5 -152.5q101 0 185.5 34t149 102t101 179.5t36.5 257.5v793q0 12 8.5 20.5t21.5 8.5t22 -8.5t9 -20.5v-807q0 -151 -38.5 -268.5t-106.5 -189.5t-154 -111t-188 -45q-78 -23 -130.5 -76.5t-52.5 -122.5q0 -43 18.5 -74t46.5 -46.5t54.5 -22t50.5 -6.5z" />
    <glyph glyph-name="uogonek" unicode="&#x173;" horiz-adv-x="1120" 
d="M821 -360q42 0 78 10q22 7 31 -10q7 -21 -12 -29q-58 -21 -107 -21q-36 0 -71.5 9t-69.5 29t-55 58.5t-21 90.5q0 100 89 168t206 78v137q-59 -74 -161.5 -126t-209.5 -52q-183 0 -273.5 101.5t-90.5 313.5v502q0 11 8.5 19t21.5 8q12 0 20.5 -8t8.5 -19v-487
q0 -189 78.5 -282t245.5 -93q104 0 203 56.5t149 125.5v680q0 11 8.5 19t20.5 8t20 -8t8 -19v-872q0 -11 -8 -19t-20 -8h-7q-100 -3 -180 -63.5t-80 -147.5q0 -43 18.5 -74t46.5 -46.5t54.5 -22t50.5 -6.5z" />
    <glyph glyph-name="Ydieresis" unicode="&#x178;" horiz-adv-x="1161" 
d="M117 1417l463 -723l467 723q13 21 30 21q16 0 24.5 -14t-1.5 -29l-492 -758v-617q0 -12 -8 -20t-20 -8q-13 0 -22 8t-9 20v617l-488 756q-10 13 -2 29t27 16q17 0 31 -21zM344 1585q-21 0 -35 12t-14 33q0 20 14 31.5t35 11.5q20 0 33.5 -11.5t13.5 -31.5
q0 -21 -13.5 -33t-33.5 -12zM823 1585q-21 0 -35 12t-14 33q0 20 14 31.5t35 11.5q18 0 31.5 -12t13.5 -31q0 -21 -13.5 -33t-31.5 -12z" />
    <glyph glyph-name="Zacute" unicode="&#x179;" horiz-adv-x="1277" 
d="M106 0q-11 0 -17 12t1 23l995 1341h-935q-11 0 -19 8.5t-8 20.5t8 20.5t19 8.5h1001q12 0 17.5 -13t-1.5 -24l-997 -1340h999q11 0 19 -8t8 -20t-8 -20.5t-19 -8.5h-1063zM862 1733q7 5 17 2.5t16 -11.5q6 -13 2.5 -23t-12.5 -15l-305 -162q-6 -3 -15 0t-12 10
q-4 8 -1 16t9 11z" />
    <glyph glyph-name="zacute" unicode="&#x17a;" horiz-adv-x="978" 
d="M125 0q-14 0 -18 13.5t6 25.5l675 827h-630q-11 0 -19 8.5t-8 20.5q0 11 8.5 19t18.5 8h696q15 0 20.5 -12t-6.5 -25l-682 -830h658q9 0 16.5 -8t7.5 -18q0 -12 -7.5 -20.5t-16.5 -8.5h-719zM643 1434q6 8 17 8.5t20 -6.5q9 -6 9.5 -17t-5.5 -20l-201 -252
q-14 -18 -32 -4q-6 5 -7.5 13.5t2.5 14.5z" />
    <glyph glyph-name="Zdotaccent" unicode="&#x17b;" horiz-adv-x="1277" 
d="M106 0q-11 0 -17 12t1 23l995 1341h-935q-11 0 -19 8.5t-8 20.5t8 20.5t19 8.5h1001q12 0 17.5 -13t-1.5 -24l-997 -1340h999q11 0 19 -8t8 -20t-8 -20.5t-19 -8.5h-1063zM625 1583q-22 0 -37 13t-15 36q0 21 14.5 33t37.5 12q18 0 31.5 -12t13.5 -33q0 -22 -13.5 -35.5
t-31.5 -13.5z" />
    <glyph glyph-name="zdotaccent" unicode="&#x17c;" horiz-adv-x="978" 
d="M125 0q-14 0 -18 13.5t6 25.5l675 827h-630q-11 0 -19 8.5t-8 20.5q0 11 8.5 19t18.5 8h696q15 0 20.5 -12t-6.5 -25l-682 -830h658q9 0 16.5 -8t7.5 -18q0 -12 -7.5 -20.5t-16.5 -8.5h-719zM487 1241q-19 0 -33 13.5t-14 33.5q0 19 14 32t33 13q17 0 30 -13t13 -32
q0 -20 -12.5 -33.5t-30.5 -13.5z" />
    <glyph glyph-name="Zcaron" unicode="&#x17d;" horiz-adv-x="1277" 
d="M106 0q-11 0 -17 12t1 23l995 1341h-935q-11 0 -19 8.5t-8 20.5t8 20.5t19 8.5h1001q12 0 17.5 -13t-1.5 -24l-997 -1340h999q11 0 19 -8t8 -20t-8 -20.5t-19 -8.5h-1063zM963 1700l-291 -162q-39 -18 -74 0l-291 162q-6 3 -8 13t4 18q4 7 15 8t18 -4l301 -164l297 164
q22 13 37 -4q5 -6 2 -16.5t-10 -14.5z" />
    <glyph glyph-name="zcaron" unicode="&#x17e;" horiz-adv-x="978" 
d="M125 0q-14 0 -18 13.5t6 25.5l675 827h-630q-11 0 -19 8.5t-8 20.5q0 11 8.5 19t18.5 8h696q15 0 20.5 -12t-6.5 -25l-682 -830h658q9 0 16.5 -8t7.5 -18q0 -12 -7.5 -20.5t-16.5 -8.5h-719zM731 1399l-211 -223q-11 -12 -28.5 -11.5t-28.5 11.5l-207 223q-16 19 2 37
q4 6 14 6t15 -6l207 -228l204 226q14 14 33 -2q6 -6 6 -16.5t-6 -16.5z" />
    <glyph glyph-name="longs" unicode="&#x17f;" horiz-adv-x="516" 
d="M268 1053v-1030q0 -11 -8 -19t-20 -8t-20.5 8t-8.5 19v1048q0 381 313 381q132 0 213 -63q22 -16 8 -37q-13 -20 -34 -6q-79 51 -181 51q-131 0 -196.5 -83.5t-65.5 -260.5z" />
    <glyph glyph-name="uni018F" unicode="&#x18f;" horiz-adv-x="1593" 
d="M758 1452q327 0 522 -197.5t195 -531.5q0 -210 -82.5 -377t-241 -265.5t-367.5 -98.5q-203 0 -358 96t-238.5 263.5t-87.5 381.5q0 15 10.5 26t24.5 11h1274q-11 290 -189.5 461.5t-471.5 171.5q-221 0 -379 -111q-9 -6 -21 -4.5t-18 10.5q-6 11 -3.5 21.5t11.5 17.5
q79 61 191 93t229 32zM782 41q143 0 261.5 51t197.5 140.5t123 210t47 259.5h-1247q4 -185 78.5 -334t215 -238t324.5 -89z" />
    <glyph glyph-name="florin" unicode="&#x192;" 
d="M1210 1354q-5 -8 -15 -11t-19 3q-79 51 -181 51q-128 0 -196.5 -80.5t-102.5 -263.5l-24 -131h350q9 0 17 -8.5t8 -18.5q0 -12 -8 -20.5t-17 -8.5h-360l-168 -934q-33 -181 -107 -269.5t-221 -88.5q-88 0 -154 41q-23 14 -12 37q12 21 33 10q61 -33 123 -33
q125 0 188 75.5t92 236.5l166 925h-323q-11 0 -19 8.5t-8 20.5q0 11 8 19t19 8h333l27 149q36 198 116.5 289.5t231.5 91.5q126 0 213 -61q9 -5 12.5 -14.5t-2.5 -22.5z" />
    <glyph glyph-name="uni01DD" unicode="&#x1dd;" horiz-adv-x="1079" 
d="M143 477h766q-2 174 -109.5 291t-291.5 117q-85 0 -168 -30.5t-141 -78.5q-8 -6 -17.5 -5t-15.5 9t-4 18.5t8 16.5q61 59 154.5 92t185.5 33q212 0 337.5 -130t125.5 -349q0 -209 -117 -344t-328 -135q-189 0 -307.5 113.5t-118.5 299.5q0 6 1 22t1 23q1 17 12.5 27
t26.5 10zM535 37q168 0 271.5 109.5t106.5 279.5h-751q-4 -186 97 -287.5t276 -101.5z" />
    <glyph glyph-name="Scommaaccent" unicode="&#x218;" horiz-adv-x="1112" 
d="M131 205q9 9 21 8.5t20 -8.5q66 -76 169 -120t202 -44q103 0 189.5 33t143 104.5t56.5 169.5q0 72 -26.5 128.5t-71.5 93.5t-103 67t-122.5 54t-129 48.5t-122.5 56t-103 71.5t-71.5 101t-26.5 138q0 151 109 248.5t300 97.5q107 0 203 -34t156 -93q8 -6 8.5 -18
t-6.5 -21q-8 -9 -18.5 -10t-18.5 6q-123 111 -326 111q-157 0 -250.5 -78.5t-93.5 -208.5q0 -71 26.5 -125.5t71.5 -90.5t103 -64.5t122.5 -51.5t129 -46.5t122.5 -56t103 -73.5t71.5 -104t26.5 -144q0 -165 -128 -266.5t-320 -101.5q-119 0 -237.5 49.5t-178.5 130.5
q-16 24 0 43zM563 -246q0 64 -45 84q-7 4 -8 11t10 14q20 10 39 2q62 -23 62 -98q0 -126 -129 -175q-22 -5 -27 11q-5 15 10 22q88 42 88 129z" />
    <glyph glyph-name="scommaaccent" unicode="&#x219;" horiz-adv-x="837" 
d="M129 127q19 19 39 0q40 -41 110.5 -66.5t135.5 -25.5q102 0 175 51.5t73 146.5q0 48 -22.5 84t-59 56.5t-83.5 39.5t-95.5 32.5t-95.5 35.5t-83.5 49t-59 73t-22.5 106q0 102 76.5 166.5t204.5 64.5q73 0 139 -22.5t109 -59.5q18 -18 4 -37q-6 -9 -17 -10t-20 6
q-82 70 -217 70q-98 0 -158.5 -51.5t-60.5 -124.5q0 -51 22.5 -89.5t59 -60.5t83 -41.5t95.5 -33t95.5 -34.5t83 -46t59 -68t22.5 -100q0 -124 -88 -190t-221 -66q-76 0 -158.5 32t-124.5 76q-6 6 -6.5 17.5t6.5 19.5zM440 -246q0 64 -45 84q-7 4 -8 11t10 14q20 10 39 2
q62 -23 62 -98q0 -126 -129 -175q-22 -5 -27 11q-5 15 10 22q88 42 88 129z" />
    <glyph glyph-name="Tcommaaccent" unicode="&#x21a;" horiz-adv-x="1210" 
d="M606 -8q-13 0 -22 8t-9 20v1356h-528q-11 0 -19 8.5t-8 20.5t8 20.5t19 8.5h1116q11 0 19 -8.5t8 -20.5t-8 -20.5t-19 -8.5h-528v-1356q0 -12 -8.5 -20t-20.5 -8zM625 -246q0 64 -45 84q-7 4 -8 11t10 14q20 10 39 2q61 -23 61 -98q0 -126 -129 -175q-22 -5 -27 11
q-5 14 11 22q88 42 88 129z" />
    <glyph glyph-name="tcommaaccent" unicode="&#x21b;" horiz-adv-x="704" 
d="M618 70q9 -22 -12 -35q-74 -45 -164 -45q-151 0 -219.5 89.5t-68.5 270.5v801q0 11 8.5 19t21.5 8q12 0 20.5 -8t8.5 -19v-229h373q9 0 16.5 -8.5t7.5 -18.5q0 -12 -7.5 -20.5t-16.5 -8.5h-373v-497q0 -163 57 -243.5t183 -80.5q65 0 129 35q9 6 20.5 3t15.5 -13z
M414 -246q0 64 -45 84q-7 4 -8 11t10 14q20 10 39 2q61 -23 61 -98q0 -126 -129 -175q-22 -5 -27 11q-5 14 11 22q88 42 88 129z" />
    <glyph glyph-name="uni0237" unicode="&#x237;" horiz-adv-x="522" 
d="M236 -66v965q0 11 8 19t20 8t20.5 -8t8.5 -19v-967q0 -358 -289 -358q-88 0 -154 41q-19 11 -12 33q4 12 14 15.5t19 -1.5q60 -33 125 -33q126 0 183 77t57 228z" />
    <glyph glyph-name="uni0259" unicode="&#x259;" horiz-adv-x="1079" 
d="M143 477h766q-2 174 -109.5 291t-291.5 117q-85 0 -168 -30.5t-141 -78.5q-8 -6 -17.5 -5t-15.5 9t-4 18.5t8 16.5q61 59 154.5 92t185.5 33q212 0 337.5 -130t125.5 -349q0 -209 -117 -344t-328 -135q-189 0 -307.5 113.5t-118.5 299.5q0 6 1 22t1 23q1 17 12.5 27
t26.5 10zM535 37q168 0 271.5 109.5t106.5 279.5h-751q-4 -186 97 -287.5t276 -101.5z" />
    <glyph glyph-name="afii57929" unicode="&#x2bc;" horiz-adv-x="403" 
d="M225 1184q0 48 -24 88q-18 29 8 45q11 6 23 2.5t18 -12.5q31 -52 31 -111q0 -159 -119 -231q-4 -4 -13.5 -2.5t-15.5 8.5q-11 15 4 26q88 60 88 187z" />
    <glyph glyph-name="circumflex" unicode="&#x2c6;" horiz-adv-x="749" 
d="M137 1198l213 223q11 12 29 11.5t29 -11.5l204 -223q6 -6 6.5 -17t-6.5 -20q-6 -6 -16.5 -5t-15.5 7l-203 215l-207 -215q-14 -14 -33 2q-6 6 -6 16.5t6 16.5z" />
    <glyph glyph-name="caron" unicode="&#x2c7;" horiz-adv-x="751" 
d="M614 1399l-211 -223q-11 -12 -28.5 -11.5t-28.5 11.5l-207 223q-16 19 2 37q5 6 15 6t14 -6l207 -228l205 226q13 13 32 -2q6 -6 6 -16.5t-6 -16.5z" />
    <glyph glyph-name="breve" unicode="&#x2d8;" horiz-adv-x="790" 
d="M397 1204q-92 0 -157.5 43.5t-106.5 98.5q-13 17 2 32q5 6 15 6t14 -6q104 -123 235 -123q132 0 232 123q14 14 28 0q12 -12 -2 -30q-113 -144 -260 -144z" />
    <glyph glyph-name="dotaccent" unicode="&#x2d9;" horiz-adv-x="335" 
d="M170 1241q-19 0 -33 13.5t-14 33.5q0 19 14 32t33 13q17 0 30 -13t13 -32q0 -20 -12.5 -33.5t-30.5 -13.5z" />
    <glyph glyph-name="ring" unicode="&#x2da;" horiz-adv-x="649" 
d="M123 1257q0 84 58.5 142.5t142.5 58.5t143 -59t59 -142q0 -82 -58.5 -139t-143.5 -57t-143 57t-58 139zM166 1260q0 -68 45.5 -114t112.5 -46q66 0 112.5 46.5t46.5 113.5q0 66 -46.5 112.5t-112.5 46.5q-67 0 -112.5 -46.5t-45.5 -112.5z" />
    <glyph glyph-name="ogonek" unicode="&#x2db;" horiz-adv-x="587" 
d="M350 -360q42 0 78 10q22 7 31 -10q3 -9 -1 -17.5t-12 -11.5q-58 -21 -106 -21q-36 0 -71.5 9t-69.5 29t-55 58.5t-21 90.5q0 105 98.5 175t222.5 73q11 0 11 -15q0 -10 -11 -10q-102 -3 -183 -63.5t-81 -147.5q0 -43 18.5 -74t46.5 -46.5t54.5 -22t50.5 -6.5z" />
    <glyph glyph-name="tilde" unicode="&#x2dc;" horiz-adv-x="839" 
d="M305 1274q-56 0 -141 -62q-18 -14 -31 2t4 29q100 82 176 82q40 0 78.5 -24.5t74.5 -49t71 -24.5q59 0 141 71q19 14 31 -4q4 -6 1.5 -14.5t-8.5 -13.5q-93 -88 -172 -88q-30 0 -60 15t-51.5 33t-52 33t-61.5 15z" />
    <glyph glyph-name="hungarumlaut" unicode="&#x2dd;" horiz-adv-x="808" 
d="M625 1436q6 8 17 8.5t20 -6.5q9 -6 9.5 -17t-5.5 -20l-197 -256q-6 -8 -15.5 -9t-17.5 5q-6 5 -7 13.5t3 14.5zM328 1436q6 8 17 8.5t20 -6.5q9 -6 9.5 -17t-5.5 -20l-197 -256q-6 -8 -15.5 -9t-17.5 5q-6 5 -7.5 13.5t3.5 14.5z" />
    <glyph glyph-name="gravecomb" unicode="&#x300;" horiz-adv-x="0" 
d="M-735 1436q9 7 20 6.5t17 -8.5l196 -263q4 -6 3 -14.5t-7 -13.5q-8 -6 -17.5 -5t-15.5 9l-200 252q-6 9 -5.5 20t9.5 17z" />
    <glyph glyph-name="acutecomb" unicode="&#x301;" horiz-adv-x="0" 
d="M-410 1434q6 8 17 8.5t20 -6.5q9 -6 9.5 -17t-5.5 -20l-200 -252q-6 -8 -15.5 -9t-17.5 5q-6 5 -7 13.5t3 14.5z" />
    <glyph glyph-name="uni0394" unicode="&#x394;" horiz-adv-x="1441" 
d="M713 1450q16 0 24 -18l600 -1373q9 -22 -3.5 -40.5t-35.5 -18.5h-1157q-23 0 -35.5 18.5t-3.5 40.5l586 1373q8 18 25 18zM713 1343l-547 -1286h1108z" />
    <glyph glyph-name="uni0394" unicode="&#x2206;" horiz-adv-x="1441" 
d="M713 1450q16 0 24 -18l600 -1373q9 -22 -3.5 -40.5t-35.5 -18.5h-1157q-23 0 -35.5 18.5t-3.5 40.5l586 1373q8 18 25 18zM713 1343l-547 -1286h1108z" />
    <glyph glyph-name="uni03A9" unicode="&#x3a9;" horiz-adv-x="1652" 
d="M659 63q29 -7 29 -32q0 -13 -9 -22t-20 -9h-448q-11 0 -19 8.5t-8 20.5t8 20t19 8h358q-196 66 -322 249t-126 421q0 153 55 288t149 231t224.5 151t277.5 55q197 0 358.5 -94t254 -260t92.5 -371q0 -240 -125.5 -422t-323.5 -248h359q11 0 18.5 -8t7.5 -20t-7.5 -20.5
t-18.5 -8.5h-451q-11 0 -18.5 8.5t-7.5 20.5q0 27 26 34q213 59 345 239.5t132 418.5q0 187 -82.5 341t-230 242.5t-328.5 88.5q-137 0 -256.5 -52t-204.5 -142t-133.5 -214.5t-48.5 -265.5q0 -235 131.5 -417t343.5 -239z" />
    <glyph glyph-name="uni03A9" unicode="&#x2126;" horiz-adv-x="1652" 
d="M659 63q29 -7 29 -32q0 -13 -9 -22t-20 -9h-448q-11 0 -19 8.5t-8 20.5t8 20t19 8h358q-196 66 -322 249t-126 421q0 153 55 288t149 231t224.5 151t277.5 55q197 0 358.5 -94t254 -260t92.5 -371q0 -240 -125.5 -422t-323.5 -248h359q11 0 18.5 -8t7.5 -20t-7.5 -20.5
t-18.5 -8.5h-451q-11 0 -18.5 8.5t-7.5 20.5q0 27 26 34q213 59 345 239.5t132 418.5q0 187 -82.5 341t-230 242.5t-328.5 88.5q-137 0 -256.5 -52t-204.5 -142t-133.5 -214.5t-48.5 -265.5q0 -235 131.5 -417t343.5 -239z" />
    <glyph glyph-name="pi" unicode="&#x3c0;" horiz-adv-x="1325" 
d="M102 55q74 7 123 63.5t78.5 194t30.5 361.5v192h-197q-11 0 -18.5 8.5t-7.5 20.5q0 11 8 19t18 8h1051q9 0 16.5 -8.5t7.5 -18.5q0 -12 -7.5 -20.5t-16.5 -8.5h-199v-628q0 -105 22.5 -148t86.5 -43q46 0 106 31q10 6 21.5 3t15.5 -13q4 -9 0.5 -19.5t-10.5 -13.5
q-67 -43 -150 -43q-77 0 -113 49t-36 156v669h-541v-172q0 -198 -19.5 -334.5t-58.5 -213t-88.5 -110.5t-118.5 -40q-29 -3 -32 27q-1 13 7 21.5t21 10.5z" />
    <glyph glyph-name="afii10023" unicode="&#x401;" horiz-adv-x="1177" 
d="M1010 57q11 0 18.5 -8t7.5 -20t-7.5 -20.5t-18.5 -8.5h-736q-15 0 -25.5 11t-10.5 26v1360q0 15 10.5 26t25.5 11h715q11 0 19 -8.5t8 -20.5t-8 -20.5t-19 -8.5h-690v-618h629q11 0 18.5 -8.5t7.5 -20.5t-7.5 -20.5t-18.5 -8.5h-629v-643h711zM393 1585q-21 0 -35 12
t-14 33q0 20 14 31.5t35 11.5q20 0 33.5 -11.5t13.5 -31.5q0 -21 -13.5 -33t-33.5 -12zM872 1585q-21 0 -35 12t-14 33q0 20 14 31.5t35 11.5q18 0 32 -12t14 -31q0 -21 -14 -33t-32 -12z" />
    <glyph glyph-name="afii10051" unicode="&#x402;" horiz-adv-x="1552" 
d="M635 1376v-641q42 28 71.5 45.5t79 40t106.5 34t122 11.5q95 0 169.5 -24t132.5 -75t89 -138.5t31 -208.5q0 -227 -91.5 -332.5t-246.5 -105.5q-82 0 -156 45q-23 14 -12 36q6 12 17 14.5t20 -3.5q61 -33 127 -33q131 0 205.5 92t74.5 285q0 202 -94 296.5t-279 94.5
q-44 0 -86 -7t-71.5 -15.5t-64.5 -25t-52.5 -27t-49.5 -30.5t-42 -26v-658q0 -12 -8.5 -20t-20.5 -8q-13 0 -22 8t-9 20v1356h-528q-11 0 -19 8.5t-8 20.5t8 20.5t19 8.5h1116q11 0 19 -8.5t8 -20.5t-8 -20.5t-19 -8.5h-528z" />
    <glyph glyph-name="afii10052" unicode="&#x403;" horiz-adv-x="1026" 
d="M299 1376v-1356q0 -12 -9 -20t-22 -8t-21.5 8t-8.5 20v1377q0 15 10.5 26t25.5 11h721q11 0 19 -8.5t8 -20.5t-8 -20.5t-19 -8.5h-696zM864 1733q7 5 17 2.5t16 -11.5q6 -13 2.5 -23t-12.5 -15l-305 -162q-6 -3 -15 0t-12 10q-4 8 -1 16t9 11z" />
    <glyph glyph-name="afii10053" unicode="&#x404;" horiz-adv-x="1396" 
d="M1221 1284q-152 109 -379 109q-289 0 -469.5 -176t-194.5 -457h776q11 0 19 -8.5t8 -20.5t-8 -20.5t-19 -8.5h-776q3 -197 89 -347.5t238 -232t347 -81.5q219 0 399 125q9 6 21 4t18 -12q14 -24 -10 -41q-190 -135 -434 -135q-325 0 -527 202.5t-202 532.5
q0 210 87.5 377t251.5 262.5t378 95.5q118 0 229 -31t190 -92q19 -15 4 -37q-17 -21 -36 -8z" />
    <glyph glyph-name="afii10054" unicode="&#x405;" horiz-adv-x="1112" 
d="M131 205q9 9 21 8.5t20 -8.5q66 -76 169 -120t202 -44q103 0 189.5 33t143 104.5t56.5 169.5q0 72 -26.5 128.5t-71.5 93.5t-103 67t-122.5 54t-129 48.5t-122.5 56t-103 71.5t-71.5 101t-26.5 138q0 151 109 248.5t300 97.5q107 0 203 -34t156 -93q8 -6 8.5 -18
t-6.5 -21q-8 -9 -18.5 -10t-18.5 6q-123 111 -326 111q-157 0 -250.5 -78.5t-93.5 -208.5q0 -71 26.5 -125.5t71.5 -90.5t103 -64.5t122.5 -51.5t129 -46.5t122.5 -56t103 -73.5t71.5 -104t26.5 -144q0 -165 -128 -266.5t-320 -101.5q-119 0 -237.5 49.5t-178.5 130.5
q-16 24 0 43z" />
    <glyph glyph-name="afii10055" unicode="&#x406;" horiz-adv-x="647" 
d="M354 1409v-1389q0 -12 -8.5 -20t-21.5 -8t-22 8t-9 20v1389q0 12 9 20.5t22 8.5t21.5 -8.5t8.5 -20.5z" />
    <glyph glyph-name="afii10056" unicode="&#x407;" horiz-adv-x="647" 
d="M184 1673q16 0 28.5 -12.5t12.5 -30.5q0 -19 -12.5 -32t-28.5 -13q-19 0 -33 12.5t-14 32.5q0 18 14 30.5t33 12.5zM469 1673q18 0 30.5 -12.5t12.5 -30.5q0 -20 -12.5 -32.5t-30.5 -12.5q-19 0 -32 12.5t-13 32.5q0 19 13 31t32 12zM354 1409v-1389q0 -12 -8.5 -20
t-21.5 -8t-22 8t-9 20v1389q0 12 9 20.5t22 8.5t21.5 -8.5t8.5 -20.5z" />
    <glyph glyph-name="afii10057" unicode="&#x408;" horiz-adv-x="716" 
d="M418 313v1098q0 11 9 19t22 8q12 0 20 -8t8 -19v-1104q0 -77 -12.5 -133.5t-41.5 -101.5t-81.5 -67.5t-128.5 -22.5q-88 0 -158 45q-8 5 -11.5 15t1.5 21q6 11 17 15t20 -2q64 -35 125 -35q64 0 107.5 20.5t65 60t30 84.5t8.5 107z" />
    <glyph glyph-name="afii10058" unicode="&#x409;" horiz-adv-x="2131" 
d="M1479 850q267 0 400.5 -108t133.5 -304q0 -217 -146 -329.5t-405 -112.5q-97 0 -245 4q-15 0 -26 11t-11 26v1339h-672l-23 -270q-16 -201 -39 -364t-48.5 -276.5t-57 -198.5t-61.5 -135t-65 -81.5t-64.5 -42.5t-63.5 -12q-10 0 -18.5 9t-8.5 20q0 29 27 32q24 3 47 15
t53 43.5t56.5 80t55 132.5t52 193.5t45 270t35.5 355.5l19 250q0 15 11.5 26t26.5 11h717q15 0 26 -11t11 -26v-557q120 10 238 10zM1241 57q31 0 105 -2t124 -2q234 0 358 98.5t124 288.5q0 168 -120.5 260.5t-352.5 92.5q-116 0 -238 -13v-723z" />
    <glyph glyph-name="afii10059" unicode="&#x40a;" horiz-adv-x="2215" 
d="M299 756v-736q0 -12 -9 -20t-22 -8t-21.5 8t-8.5 20v1389q0 12 8.5 20.5t21.5 8.5t22 -8.5t9 -20.5v-596h965v598q0 11 8.5 19t21.5 8q12 0 20.5 -8t8.5 -19v-596q147 12 240 12q268 0 401 -103.5t133 -295.5q0 -215 -145.5 -323.5t-405.5 -108.5q-45 0 -121.5 2
t-109.5 2h-27q-10 0 -17 7t-7 18v731h-965zM1554 53q235 0 357.5 94.5t122.5 280.5q0 166 -119 254t-352 88q-125 0 -240 -12v-701q32 0 106.5 -2t124.5 -2z" />
    <glyph glyph-name="afii10060" unicode="&#x40b;" horiz-adv-x="1552" 
d="M606 -8q-13 0 -22 8t-9 20v1356h-528q-11 0 -19 8.5t-8 20.5t8 20.5t19 8.5h1116q11 0 19 -8.5t8 -20.5t-8 -20.5t-19 -8.5h-528v-643q176 133 397 133q190 0 297 -112t107 -346v-388q0 -12 -8.5 -20t-20.5 -8q-13 0 -22 8t-9 20v379q0 204 -92.5 307t-265.5 103
q-27 0 -54 -2.5t-48 -6t-47 -11t-41.5 -12t-40 -16t-34.5 -16t-34.5 -18.5t-29.5 -17t-29 -18t-25 -16v-656q0 -12 -8.5 -20t-20.5 -8z" />
    <glyph glyph-name="afii10061" unicode="&#x40c;" horiz-adv-x="1277" 
d="M418 721q-9 10 -8.5 26t10.5 25l667 651q15 15 33 15q17 0 23.5 -17.5t-10.5 -36.5l-656 -632l684 -705q15 -17 7.5 -36t-27.5 -19q-15 0 -29 14zM299 1409v-1389q0 -12 -9 -20t-22 -8t-21.5 8t-8.5 20v1389q0 12 8.5 20.5t21.5 8.5t22 -8.5t9 -20.5zM881 1733
q19 11 32 -9q6 -13 2.5 -23t-12.5 -15l-305 -162q-6 -3 -15 0t-12 10q-4 8 -1 16t10 11z" />
    <glyph glyph-name="afii10062" unicode="&#x40e;" horiz-adv-x="1310" 
d="M117 1417l624 -1030l461 1028q9 23 29 23q15 0 23 -11.5t1 -29.5l-487 -1078q-77 -171 -147 -248t-162 -77q-70 0 -127 31q-23 15 -10 38q14 24 36 11q48 -25 99 -25q70 0 124.5 59t100.5 158l31 62l-650 1067q-8 14 0 28.5t25 14.5q16 0 29 -21zM678 1528
q-112 0 -202 48.5t-128 121.5q-6 13 2.5 24t22.5 11q15 0 33 -25q45 -60 115 -96.5t157 -36.5q88 0 162 36t106 95q17 27 31 27q17 0 23.5 -11t-1.5 -28q-31 -71 -122.5 -118.5t-198.5 -47.5z" />
    <glyph glyph-name="afii10145" unicode="&#x40f;" horiz-adv-x="1558" 
d="M778 -326q-12 0 -20 8t-8 19v299h-476q-15 0 -25.5 11t-10.5 26v1372q0 12 8.5 20.5t21.5 8.5t22 -8.5t9 -20.5v-1352h961v1352q0 12 8.5 20.5t21.5 8.5t22 -8.5t9 -20.5v-1372q0 -15 -11 -26t-26 -11h-477v-299q0 -11 -8.5 -19t-20.5 -8z" />
    <glyph glyph-name="afii10017" unicode="&#x410;" horiz-adv-x="1413" 
d="M1063 532h-717l-225 -522q-7 -18 -31 -18q-14 0 -22 13t-2 26l610 1399q7 18 31 18q23 0 30 -18l611 -1399q6 -14 -3 -26.5t-26 -12.5q-22 0 -29 18zM705 1358l-334 -768h667z" />
    <glyph glyph-name="afii10018" unicode="&#x411;" horiz-adv-x="1245" 
d="M559 840q261 0 394.5 -107t133.5 -299q0 -217 -144 -327.5t-402 -110.5q-111 0 -267 4q-15 0 -25.5 11t-10.5 26v1360q0 15 10.5 26t25.5 11h709q11 0 19 -8.5t8 -20.5t-8 -20.5t-19 -8.5h-684v-549q153 13 260 13zM299 57q32 0 116 -2t134 -2q233 0 355 97t122 282
q0 165 -118.5 257.5t-348.5 92.5q-145 0 -260 -12v-713z" />
    <glyph glyph-name="afii10019" unicode="&#x412;" horiz-adv-x="1263" 
d="M739 743q176 -19 271.5 -108.5t95.5 -241.5q0 -103 -38 -181t-107 -124.5t-159 -69t-200 -22.5q-53 0 -169.5 2t-158.5 2q-15 0 -25.5 11t-10.5 26v1360q0 15 10.5 26t25.5 11q41 0 157.5 2t168.5 2q447 0 447 -353q0 -142 -88.5 -230t-219.5 -112zM299 57q29 0 139.5 -2
t163.5 -2q210 0 326 86.5t116 257.5q0 149 -113.5 230.5t-324.5 81.5h-307v-652zM299 764h319q156 0 261.5 85.5t105.5 227.5q0 151 -94.5 227t-294.5 76q-171 0 -297 -4v-612z" />
    <glyph glyph-name="afii10020" unicode="&#x413;" horiz-adv-x="1026" 
d="M299 1376v-1356q0 -12 -9 -20t-22 -8t-21.5 8t-8.5 20v1377q0 15 10.5 26t25.5 11h721q11 0 19 -8.5t8 -20.5t-8 -20.5t-19 -8.5h-696z" />
    <glyph glyph-name="afii10021" unicode="&#x414;" horiz-adv-x="1511" 
d="M96 0v-254q0 -11 -8 -19t-20 -8t-20.5 8t-8.5 19v274q0 15 11 26t26 11h117q28 35 61.5 109t74 200.5t73.5 332t47 448.5l14 250q2 15 13 26t26 11h700q15 0 26 -11t11 -26v-1340h158q15 0 26 -11t11 -26v-274q0 -11 -8.5 -19t-20.5 -8t-20.5 8t-8.5 19v254h-1280z
M1180 57v1319h-656l-18 -266q-12 -192 -36.5 -362t-52 -282.5t-59 -203t-55.5 -136.5t-43 -69h920z" />
    <glyph glyph-name="afii10022" unicode="&#x415;" horiz-adv-x="1177" 
d="M1010 57q11 0 18.5 -8t7.5 -20t-7.5 -20.5t-18.5 -8.5h-736q-15 0 -25.5 11t-10.5 26v1360q0 15 10.5 26t25.5 11h715q11 0 19 -8.5t8 -20.5t-8 -20.5t-19 -8.5h-690v-618h629q11 0 18.5 -8.5t7.5 -20.5t-7.5 -20.5t-18.5 -8.5h-629v-643h711z" />
    <glyph glyph-name="afii10024" unicode="&#x416;" horiz-adv-x="1851" 
d="M1073 721q-11 11 -11 27t11 26l594 649q15 15 31 15q18 0 25 -17t-7 -32l-592 -639l623 -707q12 -13 4.5 -32t-27.5 -19q-18 0 -28 14zM956 1409v-1389q0 -12 -8.5 -20t-21.5 -8t-22 8t-9 20v1389q0 12 9 20.5t22 8.5t21.5 -8.5t8.5 -20.5zM129 -8q-18 0 -25.5 16t5.5 33
l618 707l-594 643q-13 13 -5.5 30t26.5 17q15 0 30 -15l594 -649q10 -10 10 -26t-10 -27l-620 -715q-10 -14 -29 -14z" />
    <glyph glyph-name="afii10025" unicode="&#x417;" horiz-adv-x="1165" 
d="M950 1087q0 -106 -60.5 -204t-166.5 -142q129 -17 206 -114.5t77 -225.5q0 -193 -133 -306t-338 -113q-118 0 -239.5 52.5t-184.5 131.5q-6 6 -6.5 17.5t6.5 19.5q19 19 39 0q73 -74 180.5 -118t195.5 -44q193 0 306.5 99.5t113.5 265.5q0 138 -88.5 218.5t-236.5 80.5
h-164q-11 0 -19 8t-8 20t8 20.5t19 8.5h149q108 0 196.5 95.5t88.5 229.5q0 148 -94 227t-242 79q-118 0 -204.5 -38t-160.5 -112q-8 -7 -18 -7t-18 7q-7 6 -7.5 18t5.5 19q74 82 178.5 127t222.5 45q183 0 290 -97t107 -268z" />
    <glyph glyph-name="afii10026" unicode="&#x418;" horiz-adv-x="1636" 
d="M1368 -8q-13 0 -22 8t-9 20v1315l-1032 -1327q-13 -16 -35 -16q-32 0 -32 31v1386q0 12 8.5 20.5t21.5 8.5t22 -8.5t9 -20.5v-1321l1032 1329q17 21 37 21q13 0 22 -8.5t9 -20.5v-1389q0 -12 -9 -20t-22 -8z" />
    <glyph glyph-name="afii10027" unicode="&#x419;" horiz-adv-x="1636" 
d="M1368 -8q-13 0 -22 8t-9 20v1315l-1032 -1327q-13 -16 -35 -16q-32 0 -32 31v1386q0 12 8.5 20.5t21.5 8.5t22 -8.5t9 -20.5v-1321l1032 1329q17 21 37 21q13 0 22 -8.5t9 -20.5v-1389q0 -12 -9 -20t-22 -8zM815 1528q-112 0 -202 48.5t-128 121.5q-6 13 2.5 24t22.5 11
q15 0 33 -25q45 -60 115 -96.5t157 -36.5q88 0 162 36t106 95q17 27 31 27q17 0 23.5 -11t-0.5 -28q-31 -71 -123 -118.5t-199 -47.5z" />
    <glyph glyph-name="afii10028" unicode="&#x41a;" horiz-adv-x="1277" 
d="M418 721q-9 10 -8.5 26t10.5 25l667 651q15 15 33 15q17 0 23.5 -17.5t-10.5 -36.5l-656 -632l684 -705q15 -17 7.5 -36t-27.5 -19q-15 0 -29 14zM299 1409v-1389q0 -12 -9 -20t-22 -8t-21.5 8t-8.5 20v1389q0 12 8.5 20.5t21.5 8.5t22 -8.5t9 -20.5z" />
    <glyph glyph-name="afii10029" unicode="&#x41b;" horiz-adv-x="1478" 
d="M1241 1397v-1377q0 -12 -9 -20t-22 -8t-21.5 8t-8.5 20v1356h-672l-23 -270q-16 -201 -39 -364t-48.5 -276.5t-57 -198.5t-61.5 -135t-65 -81.5t-64.5 -42.5t-63.5 -12q-10 0 -18.5 9t-8.5 20q0 29 27 32q24 3 47 15t53 43.5t56.5 80t55 132.5t52 193.5t45 270
t35.5 355.5l19 250q0 15 11.5 26t26.5 11h717q15 0 26 -11t11 -26z" />
    <glyph glyph-name="afii10030" unicode="&#x41c;" horiz-adv-x="1796" 
d="M299 1335v-1315q0 -12 -9 -20t-22 -8t-21.5 8t-8.5 20v1385q0 15 9 25t25 10q23 0 39 -23l596 -813l576 811q20 25 43 25q15 0 24 -10t9 -27v-1383q0 -12 -8.5 -20t-20.5 -8q-13 0 -22 8t-9 20v1321l-555 -774q-14 -20 -38.5 -20t-39.5 20z" />
    <glyph glyph-name="afii10031" unicode="&#x41d;" horiz-adv-x="1581" 
d="M1343 1411v-1393q0 -12 -8 -20t-20 -8q-13 0 -22 8t-9 20v684h-985v-684q0 -12 -9 -20t-22 -8t-21.5 8t-8.5 20v1391q0 12 8.5 20.5t21.5 8.5t22 -8.5t9 -20.5v-649h985v651q0 11 9 19t22 8q12 0 20 -8t8 -19z" />
    <glyph glyph-name="afii10032" unicode="&#x41e;" horiz-adv-x="1652" 
d="M825 1452q148 0 279.5 -56t226 -153t149 -233.5t54.5 -292.5q0 -206 -93 -374.5t-255.5 -264.5t-360.5 -96q-197 0 -359 95t-255.5 264t-93.5 376q0 205 92.5 373.5t255 265t360.5 96.5zM825 41q183 0 330.5 88t231 243t83.5 345q0 143 -49.5 268.5t-135 215t-205 141
t-255.5 51.5q-135 0 -254.5 -51.5t-205 -141t-135.5 -215t-50 -268.5q0 -142 50 -267.5t135.5 -215t205 -141.5t254.5 -52z" />
    <glyph glyph-name="afii10033" unicode="&#x41f;" horiz-adv-x="1579" 
d="M1341 1397v-1377q0 -12 -8.5 -20t-21.5 -8t-22 8t-9 20v1356h-981v-1356q0 -12 -9 -20t-22 -8t-21.5 8t-8.5 20v1377q0 15 10.5 26t25.5 11h1031q15 0 25.5 -11t10.5 -26z" />
    <glyph glyph-name="afii10034" unicode="&#x420;" horiz-adv-x="1177" 
d="M1059 1016q0 -66 -17.5 -127t-56 -116.5t-96 -96t-143.5 -64.5t-191 -24q-109 0 -256 10v-578q0 -12 -9 -20t-22 -8t-21.5 8t-8.5 20v1377q0 15 10.5 26t25.5 11q47 0 155 2t136 2q113 0 201 -24.5t142 -64.5t89 -96t48.5 -114t13.5 -123zM299 655q147 -10 252 -10
q218 0 332 103.5t114 269.5q0 164 -104 263t-322 99q-136 0 -272 -4v-721z" />
    <glyph glyph-name="afii10035" unicode="&#x421;" horiz-adv-x="1345" 
d="M811 1393q-186 0 -330.5 -89t-222.5 -242.5t-78 -344.5q0 -304 181 -490t470 -186q225 0 386 123q23 17 38 -2q8 -11 5.5 -22.5t-11.5 -18.5q-75 -65 -189 -102t-233 -37q-156 0 -288 52.5t-225 147.5t-145 232.5t-52 302.5q0 206 85 372.5t244 264.5t363 98
q253 0 414 -119q20 -16 6 -37q-7 -9 -18.5 -10.5t-18.5 4.5q-145 103 -381 103z" />
    <glyph glyph-name="afii10036" unicode="&#x422;" horiz-adv-x="1210" 
d="M606 -8q-13 0 -22 8t-9 20v1356h-528q-11 0 -19 8.5t-8 20.5t8 20.5t19 8.5h1116q11 0 19 -8.5t8 -20.5t-8 -20.5t-19 -8.5h-528v-1356q0 -12 -8.5 -20t-20.5 -8z" />
    <glyph glyph-name="afii10037" unicode="&#x423;" horiz-adv-x="1310" 
d="M117 1417l624 -1030l461 1028q9 23 29 23q15 0 23 -11.5t1 -29.5l-487 -1078q-77 -171 -147 -248t-162 -77q-70 0 -127 31q-23 15 -10 38q14 24 36 11q48 -25 99 -25q70 0 124.5 59t100.5 158l31 62l-650 1067q-8 14 0 28.5t25 14.5q16 0 29 -21z" />
    <glyph glyph-name="afii10038" unicode="&#x424;" horiz-adv-x="1693" 
d="M877 170v-160q0 -10 -9.5 -18t-21.5 -8q-13 0 -23 7.5t-10 18.5v160q-323 0 -520 150.5t-197 416.5q0 267 195.5 417.5t521.5 150.5v118q0 11 10 19t23 8q12 0 21.5 -8.5t9.5 -18.5v-118q331 0 524.5 -151t193.5 -417q0 -177 -92 -306t-253 -195t-373 -66zM877 1249
v-1024q191 0 336.5 56t232 173.5t86.5 282.5t-82.5 281.5t-229 173.5t-343.5 57zM160 737q0 -164 85.5 -281t231 -174t336.5 -57v1024q-194 0 -340 -58t-229.5 -174.5t-83.5 -279.5z" />
    <glyph glyph-name="afii10039" unicode="&#x425;" horiz-adv-x="1345" 
d="M180 1417l494 -643l495 643q17 21 33 21q19 0 26 -16.5t-3 -28.5l-512 -664l532 -690q11 -13 4 -30t-24 -17q-18 0 -31 16l-522 674l-520 -674q-13 -16 -31 -16q-16 0 -24 16t3 31l535 690l-510 664q-10 12 -3.5 28.5t25.5 16.5q18 0 33 -21z" />
    <glyph glyph-name="afii10040" unicode="&#x426;" horiz-adv-x="1603" 
d="M1497 -281q-12 0 -20.5 8t-8.5 19v254h-1194q-15 0 -25.5 11t-10.5 26v1372q0 12 8.5 20.5t21.5 8.5t22 -8.5t9 -20.5v-1352h971v1352q0 12 8.5 20.5t21.5 8.5t22 -8.5t9 -20.5v-1352h158q15 0 26 -11t11 -26v-274q0 -11 -8.5 -19t-20.5 -8z" />
    <glyph glyph-name="afii10041" unicode="&#x427;" horiz-adv-x="1277" 
d="M979 743v666q0 12 9 20.5t22 8.5t21.5 -8.5t8.5 -20.5v-1389q0 -12 -8.5 -20t-21.5 -8t-22 8t-9 20v664q-76 -51 -191.5 -91t-238.5 -40q-192 0 -308 114t-116 345v397q0 12 9 20.5t22 8.5t21.5 -8.5t8.5 -20.5v-389q0 -200 101 -304t276 -104q213 0 416 131z" />
    <glyph glyph-name="afii10042" unicode="&#x428;" horiz-adv-x="2029" 
d="M1792 1411v-1374q0 -15 -11 -26t-26 -11h-1481q-15 0 -25.5 11t-10.5 26v1374q0 11 8.5 19t21.5 8q12 0 20.5 -8t8.5 -19v-1354h688v1354q0 11 9 19t22 8q12 0 20 -8t8 -19v-1354h689v1354q0 11 8.5 19t21.5 8q12 0 20.5 -8t8.5 -19z" />
    <glyph glyph-name="afii10043" unicode="&#x429;" horiz-adv-x="2064" 
d="M1958 -281q-12 0 -20.5 8t-8.5 19v254h-1655q-15 0 -25.5 11t-10.5 26v1374q0 11 8.5 19t21.5 8q12 0 20.5 -8t8.5 -19v-1354h688v1354q0 11 9 19t22 8q12 0 20 -8t8 -19v-1354h689v1354q0 11 8.5 19t21.5 8q12 0 20.5 -8t8.5 -19v-1354h158q15 0 26 -11t11 -26v-274
q0 -11 -8.5 -19t-20.5 -8z" />
    <glyph glyph-name="afii10044" unicode="&#x42a;" horiz-adv-x="1359" 
d="M422 0q-15 0 -26 11t-11 26v1339h-356q-11 0 -19 8.5t-8 20.5t8 20.5t19 8.5h381q15 0 25.5 -11t10.5 -26v-557q120 10 256 10q270 0 404.5 -108t134.5 -304q0 -217 -146.5 -329.5t-408.5 -112.5q-108 0 -264 4zM446 57q31 0 114.5 -2t133.5 -2q235 0 359.5 98t124.5 289
q0 168 -122 260.5t-354 92.5q-131 0 -256 -13v-723z" />
    <glyph glyph-name="afii10045" unicode="&#x42b;" horiz-adv-x="1669" 
d="M1432 1411v-1391q0 -12 -8.5 -20t-20.5 -8q-13 0 -22 8t-9 20v1391q0 11 9 19t22 8q12 0 20.5 -8t8.5 -19zM299 57q31 0 105 -2t124 -2q234 0 358 98.5t124 288.5q0 168 -120.5 260.5t-352.5 92.5q-113 0 -238 -13v-723zM238 37v1372q0 12 8.5 20.5t21.5 8.5t22 -8.5
t9 -20.5v-569q120 10 238 10q267 0 400.5 -108t133.5 -304q0 -217 -145.5 -329.5t-403.5 -112.5q-100 0 -248 4q-15 0 -25.5 11t-10.5 26z" />
    <glyph glyph-name="afii10046" unicode="&#x42c;" horiz-adv-x="1210" 
d="M299 57q31 0 114.5 -2t133.5 -2q235 0 359 98t124 289q0 168 -121.5 260.5t-353.5 92.5q-131 0 -256 -13v-723zM238 37v1372q0 12 8.5 20.5t21.5 8.5t22 -8.5t9 -20.5v-569q120 10 256 10q269 0 403 -108t134 -304q0 -217 -146.5 -329.5t-406.5 -112.5q-109 0 -265 4
q-15 0 -25.5 11t-10.5 26z" />
    <glyph glyph-name="afii10047" unicode="&#x42d;" horiz-adv-x="1398" 
d="M147 166q186 -125 418 -125q190 0 338.5 87t229.5 237t86 337h-777q-11 0 -18.5 8.5t-7.5 20.5t7.5 20.5t18.5 8.5h777q-12 292 -191.5 462.5t-474.5 170.5q-229 0 -381 -109q-7 -7 -18 -5.5t-17 11.5q-12 21 8 37q79 61 190 93t228 32q327 0 522 -197.5t195 -531.5
q0 -156 -51 -292t-142.5 -235.5t-225.5 -156.5t-292 -57q-257 0 -452 133q-9 6 -12 18t4 23q16 25 38 10z" />
    <glyph glyph-name="afii10048" unicode="&#x42e;" horiz-adv-x="2199" 
d="M299 702v-682q0 -12 -9 -20t-22 -8t-21.5 8t-8.5 20v1389q0 12 8.5 20.5t21.5 8.5t22 -8.5t9 -20.5v-649h410q10 195 99 352.5t242.5 248.5t342.5 91q197 0 355 -95.5t245.5 -263t87.5 -376.5q0 -155 -51.5 -291t-141.5 -233.5t-218.5 -154t-276.5 -56.5
q-144 0 -270.5 54.5t-216.5 149.5t-142.5 228.5t-54.5 287.5h-410zM1395 41q182 0 324.5 88.5t220 242.5t77.5 345q0 192 -78.5 346t-221 242t-322.5 88q-178 0 -321.5 -88t-223.5 -242.5t-80 -345.5q0 -190 80 -344.5t223.5 -243t321.5 -88.5z" />
    <glyph glyph-name="afii10049" unicode="&#x42f;" horiz-adv-x="1245" 
d="M1008 1397v-1377q0 -12 -8.5 -20t-20.5 -8q-13 0 -22 8t-9 20v566h-362l-432 -578q-13 -16 -33 -16q-17 0 -23.5 17t4.5 30l422 555q-137 33 -236.5 142.5t-99.5 258.5q0 196 134.5 319.5t384.5 123.5q108 0 264 -4q15 0 26 -11t11 -26zM948 1376q-31 0 -117 2t-135 2
q-112 0 -198.5 -30.5t-139 -84t-79.5 -122t-27 -148.5q0 -132 97 -232t224 -120h375v733z" />
    <glyph glyph-name="afii10065" unicode="&#x430;" horiz-adv-x="935" 
d="M446 535q172 0 279 -76q0 57 -1 92.5t-5 81.5t-12 74t-21.5 60.5t-34 51t-49.5 35.5t-68.5 24t-89.5 7q-68 0 -121 -15.5t-116 -50.5q-7 -5 -18 -0.5t-15 15.5q-8 21 14 34q126 72 263 72q179 0 255 -92t76 -273v-552q0 -11 -8 -19t-20 -8t-20.5 8t-8.5 19v137
q-123 -170 -342 -170q-129 0 -208 72t-79 192q0 134 97.5 207.5t252.5 73.5zM725 403q-116 82 -274 82q-76 0 -140 -22.5t-108.5 -75.5t-44.5 -129q0 -99 67 -156t170 -57q65 0 119.5 15t94 43.5t64.5 54t52 61.5v184z" />
    <glyph glyph-name="afii10066" unicode="&#x431;" horiz-adv-x="1142" 
d="M578 -18q-215 0 -344.5 151t-129.5 412q0 57 2 106t10 117t22 124.5t39 120t59.5 112.5t86 93t115.5 70q73 30 153.5 46t130.5 19.5t99.5 22.5t81.5 58q6 8 18 8.5t21 -8.5q14 -14 -2 -35q-34 -47 -87 -70t-106 -27.5t-137 -21t-157 -47.5q-267 -111 -289 -592
q50 128 169 203.5t259 75.5q207 0 325.5 -128t118.5 -339q0 -96 -35 -182.5t-95.5 -150t-146 -101t-181.5 -37.5zM573 37q171 0 287.5 120.5t116.5 293.5q0 186 -105 299.5t-290 113.5q-87 0 -162.5 -29t-126.5 -77t-84 -105t-43 -116q0 -236 114.5 -368t292.5 -132z" />
    <glyph glyph-name="afii10067" unicode="&#x432;" horiz-adv-x="980" 
d="M629 477q124 -18 179.5 -74.5t55.5 -154.5q0 -123 -101 -188.5t-300 -65.5q-30 0 -252 6q-15 0 -26 11t-11 26v848q0 15 11 26t26 11q210 6 246 6q186 0 277 -56.5t91 -177.5q0 -81 -50 -142t-146 -75zM233 53q29 0 104 -2t126 -2q340 0 340 205q0 190 -307 190h-263
v-391zM233 494h281q115 0 182.5 53t67.5 141q0 53 -23.5 90.5t-67.5 57t-95.5 28t-118.5 8.5q-49 0 -226 -6v-372z" />
    <glyph glyph-name="afii10068" unicode="&#x433;" horiz-adv-x="708" 
d="M233 866v-841q0 -12 -8 -20.5t-20 -8.5q-13 0 -22 8.5t-9 20.5v860q0 15 11 26t26 11h471q9 0 17 -8.5t8 -18.5q0 -12 -8 -20.5t-17 -8.5h-449z" />
    <glyph glyph-name="afii10069" unicode="&#x434;" horiz-adv-x="1050" 
d="M76 0v-215q0 -9 -8.5 -17t-18.5 -8q-12 0 -20.5 8t-8.5 17v233q0 15 11 26t26 11h76q50 62 97 217.5t61 374.5l12 238q2 15 13 26t26 11h479q15 0 26 -11t11 -26v-830h117q15 0 26 -11t11 -26v-233q0 -9 -8.5 -17t-18.5 -8q-12 0 -20.5 8t-8.5 17v215h-880zM801 55v811
h-441l-14 -239q-14 -202 -60.5 -360.5t-90.5 -211.5h606z" />
    <glyph glyph-name="afii10070" unicode="&#x435;" horiz-adv-x="1079" 
d="M942 463h-772q1 -196 116 -311t306 -115q85 0 161.5 29.5t131.5 78.5q16 12 30 -2q8 -10 5.5 -20t-9.5 -17q-58 -60 -144 -92t-177 -32q-214 0 -349 131.5t-135 347.5q0 137 50 243.5t155 171t252 64.5q180 0 296 -114t116 -300q0 -24 -2 -34q0 -11 -9.5 -20t-21.5 -9z
M555 885q-173 0 -275 -103.5t-114 -269.5h749q1 171 -97 272t-263 101z" />
    <glyph glyph-name="afii10072" unicode="&#x436;" horiz-adv-x="1300" 
d="M786 453q-10 11 -10 27t10 26l355 405q11 15 28 15q15 0 22.5 -14t-3.5 -27l-359 -406l383 -440q10 -13 3.5 -28t-21.5 -15q-18 0 -29 14zM676 899v-876q0 -11 -8.5 -19t-20.5 -8t-20.5 8t-8.5 19v876q0 11 8.5 19t20.5 8t20.5 -8t8.5 -19zM106 -4q-17 0 -24.5 15t4.5 28
l379 440l-359 404q-11 11 -4.5 27t23.5 16q18 0 29 -15l352 -405q10 -10 10.5 -26.5t-8.5 -28.5l-375 -441q-14 -14 -27 -14z" />
    <glyph glyph-name="afii10073" unicode="&#x437;" horiz-adv-x="931" 
d="M774 702q0 -73 -41.5 -133.5t-128.5 -93.5q98 -9 153.5 -72t55.5 -147q0 -127 -103.5 -200.5t-269.5 -73.5q-82 0 -181.5 30.5t-149.5 77.5q-7 5 -8.5 15.5t5.5 21.5q7 10 18.5 11.5t18.5 -5.5q56 -46 137.5 -71t149.5 -25q146 0 235 61t89 164q0 85 -65.5 133.5
t-176.5 48.5h-133q-9 0 -16 7.5t-7 17.5t7 17.5t16 7.5h123q86 0 149.5 58.5t63.5 143.5q0 90 -71.5 139.5t-194.5 49.5q-158 0 -279 -94q-18 -14 -35 6q-15 18 4 37q56 51 140.5 78.5t177.5 27.5q153 0 235 -63t82 -175z" />
    <glyph glyph-name="afii10074" unicode="&#x438;" horiz-adv-x="1148" 
d="M946 -4q-12 0 -20 8t-8 19v815l-672 -822q-16 -20 -39 -20q-14 0 -23.5 10t-9.5 23v870q0 11 9 19t22 8q12 0 20 -8t8 -19v-815l672 821q17 21 37 21q14 0 23.5 -10t9.5 -21v-872q0 -11 -8.5 -19t-20.5 -8z" />
    <glyph glyph-name="afii10075" unicode="&#x439;" horiz-adv-x="1148" 
d="M946 -4q-12 0 -20 8t-8 19v815l-672 -822q-16 -20 -39 -20q-14 0 -23.5 10t-9.5 23v870q0 11 9 19t22 8q12 0 20 -8t8 -19v-815l672 821q17 21 37 21q14 0 23.5 -10t9.5 -21v-872q0 -11 -8.5 -19t-20.5 -8zM588 1167q-116 0 -188.5 60.5t-77.5 156.5q0 8 7.5 15.5
t18.5 7.5q23 0 27 -25q8 -73 65.5 -119t147.5 -46q85 0 141 46t64 119q4 25 26 25q11 0 18 -7.5t7 -17.5q-6 -94 -78 -154.5t-178 -60.5z" />
    <glyph glyph-name="afii10076" unicode="&#x43a;" horiz-adv-x="966" 
d="M336 455q-10 9 -10 24.5t10 24.5l452 407q15 15 31 15q19 0 23 -18t-8 -27l-447 -400l479 -436q14 -13 8.5 -31t-24.5 -18q-17 0 -31 14zM233 899v-874q0 -12 -8 -20.5t-20 -8.5q-13 0 -22 8.5t-9 20.5v874q0 11 9 19t22 8q12 0 20 -8t8 -19z" />
    <glyph glyph-name="afii10077" unicode="&#x43b;" horiz-adv-x="1071" 
d="M897 885v-862q0 -11 -8.5 -19t-20.5 -8t-20 8t-8 19v841h-445l-14 -241q-41 -599 -275 -627q-9 -1 -17.5 6t-10.5 18q-3 27 24 33q24 6 47.5 22.5t53 58t53 102t42.5 164t26 235.5l14 250q2 15 13 26t26 11h483q15 0 26 -11t11 -26z" />
    <glyph glyph-name="afii10078" unicode="&#x43c;" horiz-adv-x="1265" 
d="M233 836v-811q0 -12 -8 -20.5t-20 -8.5q-13 0 -22 8.5t-9 20.5v870q0 12 8.5 21.5t24.5 9.5q20 0 37 -21l395 -540l385 540q17 21 37 21q13 0 22 -9.5t9 -19.5v-874q0 -11 -8.5 -19t-20.5 -8t-20.5 8t-8.5 19v813l-348 -490q-21 -31 -49 -31q-25 0 -47 29z" />
    <glyph glyph-name="afii10079" unicode="&#x43d;" horiz-adv-x="1136" 
d="M963 899v-874q0 -12 -8.5 -20.5t-20.5 -8.5q-13 0 -22 8.5t-9 20.5v417h-670v-417q0 -12 -8 -20.5t-20 -8.5q-13 0 -22 8.5t-9 20.5v874q0 11 9 19t22 8q12 0 20 -8t8 -19v-401h670v401q0 11 9 19t22 8q12 0 20.5 -8t8.5 -19z" />
    <glyph glyph-name="afii10080" unicode="&#x43e;" horiz-adv-x="1165" 
d="M582 940q210 0 343.5 -135.5t133.5 -343.5t-133.5 -343.5t-343.5 -135.5q-208 0 -342 135.5t-134 343.5t134 343.5t342 135.5zM582 37q183 0 299 119t116 305t-116 305t-299 119q-182 0 -299 -119t-117 -305t116.5 -305t299.5 -119z" />
    <glyph glyph-name="afii10081" unicode="&#x43f;" horiz-adv-x="1126" 
d="M952 885v-860q0 -12 -8 -20.5t-20 -8.5q-13 0 -22 8.5t-9 20.5v841h-660v-841q0 -12 -8 -20.5t-20 -8.5q-13 0 -22 8.5t-9 20.5v860q0 15 11 26t26 11h704q15 0 26 -11t11 -26z" />
    <glyph glyph-name="afii10082" unicode="&#x440;" horiz-adv-x="1130" 
d="M233 74v-457q0 -11 -8 -19t-20 -8q-13 0 -22 8t-9 19v1282q0 11 9 19t22 8q12 0 20 -8t8 -19v-113q56 67 155 110.5t200 43.5q202 0 320 -129t118 -336q0 -140 -57.5 -252t-165 -176.5t-246.5 -64.5q-201 0 -324 92zM233 135q137 -98 322 -98q182 0 296 120.5t114 311.5
q0 189 -103.5 302.5t-286.5 113.5q-103 0 -199 -46.5t-143 -109.5v-594z" />
    <glyph glyph-name="afii10083" unicode="&#x441;" horiz-adv-x="1005" 
d="M567 885q-166 0 -283.5 -122t-117.5 -302q0 -192 120 -308t306 -116q86 0 162.5 31.5t130.5 85.5q17 16 33 0q17 -17 -3 -37q-58 -66 -145 -100.5t-182 -34.5q-213 0 -347.5 131.5t-134.5 347.5q0 201 130.5 340t320.5 139q213 0 334 -96q21 -17 6 -41q-6 -9 -17 -10.5
t-20 4.5q-115 88 -293 88z" />
    <glyph glyph-name="afii10084" unicode="&#x442;" horiz-adv-x="886" 
d="M442 -4q-12 0 -20 8t-8 19v841h-365q-11 0 -18.5 8.5t-7.5 20.5t7.5 20.5t18.5 8.5h787q11 0 18.5 -8.5t7.5 -20.5t-7.5 -20.5t-18.5 -8.5h-365v-841q0 -11 -8.5 -19t-20.5 -8z" />
    <glyph glyph-name="afii10085" unicode="&#x443;" horiz-adv-x="966" 
d="M528 66q8 23 18 48.5t22.5 56.5t19.5 48l270 684q10 23 31 23q16 0 24.5 -13.5t1.5 -31.5l-360 -881q-67 -163 -123 -253t-105.5 -123.5t-113.5 -33.5q-57 0 -123 29q-9 4 -12 15t2 20q10 19 31 12q52 -22 94 -22q79 0 143 71.5t131 235.5l21 49l-445 881q-9 18 0 31.5
t27 13.5q19 0 29 -23l346 -688q26 -48 71 -149z" />
    <glyph glyph-name="afii10086" unicode="&#x444;" horiz-adv-x="1343" 
d="M700 -18v-365q0 -11 -8 -19t-20 -8t-20.5 8t-8.5 19v365h-37q-229 0 -364.5 134.5t-135.5 344.5q0 94 34.5 180.5t97 153t158 106t208.5 39.5h39v467q0 11 8.5 19t20.5 8t20 -8t8 -19v-467h43q216 0 356 -137.5t140 -341.5q0 -210 -135 -344.5t-361 -134.5h-43zM643 37
v848h-41q-197 0 -316.5 -121.5t-119.5 -302.5q0 -188 119.5 -306t326.5 -118h31zM700 37h35q205 0 324 118t119 306q0 112 -51 207.5t-152 156t-232 60.5h-43v-848z" />
    <glyph glyph-name="afii10087" unicode="&#x445;" horiz-adv-x="993" 
d="M178 905l318 -393l321 393q15 21 33 21q17 0 22.5 -15t-4.5 -26l-331 -410l352 -436q11 -12 4 -27.5t-27 -15.5q-14 0 -30 20l-340 418l-340 -418q-14 -20 -33 -20q-17 0 -23.5 14.5t4.5 26.5l353 436l-332 410q-10 13 -2.5 28t24.5 15q13 0 31 -21z" />
    <glyph glyph-name="afii10088" unicode="&#x446;" horiz-adv-x="1140" 
d="M1075 -240q-12 0 -20 8t-8 17v215h-836q-15 0 -26 11t-11 26v862q0 11 9 19t22 8q12 0 20 -8t8 -19v-844h658v844q0 11 8.5 19t20.5 8t20 -8t8 -19v-844h117q15 0 26 -11t11 -26v-233q0 -9 -8.5 -17t-18.5 -8z" />
    <glyph glyph-name="afii10089" unicode="&#x447;" horiz-adv-x="960" 
d="M729 471v428q0 11 8.5 19t20.5 8t20 -8t8 -19v-876q0 -11 -8 -19t-20 -8t-20.5 8t-8.5 19v393q-119 -88 -295 -88q-319 0 -319 342v227q0 12 8.5 20.5t21.5 8.5t22 -8.5t9 -20.5v-227q0 -144 70.5 -215.5t204.5 -71.5q167 0 278 88z" />
    <glyph glyph-name="afii10090" unicode="&#x448;" horiz-adv-x="1425" 
d="M1251 899v-862q0 -15 -11 -26t-26 -11h-1003q-15 0 -26 11t-11 26v862q0 11 8.5 19t20.5 8t20 -8t8 -19v-844h453v844q0 11 8.5 19t20.5 8t20 -8t8 -19v-844h453v844q0 11 8.5 19t20.5 8t20 -8t8 -19z" />
    <glyph glyph-name="afii10091" unicode="&#x449;" horiz-adv-x="1443" 
d="M1378 -240q-12 0 -20 8t-8 17v215h-1139q-15 0 -26 11t-11 26v862q0 11 8.5 19t20.5 8t20 -8t8 -19v-844h453v844q0 11 8.5 19t20.5 8t20 -8t8 -19v-844h453v844q0 11 8.5 19t20.5 8t20 -8t8 -19v-844h117q15 0 26 -11t11 -26v-233q0 -9 -8.5 -17t-18.5 -8z" />
    <glyph glyph-name="afii10092" unicode="&#x44a;" horiz-adv-x="1007" 
d="M342 0q-15 0 -26 11t-11 26v829h-276q-11 0 -19 8.5t-8 20.5q0 11 8 19t19 8h297q15 0 25.5 -11t10.5 -26v-301h187q103 0 176 -22t113 -62.5t57.5 -91t17.5 -115.5q0 -293 -374 -293h-197zM362 55h177q169 0 241 60.5t72 177.5q0 115 -73.5 175t-237.5 60h-179v-473z
" />
    <glyph glyph-name="afii10093" unicode="&#x44b;" horiz-adv-x="1234" 
d="M399 584q103 0 176 -22t113 -62.5t58 -91t18 -115.5q0 -134 -87.5 -213.5t-287.5 -79.5h-178q-15 0 -26 11t-11 26v862q0 11 9 19t22 8q12 0 20 -8t8 -19v-315h166zM233 55h156q170 0 243 61t73 177q0 115 -74.5 175t-239.5 60h-158v-473zM1061 899v-876q0 -11 -8.5 -19
t-20.5 -8t-20 8t-8 19v876q0 11 8 19t20 8t20.5 -8t8.5 -19z" />
    <glyph glyph-name="afii10094" unicode="&#x44c;" horiz-adv-x="876" 
d="M418 584q103 0 176 -22t113 -62.5t57.5 -91t17.5 -115.5q0 -293 -372 -293h-199q-15 0 -26 11t-11 26v862q0 11 9 19t22 8q12 0 20 -8t8 -19v-315h185zM233 55h175q170 0 242.5 60.5t72.5 177.5q0 115 -73.5 175t-239.5 60h-177v-473z" />
    <glyph glyph-name="afii10095" unicode="&#x44d;" horiz-adv-x="1005" 
d="M141 123q116 -86 301 -86q164 0 279 115t121 292h-490q-11 0 -17.5 7.5t-6.5 19.5q0 11 7 18t17 7h488q-10 180 -127 284.5t-295 104.5q-87 0 -164 -30.5t-131 -82.5q-6 -6 -16.5 -4.5t-16.5 10.5q-12 17 4 33q58 62 145.5 95.5t178.5 33.5q213 0 347 -131.5t134 -347.5
q0 -201 -130 -340t-320 -139q-221 0 -336 96q-20 16 -7 39q6 9 17 10.5t18 -4.5z" />
    <glyph glyph-name="afii10096" unicode="&#x44e;" horiz-adv-x="1519" 
d="M236 442v-417q0 -12 -9 -20.5t-22 -8.5t-22 8.5t-9 20.5v872q0 12 9 20.5t22 8.5t22 -8.5t9 -20.5v-397h262q12 194 138 317t318 123q202 0 330.5 -135.5t128.5 -343.5t-129.5 -343.5t-329.5 -135.5q-197 0 -323.5 129t-132.5 331h-262zM954 41q175 0 285.5 117
t110.5 303q0 185 -110 302.5t-286 117.5q-173 0 -283 -117.5t-110 -302.5q0 -186 110 -303t283 -117z" />
    <glyph glyph-name="afii10097" unicode="&#x44f;" horiz-adv-x="968" 
d="M125 39l281 348q-97 11 -168.5 81t-71.5 175q0 125 86.5 202t279.5 77h226q15 0 26 -11t11 -26v-862q0 -11 -8.5 -19t-20.5 -8t-20.5 8t-8.5 19v352h-272l-289 -363q-13 -16 -35 -16q-15 0 -21 15.5t5 27.5zM737 430v436h-215q-152 0 -224.5 -61.5t-72.5 -161.5
q0 -63 38 -114t88 -75t98 -24h288z" />
    <glyph glyph-name="afii10071" unicode="&#x451;" horiz-adv-x="1079" 
d="M942 463h-772q1 -196 116 -311t306 -115q85 0 161.5 29.5t131.5 78.5q16 12 30 -2q8 -10 5.5 -20t-9.5 -17q-58 -60 -144 -92t-177 -32q-214 0 -349 131.5t-135 347.5q0 137 50 243.5t155 171t252 64.5q180 0 296 -114t116 -300q0 -24 -2 -34q0 -11 -9.5 -20t-21.5 -9z
M555 885q-173 0 -275 -103.5t-114 -269.5h749q1 171 -97 272t-263 101zM287 1282q0 17 13 30t32 13q15 0 28 -13t13 -30q0 -21 -12.5 -34t-28.5 -13q-19 0 -32 13t-13 34zM719 1282q0 17 13 30t32 13q17 0 30 -13t13 -30q0 -21 -12.5 -34t-30.5 -13q-19 0 -32 13t-13 34z
" />
    <glyph glyph-name="afii10099" unicode="&#x452;" horiz-adv-x="1241" 
d="M336 -4q-12 0 -20.5 8t-8.5 19v1003h-282q-9 0 -16 7.5t-7 17.5t7 17t16 7h282v332q0 11 8.5 19t20.5 8t20.5 -8t8.5 -19v-332h413q9 0 16 -7t7 -17t-7 -17.5t-16 -7.5h-413v-412q58 66 157.5 110t198.5 44q195 0 292 -101.5t97 -314.5q0 -107 -21.5 -213.5t-64 -208
t-113.5 -188.5t-163 -143q-12 -9 -25 -9q-15 0 -19 15t7 22q95 64 164 150t106 181t53.5 187.5t16.5 190.5q0 192 -83.5 284.5t-256.5 92.5q-103 0 -200.5 -48.5t-145.5 -111.5v-530q0 -11 -8.5 -19t-20.5 -8z" />
    <glyph glyph-name="afii10100" unicode="&#x453;" horiz-adv-x="708" 
d="M233 866v-841q0 -12 -8 -20.5t-20 -8.5q-13 0 -22 8.5t-9 20.5v860q0 15 11 26t26 11h471q9 0 17 -8.5t8 -18.5q0 -12 -8 -20.5t-17 -8.5h-449zM602 1434q6 8 17 8.5t20 -6.5q9 -6 9.5 -17t-5.5 -20l-201 -252q-14 -18 -32 -4q-6 5 -7 13.5t3 14.5z" />
    <glyph glyph-name="afii10101" unicode="&#x454;" horiz-adv-x="1005" 
d="M883 772q-54 52 -131 82.5t-164 30.5q-178 0 -295 -104.5t-129 -284.5h491q9 0 16 -7.5t7 -17.5q0 -12 -7 -19.5t-16 -7.5h-491q4 -189 123.5 -298t302.5 -109q163 0 276 86q7 6 19 4.5t16 -10.5q5 -11 2.5 -22t-10.5 -17q-115 -96 -315 -96q-206 0 -339 134t-133 345
q0 216 134.5 347.5t347.5 131.5q91 0 178 -33.5t145 -95.5q14 -14 2 -33q-6 -9 -15 -10.5t-15 4.5z" />
    <glyph glyph-name="afii10102" unicode="&#x455;" horiz-adv-x="837" 
d="M129 127q19 19 39 0q40 -41 110.5 -66.5t135.5 -25.5q102 0 175 51.5t73 146.5q0 48 -22.5 84t-59 56.5t-83.5 39.5t-95.5 32.5t-95.5 35.5t-83.5 49t-59 73t-22.5 106q0 102 76.5 166.5t204.5 64.5q73 0 139 -22.5t109 -59.5q18 -18 4 -37q-6 -9 -17 -10t-20 6
q-82 70 -217 70q-98 0 -158.5 -51.5t-60.5 -124.5q0 -51 22.5 -89.5t59 -60.5t83 -41.5t95.5 -33t95.5 -34.5t83 -46t59 -68t22.5 -100q0 -124 -88 -190t-221 -66q-76 0 -158.5 32t-124.5 76q-6 6 -6.5 17.5t6.5 19.5z" />
    <glyph glyph-name="afii10103" unicode="&#x456;" horiz-adv-x="522" 
d="M289 899v-876q0 -11 -8.5 -19t-20.5 -8t-20.5 8t-8.5 19v876q0 11 8.5 19t20.5 8t20.5 -8t8.5 -19zM262 1241q-19 0 -33 13.5t-14 33.5q0 19 14 32t33 13q17 0 30 -13t13 -32q0 -20 -12.5 -33.5t-30.5 -13.5z" />
    <glyph glyph-name="afii10104" unicode="&#x457;" horiz-adv-x="534" 
d="M147 1321q14 0 26.5 -12t12.5 -29q0 -18 -12.5 -30.5t-26.5 -12.5q-19 0 -31 12t-12 31q0 17 12 29t31 12zM393 1321q16 0 28.5 -12t12.5 -29q0 -18 -12.5 -30.5t-28.5 -12.5q-18 0 -30.5 12.5t-12.5 30.5q0 17 13 29t30 12zM295 899v-876q0 -11 -8.5 -19t-20.5 -8t-20 8
t-8 19v876q0 11 8 19t20 8t20.5 -8t8.5 -19z" />
    <glyph glyph-name="afii10105" unicode="&#x458;" horiz-adv-x="522" 
d="M236 -66v965q0 11 8 19t20 8t20.5 -8t8.5 -19v-967q0 -358 -289 -358q-88 0 -154 41q-19 11 -12 33q4 12 14 15.5t19 -1.5q60 -33 125 -33q126 0 183 77t57 228zM264 1241q-19 0 -33 13.5t-14 33.5q0 19 14 32t33 13q17 0 30 -13t13 -32q0 -20 -12.5 -33.5t-30.5 -13.5z
" />
    <glyph glyph-name="afii10106" unicode="&#x459;" horiz-adv-x="1517" 
d="M1059 584q103 0 176 -22t113 -62.5t57.5 -91t17.5 -115.5q0 -293 -374 -293h-172q-15 0 -26 11t-11 26v827h-445l-14 -241q-41 -599 -275 -627q-10 -2 -20 5.5t-10 21.5q0 24 26 30q24 6 47.5 22.5t53 58t53 102t42.5 164t26 235.5l14 250q2 15 13 26t26 11h483
q15 0 26 -11t11 -26v-301h162zM897 55h152q170 0 242.5 60.5t72.5 177.5q0 115 -74 175t-239 60h-154v-473z" />
    <glyph glyph-name="afii10107" unicode="&#x45a;" horiz-adv-x="1583" 
d="M233 477v-452q0 -12 -8 -20.5t-20 -8.5q-13 0 -22 8.5t-9 20.5v874q0 11 9 19t22 8q12 0 20 -8t8 -19v-367h670v367q0 11 9 19t22 8q12 0 20.5 -8t8.5 -19v-350h161q201 0 283 -71t82 -204q0 -131 -86 -202.5t-289 -71.5h-174q-15 0 -26 11t-11 26v440h-670zM963 55h151
q172 0 242.5 53t70.5 166t-72 166.5t-239 53.5h-153v-439z" />
    <glyph glyph-name="afii10108" unicode="&#x45b;" horiz-adv-x="1241" 
d="M336 -4q-12 0 -20.5 8t-8.5 19v1003h-282q-9 0 -16 7.5t-7 17.5t7 17t16 7h282v332q0 11 8.5 19t20.5 8t20.5 -8t8.5 -19v-332h413q9 0 16 -7t7 -17t-7 -17.5t-16 -7.5h-413v-412q58 66 157.5 110t198.5 44q196 0 292.5 -101.5t96.5 -316.5v-325q0 -12 -8.5 -20.5
t-20.5 -8.5q-13 0 -21.5 8.5t-8.5 20.5v315q0 189 -83.5 281t-256.5 92q-103 0 -200.5 -48.5t-145.5 -111.5v-530q0 -11 -8.5 -19t-20.5 -8z" />
    <glyph glyph-name="afii10109" unicode="&#x45c;" horiz-adv-x="966" 
d="M336 455q-10 9 -10 24.5t10 24.5l452 407q15 15 31 15q19 0 23 -18t-8 -27l-447 -400l479 -436q14 -13 8.5 -31t-24.5 -18q-17 0 -31 14zM233 899v-874q0 -12 -8 -20.5t-20 -8.5q-13 0 -22 8.5t-9 20.5v874q0 11 9 19t22 8q12 0 20 -8t8 -19zM637 1434q6 8 17 8.5
t20 -6.5q9 -6 9.5 -17t-5.5 -20l-201 -252q-6 -8 -15.5 -9t-17.5 5q-6 5 -7 13.5t3 14.5z" />
    <glyph glyph-name="afii10110" unicode="&#x45e;" horiz-adv-x="966" 
d="M528 66q8 23 18 48.5t22.5 56.5t19.5 48l270 684q10 23 31 23q16 0 24.5 -13.5t1.5 -31.5l-360 -881q-67 -163 -123 -253t-105.5 -123.5t-113.5 -33.5q-57 0 -123 29q-9 4 -12 15t2 20q10 19 31 12q52 -22 94 -22q79 0 143 71.5t131 235.5l21 49l-445 881q-9 18 0 31.5
t27 13.5q19 0 29 -23l346 -688q26 -48 71 -149zM500 1167q-116 0 -189 60.5t-78 156.5q0 8 8 15.5t19 7.5q23 0 27 -25q8 -73 65.5 -119t147.5 -46q85 0 141 46t64 119q4 25 26 25q11 0 18 -7.5t7 -17.5q-6 -94 -78 -154.5t-178 -60.5z" />
    <glyph glyph-name="afii10193" unicode="&#x45f;" horiz-adv-x="1105" 
d="M553 -279q-10 0 -18.5 8t-8.5 17v254h-315q-15 0 -26 11t-11 26v862q0 11 9 19t22 8q12 0 20 -8t8 -19v-844h639v844q0 11 9 19t22 8q12 0 20.5 -8t8.5 -19v-862q0 -15 -11 -26t-26 -11h-315v-254q0 -9 -8.5 -17t-18.5 -8z" />
    <glyph glyph-name="afii10146" unicode="&#x462;" horiz-adv-x="1282" 
d="M309 1167v244q0 11 9 19t22 8q12 0 20.5 -8t8.5 -19v-244h327q11 0 19 -8t8 -20t-8 -20.5t-19 -8.5h-327v-283q159 13 258 13q269 0 402.5 -106t133.5 -300q0 -217 -146 -327.5t-407 -110.5q-108 0 -264 4q-15 0 -26 11t-11 26v1073h-276q-11 0 -19 8.5t-8 20.5t8 20
t19 8h276zM369 57q32 0 115 -2t132 -2q235 0 359.5 96t124.5 285q0 169 -120 258.5t-353 89.5q-143 0 -258 -12v-713z" />
    <glyph glyph-name="afii10194" unicode="&#x463;" horiz-adv-x="1005" 
d="M342 0q-15 0 -26 11t-11 26v829h-276q-11 0 -19 8.5t-8 20.5q0 11 8 19t19 8h276v485q0 11 8.5 19t20.5 8t20 -8t8 -19v-485h320q9 0 17 -8.5t8 -18.5q0 -12 -8 -20.5t-17 -8.5h-320v-297h185q103 0 175.5 -21t113 -61t58 -89.5t17.5 -114.5q0 -283 -372 -283h-197z
M362 55h183q165 0 236 59.5t71 170.5t-72 170t-233 59h-185v-459z" />
    <glyph glyph-name="afii10147" unicode="&#x472;" horiz-adv-x="1652" 
d="M825 1452q148 0 279.5 -56t226 -153t149 -233.5t54.5 -292.5q0 -206 -93 -374.5t-255.5 -264.5t-360.5 -96q-197 0 -359 95t-255.5 264t-93.5 376q0 205 92.5 373.5t255 265t360.5 96.5zM825 41q183 0 330.5 88.5t231 244.5t83.5 349q-186 -123 -340 -123
q-69 0 -133 19.5t-114.5 47t-100.5 55t-112.5 47t-130.5 19.5q-92 0 -192 -47.5t-163 -107.5q28 -257 208 -424.5t433 -167.5zM1135 655q86 0 177.5 42t153.5 96q-13 129 -67 240.5t-138 190.5t-197 124t-239 45q-180 0 -328 -88t-232.5 -245t-84.5 -351q78 57 173 96
t190 39q69 0 134 -19.5t116 -47t102 -55.5t113 -47.5t127 -19.5z" />
    <glyph glyph-name="afii10195" unicode="&#x473;" horiz-adv-x="1165" 
d="M582 940q210 0 343.5 -135.5t133.5 -343.5t-133.5 -343.5t-343.5 -135.5q-208 0 -342 135.5t-134 343.5t134 343.5t342 135.5zM582 37q171 0 286 107t127 276q-83 -64 -180 -64q-54 0 -117 24.5t-111 53.5t-108.5 53.5t-111.5 24.5q-104 0 -201 -84q11 -173 126 -282
t290 -109zM582 885q-173 0 -289 -110t-127 -283q102 75 205 75q55 0 118.5 -24t111 -53.5t108.5 -53.5t112 -24q96 0 176 69q-8 179 -123 291.5t-292 112.5z" />
    <glyph glyph-name="afii10148" unicode="&#x474;" horiz-adv-x="1341" 
d="M1358 1436q28 -10 20 -35q-9 -28 -32 -21q-46 13 -81 1t-67.5 -58.5t-58.5 -107t-64 -168.5l-370 -1043q-7 -18 -25 -18q-22 0 -29 18l-602 1391q-6 14 2.5 28.5t26.5 14.5q19 0 28 -23l574 -1329l356 1022q41 117 78.5 188t75 105.5t78.5 41t90 -6.5z" />
    <glyph glyph-name="afii10196" unicode="&#x475;" horiz-adv-x="972" 
d="M989 924q10 -3 16 -13.5t3 -21.5q-7 -24 -35 -15q-29 10 -53.5 0t-49 -45t-43 -72.5t-47.5 -105.5l-250 -647q-7 -18 -26 -18q-20 0 -27 18l-426 881q-6 14 2 27.5t25 13.5q20 0 28 -19l310 -637q42 -86 88 -190q11 28 74 199l159 409q64 167 118 214.5t134 21.5z" />
    <glyph glyph-name="afii10050" unicode="&#x490;" horiz-adv-x="1026" 
d="M299 1376v-1356q0 -12 -9 -20t-22 -8t-21.5 8t-8.5 20v1377q0 15 10.5 26t25.5 11h689v252q0 11 8.5 18.5t21.5 7.5q12 0 20.5 -7.5t8.5 -18.5v-273q0 -15 -11 -26t-26 -11h-686z" />
    <glyph glyph-name="afii10098" unicode="&#x491;" horiz-adv-x="708" 
d="M233 866v-841q0 -12 -8 -20.5t-20 -8.5q-13 0 -22 8.5t-9 20.5v860q0 15 11 26t26 11h440v213q0 9 8.5 16.5t20.5 7.5q10 0 18.5 -7.5t8.5 -16.5v-232q0 -15 -11 -26t-26 -11h-437z" />
    <glyph glyph-name="uni1E9E" unicode="&#x1e9e;" horiz-adv-x="1228" 
d="M506 125q15 22 39 6q35 -29 60.5 -45.5t70 -30.5t96.5 -14q104 0 188 78t84 203q0 61 -24 122t-60.5 112t-97 110t-114 103t-132.5 103q-12 9 -14.5 25.5t6.5 28.5l260 389q-98 78 -241 78q-146 0 -237 -88.5t-91 -266.5v-1018q0 -12 -9 -20t-22 -8t-21.5 8t-8.5 20v1031
q0 197 108.5 299t280.5 102q165 0 293 -98q12 -9 14.5 -24t-6.5 -27l-266 -392q76 -55 133 -101.5t119 -108t102 -119t66 -127.5t26 -140q0 -145 -98.5 -239t-227.5 -94q-91 0 -153 27.5t-121 78.5q-17 14 -2 37z" />
    <glyph glyph-name="uni2010" unicode="&#x2010;" horiz-adv-x="833" 
d="M618 526h-401q-11 0 -19 9t-8 22q0 9 8.5 17t18.5 8h401q9 0 17 -8.5t8 -20.5q0 -10 -8 -18.5t-17 -8.5z" />
    <glyph glyph-name="uni2011" unicode="&#x2011;" horiz-adv-x="833" 
d="M618 526h-401q-11 0 -19 9t-8 22q0 9 8.5 17t18.5 8h401q9 0 17 -8.5t8 -20.5q0 -10 -8 -18.5t-17 -8.5z" />
    <glyph glyph-name="figuredash" unicode="&#x2012;" horiz-adv-x="1202" 
d="M977 698h-754q-9 0 -16.5 8.5t-7.5 20.5q0 9 7.5 17t16.5 8h754q9 0 16.5 -8.5t7.5 -20.5q0 -9 -7.5 -17t-16.5 -8z" />
    <glyph glyph-name="endash" unicode="&#x2013;" horiz-adv-x="1202" 
d="M977 526h-754q-9 0 -16.5 8.5t-7.5 20.5q0 9 7.5 17t16.5 8h754q9 0 16.5 -8.5t7.5 -20.5q0 -9 -7.5 -17t-16.5 -8z" />
    <glyph glyph-name="emdash" unicode="&#x2014;" horiz-adv-x="1615" 
d="M1393 526h-1170q-9 0 -16.5 8.5t-7.5 20.5q0 9 7.5 17t16.5 8h1170q9 0 16.5 -8.5t7.5 -20.5q0 -9 -7.5 -17t-16.5 -8z" />
    <glyph glyph-name="afii00208" unicode="&#x2015;" horiz-adv-x="1615" 
d="M1393 526h-1170q-9 0 -16.5 8.5t-7.5 20.5q0 9 7.5 17t16.5 8h1170q9 0 16.5 -8.5t7.5 -20.5q0 -9 -7.5 -17t-16.5 -8z" />
    <glyph glyph-name="quoteleft" unicode="&#x2018;" horiz-adv-x="485" 
d="M242 1247q0 -55 22 -92q14 -25 -8 -41q-7 -6 -20 -3.5t-19 11.5q-31 52 -31 113q0 159 117 229q23 11 33 -4q4 -6 2 -14.5t-8 -11.5q-88 -58 -88 -187z" />
    <glyph glyph-name="quoteright" unicode="&#x2019;" horiz-adv-x="485" 
d="M244 1327q0 46 -25 88q-18 29 8 45q11 6 23 2.5t18 -12.5q31 -52 31 -111q0 -159 -119 -231q-15 -10 -28 6q-4 6 -3 14t7 13q88 60 88 186z" />
    <glyph glyph-name="quotesinglbase" unicode="&#x201a;" horiz-adv-x="485" 
d="M244 -35q0 46 -25 88q-18 29 8 45q11 6 23 2.5t18 -12.5q31 -52 31 -111q0 -159 -119 -231q-15 -10 -28 6q-4 6 -3 14t7 13q88 60 88 186z" />
    <glyph glyph-name="quotedblleft" unicode="&#x201c;" horiz-adv-x="729" 
d="M485 1247q0 -54 23 -92q14 -25 -8 -41q-7 -6 -20 -3.5t-19 11.5q-31 52 -31 113q0 159 117 229q23 11 33 -4q4 -6 1.5 -14.5t-8.5 -11.5q-88 -58 -88 -187zM242 1247q0 -55 22 -92q14 -25 -8 -41q-7 -6 -20 -3.5t-19 11.5q-31 52 -31 113q0 159 117 229q23 11 33 -4
q4 -6 2 -14.5t-8 -11.5q-88 -58 -88 -187z" />
    <glyph glyph-name="quotedblright" unicode="&#x201d;" horiz-adv-x="729" 
d="M487 1327q0 48 -24 88q-18 29 8 45q11 6 23 2.5t18 -12.5q31 -52 31 -111q0 -159 -119 -231q-4 -4 -13.5 -2.5t-15.5 8.5q-4 6 -3 14t7 13q88 60 88 186zM244 1327q0 46 -25 88q-18 29 8 45q11 6 23 2.5t18 -12.5q31 -52 31 -111q0 -159 -119 -231q-15 -10 -28 6
q-4 6 -3 14t7 13q88 60 88 186z" />
    <glyph glyph-name="quotedblbase" unicode="&#x201e;" horiz-adv-x="729" 
d="M487 -35q0 48 -24 88q-18 29 8 45q11 6 23 2.5t18 -12.5q31 -52 31 -111q0 -159 -119 -231q-4 -4 -13.5 -2.5t-15.5 8.5q-4 6 -3 14t7 13q88 60 88 186zM244 -35q0 46 -25 88q-18 29 8 45q11 6 23 2.5t18 -12.5q31 -52 31 -111q0 -159 -119 -231q-15 -10 -28 6
q-4 6 -3 14t7 13q88 60 88 186z" />
    <glyph glyph-name="dagger" unicode="&#x2020;" horiz-adv-x="841" 
d="M393 885h-287q-9 0 -16.5 8t-7.5 20q0 9 7.5 17t16.5 8h287v471q0 9 9 17t22 8q9 0 17 -8t8 -17v-471h286q9 0 17 -8.5t8 -20.5q0 -9 -8 -16.5t-17 -7.5h-286v-1065q0 -9 -8.5 -17t-20.5 -8q-10 0 -18.5 8t-8.5 17v1065z" />
    <glyph glyph-name="daggerdbl" unicode="&#x2021;" horiz-adv-x="841" 
d="M393 885h-287q-9 0 -16.5 8t-7.5 20q0 9 7.5 17t16.5 8h287v471q0 9 9 17t22 8q9 0 17 -8t8 -17v-471h286q9 0 17 -8.5t8 -20.5q0 -9 -8 -16.5t-17 -7.5h-286v-479h286q9 0 17 -8.5t8 -20.5q0 -9 -8 -17t-17 -8h-286v-532q0 -9 -8.5 -17t-20.5 -8q-10 0 -18.5 8t-8.5 17
v532h-287q-9 0 -16.5 8.5t-7.5 20.5q0 9 7.5 17t16.5 8h287v479z" />
    <glyph glyph-name="bullet" unicode="&#x2022;" horiz-adv-x="303" 
d="M76 535q0 31 22.5 53t53.5 22t53 -22t22 -53t-22 -53.5t-53 -22.5t-53.5 22.5t-22.5 53.5z" />
    <glyph glyph-name="ellipsis" unicode="&#x2026;" horiz-adv-x="1703" 
d="M1468 -2q-21 0 -36 15t-15 36q0 18 15 31.5t36 13.5q19 0 33.5 -14t14.5 -31q0 -20 -14.5 -35.5t-33.5 -15.5zM854 -2q-21 0 -36 15t-15 36q0 18 15 31.5t36 13.5q19 0 33 -14t14 -31q0 -20 -14 -35.5t-33 -15.5zM240 -2q-22 0 -37 15t-15 36q0 18 15.5 31.5t36.5 13.5
q19 0 33 -14t14 -31q0 -20 -14 -35.5t-33 -15.5z" />
    <glyph glyph-name="perthousand" unicode="&#x2030;" horiz-adv-x="2525" 
d="M1745 319q0 139 95 229.5t237 90.5t236.5 -90.5t94.5 -229.5q0 -140 -94.5 -230.5t-236.5 -90.5t-237 90.5t-95 230.5zM1800 319q0 -119 83.5 -195.5t193.5 -76.5q114 0 195 76t81 196q0 118 -82 194.5t-194 76.5t-194.5 -76.5t-82.5 -194.5zM344 -2q-5 -7 -15 -8.5
t-20 6.5q-14 14 -2 31l1055 1409q5 6 14 7t17 -5q6 -4 7.5 -13.5t-3.5 -15.5zM115 1118q0 139 94.5 229.5t236.5 90.5t237 -90.5t95 -229.5q0 -140 -95 -230.5t-237 -90.5t-236.5 90.5t-94.5 230.5zM170 1118q0 -119 83 -195.5t193 -76.5q114 0 195.5 76t81.5 196
q0 118 -82.5 194.5t-194.5 76.5t-194 -76.5t-82 -194.5zM913 319q0 139 95 229.5t237 90.5t237 -90.5t95 -229.5q0 -140 -95 -230.5t-237 -90.5t-237 90.5t-95 230.5zM969 319q0 -119 83 -195.5t193 -76.5q114 0 195.5 76t81.5 196q0 118 -82.5 194.5t-194.5 76.5
t-194 -76.5t-82 -194.5z" />
    <glyph glyph-name="guilsinglleft" unicode="&#x2039;" horiz-adv-x="665" 
d="M494 143q18 -19 -2 -39q-6 -6 -17.5 -5.5t-17.5 7.5l-318 375q-11 13 -10.5 31t12.5 31l318 370q6 7 17 7t20 -7q7 -6 7.5 -16.5t-5.5 -17.5l-318 -367z" />
    <glyph glyph-name="guilsinglright" unicode="&#x203a;" horiz-adv-x="665" 
d="M205 913l317 -370q12 -13 12.5 -33t-10.5 -33l-315 -371q-6 -8 -17 -7t-20 10q-7 6 -7.5 16.5t5.5 17.5l313 369l-317 367q-6 7 -5.5 18t9.5 18q7 6 18 5.5t17 -7.5z" />
    <glyph glyph-name="fraction" unicode="&#x2044;" horiz-adv-x="376" 
d="M-319 -2q-5 -7 -15 -8.5t-20 6.5q-14 14 -2 31l1054 1409q5 6 14 7t17 -5q6 -4 7.5 -13.5t-3.5 -15.5z" />
    <glyph glyph-name="uni2070" unicode="&#x2070;" horiz-adv-x="743" 
d="M375 709q-134 0 -206.5 101.5t-72.5 264.5t72.5 265t204.5 102t203 -102.5t71 -264.5t-70 -264t-202 -102zM373 1395q-107 0 -164 -86.5t-57 -233.5q0 -145 59 -232t164 -87q109 0 163 85.5t54 233.5q0 146 -57 233t-162 87z" />
    <glyph glyph-name="uni2074" unicode="&#x2074;" horiz-adv-x="661" 
d="M467 717h-4q-9 0 -16 6.5t-7 15.5v168h-370q-18 0 -25 17.5t4 29.5l363 461q15 19 26 19q13 0 18 -12t-5 -25l-351 -445h340v203q0 9 7.5 16t19.5 7q9 0 15.5 -7t6.5 -16v-203h111q8 0 14.5 -7t6.5 -17q0 -8 -6.5 -14.5t-14.5 -6.5h-111v-168q0 -9 -6.5 -15.5t-15.5 -6.5
z" />
    <glyph glyph-name="uni2075" unicode="&#x2075;" horiz-adv-x="659" 
d="M283 1110q-32 0 -90 -8q-15 -3 -25 7t-8 24l39 262q3 17 15.5 28t29.5 11h313q8 0 14.5 -7.5t6.5 -17.5q0 -7 -6.5 -13.5t-14.5 -6.5h-315l-39 -250q58 14 102 14q121 0 195.5 -59t74.5 -156q0 -104 -75.5 -166.5t-182.5 -62.5q-167 0 -241 100q-12 17 4 33q14 14 29 -2
q36 -43 90 -65.5t112 -22.5q89 0 149 52.5t60 131.5q0 75 -65 124.5t-172 49.5z" />
    <glyph glyph-name="uni2076" unicode="&#x2076;" horiz-adv-x="735" 
d="M391 709q-144 0 -219.5 75t-75.5 191q0 92 35.5 174t94 140.5t132 97.5t152.5 53q28 5 31 -15q2 -19 -19 -24q-138 -27 -242 -124.5t-126 -250.5q27 57 89.5 94t149.5 37q117 0 185.5 -61.5t68.5 -161.5q0 -94 -76 -159.5t-180 -65.5zM379 1116q-91 0 -151.5 -45
t-75.5 -102q0 -89 62 -153t175 -64q83 0 143 53t60 127q0 79 -56 131.5t-157 52.5z" />
    <glyph glyph-name="uni2077" unicode="&#x2077;" horiz-adv-x="591" 
d="M481 1386h-411q-9 0 -16 7.5t-7 19.5q0 8 7 14.5t16 6.5h448q16 0 22.5 -12t-1.5 -31l-318 -650q-12 -24 -31 -24q-16 0 -21.5 11.5t1.5 25.5z" />
    <glyph glyph-name="uni2078" unicode="&#x2078;" horiz-adv-x="749" 
d="M184 1251q0 -61 53 -103t117 -42h43q64 0 117 42t53 103q0 67 -57.5 107.5t-134.5 40.5q-78 0 -134.5 -40.5t-56.5 -107.5zM598 911q0 70 -59 112t-144 42h-35q-85 0 -146.5 -45t-61.5 -109q0 -69 65.5 -114t157.5 -45q93 0 158 44t65 115zM651 905q0 -90 -80 -143
t-194 -53t-195.5 52.5t-81.5 141.5q0 64 49 114.5t132 67.5q-66 17 -108 66t-42 106q0 83 70 134t174 51t175 -51t71 -134q0 -54 -41 -101.5t-113 -68.5q82 -11 133 -60.5t51 -121.5z" />
    <glyph glyph-name="uni2079" unicode="&#x2079;" horiz-adv-x="735" 
d="M344 1442q143 0 219 -76t76 -195q0 -190 -121 -315.5t-311 -144.5q-9 -2 -16 3.5t-7 14.5q0 15 17 19q163 25 270 130t111 246q-28 -58 -91 -95.5t-149 -37.5q-118 0 -187 62t-69 161q0 95 77 161.5t181 66.5zM356 1032q89 0 149.5 45.5t78.5 100.5q0 92 -62.5 156.5
t-177.5 64.5q-82 0 -142.5 -53.5t-60.5 -126.5q0 -79 57 -133t158 -54z" />
    <glyph glyph-name="uni207A" unicode="&#x207a;" horiz-adv-x="737" 
d="M344 1063h-223q-8 0 -14.5 7t-6.5 17q0 7 7 14t14 7h223v223q0 8 7.5 14.5t17.5 6.5q7 0 13.5 -6.5t6.5 -14.5v-223h227q8 0 14.5 -7.5t6.5 -17.5q0 -7 -6.5 -13.5t-14.5 -6.5h-227v-225q0 -8 -7 -14.5t-17 -6.5q-7 0 -14 6.5t-7 14.5v225z" />
    <glyph glyph-name="uni207B" unicode="&#x207b;" horiz-adv-x="737" 
d="M616 1063h-495q-8 0 -14.5 7t-6.5 17q0 7 7 14t14 7h495q8 0 14.5 -7.5t6.5 -17.5q0 -7 -6.5 -13.5t-14.5 -6.5z" />
    <glyph glyph-name="uni207C" unicode="&#x207c;" horiz-adv-x="737" 
d="M616 934h-495q-8 0 -14.5 7t-6.5 17q0 8 7 14.5t14 6.5h495q8 0 14.5 -7.5t6.5 -17.5q0 -7 -6.5 -13.5t-14.5 -6.5zM616 1192h-495q-8 0 -14.5 7.5t-6.5 17.5q0 7 6.5 13.5t14.5 6.5h495q8 0 14.5 -7.5t6.5 -17.5q0 -7 -6.5 -13.5t-14.5 -6.5z" />
    </font>
</defs>
</svg>
