<?xml version="1.0" standalone="no"?>
<!DOCTYPE svg PUBLIC "-//W3C//DTD SVG 1.1//EN" "http://www.w3.org/Graphics/SVG/1.1/DTD/svg11.dtd" >
<svg xmlns="http://www.w3.org/2000/svg" xmlns:xlink="http://www.w3.org/1999/xlink" version="1.1">
<metadata>
Created by FontForge 20170731 at Fri Oct 23 17:21:31 2020
 By Aleksey,,,
Copyright (c) 2015 ParaType, Inc., ParaType Ltd. All rights reserved.
</metadata>
<defs>
<font id="CirceRounded-Bold" horiz-adv-x="1220" >
  <font-face 
    font-family="Circe Rounded Bold"
    font-weight="700"
    font-stretch="normal"
    units-per-em="2048"
    panose-1="2 15 6 2 2 2 3 2 2 3"
    ascent="1583"
    descent="-465"
    x-height="922"
    cap-height="1434"
    bbox="-1024 -655 2974 1927"
    underline-thickness="102"
    underline-position="-307"
    unicode-range="U+0020-FB02"
  />
<missing-glyph horiz-adv-x="434" 
 />
    <glyph glyph-name="uniF350.var.accented" unicode="&#xf350;`" horiz-adv-x="1234" 
d="M862 221h-506l-73 -164q-12 -26 -36 -41.5t-52 -15.5h-80q-30 0 -50 21t-20 49q0 15 6 30l428 920q12 26 36 41.5t52 15.5h101q28 0 52 -15.5t36 -41.5l428 -920q6 -15 6 -30q0 -28 -20 -49t-50 -21h-96q-28 0 -52 15.5t-36 41.5zM610 784l-149 -329h297zM516 1360
l158 168q22 22 53 22q37 0 57 -26l39 -49q19 -22 19 -52q0 -41 -33 -67l-170 -135q-28 -21 -55 -21q-38 0 -68 33q-24 27 -24 63q0 40 24 64z" />
    <glyph glyph-name="uniF355.var.accented" unicode="&#xf355;`" horiz-adv-x="1019" 
d="M913 158v-80q0 -32 -22.5 -55t-54.5 -23h-598q-32 0 -55 23t-23 55v919q0 32 23 55t55 23h579q32 0 55 -23t23 -55v-79q0 -32 -23 -55t-55 -23h-407v-181h358q32 0 55 -22.5t23 -54.5v-80q0 -32 -23 -55t-55 -23h-358v-188h426q32 0 54.5 -23t22.5 -55zM414 1360l157 168
q22 22 54 22q37 0 57 -26l39 -49q18 -21 18 -52q0 -41 -32 -67l-170 -135q-28 -21 -56 -21q-37 0 -67 33q-25 28 -25 63q0 39 25 64z" />
    <glyph glyph-name="uniF358.var.accented" unicode="&#xf358;`" horiz-adv-x="1357" 
d="M1120 0h-94q-32 0 -55 23t-23 55v598l-528 -629q-41 -47 -92 -47h-90q-32 0 -55 23t-23 55v919q0 32 23 55t55 23h94q32 0 55 -23t23 -55v-598l528 629q41 47 92 47h90q32 0 55 -23t23 -55v-919q0 -32 -23 -55t-55 -23zM567 1360l158 168q22 22 53 22q38 0 58 -26l38 -49
q19 -22 19 -52q0 -41 -33 -67l-170 -135q-28 -21 -55 -21q-38 0 -68 33q-24 27 -24 63q0 40 24 64z" />
    <glyph glyph-name="uniF35E.var.accented" unicode="&#xf35e;`" horiz-adv-x="1349" 
d="M72 535q0 116 44 218t121.5 176.5t191 117.5t245.5 43q174 0 310.5 -66.5t215 -193.5t78.5 -295q0 -161 -78 -288.5t-216 -198.5t-310 -71q-173 0 -309 67t-214.5 194.5t-78.5 296.5zM338 535q0 -136 97.5 -229t238.5 -93q160 0 249 90.5t89 231.5q0 144 -96.5 231.5
t-241.5 87.5q-148 0 -242 -87t-94 -232zM588 1360l157 168q22 22 54 22q37 0 57 -26l39 -49q18 -21 18 -52q0 -41 -32 -67l-170 -135q-28 -21 -56 -21q-37 0 -67 33q-25 28 -25 63q0 39 25 64z" />
    <glyph glyph-name="uniF363.var.accented" unicode="&#xf363;`" horiz-adv-x="1136" 
d="M1079 965l-352 -703q-65 -129 -148 -195.5t-198 -66.5q-65 0 -119 25q-43 17 -43 61q0 14 6 29l29 71q20 50 68 50q15 0 41.5 -4.5t31.5 -4.5q23 0 42.5 13.5t27.5 25t20 31.5l19 29l-420 630q-14 20 -14 43q0 30 22 53t55 23h111q28 0 53.5 -14t40.5 -39l279 -449
l217 447q12 25 36 40t52 15h82q32 0 52 -20.5t20 -50.5q0 -17 -11 -39zM492 1360l157 168q22 22 53 22q38 0 58 -26l39 -49q18 -21 18 -52q0 -41 -33 -67l-170 -135q-28 -21 -55 -21q-37 0 -67 33q-25 28 -25 63q0 39 25 64z" />
    <glyph glyph-name="uniF36B.var.accented" unicode="&#xf36b;`" horiz-adv-x="1507" 
d="M1348 997v-919q0 -32 -23 -55t-55 -23h-96q-32 0 -55 23t-23 55v919q0 32 23 55t55 23h96q32 0 55 -23t23 -55zM410 508v-272q44 -5 94 -5q194 0 194 146q0 67 -51 101t-141 34q-57 0 -96 -4zM160 80v917q0 32 23 55t55 23h94q32 0 55 -23t23 -55v-256q55 7 116 7
q217 0 328 -97t111 -268q0 -175 -130.5 -281t-361.5 -106q-99 0 -235 4q-32 0 -55 23t-23 57zM629 1360l157 168q22 22 54 22q37 0 57 -26l39 -49q18 -21 18 -52q0 -41 -32 -67l-170 -135q-28 -21 -56 -21q-37 0 -67 33q-25 28 -25 63q0 39 25 64z" />
    <glyph glyph-name="uniF36D.var.accented" unicode="&#xf36d;`" horiz-adv-x="1124" 
d="M176 274q28 0 45 -10q96 -47 242 -47q285 0 342 213h-422q-32 0 -55 23t-23 55v80q0 32 23 55t55 23h414q-68 192 -342 192q-141 0 -236 -39q-19 -8 -39 -8q-49 0 -76 47l-26 47q-10 17 -10 35q0 50 38 68q161 86 359 86q264 0 434 -154t170 -403q0 -258 -172 -406.5
t-465 -148.5q-109 0 -186 16.5t-146 56.5q-45 25 -45 72q0 17 11 35l40 71q23 41 70 41zM373 1360l157 168q22 22 54 22q37 0 57 -26l39 -49q18 -21 18 -52q0 -41 -32 -67l-170 -135q-28 -21 -56 -21q-37 0 -67 33q-25 28 -25 63q0 39 25 64z" />
    <glyph glyph-name="uniF36E.var.accented" unicode="&#xf36e;`" horiz-adv-x="1796" 
d="M410 430v-352q0 -32 -23 -55t-55 -23h-94q-32 0 -55 23t-23 55v919q0 32 23 55t55 23h94q32 0 55 -23t23 -55v-331h170q38 192 185 310t374 118q271 0 428 -149t157 -406q0 -249 -158.5 -403t-426.5 -154q-223 0 -375.5 119.5t-185.5 328.5h-168zM836 539q0 -140 86 -231
t225 -91q151 0 231 90t80 232q0 145 -84.5 232t-226.5 87q-139 0 -225 -87.5t-86 -231.5zM754 1360l157 168q22 22 54 22q37 0 57 -26l39 -49q18 -21 18 -52q0 -41 -32 -67l-170 -135q-28 -21 -56 -21q-37 0 -67 33q-25 28 -25 63q0 39 25 64z" />
    <glyph glyph-name="uniF36F.var.accented" unicode="&#xf36f;`" horiz-adv-x="1130" 
d="M971 995v-917q0 -32 -23 -55t-55 -23h-96q-32 0 -55 23t-23 55v250h-189l-190 -277q-15 -23 -41.5 -37t-54.5 -14h-92q-32 0 -53 22t-21 52q0 23 14 43l195 266q-82 47 -132.5 122.5t-50.5 178.5q0 79 28.5 148t85.5 126t154 90t224 33q51 0 154 -2t143 -2
q33 -2 55.5 -25.5t22.5 -56.5zM719 563v277q-69 6 -148 6q-95 0 -147.5 -39.5t-52.5 -106.5q0 -55 40.5 -91t98.5 -46h209zM451 1360l157 168q22 22 54 22q37 0 57 -26l39 -49q18 -21 18 -52q0 -41 -33 -67l-170 -135q-28 -21 -55 -21q-37 0 -67 33q-25 28 -25 63
q0 39 25 64z" />
    <glyph glyph-name="uniF371.var.accented" unicode="&#xf371;`" horiz-adv-x="1019" 
d="M182 1321q0 56 38 89.5t95 33.5q46 0 82.5 -34.5t36.5 -88.5q0 -58 -36.5 -92.5t-82.5 -34.5q-58 0 -95.5 33.5t-37.5 93.5zM631 1321q0 55 38.5 89t92.5 34q48 0 85.5 -34t37.5 -89q0 -58 -37 -92.5t-86 -34.5q-55 0 -93 34t-38 93zM913 158v-80q0 -32 -22.5 -55
t-54.5 -23h-598q-32 0 -55 23t-23 55v919q0 32 23 55t55 23h579q32 0 55 -23t23 -55v-79q0 -32 -23 -55t-55 -23h-407v-181h358q32 0 55 -22.5t23 -54.5v-80q0 -32 -23 -55t-55 -23h-358v-188h426q32 0 54.5 -23t22.5 -55zM532 1384q-40 0 -69 33q-25 31 -25 66q0 31 23 57
l170 180q18 21 45 21q29 0 49 -23l63 -73q15 -15 15 -37q0 -33 -25 -52l-196 -155q-24 -17 -50 -17z" />
    <glyph glyph-name="afii10017.var.accented" unicode="&#x410;`" horiz-adv-x="1445" 
d="M1022 367h-612l-127 -310q-9 -26 -32.5 -41.5t-51.5 -15.5h-74q-35 0 -57.5 23.5t-22.5 56.5q0 14 6 29l537 1271q10 26 34 42t52 16h98q28 0 52 -16t34 -42l537 -1271q6 -15 6 -29q0 -33 -22.5 -56.5t-57.5 -23.5h-88q-28 0 -51.5 15.5t-32.5 41.5zM717 1112l-211 -510
h420zM616 1673l304 158q13 8 32 8q21 0 39 -11.5t27 -31.5l26 -63q7 -14 7 -29q0 -22 -13 -40.5t-34 -25.5l-318 -116q-8 -4 -27 -4q-55 0 -77 51q-9 15 -9 35q0 22 11.5 41t31.5 28z" />
    <glyph glyph-name="afii10022.var.accented" unicode="&#x415;`" horiz-adv-x="1177" 
d="M1049 160v-84q0 -31 -22.5 -53.5t-53.5 -22.5h-699q-31 0 -53 22.5t-22 53.5v1282q0 31 22 53.5t53 22.5h678q31 0 53.5 -22.5t22.5 -53.5v-84q0 -31 -22.5 -53.5t-53.5 -22.5h-501v-356h440q31 0 53.5 -22.5t22.5 -53.5v-84q0 -31 -22.5 -53.5t-53.5 -22.5h-440v-370
h522q31 0 53.5 -22.5t22.5 -53.5zM543 1673l303 158q13 8 33 8q46 0 65 -43l27 -63q6 -12 6 -29q0 -22 -13 -40.5t-34 -25.5l-318 -116q-8 -4 -26 -4q-56 0 -78 51q-8 13 -8 35t11.5 41t31.5 28z" />
    <glyph glyph-name="afii10026.var.accented" unicode="&#x418;`" horiz-adv-x="1622" 
d="M1348 0h-101q-31 0 -53.5 22.5t-22.5 53.5v942l-714 -969q-39 -49 -90 -49h-93q-31 0 -53 22.5t-22 53.5v1282q0 31 22 53.5t53 22.5h101q31 0 53.5 -22.5t22.5 -53.5v-944l714 968q39 52 90 52h93q31 0 53 -22.5t22 -53.5v-1282q0 -31 -22 -53.5t-53 -22.5zM727 1673
l303 158q13 8 33 8q46 0 65 -43l27 -63q6 -12 6 -29q0 -22 -13 -40.5t-34 -25.5l-317 -116q-8 -4 -27 -4q-56 0 -78 51q-8 13 -8 35t11.5 41t31.5 28z" />
    <glyph glyph-name="afii10032.var.accented" unicode="&#x41e;`" horiz-adv-x="1677" 
d="M92 717q0 154 55 290.5t152.5 235.5t237 156t301.5 57q212 0 381.5 -91t267.5 -260t98 -388q0 -212 -97.5 -381.5t-268 -264t-381.5 -94.5q-212 0 -381.5 91t-267 260.5t-97.5 388.5zM358 717q0 -214 139 -359t341 -145q220 0 350.5 143t130.5 361q0 220 -138 362
t-343 142q-207 0 -343.5 -141.5t-136.5 -362.5zM748 1673l303 158q13 8 32 8q21 0 39 -11.5t27 -31.5l27 -63q6 -12 6 -29q0 -22 -13 -40.5t-34 -25.5l-318 -116q-8 -4 -26 -4q-56 0 -78 51q-8 13 -8 35t11.5 41t31.5 28z" />
    <glyph glyph-name="afii10037.var.accented" unicode="&#x423;`" horiz-adv-x="1384" 
d="M328 1380l438 -747l317 743q10 26 34 42t52 16h74q33 0 55.5 -23.5t22.5 -54.5q0 -16 -6 -31l-441 -991q-76 -170 -167.5 -252t-221.5 -82q-65 0 -129 23q-49 18 -49 63q0 13 6 31l27 73q19 54 68 54q22 0 36 -4q24 -4 39 -4q94 0 142 100l20 49l-571 948q-11 22 -11 35
q0 27 19.5 46.5t48.5 19.5h105q28 0 53.5 -14.5t38.5 -39.5zM629 1673l303 158q13 8 33 8q46 0 65 -43l27 -63q6 -12 6 -29q0 -22 -13 -40.5t-34 -25.5l-318 -116q-8 -4 -26 -4q-56 0 -78 51q-8 13 -8 35t11.5 41t31.5 28z" />
    <glyph glyph-name="afii10045.var.accented" unicode="&#x42b;`" horiz-adv-x="1769" 
d="M1571 1358v-1282q0 -31 -22.5 -53.5t-53.5 -22.5h-98q-31 0 -53.5 22.5t-22.5 53.5v1282q0 31 22.5 53.5t53.5 22.5h98q31 0 53.5 -22.5t22.5 -53.5zM451 707v-469q11 0 58.5 -3.5t76.5 -3.5q139 0 210.5 63.5t71.5 188.5q0 114 -72.5 174t-205.5 60q-44 0 -139 -10z
M199 76v1282q0 31 22 53.5t53 22.5h101q31 0 53.5 -22.5t22.5 -53.5v-416q79 10 159 10q259 0 392 -123t133 -340q0 -229 -153.5 -361t-426.5 -132q-121 0 -281 4q-32 0 -53.5 22.5t-21.5 53.5zM758 1673l303 158q13 8 33 8q46 0 65 -43l27 -63q6 -12 6 -29q0 -22 -13 -40.5
t-34 -25.5l-318 -116q-8 -4 -26 -4q-56 0 -78 51q-8 13 -8 35t11.5 41t31.5 28z" />
    <glyph glyph-name="afii10047.var.accented" unicode="&#x42d;`" horiz-adv-x="1368" 
d="M174 307q21 0 49 -14q143 -80 299 -80q125 0 228 44t175 135.5t93 219.5h-569q-31 0 -53.5 22.5t-22.5 53.5v84q0 31 22.5 53.5t53.5 22.5h563q-36 178 -173.5 275.5t-342.5 97.5q-134 0 -254 -72q-24 -12 -47 -12q-45 0 -64 32l-45 64q-12 18 -12 41q0 39 35 63
q176 119 432 119q216 0 383 -90.5t259.5 -258.5t92.5 -388q0 -338 -203.5 -540t-546.5 -202q-133 0 -235 23.5t-203 91.5q-35 24 -35 66q0 17 10 37l48 75q21 37 63 37zM471 1673l303 158q13 8 33 8q46 0 65 -43l27 -63q6 -12 6 -29q0 -22 -13 -40.5t-34 -25.5l-317 -116
q-8 -4 -27 -4q-56 0 -78 51q-8 13 -8 35t11.5 41t31.5 28z" />
    <glyph glyph-name="afii10048.var.accented" unicode="&#x42e;`" horiz-adv-x="2213" 
d="M451 612v-536q0 -31 -22.5 -53.5t-53.5 -22.5h-101q-31 0 -53 22.5t-22 53.5v1282q0 31 22 53.5t53 22.5h101q31 0 53.5 -22.5t22.5 -53.5v-510h243q41 268 231 438t470 170q158 0 293 -53t230.5 -148.5t149.5 -234t54 -303.5q0 -213 -92.5 -381.5t-258.5 -263.5
t-376 -95q-182 0 -334 77.5t-250.5 222.5t-120.5 335h-239zM950 717q0 -214 131.5 -359t321.5 -145q146 0 250 68t153 180t49 256q0 223 -125 363.5t-327 140.5q-195 0 -324 -141.5t-129 -362.5zM1055 1673l303 158q13 8 33 8q46 0 65 -43l27 -63q6 -12 6 -29
q0 -22 -13 -40.5t-34 -25.5l-318 -116q-8 -4 -26 -4q-56 0 -78 51q-8 13 -8 35t11.5 41t31.5 28z" />
    <glyph glyph-name="afii10049.var.accented" unicode="&#x42f;`" horiz-adv-x="1277" 
d="M1079 1358v-1282q0 -31 -22 -53.5t-53 -22.5h-99q-31 0 -53.5 22.5t-22.5 53.5v420h-206l-287 -443q-15 -24 -41.5 -38.5t-54.5 -14.5h-84q-32 0 -53 22t-21 52q0 23 12 41l291 432q-110 56 -181 157t-71 240q0 102 34.5 189.5t103 157t184.5 109.5t268 40q11 0 281 -6
q32 0 53.5 -22t21.5 -54zM829 731v467q-105 6 -157 6q-124 0 -198.5 -67.5t-74.5 -175.5q0 -91 59 -152.5t142 -77.5h229zM625 1673l303 158q13 8 33 8q46 0 65 -43l27 -63q6 -12 6 -29q0 -22 -13 -40.5t-34 -25.5l-318 -116q-8 -4 -26 -4q-56 0 -78 51q-8 13 -8 35t11.5 41
t31.5 28z" />
    <glyph glyph-name="afii10023.var.accented" unicode="&#x401;`" horiz-adv-x="1177" 
d="M199 1688q0 59 34 94t86 35q44 0 78.5 -36t34.5 -93q0 -63 -34.5 -100.5t-78.5 -37.5q-53 0 -86.5 37t-33.5 101zM817 1688q0 58 36 93.5t87 35.5q45 0 78 -35.5t33 -93.5q0 -63 -33 -100.5t-78 -37.5q-52 0 -87.5 37t-35.5 101zM498 1622l88 176q27 53 76 53q18 0 28 -4
l29 -10q20 -6 31.5 -23.5t11.5 -39.5q0 -29 -21 -50l-141 -153q-29 -33 -57 -33q-24 0 -39 14.5t-15 36.5q0 18 9 33zM1049 160v-84q0 -31 -22.5 -53.5t-53.5 -22.5h-699q-31 0 -53 22.5t-22 53.5v1282q0 31 22 53.5t53 22.5h678q31 0 53.5 -22.5t22.5 -53.5v-84
q0 -31 -22.5 -53.5t-53.5 -22.5h-501v-356h440q31 0 53.5 -22.5t22.5 -53.5v-84q0 -31 -22.5 -53.5t-53.5 -22.5h-440v-370h522q31 0 53.5 -22.5t22.5 -53.5z" />
    <glyph glyph-name="afii10065.var.accented" unicode="&#x430;`" horiz-adv-x="948" 
d="M360 -12q-129 0 -208.5 75.5t-79.5 206.5q0 146 94.5 222.5t241.5 76.5q60 0 116.5 -16.5t91.5 -42.5v29q0 106 -39.5 157.5t-132.5 51.5q-80 0 -157 -25q-18 -6 -37 -6q-49 0 -70 43l-12 24q-8 20 -8 33q0 20 12 38.5t31 27.5q132 61 266 61q197 0 283 -96t86 -287v-485
q0 -31 -22.5 -53.5t-53.5 -22.5h-53q-31 0 -53.5 22.5t-22.5 53.5v30q-38 -54 -109.5 -86t-163.5 -32zM616 270v95q-60 45 -161 45q-63 0 -105.5 -29.5t-42.5 -85.5q0 -51 37 -80t94 -29q119 0 178 84zM403 1229l125 194q21 35 66 35q27 0 47 -14l49 -37q31 -22 31 -64
q0 -29 -19 -51l-147 -170q-27 -30 -70 -30q-29 0 -55 16q-39 26 -39 76q0 24 12 45z" />
    <glyph glyph-name="afii10070.var.accented" unicode="&#x435;`" horiz-adv-x="1071" 
d="M309 547h453v4q0 86 -57 141.5t-154 55.5q-102 0 -162 -53t-80 -148zM594 174q100 0 180 39q28 14 47 14q36 0 60 -34l18 -27q12 -18 12 -41q0 -43 -32 -62q-138 -86 -310 -86q-223 0 -359 133t-136 351q0 100 34 188.5t95.5 153.5t154 103t203.5 38q183 0 309.5 -119.5
t126.5 -308.5q0 -37 -2 -53q-2 -26 -27 -50t-53 -24h-598q15 -102 90.5 -158.5t186.5 -56.5zM459 1229l125 194q21 35 65 35q27 0 47 -14l49 -37q31 -22 31 -64q0 -30 -18 -51l-148 -170q-27 -30 -69 -30q-30 0 -56 16q-39 26 -39 76q0 22 13 45z" />
    <glyph glyph-name="afii10074.var.accented" unicode="&#x438;`" horiz-adv-x="1163" 
d="M956 0h-84q-31 0 -53 22.5t-22 53.5v508l-394 -533q-38 -51 -98 -51h-98q-31 0 -53.5 22.5t-22.5 53.5v770q0 31 22.5 53.5t53.5 22.5h84q31 0 53.5 -22.5t22.5 -53.5v-508l393 532q39 52 98 52h98q31 0 53.5 -22.5t22.5 -53.5v-770q0 -31 -22.5 -53.5t-53.5 -22.5z
M477 1229l125 194q21 35 66 35q27 0 47 -14l49 -37q31 -22 31 -64q0 -29 -19 -51l-147 -170q-27 -30 -70 -30q-29 0 -55 16q-39 26 -39 76q0 24 12 45z" />
    <glyph glyph-name="afii10080.var.accented" unicode="&#x43e;`" horiz-adv-x="1150" 
d="M575 -23q-225 0 -363 137t-138 347t138 346.5t363 136.5q226 0 364 -136.5t138 -346.5t-138.5 -347t-363.5 -137zM575 723q-107 0 -178 -72t-71 -190q0 -115 70.5 -189.5t178.5 -74.5q110 0 181 72.5t71 191.5q0 116 -71.5 189t-180.5 73zM487 1229l125 194q21 35 66 35
q27 0 47 -14l49 -37q31 -22 31 -64q0 -29 -19 -51l-147 -170q-27 -30 -70 -30q-29 0 -55 16q-39 26 -39 76q0 24 12 45z" />
    <glyph glyph-name="afii10085.var.accented" unicode="&#x443;`" horiz-adv-x="1013" 
d="M498 418q16 -41 45 -133q17 90 32 135l142 430q10 32 38 52t62 20h60q37 0 63.5 -27.5t26.5 -63.5q0 -16 -6 -34l-314 -797q-66 -169 -123.5 -259.5t-109 -120.5t-123.5 -30q-80 0 -156 39q-37 18 -37 60q0 14 6 26l27 56q12 26 25 35.5t34 9.5t48 -6q12 -3 26 -3
q84 0 142 144l20 49l-371 801q-8 20 -8 35q0 34 25 60t61 26h88q28 0 52 -16t34 -42zM418 1229l125 194q21 35 65 35q27 0 47 -14l50 -37q30 -21 30 -64q0 -30 -18 -51l-148 -170q-27 -30 -69 -30q-30 0 -56 16q-38 25 -38 76q0 24 12 45z" />
    <glyph glyph-name="afii10093.var.accented" unicode="&#x44b;`" horiz-adv-x="1384" 
d="M367 670h114q113 0 195 -26.5t126.5 -73t64.5 -101t20 -119.5q0 -69 -23 -129.5t-71 -111t-132.5 -80t-197.5 -29.5h-256q-31 0 -53.5 22.5t-22.5 53.5v770q0 31 22.5 53.5t53.5 22.5h84q31 0 53.5 -22.5t22.5 -53.5v-176zM1094 922h84q31 0 53 -22.5t22 -53.5v-770
q0 -31 -22 -53.5t-53 -22.5h-84q-31 0 -53.5 22.5t-22.5 53.5v770q0 31 22.5 53.5t53.5 22.5zM367 481v-276h92q178 0 178 137q0 139 -176 139h-94zM551 1229l125 194q21 35 65 35q27 0 47 -14l50 -37q30 -21 30 -64q0 -30 -18 -51l-148 -170q-27 -30 -69 -30q-29 0 -55 16
q-39 26 -39 76q0 24 12 45z" />
    <glyph glyph-name="afii10095.var.accented" unicode="&#x44d;`" horiz-adv-x="1001" 
d="M88 178l27 37q23 33 57 33q21 0 51 -15q97 -51 199 -51q106 0 175 52.5t87 152.5h-336q-31 0 -53.5 23.5t-22.5 56.5q0 32 22.5 55t53.5 23h334q-22 96 -93.5 145t-170.5 49t-205 -53q-20 -10 -39 -10q-47 0 -68 41l-18 28q-10 20 -10 39q0 45 35 66q157 94 313 94
q228 0 365 -131t137 -352q0 -135 -57 -244t-170.5 -174.5t-264.5 -65.5q-104 0 -180 22.5t-152 76.5q-30 20 -30 57q0 25 14 45zM336 1229l125 194q21 35 65 35q27 0 47 -14l50 -37q30 -21 30 -64q0 -30 -18 -51l-148 -170q-27 -30 -69 -30q-30 0 -56 16q-38 25 -38 76
q0 24 12 45z" />
    <glyph glyph-name="afii10096.var.accented" unicode="&#x44e;`" horiz-adv-x="1581" 
d="M541 352h-160v-276q0 -31 -22.5 -53.5t-53.5 -22.5h-98q-31 0 -53.5 22.5t-22.5 53.5v770q0 31 22.5 53.5t53.5 22.5h98q31 0 53.5 -22.5t22.5 -53.5v-258h164q36 161 160 258.5t307 97.5q221 0 358 -136.5t137 -346.5q0 -209 -138 -346.5t-357 -137.5q-188 0 -313 103
t-158 272zM1018 709q-98 0 -159.5 -67.5t-61.5 -180.5q0 -116 61.5 -182t159.5 -66q100 0 161.5 66.5t61.5 181.5q0 114 -60 181t-163 67zM709 1229l125 194q21 35 65 35q27 0 47 -14l49 -37q31 -22 31 -64q0 -30 -18 -51l-148 -170q-27 -30 -69 -30q-30 0 -56 16
q-39 26 -39 76q0 22 13 45z" />
    <glyph glyph-name="afii10097.var.accented" unicode="&#x44f;`" horiz-adv-x="993" 
d="M244 0h-76q-28 0 -47 20.5t-19 47.5q0 18 13 38l166 222q-71 26 -125 94t-54 172q0 69 25.5 126.5t78.5 103.5t143.5 72t211.5 26h225q31 0 53.5 -22.5t22.5 -53.5v-770q0 -31 -22.5 -53.5t-53.5 -22.5h-84q-31 0 -53 22.5t-22 53.5v200h-131l-156 -225
q-15 -23 -41.5 -37t-54.5 -14zM504 451h123v266h-105q-81 0 -124.5 -41t-43.5 -98q0 -55 46 -91t104 -36zM451 1229l124 194q21 35 66 35q27 0 47 -14l49 -37q31 -22 31 -64q0 -30 -18 -51l-148 -170q-27 -30 -70 -30q-29 0 -55 16q-39 26 -39 76q0 22 13 45z" />
    <glyph glyph-name="afii10071.var.accented" unicode="&#x451;`" horiz-adv-x="1071" 
d="M256 1090q-46 0 -77.5 30.5t-31.5 83.5q0 49 31.5 79t77.5 30q41 0 71.5 -30t30.5 -79q0 -53 -30.5 -83.5t-71.5 -30.5zM848 1090q-46 0 -77.5 30.5t-31.5 83.5q0 49 31.5 79t77.5 30q42 0 72 -30t30 -79q0 -53 -30 -83.5t-72 -30.5zM725 1309l-168 -193q-25 -31 -65 -31
q-21 0 -37 13q-27 15 -27 57q0 24 12 45l140 219q15 27 47 27q18 0 35 -10l55 -43q22 -16 22 -45q0 -25 -14 -39zM309 547h453v4q0 86 -57 141.5t-154 55.5q-102 0 -162 -53t-80 -148zM561 944q183 0 309.5 -119.5t126.5 -308.5q0 -37 -2 -53q-2 -26 -27 -50t-53 -24h-598
q15 -102 90.5 -158.5t186.5 -56.5q100 0 180 39q18 10 41 10q45 0 78 -47q14 -20 14 -49q0 -43 -30 -61q-140 -89 -308 -89q-223 0 -359 133t-136 351q0 100 34 188.5t95.5 153.5t154 103t203.5 38z" />
    <glyph glyph-name="fi" unicode="fi" horiz-adv-x="1085" 
d="M377 922h524q31 0 53.5 -22.5t22.5 -53.5v-770q0 -31 -22.5 -53.5t-53.5 -22.5h-84q-31 0 -53.5 22.5t-22.5 53.5v624h-364v-624q0 -31 -22.5 -53.5t-53.5 -22.5h-84q-31 0 -53.5 22.5t-22.5 53.5v960q0 211 109.5 315.5t300.5 104.5q126 0 205.5 -33t142.5 -98
q19 -19 19 -47q0 -33 -25 -55l-53 -47q-26 -23 -52 -23q-25 0 -65 31q-67 51 -156 51q-190 0 -190 -219v-94z" />
    <glyph glyph-name="fl" unicode="fl" horiz-adv-x="1169" 
d="M1153 176l23 -43q8 -13 8 -31q0 -41 -49 -71q-92 -51 -226 -51q-225 0 -225 274v932q-69 49 -145 49q-162 0 -162 -182v-131h90q31 0 53.5 -22.5t22.5 -53.5v-70q0 -31 -22.5 -53.5t-53.5 -22.5h-90v-624q0 -31 -22.5 -53.5t-53.5 -22.5h-84q-31 0 -53.5 22.5t-22.5 53.5
v995q0 189 86 287t242 98q147 0 242 -61h133q31 0 53.5 -22.5t22.5 -53.5v-969q0 -149 79 -149q13 0 33 4q50 12 64 12q36 0 57 -41z" />
    <glyph glyph-name=".notdef" horiz-adv-x="434" 
 />
    <glyph glyph-name=".null" horiz-adv-x="0" 
 />
    <glyph glyph-name="nonmarkingreturn" horiz-adv-x="682" 
 />
    <glyph glyph-name="space" unicode=" " horiz-adv-x="434" 
 />
    <glyph glyph-name="exclam" unicode="!" horiz-adv-x="632" 
d="M442 1358v-787q0 -31 -22 -53t-53 -22h-99q-31 0 -53 22t-22 53v787q0 31 22 53.5t53 22.5h99q31 0 53 -22.5t22 -53.5zM160 154q0 58 45.5 104.5t118.5 46.5q63 0 106 -47t43 -104q0 -65 -42.5 -114.5t-106.5 -49.5q-73 0 -118.5 49t-45.5 115z" />
    <glyph glyph-name="quotedbl" unicode="&#x22;" horiz-adv-x="882" 
d="M745 1358v-342q0 -31 -22 -53.5t-53 -22.5h-84q-31 0 -53.5 22.5t-22.5 53.5v342q0 31 22.5 53.5t53.5 22.5h84q31 0 53 -22.5t22 -53.5zM373 1358v-342q0 -31 -22.5 -53.5t-53.5 -22.5h-84q-31 0 -53.5 22.5t-22.5 53.5v342q0 31 22.5 53.5t53.5 22.5h84
q31 0 53.5 -22.5t22.5 -53.5z" />
    <glyph glyph-name="numbersign" unicode="#" horiz-adv-x="1482" 
d="M967 369l-117 -320q-9 -23 -30 -37t-46 -14q-6 0 -22 4l-39 16q-23 7 -36 26.5t-13 43.5q0 19 4 27l94 254h-313l-119 -320q-9 -23 -29.5 -37t-44.5 -14q-9 0 -25 4l-38 14q-23 7 -36.5 26.5t-13.5 43.5q0 19 4 27l95 256h-84q-31 0 -53.5 22t-22.5 53v54q0 31 22.5 53
t53.5 22h159l107 287h-266q-31 0 -53.5 22.5t-22.5 53.5v53q0 31 22.5 53.5t53.5 22.5h344l119 319q9 23 29.5 37.5t45.5 14.5q7 0 23 -4l39 -17q23 -7 36 -26t13 -43q0 -19 -4 -27l-94 -254h309l119 319q9 23 29.5 37.5t43.5 14.5q9 0 25 -4l39 -15q23 -7 36 -26t13 -43
q0 -19 -4 -27l-94 -256h100q31 0 53.5 -22.5t22.5 -53.5v-53q0 -31 -22.5 -53.5t-53.5 -22.5h-176l-107 -287h283q31 0 53.5 -22t22.5 -53v-54q0 -31 -22.5 -53t-53.5 -22h-358zM524 573h314l104 287h-311z" />
    <glyph glyph-name="dollar" unicode="$" horiz-adv-x="1189" 
d="M150 242l63 69q26 29 55 29q25 0 49 -21q59 -52 133.5 -79t145.5 -27q90 0 141 43.5t51 124.5q0 50 -28 91t-73.5 68.5t-104 57t-119 54.5t-119 63t-104 82t-73.5 112t-28 152q0 137 92 243.5t246 139.5v98q0 31 22.5 53.5t53.5 22.5h84q31 0 53.5 -22.5t22.5 -53.5v-94
q143 -24 241 -94q35 -24 35 -66q0 -26 -16 -45l-49 -63q-26 -33 -60 -33q-23 0 -45 16q-83 58 -196 58q-106 0 -161.5 -42.5t-55.5 -115.5q0 -60 36 -105.5t93 -76.5t126 -59.5t138.5 -64.5t126.5 -82t93 -120.5t36 -171.5q0 -151 -93.5 -256.5t-248.5 -136.5v-119
q0 -31 -22.5 -53.5t-53.5 -22.5h-84q-31 0 -53.5 22.5t-22.5 53.5v117q-99 16 -186 58.5t-135 103.5q-21 28 -21 53q0 21 15 39z" />
    <glyph glyph-name="percent" unicode="%" horiz-adv-x="1863" 
d="M1470 1296l-942 -1259q-24 -31 -63 -31q-26 0 -43 14l-12 9q-31 22 -31 59q0 26 14 43l944 1266q22 28 58 28q28 0 55 -18q35 -27 35 -68q0 -25 -15 -43zM479 721q-176 0 -289.5 101.5t-113.5 264.5q0 164 113 264.5t290 100.5t290.5 -100.5t113.5 -264.5
q0 -163 -114 -264.5t-290 -101.5zM479 1262q-78 0 -130 -48.5t-52 -126.5q0 -80 52.5 -128t129.5 -48q81 0 133 48t52 128q0 78 -53 126.5t-132 48.5zM1384 -20q-176 0 -289.5 101.5t-113.5 264.5q0 164 113 264.5t290 100.5t290.5 -100.5t113.5 -264.5q0 -163 -114 -264.5
t-290 -101.5zM1384 520q-78 0 -130 -48t-52 -126q0 -80 52.5 -128t129.5 -48q81 0 133 48t52 128q0 78 -52.5 126t-132.5 48z" />
    <glyph glyph-name="ampersand" unicode="&#x26;" horiz-adv-x="1501" 
d="M1378 850v-4q-22 -309 -186 -529l164 -208q14 -17 14 -41q0 -27 -19.5 -47.5t-47.5 -20.5h-99q-63 0 -96 45l-78 105q-157 -173 -426 -173q-216 0 -348.5 115.5t-132.5 296.5q0 70 17.5 131.5t44 107t71.5 91.5t84.5 77.5t99.5 73.5q-76 37 -120 107t-44 168
q0 141 100 226t240 85t240 -85t100 -226q0 -94 -54 -173t-130 -104l279 -362q78 149 94 340q1 33 24 54.5t56 21.5h82q28 0 49.5 -22t21.5 -50zM887 336l-293 399q-109 -89 -157 -155t-48 -144q0 -94 64.5 -158.5t158.5 -64.5q184 0 275 123zM496 1145q0 -48 34.5 -83.5
t85.5 -35.5t86 35.5t35 83.5q0 51 -35.5 86t-85.5 35q-51 0 -85.5 -34.5t-34.5 -86.5z" />
    <glyph glyph-name="quotesingle" unicode="'" horiz-adv-x="509" 
d="M373 1358v-342q0 -31 -22.5 -53.5t-53.5 -22.5h-84q-31 0 -53.5 22.5t-22.5 53.5v342q0 31 22.5 53.5t53.5 22.5h84q31 0 53.5 -22.5t22.5 -53.5z" />
    <glyph glyph-name="parenleft" unicode="(" horiz-adv-x="638" 
d="M610 1210q0 -27 -18 -51q-142 -154 -208.5 -323t-66.5 -375q0 -198 74 -380.5t201 -320.5q20 -20 20 -49q0 -35 -26 -55l-35 -31q-21 -18 -53 -18q-36 0 -58 22q-358 342 -358 832q0 474 360 831q23 23 56 23q30 0 55 -21l33 -28q24 -24 24 -56z" />
    <glyph glyph-name="parenright" unicode=")" horiz-adv-x="638" 
d="M141 1315q33 0 56 -23q360 -357 360 -831q0 -490 -358 -832q-22 -22 -58 -22q-32 0 -53 18l-35 31q-26 20 -26 55q0 29 20 49q127 138 201 320.5t74 380.5q0 206 -66.5 375t-208.5 323q-18 21 -18 49q0 34 24 58l33 28q25 21 55 21z" />
    <glyph glyph-name="asterisk" unicode="*" horiz-adv-x="1105" 
d="M557 1157q-63 0 -106 43.5t-43 106.5q0 61 43 104t106 43q60 0 104 -43.5t44 -103.5q0 -63 -43.5 -106.5t-104.5 -43.5zM551 535q-61 0 -104.5 42.5t-43.5 102.5q0 62 43.5 106.5t104.5 44.5q60 0 103.5 -44.5t43.5 -106.5q0 -60 -43.5 -102.5t-103.5 -42.5zM844 1016
q-61 0 -105.5 43t-44.5 104q0 60 45 105t105 45q61 0 105 -45t44 -105q0 -61 -43.5 -104t-105.5 -43zM844 684q-60 0 -105 42.5t-45 102.5q0 61 45 106.5t105 45.5q61 0 105 -45t44 -107q0 -60 -43.5 -102.5t-105.5 -42.5zM260 684q-60 0 -103.5 42.5t-43.5 102.5
q0 62 43.5 107t103.5 45q63 0 107.5 -45t44.5 -107q0 -60 -44.5 -102.5t-107.5 -42.5zM260 1016q-60 0 -103.5 43t-43.5 104q0 60 43.5 105t103.5 45q62 0 107 -44.5t45 -105.5t-44.5 -104t-107.5 -43z" />
    <glyph glyph-name="plus" unicode="+" 
d="M498 336v299h-287q-31 0 -53.5 22.5t-22.5 53.5v53q0 31 22.5 53.5t53.5 22.5h287v295q0 31 22 53t53 22h70q31 0 53.5 -22t22.5 -53v-295h291q31 0 53 -22.5t22 -53.5v-53q0 -31 -22 -53.5t-53 -22.5h-291v-299q0 -31 -22.5 -53.5t-53.5 -22.5h-70q-31 0 -53 22.5
t-22 53.5z" />
    <glyph glyph-name="comma" unicode="," horiz-adv-x="530" 
d="M258 -2q0 6 -4 18q-12 -16 -53 -16t-73 38t-32 93q0 67 42 108.5t116 41.5q82 0 131 -64.5t49 -165.5q0 -112 -49.5 -188t-151.5 -137q-18 -9 -28 -9q-40 0 -60 33q-8 13 -8 33q0 35 31 57q17 14 27 23t21 24.5t20 34.5q22 46 22 76z" />
    <glyph glyph-name="hyphen" unicode="-" horiz-adv-x="770" 
d="M643 594v-68q0 -31 -22.5 -53t-53.5 -22h-364q-31 0 -53.5 22t-22.5 53v68q0 31 22.5 53.5t53.5 22.5h364q31 0 53.5 -22.5t22.5 -53.5z" />
    <glyph glyph-name="period" unicode="." horiz-adv-x="497" 
d="M256 305q63 0 106.5 -47t43.5 -104q0 -65 -43 -114.5t-107 -49.5q-73 0 -118.5 49t-45.5 115q0 58 45.5 104.5t118.5 46.5z" />
    <glyph glyph-name="slash" unicode="/" horiz-adv-x="747" 
d="M776 1317l-622 -1671q-9 -23 -28.5 -36t-43.5 -13q-19 0 -27 4l-39 14q-23 7 -36 27.5t-13 44.5q0 18 4 26l623 1671q7 23 27.5 36.5t44.5 13.5q18 0 26 -4l39 -15q23 -7 36 -27.5t13 -44.5q0 -18 -4 -26z" />
    <glyph glyph-name="zero" unicode="0" horiz-adv-x="1132" 
d="M86 717q0 223 50.5 385t160 255t270.5 93q160 0 269.5 -93t160 -255t50.5 -385q0 -224 -49.5 -385.5t-158 -254.5t-268.5 -93q-161 0 -271.5 93t-162 255t-51.5 385zM338 717q0 -514 233 -514q121 0 173.5 122.5t52.5 391.5q0 268 -54 390t-176 122q-120 0 -174.5 -124.5
t-54.5 -387.5z" />
    <glyph glyph-name="one" unicode="1" horiz-adv-x="788" 
d="M338 1102l-117 -88q-21 -15 -45 -15q-37 0 -61 27l-52 61q-16 19 -16 46q0 34 29 57l264 201q62 47 117 47h51q30 0 47.5 -20t17.5 -52v-1290q0 -31 -22 -53.5t-53 -22.5h-84q-31 0 -53.5 22.5t-22.5 53.5v1026z" />
    <glyph glyph-name="two" unicode="2" horiz-adv-x="1062" 
d="M967 143v-67q0 -31 -22.5 -53.5t-53.5 -22.5h-764q-31 0 -53.5 22.5t-22.5 53.5v43q0 58 70 125q86 82 148.5 144t142 153t129.5 166t85.5 161t35.5 160q0 87 -47.5 136.5t-135.5 49.5q-62 0 -106 -27t-86 -89q-24 -41 -70 -41q-19 0 -39 10l-55 29q-18 9 -29.5 27.5
t-11.5 39.5q0 18 8 31q71 135 168 195.5t248 60.5q98 0 177 -31.5t128 -85t74.5 -119.5t25.5 -139q0 -82 -24.5 -169t-62 -159.5t-91.5 -148t-101.5 -130t-104.5 -110t-89.5 -84t-66.5 -55.5h520q31 0 53.5 -22.5t22.5 -53.5z" />
    <glyph glyph-name="three" unicode="3" horiz-adv-x="1085" 
d="M502 1456q186 0 298.5 -98.5t112.5 -265.5q0 -242 -219 -342q130 -26 202.5 -121t72.5 -226q0 -194 -133 -310t-336 -116q-132 0 -226.5 39t-201.5 127q-27 21 -27 60q0 31 16 47l50 63q26 29 59 29q25 0 47 -16q72 -54 135.5 -83.5t132.5 -29.5q111 0 171.5 56.5
t60.5 142.5q0 97 -70 149.5t-196 52.5h-27q-31 0 -53.5 22.5t-22.5 53.5v84q0 31 24 53.5t60 22.5q97 0 163.5 53.5t66.5 143.5q0 79 -47 126.5t-136 47.5q-104 0 -217 -88q-24 -17 -49 -17q-35 0 -61 29l-43 47q-19 19 -19 47q0 35 27 59q88 76 179.5 117t205.5 41z" />
    <glyph glyph-name="four" unicode="4" horiz-adv-x="1153" 
d="M918 332v-256q0 -31 -22.5 -53.5t-53.5 -22.5h-84q-31 0 -53.5 22.5t-22.5 53.5v256h-586q-30 0 -53 21t-23 48v41q0 26 7.5 50.5t13.5 34.5t27 46l471 793q41 68 108 68h84q29 0 48.5 -19.5t19.5 -46.5q0 -18 -11 -35l-456 -766h350v279q0 31 22.5 53.5t53.5 22.5h84
q31 0 53.5 -22.5t22.5 -53.5v-279h108q31 0 53.5 -22t22.5 -53v-84q0 -31 -22.5 -53.5t-53.5 -22.5h-108z" />
    <glyph glyph-name="five" unicode="5" horiz-adv-x="1042" 
d="M223 301q111 -88 238 -88q103 0 169 68t66 174q0 110 -82 182t-223 72q-63 0 -121 -9q-3 0 -8.5 -1t-7.5 -1q-38 0 -61 22.5t-23 59.5q0 3 1 8.5t1 8.5l68 561q5 32 29.5 54t56.5 22h526q31 0 53.5 -22.5t22.5 -53.5v-84q0 -31 -22.5 -53.5t-53.5 -22.5h-395l-41 -285
q52 9 82 9q195 0 322.5 -124.5t127.5 -332.5q0 -150 -67 -262.5t-178 -169t-248 -56.5q-204 0 -385 170q-23 23 -23 52t21 53l43 47q22 25 53 25q29 0 59 -23z" />
    <glyph glyph-name="six" unicode="6" horiz-adv-x="1159" 
d="M371 754q96 133 295 133q168 0 284.5 -122.5t116.5 -315.5q0 -109 -40 -200t-106 -149.5t-148 -90.5t-169 -32q-155 0 -273 73t-178.5 192.5t-60.5 265.5q0 142 37.5 274t100.5 236t147.5 191t176 146.5t187.5 94.5q18 6 37 6q53 0 68 -41l22 -59q6 -15 6 -29
q0 -53 -53 -72q-160 -65 -281.5 -194t-168.5 -307zM342 506q0 -128 69.5 -210.5t194.5 -82.5q95 0 153 64.5t58 154.5q0 103 -60.5 169.5t-170.5 66.5q-89 0 -150.5 -47t-93.5 -115z" />
    <glyph glyph-name="seven" unicode="7" horiz-adv-x="1011" 
d="M367 0h-62q-33 0 -56.5 23.5t-23.5 54.5q0 16 6 31l439 1089h-543q-31 0 -53.5 22.5t-22.5 53.5v84q0 31 22.5 53.5t53.5 22.5h758q31 0 53.5 -23t22.5 -55v-27q0 -35 -37 -127l-451 -1128q-12 -33 -42 -53.5t-64 -20.5z" />
    <glyph glyph-name="eight" unicode="8" horiz-adv-x="1226" 
d="M635 854q80 0 132 55t52 129q0 86 -57.5 134.5t-151.5 48.5q-91 0 -146.5 -51.5t-55.5 -131.5q0 -75 53 -129.5t135 -54.5h39zM600 618q-95 0 -163 -55t-68 -147q0 -88 65.5 -145.5t177.5 -57.5q121 0 184.5 55t63.5 144v4q-1 96 -64 149t-161 53h-35zM612 1456
q194 0 326.5 -105.5t132.5 -271.5q0 -107 -59.5 -201t-161.5 -139q111 -26 185.5 -120t74.5 -228q0 -129 -66 -224t-177.5 -142.5t-252.5 -47.5q-214 0 -355.5 107.5t-141.5 286.5q0 133 68 229.5t177 136.5q-88 39 -146 130t-58 212q0 166 131 271.5t323 105.5z" />
    <glyph glyph-name="nine" unicode="9" horiz-adv-x="1136" 
d="M766 664q-93 -129 -272 -129q-182 0 -307.5 127.5t-125.5 316.5q0 109 42 201t110.5 151t152.5 92t171 33q235 0 371 -151.5t136 -395.5q0 -380 -184.5 -615.5t-507.5 -309.5q-6 -2 -16 -2q-27 0 -47.5 14.5t-26.5 38.5l-14 51q-2 8 -2 20q0 26 15.5 46t39.5 28
q203 67 314 183.5t151 300.5zM795 911q0 131 -67.5 220.5t-190.5 89.5q-97 0 -161.5 -68.5t-64.5 -157.5q0 -99 65 -169t175 -70q90 0 151.5 44.5t92.5 110.5z" />
    <glyph glyph-name="colon" unicode=":" horiz-adv-x="651" 
d="M332 944q63 0 106 -47t43 -104q0 -65 -42.5 -114.5t-106.5 -49.5q-73 0 -118.5 49t-45.5 115q0 58 45.5 104.5t118.5 46.5zM332 305q63 0 106 -47t43 -104q0 -65 -42.5 -114.5t-106.5 -49.5q-73 0 -118.5 49t-45.5 115q0 58 45.5 104.5t118.5 46.5z" />
    <glyph glyph-name="semicolon" unicode=";" horiz-adv-x="663" 
d="M332 944q63 0 106 -47t43 -104q0 -65 -42.5 -114.5t-106.5 -49.5q-73 0 -118.5 49t-45.5 115q0 58 45.5 104.5t118.5 46.5zM332 -2q0 6 -4 18q-12 -16 -54 -16q-41 0 -72.5 38t-31.5 93q0 67 42 108.5t116 41.5q82 0 131 -64.5t49 -165.5q0 -112 -49.5 -188t-151.5 -137
q-18 -9 -28 -9q-40 0 -60 33q-8 13 -8 33q0 35 31 57q48 38 67 82q23 48 23 76z" />
    <glyph glyph-name="less" unicode="&#x3c;" horiz-adv-x="1228" 
d="M145 813l809 467q20 10 35 10q29 0 49.5 -19.5t20.5 -49.5v-88q0 -45 -41 -68l-588 -324l588 -327q41 -23 41 -68v-90q0 -30 -21 -50t-49 -20q-13 0 -35 11l-809 471q-45 27 -45 73q0 45 45 72z" />
    <glyph glyph-name="equal" unicode="=" 
d="M1085 958v-53q0 -31 -22 -53.5t-53 -22.5h-799q-31 0 -53.5 22.5t-22.5 53.5v53q0 31 22.5 53.5t53.5 22.5h799q31 0 53 -22.5t22 -53.5zM1085 569v-53q0 -31 -22 -53.5t-53 -22.5h-799q-31 0 -53.5 22.5t-22.5 53.5v53q0 31 22.5 53.5t53.5 22.5h799q31 0 53 -22.5
t22 -53.5z" />
    <glyph glyph-name="greater" unicode="&#x3e;" horiz-adv-x="1226" 
d="M272 1280l809 -467q45 -27 45 -72q0 -46 -45 -73l-809 -471q-22 -11 -34 -11q-28 0 -49 20t-21 50v90q0 45 41 68l588 327l-588 324q-41 23 -41 68v88q0 30 20.5 49.5t49.5 19.5q14 0 34 -10z" />
    <glyph glyph-name="question" unicode="?" horiz-adv-x="952" 
d="M451 446h-80q-27 0 -45.5 19.5t-18.5 52.5q0 57 19 104.5t49 80.5t66.5 62t73 56.5t66.5 57.5t49 72t19 93q0 73 -55 125t-137 52q-122 0 -201 -76q-24 -21 -49 -21q-30 0 -57 27l-48 47q-18 18 -18 43q0 31 29 64q65 69 156.5 110t201.5 41q198 0 314 -103.5t116 -256.5
q0 -73 -18.5 -134.5t-48 -104.5t-66.5 -79t-75 -66t-71.5 -58t-58.5 -61.5t-33 -70.5q-8 -43 -24 -59.5t-55 -16.5zM270 154q0 58 45.5 104.5t116.5 46.5q65 0 108.5 -47t43.5 -104q0 -65 -43.5 -114.5t-108.5 -49.5q-72 0 -117 49t-45 115z" />
    <glyph glyph-name="at" unicode="@" horiz-adv-x="2037" 
d="M117 461q0 186 70.5 352.5t192 287t293.5 191t367 70.5q249 0 449 -98.5t316 -282.5t116 -422q0 -85 -18.5 -164.5t-56.5 -150t-91.5 -124t-129 -85.5t-163.5 -35h-164q-29 0 -50 21.5t-21 52.5q-104 -97 -254 -97q-206 0 -329.5 133t-123.5 351q0 204 149.5 343.5
t379.5 139.5q187 0 358 -80q23 -10 39 -36.5t16 -51.5v-557h41q86 0 142.5 93t56.5 247q0 119 -46.5 225t-130 186t-209.5 126.5t-276 46.5q-144 0 -272 -47.5t-223.5 -134t-151 -216t-55.5 -284.5q0 -195 94.5 -352t255 -243.5t352.5 -86.5q70 0 148 10q3 0 7.5 1t6.5 1
q25 0 42.5 -14.5t21.5 -40.5l14 -70q2 -8 2 -22q0 -57 -61 -68q-92 -18 -181 -18q-196 0 -367.5 68t-293.5 186.5t-192 287t-70 361.5zM1227 293v385q-92 45 -180 45q-129 0 -202 -78.5t-73 -193.5q0 -119 67 -186.5t177 -67.5q60 0 116.5 27.5t94.5 68.5z" />
    <glyph glyph-name="A" unicode="A" horiz-adv-x="1445" 
d="M1022 367h-612l-127 -310q-9 -26 -32.5 -41.5t-51.5 -15.5h-74q-35 0 -57.5 23.5t-22.5 56.5q0 14 6 29l537 1271q10 26 34 42t52 16h98q28 0 52 -16t34 -42l537 -1271q6 -15 6 -29q0 -33 -22.5 -56.5t-57.5 -23.5h-88q-28 0 -51.5 15.5t-32.5 41.5zM717 1112l-211 -510
h420z" />
    <glyph glyph-name="B" unicode="B" horiz-adv-x="1263" 
d="M1083 1085q0 -229 -204 -327q113 -30 182 -115t69 -221q0 -108 -40 -191t-112.5 -135t-168 -78t-211.5 -26q-183 0 -324 6q-31 2 -53 24.5t-22 53.5v1278q0 32 22 55t53 25q282 6 338 6q125 0 217.5 -27t147 -76t80.5 -112t26 -140zM451 616v-378q96 -11 165 -11
q128 0 195.5 53t67.5 154q0 90 -65 136t-185 46h-178zM451 836h170q93 0 153 48t60 142q0 86 -61 132t-165 46q-90 0 -157 -6v-362z" />
    <glyph glyph-name="C" unicode="C" horiz-adv-x="1331" 
d="M1079 1151q-137 70 -254 70q-204 0 -335.5 -137.5t-131.5 -366.5q0 -224 138 -364t358 -140q127 0 258 72q24 12 47 12q46 0 66 -35l37 -57q14 -20 14 -47q0 -39 -29 -58q-187 -123 -416 -123q-217 0 -385 91.5t-261 260t-93 388.5q0 155 48.5 289t139.5 234.5t231.5 158
t313.5 57.5q92 0 192.5 -28t182.5 -74q41 -20 41 -60q0 -20 -12 -41l-43 -75q-23 -39 -62 -39q-24 0 -45 12z" />
    <glyph glyph-name="D" unicode="D" horiz-adv-x="1517" 
d="M274 1434q339 6 347 6q167 0 303 -37.5t228 -102.5t154.5 -155.5t90.5 -194t28 -219.5q0 -122 -32.5 -231t-99.5 -201.5t-163 -159.5t-231 -105t-295 -38q-64 0 -330 4q-31 0 -53 22.5t-22 53.5v1282q0 31 21.5 53.5t53.5 22.5zM451 1198v-962q88 -5 161 -5
q257 0 402 135t145 365q0 218 -144 345.5t-399 127.5q-80 0 -165 -6z" />
    <glyph glyph-name="E" unicode="E" horiz-adv-x="1177" 
d="M1049 160v-84q0 -31 -22.5 -53.5t-53.5 -22.5h-699q-31 0 -53 22.5t-22 53.5v1282q0 31 22 53.5t53 22.5h678q31 0 53.5 -22.5t22.5 -53.5v-84q0 -31 -22.5 -53.5t-53.5 -22.5h-501v-356h440q31 0 53.5 -22.5t22.5 -53.5v-84q0 -31 -22.5 -53.5t-53.5 -22.5h-440v-370
h522q31 0 53.5 -22.5t22.5 -53.5z" />
    <glyph glyph-name="F" unicode="F" horiz-adv-x="1099" 
d="M451 557v-481q0 -31 -22.5 -53.5t-53.5 -22.5h-101q-31 0 -53 22.5t-22 53.5v1282q0 31 22 53.5t53 22.5h668q31 0 53.5 -22.5t22.5 -53.5v-84q0 -31 -22.5 -53.5t-53.5 -22.5h-491v-405h430q31 0 53 -22.5t22 -53.5v-84q0 -31 -22 -53.5t-53 -22.5h-430z" />
    <glyph glyph-name="G" unicode="G" horiz-adv-x="1488" 
d="M358 717q0 -228 133.5 -366t352.5 -138q82 0 169 29.5t128 68.5v226h-271q-31 0 -53 22t-22 53v84q0 31 22 53.5t53 22.5h430q31 0 53.5 -22.5t22.5 -53.5v-463q0 -62 -47 -96q-95 -74 -230.5 -117t-258.5 -43q-348 0 -548 201t-200 539q0 154 50.5 289t142 235
t226.5 157.5t296 57.5q136 0 234.5 -24t195.5 -84q27 -17 27 -54q0 -20 -13 -43l-45 -73q-20 -35 -61 -35q-23 0 -47 12q-125 66 -260 66q-212 0 -346 -135t-134 -369z" />
    <glyph glyph-name="H" unicode="H" horiz-adv-x="1554" 
d="M1356 1358v-1282q0 -31 -22.5 -53.5t-53.5 -22.5h-98q-31 0 -53.5 22.5t-22.5 53.5v536h-655v-536q0 -31 -22.5 -53.5t-53.5 -22.5h-101q-31 0 -53 22.5t-22 53.5v1282q0 31 22 53.5t53 22.5h101q31 0 53.5 -22.5t22.5 -53.5v-510h655v510q0 31 22.5 53.5t53.5 22.5h98
q31 0 53.5 -22.5t22.5 -53.5z" />
    <glyph glyph-name="I" unicode="I" horiz-adv-x="710" 
d="M481 1358v-1282q0 -31 -22 -53.5t-53 -22.5h-101q-31 0 -53.5 22.5t-22.5 53.5v1282q0 31 22.5 53.5t53.5 22.5h101q31 0 53 -22.5t22 -53.5z" />
    <glyph glyph-name="J" unicode="J" horiz-adv-x="796" 
d="M346 381v977q0 31 22.5 53.5t53.5 22.5h100q31 0 53.5 -22.5t22.5 -53.5v-1020q0 -174 -87 -267.5t-259 -93.5q-101 0 -191 39q-47 16 -47 66q0 16 6 31l25 69q14 47 68 47q10 0 30 -4q50 -12 74 -12q129 0 129 168z" />
    <glyph glyph-name="K" unicode="K" horiz-adv-x="1359" 
d="M451 739v-663q0 -31 -22.5 -53.5t-53.5 -22.5h-101q-31 0 -53 22.5t-22 53.5v1282q0 31 22 53.5t53 22.5h101q31 0 53.5 -22.5t22.5 -53.5v-604l526 632q38 48 100 48h92q28 0 47 -20.5t19 -47.5q0 -29 -16 -45l-490 -555l531 -649q16 -19 16 -45q0 -29 -20 -50.5
t-50 -21.5h-108q-61 0 -101 49z" />
    <glyph glyph-name="L" unicode="L" horiz-adv-x="1120" 
d="M1096 160v-84q0 -31 -22.5 -53.5t-53.5 -22.5h-746q-31 0 -53 22.5t-22 53.5v1282q0 31 22 53.5t53 22.5h101q31 0 53.5 -22.5t22.5 -53.5v-1122h569q31 0 53.5 -22.5t22.5 -53.5z" />
    <glyph glyph-name="M" unicode="M" horiz-adv-x="1845" 
d="M451 1030v-954q0 -31 -22.5 -53.5t-53.5 -22.5h-101q-31 0 -53 22.5t-22 53.5v1282q0 31 22 53.5t53 22.5h117q59 0 98 -52l453 -618l432 618q15 23 41.5 37.5t54.5 14.5h101q31 0 53.5 -22.5t22.5 -53.5v-1282q0 -31 -22.5 -53.5t-53.5 -22.5h-98q-31 0 -53.5 22.5
t-22.5 53.5v960l-375 -526q-40 -55 -96 -55q-59 0 -99 55z" />
    <glyph glyph-name="N" unicode="N" horiz-adv-x="1622" 
d="M1264 1434h84q31 0 53 -22.5t22 -53.5v-1282q0 -31 -22 -53.5t-53 -22.5h-72q-52 0 -92 49l-750 944v-917q0 -31 -22.5 -53.5t-53.5 -22.5h-84q-31 0 -53 22.5t-22 53.5v1282q0 31 22 53.5t53 22.5h72q52 0 92 -50l750 -948v922q0 31 22.5 53.5t53.5 22.5z" />
    <glyph glyph-name="O" unicode="O" horiz-adv-x="1677" 
d="M92 717q0 154 55 290.5t152.5 235.5t237 156t301.5 57q212 0 381.5 -91t267.5 -260t98 -388q0 -212 -97.5 -381.5t-268 -264t-381.5 -94.5q-212 0 -381.5 91t-267 260.5t-97.5 388.5zM358 717q0 -214 139 -359t341 -145q220 0 350.5 143t130.5 361q0 220 -138 362
t-343 142q-207 0 -343.5 -141.5t-136.5 -362.5z" />
    <glyph glyph-name="P" unicode="P" horiz-adv-x="1253" 
d="M606 1438q123 0 219.5 -25.5t158.5 -68.5t102.5 -103t57.5 -125t17 -139q0 -93 -34.5 -176t-98.5 -148t-165.5 -103t-225.5 -38q-125 0 -186 6v-442q0 -31 -22.5 -53.5t-53.5 -22.5h-101q-31 0 -53 22.5t-22 53.5v1282q0 31 21.5 53.5t53.5 22.5q204 4 332 4zM451 1198
v-440q98 -10 178 -10q119 0 192.5 58t73.5 173q0 223 -264 223q-44 0 -180 -4z" />
    <glyph glyph-name="Q" unicode="Q" horiz-adv-x="1677" 
d="M1294 -25l-82 93q-168 -91 -374 -91q-212 0 -381.5 91t-267 260.5t-97.5 388.5q0 154 55 290.5t152.5 235.5t237 156t301.5 57q212 0 381.5 -91t267.5 -260t98 -388q0 -151 -51 -282.5t-145 -229.5l75 -84q19 -22 19 -49q0 -34 -27 -58l-55 -47q-21 -18 -49 -18
q-38 0 -58 26zM1145 489l78 -92q96 135 96 320q0 220 -138 362t-343 142q-207 0 -343.5 -141.5t-136.5 -362.5q0 -214 139 -359t341 -145q117 0 215 45l-72 84q-18 21 -18 51q0 37 24 58l53 45q21 18 50 18q33 0 55 -25z" />
    <glyph glyph-name="R" unicode="R" horiz-adv-x="1331" 
d="M985 51l-358 486h-176v-461q0 -31 -22.5 -53.5t-53.5 -22.5h-101q-31 0 -53 22.5t-22 53.5v1282q0 31 21.5 53.5t53.5 22.5q246 4 361 4q114 0 203.5 -22.5t148.5 -61.5t97 -96t54.5 -121.5t16.5 -141.5q0 -88 -25.5 -161t-68.5 -121.5t-88 -79t-94 -47.5l356 -467
q16 -19 16 -45q0 -30 -21 -52t-52 -22h-95q-60 0 -98 51zM451 772h163q116 0 195.5 58t79.5 163q0 209 -266 209q-36 0 -172 -4v-426z" />
    <glyph glyph-name="S" unicode="S" horiz-adv-x="1114" 
d="M111 256l67 72q22 22 51 22q33 0 58 -22q139 -115 260 -115q92 0 150.5 44.5t58.5 123.5q0 45 -22 82t-60 64.5t-86.5 51.5t-102.5 48.5t-108 51t-102.5 62t-86.5 78.5t-60 105t-22 137q0 167 122 281t325 114q185 0 342 -88q37 -19 37 -65q0 -18 -10 -35l-39 -68
q-24 -41 -68 -41q-21 0 -37 8q-111 54 -205 54q-93 0 -146.5 -43.5t-53.5 -114.5q0 -60 36 -105.5t93 -76.5t126 -59.5t138.5 -64.5t126.5 -82t93 -120.5t36 -171.5q0 -179 -137.5 -292.5t-341.5 -113.5q-121 0 -221 40t-203 135q-27 24 -27 59q0 26 19 45z" />
    <glyph glyph-name="T" unicode="T" horiz-adv-x="1222" 
d="M662 0h-101q-31 0 -53.5 22.5t-22.5 53.5v1122h-389q-31 0 -53.5 22.5t-22.5 53.5v84q0 31 22.5 53.5t53.5 22.5h1030q31 0 53.5 -22.5t22.5 -53.5v-84q0 -31 -22.5 -53.5t-53.5 -22.5h-389v-1122q0 -31 -22 -53.5t-53 -22.5z" />
    <glyph glyph-name="U" unicode="U" horiz-adv-x="1536" 
d="M1108 645v713q0 31 22.5 53.5t53.5 22.5h98q31 0 53.5 -22.5t22.5 -53.5v-764q0 -128 -30.5 -232t-83.5 -175t-125.5 -119t-155.5 -69.5t-175 -21.5q-135 0 -246 40t-192.5 117.5t-126.5 198.5t-45 275v750q0 31 22.5 53.5t53.5 22.5h100q31 0 53.5 -22.5t22.5 -53.5
v-696q0 -209 89 -329t269 -120q320 0 320 432z" />
    <glyph glyph-name="V" unicode="V" horiz-adv-x="1331" 
d="M279 1376l403 -1005l385 1005q11 25 34 41.5t50 16.5h72q34 0 58 -24t24 -56q0 -12 -7 -29l-507 -1272q-9 -26 -32.5 -41.5t-51.5 -15.5h-68q-28 0 -52 15.5t-34 41.5l-520 1272q-6 15 -6 31q0 31 23 54.5t56 23.5h89q28 0 51.5 -16t32.5 -42z" />
    <glyph glyph-name="W" unicode="W" horiz-adv-x="2007" 
d="M1473 410l266 952q9 31 36 51.5t60 20.5h57q37 0 59.5 -20t22.5 -56q0 -16 -6 -37l-356 -1249q-9 -31 -36 -51.5t-60 -20.5h-84q-34 0 -62.5 20t-38.5 52l-321 964l-318 -964q-9 -32 -36.5 -52t-61.5 -20h-86q-33 0 -60 20.5t-38 51.5l-373 1249q-4 20 -4 29
q0 35 22 59.5t58 24.5h98q33 0 60 -20.5t36 -51.5l268 -950l297 950q9 31 37 51.5t62 20.5h98q34 0 61.5 -20t36.5 -52z" />
    <glyph glyph-name="X" unicode="X" horiz-adv-x="1341" 
d="M358 1382l318 -467l311 467q15 23 41.5 37.5t54.5 14.5h97q31 0 51 -22t20 -52q0 -21 -12 -39l-405 -590l423 -618q13 -20 13 -39q0 -30 -20.5 -52t-51.5 -22h-96q-28 0 -54.5 14t-41.5 37l-336 488l-334 -488q-15 -23 -41.5 -37t-54.5 -14h-97q-31 0 -51 22t-20 52
q0 21 12 39l424 618l-402 590q-12 18 -12 41q0 29 20.5 50.5t51.5 21.5h96q28 0 54.5 -14.5t41.5 -37.5z" />
    <glyph glyph-name="Y" unicode="Y" horiz-adv-x="1261" 
d="M317 1380l324 -546l322 546q13 25 38.5 39.5t53.5 14.5h73q33 0 54.5 -23t21.5 -55q0 -24 -10 -39l-438 -719v-522q0 -31 -22.5 -53.5t-53.5 -22.5h-100q-31 0 -53.5 22.5t-22.5 53.5v522l-434 719q-13 19 -13 41q0 30 22.5 53t55.5 23h88q61 0 94 -54z" />
    <glyph glyph-name="Z" unicode="Z" horiz-adv-x="1304" 
d="M51 76v35q0 9 3 19.5t6.5 18t11.5 19.5t12 17.5t14.5 19t12.5 16.5l733 977h-697q-31 0 -53 22.5t-22 53.5v84q0 31 22 53.5t53 22.5h959q31 0 53.5 -22.5t22.5 -53.5v-37q0 -37 -60 -111l-735 -974h760q31 0 53.5 -22.5t22.5 -53.5v-84q0 -31 -22.5 -53.5t-53.5 -22.5
h-1020q-31 0 -53.5 22.5t-22.5 53.5z" />
    <glyph glyph-name="bracketleft" unicode="[" horiz-adv-x="716" 
d="M686 -266v-68q0 -31 -22.5 -53.5t-53.5 -22.5h-411q-31 0 -53.5 22.5t-22.5 53.5v1589q0 31 22.5 53.5t53.5 22.5h411q31 0 53.5 -22.5t22.5 -53.5v-69q0 -31 -22.5 -53.5t-53.5 -22.5h-252v-1300h252q31 0 53.5 -22.5t22.5 -53.5z" />
    <glyph glyph-name="backslash" unicode="\" horiz-adv-x="747" 
d="M592 -354l-621 1671q-4 10 -4 26q0 24 13 44.5t34 27.5l41 15q8 4 25 4q24 0 44.5 -13.5t27.5 -34.5l624 -1675q4 -8 4 -24q0 -24 -13 -44.5t-36 -27.5l-41 -14q-8 -4 -26 -4q-24 0 -44.5 13t-27.5 36z" />
    <glyph glyph-name="bracketright" unicode="]" horiz-adv-x="716" 
d="M31 1186v69q0 31 22 53.5t53 22.5h412q31 0 53.5 -22.5t22.5 -53.5v-1589q0 -31 -22.5 -53.5t-53.5 -22.5h-412q-31 0 -53 22.5t-22 53.5v68q0 31 22 53.5t53 22.5h252v1300h-252q-31 0 -53 22.5t-22 53.5z" />
    <glyph glyph-name="asciicircum" unicode="^" horiz-adv-x="1038" 
d="M520 1214l-172 -247q-33 -45 -88 -45h-55q-32 0 -53 21.5t-21 51.5q0 23 14 43l263 367q33 45 88 45h51q55 0 88 -45l258 -367q14 -20 14 -43q0 -30 -20.5 -51.5t-52.5 -21.5h-58q-25 0 -49 12.5t-37 32.5z" />
    <glyph glyph-name="underscore" unicode="_" horiz-adv-x="704" 
d="M705 -250v-84q0 -31 -22.5 -53.5t-53.5 -22.5h-553q-31 0 -53.5 22.5t-22.5 53.5v84q0 31 22.5 53.5t53.5 22.5h553q31 0 53.5 -22.5t22.5 -53.5z" />
    <glyph glyph-name="grave" unicode="`" horiz-adv-x="645" 
d="M354 1419l123 -190q12 -21 12 -47q0 -51 -36 -74q-21 -16 -54 -16q-46 0 -73 30l-146 166q-20 20 -20 53q0 41 30 62l52 37q22 16 47 16q44 0 65 -37z" />
    <glyph glyph-name="a" unicode="a" horiz-adv-x="948" 
d="M360 -12q-129 0 -208.5 75.5t-79.5 206.5q0 146 94.5 222.5t241.5 76.5q60 0 116.5 -16.5t91.5 -42.5v29q0 106 -39.5 157.5t-132.5 51.5q-80 0 -157 -25q-18 -6 -37 -6q-49 0 -70 43l-12 24q-8 20 -8 33q0 20 12 38.5t31 27.5q132 61 266 61q197 0 283 -96t86 -287v-485
q0 -31 -22.5 -53.5t-53.5 -22.5h-53q-31 0 -53.5 22.5t-22.5 53.5v30q-38 -54 -109.5 -86t-163.5 -32zM616 270v95q-60 45 -161 45q-63 0 -105.5 -29.5t-42.5 -85.5q0 -51 37 -80t94 -29q119 0 178 84z" />
    <glyph glyph-name="b" unicode="b" horiz-adv-x="1122" 
d="M367 1358v-494q101 80 243 80q202 0 320.5 -130.5t118.5 -338.5q0 -228 -142.5 -363t-384.5 -135q-177 0 -336 74q-22 9 -38.5 35t-16.5 51v1221q0 31 22.5 53.5t53.5 22.5h84q31 0 53.5 -22.5t22.5 -53.5zM367 635v-391q73 -47 168 -47q114 0 188 70.5t74 191.5
q0 127 -68.5 195.5t-173.5 68.5q-57 0 -106 -25t-82 -63z" />
    <glyph glyph-name="c" unicode="c" horiz-adv-x="1005" 
d="M782 678q-18 0 -37 8q-75 37 -163 37q-103 0 -179.5 -72.5t-76.5 -189.5q0 -119 78.5 -191.5t187.5 -72.5q98 0 178 53q26 16 49 16q40 0 64 -30l35 -43q14 -14 14 -41q0 -43 -29 -66q-79 -62 -154 -85.5t-169 -23.5q-229 0 -367.5 133t-138.5 351q0 133 60 243.5
t170 175t247 64.5q174 0 303 -70q17 -9 27 -27.5t10 -39.5q0 -20 -8 -33l-31 -53q-25 -43 -70 -43z" />
    <glyph glyph-name="d" unicode="d" horiz-adv-x="1138" 
d="M848 1434h84q31 0 53.5 -22.5t22.5 -53.5v-1282q0 -31 -22.5 -53.5t-53.5 -22.5h-84q-31 0 -53.5 22.5t-22.5 53.5v20q-104 -112 -264 -112q-197 0 -315.5 128t-118.5 339q0 218 141.5 355.5t364.5 137.5q118 0 192 -45v459q0 31 22.5 53.5t53.5 22.5zM772 297v371
q-88 55 -182 55q-110 0 -187 -71t-77 -193q0 -119 66.5 -187.5t164.5 -68.5q121 0 215 94z" />
    <glyph glyph-name="e" unicode="e" horiz-adv-x="1071" 
d="M309 547h453v4q0 86 -57 141.5t-154 55.5q-102 0 -162 -53t-80 -148zM594 174q100 0 180 39q28 14 47 14q36 0 60 -34l18 -27q12 -18 12 -41q0 -43 -32 -62q-138 -86 -310 -86q-223 0 -359 133t-136 351q0 100 34 188.5t95.5 153.5t154 103t203.5 38q183 0 309.5 -119.5
t126.5 -308.5q0 -37 -2 -53q-2 -26 -27 -50t-53 -24h-598q15 -102 90.5 -158.5t186.5 -56.5z" />
    <glyph glyph-name="f" unicode="f" horiz-adv-x="673" 
d="M551 700h-174v-624q0 -31 -22.5 -53.5t-53.5 -22.5h-84q-31 0 -53.5 22.5t-22.5 53.5v995q0 189 86 287t242 98q114 0 203 -47q39 -19 39 -66q0 -16 -11 -34l-18 -33q-28 -51 -84 -51q-11 0 -31 4q-27 6 -55 6q-63 0 -99 -45t-36 -137v-131h174q31 0 53.5 -22.5
t22.5 -53.5v-70q0 -31 -22.5 -53.5t-53.5 -22.5z" />
    <glyph glyph-name="g" unicode="g" horiz-adv-x="1038" 
d="M479 258q-12 -12 -12 -35q0 -29 18 -47q104 0 190.5 -18.5t153 -54.5t103.5 -94t37 -134q0 -100 -65 -169t-171 -100.5t-244 -31.5q-139 0 -244 30.5t-170 99.5t-65 171q0 111 80.5 183.5t218.5 101.5q-16 29 -16 63q0 40 20 66q-103 41 -161 124t-58 185q0 144 108 245
t285 101q136 0 236 -65l205 45q6 2 16 2q26 0 48 -17t28 -43l6 -32q2 -6 2 -19q0 -27 -15.5 -47.5t-41.5 -24.5l-115 -26q23 -61 23 -119q0 -143 -110.5 -241.5t-289.5 -98.5zM489 -12q-124 0 -192 -30.5t-68 -82.5q0 -54 69.5 -83.5t190.5 -29.5q122 0 190.5 29t68.5 84
q0 52 -67 82.5t-192 30.5zM487 754q-77 0 -124.5 -45.5t-47.5 -110.5q0 -66 47 -107.5t125 -41.5q76 0 124 40.5t48 108.5q0 67 -46 111.5t-126 44.5z" />
    <glyph glyph-name="h" unicode="h" horiz-adv-x="1118" 
d="M774 504q0 102 -54 157.5t-151 55.5q-118 0 -202 -84v-557q0 -31 -22.5 -53.5t-53.5 -22.5h-84q-31 0 -53.5 22.5t-22.5 53.5v1282q0 31 22.5 53.5t53.5 22.5h84q31 0 53.5 -22.5t22.5 -53.5v-520q46 44 116.5 72t147.5 28q178 0 278.5 -97.5t100.5 -305.5v-459
q0 -31 -22.5 -53.5t-53.5 -22.5h-84q-31 0 -53.5 22.5t-22.5 53.5v428z" />
    <glyph glyph-name="i" unicode="i" horiz-adv-x="567" 
d="M242 922h84q31 0 53 -22.5t22 -53.5v-770q0 -31 -22 -53.5t-53 -22.5h-84q-31 0 -53.5 22.5t-22.5 53.5v770q0 31 22.5 53.5t53.5 22.5zM289 1391q54 0 94.5 -38.5t40.5 -99.5q0 -67 -40.5 -107t-94.5 -40q-63 0 -105.5 39.5t-42.5 107.5q0 61 43 99.5t105 38.5z" />
    <glyph glyph-name="j" unicode="j" horiz-adv-x="598" 
d="M53 -205q10 -2 31 -2q111 0 111 160v893q0 31 22 53.5t53 22.5h84q31 0 53.5 -22.5t22.5 -53.5v-914q0 -358 -289 -358q-101 0 -190 39q-37 15 -37 53q0 19 4 27l23 61q10 27 23.5 37t35.5 10q8 0 27.5 -2.5t25.5 -3.5zM319 1391q54 0 95 -38.5t41 -99.5q0 -67 -41 -107
t-95 -40q-63 0 -105 39.5t-42 107.5q0 61 42.5 99.5t104.5 38.5z" />
    <glyph glyph-name="k" unicode="k" horiz-adv-x="1038" 
d="M698 49l-282 373q-21 28 -21 59q0 32 21 60l248 331q40 50 98 50h86q30 0 50 -21.5t20 -50.5q0 -25 -17 -45l-250 -305l295 -381q17 -24 17 -45q0 -30 -21 -52t-53 -22h-92q-63 0 -99 49zM207 1434h84q31 0 53.5 -22.5t22.5 -53.5v-1282q0 -31 -22.5 -53.5t-53.5 -22.5
h-84q-31 0 -53.5 22.5t-22.5 53.5v1282q0 31 22.5 53.5t53.5 22.5z" />
    <glyph glyph-name="l" unicode="l" horiz-adv-x="614" 
d="M131 254v1104q0 31 22.5 53.5t53.5 22.5h84q31 0 53.5 -22.5t22.5 -53.5v-1008q0 -149 79 -149q13 0 33 4q50 12 64 12q36 0 57 -41l23 -43q8 -13 8 -31q0 -41 -49 -71q-92 -51 -226 -51q-225 0 -225 274z" />
    <glyph glyph-name="m" unicode="m" horiz-adv-x="1638" 
d="M367 846v-27q50 56 126 87.5t162 31.5q102 0 172.5 -40.5t96.5 -106.5q113 147 311 147q295 0 295 -336v-526q0 -31 -22.5 -53.5t-53.5 -22.5h-84q-31 0 -53.5 22.5t-22.5 53.5v465q0 88 -37.5 132t-119.5 44q-64 0 -115 -29t-76 -78q0 -6 1 -31t1 -36v-467
q0 -31 -22.5 -53.5t-53.5 -22.5h-84q-31 0 -53 22.5t-22 53.5v481q0 73 -40 116.5t-114 43.5q-125 0 -192 -99v-542q0 -31 -22.5 -53.5t-53.5 -22.5h-84q-31 0 -53.5 22.5t-22.5 53.5v770q0 31 22.5 53.5t53.5 22.5h84q31 0 53.5 -22.5t22.5 -53.5z" />
    <glyph glyph-name="n" unicode="n" horiz-adv-x="1118" 
d="M774 500q0 108 -53.5 162.5t-153.5 54.5q-112 0 -200 -88v-553q0 -31 -22.5 -53.5t-53.5 -22.5h-84q-31 0 -53.5 22.5t-22.5 53.5v770q0 31 22.5 53.5t53.5 22.5h84q31 0 53.5 -24t22.5 -60q45 42 115.5 71t148.5 29q379 0 379 -397v-465q0 -31 -22.5 -53.5t-53.5 -22.5
h-84q-31 0 -53.5 22.5t-22.5 53.5v424z" />
    <glyph glyph-name="o" unicode="o" horiz-adv-x="1150" 
d="M575 -23q-225 0 -363 137t-138 347t138 346.5t363 136.5q226 0 364 -136.5t138 -346.5t-138.5 -347t-363.5 -137zM575 723q-107 0 -178 -72t-71 -190q0 -115 70.5 -189.5t178.5 -74.5q110 0 181 72.5t71 191.5q0 116 -71.5 189t-180.5 73z" />
    <glyph glyph-name="p" unicode="p" horiz-adv-x="1142" 
d="M1069 475q0 -214 -134.5 -356t-352.5 -142q-136 0 -215 46v-357q0 -31 -22.5 -53.5t-53.5 -22.5h-84q-31 0 -53.5 22.5t-22.5 53.5v1180q0 31 22.5 53.5t53.5 22.5h84q31 0 53.5 -23.5t22.5 -58.5q46 44 122.5 74t161.5 30q188 0 303 -131.5t115 -337.5zM367 623v-373
q81 -53 194 -53q120 0 189 76.5t69 195.5q0 113 -63.5 183.5t-177.5 70.5q-121 0 -211 -100z" />
    <glyph glyph-name="q" unicode="q" horiz-adv-x="1144" 
d="M602 944q188 0 359 -80q23 -10 39 -36.5t16 -51.5v-1110q0 -31 -22.5 -53.5t-53.5 -22.5h-84q-31 0 -53.5 22.5t-22.5 53.5v381q-109 -70 -227 -70q-220 0 -349.5 132t-129.5 352q0 204 149 343.5t379 139.5zM780 281v397q-92 45 -180 45q-129 0 -201.5 -78.5
t-72.5 -193.5q0 -111 70.5 -182.5t187.5 -71.5q55 0 108.5 23.5t87.5 60.5z" />
    <glyph glyph-name="r" unicode="r" horiz-adv-x="720" 
d="M553 713q-20 4 -39 4q-97 0 -147 -99v-542q0 -31 -22.5 -53.5t-53.5 -22.5h-84q-31 0 -53.5 22.5t-22.5 53.5v770q0 31 22.5 53.5t53.5 22.5h84q31 0 53.5 -23.5t22.5 -58.5q39 46 87 72t124 26q44 0 79 -14q43 -17 43 -60q0 -16 -6 -28l-30 -66q-26 -59 -84 -59
q-17 0 -27 2z" />
    <glyph glyph-name="s" unicode="s" horiz-adv-x="894" 
d="M92 199l31 39q20 26 49 26q30 0 61 -22q104 -68 228 -68q53 0 87 22.5t34 63.5q0 30 -27.5 51.5t-71.5 36t-97 28.5t-106 35.5t-97 51.5t-71.5 81.5t-27.5 119.5q0 131 95 205.5t243 74.5q172 0 307 -86q31 -21 31 -61q0 -23 -12 -41l-23 -33q-23 -33 -57 -33
q-18 0 -52 15q-82 43 -182 43q-52 0 -83.5 -24t-31.5 -56q0 -31 27.5 -53t71.5 -36t97 -28t106 -35t97 -49.5t71.5 -78.5t27.5 -116q0 -136 -101.5 -215.5t-271.5 -79.5q-199 0 -344 127q-22 19 -22 52q0 26 14 43z" />
    <glyph glyph-name="t" unicode="t" horiz-adv-x="724" 
d="M633 178l20 -37q11 -18 11 -35q0 -47 -35 -65q-104 -61 -232 -61q-152 0 -219 93t-67 277v752q0 31 22 53.5t53 22.5h84q31 0 53.5 -22.5t22.5 -53.5v-180h221q31 0 53.5 -22.5t22.5 -53.5v-70q0 -31 -22.5 -53.5t-53.5 -22.5h-221v-335q0 -166 111 -166q35 0 65 10
t47 10q41 0 64 -41z" />
    <glyph glyph-name="u" unicode="u" horiz-adv-x="1095" 
d="M346 408q0 -211 176 -211q58 0 112.5 29.5t94.5 82.5v537q0 31 22.5 53.5t53.5 22.5h84q31 0 53.5 -22.5t22.5 -53.5v-770q0 -31 -22.5 -53.5t-53.5 -22.5h-84q-31 0 -53.5 22.5t-22.5 53.5v37q-47 -59 -121.5 -97.5t-173.5 -38.5q-143 0 -233 96t-90 285v488
q0 31 22 53.5t53 22.5h84q31 0 53.5 -22.5t22.5 -53.5v-438z" />
    <glyph glyph-name="v" unicode="v" horiz-adv-x="972" 
d="M293 864l145 -338q46 -101 70 -209q27 119 67 213l136 334q10 26 34 42t52 16h53q38 0 63 -26t25 -62q0 -11 -8 -35l-320 -746q-10 -26 -34 -41.5t-52 -15.5h-51q-28 0 -52 15.5t-36 41.5l-342 746q-8 16 -8 37q0 34 25 60t61 26h86q28 0 52 -16t34 -42z" />
    <glyph glyph-name="w" unicode="w" horiz-adv-x="1460" 
d="M1022 422q17 -50 35 -127q8 43 28 133l115 420q9 32 35.5 53t60.5 21h29q40 0 68 -29t28 -68q0 -20 -4 -30l-227 -727q-9 -32 -36.5 -52t-61.5 -20h-60q-34 0 -62 19.5t-40 50.5l-170 442q-6 16 -11.5 34t-11 40.5t-8.5 33.5q-10 -51 -33 -112l-168 -438
q-12 -31 -40 -50.5t-62 -19.5h-49q-34 0 -61.5 20t-36.5 52l-236 727q-4 10 -4 30q0 39 28 68t68 29h43q33 0 60 -20.5t36 -51.5l127 -430q10 -33 27 -123q22 87 35 123l147 430q10 32 38.5 52t62.5 20h57q34 0 62 -20t38 -52z" />
    <glyph glyph-name="x" unicode="x" horiz-adv-x="1032" 
d="M186 922h78q61 0 94 -54l162 -252l166 254q15 23 41.5 37.5t54.5 14.5h62q34 0 56 -23t22 -55q0 -24 -15 -45l-221 -318l244 -356q14 -20 14 -45q0 -32 -23 -56t-57 -24h-76q-28 0 -54.5 14.5t-41.5 38.5l-180 279l-188 -281q-15 -23 -42 -37t-55 -14h-61q-34 0 -56 23
t-22 55q0 25 14 45l242 346l-223 328q-15 21 -15 45q0 32 23 56t57 24z" />
    <glyph glyph-name="y" unicode="y" horiz-adv-x="1013" 
d="M498 418q16 -41 45 -133q17 90 32 135l142 430q10 32 38 52t62 20h60q37 0 63.5 -27.5t26.5 -63.5q0 -16 -6 -34l-314 -797q-66 -169 -123.5 -259.5t-109 -120.5t-123.5 -30q-80 0 -156 39q-37 18 -37 60q0 14 6 26l27 56q12 26 25 35.5t34 9.5t48 -6q12 -3 26 -3
q84 0 142 144l20 49l-371 801q-8 20 -8 35q0 34 25 60t61 26h88q28 0 52 -16t34 -42z" />
    <glyph glyph-name="z" unicode="z" horiz-adv-x="1001" 
d="M86 76v33q0 63 43 106l457 485h-393q-31 0 -53.5 22.5t-22.5 53.5v70q0 31 22.5 53.5t53.5 22.5h647q31 0 53 -22.5t22 -53.5v-33q0 -63 -43 -106l-456 -488h413q31 0 53.5 -22.5t22.5 -53.5v-67q0 -31 -22.5 -53.5t-53.5 -22.5h-667q-31 0 -53.5 22.5t-22.5 53.5z" />
    <glyph glyph-name="braceleft" unicode="{" horiz-adv-x="741" 
d="M700 -266v-68q0 -31 -22 -53.5t-53 -22.5h-93q-153 0 -230 70t-77 229v269q0 151 -110 188q-42 15 -58 39.5t-16 73.5q0 52 15.5 76t58.5 43q110 48 110 210v230q0 162 73.5 237.5t248.5 75.5h78q31 0 53 -22.5t22 -53.5v-69q0 -31 -24 -53.5t-60 -22.5
q-90 0 -122.5 -36.5t-32.5 -137.5v-240q0 -99 -42 -161.5t-112 -71.5q70 -8 112 -65t42 -169v-243q0 -95 37 -135.5t125 -40.5q32 0 54.5 -22.5t22.5 -53.5z" />
    <glyph glyph-name="bar" unicode="|" horiz-adv-x="694" 
d="M305 1434h84q31 0 53.5 -22.5t22.5 -53.5v-1282q0 -31 -22.5 -53.5t-53.5 -22.5h-84q-31 0 -53.5 22.5t-22.5 53.5v1282q0 31 22.5 53.5t53.5 22.5z" />
    <glyph glyph-name="braceright" unicode="}" horiz-adv-x="741" 
d="M516 1018v-230q0 -161 111 -210q43 -19 58 -43t15 -76q0 -49 -16 -73.5t-57 -39.5q-111 -38 -111 -188v-269q0 -159 -76.5 -229t-228.5 -70h-94q-31 0 -53.5 22.5t-22.5 53.5v68q0 31 23 53.5t55 22.5q88 0 125 40.5t37 135.5v243q0 112 41.5 169t111.5 65
q-70 9 -111.5 71.5t-41.5 161.5v240q0 101 -33 137.5t-123 36.5q-36 0 -60 22.5t-24 53.5v69q0 31 22.5 53.5t53.5 22.5h78q176 0 248.5 -75.5t72.5 -237.5z" />
    <glyph glyph-name="asciitilde" unicode="~" 
d="M1124 676q-123 -115 -264 -115q-55 0 -121 22t-117.5 48.5t-113.5 48.5t-109 22q-75 0 -149 -53q-45 -33 -86 -33q-36 0 -64 25q-26 23 -26 64q0 34 22 59q64 71 141.5 106t147.5 35q56 0 123 -22t118.5 -48.5t117 -48.5t118.5 -22q63 0 121 39q53 33 82 33q34 0 61 -31
q25 -28 25 -64q0 -38 -27 -65z" />
    <glyph glyph-name="uni00A0" unicode="&#xa0;" horiz-adv-x="434" 
 />
    <glyph glyph-name="exclamdown" unicode="&#xa1;" horiz-adv-x="632" 
d="M193 -424v786q0 31 22 53.5t53 22.5h99q31 0 53 -22.5t22 -53.5v-786q0 -31 -22 -53.5t-53 -22.5h-99q-31 0 -53 22.5t-22 53.5zM475 780q0 -58 -45.5 -104.5t-118.5 -46.5q-63 0 -106 47t-43 104q0 65 42.5 114.5t106.5 49.5q73 0 118.5 -49t45.5 -115z" />
    <glyph glyph-name="cent" unicode="&#xa2;" horiz-adv-x="1189" 
d="M1008 86q-103 -83 -234 -100v-156q0 -31 -22.5 -53.5t-53.5 -22.5h-84q-31 0 -53 22.5t-22 53.5v164q-167 37 -264 161t-97 306q0 172 99.5 302t261.5 167v149q0 31 22 53.5t53 22.5h84q31 0 53.5 -22.5t22.5 -53.5l-2 -143q94 -14 186 -62q17 -9 27 -27.5t10 -39.5
q0 -20 -8 -33l-31 -53q-25 -43 -69 -43q-21 0 -37 8q-75 37 -164 37q-103 0 -179.5 -72.5t-76.5 -189.5q0 -119 78.5 -191.5t187.5 -72.5q98 0 178 53q26 16 50 16q39 0 63 -30l35 -43q14 -14 14 -41q0 -44 -28 -66z" />
    <glyph glyph-name="sterling" unicode="&#xa3;" horiz-adv-x="1216" 
d="M88 190q62 62 166 109q95 124 98 244h-137q-31 0 -53.5 22t-22.5 53v37q0 31 22.5 53.5t53.5 22.5h88q-7 15 -34 68.5t-38.5 80t-23.5 76.5t-12 99q0 169 129.5 282t332.5 113q211 0 347 -111q32 -25 32 -69q0 -21 -12 -39l-47 -62q-22 -32 -62 -32q-23 0 -45 14
q-89 63 -202 63q-91 0 -149 -51t-58 -127q0 -55 20 -104t51.5 -104.5t45.5 -96.5h231q31 0 53.5 -22.5t22.5 -53.5v-37q0 -31 -22.5 -53t-53.5 -22h-211q-14 -107 -113 -221q46 -9 178.5 -54t204.5 -45q75 0 156 49q27 17 49 17q40 0 64 -35l41 -55q14 -17 14 -47
q0 -40 -27 -58q-137 -106 -301 -106q-79 0 -233.5 53t-233.5 53q-78 0 -157 -63q-24 -21 -54 -21q-33 0 -57 27l-49 53q-17 17 -17 43q0 32 25 57z" />
    <glyph glyph-name="currency" unicode="&#xa4;" horiz-adv-x="1189" 
d="M104 356l91 90q-70 113 -70 254q0 143 72 256l-86 91q-29 32 -29 71q0 43 29 72t71 29q46 0 72 -29l88 -90q111 65 254 65q141 0 252 -65l94 92q29 29 72 29q45 0 71 -29q29 -26 29 -72q0 -42 -29 -71l-90 -91q74 -120 74 -258q0 -141 -72 -254l86 -84q29 -26 29 -71
q0 -43 -29 -72q-31 -31 -73 -31q-43 0 -72 29l-86 86q-109 -67 -256 -67t-256 67l-90 -92q-29 -29 -70 -29q-43 0 -74 31q-30 30 -30 74q0 41 28 69zM596 440q119 0 185.5 74.5t66.5 185.5q0 117 -67.5 189t-184.5 72q-115 0 -183.5 -72.5t-68.5 -188.5q0 -110 68.5 -185
t183.5 -75z" />
    <glyph glyph-name="yen" unicode="&#xa5;" horiz-adv-x="1196" 
d="M199 430h272v168h-272q-31 0 -53.5 22.5t-22.5 53.5v39q0 31 22.5 53t53.5 22h166l-297 543q-9 15 -9 33q0 28 20 49t50 21h107q28 0 53 -15.5t37 -40.5l280 -544l279 544q12 25 37 40.5t53 15.5h92q30 0 50 -21t20 -49q0 -18 -9 -33l-303 -543h172q31 0 53.5 -22
t22.5 -53v-39q0 -31 -22.5 -53.5t-53.5 -22.5h-276v-168h276q31 0 53.5 -22.5t22.5 -53.5v-39q0 -31 -22.5 -53t-53.5 -22h-276v-164q0 -31 -22.5 -53.5t-53.5 -22.5h-98q-31 0 -53.5 22.5t-22.5 53.5v164h-272q-31 0 -53.5 22t-22.5 53v39q0 31 22.5 53.5t53.5 22.5z" />
    <glyph glyph-name="brokenbar" unicode="&#xa6;" horiz-adv-x="694" 
d="M305 1434h84q31 0 53.5 -22.5t22.5 -53.5v-381q0 -31 -22.5 -53.5t-53.5 -22.5h-84q-31 0 -53.5 22.5t-22.5 53.5v381q0 31 22.5 53.5t53.5 22.5zM389 0h-84q-31 0 -53.5 22.5t-22.5 53.5v381q0 31 22.5 53t53.5 22h84q31 0 53.5 -22t22.5 -53v-381q0 -31 -22.5 -53.5
t-53.5 -22.5z" />
    <glyph glyph-name="section" unicode="&#xa7;" horiz-adv-x="1071" 
d="M336 -137q27 0 63 -25q42 -28 90 -28q51 0 87 35t36 85q0 67 -36.5 114.5t-108.5 88.5q-166 20 -258 124t-92 253q0 124 65.5 218.5t184.5 135.5q-67 42 -107.5 114t-40.5 163q0 124 93 208.5t257 84.5q151 0 260 -109q21 -21 21 -47q0 -29 -23 -55l-32 -37
q-24 -27 -54 -27q-27 0 -69 27q-44 26 -94 26t-86.5 -34.5t-36.5 -83.5q0 -122 147 -207q167 -20 259.5 -123t92.5 -254q0 -124 -64 -219t-183 -135q64 -43 102.5 -113.5t38.5 -159.5q0 -125 -92.5 -209t-257.5 -84q-153 0 -258 105q-21 18 -21 47q0 32 23 55l39 41
q25 25 55 25zM537 686q-85 0 -135 -53t-50 -123q0 -69 50 -122.5t135 -53.5q89 0 135.5 52t46.5 124q0 70 -48.5 123t-133.5 53z" />
    <glyph glyph-name="dieresis" unicode="&#xa8;" horiz-adv-x="907" 
d="M256 1090q-56 0 -94.5 36.5t-38.5 100.5q0 60 38.5 95.5t94.5 35.5q49 0 86 -36t37 -95q0 -63 -37 -100t-86 -37zM662 1090q-55 0 -93.5 37t-38.5 100q0 59 38.5 95t93.5 36q50 0 86 -36t36 -95q0 -63 -36 -100t-86 -37z" />
    <glyph glyph-name="copyright" unicode="&#xa9;" horiz-adv-x="2082" 
d="M1042 -442q-249 0 -454.5 118.5t-323 323.5t-117.5 453q0 185 69 350t188 284.5t285.5 189t352.5 69.5t352 -69.5t284.5 -189t187.5 -284.5t69 -350q0 -248 -117 -453t-322 -323.5t-454 -118.5zM1044 1141q-147 0 -276 -54.5t-220 -147.5t-143.5 -220t-52.5 -268
q0 -187 89 -344.5t248.5 -251t354.5 -93.5q193 0 351.5 93.5t247 251t88.5 344.5q0 141 -52.5 268t-142.5 220t-218.5 147.5t-273.5 54.5zM1386 86q-79 -62 -154 -85.5t-169 -23.5q-229 0 -367.5 133t-138.5 351q0 133 60 243.5t170 175t247 64.5q174 0 303 -70
q17 -9 27 -27.5t10 -39.5q0 -20 -8 -33l-31 -53q-25 -43 -69 -43q-18 0 -37 8q-75 37 -164 37q-103 0 -179.5 -72.5t-76.5 -189.5q0 -119 78.5 -191.5t187.5 -72.5q98 0 178 53q26 16 50 16q39 0 63 -30l35 -43q14 -14 14 -41q0 -43 -29 -66z" />
    <glyph glyph-name="ordfeminine" unicode="&#xaa;" horiz-adv-x="911" 
d="M356 1079q130 0 217 -43q-8 138 -149 138q-64 0 -123 -17q-18 -6 -33 -6q-50 0 -71 53q-7 18 -7 31q0 48 46 65q117 48 239 48q58 0 111 -17t96.5 -50t69.5 -87.5t26 -124.5v-364q0 -31 -22.5 -53.5t-53.5 -22.5h-53q-31 0 -53.5 23.5t-22.5 58.5q-49 -46 -104 -69.5
t-150 -23.5q-101 0 -164 65t-63 159q0 116 69 176.5t195 60.5zM573 907q-78 29 -145 29q-57 0 -87 -20t-30 -52t28.5 -51.5t84.5 -19.5q73 0 149 51v63z" />
    <glyph glyph-name="guillemotleft" unicode="&#xab;" horiz-adv-x="1120" 
d="M778 512l234 -276q18 -21 18 -50q0 -34 -26 -57l-46 -35q-21 -18 -49 -18q-34 0 -57 26l-297 353q-20 23 -20 57t20 57l305 353q21 24 55 24q29 0 50 -18l43 -35q24 -21 24 -57q0 -31 -18 -52zM332 512l233 -276q19 -22 19 -50q0 -33 -27 -57l-45 -35q-21 -18 -49 -18
q-34 0 -57 26l-297 353q-21 24 -21 57t21 57l305 353q21 24 55 24q28 0 49 -18l43 -35q25 -22 25 -57q0 -30 -19 -52z" />
    <glyph glyph-name="logicalnot" unicode="&#xac;" 
d="M911 442v193h-731q-31 0 -53.5 22.5t-22.5 53.5v53q0 31 22.5 53.5t53.5 22.5h860q31 0 53.5 -22.5t22.5 -53.5v-322q0 -31 -22.5 -53t-53.5 -22h-53q-31 0 -53.5 22t-22.5 53z" />
    <glyph glyph-name="uni00AD" unicode="&#xad;" horiz-adv-x="770" 
d="M643 594v-68q0 -31 -22.5 -53t-53.5 -22h-364q-31 0 -53.5 22t-22.5 53v68q0 31 22.5 53.5t53.5 22.5h364q31 0 53.5 -22.5t22.5 -53.5z" />
    <glyph glyph-name="registered" unicode="&#xae;" horiz-adv-x="1357" 
d="M666 918h-56v-105q0 -31 -23 -53.5t-55 -22.5q-33 0 -56 22.5t-23 53.5v422q0 31 22 53.5t53 22.5h164q118 0 176 -51t58 -140q0 -59 -32 -104.5t-77 -61.5l70 -92q18 -23 18 -53t-22.5 -51t-55.5 -21q-46 0 -79 54zM610 1030h60q45 0 70.5 25.5t25.5 62.5q0 80 -96 80
h-60v-168zM678 426q-161 0 -296 79.5t-212.5 214.5t-77.5 294q0 160 77 295t212 214t297 79q164 0 299 -79t211 -214t76 -295q0 -159 -77 -294t-212 -214.5t-297 -79.5zM678 614q166 0 281.5 117.5t115.5 282.5t-114.5 282t-282.5 117q-169 0 -283 -116.5t-114 -282.5
q0 -165 115.5 -282.5t281.5 -117.5z" />
    <glyph glyph-name="macron" unicode="&#xaf;" horiz-adv-x="817" 
d="M694 1239v-37q0 -31 -22.5 -53.5t-53.5 -22.5h-419q-31 0 -53.5 22.5t-22.5 53.5v37q0 31 22.5 53.5t53.5 22.5h419q31 0 53.5 -22.5t22.5 -53.5z" />
    <glyph glyph-name="degree" unicode="&#xb0;" horiz-adv-x="870" 
d="M432 823q-141 0 -240.5 98t-99.5 242q0 148 99.5 247t240.5 99q145 0 245.5 -94t100.5 -239q0 -146 -101.5 -249.5t-244.5 -103.5zM434 1305q-56 0 -96.5 -40.5t-40.5 -97.5t40.5 -98t96.5 -41q57 0 98 41t41 98t-41 97.5t-98 40.5z" />
    <glyph glyph-name="plusminus" unicode="&#xb1;" 
d="M643 612h-70q-31 0 -53 22.5t-22 53.5v135h-287q-31 0 -53.5 22.5t-22.5 53.5v53q0 31 22.5 53.5t53.5 22.5h287v295q0 31 22 53.5t53 22.5h70q31 0 53.5 -22.5t22.5 -53.5v-295h291q31 0 53 -22.5t22 -53.5v-53q0 -31 -22 -53.5t-53 -22.5h-291v-135q0 -31 -22.5 -53.5
t-53.5 -22.5zM211 522h799q31 0 53 -22.5t22 -53.5v-53q0 -31 -22 -53.5t-53 -22.5h-799q-31 0 -53.5 22.5t-22.5 53.5v53q0 31 22.5 53.5t53.5 22.5z" />
    <glyph glyph-name="twosuperior" unicode="&#xb2;" horiz-adv-x="724" 
d="M678 825v-43q0 -28 -19 -46.5t-47 -18.5h-499q-28 0 -47 20.5t-19 53.5q0 35 16 58.5t50 47.5q28 19 71 48.5t67 46.5t56.5 41t50.5 40.5t35.5 37t25 39.5t7.5 38q0 37 -24 58.5t-64 21.5q-51 0 -80 -37q-2 -3 -10 -12t-10.5 -11.5t-9 -9.5t-10 -9.5t-9 -7t-10 -6t-10 -3
t-11.5 -1.5q-11 0 -37 11l-32 16q-43 22 -43 57q0 15 10 35q40 78 107.5 115t174.5 37q137 0 212 -62.5t75 -165.5q0 -187 -326 -323h293q28 0 47 -19t19 -47z" />
    <glyph glyph-name="threesuperior" unicode="&#xb3;" horiz-adv-x="729" 
d="M633 1264q0 -65 -42.5 -109t-115.5 -59q87 -7 134.5 -55t47.5 -117q0 -99 -90.5 -159t-218.5 -60q-173 0 -278 102q-21 21 -21 47q0 24 19 43l24 25q20 20 45 20t53 -22q60 -50 123 -50q62 0 93.5 20t31.5 52q0 29 -29.5 47.5t-91.5 18.5q-26 0 -43.5 17t-17.5 42v29
q0 23 16 39t41 16q45 0 72 19.5t27 50.5q0 27 -24.5 43t-68.5 16q-67 0 -126 -43q-25 -14 -46 -14q-35 0 -57 28q-18 21 -18 49q0 36 28 58q115 88 260 88q121 0 197 -49.5t76 -132.5z" />
    <glyph glyph-name="acute" unicode="&#xb4;" horiz-adv-x="645" 
d="M168 1229l125 194q21 35 65 35q28 0 48 -14l49 -37q30 -21 30 -64q0 -30 -18 -51l-148 -170q-27 -30 -69 -30q-29 0 -55 16q-39 26 -39 76q0 24 12 45z" />
    <glyph glyph-name="mu" unicode="&#xb5;" horiz-adv-x="1103" 
d="M360 389q7 -192 177 -192q58 0 112 29.5t94 82.5v537q0 31 22.5 53.5t53.5 22.5h84q31 0 53.5 -22.5t22.5 -53.5v-770q0 -31 -22.5 -53.5t-53.5 -22.5h-84q-31 0 -53.5 22.5t-22.5 53.5v37q-110 -136 -294 -136q-39 0 -89 11v-322q0 -31 -22 -53.5t-53 -22.5h-84
q-31 0 -53.5 22.5t-22.5 53.5v1180q0 31 22.5 53.5t53.5 22.5h84q31 0 53 -22.5t22 -53.5v-457z" />
    <glyph glyph-name="mu" unicode="&#x3bc;" horiz-adv-x="1103" 
d="M360 389q7 -192 177 -192q58 0 112 29.5t94 82.5v537q0 31 22.5 53.5t53.5 22.5h84q31 0 53.5 -22.5t22.5 -53.5v-770q0 -31 -22.5 -53.5t-53.5 -22.5h-84q-31 0 -53.5 22.5t-22.5 53.5v37q-110 -136 -294 -136q-39 0 -89 11v-322q0 -31 -22 -53.5t-53 -22.5h-84
q-31 0 -53.5 22.5t-22.5 53.5v1180q0 31 22.5 53.5t53.5 22.5h84q31 0 53 -22.5t22 -53.5v-457z" />
    <glyph glyph-name="paragraph" unicode="&#xb6;" horiz-adv-x="1005" 
d="M270 -190q49 -17 92 -17q91 0 127.5 62t36.5 170v514q-88 1 -168.5 31.5t-143.5 86t-100.5 141t-37.5 187.5q0 205 127.5 327t326.5 122h349q31 0 53 -22.5t22 -53.5v-70q0 -31 -22 -53.5t-53 -22.5h-117v-1196q0 -219 -97 -330.5t-286 -111.5q-109 0 -215 59
q-33 20 -33 56q0 19 8 35l29 55q23 41 57 41q15 0 45 -10z" />
    <glyph glyph-name="periodcentered" unicode="&#xb7;" horiz-adv-x="434" 
d="M223 770q63 0 106.5 -47.5t43.5 -104.5q0 -65 -43 -114t-107 -49q-74 0 -119 48.5t-45 114.5q0 58 45.5 105t118.5 47z" />
    <glyph glyph-name="cedilla" unicode="&#xb8;" horiz-adv-x="774" 
d="M438 -70q104 -7 158.5 -52.5t54.5 -123.5q0 -81 -73.5 -130.5t-208.5 -49.5q-111 0 -193 49q-31 21 -31 60q0 14 7 28q18 35 59 35q21 0 37 -8q51 -21 88 -21q35 0 57.5 14t22.5 38q0 36 -31 47q-38 15 -52 36t-14 62v127h119v-111z" />
    <glyph glyph-name="onesuperior" unicode="&#xb9;" horiz-adv-x="542" 
d="M199 1200l-35 -20q-20 -13 -41 -13q-44 0 -70 39q-12 18 -12 41q0 42 33 62l119 82q39 28 63.5 34.5t73.5 6.5q73 0 73 -76v-563q0 -31 -22 -53.5t-53 -22.5h-54q-31 0 -53 22.5t-22 53.5v407z" />
    <glyph glyph-name="ordmasculine" unicode="&#xba;" horiz-adv-x="1019" 
d="M510 616q-176 0 -290 102t-114 265q0 164 113.5 264.5t290.5 100.5t290 -100.5t113 -264.5q0 -163 -113.5 -265t-289.5 -102zM510 1157q-78 0 -130 -48t-52 -126q0 -80 52.5 -128t129.5 -48q81 0 132.5 48t51.5 128q0 78 -52.5 126t-131.5 48z" />
    <glyph glyph-name="guillemotright" unicode="&#xbb;" horiz-adv-x="1120" 
d="M559 893l43 35q15 18 47 18q37 0 58 -24l305 -353q22 -25 22 -59t-22 -59l-297 -349q-23 -26 -58 -26q-28 0 -49 18l-45 35q-26 23 -26 57q0 29 18 50l233 276l-235 272q-18 21 -18 52q0 36 24 57zM111 893l43 35q15 18 47 18q36 0 57 -24l305 -353q23 -26 23 -59
t-23 -59l-297 -349q-23 -26 -57 -26q-28 0 -49 18l-45 35q-27 24 -27 57q0 29 18 50l234 276l-236 272q-18 21 -18 52q0 35 25 57z" />
    <glyph glyph-name="onequarter" unicode="&#xbc;" horiz-adv-x="1441" 
d="M209 1200l-35 -20q-20 -13 -41 -13q-44 0 -70 39q-12 18 -12 41q0 42 33 62l119 82q39 28 63.5 34.5t73.5 6.5q74 0 74 -76v-563q0 -31 -22.5 -53.5t-53.5 -22.5h-53q-31 0 -53.5 22.5t-22.5 53.5v407zM1206 1296l-942 -1259q-24 -31 -63 -31q-26 0 -43 14l-13 9
q-30 21 -30 59q0 26 14 43l944 1266q22 28 57 28q29 0 56 -18q35 -27 35 -68q0 -25 -15 -43zM1255 143v-77q0 -28 -18.5 -47t-46.5 -19h-57q-28 0 -47 19t-19 47v77h-350q-28 0 -47 20t-19 50q0 7 1.5 14t2.5 12.5t5.5 13.5t7 12.5t9.5 15t10.5 15.5t13.5 18.5t14 19.5
l235 330q40 53 90 53q33 0 52.5 -18.5t19.5 -47.5q0 -31 -25 -67l-202 -281h182v92q0 28 19 47t47 19h57q28 0 46.5 -19t18.5 -47v-92h50q28 0 46.5 -18.5t18.5 -46.5v-29q0 -28 -18.5 -47t-46.5 -19h-50z" />
    <glyph glyph-name="onehalf" unicode="&#xbd;" horiz-adv-x="1394" 
d="M209 1200l-35 -20q-20 -13 -41 -13q-44 0 -70 39q-12 18 -12 41q0 42 33 62l119 82q39 28 63.5 34.5t73.5 6.5q74 0 74 -76v-563q0 -31 -22.5 -53.5t-53.5 -22.5h-53q-31 0 -53.5 22.5t-22.5 53.5v407zM1178 1296l-942 -1259q-24 -31 -64 -31q-26 0 -43 14l-12 9
q-31 22 -31 59q0 26 14 43l944 1266q22 28 58 28q28 0 55 -18q35 -27 35 -68q0 -26 -14 -43zM1348 109v-43q0 -28 -19 -47t-47 -19h-500q-28 0 -46.5 20.5t-18.5 53.5q0 35 16 58.5t49 47.5q28 20 71 49t67.5 46t56.5 41t50 40.5t36 37t25.5 39.5t7.5 38q0 37 -24 58.5
t-64 21.5q-51 0 -80 -37q-2 -2 -8.5 -9.5t-8 -9.5t-7.5 -8l-8 -8t-7 -6.5t-8 -6t-7.5 -4.5t-8 -4t-8 -2t-9.5 -1q-14 0 -37 10l-33 16q-43 21 -43 58q0 14 10 34q40 78 108 115t175 37q137 0 212 -62t75 -165q0 -188 -326 -324h293q28 0 47 -18.5t19 -46.5z" />
    <glyph glyph-name="threequarters" unicode="&#xbe;" horiz-adv-x="1562" 
d="M1358 1296l-942 -1259q-24 -31 -64 -31q-26 0 -43 14l-12 9q-31 22 -31 59q0 25 15 43l944 1266q22 28 57 28q28 0 55 -18q35 -27 35 -68q0 -26 -14 -43zM1376 143v-77q0 -28 -18.5 -47t-46.5 -19h-58q-28 0 -46.5 19t-18.5 47v77h-350q-28 0 -47 20t-19 50q0 7 1.5 14
t2.5 12.5t5.5 13.5t7 12.5t9.5 15t10.5 15.5t13.5 18.5t14 19.5l235 330q40 53 90 53q33 0 52.5 -18.5t19.5 -47.5q0 -31 -25 -67l-202 -281h182v92q0 28 18.5 47t46.5 19h58q28 0 46.5 -19t18.5 -47v-92h49q28 0 47 -18.5t19 -46.5v-29q0 -28 -19 -47t-47 -19h-49z
M637 1264q0 -65 -42.5 -109t-115.5 -59q88 -7 135.5 -55t47.5 -117q0 -99 -91 -159t-219 -60q-173 0 -278 102q-21 21 -21 47q0 24 19 43l24 25q20 20 45 20q26 0 54 -22q60 -50 122 -50t93.5 20t31.5 52q0 29 -29 47.5t-91 18.5q-26 0 -44 17t-18 42v29q0 23 16 39t41 16
q45 0 72 19.5t27 50.5q0 27 -24.5 43t-67.5 16q-68 0 -127 -43q-24 -14 -45 -14q-36 0 -58 28q-18 21 -18 49q0 36 28 58q115 88 261 88q120 0 196 -49.5t76 -132.5z" />
    <glyph glyph-name="questiondown" unicode="&#xbf;" horiz-adv-x="952" 
d="M518 487h80q27 0 45.5 -19t18.5 -52q0 -57 -19 -104.5t-49 -80.5t-67 -62t-73.5 -57t-66.5 -58t-49 -72t-19 -93q0 -73 55.5 -124.5t137.5 -51.5q122 0 201 76q24 21 49 21q30 0 57 -27l47 -47q19 -19 19 -43q0 -31 -29 -64q-65 -69 -156.5 -110t-201.5 -41
q-198 0 -314 103.5t-116 256.5q0 73 18 134.5t48 104.5t66.5 79t75 66t71.5 58t58 61.5t33 70.5q8 42 24.5 58.5t55.5 16.5zM698 780q0 -58 -45 -104.5t-116 -46.5q-65 0 -108.5 47t-43.5 104q0 65 43.5 114.5t108.5 49.5q72 0 116.5 -49t44.5 -115z" />
    <glyph glyph-name="Agrave" unicode="&#xc0;" horiz-adv-x="1445" 
d="M1022 367h-612l-127 -310q-9 -26 -32.5 -41.5t-51.5 -15.5h-74q-35 0 -57.5 23.5t-22.5 56.5q0 14 6 29l537 1271q10 26 34 42t52 16h98q28 0 52 -16t34 -42l537 -1271q6 -15 6 -29q0 -33 -22.5 -56.5t-57.5 -23.5h-88q-28 0 -51.5 15.5t-32.5 41.5zM717 1112l-211 -510
h420zM528 1829l299 -154q45 -22 45 -73q0 -13 -8 -33q-10 -23 -31.5 -36t-46.5 -13q-18 0 -28 4l-314 112q-23 7 -36 26.5t-13 43.5q0 17 6 29l27 59q9 20 27 31.5t39 11.5t34 -8z" />
    <glyph glyph-name="Aacute" unicode="&#xc1;" horiz-adv-x="1445" 
d="M1022 367h-612l-127 -310q-9 -26 -32.5 -41.5t-51.5 -15.5h-74q-35 0 -57.5 23.5t-22.5 56.5q0 14 6 29l537 1271q10 26 34 42t52 16h98q28 0 52 -16t34 -42l537 -1271q6 -15 6 -29q0 -33 -22.5 -56.5t-57.5 -23.5h-88q-28 0 -51.5 15.5t-32.5 41.5zM717 1112l-211 -510
h420zM616 1673l304 158q13 8 32 8q21 0 39 -11.5t27 -31.5l26 -63q7 -14 7 -29q0 -22 -13 -40.5t-34 -25.5l-318 -116q-8 -4 -27 -4q-55 0 -77 51q-9 15 -9 35q0 22 11.5 41t31.5 28z" />
    <glyph glyph-name="Acircumflex" unicode="&#xc2;" horiz-adv-x="1445" 
d="M1022 367h-612l-127 -310q-9 -26 -32.5 -41.5t-51.5 -15.5h-74q-35 0 -57.5 23.5t-22.5 56.5q0 14 6 29l537 1271q10 26 34 42t52 16h98q28 0 52 -16t34 -42l537 -1271q6 -15 6 -29q0 -33 -22.5 -56.5t-57.5 -23.5h-88q-28 0 -51.5 15.5t-32.5 41.5zM717 1112l-211 -510
h420zM719 1636l-209 -108q-15 -10 -41 -10q-47 0 -70 36q-12 18 -12 43q0 44 35 68l231 143q30 21 68 21q33 0 65 -19l236 -145q35 -21 35 -66q0 -24 -15 -45q-26 -36 -71 -36q-26 0 -43 10z" />
    <glyph glyph-name="Atilde" unicode="&#xc3;" horiz-adv-x="1445" 
d="M1022 367h-612l-127 -310q-9 -26 -32.5 -41.5t-51.5 -15.5h-74q-35 0 -57.5 23.5t-22.5 56.5q0 14 6 29l537 1271q10 26 34 42t52 16h98q28 0 52 -16t34 -42l537 -1271q6 -15 6 -29q0 -33 -22.5 -56.5t-57.5 -23.5h-88q-28 0 -51.5 15.5t-32.5 41.5zM717 1112l-211 -510
h420zM1081 1632q-117 -106 -223 -106q-51 0 -142.5 45t-146.5 45q-35 0 -96 -37q-26 -16 -51 -16q-37 0 -64 34q-16 19 -16 48q0 40 29 63q115 94 211 94q52 0 101.5 -23t97 -46t93.5 -23q38 0 97 39q33 23 65 23q35 0 58 -29q18 -22 18 -49q0 -35 -31 -62z" />
    <glyph glyph-name="Adieresis" unicode="&#xc4;" horiz-adv-x="1445" 
d="M1022 367h-612l-127 -310q-9 -26 -32.5 -41.5t-51.5 -15.5h-74q-35 0 -57.5 23.5t-22.5 56.5q0 14 6 29l537 1271q10 26 34 42t52 16h98q28 0 52 -16t34 -42l537 -1271q6 -15 6 -29q0 -33 -22.5 -56.5t-57.5 -23.5h-88q-28 0 -51.5 15.5t-32.5 41.5zM717 1112l-211 -510
h420zM492 1817q59 0 102 -35t43 -92q0 -63 -43 -99.5t-102 -36.5q-68 0 -113 36t-45 100q0 58 45.5 92.5t112.5 34.5zM967 1817q60 0 102.5 -34.5t42.5 -92.5q0 -63 -42.5 -99.5t-102.5 -36.5q-67 0 -112.5 36t-45.5 100q0 58 45.5 92.5t112.5 34.5z" />
    <glyph glyph-name="Aring" unicode="&#xc5;" horiz-adv-x="1445" 
d="M199 0h-74q-35 0 -57.5 23.5t-22.5 56.5q0 14 6 29l557 1318q-80 23 -127 76t-47 135q0 110 79.5 166t205.5 56q129 0 211 -56t82 -166q0 -80 -47 -134t-127 -77l557 -1318q6 -15 6 -29q0 -33 -22.5 -56.5t-57.5 -23.5h-88q-28 0 -51.5 15.5t-32.5 41.5l-127 310h-612
l-127 -310q-9 -26 -32.5 -41.5t-51.5 -15.5zM717 1112l-211 -510h420zM608 1638q0 -47 31.5 -71.5t81.5 -24.5q52 0 84.5 24.5t32.5 71.5t-32 70t-85 23q-51 0 -82 -23t-31 -70z" />
    <glyph glyph-name="AE" unicode="&#xc6;" horiz-adv-x="1945" 
d="M1817 160v-84q0 -31 -22.5 -53.5t-53.5 -22.5h-699q-31 0 -53 22.5t-22 53.5v295h-478l-223 -320q-15 -23 -41.5 -37t-54.5 -14h-92q-30 0 -50 21.5t-20 50.5q0 21 12 39l914 1271q39 52 98 52h688q31 0 53.5 -22.5t22.5 -53.5v-84q0 -31 -22.5 -53.5t-53.5 -22.5h-501
v-356h440q31 0 53.5 -22.5t22.5 -53.5v-84q0 -31 -22.5 -53.5t-53.5 -22.5h-440v-370h522q31 0 53.5 -22.5t22.5 -53.5zM967 1053l-312 -447h312v447z" />
    <glyph glyph-name="Ccedilla" unicode="&#xc7;" horiz-adv-x="1331" 
d="M862 -68q228 -17 228 -178q0 -80 -72.5 -130t-200.5 -50q-83 0 -135.5 16t-99.5 48q-27 17 -27 51q0 18 10 35q19 32 58 32q18 0 34 -8q64 -31 103 -31q35 0 57.5 14t22.5 38q0 34 -35 49q-34 16 -48 34.5t-14 53.5v76q-295 28 -473 226.5t-178 508.5q0 155 48.5 289
t139.5 234.5t231.5 158t313.5 57.5q92 0 192.5 -28t182.5 -74q41 -20 41 -60q0 -20 -12 -41l-43 -75q-23 -39 -62 -39q-24 0 -45 12q-137 70 -254 70q-204 0 -335.5 -137.5t-131.5 -366.5q0 -224 138 -364t358 -140q127 0 258 72q24 12 47 12q46 0 66 -35l37 -57
q14 -20 14 -47q0 -39 -29 -58q-175 -116 -385 -123v-45z" />
    <glyph glyph-name="Egrave" unicode="&#xc8;" horiz-adv-x="1177" 
d="M1049 160v-84q0 -31 -22.5 -53.5t-53.5 -22.5h-699q-31 0 -53 22.5t-22 53.5v1282q0 31 22 53.5t53 22.5h678q31 0 53.5 -22.5t22.5 -53.5v-84q0 -31 -22.5 -53.5t-53.5 -22.5h-501v-356h440q31 0 53.5 -22.5t22.5 -53.5v-84q0 -31 -22.5 -53.5t-53.5 -22.5h-440v-370
h522q31 0 53.5 -22.5t22.5 -53.5zM438 1829l299 -154q45 -22 45 -73q0 -13 -8 -33q-10 -23 -31.5 -36t-46.5 -13q-18 0 -28 4l-314 112q-23 7 -36 26.5t-13 43.5q0 17 6 29l27 59q19 43 65 43q22 0 35 -8z" />
    <glyph glyph-name="Eacute" unicode="&#xc9;" horiz-adv-x="1177" 
d="M1049 160v-84q0 -31 -22.5 -53.5t-53.5 -22.5h-699q-31 0 -53 22.5t-22 53.5v1282q0 31 22 53.5t53 22.5h678q31 0 53.5 -22.5t22.5 -53.5v-84q0 -31 -22.5 -53.5t-53.5 -22.5h-501v-356h440q31 0 53.5 -22.5t22.5 -53.5v-84q0 -31 -22.5 -53.5t-53.5 -22.5h-440v-370
h522q31 0 53.5 -22.5t22.5 -53.5zM512 1673l303 158q13 8 33 8q46 0 65 -43l27 -63q6 -12 6 -29q0 -22 -13 -40.5t-34 -25.5l-317 -116q-8 -4 -27 -4q-56 0 -78 51q-8 13 -8 35t11.5 41t31.5 28z" />
    <glyph glyph-name="Ecircumflex" unicode="&#xca;" horiz-adv-x="1177" 
d="M1049 160v-84q0 -31 -22.5 -53.5t-53.5 -22.5h-699q-31 0 -53 22.5t-22 53.5v1282q0 31 22 53.5t53 22.5h678q31 0 53.5 -22.5t22.5 -53.5v-84q0 -31 -22.5 -53.5t-53.5 -22.5h-501v-356h440q31 0 53.5 -22.5t22.5 -53.5v-84q0 -31 -22.5 -53.5t-53.5 -22.5h-440v-370
h522q31 0 53.5 -22.5t22.5 -53.5zM610 1636l-209 -108q-15 -10 -41 -10q-46 0 -69 36q-12 18 -12 43q0 44 34 68l232 143q30 21 67 21q34 0 66 -19l235 -145q35 -21 35 -66q0 -25 -14 -45q-26 -36 -72 -36q-26 0 -43 10z" />
    <glyph glyph-name="Edieresis" unicode="&#xcb;" horiz-adv-x="1177" 
d="M1049 160v-84q0 -31 -22.5 -53.5t-53.5 -22.5h-699q-31 0 -53 22.5t-22 53.5v1282q0 31 22 53.5t53 22.5h678q31 0 53.5 -22.5t22.5 -53.5v-84q0 -31 -22.5 -53.5t-53.5 -22.5h-501v-356h440q31 0 53.5 -22.5t22.5 -53.5v-84q0 -31 -22.5 -53.5t-53.5 -22.5h-440v-370
h522q31 0 53.5 -22.5t22.5 -53.5zM389 1817q59 0 102.5 -35t43.5 -92q0 -63 -43.5 -99.5t-102.5 -36.5q-67 0 -112.5 36t-45.5 100q0 58 45.5 92.5t112.5 34.5zM864 1817q60 0 103 -34.5t43 -92.5q0 -63 -43 -99.5t-103 -36.5q-67 0 -112 36t-45 100q0 58 45 92.5t112 34.5z
" />
    <glyph glyph-name="Igrave" unicode="&#xcc;" horiz-adv-x="710" 
d="M481 1358v-1282q0 -31 -22 -53.5t-53 -22.5h-101q-31 0 -53.5 22.5t-22.5 53.5v1282q0 31 22.5 53.5t53.5 22.5h101q31 0 53 -22.5t22 -53.5zM141 1829l299 -154q45 -22 45 -73q0 -13 -8 -33q-10 -23 -31.5 -36t-46.5 -13q-18 0 -28 4l-314 112q-23 7 -36 26.5t-13 43.5
q0 17 6 29l27 59q19 43 65 43q22 0 35 -8z" />
    <glyph glyph-name="Iacute" unicode="&#xcd;" horiz-adv-x="710" 
d="M481 1358v-1282q0 -31 -22 -53.5t-53 -22.5h-101q-31 0 -53.5 22.5t-22.5 53.5v1282q0 31 22.5 53.5t53.5 22.5h101q31 0 53 -22.5t22 -53.5zM272 1673l303 158q13 8 33 8q21 0 39 -11.5t27 -31.5l26 -63q7 -14 7 -29q0 -22 -13 -40.5t-35 -25.5l-317 -116q-8 -4 -27 -4
q-55 0 -77 51q-9 15 -9 35q0 22 11.5 41t31.5 28z" />
    <glyph glyph-name="Icircumflex" unicode="&#xce;" horiz-adv-x="710" 
d="M481 1358v-1282q0 -31 -22 -53.5t-53 -22.5h-101q-31 0 -53.5 22.5t-22.5 53.5v1282q0 31 22.5 53.5t53.5 22.5h101q31 0 53 -22.5t22 -53.5zM350 1636l-209 -108q-15 -10 -41 -10q-46 0 -69 36q-13 20 -13 43q0 44 35 68l232 143q30 21 67 21q34 0 66 -19l235 -145
q35 -21 35 -66q0 -25 -14 -45q-26 -36 -72 -36q-26 0 -43 10z" />
    <glyph glyph-name="Idieresis" unicode="&#xcf;" horiz-adv-x="710" 
d="M481 1358v-1282q0 -31 -22 -53.5t-53 -22.5h-101q-31 0 -53.5 22.5t-22.5 53.5v1282q0 31 22.5 53.5t53.5 22.5h101q31 0 53 -22.5t22 -53.5zM123 1817q59 0 102 -35t43 -92q0 -63 -43 -99.5t-102 -36.5q-68 0 -113 36t-45 100q0 58 45.5 92.5t112.5 34.5zM598 1817
q60 0 102.5 -34.5t42.5 -92.5q0 -63 -42.5 -99.5t-102.5 -36.5q-68 0 -113 36t-45 100q0 58 45.5 92.5t112.5 34.5z" />
    <glyph glyph-name="Eth" unicode="&#xd0;" horiz-adv-x="1533" 
d="M465 608v-372q87 -5 164 -5q257 0 402 135t145 365q0 218 -144 345.5t-399 127.5q-83 0 -168 -6v-369h287q31 0 53 -22t22 -53v-70q0 -31 -22 -53.5t-53 -22.5h-287zM621 -4q-43 0 -166 2t-164 2q-31 0 -53.5 22.5t-22.5 53.5v532h-119q-31 0 -53.5 22.5t-22.5 53.5v70
q0 31 22.5 53t53.5 22h119v529q0 31 22.5 53.5t53.5 22.5q10 0 147 3t199 3q167 0 303 -37.5t228.5 -102.5t155 -155.5t90.5 -194t28 -219.5q0 -122 -32.5 -231t-99.5 -201.5t-163 -159.5t-231 -105t-295 -38z" />
    <glyph glyph-name="Ntilde" unicode="&#xd1;" horiz-adv-x="1622" 
d="M1264 1434h84q31 0 53 -22.5t22 -53.5v-1282q0 -31 -22 -53.5t-53 -22.5h-72q-52 0 -92 49l-750 944v-917q0 -31 -22.5 -53.5t-53.5 -22.5h-84q-31 0 -53 22.5t-22 53.5v1282q0 31 22 53.5t53 22.5h72q52 0 92 -50l750 -948v922q0 31 22.5 53.5t53.5 22.5zM1184 1632
q-117 -106 -223 -106q-51 0 -142.5 45t-146.5 45q-36 0 -97 -37q-26 -16 -51 -16q-36 0 -63 34q-17 20 -17 48q0 40 29 63q115 94 211 94q52 0 102 -23t97.5 -46t93.5 -23q37 0 96 39q33 23 66 23q34 0 57 -29q18 -22 18 -49q0 -36 -30 -62z" />
    <glyph glyph-name="Ograve" unicode="&#xd2;" horiz-adv-x="1677" 
d="M92 717q0 154 55 290.5t152.5 235.5t237 156t301.5 57q212 0 381.5 -91t267.5 -260t98 -388q0 -212 -97.5 -381.5t-268 -264t-381.5 -94.5q-212 0 -381.5 91t-267 260.5t-97.5 388.5zM358 717q0 -214 139 -359t341 -145q220 0 350.5 143t130.5 361q0 220 -138 362
t-343 142q-207 0 -343.5 -141.5t-136.5 -362.5zM684 1829l299 -154q45 -22 45 -73q0 -13 -8 -33q-10 -23 -31.5 -36t-46.5 -13q-19 0 -29 4l-313 112q-23 7 -36 26.5t-13 43.5q0 17 6 29l27 59q19 43 65 43q22 0 35 -8z" />
    <glyph glyph-name="Oacute" unicode="&#xd3;" horiz-adv-x="1677" 
d="M92 717q0 154 55 290.5t152.5 235.5t237 156t301.5 57q212 0 381.5 -91t267.5 -260t98 -388q0 -212 -97.5 -381.5t-268 -264t-381.5 -94.5q-212 0 -381.5 91t-267 260.5t-97.5 388.5zM358 717q0 -214 139 -359t341 -145q220 0 350.5 143t130.5 361q0 220 -138 362
t-343 142q-207 0 -343.5 -141.5t-136.5 -362.5zM748 1673l303 158q13 8 32 8q21 0 39 -11.5t27 -31.5l27 -63q6 -12 6 -29q0 -22 -13 -40.5t-34 -25.5l-318 -116q-8 -4 -26 -4q-56 0 -78 51q-8 13 -8 35t11.5 41t31.5 28z" />
    <glyph glyph-name="Ocircumflex" unicode="&#xd4;" horiz-adv-x="1677" 
d="M92 717q0 154 55 290.5t152.5 235.5t237 156t301.5 57q212 0 381.5 -91t267.5 -260t98 -388q0 -212 -97.5 -381.5t-268 -264t-381.5 -94.5q-212 0 -381.5 91t-267 260.5t-97.5 388.5zM358 717q0 -214 139 -359t341 -145q220 0 350.5 143t130.5 361q0 220 -138 362
t-343 142q-207 0 -343.5 -141.5t-136.5 -362.5zM840 1636l-209 -108q-15 -10 -41 -10q-47 0 -70 36q-12 18 -12 43q0 44 35 68l231 143q30 21 68 21q33 0 65 -19l236 -145q35 -21 35 -66q0 -24 -15 -45q-26 -36 -71 -36q-26 0 -43 10z" />
    <glyph glyph-name="Otilde" unicode="&#xd5;" horiz-adv-x="1677" 
d="M92 717q0 154 55 290.5t152.5 235.5t237 156t301.5 57q212 0 381.5 -91t267.5 -260t98 -388q0 -212 -97.5 -381.5t-268 -264t-381.5 -94.5q-212 0 -381.5 91t-267 260.5t-97.5 388.5zM358 717q0 -214 139 -359t341 -145q220 0 350.5 143t130.5 361q0 220 -138 362
t-343 142q-207 0 -343.5 -141.5t-136.5 -362.5zM1188 1632q-117 -106 -223 -106q-51 0 -142.5 45t-146.5 45q-35 0 -96 -37q-26 -16 -52 -16q-36 0 -63 34q-16 19 -16 48q0 41 28 63q115 94 211 94q52 0 102 -23t97.5 -46t93.5 -23q37 0 96 39q33 23 66 23q34 0 57 -29
q19 -23 19 -49q0 -35 -31 -62z" />
    <glyph glyph-name="Odieresis" unicode="&#xd6;" horiz-adv-x="1677" 
d="M92 717q0 154 55 290.5t152.5 235.5t237 156t301.5 57q212 0 381.5 -91t267.5 -260t98 -388q0 -212 -97.5 -381.5t-268 -264t-381.5 -94.5q-212 0 -381.5 91t-267 260.5t-97.5 388.5zM358 717q0 -214 139 -359t341 -145q220 0 350.5 143t130.5 361q0 220 -138 362
t-343 142q-207 0 -343.5 -141.5t-136.5 -362.5zM600 1817q59 0 102 -35t43 -92q0 -63 -43 -99.5t-102 -36.5q-68 0 -113 36t-45 100q0 58 45.5 92.5t112.5 34.5zM1075 1817q60 0 103 -34.5t43 -92.5q0 -63 -43 -99.5t-103 -36.5q-67 0 -112 36t-45 100q0 58 45 92.5
t112 34.5z" />
    <glyph glyph-name="multiply" unicode="&#xd7;" horiz-adv-x="1144" 
d="M215 526l211 211l-209 209q-20 20 -20 53q0 34 20 54l39 39q22 22 53 22t53 -22l209 -209l209 209q22 22 54 22q31 0 53 -22l39 -39q22 -22 22 -54q0 -31 -22 -53l-209 -209l211 -211q22 -22 22 -53t-22 -53l-39 -39q-21 -21 -53 -21q-33 0 -54 21l-211 211l-211 -211
q-21 -21 -53 -21t-53 21l-39 39q-20 20 -20 53t20 53z" />
    <glyph glyph-name="Oslash" unicode="&#xd8;" horiz-adv-x="1677" 
d="M203 254l20 20q-131 186 -131 443q0 154 55 290.5t152.5 235.5t237 156t301.5 57q248 0 460 -133q33 33 78 33q39 0 66 -27q26 -26 26 -67q0 -46 -32 -74q149 -206 149 -471q0 -212 -97.5 -381.5t-268 -264t-381.5 -94.5q-282 0 -480 156l-18 -18q-30 -27 -66 -27
q-41 0 -69 31q-29 29 -29 69q0 42 27 66zM1243 997l-698 -682q124 -102 293 -102q220 0 350.5 143t130.5 361q0 154 -76 280zM418 465l692 674q-125 82 -272 82q-207 0 -343.5 -141.5t-136.5 -362.5q0 -138 60 -252z" />
    <glyph glyph-name="Ugrave" unicode="&#xd9;" horiz-adv-x="1536" 
d="M1108 645v713q0 31 22.5 53.5t53.5 22.5h98q31 0 53.5 -22.5t22.5 -53.5v-764q0 -128 -30.5 -232t-83.5 -175t-125.5 -119t-155.5 -69.5t-175 -21.5q-135 0 -246 40t-192.5 117.5t-126.5 198.5t-45 275v750q0 31 22.5 53.5t53.5 22.5h100q31 0 53.5 -22.5t22.5 -53.5
v-696q0 -209 89 -329t269 -120q320 0 320 432zM588 1829l299 -154q45 -22 45 -73q0 -13 -8 -33q-10 -23 -31.5 -36t-46.5 -13q-19 0 -29 4l-313 112q-23 7 -36 26.5t-13 43.5q0 17 6 29l26 59q9 20 27 31.5t39 11.5q22 0 35 -8z" />
    <glyph glyph-name="Uacute" unicode="&#xda;" horiz-adv-x="1536" 
d="M1108 645v713q0 31 22.5 53.5t53.5 22.5h98q31 0 53.5 -22.5t22.5 -53.5v-764q0 -128 -30.5 -232t-83.5 -175t-125.5 -119t-155.5 -69.5t-175 -21.5q-135 0 -246 40t-192.5 117.5t-126.5 198.5t-45 275v750q0 31 22.5 53.5t53.5 22.5h100q31 0 53.5 -22.5t22.5 -53.5
v-696q0 -209 89 -329t269 -120q320 0 320 432zM672 1673l303 158q13 8 33 8q46 0 65 -43l27 -63q6 -12 6 -29q0 -22 -13 -40.5t-34 -25.5l-318 -116q-8 -4 -26 -4q-56 0 -78 51q-8 13 -8 35t11.5 41t31.5 28z" />
    <glyph glyph-name="Ucircumflex" unicode="&#xdb;" horiz-adv-x="1536" 
d="M1108 645v713q0 31 22.5 53.5t53.5 22.5h98q31 0 53.5 -22.5t22.5 -53.5v-764q0 -128 -30.5 -232t-83.5 -175t-125.5 -119t-155.5 -69.5t-175 -21.5q-135 0 -246 40t-192.5 117.5t-126.5 198.5t-45 275v750q0 31 22.5 53.5t53.5 22.5h100q31 0 53.5 -22.5t22.5 -53.5
v-696q0 -209 89 -329t269 -120q320 0 320 432zM762 1636l-209 -108q-15 -10 -41 -10q-47 0 -70 36q-12 18 -12 43q0 44 35 68l231 143q30 21 68 21q33 0 65 -19l236 -145q35 -21 35 -66q0 -24 -15 -45q-26 -36 -71 -36q-26 0 -43 10z" />
    <glyph glyph-name="Udieresis" unicode="&#xdc;" horiz-adv-x="1536" 
d="M1108 645v713q0 31 22.5 53.5t53.5 22.5h98q31 0 53.5 -22.5t22.5 -53.5v-764q0 -128 -30.5 -232t-83.5 -175t-125.5 -119t-155.5 -69.5t-175 -21.5q-135 0 -246 40t-192.5 117.5t-126.5 198.5t-45 275v750q0 31 22.5 53.5t53.5 22.5h100q31 0 53.5 -22.5t22.5 -53.5
v-696q0 -209 89 -329t269 -120q320 0 320 432zM522 1817q59 0 102.5 -35t43.5 -92q0 -63 -43.5 -99.5t-102.5 -36.5q-67 0 -112 36t-45 100q0 58 45 92.5t112 34.5zM997 1817q60 0 103 -34.5t43 -92.5q0 -63 -43 -99.5t-103 -36.5q-67 0 -112 36t-45 100q0 58 45 92.5
t112 34.5z" />
    <glyph glyph-name="Yacute" unicode="&#xdd;" horiz-adv-x="1261" 
d="M317 1380l324 -546l322 546q13 25 38.5 39.5t53.5 14.5h73q33 0 54.5 -23t21.5 -55q0 -24 -10 -39l-438 -719v-522q0 -31 -22.5 -53.5t-53.5 -22.5h-100q-31 0 -53.5 22.5t-22.5 53.5v522l-434 719q-13 19 -13 41q0 30 22.5 53t55.5 23h88q61 0 94 -54zM537 1673l303 158
q13 8 32 8q21 0 39 -11.5t27 -31.5l27 -63q6 -12 6 -29q0 -22 -13 -40.5t-34 -25.5l-318 -116q-8 -4 -26 -4q-56 0 -78 51q-8 13 -8 35t11.5 41t31.5 28z" />
    <glyph glyph-name="Thorn" unicode="&#xde;" horiz-adv-x="1253" 
d="M606 1227q103 0 187.5 -17.5t144 -49.5t103.5 -74t70 -94.5t38 -107.5t12 -116q0 -93 -34.5 -176.5t-98.5 -148.5t-165.5 -103.5t-225.5 -38.5q-105 0 -186 8v-233q0 -31 -22.5 -53.5t-53.5 -22.5h-101q-31 0 -53 22.5t-22 53.5v1282q0 31 22 53.5t53 22.5h101
q31 0 53.5 -22.5t22.5 -53.5v-135q16 0 77.5 2t77.5 2zM451 985v-438q98 -10 178 -10q119 0 192.5 59t73.5 174q0 109 -73 165t-212 56q-100 0 -159 -6z" />
    <glyph glyph-name="germandbls" unicode="&#xdf;" horiz-adv-x="1128" 
d="M741 -23q-149 0 -258 95q-24 21 -24 63q0 34 16 55q27 37 70 37q30 0 57 -12q49 -18 82 -18q58 0 94.5 34.5t36.5 96.5q0 37 -18.5 70t-48 58t-65 50t-71 51.5t-65 55.5t-48 69.5t-18.5 87.5q0 59 17.5 106.5t42 77.5t49 56t42 55.5t17.5 62.5q0 46 -38 76.5t-95 30.5
q-80 0 -117 -55.5t-37 -175.5v-930q0 -31 -22 -53.5t-53 -22.5h-84q-31 0 -53.5 22.5t-22.5 53.5v950q0 221 110 326.5t314 105.5q149 0 248.5 -82t99.5 -200q0 -57 -17 -101.5t-41.5 -72.5t-49 -53.5t-41.5 -58t-17 -71.5q0 -40 18.5 -72.5t48 -56.5t65 -47.5t71 -52
t65 -63t48 -86.5t18.5 -117q0 -143 -92 -244t-234 -101z" />
    <glyph glyph-name="agrave" unicode="&#xe0;" horiz-adv-x="948" 
d="M360 -12q-129 0 -208.5 75.5t-79.5 206.5q0 146 94.5 222.5t241.5 76.5q60 0 116.5 -16.5t91.5 -42.5v29q0 106 -39.5 157.5t-132.5 51.5q-80 0 -157 -25q-18 -6 -37 -6q-49 0 -70 43l-12 24q-8 20 -8 33q0 20 12 38.5t31 27.5q132 61 266 61q197 0 283 -96t86 -287v-485
q0 -31 -22.5 -53.5t-53.5 -22.5h-53q-31 0 -53.5 22.5t-22.5 53.5v30q-38 -54 -109.5 -86t-163.5 -32zM616 270v95q-60 45 -161 45q-63 0 -105.5 -29.5t-42.5 -85.5q0 -51 37 -80t94 -29q119 0 178 84zM479 1419l123 -190q12 -21 12 -47q0 -51 -36 -74q-21 -16 -54 -16
q-46 0 -73 30l-146 166q-20 20 -20 53q0 41 30 62l52 37q22 16 47 16q44 0 65 -37z" />
    <glyph glyph-name="aacute" unicode="&#xe1;" horiz-adv-x="948" 
d="M360 -12q-129 0 -208.5 75.5t-79.5 206.5q0 146 94.5 222.5t241.5 76.5q60 0 116.5 -16.5t91.5 -42.5v29q0 106 -39.5 157.5t-132.5 51.5q-80 0 -157 -25q-18 -6 -37 -6q-49 0 -70 43l-12 24q-8 20 -8 33q0 20 12 38.5t31 27.5q132 61 266 61q197 0 283 -96t86 -287v-485
q0 -31 -22.5 -53.5t-53.5 -22.5h-53q-31 0 -53.5 22.5t-22.5 53.5v30q-38 -54 -109.5 -86t-163.5 -32zM616 270v95q-60 45 -161 45q-63 0 -105.5 -29.5t-42.5 -85.5q0 -51 37 -80t94 -29q119 0 178 84zM362 1229l125 194q21 35 66 35q27 0 47 -14l49 -37q31 -22 31 -64
q0 -30 -18 -51l-148 -170q-27 -30 -70 -30q-29 0 -55 16q-39 26 -39 76q0 24 12 45z" />
    <glyph glyph-name="acircumflex" unicode="&#xe2;" horiz-adv-x="948" 
d="M360 -12q-129 0 -208.5 75.5t-79.5 206.5q0 146 94.5 222.5t241.5 76.5q60 0 116.5 -16.5t91.5 -42.5v29q0 106 -39.5 157.5t-132.5 51.5q-80 0 -157 -25q-18 -6 -37 -6q-49 0 -70 43l-12 24q-8 20 -8 33q0 20 12 38.5t31 27.5q132 61 266 61q197 0 283 -96t86 -287v-485
q0 -31 -22.5 -53.5t-53.5 -22.5h-53q-31 0 -53.5 22.5t-22.5 53.5v30q-38 -54 -109.5 -86t-163.5 -32zM616 270v95q-60 45 -161 45q-63 0 -105.5 -29.5t-42.5 -85.5q0 -51 37 -80t94 -29q119 0 178 84zM276 1071q-43 0 -67 35q-19 22 -19 53q0 42 33 72l183 158q27 24 67 24
q43 0 70 -27l180 -155q31 -28 31 -70q0 -35 -21 -59q-27 -35 -69 -35q-29 0 -56 20l-137 111l-139 -108q-25 -19 -56 -19z" />
    <glyph glyph-name="atilde" unicode="&#xe3;" horiz-adv-x="948" 
d="M360 -12q-129 0 -208.5 75.5t-79.5 206.5q0 146 94.5 222.5t241.5 76.5q60 0 116.5 -16.5t91.5 -42.5v29q0 106 -39.5 157.5t-132.5 51.5q-80 0 -157 -25q-18 -6 -37 -6q-49 0 -70 43l-12 24q-8 20 -8 33q0 20 12 38.5t31 27.5q132 61 266 61q197 0 283 -96t86 -287v-485
q0 -31 -22.5 -53.5t-53.5 -22.5h-53q-31 0 -53.5 22.5t-22.5 53.5v30q-38 -54 -109.5 -86t-163.5 -32zM616 270v95q-60 45 -161 45q-63 0 -105.5 -29.5t-42.5 -85.5q0 -51 37 -80t94 -29q119 0 178 84zM780 1174q-114 -99 -202 -99q-30 0 -62 16t-55.5 35.5t-55.5 35.5
t-63 16q-20 0 -78 -35q-35 -21 -55 -21q-29 0 -57 31q-15 18 -15 41q0 40 33 70q102 86 190 86q32 0 66 -16t58 -35.5t55 -35.5t59 -16q13 0 26 4.5t20 8.5t20 13.5t18 12.5q33 23 59 23q30 0 54 -27q18 -21 18 -45q0 -33 -33 -63z" />
    <glyph glyph-name="adieresis" unicode="&#xe4;" horiz-adv-x="948" 
d="M360 -12q-129 0 -208.5 75.5t-79.5 206.5q0 146 94.5 222.5t241.5 76.5q60 0 116.5 -16.5t91.5 -42.5v29q0 106 -39.5 157.5t-132.5 51.5q-80 0 -157 -25q-18 -6 -37 -6q-49 0 -70 43l-12 24q-8 20 -8 33q0 20 12 38.5t31 27.5q132 61 266 61q197 0 283 -96t86 -287v-485
q0 -31 -22.5 -53.5t-53.5 -22.5h-53q-31 0 -53.5 22.5t-22.5 53.5v30q-38 -54 -109.5 -86t-163.5 -32zM616 270v95q-60 45 -161 45q-63 0 -105.5 -29.5t-42.5 -85.5q0 -51 37 -80t94 -29q119 0 178 84zM285 1090q-56 0 -94.5 36.5t-38.5 100.5q0 60 38.5 95.5t94.5 35.5
q49 0 86 -36t37 -95q0 -63 -37 -100t-86 -37zM690 1090q-55 0 -93 37t-38 100q0 59 38 95t93 36q50 0 86.5 -36t36.5 -95q0 -63 -36.5 -100t-86.5 -37z" />
    <glyph glyph-name="aring" unicode="&#xe5;" horiz-adv-x="948" 
d="M360 -12q-129 0 -208.5 75.5t-79.5 206.5q0 146 94.5 222.5t241.5 76.5q60 0 116.5 -16.5t91.5 -42.5v29q0 106 -39.5 157.5t-132.5 51.5q-80 0 -157 -25q-18 -6 -37 -6q-49 0 -70 43l-12 24q-8 20 -8 33q0 20 12 38.5t31 27.5q132 61 266 61q197 0 283 -96t86 -287v-485
q0 -31 -22.5 -53.5t-53.5 -22.5h-53q-31 0 -53.5 22.5t-22.5 53.5v30q-38 -54 -109.5 -86t-163.5 -32zM616 270v95q-60 45 -161 45q-63 0 -105.5 -29.5t-42.5 -85.5q0 -51 37 -80t94 -29q119 0 178 84zM485 1012q-111 0 -184.5 70t-73.5 171q0 103 73.5 174.5t184.5 71.5
q113 0 188 -71.5t75 -174.5q0 -101 -75 -171t-188 -70zM489 1370q-49 0 -79.5 -33.5t-30.5 -81.5t31 -82t79 -34q46 0 76.5 34t30.5 82t-30.5 81.5t-76.5 33.5z" />
    <glyph glyph-name="ae" unicode="&#xe6;" horiz-adv-x="1566" 
d="M838 555l422 -8q-3 90 -60.5 145.5t-159.5 55.5q-62 0 -117 -29t-89 -88q4 -46 4 -76zM614 264l2 117q-76 29 -161 29q-63 0 -105.5 -32t-42.5 -83q0 -47 34.5 -78t96.5 -31q94 0 176 78zM717 98q-148 -116 -316 -116q-160 0 -244.5 78.5t-84.5 222.5q0 131 92.5 208.5
t243.5 77.5q50 0 114.5 -14.5t93.5 -30.5q2 12 2 37q0 90 -43.5 138.5t-119.5 48.5q-88 0 -168 -25q-18 -6 -37 -6q-48 0 -68 41l-14 26q-6 12 -6 29q0 21 11.5 41t29.5 29q132 61 266 61q190 0 283 -96q130 96 307 96q183 0 309.5 -119.5t126.5 -308.5q0 -37 -2 -53
q-3 -28 -28 -51t-54 -23h-573v-88q28 -58 95.5 -92.5t156.5 -34.5q106 0 186 39q21 12 47 12q43 0 61 -30l17 -25q12 -18 12 -41q0 -39 -35 -63q-140 -89 -307 -89q-221 0 -354 121z" />
    <glyph glyph-name="ccedilla" unicode="&#xe7;" horiz-adv-x="1005" 
d="M643 -70q104 -7 158.5 -52.5t54.5 -123.5q0 -81 -73.5 -130.5t-209.5 -49.5q-110 0 -192 49q-31 21 -31 60q0 16 6 28q18 35 60 35q21 0 37 -8q51 -21 88 -21q35 0 57.5 14t22.5 38q0 36 -31 47q-38 15 -52 36t-14 62v66q-206 17 -328 147t-122 334q0 133 60 243.5
t170 175t247 64.5q174 0 303 -70q17 -9 27 -27.5t10 -39.5q0 -20 -8 -33l-31 -53q-25 -43 -70 -43q-18 0 -37 8q-75 37 -163 37q-103 0 -179.5 -72.5t-76.5 -189.5q0 -119 78.5 -191.5t187.5 -72.5q98 0 178 53q26 16 49 16q40 0 64 -30l35 -43q14 -14 14 -41q0 -43 -29 -66
q-118 -94 -260 -104v-52z" />
    <glyph glyph-name="egrave" unicode="&#xe8;" horiz-adv-x="1071" 
d="M309 547h453v4q0 86 -57 141.5t-154 55.5q-102 0 -162 -53t-80 -148zM594 174q100 0 180 39q28 14 47 14q36 0 60 -34l18 -27q12 -18 12 -41q0 -43 -32 -62q-138 -86 -310 -86q-223 0 -359 133t-136 351q0 100 34 188.5t95.5 153.5t154 103t203.5 38q183 0 309.5 -119.5
t126.5 -308.5q0 -37 -2 -53q-2 -26 -27 -50t-53 -24h-598q15 -102 90.5 -158.5t186.5 -56.5zM561 1419l123 -190q12 -21 12 -47q0 -50 -37 -74q-21 -16 -53 -16q-47 0 -74 30l-145 166q-20 20 -20 53q0 41 30 62l52 37q22 16 47 16q44 0 65 -37z" />
    <glyph glyph-name="eacute" unicode="&#xe9;" horiz-adv-x="1071" 
d="M309 547h453v4q0 86 -57 141.5t-154 55.5q-102 0 -162 -53t-80 -148zM594 174q100 0 180 39q28 14 47 14q36 0 60 -34l18 -27q12 -18 12 -41q0 -43 -32 -62q-138 -86 -310 -86q-223 0 -359 133t-136 351q0 100 34 188.5t95.5 153.5t154 103t203.5 38q183 0 309.5 -119.5
t126.5 -308.5q0 -37 -2 -53q-2 -26 -27 -50t-53 -24h-598q15 -102 90.5 -158.5t186.5 -56.5zM465 1229l125 194q21 35 65 35q27 0 47 -14l50 -37q30 -21 30 -64q0 -30 -18 -51l-148 -170q-27 -30 -69 -30q-29 0 -55 16q-39 26 -39 76q0 24 12 45z" />
    <glyph glyph-name="ecircumflex" unicode="&#xea;" horiz-adv-x="1071" 
d="M309 547h453v4q0 86 -57 141.5t-154 55.5q-102 0 -162 -53t-80 -148zM594 174q100 0 180 39q28 14 47 14q36 0 60 -34l18 -27q12 -18 12 -41q0 -43 -32 -62q-138 -86 -310 -86q-223 0 -359 133t-136 351q0 100 34 188.5t95.5 153.5t154 103t203.5 38q183 0 309.5 -119.5
t126.5 -308.5q0 -37 -2 -53q-2 -26 -27 -50t-53 -24h-598q15 -102 90.5 -158.5t186.5 -56.5zM354 1071q-43 0 -67 35q-19 22 -19 53q0 42 33 72l182 158q27 24 68 24q43 0 70 -27l180 -155q30 -27 30 -70q0 -36 -20 -59q-27 -35 -70 -35q-28 0 -55 20l-137 111l-139 -108
q-25 -19 -56 -19z" />
    <glyph glyph-name="edieresis" unicode="&#xeb;" horiz-adv-x="1071" 
d="M309 547h453v4q0 86 -57 141.5t-154 55.5q-102 0 -162 -53t-80 -148zM594 174q100 0 180 39q28 14 47 14q36 0 60 -34l18 -27q12 -18 12 -41q0 -43 -32 -62q-138 -86 -310 -86q-223 0 -359 133t-136 351q0 100 34 188.5t95.5 153.5t154 103t203.5 38q183 0 309.5 -119.5
t126.5 -308.5q0 -37 -2 -53q-2 -26 -27 -50t-53 -24h-598q15 -102 90.5 -158.5t186.5 -56.5zM352 1090q-56 0 -94.5 36.5t-38.5 100.5q0 60 38.5 95.5t94.5 35.5q49 0 86 -36t37 -95q0 -63 -37 -100t-86 -37zM758 1090q-55 0 -93 37t-38 100q0 59 38 95t93 36q50 0 86.5 -36
t36.5 -95q0 -63 -36.5 -100t-86.5 -37z" />
    <glyph glyph-name="igrave" unicode="&#xec;" horiz-adv-x="567" 
d="M242 922h84q31 0 53 -22.5t22 -53.5v-770q0 -31 -22 -53.5t-53 -22.5h-84q-31 0 -53.5 22.5t-22.5 53.5v770q0 31 22.5 53.5t53.5 22.5zM223 1419l123 -190q12 -21 12 -47q0 -51 -36 -74q-21 -16 -54 -16q-46 0 -73 30l-146 166q-20 20 -20 53q0 41 30 62l52 37
q22 16 47 16q44 0 65 -37z" />
    <glyph glyph-name="iacute" unicode="&#xed;" horiz-adv-x="567" 
d="M242 922h84q31 0 53 -22.5t22 -53.5v-770q0 -31 -22 -53.5t-53 -22.5h-84q-31 0 -53.5 22.5t-22.5 53.5v770q0 31 22.5 53.5t53.5 22.5zM174 1229l125 194q21 35 66 35q27 0 47 -14l49 -37q31 -22 31 -64q0 -29 -19 -51l-147 -170q-27 -30 -70 -30q-29 0 -55 16
q-39 26 -39 76q0 24 12 45z" />
    <glyph glyph-name="icircumflex" unicode="&#xee;" horiz-adv-x="567" 
d="M242 922h84q31 0 53 -22.5t22 -53.5v-770q0 -31 -22 -53.5t-53 -22.5h-84q-31 0 -53.5 22.5t-22.5 53.5v770q0 31 22.5 53.5t53.5 22.5zM88 1071q-44 0 -68 35q-18 21 -18 53q0 42 33 72l182 158q27 24 68 24q42 0 69 -27l181 -155q30 -27 30 -70q0 -36 -20 -59
q-27 -35 -70 -35q-28 0 -55 20l-137 111l-140 -108q-25 -19 -55 -19z" />
    <glyph glyph-name="idieresis" unicode="&#xef;" horiz-adv-x="567" 
d="M242 922h84q31 0 53 -22.5t22 -53.5v-770q0 -31 -22 -53.5t-53 -22.5h-84q-31 0 -53.5 22.5t-22.5 53.5v770q0 31 22.5 53.5t53.5 22.5zM86 1090q-56 0 -94.5 36.5t-38.5 100.5q0 60 38.5 95.5t94.5 35.5q49 0 86 -36t37 -95q0 -63 -37 -100t-86 -37zM492 1090
q-55 0 -93.5 37t-38.5 100q0 59 38.5 95t93.5 36q50 0 86 -36t36 -95q0 -63 -36 -100t-86 -37z" />
    <glyph glyph-name="eth" unicode="&#xf0;" horiz-adv-x="1150" 
d="M575 -23q-225 0 -363 137t-138 347t138 346.5t363 136.5q58 0 111 -25t84 -67q-42 132 -125 250l-186 -68q-16 -4 -23 -4q-25 0 -44.5 14t-26.5 37l-23 66q-4 16 -4 22q0 25 15 46t38 28l96 35q-33 31 -67 57q-33 20 -33 64q0 24 12 45l17 24q21 35 65 35q19 0 39 -10
q99 -62 189 -135l141 51q16 4 22 4q25 0 45 -14t27 -37l21 -66q4 -16 4 -22q0 -25 -15 -46t-39 -28l-49 -18q101 -145 156 -315.5t55 -325.5q0 -263 -135.5 -413.5t-366.5 -150.5zM575 723q-107 0 -178 -72t-71 -190q0 -115 70.5 -189.5t178.5 -74.5q114 0 183 85t69 234v35
q-22 76 -90 124t-162 48z" />
    <glyph glyph-name="ntilde" unicode="&#xf1;" horiz-adv-x="1118" 
d="M774 500q0 108 -53.5 162.5t-153.5 54.5q-112 0 -200 -88v-553q0 -31 -22.5 -53.5t-53.5 -22.5h-84q-31 0 -53.5 22.5t-22.5 53.5v770q0 31 22.5 53.5t53.5 22.5h84q31 0 53.5 -24t22.5 -60q45 42 115.5 71t148.5 29q379 0 379 -397v-465q0 -31 -22.5 -53.5t-53.5 -22.5
h-84q-31 0 -53.5 22.5t-22.5 53.5v424zM870 1174q-114 -99 -202 -99q-30 0 -62 16t-55.5 35.5t-55.5 35.5t-63 16q-20 0 -78 -35q-35 -21 -55 -21q-29 0 -57 31q-15 18 -15 41q0 40 33 70q102 86 191 86q32 0 65.5 -16t57.5 -35.5t55 -35.5t59 -16q13 0 26 4.5t20 8.5
t20 13.5t18 12.5q33 23 59 23q30 0 54 -27q18 -21 18 -45q0 -33 -33 -63z" />
    <glyph glyph-name="ograve" unicode="&#xf2;" horiz-adv-x="1150" 
d="M575 -23q-225 0 -363 137t-138 347t138 346.5t363 136.5q226 0 364 -136.5t138 -346.5t-138.5 -347t-363.5 -137zM575 723q-107 0 -178 -72t-71 -190q0 -115 70.5 -189.5t178.5 -74.5q110 0 181 72.5t71 191.5q0 116 -71.5 189t-180.5 73zM553 1419l123 -190
q12 -21 12 -47q0 -50 -37 -74q-21 -16 -53 -16q-47 0 -74 30l-145 166q-21 21 -21 53q0 40 31 62l51 37q22 16 47 16q45 0 66 -37z" />
    <glyph glyph-name="oacute" unicode="&#xf3;" horiz-adv-x="1150" 
d="M575 -23q-225 0 -363 137t-138 347t138 346.5t363 136.5q226 0 364 -136.5t138 -346.5t-138.5 -347t-363.5 -137zM575 723q-107 0 -178 -72t-71 -190q0 -115 70.5 -189.5t178.5 -74.5q110 0 181 72.5t71 191.5q0 116 -71.5 189t-180.5 73zM477 1229l125 194q21 35 66 35
q27 0 47 -14l49 -37q31 -22 31 -64q0 -29 -19 -51l-147 -170q-27 -30 -70 -30q-29 0 -55 16q-39 26 -39 76q0 24 12 45z" />
    <glyph glyph-name="ocircumflex" unicode="&#xf4;" horiz-adv-x="1150" 
d="M575 -23q-225 0 -363 137t-138 347t138 346.5t363 136.5q226 0 364 -136.5t138 -346.5t-138.5 -347t-363.5 -137zM575 723q-107 0 -178 -72t-71 -190q0 -115 70.5 -189.5t178.5 -74.5q110 0 181 72.5t71 191.5q0 116 -71.5 189t-180.5 73zM383 1071q-44 0 -68 35
q-18 21 -18 53q0 42 33 72l182 158q27 24 68 24q42 0 69 -27l180 -155q31 -28 31 -70q0 -36 -20 -59q-27 -35 -70 -35q-28 0 -55 20l-137 111l-140 -108q-25 -19 -55 -19z" />
    <glyph glyph-name="otilde" unicode="&#xf5;" horiz-adv-x="1150" 
d="M575 -23q-225 0 -363 137t-138 347t138 346.5t363 136.5q226 0 364 -136.5t138 -346.5t-138.5 -347t-363.5 -137zM575 723q-107 0 -178 -72t-71 -190q0 -115 70.5 -189.5t178.5 -74.5q110 0 181 72.5t71 191.5q0 116 -71.5 189t-180.5 73zM887 1174q-114 -99 -203 -99
q-30 0 -62 16t-55 35.5t-55 35.5t-63 16q-21 0 -78 -35q-35 -21 -56 -21q-29 0 -57 31q-14 17 -14 41q0 41 32 70q102 86 191 86q32 0 66 -16t58 -35.5t55 -35.5t59 -16q13 0 25.5 4.5t20 9t20 13.5t17.5 12q33 23 60 23q29 0 53 -27q19 -22 19 -45q0 -33 -33 -63z" />
    <glyph glyph-name="odieresis" unicode="&#xf6;" horiz-adv-x="1150" 
d="M575 -23q-225 0 -363 137t-138 347t138 346.5t363 136.5q226 0 364 -136.5t138 -346.5t-138.5 -347t-363.5 -137zM575 723q-107 0 -178 -72t-71 -190q0 -115 70.5 -189.5t178.5 -74.5q110 0 181 72.5t71 191.5q0 116 -71.5 189t-180.5 73zM391 1090q-56 0 -94.5 36.5
t-38.5 100.5q0 60 38.5 95.5t94.5 35.5q49 0 86 -36t37 -95q0 -63 -37 -100t-86 -37zM797 1090q-55 0 -93 37t-38 100q0 59 38 95t93 36q50 0 86.5 -36t36.5 -95q0 -63 -36.5 -100t-86.5 -37z" />
    <glyph glyph-name="divide" unicode="&#xf7;" 
d="M610 1274q62 0 100 -40t38 -93q0 -57 -38 -100.5t-100 -43.5q-64 0 -101.5 43t-37.5 101q0 53 37.5 93t101.5 40zM610 471q60 0 99 -42t39 -93q0 -58 -38 -100.5t-100 -42.5q-64 0 -101.5 42t-37.5 101q0 52 38 93.5t101 41.5zM1085 764v-53q0 -31 -22 -53.5t-53 -22.5
h-799q-31 0 -53.5 22.5t-22.5 53.5v53q0 31 22.5 53.5t53.5 22.5h799q31 0 53 -22.5t22 -53.5z" />
    <glyph glyph-name="oslash" unicode="&#xf8;" horiz-adv-x="1181" 
d="M266 74l-35 -31q-15 -18 -43 -18t-49 24q-16 19 -16 45q0 32 22 49l27 23q-98 124 -98 295q0 208 145.5 345.5t372.5 137.5q185 0 323 -98l35 31q19 16 43 16q29 0 49 -23q17 -20 17 -41q0 -30 -25 -51l-26 -22q100 -127 100 -295q0 -209 -144.5 -346.5t-371.5 -137.5
q-189 0 -326 97zM827 590l-385 -354q64 -39 150 -39q120 0 193 72t73 192q0 72 -31 129zM354 332l385 352q-64 39 -147 39q-118 0 -192 -71.5t-74 -190.5q0 -71 28 -129z" />
    <glyph glyph-name="ugrave" unicode="&#xf9;" horiz-adv-x="1095" 
d="M346 408q0 -211 176 -211q58 0 112.5 29.5t94.5 82.5v537q0 31 22.5 53.5t53.5 22.5h84q31 0 53.5 -22.5t22.5 -53.5v-770q0 -31 -22.5 -53.5t-53.5 -22.5h-84q-31 0 -53.5 22.5t-22.5 53.5v37q-47 -59 -121.5 -97.5t-173.5 -38.5q-143 0 -233 96t-90 285v488
q0 31 22 53.5t53 22.5h84q31 0 53.5 -22.5t22.5 -53.5v-438zM516 1419l123 -190q12 -21 12 -47q0 -50 -37 -74q-21 -16 -53 -16q-47 0 -74 30l-145 166q-20 20 -20 53q0 41 30 62l51 37q22 16 48 16q44 0 65 -37z" />
    <glyph glyph-name="uacute" unicode="&#xfa;" horiz-adv-x="1095" 
d="M346 408q0 -211 176 -211q58 0 112.5 29.5t94.5 82.5v537q0 31 22.5 53.5t53.5 22.5h84q31 0 53.5 -22.5t22.5 -53.5v-770q0 -31 -22.5 -53.5t-53.5 -22.5h-84q-31 0 -53.5 22.5t-22.5 53.5v37q-47 -59 -121.5 -97.5t-173.5 -38.5q-143 0 -233 96t-90 285v488
q0 31 22 53.5t53 22.5h84q31 0 53.5 -22.5t22.5 -53.5v-438zM457 1229l125 194q21 35 65 35q27 0 47 -14l49 -37q31 -22 31 -64q0 -30 -18 -51l-148 -170q-27 -30 -69 -30q-30 0 -56 16q-39 26 -39 76q0 22 13 45z" />
    <glyph glyph-name="ucircumflex" unicode="&#xfb;" horiz-adv-x="1095" 
d="M346 408q0 -211 176 -211q58 0 112.5 29.5t94.5 82.5v537q0 31 22.5 53.5t53.5 22.5h84q31 0 53.5 -22.5t22.5 -53.5v-770q0 -31 -22.5 -53.5t-53.5 -22.5h-84q-31 0 -53.5 22.5t-22.5 53.5v37q-47 -59 -121.5 -97.5t-173.5 -38.5q-143 0 -233 96t-90 285v488
q0 31 22 53.5t53 22.5h84q31 0 53.5 -22.5t22.5 -53.5v-438zM350 1071q-43 0 -67 35q-19 22 -19 53q0 42 33 72l182 158q27 24 68 24q42 0 69 -27l181 -155q30 -27 30 -70q0 -36 -20 -59q-27 -35 -70 -35q-28 0 -55 20l-137 111l-139 -108q-25 -19 -56 -19z" />
    <glyph glyph-name="udieresis" unicode="&#xfc;" horiz-adv-x="1095" 
d="M346 408q0 -211 176 -211q58 0 112.5 29.5t94.5 82.5v537q0 31 22.5 53.5t53.5 22.5h84q31 0 53.5 -22.5t22.5 -53.5v-770q0 -31 -22.5 -53.5t-53.5 -22.5h-84q-31 0 -53.5 22.5t-22.5 53.5v37q-47 -59 -121.5 -97.5t-173.5 -38.5q-143 0 -233 96t-90 285v488
q0 31 22 53.5t53 22.5h84q31 0 53.5 -22.5t22.5 -53.5v-438zM344 1090q-56 0 -94.5 36.5t-38.5 100.5q0 60 38.5 95.5t94.5 35.5q49 0 86 -36t37 -95q0 -63 -37 -100t-86 -37zM750 1090q-55 0 -93.5 37t-38.5 100q0 59 38.5 95t93.5 36q50 0 86 -36t36 -95q0 -63 -36 -100
t-86 -37z" />
    <glyph glyph-name="yacute" unicode="&#xfd;" horiz-adv-x="1013" 
d="M498 418q16 -41 45 -133q17 90 32 135l142 430q10 32 38 52t62 20h60q37 0 63.5 -27.5t26.5 -63.5q0 -16 -6 -34l-314 -797q-66 -169 -123.5 -259.5t-109 -120.5t-123.5 -30q-80 0 -156 39q-37 18 -37 60q0 14 6 26l27 56q12 26 25 35.5t34 9.5t48 -6q12 -3 26 -3
q84 0 142 144l20 49l-371 801q-8 20 -8 35q0 34 25 60t61 26h88q28 0 52 -16t34 -42zM397 1229l125 194q21 35 66 35q27 0 47 -14l49 -37q31 -22 31 -64q0 -29 -19 -51l-147 -170q-27 -30 -70 -30q-29 0 -55 16q-39 26 -39 76q0 24 12 45z" />
    <glyph glyph-name="thorn" unicode="&#xfe;" horiz-adv-x="1142" 
d="M1069 475q0 -214 -134.5 -356t-352.5 -142q-136 0 -215 46v-357q0 -31 -22.5 -53.5t-53.5 -22.5h-84q-31 0 -53.5 22.5t-22.5 53.5v1692q0 31 22.5 53.5t53.5 22.5h84q31 0 53.5 -22.5t22.5 -53.5v-510q110 96 284 96q188 0 303 -131.5t115 -337.5zM367 623v-373
q81 -53 194 -53q120 0 189 76.5t69 195.5q0 113 -63.5 183.5t-177.5 70.5q-121 0 -211 -100z" />
    <glyph glyph-name="ydieresis" unicode="&#xff;" horiz-adv-x="1013" 
d="M498 418q16 -41 45 -133q17 90 32 135l142 430q10 32 38 52t62 20h60q37 0 63.5 -27.5t26.5 -63.5q0 -16 -6 -34l-314 -797q-66 -169 -123.5 -259.5t-109 -120.5t-123.5 -30q-80 0 -156 39q-37 18 -37 60q0 14 6 26l27 56q12 26 25 35.5t34 9.5t48 -6q12 -3 26 -3
q84 0 142 144l20 49l-371 801q-8 20 -8 35q0 34 25 60t61 26h88q28 0 52 -16t34 -42zM322 1090q-57 0 -95.5 36.5t-38.5 100.5q0 60 39 95.5t95 35.5q49 0 85.5 -36t36.5 -95q0 -63 -36.5 -100t-85.5 -37zM727 1090q-55 0 -93 37t-38 100q0 59 38 95t93 36q50 0 86.5 -36
t36.5 -95q0 -63 -36.5 -100t-86.5 -37z" />
    <glyph glyph-name="Amacron" unicode="&#x100;" horiz-adv-x="1445" 
d="M1022 367h-612l-127 -310q-9 -26 -32.5 -41.5t-51.5 -15.5h-74q-35 0 -57.5 23.5t-22.5 56.5q0 14 6 29l537 1271q10 26 34 42t52 16h98q28 0 52 -16t34 -42l537 -1271q6 -15 6 -29q0 -33 -22.5 -56.5t-57.5 -23.5h-88q-28 0 -51.5 15.5t-32.5 41.5zM717 1112l-211 -510
h420zM1038 1669v-37q0 -31 -22 -53.5t-53 -22.5h-482q-31 0 -53 22.5t-22 53.5v37q0 31 22 53.5t53 22.5h482q31 0 53 -22.5t22 -53.5z" />
    <glyph glyph-name="amacron" unicode="&#x101;" horiz-adv-x="948" 
d="M360 -12q-129 0 -208.5 75.5t-79.5 206.5q0 146 94.5 222.5t241.5 76.5q60 0 116.5 -16.5t91.5 -42.5v29q0 106 -39.5 157.5t-132.5 51.5q-80 0 -157 -25q-18 -6 -37 -6q-49 0 -70 43l-12 24q-8 20 -8 33q0 20 12 38.5t31 27.5q132 61 266 61q197 0 283 -96t86 -287v-485
q0 -31 -22.5 -53.5t-53.5 -22.5h-53q-31 0 -53.5 22.5t-22.5 53.5v30q-38 -54 -109.5 -86t-163.5 -32zM616 270v95q-60 45 -161 45q-63 0 -105.5 -29.5t-42.5 -85.5q0 -51 37 -80t94 -29q119 0 178 84zM768 1239v-37q0 -31 -22.5 -53.5t-53.5 -22.5h-420q-31 0 -53 22.5
t-22 53.5v37q0 31 22 53.5t53 22.5h420q31 0 53.5 -22.5t22.5 -53.5z" />
    <glyph glyph-name="Abreve" unicode="&#x102;" horiz-adv-x="1445" 
d="M1022 367h-612l-127 -310q-9 -26 -32.5 -41.5t-51.5 -15.5h-74q-35 0 -57.5 23.5t-22.5 56.5q0 14 6 29l537 1271q10 26 34 42t52 16h98q28 0 52 -16t34 -42l537 -1271q6 -15 6 -29q0 -33 -22.5 -56.5t-57.5 -23.5h-88q-28 0 -51.5 15.5t-32.5 41.5zM717 1112l-211 -510
h420zM1112 1739q0 -33 -18 -51q-66 -74 -165.5 -126.5t-195.5 -52.5q-107 0 -202 51t-164 128q-19 19 -19 51t23 55q25 25 55 25q31 0 70 -27q97 -78 237 -78q132 0 232 78q39 27 67 27q33 0 58 -25q22 -19 22 -55z" />
    <glyph glyph-name="abreve" unicode="&#x103;" horiz-adv-x="948" 
d="M360 -12q-129 0 -208.5 75.5t-79.5 206.5q0 146 94.5 222.5t241.5 76.5q60 0 116.5 -16.5t91.5 -42.5v29q0 106 -39.5 157.5t-132.5 51.5q-80 0 -157 -25q-18 -6 -37 -6q-49 0 -70 43l-12 24q-8 20 -8 33q0 20 12 38.5t31 27.5q132 61 266 61q197 0 283 -96t86 -287v-485
q0 -31 -22.5 -53.5t-53.5 -22.5h-53q-31 0 -53.5 22.5t-22.5 53.5v30q-38 -54 -109.5 -86t-163.5 -32zM616 270v95q-60 45 -161 45q-63 0 -105.5 -29.5t-42.5 -85.5q0 -51 37 -80t94 -29q119 0 178 84zM786 1305q0 -26 -14 -43q-132 -172 -311 -172q-176 0 -291 170
q-14 21 -14 43q0 33 28 55q22 16 47 16q34 0 58 -24q81 -70 182 -70q104 0 186 68q31 24 60 24q24 0 45 -16q24 -18 24 -51z" />
    <glyph glyph-name="Aogonek" unicode="&#x104;" horiz-adv-x="1445" 
d="M1022 367h-612l-127 -310q-9 -26 -32.5 -41.5t-51.5 -15.5h-74q-35 0 -57.5 23.5t-22.5 56.5q0 14 6 29l537 1271q10 26 34 42t52 16h98q28 0 52 -16t34 -42l537 -1271q6 -15 6 -29q0 -33 -22.5 -56.5t-57.5 -23.5q-90 0 -156.5 -42.5t-66.5 -96.5q0 -42 28 -62t64 -20
q21 0 31 2t28 2q53 0 66 -43l12 -39q4 -16 4 -23q0 -39 -45 -59q-64 -29 -149 -29q-116 0 -195.5 48t-79.5 145q0 66 43.5 117.5t110 81.5t151.5 45q-12 12 -18 30zM717 1112l-211 -510h420z" />
    <glyph glyph-name="aogonek" unicode="&#x105;" horiz-adv-x="948" 
d="M360 -12q-129 0 -208.5 75.5t-79.5 206.5q0 146 94.5 222.5t241.5 76.5q60 0 116.5 -16.5t91.5 -42.5v29q0 106 -39.5 157.5t-132.5 51.5q-80 0 -157 -25q-18 -6 -37 -6q-49 0 -70 43l-12 24q-8 20 -8 33q0 20 12 38.5t31 27.5q132 61 266 61q197 0 283 -96t86 -287v-485
q0 -31 -22.5 -53.5t-53.5 -22.5h-10q-87 -1 -150 -44t-63 -95q0 -42 28 -62t64 -20q5 0 20 1t21 1q29 0 40.5 -1.5t21.5 -10t16 -27.5l16 -51q2 -4 2 -15q0 -16 -9.5 -31.5t-23.5 -21.5q-71 -33 -157 -33q-116 0 -195.5 48t-79.5 145q0 69 50.5 123t125 84t166.5 43
q-12 18 -12 43v30q-38 -54 -109.5 -86t-163.5 -32zM616 270v95q-60 45 -161 45q-63 0 -105.5 -29.5t-42.5 -85.5q0 -51 37 -80t94 -29q119 0 178 84z" />
    <glyph glyph-name="Cacute" unicode="&#x106;" horiz-adv-x="1331" 
d="M1079 1151q-137 70 -254 70q-204 0 -335.5 -137.5t-131.5 -366.5q0 -224 138 -364t358 -140q127 0 258 72q24 12 47 12q46 0 66 -35l37 -57q14 -20 14 -47q0 -39 -29 -58q-187 -123 -416 -123q-217 0 -385 91.5t-261 260t-93 388.5q0 155 48.5 289t139.5 234.5t231.5 158
t313.5 57.5q92 0 192.5 -28t182.5 -74q41 -20 41 -60q0 -20 -12 -41l-43 -75q-23 -39 -62 -39q-24 0 -45 12zM682 1673l303 158q13 8 33 8q46 0 65 -43l27 -63q6 -12 6 -29q0 -22 -13 -40.5t-34 -25.5l-317 -116q-8 -4 -27 -4q-56 0 -78 51q-8 13 -8 35t11.5 41t31.5 28z
" />
    <glyph glyph-name="cacute" unicode="&#x107;" horiz-adv-x="1005" 
d="M782 678q-18 0 -37 8q-75 37 -163 37q-103 0 -179.5 -72.5t-76.5 -189.5q0 -119 78.5 -191.5t187.5 -72.5q98 0 178 53q26 16 49 16q40 0 64 -30l35 -43q14 -14 14 -41q0 -43 -29 -66q-79 -62 -154 -85.5t-169 -23.5q-229 0 -367.5 133t-138.5 351q0 133 60 243.5
t170 175t247 64.5q174 0 303 -70q17 -9 27 -27.5t10 -39.5q0 -20 -8 -33l-31 -53q-25 -43 -70 -43zM446 1229l125 194q21 35 66 35q27 0 47 -14l49 -37q31 -22 31 -64q0 -29 -19 -51l-147 -170q-27 -30 -70 -30q-29 0 -55 16q-39 26 -39 76q0 24 12 45z" />
    <glyph glyph-name="Ccircumflex" unicode="&#x108;" horiz-adv-x="1331" 
d="M1079 1151q-137 70 -254 70q-204 0 -335.5 -137.5t-131.5 -366.5q0 -224 138 -364t358 -140q127 0 258 72q24 12 47 12q46 0 66 -35l37 -57q14 -20 14 -47q0 -39 -29 -58q-187 -123 -416 -123q-217 0 -385 91.5t-261 260t-93 388.5q0 155 48.5 289t139.5 234.5t231.5 158
t313.5 57.5q92 0 192.5 -28t182.5 -74q41 -20 41 -60q0 -20 -12 -41l-43 -75q-23 -39 -62 -39q-24 0 -45 12zM788 1636l-208 -108q-15 -10 -41 -10q-47 0 -70 36q-12 18 -12 43q0 44 35 68l231 143q30 21 68 21q33 0 65 -19l236 -145q34 -21 34 -66q0 -25 -14 -45
q-26 -36 -72 -36q-26 0 -43 10z" />
    <glyph glyph-name="ccircumflex" unicode="&#x109;" horiz-adv-x="1005" 
d="M782 678q-18 0 -37 8q-75 37 -163 37q-103 0 -179.5 -72.5t-76.5 -189.5q0 -119 78.5 -191.5t187.5 -72.5q98 0 178 53q26 16 49 16q40 0 64 -30l35 -43q14 -14 14 -41q0 -43 -29 -66q-79 -62 -154 -85.5t-169 -23.5q-229 0 -367.5 133t-138.5 351q0 133 60 243.5
t170 175t247 64.5q174 0 303 -70q17 -9 27 -27.5t10 -39.5q0 -20 -8 -33l-31 -53q-25 -43 -70 -43zM371 1071q-44 0 -68 35q-18 21 -18 53q0 43 32 72l183 158q27 24 67 24q43 0 70 -27l180 -155q31 -28 31 -70q0 -35 -21 -59q-27 -35 -69 -35q-29 0 -56 20l-137 111
l-139 -108q-25 -19 -55 -19z" />
    <glyph glyph-name="Cdotaccent" unicode="&#x10a;" horiz-adv-x="1331" 
d="M1079 1151q-137 70 -254 70q-204 0 -335.5 -137.5t-131.5 -366.5q0 -224 138 -364t358 -140q127 0 258 72q24 12 47 12q46 0 66 -35l37 -57q14 -20 14 -47q0 -39 -29 -58q-187 -123 -416 -123q-217 0 -385 91.5t-261 260t-93 388.5q0 155 48.5 289t139.5 234.5t231.5 158
t313.5 57.5q92 0 192.5 -28t182.5 -74q41 -20 41 -60q0 -20 -12 -41l-43 -75q-23 -39 -62 -39q-24 0 -45 12zM784 1847q62 0 108 -40t46 -105q0 -70 -46 -112t-108 -42q-68 0 -114.5 41.5t-46.5 112.5q0 65 47 105t114 40z" />
    <glyph glyph-name="cdotaccent" unicode="&#x10b;" horiz-adv-x="1005" 
d="M782 678q-18 0 -37 8q-75 37 -163 37q-103 0 -179.5 -72.5t-76.5 -189.5q0 -119 78.5 -191.5t187.5 -72.5q98 0 178 53q26 16 49 16q40 0 64 -30l35 -43q14 -14 14 -41q0 -43 -29 -66q-79 -62 -154 -85.5t-169 -23.5q-229 0 -367.5 133t-138.5 351q0 133 60 243.5
t170 175t247 64.5q174 0 303 -70q17 -9 27 -27.5t10 -39.5q0 -20 -8 -33l-31 -53q-25 -43 -70 -43zM563 1391q54 0 94.5 -38.5t40.5 -99.5q0 -67 -40.5 -107t-94.5 -40q-63 0 -105 39.5t-42 107.5q0 61 42.5 99.5t104.5 38.5z" />
    <glyph glyph-name="Ccaron" unicode="&#x10c;" horiz-adv-x="1331" 
d="M1079 1151q-137 70 -254 70q-204 0 -335.5 -137.5t-131.5 -366.5q0 -224 138 -364t358 -140q127 0 258 72q24 12 47 12q46 0 66 -35l37 -57q14 -20 14 -47q0 -39 -29 -58q-187 -123 -416 -123q-217 0 -385 91.5t-261 260t-93 388.5q0 155 48.5 289t139.5 234.5t231.5 158
t313.5 57.5q92 0 192.5 -28t182.5 -74q41 -20 41 -60q0 -20 -12 -41l-43 -75q-23 -39 -62 -39q-24 0 -45 12zM1049 1837q45 0 67 -35q12 -18 12 -41q0 -44 -36 -69l-230 -144q-29 -20 -69 -20q-38 0 -68 18l-231 146q-35 21 -35 65q0 27 14 47q24 35 68 35q24 0 45 -12
l211 -123l209 123q15 10 43 10z" />
    <glyph glyph-name="ccaron" unicode="&#x10d;" horiz-adv-x="1005" 
d="M782 678q-18 0 -37 8q-75 37 -163 37q-103 0 -179.5 -72.5t-76.5 -189.5q0 -119 78.5 -191.5t187.5 -72.5q98 0 178 53q26 16 49 16q40 0 64 -30l35 -43q14 -14 14 -41q0 -43 -29 -66q-79 -62 -154 -85.5t-169 -23.5q-229 0 -367.5 133t-138.5 351q0 133 60 243.5
t170 175t247 64.5q174 0 303 -70q17 -9 27 -27.5t10 -39.5q0 -20 -8 -33l-31 -53q-25 -43 -70 -43zM758 1415q35 0 61 -26q21 -24 21 -56q0 -42 -31 -67l-191 -166q-28 -25 -67 -25q-43 0 -70 27l-188 164q-29 29 -29 67q0 32 23 58q22 28 65 28q38 0 60 -22l141 -129
l143 125q28 22 62 22z" />
    <glyph glyph-name="Dcaron" unicode="&#x10e;" horiz-adv-x="1517" 
d="M274 1434q339 6 347 6q167 0 303 -37.5t228 -102.5t154.5 -155.5t90.5 -194t28 -219.5q0 -122 -32.5 -231t-99.5 -201.5t-163 -159.5t-231 -105t-295 -38q-64 0 -330 4q-31 0 -53 22.5t-22 53.5v1282q0 31 21.5 53.5t53.5 22.5zM451 1198v-962q88 -5 161 -5
q257 0 402 135t145 365q0 218 -144 345.5t-399 127.5q-80 0 -165 -6zM942 1837q46 0 68 -35q12 -18 12 -41q0 -43 -37 -69l-229 -144q-29 -20 -70 -20q-38 0 -68 18l-231 146q-35 21 -35 65q0 26 15 47q24 35 67 35q24 0 45 -12l211 -123l209 123q15 10 43 10z" />
    <glyph glyph-name="dcaron" unicode="&#x10f;" horiz-adv-x="1138" 
d="M848 1434h84q31 0 53.5 -22.5t22.5 -53.5v-1282q0 -31 -22.5 -53.5t-53.5 -22.5h-84q-31 0 -53.5 22.5t-22.5 53.5v20q-104 -112 -264 -112q-197 0 -315.5 128t-118.5 339q0 218 141.5 355.5t364.5 137.5q118 0 192 -45v459q0 31 22.5 53.5t53.5 22.5zM772 297v371
q-88 55 -182 55q-110 0 -187 -71t-77 -193q0 -119 66.5 -187.5t164.5 -68.5q121 0 215 94zM1110 1108q0 27 18 57q50 76 50 142q0 18 -2 26q-7 35 -7 51q0 27 13.5 38.5t44.5 11.5h98q38 0 54 -21.5t16 -48.5q0 -201 -144 -317q-20 -17 -55 -17t-57 19q-29 26 -29 59z" />
    <glyph glyph-name="Dcroat" unicode="&#x110;" horiz-adv-x="1533" 
d="M465 608v-372q87 -5 164 -5q257 0 402 135t145 365q0 218 -144 345.5t-399 127.5q-83 0 -168 -6v-369h287q31 0 53 -22t22 -53v-70q0 -31 -22 -53.5t-53 -22.5h-287zM621 -4q-43 0 -166 2t-164 2q-31 0 -53.5 22.5t-22.5 53.5v532h-119q-31 0 -53.5 22.5t-22.5 53.5v70
q0 31 22.5 53t53.5 22h119v529q0 31 22.5 53.5t53.5 22.5q10 0 147 3t199 3q167 0 303 -37.5t228.5 -102.5t155 -155.5t90.5 -194t28 -219.5q0 -122 -32.5 -231t-99.5 -201.5t-163 -159.5t-231 -105t-295 -38z" />
    <glyph glyph-name="dcroat" unicode="&#x111;" horiz-adv-x="1138" 
d="M508 -16q-197 0 -315.5 128t-118.5 339q0 218 141.5 355.5t364.5 137.5q118 0 192 -45v166h-190q-31 0 -53.5 22.5t-22.5 53.5v39q0 31 22.5 53t53.5 22h190v103q0 31 22.5 53.5t53.5 22.5h84q31 0 53.5 -22.5t22.5 -53.5v-103h86q31 0 53 -22t22 -53v-39
q0 -31 -22 -53.5t-53 -22.5h-86v-989q0 -31 -22.5 -53.5t-53.5 -22.5h-84q-31 0 -53.5 22.5t-22.5 53.5v20q-104 -112 -264 -112zM772 297v371q-88 55 -182 55q-110 0 -187 -71t-77 -193q0 -119 66.5 -187.5t164.5 -68.5q121 0 215 94z" />
    <glyph glyph-name="Emacron" unicode="&#x112;" horiz-adv-x="1177" 
d="M1049 160v-84q0 -31 -22.5 -53.5t-53.5 -22.5h-699q-31 0 -53 22.5t-22 53.5v1282q0 31 22 53.5t53 22.5h678q31 0 53.5 -22.5t22.5 -53.5v-84q0 -31 -22.5 -53.5t-53.5 -22.5h-501v-356h440q31 0 53.5 -22.5t22.5 -53.5v-84q0 -31 -22.5 -53.5t-53.5 -22.5h-440v-370
h522q31 0 53.5 -22.5t22.5 -53.5zM930 1669v-37q0 -31 -22.5 -53.5t-53.5 -22.5h-481q-31 0 -53.5 22.5t-22.5 53.5v37q0 31 22.5 53.5t53.5 22.5h481q31 0 53.5 -22.5t22.5 -53.5z" />
    <glyph glyph-name="emacron" unicode="&#x113;" horiz-adv-x="1071" 
d="M309 547h453v4q0 86 -57 141.5t-154 55.5q-102 0 -162 -53t-80 -148zM594 174q100 0 180 39q28 14 47 14q36 0 60 -34l18 -27q12 -18 12 -41q0 -43 -32 -62q-138 -86 -310 -86q-223 0 -359 133t-136 351q0 100 34 188.5t95.5 153.5t154 103t203.5 38q183 0 309.5 -119.5
t126.5 -308.5q0 -37 -2 -53q-2 -26 -27 -50t-53 -24h-598q15 -102 90.5 -158.5t186.5 -56.5zM827 1239v-37q0 -31 -22 -53.5t-53 -22.5h-420q-31 0 -53.5 22.5t-22.5 53.5v37q0 31 22.5 53.5t53.5 22.5h420q31 0 53 -22.5t22 -53.5z" />
    <glyph glyph-name="Edotaccent" unicode="&#x116;" horiz-adv-x="1177" 
d="M1049 160v-84q0 -31 -22.5 -53.5t-53.5 -22.5h-699q-31 0 -53 22.5t-22 53.5v1282q0 31 22 53.5t53 22.5h678q31 0 53.5 -22.5t22.5 -53.5v-84q0 -31 -22.5 -53.5t-53.5 -22.5h-501v-356h440q31 0 53.5 -22.5t22.5 -53.5v-84q0 -31 -22.5 -53.5t-53.5 -22.5h-440v-370
h522q31 0 53.5 -22.5t22.5 -53.5zM627 1847q62 0 107.5 -40t45.5 -105q0 -70 -45.5 -112t-107.5 -42q-68 0 -115 41.5t-47 112.5q0 65 47.5 105t114.5 40z" />
    <glyph glyph-name="edotaccent" unicode="&#x117;" horiz-adv-x="1071" 
d="M309 547h453v4q0 86 -57 141.5t-154 55.5q-102 0 -162 -53t-80 -148zM594 174q100 0 180 39q28 14 47 14q36 0 60 -34l18 -27q12 -18 12 -41q0 -43 -32 -62q-138 -86 -310 -86q-223 0 -359 133t-136 351q0 100 34 188.5t95.5 153.5t154 103t203.5 38q183 0 309.5 -119.5
t126.5 -308.5q0 -37 -2 -53q-2 -26 -27 -50t-53 -24h-598q15 -102 90.5 -158.5t186.5 -56.5zM551 1391q54 0 94.5 -38.5t40.5 -99.5q0 -67 -40.5 -107t-94.5 -40q-63 0 -105.5 39.5t-42.5 107.5q0 61 43 99.5t105 38.5z" />
    <glyph glyph-name="Eogonek" unicode="&#x118;" horiz-adv-x="1177" 
d="M1049 160v-84q0 -31 -22.5 -53.5t-53.5 -22.5h-10q-87 -1 -150 -44t-63 -95q0 -42 28 -62t64 -20q20 0 30 2t29 2q53 0 66 -43l12 -39q4 -16 4 -23q0 -39 -45 -59q-64 -29 -150 -29q-116 0 -195 48t-79 145q0 76 55.5 131t147.5 86h-443q-31 0 -53 22.5t-22 53.5v1282
q0 31 22 53.5t53 22.5h678q31 0 53.5 -22.5t22.5 -53.5v-84q0 -31 -22.5 -53.5t-53.5 -22.5h-501v-356h440q31 0 53.5 -22.5t22.5 -53.5v-84q0 -31 -22.5 -53.5t-53.5 -22.5h-440v-370h522q31 0 53.5 -22.5t22.5 -53.5z" />
    <glyph glyph-name="eogonek" unicode="&#x119;" horiz-adv-x="1071" 
d="M594 174q100 0 180 39q28 14 47 14q36 0 60 -34l18 -27q12 -18 12 -41q0 -43 -32 -62q-128 -79 -289 -86q-48 -21 -76.5 -52t-28.5 -64q0 -42 28.5 -62t64.5 -20q5 0 19.5 1t20.5 1q29 0 40.5 -1.5t21.5 -10t16 -27.5l17 -51q2 -4 2 -15q0 -16 -9.5 -31.5t-23.5 -21.5
q-71 -33 -158 -33q-116 0 -195 48t-79 145q0 71 49.5 124.5t132.5 86.5q-165 37 -261.5 161t-96.5 306q0 100 34 188.5t95.5 153.5t154 103t203.5 38q183 0 309.5 -119.5t126.5 -308.5q0 -37 -2 -53q-2 -26 -27 -50t-53 -24h-598q15 -102 90.5 -158.5t186.5 -56.5zM309 547
h453v4q0 86 -57 141.5t-154 55.5q-102 0 -162 -53t-80 -148z" />
    <glyph glyph-name="Ecaron" unicode="&#x11a;" horiz-adv-x="1177" 
d="M1049 160v-84q0 -31 -22.5 -53.5t-53.5 -22.5h-699q-31 0 -53 22.5t-22 53.5v1282q0 31 22 53.5t53 22.5h678q31 0 53.5 -22.5t22.5 -53.5v-84q0 -31 -22.5 -53.5t-53.5 -22.5h-501v-356h440q31 0 53.5 -22.5t22.5 -53.5v-84q0 -31 -22.5 -53.5t-53.5 -22.5h-440v-370
h522q31 0 53.5 -22.5t22.5 -53.5zM885 1837q45 0 67 -35q13 -20 13 -41q0 -43 -37 -69l-230 -144q-29 -20 -69 -20q-38 0 -68 18l-231 146q-35 21 -35 65q0 27 14 47q24 35 68 35q24 0 45 -12l211 -123l209 123q15 10 43 10z" />
    <glyph glyph-name="ecaron" unicode="&#x11b;" horiz-adv-x="1071" 
d="M309 547h453v4q0 86 -57 141.5t-154 55.5q-102 0 -162 -53t-80 -148zM594 174q100 0 180 39q28 14 47 14q36 0 60 -34l18 -27q12 -18 12 -41q0 -43 -32 -62q-138 -86 -310 -86q-223 0 -359 133t-136 351q0 100 34 188.5t95.5 153.5t154 103t203.5 38q183 0 309.5 -119.5
t126.5 -308.5q0 -37 -2 -53q-2 -26 -27 -50t-53 -24h-598q15 -102 90.5 -158.5t186.5 -56.5zM766 1415q35 0 61 -26q21 -24 21 -56q0 -42 -31 -67l-190 -166q-28 -25 -68 -25q-43 0 -70 27l-188 164q-29 29 -29 67q0 32 23 58q22 28 65 28q38 0 60 -22l141 -129l144 125
q28 22 61 22z" />
    <glyph glyph-name="Gcircumflex" unicode="&#x11c;" horiz-adv-x="1488" 
d="M358 717q0 -228 133.5 -366t352.5 -138q82 0 169 29.5t128 68.5v226h-271q-31 0 -53 22t-22 53v84q0 31 22 53.5t53 22.5h430q31 0 53.5 -22.5t22.5 -53.5v-463q0 -62 -47 -96q-95 -74 -230.5 -117t-258.5 -43q-348 0 -548 201t-200 539q0 154 50.5 289t142 235
t226.5 157.5t296 57.5q136 0 234.5 -24t195.5 -84q27 -17 27 -54q0 -20 -13 -43l-45 -73q-20 -35 -61 -35q-23 0 -47 12q-125 66 -260 66q-212 0 -346 -135t-134 -369zM788 1636l-208 -108q-15 -10 -41 -10q-47 0 -70 36q-12 18 -12 43q0 44 35 68l231 143q30 21 68 21
q33 0 65 -19l236 -145q34 -21 34 -66q0 -25 -14 -45q-26 -36 -72 -36q-26 0 -43 10z" />
    <glyph glyph-name="gcircumflex" unicode="&#x11d;" horiz-adv-x="1038" 
d="M479 258q-12 -12 -12 -35q0 -29 18 -47q104 0 190.5 -18.5t153 -54.5t103.5 -94t37 -134q0 -100 -65 -169t-171 -100.5t-244 -31.5q-139 0 -244 30.5t-170 99.5t-65 171q0 111 80.5 183.5t218.5 101.5q-16 29 -16 63q0 40 20 66q-103 41 -161 124t-58 185q0 144 108 245
t285 101q136 0 236 -65l205 45q6 2 16 2q26 0 48 -17t28 -43l6 -32q2 -6 2 -19q0 -27 -15.5 -47.5t-41.5 -24.5l-115 -26q23 -61 23 -119q0 -143 -110.5 -241.5t-289.5 -98.5zM489 -12q-124 0 -192 -30.5t-68 -82.5q0 -54 69.5 -83.5t190.5 -29.5q122 0 190.5 29t68.5 84
q0 52 -67 82.5t-192 30.5zM487 754q-77 0 -124.5 -45.5t-47.5 -110.5q0 -66 47 -107.5t125 -41.5q76 0 124 40.5t48 108.5q0 67 -46 111.5t-126 44.5zM303 1071q-43 0 -67 35q-19 22 -19 53q0 42 33 72l182 158q27 24 68 24q42 0 69 -27l181 -155q30 -27 30 -70
q0 -36 -20 -59q-27 -35 -70 -35q-28 0 -55 20l-137 111l-140 -108q-25 -19 -55 -19z" />
    <glyph glyph-name="Gbreve" unicode="&#x11e;" horiz-adv-x="1488" 
d="M358 717q0 -228 133.5 -366t352.5 -138q82 0 169 29.5t128 68.5v226h-271q-31 0 -53 22t-22 53v84q0 31 22 53.5t53 22.5h430q31 0 53.5 -22.5t22.5 -53.5v-463q0 -62 -47 -96q-95 -74 -230.5 -117t-258.5 -43q-348 0 -548 201t-200 539q0 154 50.5 289t142 235
t226.5 157.5t296 57.5q136 0 234.5 -24t195.5 -84q27 -17 27 -54q0 -20 -13 -43l-45 -73q-20 -35 -61 -35q-23 0 -47 12q-125 66 -260 66q-212 0 -346 -135t-134 -369zM1212 1739q0 -33 -18 -51q-66 -74 -165 -126.5t-195 -52.5q-108 0 -203 51t-164 128q-18 18 -18 51
t22 55q25 25 55 25q31 0 70 -27q97 -78 238 -78q131 0 231 78q39 27 68 27q32 0 57 -25q22 -19 22 -55z" />
    <glyph glyph-name="gbreve" unicode="&#x11f;" horiz-adv-x="1038" 
d="M479 258q-12 -12 -12 -35q0 -29 18 -47q104 0 190.5 -18.5t153 -54.5t103.5 -94t37 -134q0 -100 -65 -169t-171 -100.5t-244 -31.5q-139 0 -244 30.5t-170 99.5t-65 171q0 111 80.5 183.5t218.5 101.5q-16 29 -16 63q0 40 20 66q-103 41 -161 124t-58 185q0 144 108 245
t285 101q136 0 236 -65l205 45q6 2 16 2q26 0 48 -17t28 -43l6 -32q2 -6 2 -19q0 -27 -15.5 -47.5t-41.5 -24.5l-115 -26q23 -61 23 -119q0 -143 -110.5 -241.5t-289.5 -98.5zM489 -12q-124 0 -192 -30.5t-68 -82.5q0 -54 69.5 -83.5t190.5 -29.5q122 0 190.5 29t68.5 84
q0 52 -67 82.5t-192 30.5zM487 754q-77 0 -124.5 -45.5t-47.5 -110.5q0 -66 47 -107.5t125 -41.5q76 0 124 40.5t48 108.5q0 67 -46 111.5t-126 44.5zM813 1305q0 -26 -14 -43q-132 -172 -312 -172q-175 0 -290 170q-15 22 -15 43q0 32 29 55q22 16 47 16q33 0 57 -24
q81 -70 183 -70q104 0 186 68q31 24 59 24q24 0 45 -16q25 -19 25 -51z" />
    <glyph glyph-name="Gdotaccent" unicode="&#x120;" horiz-adv-x="1488" 
d="M358 717q0 -228 133.5 -366t352.5 -138q82 0 169 29.5t128 68.5v226h-271q-31 0 -53 22t-22 53v84q0 31 22 53.5t53 22.5h430q31 0 53.5 -22.5t22.5 -53.5v-463q0 -62 -47 -96q-95 -74 -230.5 -117t-258.5 -43q-348 0 -548 201t-200 539q0 154 50.5 289t142 235
t226.5 157.5t296 57.5q136 0 234.5 -24t195.5 -84q27 -17 27 -54q0 -20 -13 -43l-45 -73q-20 -35 -61 -35q-23 0 -47 12q-125 66 -260 66q-212 0 -346 -135t-134 -369zM774 1847q62 0 108 -40t46 -105q0 -70 -46 -112t-108 -42q-68 0 -115 41.5t-47 112.5q0 65 47.5 105
t114.5 40z" />
    <glyph glyph-name="gdotaccent" unicode="&#x121;" horiz-adv-x="1038" 
d="M479 258q-12 -12 -12 -35q0 -29 18 -47q104 0 190.5 -18.5t153 -54.5t103.5 -94t37 -134q0 -100 -65 -169t-171 -100.5t-244 -31.5q-139 0 -244 30.5t-170 99.5t-65 171q0 111 80.5 183.5t218.5 101.5q-16 29 -16 63q0 40 20 66q-103 41 -161 124t-58 185q0 144 108 245
t285 101q136 0 236 -65l205 45q6 2 16 2q26 0 48 -17t28 -43l6 -32q2 -6 2 -19q0 -27 -15.5 -47.5t-41.5 -24.5l-115 -26q23 -61 23 -119q0 -143 -110.5 -241.5t-289.5 -98.5zM489 -12q-124 0 -192 -30.5t-68 -82.5q0 -54 69.5 -83.5t190.5 -29.5q122 0 190.5 29t68.5 84
q0 52 -67 82.5t-192 30.5zM487 754q-77 0 -124.5 -45.5t-47.5 -110.5q0 -66 47 -107.5t125 -41.5q76 0 124 40.5t48 108.5q0 67 -46 111.5t-126 44.5zM494 1391q54 0 94.5 -38.5t40.5 -99.5q0 -67 -40.5 -107t-94.5 -40q-63 0 -105.5 39.5t-42.5 107.5q0 61 43 99.5
t105 38.5z" />
    <glyph glyph-name="Gcommaaccent" unicode="&#x122;" horiz-adv-x="1488" 
d="M358 717q0 -228 133.5 -366t352.5 -138q82 0 169 29.5t128 68.5v226h-271q-31 0 -53 22t-22 53v84q0 31 22 53.5t53 22.5h430q31 0 53.5 -22.5t22.5 -53.5v-463q0 -62 -47 -96q-95 -74 -230.5 -117t-258.5 -43q-348 0 -548 201t-200 539q0 154 50.5 289t142 235
t226.5 157.5t296 57.5q136 0 234.5 -24t195.5 -84q27 -17 27 -54q0 -20 -13 -43l-45 -73q-20 -35 -61 -35q-23 0 -47 12q-125 66 -260 66q-212 0 -346 -135t-134 -369zM664 -344q0 27 28 55q37 32 37 92q0 10 -1 26t-1 21q0 20 8 31t33 17l121 26q6 2 14 2q32 0 47 -29
t15 -65q0 -86 -57 -148.5t-140 -91.5q-12 -6 -31 -6q-42 0 -61 31q-12 18 -12 39z" />
    <glyph glyph-name="gcommaaccent" unicode="&#x123;" horiz-adv-x="1038" 
d="M479 258q-12 -12 -12 -35q0 -29 18 -47q104 0 190.5 -18.5t153 -54.5t103.5 -94t37 -134q0 -100 -65 -169t-171 -100.5t-244 -31.5q-139 0 -244 30.5t-170 99.5t-65 171q0 111 80.5 183.5t218.5 101.5q-16 29 -16 63q0 40 20 66q-103 41 -161 124t-58 185q0 144 108 245
t285 101q136 0 236 -65l205 45q6 2 16 2q26 0 48 -17t28 -43l6 -32q2 -6 2 -19q0 -27 -15.5 -47.5t-41.5 -24.5l-115 -26q23 -61 23 -119q0 -143 -110.5 -241.5t-289.5 -98.5zM489 -12q-124 0 -192 -30.5t-68 -82.5q0 -54 69.5 -83.5t190.5 -29.5q122 0 190.5 29t68.5 84
q0 52 -67 82.5t-192 30.5zM487 754q-77 0 -124.5 -45.5t-47.5 -110.5q0 -66 47 -107.5t125 -41.5q76 0 124 40.5t48 108.5q0 67 -46 111.5t-126 44.5zM651 1362q0 -27 -28 -55q-37 -32 -37 -93q0 -10 1 -26t1 -21q0 -20 -8 -30.5t-33 -16.5l-121 -26q-6 -2 -14 -2
q-32 0 -47 29t-15 65q0 86 57 148t140 91q14 7 31 7q42 0 61 -31q12 -18 12 -39z" />
    <glyph glyph-name="Hcircumflex" unicode="&#x124;" horiz-adv-x="1554" 
d="M1356 1358v-1282q0 -31 -22.5 -53.5t-53.5 -22.5h-98q-31 0 -53.5 22.5t-22.5 53.5v536h-655v-536q0 -31 -22.5 -53.5t-53.5 -22.5h-101q-31 0 -53 22.5t-22 53.5v1282q0 31 22 53.5t53 22.5h101q31 0 53.5 -22.5t22.5 -53.5v-510h655v510q0 31 22.5 53.5t53.5 22.5h98
q31 0 53.5 -22.5t22.5 -53.5zM776 1636l-209 -108q-15 -10 -41 -10q-46 0 -69 36q-13 20 -13 43q0 44 35 68l232 143q30 21 67 21q34 0 66 -19l235 -145q35 -21 35 -66q0 -25 -14 -45q-26 -36 -72 -36q-26 0 -43 10z" />
    <glyph glyph-name="hcircumflex" unicode="&#x125;" horiz-adv-x="1118" 
d="M774 504q0 102 -54 157.5t-151 55.5q-118 0 -202 -84v-557q0 -31 -22.5 -53.5t-53.5 -22.5h-84q-31 0 -53.5 22.5t-22.5 53.5v1282q0 31 22.5 53.5t53.5 22.5h84q31 0 53.5 -22.5t22.5 -53.5v-520q46 44 116.5 72t147.5 28q178 0 278.5 -97.5t100.5 -305.5v-459
q0 -31 -22.5 -53.5t-53.5 -22.5h-84q-31 0 -53.5 22.5t-22.5 53.5v428zM311 1636l-209 -108q-15 -10 -41 -10q-46 0 -69 36q-12 18 -12 43q0 44 34 68l232 143q30 21 67 21q34 0 66 -19l235 -145q35 -21 35 -66q0 -25 -14 -45q-26 -36 -72 -36q-25 0 -43 10z" />
    <glyph glyph-name="Hbar" unicode="&#x126;" horiz-adv-x="1574" 
d="M385 0h-100q-31 0 -53.5 22.5t-22.5 53.5v960h-88q-31 0 -53.5 22.5t-22.5 53.5v68q0 31 22.5 53t53.5 22h88v103q0 31 22.5 53.5t53.5 22.5h100q31 0 53.5 -22.5t22.5 -53.5v-103h655v103q0 31 22.5 53.5t53.5 22.5h98q31 0 53.5 -22.5t22.5 -53.5v-103h88
q31 0 53.5 -22t22.5 -53v-68q0 -31 -22.5 -53.5t-53.5 -22.5h-88v-960q0 -31 -22.5 -53.5t-53.5 -22.5h-98q-31 0 -53.5 22.5t-22.5 53.5v536h-655v-536q0 -31 -22.5 -53.5t-53.5 -22.5zM1116 848v188h-655v-188h655z" />
    <glyph glyph-name="hbar" unicode="&#x127;" horiz-adv-x="1193" 
d="M367 0h-84q-31 0 -53.5 22.5t-22.5 53.5v958h-141q-31 0 -53.5 22.5t-22.5 53.5v68q0 31 22.5 53t53.5 22h141v105q0 31 22.5 53.5t53.5 22.5h84q31 0 53 -22.5t22 -53.5v-105h228q31 0 53 -22t22 -53v-68q0 -31 -22 -53.5t-53 -22.5h-228v-196q46 44 117 72t148 28
q178 0 278 -97.5t100 -305.5v-459q0 -31 -22 -53.5t-53 -22.5h-84q-31 0 -53.5 22.5t-22.5 53.5v428q0 102 -54 157.5t-151 55.5q-119 0 -203 -84v-557q0 -31 -22 -53.5t-53 -22.5z" />
    <glyph glyph-name="Imacron" unicode="&#x12a;" horiz-adv-x="710" 
d="M481 1358v-1282q0 -31 -22 -53.5t-53 -22.5h-101q-31 0 -53.5 22.5t-22.5 53.5v1282q0 31 22.5 53.5t53.5 22.5h101q31 0 53 -22.5t22 -53.5zM680 1669v-37q0 -31 -22.5 -53.5t-53.5 -22.5h-481q-31 0 -53.5 22.5t-22.5 53.5v37q0 31 22.5 53.5t53.5 22.5h481
q31 0 53.5 -22.5t22.5 -53.5z" />
    <glyph glyph-name="imacron" unicode="&#x12b;" horiz-adv-x="567" 
d="M242 922h84q31 0 53 -22.5t22 -53.5v-770q0 -31 -22 -53.5t-53 -22.5h-84q-31 0 -53.5 22.5t-22.5 53.5v770q0 31 22.5 53.5t53.5 22.5zM569 1239v-37q0 -31 -22 -53.5t-53 -22.5h-420q-31 0 -53.5 22.5t-22.5 53.5v37q0 31 22.5 53.5t53.5 22.5h420q31 0 53 -22.5
t22 -53.5z" />
    <glyph glyph-name="Iogonek" unicode="&#x12e;" horiz-adv-x="710" 
d="M481 1358v-1282q0 -31 -22 -53.5t-53 -22.5h-11q-87 -1 -150 -44t-63 -95q0 -42 28 -62t64 -20q21 0 31 2t29 2q52 0 65 -43l13 -39q4 -16 4 -23q0 -39 -45 -59q-64 -29 -150 -29q-116 0 -195 48t-79 145q0 95 84.5 157t216.5 87q-19 19 -19 49v1282q0 31 22.5 53.5
t53.5 22.5h101q31 0 53 -22.5t22 -53.5z" />
    <glyph glyph-name="iogonek" unicode="&#x12f;" horiz-adv-x="567" 
d="M242 922h84q31 0 53 -22.5t22 -53.5v-770q0 -31 -22 -53.5t-53 -22.5h-13q-87 -1 -150 -44t-63 -95q0 -42 28.5 -62t64.5 -20q5 0 19.5 1t20.5 1q29 0 40.5 -1.5t21.5 -10t16 -27.5l17 -51q2 -4 2 -15q0 -16 -9.5 -31.5t-23.5 -21.5q-71 -33 -158 -33q-116 0 -195 48
t-79 145q0 66 46 118.5t114.5 82.5t156.5 45q-16 19 -16 47v770q0 31 22.5 53.5t53.5 22.5zM289 1391q54 0 94.5 -38.5t40.5 -99.5q0 -67 -40.5 -107t-94.5 -40q-63 0 -105.5 39.5t-42.5 107.5q0 61 43 99.5t105 38.5z" />
    <glyph glyph-name="Idotaccent" unicode="&#x130;" horiz-adv-x="710" 
d="M481 1358v-1282q0 -31 -22 -53.5t-53 -22.5h-101q-31 0 -53.5 22.5t-22.5 53.5v1282q0 31 22.5 53.5t53.5 22.5h101q31 0 53 -22.5t22 -53.5zM360 1847q62 0 108 -40t46 -105q0 -70 -46 -112t-108 -42q-68 0 -114.5 41.5t-46.5 112.5q0 65 47 105t114 40z" />
    <glyph glyph-name="dotlessi" unicode="&#x131;" horiz-adv-x="567" 
d="M242 922h84q31 0 53 -22.5t22 -53.5v-770q0 -31 -22 -53.5t-53 -22.5h-84q-31 0 -53.5 22.5t-22.5 53.5v770q0 31 22.5 53.5t53.5 22.5z" />
    <glyph glyph-name="Jcircumflex" unicode="&#x134;" horiz-adv-x="796" 
d="M346 381v977q0 31 22.5 53.5t53.5 22.5h100q31 0 53.5 -22.5t22.5 -53.5v-1020q0 -174 -87 -267.5t-259 -93.5q-101 0 -191 39q-47 16 -47 66q0 16 6 31l25 69q14 47 68 47q10 0 30 -4q50 -12 74 -12q129 0 129 168zM465 1636l-209 -108q-15 -10 -41 -10q-47 0 -70 36
q-12 18 -12 43q0 44 35 68l231 143q30 21 68 21q33 0 65 -19l236 -145q35 -21 35 -66q0 -24 -15 -45q-26 -36 -71 -36q-25 0 -43 10z" />
    <glyph glyph-name="jcircumflex" unicode="&#x135;" horiz-adv-x="598" 
d="M53 -205q10 -2 31 -2q111 0 111 160v893q0 31 22 53.5t53 22.5h84q31 0 53.5 -22.5t22.5 -53.5v-914q0 -358 -289 -358q-101 0 -190 39q-37 15 -37 53q0 19 4 27l23 61q10 27 23.5 37t35.5 10q8 0 27.5 -2.5t25.5 -3.5zM117 1071q-44 0 -68 35q-18 21 -18 53q0 43 32 72
l183 158q27 24 67 24q43 0 70 -27l180 -155q31 -28 31 -70q0 -35 -21 -59q-27 -35 -69 -35q-28 0 -55 20l-138 111l-139 -108q-25 -19 -55 -19z" />
    <glyph glyph-name="Kcommaaccent" unicode="&#x136;" horiz-adv-x="1359" 
d="M451 739v-663q0 -31 -22.5 -53.5t-53.5 -22.5h-101q-31 0 -53 22.5t-22 53.5v1282q0 31 22 53.5t53 22.5h101q31 0 53.5 -22.5t22.5 -53.5v-604l526 632q38 48 100 48h92q28 0 47 -20.5t19 -47.5q0 -29 -16 -45l-490 -555l531 -649q16 -19 16 -45q0 -29 -20 -50.5
t-50 -21.5h-108q-61 0 -101 49zM520 -344q0 26 29 55q37 32 37 92q0 10 -1 26t-1 21q0 20 8 31t33 17l120 26q6 2 15 2q32 0 46.5 -29t14.5 -65q0 -86 -56.5 -148.5t-139.5 -91.5q-12 -6 -31 -6q-43 0 -62 31q-12 18 -12 39z" />
    <glyph glyph-name="kcommaaccent" unicode="&#x137;" horiz-adv-x="1038" 
d="M698 49l-282 373q-21 28 -21 59q0 32 21 60l248 331q40 50 98 50h86q30 0 50 -21.5t20 -50.5q0 -25 -17 -45l-250 -305l295 -381q17 -24 17 -45q0 -30 -21 -52t-53 -22h-92q-63 0 -99 49zM207 1434h84q31 0 53.5 -22.5t22.5 -53.5v-1282q0 -31 -22.5 -53.5t-53.5 -22.5
h-84q-31 0 -53.5 22.5t-22.5 53.5v1282q0 31 22.5 53.5t53.5 22.5zM338 -344q0 26 29 55q36 31 36 92q0 10 -1 26t-1 21q0 20 8 31t33 17l121 26q6 2 15 2q32 0 46.5 -29t14.5 -65q0 -86 -57 -148.5t-140 -91.5q-12 -6 -30 -6q-43 0 -62 31q-12 18 -12 39z" />
    <glyph glyph-name="Lacute" unicode="&#x139;" horiz-adv-x="1120" 
d="M1096 160v-84q0 -31 -22.5 -53.5t-53.5 -22.5h-746q-31 0 -53 22.5t-22 53.5v1282q0 31 22 53.5t53 22.5h101q31 0 53.5 -22.5t22.5 -53.5v-1122h569q31 0 53.5 -22.5t22.5 -53.5zM467 1673l303 158q13 8 33 8q46 0 65 -43l27 -63q6 -12 6 -29q0 -22 -13 -40.5t-34 -25.5
l-317 -116q-8 -4 -27 -4q-56 0 -78 51q-8 13 -8 35t11.5 41t31.5 28z" />
    <glyph glyph-name="lacute" unicode="&#x13a;" horiz-adv-x="614" 
d="M131 254v1104q0 31 22.5 53.5t53.5 22.5h84q31 0 53.5 -22.5t22.5 -53.5v-1008q0 -149 79 -149q13 0 33 4q50 12 64 12q36 0 57 -41l23 -43q8 -13 8 -31q0 -41 -49 -71q-92 -51 -226 -51q-225 0 -225 274zM213 1673l303 158q13 8 33 8q46 0 65 -43l27 -63q6 -12 6 -29
q0 -22 -13 -40.5t-34 -25.5l-317 -116q-8 -4 -27 -4q-56 0 -78 51q-8 13 -8 35t11.5 41t31.5 28z" />
    <glyph glyph-name="Lcommaaccent" unicode="&#x13b;" horiz-adv-x="1120" 
d="M1096 160v-84q0 -31 -22.5 -53.5t-53.5 -22.5h-746q-31 0 -53 22.5t-22 53.5v1282q0 31 22 53.5t53 22.5h101q31 0 53.5 -22.5t22.5 -53.5v-1122h569q31 0 53.5 -22.5t22.5 -53.5zM469 -344q0 26 29 55q37 32 37 92q0 10 -1.5 26t-1.5 21q0 20 8 31t33 17l121 26
q6 2 15 2q32 0 46.5 -29t14.5 -65q0 -86 -57 -148.5t-140 -91.5q-12 -6 -30 -6q-43 0 -62 31q-12 18 -12 39z" />
    <glyph glyph-name="lcommaaccent" unicode="&#x13c;" horiz-adv-x="614" 
d="M131 254v1104q0 31 22.5 53.5t53.5 22.5h84q31 0 53.5 -22.5t22.5 -53.5v-1008q0 -149 79 -149q13 0 33 4q50 12 64 12q36 0 57 -41l23 -43q8 -13 8 -31q0 -41 -49 -71q-92 -51 -226 -51q-225 0 -225 274zM195 -344q0 27 28 55q37 32 37 92q0 10 -1 26t-1 21q0 20 8 31
t33 17l121 26q6 2 14 2q32 0 47 -29t15 -65q0 -86 -57 -148.5t-140 -91.5q-12 -6 -31 -6q-42 0 -61 31q-12 18 -12 39z" />
    <glyph glyph-name="Lcaron" unicode="&#x13d;" horiz-adv-x="1120" 
d="M1096 160v-84q0 -31 -22.5 -53.5t-53.5 -22.5h-746q-31 0 -53 22.5t-22 53.5v1282q0 31 22 53.5t53 22.5h101q31 0 53.5 -22.5t22.5 -53.5v-1122h569q31 0 53.5 -22.5t22.5 -53.5zM686 1108q0 25 19 57q49 74 49 142q0 18 -2 26q-7 35 -7 51q0 27 13.5 38.5t44.5 11.5h98
q38 0 54 -21.5t16 -48.5q0 -201 -144 -317q-20 -17 -55 -17t-57 19q-29 26 -29 59z" />
    <glyph glyph-name="lcaron" unicode="&#x13e;" horiz-adv-x="614" 
d="M131 254v1104q0 31 22.5 53.5t53.5 22.5h84q31 0 53.5 -22.5t22.5 -53.5v-1008q0 -149 79 -149q13 0 33 4q50 12 64 12q36 0 57 -41l23 -43q8 -13 8 -31q0 -41 -49 -71q-92 -51 -226 -51q-225 0 -225 274zM481 1108q0 25 19 57q49 74 49 142q0 18 -2 26q-6 30 -6 51
q0 28 13 39t44 11h98q38 0 54 -21.5t16 -48.5q0 -202 -143 -317q-20 -17 -56 -17q-35 0 -57 19q-29 26 -29 59z" />
    <glyph glyph-name="Ldot" unicode="&#x13f;" horiz-adv-x="1120" 
d="M1096 160v-84q0 -31 -22.5 -53.5t-53.5 -22.5h-746q-31 0 -53 22.5t-22 53.5v1282q0 31 22 53.5t53 22.5h101q31 0 53.5 -22.5t22.5 -53.5v-1122h569q31 0 53.5 -22.5t22.5 -53.5zM893 920q63 0 106 -47.5t43 -104.5q0 -65 -42.5 -114.5t-106.5 -49.5q-73 0 -118.5 49
t-45.5 115q0 58 45.5 105t118.5 47z" />
    <glyph glyph-name="ldot" unicode="&#x140;" horiz-adv-x="716" 
d="M131 254v1104q0 31 22.5 53.5t53.5 22.5h84q31 0 53.5 -22.5t22.5 -53.5v-1008q0 -149 79 -149q13 0 33 4q50 12 64 12q36 0 57 -41l23 -43q8 -13 8 -31q0 -41 -49 -71q-92 -51 -226 -51q-225 0 -225 274zM614 829q54 0 95 -38.5t41 -98.5q0 -67 -41 -107t-95 -40
q-63 0 -105 39.5t-42 107.5q0 61 42.5 99t104.5 38z" />
    <glyph glyph-name="Lslash" unicode="&#x141;" horiz-adv-x="1130" 
d="M1038 0h-745q-31 0 -53.5 22.5t-22.5 53.5v422l-59 -27q-16 -8 -35 -8q-45 0 -64 39l-32 63q-11 22 -11 39q0 40 37 58l164 77v619q0 31 22.5 53.5t53.5 22.5h100q31 0 53.5 -22.5t22.5 -53.5v-502l223 102q17 7 31 7q49 0 68 -43l28 -62q8 -16 8 -37q0 -44 -45 -63
l-313 -146v-378h569q31 0 53.5 -22.5t22.5 -53.5v-84q0 -31 -22.5 -53.5t-53.5 -22.5z" />
    <glyph glyph-name="lslash" unicode="&#x142;" horiz-adv-x="675" 
d="M172 254v229l-29 -14q-13 -8 -32 -8q-21 0 -40 11.5t-28 31.5l-31 59q-8 13 -8 33q0 21 11.5 40t31.5 28l125 59v635q0 31 22.5 53.5t53.5 22.5h84q31 0 53.5 -22.5t22.5 -53.5v-531l124 60q13 8 33 8q21 0 39 -11.5t27 -31.5l28 -61q7 -17 7 -31q0 -48 -43 -70
l-215 -100v-240q0 -149 79 -149q13 0 33 4q50 12 64 12q36 0 57 -41l23 -43q8 -13 8 -31q0 -41 -49 -71q-92 -51 -226 -51q-225 0 -225 274z" />
    <glyph glyph-name="Nacute" unicode="&#x143;" horiz-adv-x="1622" 
d="M1264 1434h84q31 0 53 -22.5t22 -53.5v-1282q0 -31 -22 -53.5t-53 -22.5h-72q-52 0 -92 49l-750 944v-917q0 -31 -22.5 -53.5t-53.5 -22.5h-84q-31 0 -53 22.5t-22 53.5v1282q0 31 22 53.5t53 22.5h72q52 0 92 -50l750 -948v922q0 31 22.5 53.5t53.5 22.5zM727 1673
l303 158q13 8 33 8q46 0 65 -43l27 -63q6 -12 6 -29q0 -22 -13 -40.5t-34 -25.5l-317 -116q-8 -4 -27 -4q-56 0 -78 51q-8 13 -8 35t11.5 41t31.5 28z" />
    <glyph glyph-name="nacute" unicode="&#x144;" horiz-adv-x="1118" 
d="M774 500q0 108 -53.5 162.5t-153.5 54.5q-112 0 -200 -88v-553q0 -31 -22.5 -53.5t-53.5 -22.5h-84q-31 0 -53.5 22.5t-22.5 53.5v770q0 31 22.5 53.5t53.5 22.5h84q31 0 53.5 -24t22.5 -60q45 42 115.5 71t148.5 29q379 0 379 -397v-465q0 -31 -22.5 -53.5t-53.5 -22.5
h-84q-31 0 -53.5 22.5t-22.5 53.5v424zM475 1229l125 194q21 35 66 35q27 0 47 -14l49 -37q31 -22 31 -64q0 -29 -19 -51l-147 -170q-27 -30 -70 -30q-29 0 -55 16q-39 26 -39 76q0 24 12 45z" />
    <glyph glyph-name="Ncommaaccent" unicode="&#x145;" horiz-adv-x="1622" 
d="M1264 1434h84q31 0 53 -22.5t22 -53.5v-1282q0 -31 -22 -53.5t-53 -22.5h-72q-52 0 -92 49l-750 944v-917q0 -31 -22.5 -53.5t-53.5 -22.5h-84q-31 0 -53 22.5t-22 53.5v1282q0 31 22 53.5t53 22.5h72q52 0 92 -50l750 -948v922q0 31 22.5 53.5t53.5 22.5zM647 -344
q0 26 29 55q37 32 37 92q0 10 -1 26t-1 21q0 20 8 31t33 17l120 26q6 2 15 2q32 0 46.5 -29t14.5 -65q0 -86 -56.5 -148.5t-139.5 -91.5q-12 -6 -31 -6q-43 0 -62 31q-12 18 -12 39z" />
    <glyph glyph-name="ncommaaccent" unicode="&#x146;" horiz-adv-x="1118" 
d="M774 500q0 108 -53.5 162.5t-153.5 54.5q-112 0 -200 -88v-553q0 -31 -22.5 -53.5t-53.5 -22.5h-84q-31 0 -53.5 22.5t-22.5 53.5v770q0 31 22.5 53.5t53.5 22.5h84q31 0 53.5 -24t22.5 -60q45 42 115.5 71t148.5 29q379 0 379 -397v-465q0 -31 -22.5 -53.5t-53.5 -22.5
h-84q-31 0 -53.5 22.5t-22.5 53.5v424zM391 -344q0 26 29 55q37 32 37 92q0 10 -1 26t-1 21q0 20 8 31t33 17l120 26q6 2 15 2q32 0 46.5 -29t14.5 -65q0 -86 -56.5 -148.5t-139.5 -91.5q-12 -6 -31 -6q-43 0 -62 31q-12 18 -12 39z" />
    <glyph glyph-name="Ncaron" unicode="&#x147;" horiz-adv-x="1622" 
d="M1264 1434h84q31 0 53 -22.5t22 -53.5v-1282q0 -31 -22 -53.5t-53 -22.5h-72q-52 0 -92 49l-750 944v-917q0 -31 -22.5 -53.5t-53.5 -22.5h-84q-31 0 -53 22.5t-22 53.5v1282q0 31 22 53.5t53 22.5h72q52 0 92 -50l750 -948v922q0 31 22.5 53.5t53.5 22.5zM1069 1837
q46 0 68 -35q12 -18 12 -41q0 -43 -37 -69l-229 -144q-29 -20 -70 -20q-38 0 -68 18l-231 146q-35 21 -35 65q0 26 15 47q24 35 67 35q24 0 45 -12l211 -123l209 123q15 10 43 10z" />
    <glyph glyph-name="ncaron" unicode="&#x148;" horiz-adv-x="1118" 
d="M774 500q0 108 -53.5 162.5t-153.5 54.5q-112 0 -200 -88v-553q0 -31 -22.5 -53.5t-53.5 -22.5h-84q-31 0 -53.5 22.5t-22.5 53.5v770q0 31 22.5 53.5t53.5 22.5h84q31 0 53.5 -24t22.5 -60q45 42 115.5 71t148.5 29q379 0 379 -397v-465q0 -31 -22.5 -53.5t-53.5 -22.5
h-84q-31 0 -53.5 22.5t-22.5 53.5v424zM764 1415q35 0 61 -26q21 -24 21 -56q0 -42 -31 -67l-190 -166q-28 -25 -68 -25q-43 0 -70 27l-188 164q-29 29 -29 67q0 32 23 58q22 28 65 28q38 0 60 -22l141 -129l143 125q28 22 62 22z" />
    <glyph glyph-name="Omacron" unicode="&#x14c;" horiz-adv-x="1677" 
d="M92 717q0 154 55 290.5t152.5 235.5t237 156t301.5 57q212 0 381.5 -91t267.5 -260t98 -388q0 -212 -97.5 -381.5t-268 -264t-381.5 -94.5q-212 0 -381.5 91t-267 260.5t-97.5 388.5zM358 717q0 -214 139 -359t341 -145q220 0 350.5 143t130.5 361q0 220 -138 362
t-343 142q-207 0 -343.5 -141.5t-136.5 -362.5zM1169 1669v-37q0 -31 -22 -53.5t-53 -22.5h-482q-31 0 -53 22.5t-22 53.5v37q0 31 22 53.5t53 22.5h482q31 0 53 -22.5t22 -53.5z" />
    <glyph glyph-name="omacron" unicode="&#x14d;" horiz-adv-x="1150" 
d="M575 -23q-225 0 -363 137t-138 347t138 346.5t363 136.5q226 0 364 -136.5t138 -346.5t-138.5 -347t-363.5 -137zM575 723q-107 0 -178 -72t-71 -190q0 -115 70.5 -189.5t178.5 -74.5q110 0 181 72.5t71 191.5q0 116 -71.5 189t-180.5 73zM877 1239v-37
q0 -31 -22.5 -53.5t-53.5 -22.5h-420q-31 0 -53.5 22.5t-22.5 53.5v37q0 31 22.5 53.5t53.5 22.5h420q31 0 53.5 -22.5t22.5 -53.5z" />
    <glyph glyph-name="Ohungarumlaut" unicode="&#x150;" horiz-adv-x="1677" 
d="M92 717q0 154 55 290.5t152.5 235.5t237 156t301.5 57q212 0 381.5 -91t267.5 -260t98 -388q0 -212 -97.5 -381.5t-268 -264t-381.5 -94.5q-212 0 -381.5 91t-267 260.5t-97.5 388.5zM358 717q0 -214 139 -359t341 -145q220 0 350.5 143t130.5 361q0 220 -138 362
t-343 142q-207 0 -343.5 -141.5t-136.5 -362.5zM956 1642l213 179q21 18 54 18q30 0 55 -22l57 -50q19 -16 19 -38q0 -33 -29 -46l-264 -151q-22 -14 -57 -14q-39 0 -58 22q-16 19 -16 45q0 34 26 57zM575 1647l140 163q30 33 69 33q21 0 41 -10l76 -39q25 -12 25 -41
q0 -21 -19 -37l-221 -174q-24 -18 -55 -18q-32 0 -53 18q-23 23 -23 51q0 31 20 54z" />
    <glyph glyph-name="ohungarumlaut" unicode="&#x151;" horiz-adv-x="1150" 
d="M575 -23q-225 0 -363 137t-138 347t138 346.5t363 136.5q226 0 364 -136.5t138 -346.5t-138.5 -347t-363.5 -137zM575 723q-107 0 -178 -72t-71 -190q0 -115 70.5 -189.5t178.5 -74.5q110 0 181 72.5t71 191.5q0 116 -71.5 189t-180.5 73zM662 1225l135 184q26 33 69 33
q29 0 49 -17l39 -30q31 -24 31 -62q0 -29 -22 -51l-152 -162q-35 -35 -78 -35q-29 0 -51 19q-37 27 -37 74q0 23 17 47zM322 1231l116 192q21 37 68 37q25 0 45 -14l33 -23q32 -22 32 -67q0 -32 -16 -51l-131 -179q-22 -32 -72 -32q-27 0 -53 16q-37 24 -37 70q0 27 15 51z
" />
    <glyph glyph-name="OE" unicode="&#x152;" horiz-adv-x="2125" 
d="M1997 160v-84q0 -31 -22.5 -53.5t-53.5 -22.5h-735q-15 0 -27 12t-12 29q-148 -64 -316 -64q-217 0 -385 91.5t-261 260t-93 388.5q0 155 48.5 289t139.5 234.5t231.5 158t313.5 57.5q178 0 322 -67q0 19 13 32t32 13h709q31 0 53 -22.5t22 -53.5v-84q0 -31 -22 -53.5
t-53 -22.5h-502v-356h440q31 0 53.5 -22.5t22.5 -53.5v-84q0 -31 -22.5 -53.5t-53.5 -22.5h-440v-370h522q31 0 53.5 -22.5t22.5 -53.5zM1147 295v829q-146 97 -322 97q-204 0 -335.5 -137.5t-131.5 -366.5q0 -224 138 -364t358 -140q162 0 293 82z" />
    <glyph glyph-name="oe" unicode="&#x153;" horiz-adv-x="1720" 
d="M758 262q-35 90 -35 199q0 111 37 198q-79 64 -185 64q-107 0 -179 -72.5t-72 -189.5q0 -115 71 -189.5t180 -74.5q111 0 183 65zM958 547h453v4q0 85 -57.5 141t-153.5 56q-102 0 -162 -53t-80 -148zM1210 944q183 0 310 -119.5t127 -308.5q0 -37 -2 -53q-2 -26 -27 -50
t-53 -24h-598q15 -102 89 -158.5t185 -56.5q104 0 180 39q24 12 49 12q41 0 60 -32l16 -27q10 -20 10 -37q0 -41 -32 -63q-140 -89 -307 -89q-191 0 -320 99q-132 -99 -322 -99q-225 0 -363 137t-138 347t138 346.5t363 136.5q192 0 322 -102q130 102 313 102z" />
    <glyph glyph-name="Racute" unicode="&#x154;" horiz-adv-x="1331" 
d="M985 51l-358 486h-176v-461q0 -31 -22.5 -53.5t-53.5 -22.5h-101q-31 0 -53 22.5t-22 53.5v1282q0 31 21.5 53.5t53.5 22.5q246 4 361 4q114 0 203.5 -22.5t148.5 -61.5t97 -96t54.5 -121.5t16.5 -141.5q0 -88 -25.5 -161t-68.5 -121.5t-88 -79t-94 -47.5l356 -467
q16 -19 16 -45q0 -30 -21 -52t-52 -22h-95q-60 0 -98 51zM451 772h163q116 0 195.5 58t79.5 163q0 209 -266 209q-36 0 -172 -4v-426zM492 1673l303 158q13 8 32 8q21 0 39 -11.5t27 -31.5l27 -63q6 -12 6 -29q0 -22 -13 -40.5t-34 -25.5l-318 -116q-8 -4 -26 -4
q-56 0 -78 51q-8 13 -8 35t11.5 41t31.5 28z" />
    <glyph glyph-name="racute" unicode="&#x155;" horiz-adv-x="720" 
d="M553 713q-20 4 -39 4q-97 0 -147 -99v-542q0 -31 -22.5 -53.5t-53.5 -22.5h-84q-31 0 -53.5 22.5t-22.5 53.5v770q0 31 22.5 53.5t53.5 22.5h84q31 0 53.5 -23.5t22.5 -58.5q39 46 87 72t124 26q44 0 79 -14q43 -17 43 -60q0 -16 -6 -28l-30 -66q-26 -59 -84 -59
q-17 0 -27 2zM295 1229l125 194q21 35 65 35q27 0 47 -14l50 -37q30 -21 30 -64q0 -30 -18 -51l-148 -170q-27 -30 -69 -30q-29 0 -55 16q-39 26 -39 76q0 24 12 45z" />
    <glyph glyph-name="Rcommaaccent" unicode="&#x156;" horiz-adv-x="1331" 
d="M985 51l-358 486h-176v-461q0 -31 -22.5 -53.5t-53.5 -22.5h-101q-31 0 -53 22.5t-22 53.5v1282q0 31 21.5 53.5t53.5 22.5q246 4 361 4q114 0 203.5 -22.5t148.5 -61.5t97 -96t54.5 -121.5t16.5 -141.5q0 -88 -25.5 -161t-68.5 -121.5t-88 -79t-94 -47.5l356 -467
q16 -19 16 -45q0 -30 -21 -52t-52 -22h-95q-60 0 -98 51zM451 772h163q116 0 195.5 58t79.5 163q0 209 -266 209q-36 0 -172 -4v-426zM504 -344q0 27 28 55q37 32 37 92q0 10 -1 26t-1 21q0 20 8 31t33 17l121 26q6 2 14 2q32 0 47 -29t15 -65q0 -86 -57 -148.5t-140 -91.5
q-12 -6 -30 -6q-43 0 -62 31q-12 18 -12 39z" />
    <glyph glyph-name="rcommaaccent" unicode="&#x157;" horiz-adv-x="720" 
d="M553 713q-20 4 -39 4q-97 0 -147 -99v-542q0 -31 -22.5 -53.5t-53.5 -22.5h-84q-31 0 -53.5 22.5t-22.5 53.5v770q0 31 22.5 53.5t53.5 22.5h84q31 0 53.5 -23.5t22.5 -58.5q39 46 87 72t124 26q44 0 79 -14q43 -17 43 -60q0 -16 -6 -28l-30 -66q-26 -59 -84 -59
q-17 0 -27 2zM182 -344q0 26 29 55q37 32 37 92q0 10 -1 26t-1 21q0 20 8 31t33 17l121 26q6 2 14 2q32 0 46.5 -29t14.5 -65q0 -86 -56.5 -148.5t-139.5 -91.5q-12 -6 -31 -6q-42 0 -61 31q-13 19 -13 39z" />
    <glyph glyph-name="Rcaron" unicode="&#x158;" horiz-adv-x="1331" 
d="M985 51l-358 486h-176v-461q0 -31 -22.5 -53.5t-53.5 -22.5h-101q-31 0 -53 22.5t-22 53.5v1282q0 31 21.5 53.5t53.5 22.5q246 4 361 4q114 0 203.5 -22.5t148.5 -61.5t97 -96t54.5 -121.5t16.5 -141.5q0 -88 -25.5 -161t-68.5 -121.5t-88 -79t-94 -47.5l356 -467
q16 -19 16 -45q0 -30 -21 -52t-52 -22h-95q-60 0 -98 51zM451 772h163q116 0 195.5 58t79.5 163q0 209 -266 209q-36 0 -172 -4v-426zM874 1837q46 0 68 -35q12 -18 12 -41q0 -44 -36 -69l-230 -144q-29 -20 -70 -20q-37 0 -67 18l-232 146q-34 21 -34 65q0 27 14 47
q24 35 68 35q24 0 45 -12l211 -123l208 123q15 10 43 10z" />
    <glyph glyph-name="rcaron" unicode="&#x159;" horiz-adv-x="720" 
d="M553 713q-20 4 -39 4q-97 0 -147 -99v-542q0 -31 -22.5 -53.5t-53.5 -22.5h-84q-31 0 -53.5 22.5t-22.5 53.5v770q0 31 22.5 53.5t53.5 22.5h84q31 0 53.5 -23.5t22.5 -58.5q39 46 87 72t124 26q44 0 79 -14q43 -17 43 -60q0 -16 -6 -28l-30 -66q-26 -59 -84 -59
q-17 0 -27 2zM610 1415q36 0 62 -26q20 -23 20 -56q0 -43 -30 -67l-191 -166q-28 -25 -68 -25q-42 0 -69 27l-189 164q-28 28 -28 67q0 33 22 58q22 28 66 28q37 0 59 -22l142 -129l143 125q28 22 61 22z" />
    <glyph glyph-name="Sacute" unicode="&#x15a;" horiz-adv-x="1114" 
d="M111 256l67 72q22 22 51 22q33 0 58 -22q139 -115 260 -115q92 0 150.5 44.5t58.5 123.5q0 45 -22 82t-60 64.5t-86.5 51.5t-102.5 48.5t-108 51t-102.5 62t-86.5 78.5t-60 105t-22 137q0 167 122 281t325 114q185 0 342 -88q37 -19 37 -65q0 -18 -10 -35l-39 -68
q-24 -41 -68 -41q-21 0 -37 8q-111 54 -205 54q-93 0 -146.5 -43.5t-53.5 -114.5q0 -60 36 -105.5t93 -76.5t126 -59.5t138.5 -64.5t126.5 -82t93 -120.5t36 -171.5q0 -179 -137.5 -292.5t-341.5 -113.5q-121 0 -221 40t-203 135q-27 24 -27 59q0 26 19 45zM477 1673
l303 158q13 8 33 8q21 0 39 -11.5t27 -31.5l26 -63q6 -12 6 -29q0 -22 -13 -40.5t-34 -25.5l-317 -116q-8 -4 -27 -4q-56 0 -78 51q-8 13 -8 35t11.5 41t31.5 28z" />
    <glyph glyph-name="sacute" unicode="&#x15b;" horiz-adv-x="894" 
d="M92 199l31 39q20 26 49 26q30 0 61 -22q104 -68 228 -68q53 0 87 22.5t34 63.5q0 30 -27.5 51.5t-71.5 36t-97 28.5t-106 35.5t-97 51.5t-71.5 81.5t-27.5 119.5q0 131 95 205.5t243 74.5q172 0 307 -86q31 -21 31 -61q0 -23 -12 -41l-23 -33q-23 -33 -57 -33
q-18 0 -52 15q-82 43 -182 43q-52 0 -83.5 -24t-31.5 -56q0 -31 27.5 -53t71.5 -36t97 -28t106 -35t97 -49.5t71.5 -78.5t27.5 -116q0 -136 -101.5 -215.5t-271.5 -79.5q-199 0 -344 127q-22 19 -22 52q0 26 14 43zM326 1229l125 194q21 35 65 35q27 0 47 -14l49 -37
q31 -22 31 -64q0 -30 -18 -51l-148 -170q-27 -30 -69 -30q-30 0 -56 16q-39 26 -39 76q0 22 13 45z" />
    <glyph glyph-name="Scircumflex" unicode="&#x15c;" horiz-adv-x="1114" 
d="M111 256l67 72q22 22 51 22q33 0 58 -22q139 -115 260 -115q92 0 150.5 44.5t58.5 123.5q0 45 -22 82t-60 64.5t-86.5 51.5t-102.5 48.5t-108 51t-102.5 62t-86.5 78.5t-60 105t-22 137q0 167 122 281t325 114q185 0 342 -88q37 -19 37 -65q0 -18 -10 -35l-39 -68
q-24 -41 -68 -41q-21 0 -37 8q-111 54 -205 54q-93 0 -146.5 -43.5t-53.5 -114.5q0 -60 36 -105.5t93 -76.5t126 -59.5t138.5 -64.5t126.5 -82t93 -120.5t36 -171.5q0 -179 -137.5 -292.5t-341.5 -113.5q-121 0 -221 40t-203 135q-27 24 -27 59q0 26 19 45zM543 1636
l-209 -108q-15 -10 -41 -10q-47 0 -70 36q-12 18 -12 43q0 44 35 68l231 143q30 21 68 21q33 0 65 -19l236 -145q35 -21 35 -66q0 -24 -15 -45q-26 -36 -71 -36q-25 0 -43 10z" />
    <glyph glyph-name="scircumflex" unicode="&#x15d;" horiz-adv-x="894" 
d="M92 199l31 39q20 26 49 26q30 0 61 -22q104 -68 228 -68q53 0 87 22.5t34 63.5q0 30 -27.5 51.5t-71.5 36t-97 28.5t-106 35.5t-97 51.5t-71.5 81.5t-27.5 119.5q0 131 95 205.5t243 74.5q172 0 307 -86q31 -21 31 -61q0 -23 -12 -41l-23 -33q-23 -33 -57 -33
q-18 0 -52 15q-82 43 -182 43q-52 0 -83.5 -24t-31.5 -56q0 -31 27.5 -53t71.5 -36t97 -28t106 -35t97 -49.5t71.5 -78.5t27.5 -116q0 -136 -101.5 -215.5t-271.5 -79.5q-199 0 -344 127q-22 19 -22 52q0 26 14 43zM244 1071q-44 0 -68 35q-18 21 -18 53q0 43 32 72l183 158
q27 24 67 24q43 0 70 -27l180 -155q31 -28 31 -70q0 -35 -21 -59q-27 -35 -69 -35q-29 0 -56 20l-137 111l-139 -108q-25 -19 -55 -19z" />
    <glyph glyph-name="Scedilla" unicode="&#x15e;" horiz-adv-x="1114" 
d="M578 -68q227 -17 227 -178q0 -80 -72.5 -130t-200.5 -50q-83 0 -135.5 16t-99.5 48q-27 17 -27 51q0 17 11 35q19 32 57 32q19 0 35 -8q64 -31 102 -31q35 0 57.5 14t22.5 38q0 34 -35 49q-34 16 -47.5 34.5t-13.5 53.5v76q-178 21 -340 170q-27 24 -27 59q0 26 19 45
l67 72q22 22 51 22q33 0 58 -22q139 -115 260 -115q92 0 150.5 44.5t58.5 123.5q0 45 -22 82t-60 64.5t-86.5 51.5t-102.5 48.5t-108 51t-102.5 62t-86.5 78.5t-60 105t-22 137q0 167 122 281t325 114q185 0 342 -88q37 -19 37 -65q0 -18 -10 -35l-39 -68q-24 -41 -68 -41
q-21 0 -37 8q-111 54 -205 54q-93 0 -146.5 -43.5t-53.5 -114.5q0 -60 36 -105.5t93 -76.5t126 -59.5t138.5 -64.5t126.5 -82t93 -120.5t36 -171.5q0 -171 -126 -282.5t-318 -120.5v-48z" />
    <glyph glyph-name="scedilla" unicode="&#x15f;" horiz-adv-x="894" 
d="M504 -70q104 -7 158.5 -52.5t54.5 -123.5q0 -81 -73.5 -130.5t-209.5 -49.5q-110 0 -192 49q-31 21 -31 60q0 16 6 28q18 35 59 35q21 0 37 -8q51 -21 88 -21q35 0 57.5 14t22.5 38q0 37 -30 47q-38 15 -52 36t-14 62v68q-162 14 -285 122q-22 19 -22 52q0 26 14 43
l31 39q20 26 49 26q30 0 61 -22q104 -68 228 -68q53 0 87 22.5t34 63.5q0 30 -27.5 51.5t-71.5 36t-97 28.5t-106 35.5t-97 51.5t-71.5 81.5t-27.5 119.5q0 131 95 205.5t243 74.5q172 0 307 -86q31 -21 31 -61q0 -23 -12 -41l-23 -33q-23 -33 -57 -33q-18 0 -52 15
q-82 43 -182 43q-52 0 -83.5 -24t-31.5 -56q0 -31 27.5 -53t71.5 -36t97 -28t106 -35t97 -49.5t71.5 -78.5t27.5 -116q0 -123 -84.5 -199.5t-228.5 -90.5v-52z" />
    <glyph glyph-name="Scaron" unicode="&#x160;" horiz-adv-x="1114" 
d="M111 256l67 72q22 22 51 22q33 0 58 -22q139 -115 260 -115q92 0 150.5 44.5t58.5 123.5q0 45 -22 82t-60 64.5t-86.5 51.5t-102.5 48.5t-108 51t-102.5 62t-86.5 78.5t-60 105t-22 137q0 167 122 281t325 114q185 0 342 -88q37 -19 37 -65q0 -18 -10 -35l-39 -68
q-24 -41 -68 -41q-21 0 -37 8q-111 54 -205 54q-93 0 -146.5 -43.5t-53.5 -114.5q0 -60 36 -105.5t93 -76.5t126 -59.5t138.5 -64.5t126.5 -82t93 -120.5t36 -171.5q0 -179 -137.5 -292.5t-341.5 -113.5q-121 0 -221 40t-203 135q-27 24 -27 59q0 26 19 45zM809 1837
q46 0 68 -35q12 -18 12 -41q0 -43 -37 -69l-229 -144q-29 -20 -70 -20q-38 0 -68 18l-231 146q-35 21 -35 65q0 27 14 47q24 35 68 35q24 0 45 -12l211 -123l209 123q15 10 43 10z" />
    <glyph glyph-name="scaron" unicode="&#x161;" horiz-adv-x="894" 
d="M92 199l31 39q20 26 49 26q30 0 61 -22q104 -68 228 -68q53 0 87 22.5t34 63.5q0 30 -27.5 51.5t-71.5 36t-97 28.5t-106 35.5t-97 51.5t-71.5 81.5t-27.5 119.5q0 131 95 205.5t243 74.5q172 0 307 -86q31 -21 31 -61q0 -23 -12 -41l-23 -33q-23 -33 -57 -33
q-18 0 -52 15q-82 43 -182 43q-52 0 -83.5 -24t-31.5 -56q0 -31 27.5 -53t71.5 -36t97 -28t106 -35t97 -49.5t71.5 -78.5t27.5 -116q0 -136 -101.5 -215.5t-271.5 -79.5q-199 0 -344 127q-22 19 -22 52q0 26 14 43zM643 1415q36 0 62 -26q20 -23 20 -56q0 -42 -31 -67
l-190 -166q-28 -25 -68 -25q-42 0 -69 27l-189 164q-28 28 -28 67q0 33 22 58q22 28 66 28q37 0 59 -22l141 -129l144 125q28 22 61 22z" />
    <glyph glyph-name="Tcedilla" unicode="&#x162;" horiz-adv-x="1222" 
d="M670 -68q227 -17 227 -178q0 -80 -72 -130t-200 -50q-141 0 -236 64q-27 17 -27 51q0 17 11 35q19 32 57 32q19 0 35 -8q64 -31 102 -31q35 0 57.5 14t22.5 38q0 34 -35 49q-34 16 -47.5 34.5t-13.5 53.5v94q-28 5 -47 26t-19 50v1122h-389q-31 0 -53.5 22.5t-22.5 53.5
v84q0 31 22.5 53.5t53.5 22.5h1030q31 0 53.5 -22.5t22.5 -53.5v-84q0 -31 -22.5 -53.5t-53.5 -22.5h-389v-1122q0 -29 -19.5 -51t-47.5 -25v-68z" />
    <glyph glyph-name="tcedilla" unicode="&#x163;" horiz-adv-x="724" 
d="M438 -70q104 -7 158.5 -52.5t54.5 -123.5q0 -81 -73.5 -130.5t-208.5 -49.5q-111 0 -193 49q-31 21 -31 60q0 14 7 28q18 35 59 35q21 0 37 -8q51 -21 88 -21q35 0 57.5 14t22.5 38q0 36 -31 47q-38 15 -52 36t-14 62v74q-110 21 -159 111.5t-49 250.5v752q0 31 22 53.5
t53 22.5h84q31 0 53.5 -22.5t22.5 -53.5v-180h221q31 0 53.5 -22.5t22.5 -53.5v-70q0 -31 -22.5 -53.5t-53.5 -22.5h-221v-335q0 -166 111 -166q35 0 65 10t47 10q41 0 64 -41l20 -37q11 -18 11 -35q0 -47 -35 -65q-90 -53 -191 -59v-52z" />
    <glyph glyph-name="Tcaron" unicode="&#x164;" horiz-adv-x="1222" 
d="M662 0h-101q-31 0 -53.5 22.5t-22.5 53.5v1122h-389q-31 0 -53.5 22.5t-22.5 53.5v84q0 31 22.5 53.5t53.5 22.5h1030q31 0 53.5 -22.5t22.5 -53.5v-84q0 -31 -22.5 -53.5t-53.5 -22.5h-389v-1122q0 -31 -22 -53.5t-53 -22.5zM858 1837q46 0 68 -35q12 -18 12 -41
q0 -43 -37 -69l-229 -144q-29 -20 -70 -20q-37 0 -67 18l-232 146q-35 21 -35 65q0 26 15 47q24 35 67 35q24 0 45 -12l211 -123l209 123q15 10 43 10z" />
    <glyph glyph-name="tcaron" unicode="&#x165;" horiz-adv-x="724" 
d="M633 178l20 -37q11 -18 11 -35q0 -47 -35 -65q-104 -61 -232 -61q-152 0 -219 93t-67 277v752q0 31 22 53.5t53 22.5h84q31 0 53.5 -22.5t22.5 -53.5v-180h221q31 0 53.5 -22.5t22.5 -53.5v-70q0 -31 -22.5 -53.5t-53.5 -22.5h-221v-335q0 -166 111 -166q35 0 65 10
t47 10q41 0 64 -41zM471 1108q0 27 18 57q50 76 50 142q0 18 -2 26q-7 35 -7 51q0 27 13.5 38.5t44.5 11.5h98q38 0 54 -21.5t16 -48.5q0 -201 -144 -317q-20 -17 -55 -17t-57 19q-29 26 -29 59z" />
    <glyph glyph-name="Umacron" unicode="&#x16a;" horiz-adv-x="1536" 
d="M1108 645v713q0 31 22.5 53.5t53.5 22.5h98q31 0 53.5 -22.5t22.5 -53.5v-764q0 -128 -30.5 -232t-83.5 -175t-125.5 -119t-155.5 -69.5t-175 -21.5q-135 0 -246 40t-192.5 117.5t-126.5 198.5t-45 275v750q0 31 22.5 53.5t53.5 22.5h100q31 0 53.5 -22.5t22.5 -53.5
v-696q0 -209 89 -329t269 -120q320 0 320 432zM1100 1669v-37q0 -31 -22.5 -53.5t-53.5 -22.5h-481q-31 0 -53.5 22.5t-22.5 53.5v37q0 31 22.5 53.5t53.5 22.5h481q31 0 53.5 -22.5t22.5 -53.5z" />
    <glyph glyph-name="umacron" unicode="&#x16b;" horiz-adv-x="1095" 
d="M346 408q0 -211 176 -211q58 0 112.5 29.5t94.5 82.5v537q0 31 22.5 53.5t53.5 22.5h84q31 0 53.5 -22.5t22.5 -53.5v-770q0 -31 -22.5 -53.5t-53.5 -22.5h-84q-31 0 -53.5 22.5t-22.5 53.5v37q-47 -59 -121.5 -97.5t-173.5 -38.5q-143 0 -233 96t-90 285v488
q0 31 22 53.5t53 22.5h84q31 0 53.5 -22.5t22.5 -53.5v-438zM825 1239v-37q0 -31 -22 -53.5t-53 -22.5h-420q-31 0 -53.5 22.5t-22.5 53.5v37q0 31 22.5 53.5t53.5 22.5h420q31 0 53 -22.5t22 -53.5z" />
    <glyph glyph-name="Ubreve" unicode="&#x16c;" horiz-adv-x="1536" 
d="M1108 645v713q0 31 22.5 53.5t53.5 22.5h98q31 0 53.5 -22.5t22.5 -53.5v-764q0 -128 -30.5 -232t-83.5 -175t-125.5 -119t-155.5 -69.5t-175 -21.5q-135 0 -246 40t-192.5 117.5t-126.5 198.5t-45 275v750q0 31 22.5 53.5t53.5 22.5h100q31 0 53.5 -22.5t22.5 -53.5
v-696q0 -209 89 -329t269 -120q320 0 320 432zM1151 1739q0 -33 -18 -51q-66 -74 -165.5 -126.5t-195.5 -52.5q-107 0 -202 51t-164 128q-19 19 -19 51t23 55q25 25 55 25q31 0 70 -27q97 -78 237 -78q132 0 232 78q39 27 67 27q32 0 57 -25q23 -20 23 -55z" />
    <glyph glyph-name="ubreve" unicode="&#x16d;" horiz-adv-x="1095" 
d="M346 408q0 -211 176 -211q58 0 112.5 29.5t94.5 82.5v537q0 31 22.5 53.5t53.5 22.5h84q31 0 53.5 -22.5t22.5 -53.5v-770q0 -31 -22.5 -53.5t-53.5 -22.5h-84q-31 0 -53.5 22.5t-22.5 53.5v37q-47 -59 -121.5 -97.5t-173.5 -38.5q-143 0 -233 96t-90 285v488
q0 31 22 53.5t53 22.5h84q31 0 53.5 -22.5t22.5 -53.5v-438zM862 1305q0 -26 -14 -43q-132 -172 -311 -172q-176 0 -291 170q-15 22 -15 43q0 32 29 55q22 16 47 16q34 0 58 -24q81 -70 182 -70q104 0 186 68q31 24 60 24q24 0 45 -16q24 -18 24 -51z" />
    <glyph glyph-name="Uring" unicode="&#x16e;" horiz-adv-x="1536" 
d="M1108 645v713q0 31 22.5 53.5t53.5 22.5h98q31 0 53.5 -22.5t22.5 -53.5v-764q0 -128 -30.5 -232t-83.5 -175t-125.5 -119t-155.5 -69.5t-175 -21.5q-135 0 -246 40t-192.5 117.5t-126.5 198.5t-45 275v750q0 31 22.5 53.5t53.5 22.5h100q31 0 53.5 -22.5t22.5 -53.5
v-696q0 -209 89 -329t269 -120q320 0 320 432zM768 1860q129 0 211 -56t82 -166q0 -108 -82.5 -166.5t-210.5 -58.5q-124 0 -204.5 58.5t-80.5 166.5q0 110 79.5 166t205.5 56zM770 1542q52 0 84.5 24.5t32.5 71.5t-32 70t-85 23q-51 0 -82 -23t-31 -70t31.5 -71.5
t81.5 -24.5z" />
    <glyph glyph-name="uring" unicode="&#x16f;" horiz-adv-x="1095" 
d="M346 408q0 -211 176 -211q58 0 112.5 29.5t94.5 82.5v537q0 31 22.5 53.5t53.5 22.5h84q31 0 53.5 -22.5t22.5 -53.5v-770q0 -31 -22.5 -53.5t-53.5 -22.5h-84q-31 0 -53.5 22.5t-22.5 53.5v37q-47 -59 -121.5 -97.5t-173.5 -38.5q-143 0 -233 96t-90 285v488
q0 31 22 53.5t53 22.5h84q31 0 53.5 -22.5t22.5 -53.5v-438zM539 1012q-111 0 -184.5 70t-73.5 171q0 103 73.5 174.5t184.5 71.5q113 0 187.5 -71.5t74.5 -174.5q0 -101 -74.5 -171t-187.5 -70zM543 1370q-49 0 -80 -33.5t-31 -81.5t31 -82t80 -34q46 0 76 34t30 82
t-30 81.5t-76 33.5z" />
    <glyph glyph-name="Uhungarumlaut" unicode="&#x170;" horiz-adv-x="1536" 
d="M1108 645v713q0 31 22.5 53.5t53.5 22.5h98q31 0 53.5 -22.5t22.5 -53.5v-764q0 -128 -30.5 -232t-83.5 -175t-125.5 -119t-155.5 -69.5t-175 -21.5q-135 0 -246 40t-192.5 117.5t-126.5 198.5t-45 275v750q0 31 22.5 53.5t53.5 22.5h100q31 0 53.5 -22.5t22.5 -53.5
v-696q0 -209 89 -329t269 -120q320 0 320 432zM858 1642l213 179q21 18 53 18q31 0 56 -22l57 -50q18 -15 18 -38q0 -34 -28 -46l-264 -151q-22 -14 -58 -14q-38 0 -57 22q-17 20 -17 45q0 33 27 57zM477 1647l139 163q30 33 70 33q21 0 41 -10l76 -39q24 -12 24 -41
q0 -22 -18 -37l-221 -174q-24 -18 -56 -18t-53 18q-22 22 -22 51q0 31 20 54z" />
    <glyph glyph-name="uhungarumlaut" unicode="&#x171;" horiz-adv-x="1095" 
d="M346 408q0 -211 176 -211q58 0 112.5 29.5t94.5 82.5v537q0 31 22.5 53.5t53.5 22.5h84q31 0 53.5 -22.5t22.5 -53.5v-770q0 -31 -22.5 -53.5t-53.5 -22.5h-84q-31 0 -53.5 22.5t-22.5 53.5v37q-47 -59 -121.5 -97.5t-173.5 -38.5q-143 0 -233 96t-90 285v488
q0 31 22 53.5t53 22.5h84q31 0 53.5 -22.5t22.5 -53.5v-438zM625 1225l135 184q26 33 69 33q30 0 50 -17l39 -30q30 -23 30 -62q0 -29 -22 -51l-152 -162q-35 -35 -78 -35q-29 0 -51 19q-37 27 -37 74q0 23 17 47zM285 1231l116 192q21 37 68 37q25 0 45 -14l33 -23
q33 -23 33 -67q0 -31 -17 -51l-131 -179q-22 -32 -72 -32q-27 0 -53 16q-37 24 -37 70q0 27 15 51z" />
    <glyph glyph-name="Uogonek" unicode="&#x172;" horiz-adv-x="1536" 
d="M1108 645v713q0 31 22.5 53.5t53.5 22.5h98q31 0 53.5 -22.5t22.5 -53.5v-764q0 -122 -27.5 -222t-75 -169.5t-114.5 -118.5t-143 -74t-162 -30q-50 -20 -79.5 -52t-29.5 -67q0 -42 28 -62t64 -20q21 0 31 2t29 2q52 0 65 -43l12 -39q5 -20 5 -23q0 -39 -46 -59
q-64 -29 -149 -29q-116 0 -195 48t-79 145q0 69 46 120.5t124 84.5q-224 35 -354 193t-130 427v750q0 31 22.5 53.5t53.5 22.5h100q31 0 53.5 -22.5t22.5 -53.5v-696q0 -209 89 -329t269 -120q320 0 320 432z" />
    <glyph glyph-name="uogonek" unicode="&#x173;" horiz-adv-x="1095" 
d="M346 408q0 -211 176 -211q58 0 112.5 29.5t94.5 82.5v537q0 31 22.5 53.5t53.5 22.5h84q31 0 53.5 -22.5t22.5 -53.5v-770q0 -31 -22.5 -53.5t-53.5 -22.5h-10q-87 -1 -150 -44t-63 -95q0 -42 28 -62t64 -20q5 0 20 1t21 1q29 0 40.5 -1.5t21.5 -10t16 -27.5l16 -51
q2 -4 2 -15q0 -16 -9.5 -31.5t-23.5 -21.5q-71 -33 -157 -33q-116 0 -195.5 48t-79.5 145q0 66 45.5 118.5t113.5 82.5t156 45q-16 19 -16 47v37q-47 -59 -121.5 -97.5t-173.5 -38.5q-143 0 -233 96t-90 285v488q0 31 22 53.5t53 22.5h84q31 0 53.5 -22.5t22.5 -53.5v-438z
" />
    <glyph glyph-name="Ydieresis" unicode="&#x178;" horiz-adv-x="1261" 
d="M317 1380l324 -546l322 546q13 25 38.5 39.5t53.5 14.5h73q33 0 54.5 -23t21.5 -55q0 -24 -10 -39l-438 -719v-522q0 -31 -22.5 -53.5t-53.5 -22.5h-100q-31 0 -53.5 22.5t-22.5 53.5v522l-434 719q-13 19 -13 41q0 30 22.5 53t55.5 23h88q61 0 94 -54zM399 1817
q59 0 102.5 -35t43.5 -92q0 -63 -43.5 -99.5t-102.5 -36.5q-67 0 -112 36t-45 100q0 58 45 92.5t112 34.5zM874 1817q60 0 103 -34.5t43 -92.5q0 -63 -43 -99.5t-103 -36.5q-67 0 -112 36t-45 100q0 58 45 92.5t112 34.5z" />
    <glyph glyph-name="Zacute" unicode="&#x179;" horiz-adv-x="1304" 
d="M51 76v35q0 9 3 19.5t6.5 18t11.5 19.5t12 17.5t14.5 19t12.5 16.5l733 977h-697q-31 0 -53 22.5t-22 53.5v84q0 31 22 53.5t53 22.5h959q31 0 53.5 -22.5t22.5 -53.5v-37q0 -37 -60 -111l-735 -974h760q31 0 53.5 -22.5t22.5 -53.5v-84q0 -31 -22.5 -53.5t-53.5 -22.5
h-1020q-31 0 -53.5 22.5t-22.5 53.5zM559 1673l303 158q13 8 33 8q21 0 39 -11.5t27 -31.5l26 -63q6 -12 6 -29q0 -22 -13 -40.5t-34 -25.5l-317 -116q-8 -4 -27 -4q-56 0 -78 51q-8 13 -8 35t11.5 41t31.5 28z" />
    <glyph glyph-name="zacute" unicode="&#x17a;" horiz-adv-x="1001" 
d="M86 76v33q0 63 43 106l457 485h-393q-31 0 -53.5 22.5t-22.5 53.5v70q0 31 22.5 53.5t53.5 22.5h647q31 0 53 -22.5t22 -53.5v-33q0 -63 -43 -106l-456 -488h413q31 0 53.5 -22.5t22.5 -53.5v-67q0 -31 -22.5 -53.5t-53.5 -22.5h-667q-31 0 -53.5 22.5t-22.5 53.5z
M406 1229l124 194q21 35 66 35q27 0 47 -14l49 -37q31 -22 31 -64q0 -30 -18 -51l-148 -170q-27 -30 -70 -30q-29 0 -55 16q-39 26 -39 76q0 22 13 45z" />
    <glyph glyph-name="Zdotaccent" unicode="&#x17b;" horiz-adv-x="1304" 
d="M51 76v35q0 9 3 19.5t6.5 18t11.5 19.5t12 17.5t14.5 19t12.5 16.5l733 977h-697q-31 0 -53 22.5t-22 53.5v84q0 31 22 53.5t53 22.5h959q31 0 53.5 -22.5t22.5 -53.5v-37q0 -37 -60 -111l-735 -974h760q31 0 53.5 -22.5t22.5 -53.5v-84q0 -31 -22.5 -53.5t-53.5 -22.5
h-1020q-31 0 -53.5 22.5t-22.5 53.5zM657 1847q62 0 108 -40t46 -105q0 -70 -46 -112t-108 -42q-68 0 -114.5 41.5t-46.5 112.5q0 65 47 105t114 40z" />
    <glyph glyph-name="zdotaccent" unicode="&#x17c;" horiz-adv-x="1001" 
d="M86 76v33q0 63 43 106l457 485h-393q-31 0 -53.5 22.5t-22.5 53.5v70q0 31 22.5 53.5t53.5 22.5h647q31 0 53 -22.5t22 -53.5v-33q0 -63 -43 -106l-456 -488h413q31 0 53.5 -22.5t22.5 -53.5v-67q0 -31 -22.5 -53.5t-53.5 -22.5h-667q-31 0 -53.5 22.5t-22.5 53.5z
M502 1391q54 0 94.5 -38.5t40.5 -99.5q0 -67 -40.5 -107t-94.5 -40q-63 0 -105.5 39.5t-42.5 107.5q0 61 43 99.5t105 38.5z" />
    <glyph glyph-name="Zcaron" unicode="&#x17d;" horiz-adv-x="1304" 
d="M51 76v35q0 9 3 19.5t6.5 18t11.5 19.5t12 17.5t14.5 19t12.5 16.5l733 977h-697q-31 0 -53 22.5t-22 53.5v84q0 31 22 53.5t53 22.5h959q31 0 53.5 -22.5t22.5 -53.5v-37q0 -37 -60 -111l-735 -974h760q31 0 53.5 -22.5t22.5 -53.5v-84q0 -31 -22.5 -53.5t-53.5 -22.5
h-1020q-31 0 -53.5 22.5t-22.5 53.5zM915 1837q46 0 68 -35q12 -18 12 -41q0 -43 -37 -69l-229 -144q-29 -20 -70 -20q-37 0 -67 18l-232 146q-34 21 -34 65q0 27 14 47q24 35 68 35q24 0 45 -12l211 -123l208 123q15 10 43 10z" />
    <glyph glyph-name="zcaron" unicode="&#x17e;" horiz-adv-x="1001" 
d="M86 76v33q0 63 43 106l457 485h-393q-31 0 -53.5 22.5t-22.5 53.5v70q0 31 22.5 53.5t53.5 22.5h647q31 0 53 -22.5t22 -53.5v-33q0 -63 -43 -106l-456 -488h413q31 0 53.5 -22.5t22.5 -53.5v-67q0 -31 -22.5 -53.5t-53.5 -22.5h-667q-31 0 -53.5 22.5t-22.5 53.5z
M723 1415q35 0 61 -26q21 -24 21 -56q0 -42 -31 -67l-190 -166q-28 -25 -68 -25q-43 0 -70 27l-188 164q-29 29 -29 67q0 32 23 58q22 28 65 28q38 0 60 -22l141 -129l144 125q28 22 61 22z" />
    <glyph glyph-name="longs" unicode="&#x17f;" horiz-adv-x="559" 
d="M141 1071q0 189 87.5 287t244.5 98q114 0 203 -47q39 -19 39 -66q0 -17 -10 -34l-19 -33q-28 -51 -84 -51q-11 0 -31 4q-27 6 -55 6q-65 0 -102 -45t-37 -137v-977q0 -31 -22.5 -53.5t-53.5 -22.5h-84q-31 0 -53.5 22.5t-22.5 53.5v995z" />
    <glyph glyph-name="uni018F" unicode="&#x18f;" horiz-adv-x="1566" 
d="M311 1329q103 68 211 97.5t250 29.5q157 0 290.5 -53t228.5 -148t148.5 -233t53.5 -303q0 -222 -89.5 -390.5t-254 -260t-381.5 -91.5q-151 0 -278.5 51.5t-219.5 146t-144 235t-52 311.5q0 8 1 25t1 26q1 31 25 53.5t55 22.5h1065q-37 176 -172 274.5t-336 98.5
q-140 0 -273 -74q-24 -12 -47 -12q-45 0 -65 36l-35 56q-12 18 -12 41q0 40 30 61zM342 612q13 -168 126 -283.5t296 -115.5q191 0 313 103.5t154 295.5h-889z" />
    <glyph glyph-name="florin" unicode="&#x192;" horiz-adv-x="1202" 
d="M1161 1305l-26 -52q-19 -39 -60 -39q-9 0 -45 9q-40 12 -67 12q-60 0 -96.5 -43.5t-53.5 -138.5l-22 -131h159q31 0 53.5 -22.5t22.5 -53.5v-70q0 -31 -22.5 -53.5t-53.5 -22.5h-198l-136 -768q-17 -90 -39.5 -152t-59 -110.5t-91 -72t-129.5 -23.5q-108 0 -199 49
q-37 19 -37 62q0 13 11 39l18 38q19 43 64 43q19 0 43 -6q36 -6 45 -6q109 0 139 162l131 745h-164q-31 0 -53.5 22.5t-22.5 53.5v70q0 31 22.5 53.5t53.5 22.5h203l27 149q38 202 116 293.5t228 91.5q104 0 208 -51q41 -20 41 -62q0 -15 -10 -38z" />
    <glyph glyph-name="uni01DD" unicode="&#x1dd;" horiz-adv-x="1042" 
d="M756 379h-453v-4q0 -89 57.5 -145t157.5 -56q102 0 162.5 54.5t75.5 150.5zM750 537q-17 97 -90.5 154t-182.5 57q-100 0 -180 -39q-23 -13 -47 -13q-34 0 -55 27l-21 29q-14 20 -14 43q0 40 35 61q138 88 307 88q221 0 351 -131.5t130 -351.5q0 -137 -51.5 -244.5
t-159 -173.5t-256.5 -66q-197 0 -327 119t-130 310q0 39 2 57q3 29 28 51.5t56 22.5h605z" />
    <glyph glyph-name="Scommaaccent" unicode="&#x218;" horiz-adv-x="1114" 
d="M111 256l67 72q22 22 51 22q33 0 58 -22q139 -115 260 -115q92 0 150.5 44.5t58.5 123.5q0 45 -22 82t-60 64.5t-86.5 51.5t-102.5 48.5t-108 51t-102.5 62t-86.5 78.5t-60 105t-22 137q0 167 122 281t325 114q185 0 342 -88q37 -19 37 -65q0 -18 -10 -35l-39 -68
q-24 -41 -68 -41q-21 0 -37 8q-111 54 -205 54q-93 0 -146.5 -43.5t-53.5 -114.5q0 -60 36 -105.5t93 -76.5t126 -59.5t138.5 -64.5t126.5 -82t93 -120.5t36 -171.5q0 -179 -137.5 -292.5t-341.5 -113.5q-121 0 -221 40t-203 135q-27 24 -27 59q0 26 19 45zM403 -344
q0 26 29 55q37 32 37 92q0 10 -1 26t-1 21q0 20 8 31t33 17l121 26q6 2 14 2q32 0 47 -29t15 -65q0 -86 -57 -148.5t-140 -91.5q-12 -6 -31 -6q-42 0 -61 31q-13 19 -13 39z" />
    <glyph glyph-name="scommaaccent" unicode="&#x219;" horiz-adv-x="894" 
d="M92 199l31 39q20 26 49 26q30 0 61 -22q104 -68 228 -68q53 0 87 22.5t34 63.5q0 30 -27.5 51.5t-71.5 36t-97 28.5t-106 35.5t-97 51.5t-71.5 81.5t-27.5 119.5q0 131 95 205.5t243 74.5q172 0 307 -86q31 -21 31 -61q0 -23 -12 -41l-23 -33q-23 -33 -57 -33
q-18 0 -52 15q-82 43 -182 43q-52 0 -83.5 -24t-31.5 -56q0 -31 27.5 -53t71.5 -36t97 -28t106 -35t97 -49.5t71.5 -78.5t27.5 -116q0 -136 -101.5 -215.5t-271.5 -79.5q-199 0 -344 127q-22 19 -22 52q0 26 14 43zM285 -344q0 27 28 55q37 32 37 92q0 10 -1 26t-1 21
q0 20 8 31t33 17l121 26q6 2 14 2q32 0 47 -29t15 -65q0 -86 -57 -148.5t-140 -91.5q-12 -6 -31 -6q-42 0 -61 31q-12 18 -12 39z" />
    <glyph glyph-name="Tcommaaccent" unicode="&#x21a;" horiz-adv-x="1222" 
d="M662 0h-101q-31 0 -53.5 22.5t-22.5 53.5v1122h-389q-31 0 -53.5 22.5t-22.5 53.5v84q0 31 22.5 53.5t53.5 22.5h1030q31 0 53.5 -22.5t22.5 -53.5v-84q0 -31 -22.5 -53.5t-53.5 -22.5h-389v-1122q0 -31 -22 -53.5t-53 -22.5zM438 -344q0 26 29 55q37 32 37 92
q0 10 -1 26t-1 21q0 20 8 31t33 17l121 26q6 2 14 2q32 0 46.5 -29t14.5 -65q0 -86 -56.5 -148.5t-139.5 -91.5q-12 -6 -31 -6q-42 0 -61 31q-13 19 -13 39z" />
    <glyph glyph-name="tcommaaccent" unicode="&#x21b;" horiz-adv-x="724" 
d="M633 178l20 -37q11 -18 11 -35q0 -47 -35 -65q-104 -61 -232 -61q-152 0 -219 93t-67 277v752q0 31 22 53.5t53 22.5h84q31 0 53.5 -22.5t22.5 -53.5v-180h221q31 0 53.5 -22.5t22.5 -53.5v-70q0 -31 -22.5 -53.5t-53.5 -22.5h-221v-335q0 -166 111 -166q35 0 65 10
t47 10q41 0 64 -41zM195 -344q0 27 28 55q37 32 37 92q0 10 -1 26t-1 21q0 20 8 31t33 17l121 26q6 2 14 2q32 0 47 -29t15 -65q0 -86 -57 -148.5t-140 -91.5q-12 -6 -31 -6q-42 0 -61 31q-12 18 -12 39z" />
    <glyph glyph-name="uni0237" unicode="&#x237;" horiz-adv-x="598" 
d="M53 -205q10 -2 31 -2q111 0 111 160v893q0 31 22 53.5t53 22.5h84q31 0 53.5 -22.5t22.5 -53.5v-914q0 -358 -289 -358q-101 0 -190 39q-37 15 -37 53q0 19 4 27l23 61q10 27 23.5 37t35.5 10q8 0 27.5 -2.5t25.5 -3.5z" />
    <glyph glyph-name="uni0259" unicode="&#x259;" horiz-adv-x="1042" 
d="M756 379h-453v-4q0 -89 57.5 -145t157.5 -56q102 0 162.5 54.5t75.5 150.5zM750 537q-17 97 -90.5 154t-182.5 57q-100 0 -180 -39q-23 -13 -47 -13q-34 0 -55 27l-21 29q-14 20 -14 43q0 40 35 61q138 88 307 88q221 0 351 -131.5t130 -351.5q0 -137 -51.5 -244.5
t-159 -173.5t-256.5 -66q-197 0 -327 119t-130 310q0 39 2 57q3 29 28 51.5t56 22.5h605z" />
    <glyph glyph-name="afii57929" unicode="&#x2bc;" horiz-adv-x="475" 
d="M135 963q0 24 19 53q43 64 43 143q0 29 -11 62q-8 32 -8 43q0 23 12 38.5t41 30.5l62 37q13 8 33 8q21 0 39 -11.5t24 -27.5q29 -63 29 -127q0 -190 -144 -309q-18 -18 -55 -18t-55 18q-29 29 -29 60z" />
    <glyph glyph-name="circumflex" unicode="&#x2c6;" horiz-adv-x="878" 
d="M244 1071q-44 0 -68 35q-18 21 -18 53q0 43 32 72l183 158q27 24 67 24q43 0 70 -27l180 -155q31 -28 31 -70q0 -35 -21 -59q-27 -35 -69 -35q-29 0 -56 20l-137 111l-139 -108q-25 -19 -55 -19z" />
    <glyph glyph-name="caron" unicode="&#x2c7;" horiz-adv-x="878" 
d="M645 1415q36 0 62 -26q20 -23 20 -56q0 -42 -31 -67l-190 -166q-28 -25 -68 -25q-42 0 -69 27l-189 164q-28 28 -28 67q0 33 22 58q22 28 66 28q37 0 59 -22l141 -129l144 125q28 22 61 22z" />
    <glyph glyph-name="breve" unicode="&#x2d8;" horiz-adv-x="886" 
d="M768 1305q0 -26 -14 -43q-132 -172 -312 -172q-175 0 -290 170q-15 22 -15 43q0 32 29 55q22 16 47 16q33 0 57 -24q81 -70 183 -70q104 0 186 68q31 24 59 24q24 0 45 -16q25 -19 25 -51z" />
    <glyph glyph-name="dotaccent" unicode="&#x2d9;" horiz-adv-x="528" 
d="M270 1391q54 0 95 -38.5t41 -99.5q0 -67 -41 -107t-95 -40q-63 0 -105 39.5t-42 107.5q0 61 42.5 99.5t104.5 38.5z" />
    <glyph glyph-name="ring" unicode="&#x2da;" horiz-adv-x="765" 
d="M381 1012q-111 0 -184.5 70t-73.5 171q0 103 73.5 174.5t184.5 71.5q113 0 187.5 -71.5t74.5 -174.5q0 -101 -74.5 -171t-187.5 -70zM385 1370q-49 0 -80 -33.5t-31 -81.5t31 -82t80 -34q46 0 76.5 34t30.5 82t-30.5 81.5t-76.5 33.5z" />
    <glyph glyph-name="ogonek" unicode="&#x2db;" horiz-adv-x="731" 
d="M582 0q-91 0 -157.5 -42.5t-66.5 -96.5q0 -42 28.5 -62t64.5 -20q5 0 20 1t21 1q29 0 40.5 -1.5t21 -10t15.5 -27.5l17 -51q2 -4 2 -15q0 -16 -9.5 -31.5t-23.5 -21.5q-71 -33 -158 -33q-116 0 -195 48t-79 145q0 64 42 115t110 81t147 46t160 16v-41z" />
    <glyph glyph-name="tilde" unicode="&#x2dc;" horiz-adv-x="950" 
d="M791 1174q-114 -99 -203 -99q-30 0 -62 16t-55.5 35.5t-55.5 35.5t-63 16q-20 0 -78 -35q-35 -21 -55 -21q-29 0 -57 31q-15 18 -15 41q0 40 33 70q102 86 191 86q32 0 65.5 -16t57.5 -35.5t55 -35.5t59 -16q13 0 26 4.5t20 8.5t20 13.5t18 12.5q33 23 60 23q29 0 53 -27
q18 -21 18 -45q0 -34 -32 -63z" />
    <glyph glyph-name="hungarumlaut" unicode="&#x2dd;" horiz-adv-x="991" 
d="M508 1225l135 184q26 33 70 33q29 0 49 -17l39 -30q30 -23 30 -62q0 -29 -22 -51l-152 -162q-35 -35 -77 -35q-30 0 -52 19q-36 26 -36 74q0 25 16 47zM168 1231l117 192q21 37 67 37q25 0 45 -14l33 -23q33 -23 33 -67q0 -31 -17 -51l-131 -179q-22 -32 -71 -32
q-28 0 -54 16q-36 23 -36 70q0 29 14 51z" />
    <glyph glyph-name="gravecomb" unicode="&#x300;" horiz-adv-x="0" 
d="M-580 1427l131 -206q15 -26 15 -50q0 -44 -37 -69q-23 -17 -53 -17q-41 0 -72 31l-162 178q-16 16 -16 45q0 38 26 58l68 49q17 14 41 14q36 0 59 -33z" />
    <glyph glyph-name="acutecomb" unicode="&#x301;" horiz-adv-x="0" 
d="M-612 1229l125 194q21 35 65 35q27 0 47 -14l49 -37q31 -22 31 -64q0 -30 -18 -51l-148 -170q-27 -30 -69 -30q-30 0 -56 16q-39 26 -39 76q0 22 13 45z" />
    <glyph glyph-name="uni0394" unicode="&#x394;" horiz-adv-x="1488" 
d="M719 1450h37q28 0 52 -15.5t34 -41.5l563 -1284q6 -15 6 -31q0 -31 -22.5 -54.5t-55.5 -23.5h-1177q-33 0 -55.5 23.5t-22.5 54.5q0 16 6 31l549 1284q10 26 34 41.5t52 15.5zM731 1028l-330 -792h676z" />
    <glyph glyph-name="uni0394" unicode="&#x2206;" horiz-adv-x="1488" 
d="M719 1450h37q28 0 52 -15.5t34 -41.5l563 -1284q6 -15 6 -31q0 -31 -22.5 -54.5t-55.5 -23.5h-1177q-33 0 -55.5 23.5t-22.5 54.5q0 16 6 31l549 1284q10 26 34 41.5t52 15.5zM731 1028l-330 -792h676z" />
    <glyph glyph-name="uni03A9" unicode="&#x3a9;" horiz-adv-x="1685" 
d="M754 152v-76q0 -31 -22.5 -53.5t-53.5 -22.5h-492q-31 0 -53 22.5t-22 53.5v84q0 31 22 53.5t53 22.5h246q-76 24 -147.5 97t-121.5 192.5t-50 252.5q0 203 98 359t263.5 237.5t369.5 81.5q155 0 289.5 -48t232 -134.5t153.5 -214.5t56 -281q0 -107 -30 -203t-78.5 -163
t-103.5 -112t-110 -64h244q31 0 53.5 -22.5t22.5 -53.5v-84q0 -31 -22.5 -53.5t-53.5 -22.5h-489q-31 0 -53.5 22.5t-22.5 53.5v76q0 79 72 108q140 62 222.5 193.5t82.5 283.5q0 128 -54.5 237t-162.5 178t-248 69q-147 0 -254.5 -69.5t-159 -179t-51.5 -241.5
q0 -138 82 -274.5t221 -196.5q72 -34 72 -108z" />
    <glyph glyph-name="uni03A9" unicode="&#x2126;" horiz-adv-x="1685" 
d="M754 152v-76q0 -31 -22.5 -53.5t-53.5 -22.5h-492q-31 0 -53 22.5t-22 53.5v84q0 31 22 53.5t53 22.5h246q-76 24 -147.5 97t-121.5 192.5t-50 252.5q0 203 98 359t263.5 237.5t369.5 81.5q155 0 289.5 -48t232 -134.5t153.5 -214.5t56 -281q0 -107 -30 -203t-78.5 -163
t-103.5 -112t-110 -64h244q31 0 53.5 -22.5t22.5 -53.5v-84q0 -31 -22.5 -53.5t-53.5 -22.5h-489q-31 0 -53.5 22.5t-22.5 53.5v76q0 79 72 108q140 62 222.5 193.5t82.5 283.5q0 128 -54.5 237t-162.5 178t-248 69q-147 0 -254.5 -69.5t-159 -179t-51.5 -241.5
q0 -138 82 -274.5t221 -196.5q72 -34 72 -108z" />
    <glyph glyph-name="pi" unicode="&#x3c0;" horiz-adv-x="1269" 
d="M55 53l-8 82v12q0 29 12.5 45t42.5 25q134 44 142 356l2 127h-94q-31 0 -53.5 22.5t-22.5 53.5v70q0 31 22.5 53.5t53.5 22.5h942q31 0 53 -22.5t22 -53.5v-70q0 -31 -22 -53.5t-53 -22.5h-82v-360q0 -73 16 -106t51 -33q7 0 27 4q40 8 49 8q41 0 62 -43l22 -41
q8 -13 8 -31q0 -43 -35 -61q-101 -57 -231 -57q-205 0 -205 264v456h-297v-92q0 -169 -21.5 -286t-66.5 -188t-106 -105t-148 -43h-6q-28 0 -50.5 19.5t-25.5 47.5z" />
    <glyph glyph-name="afii10023" unicode="&#x401;" horiz-adv-x="1177" 
d="M1049 160v-84q0 -31 -22.5 -53.5t-53.5 -22.5h-699q-31 0 -53 22.5t-22 53.5v1282q0 31 22 53.5t53 22.5h678q31 0 53.5 -22.5t22.5 -53.5v-84q0 -31 -22.5 -53.5t-53.5 -22.5h-501v-356h440q31 0 53.5 -22.5t22.5 -53.5v-84q0 -31 -22.5 -53.5t-53.5 -22.5h-440v-370
h522q31 0 53.5 -22.5t22.5 -53.5zM401 1817q59 0 102.5 -35t43.5 -92q0 -63 -43.5 -99.5t-102.5 -36.5q-67 0 -112 36t-45 100q0 58 45 92.5t112 34.5zM877 1817q60 0 102.5 -34.5t42.5 -92.5q0 -63 -42.5 -99.5t-102.5 -36.5q-67 0 -112.5 36t-45.5 100q0 58 45.5 92.5
t112.5 34.5z" />
    <glyph glyph-name="afii10051" unicode="&#x402;" horiz-adv-x="1564" 
d="M737 1198v-414q136 82 305 82q74 0 136.5 -13.5t118 -46t93.5 -83t60.5 -128.5t22.5 -179q0 -218 -96 -328.5t-261 -110.5q-119 0 -223 66q-39 25 -39 61q0 18 8 31l39 72q18 37 57 37q15 0 37 -11q41 -20 78 -20q71 0 110.5 48.5t39.5 150.5q0 115 -58.5 167t-169.5 52
q-133 0 -258 -76v-479q0 -31 -22 -53.5t-53 -22.5h-101q-31 0 -53.5 22.5t-22.5 53.5v1122h-389q-31 0 -53.5 22.5t-22.5 53.5v84q0 31 22.5 53.5t53.5 22.5h1030q31 0 53.5 -22.5t22.5 -53.5v-84q0 -31 -22.5 -53.5t-53.5 -22.5h-389z" />
    <glyph glyph-name="afii10052" unicode="&#x403;" horiz-adv-x="1038" 
d="M451 1198v-1122q0 -31 -22.5 -53.5t-53.5 -22.5h-101q-31 0 -53 22.5t-22 53.5v1282q0 31 22 53.5t53 22.5h658q31 0 53.5 -22.5t22.5 -53.5v-84q0 -31 -22.5 -53.5t-53.5 -22.5h-481zM584 1673l303 158q13 8 33 8q46 0 65 -43l27 -63q6 -12 6 -29q0 -22 -13 -40.5
t-34 -25.5l-318 -116q-8 -4 -26 -4q-56 0 -78 51q-8 13 -8 35t11.5 41t31.5 28z" />
    <glyph glyph-name="afii10053" unicode="&#x404;" horiz-adv-x="1366" 
d="M1171 1141q-23 0 -41 10q-128 70 -272 70q-202 0 -334.5 -98t-169.5 -275h566q31 0 53 -22.5t22 -53.5v-84q0 -31 -22 -53.5t-53 -22.5h-570q16 -98 64.5 -175.5t118.5 -125.5t155 -73t180 -25q140 0 281 72q21 12 45 12q43 0 70 -47l30 -55q13 -23 13 -41q0 -45 -45 -72
q-176 -105 -414 -105q-346 0 -551 199.5t-205 540.5q0 216 92 384.5t256 261.5t373 93q268 0 432 -115q39 -25 39 -63q0 -21 -12 -39l-37 -59q-20 -39 -64 -39z" />
    <glyph glyph-name="afii10054" unicode="&#x405;" horiz-adv-x="1114" 
d="M111 256l67 72q22 22 51 22q33 0 58 -22q139 -115 260 -115q92 0 150.5 44.5t58.5 123.5q0 45 -22 82t-60 64.5t-86.5 51.5t-102.5 48.5t-108 51t-102.5 62t-86.5 78.5t-60 105t-22 137q0 167 122 281t325 114q185 0 342 -88q37 -19 37 -65q0 -18 -10 -35l-39 -68
q-24 -41 -68 -41q-21 0 -37 8q-111 54 -205 54q-93 0 -146.5 -43.5t-53.5 -114.5q0 -60 36 -105.5t93 -76.5t126 -59.5t138.5 -64.5t126.5 -82t93 -120.5t36 -171.5q0 -179 -137.5 -292.5t-341.5 -113.5q-121 0 -221 40t-203 135q-27 24 -27 59q0 26 19 45z" />
    <glyph glyph-name="afii10055" unicode="&#x406;" horiz-adv-x="710" 
d="M481 1358v-1282q0 -31 -22 -53.5t-53 -22.5h-101q-31 0 -53.5 22.5t-22.5 53.5v1282q0 31 22.5 53.5t53.5 22.5h101q31 0 53 -22.5t22 -53.5z" />
    <glyph glyph-name="afii10056" unicode="&#x407;" horiz-adv-x="712" 
d="M53 1690q0 57 39 92t96 35q53 0 91 -35t38 -92q0 -63 -37.5 -99.5t-91.5 -36.5q-58 0 -96.5 36t-38.5 100zM395 1690q0 57 39.5 92t97.5 35q52 0 89.5 -35.5t37.5 -91.5q0 -63 -37.5 -99.5t-89.5 -36.5q-59 0 -98 36t-39 100zM481 1358v-1282q0 -31 -22 -53.5t-53 -22.5
h-101q-31 0 -53.5 22.5t-22.5 53.5v1282q0 31 22.5 53.5t53.5 22.5h101q31 0 53 -22.5t22 -53.5z" />
    <glyph glyph-name="afii10057" unicode="&#x408;" horiz-adv-x="796" 
d="M346 381v977q0 31 22.5 53.5t53.5 22.5h100q31 0 53.5 -22.5t22.5 -53.5v-1020q0 -174 -87 -267.5t-259 -93.5q-101 0 -191 39q-47 16 -47 66q0 16 6 31l25 69q14 47 68 47q10 0 30 -4q50 -12 74 -12q129 0 129 168z" />
    <glyph glyph-name="afii10058" unicode="&#x409;" horiz-adv-x="2062" 
d="M1286 707v-469q11 -1 57.5 -4t75.5 -3q139 0 212 63.5t73 188.5q0 114 -73.5 174t-207.5 60q-45 0 -137 -10zM362 1147l15 211q3 32 26.5 54t55.5 22h751q31 0 53.5 -22.5t22.5 -53.5v-416q79 10 158 10q260 0 393 -123t133 -340q0 -231 -152.5 -362t-426.5 -131
q-123 0 -279 4q-32 0 -54 22.5t-22 53.5v1122h-418l-28 -270q-24 -222 -57.5 -385t-73.5 -268t-92.5 -168t-108.5 -88t-127 -25h-8q-38 0 -61 21.5t-23 58.5v71q0 53 14.5 73.5t65.5 33.5q186 51 243 895z" />
    <glyph glyph-name="afii10059" unicode="&#x40a;" horiz-adv-x="2113" 
d="M451 662v-586q0 -31 -22.5 -53.5t-53.5 -22.5h-101q-31 0 -53 22.5t-22 53.5v1282q0 31 22 53.5t53 22.5h101q31 0 53.5 -22.5t22.5 -53.5v-461h634v461q0 31 22.5 53.5t53.5 22.5h99q31 0 53 -22.5t22 -53.5v-451q88 8 160 8q260 0 393 -119t133 -325q0 -219 -153 -347
t-426 -128q-121 0 -281 4q-31 0 -53.5 22.5t-22.5 53.5v586h-634zM1335 238q13 -1 60 -4t75 -3q139 0 212 59.5t73 174.5q0 104 -73.5 159.5t-206.5 55.5q-69 0 -140 -10v-432z" />
    <glyph glyph-name="afii10060" unicode="&#x40b;" horiz-adv-x="1566" 
d="M662 0h-101q-31 0 -53.5 22.5t-22.5 53.5v1122h-389q-31 0 -53.5 22.5t-22.5 53.5v84q0 31 22.5 53.5t53.5 22.5h1030q31 0 53.5 -22.5t22.5 -53.5v-84q0 -31 -22.5 -53.5t-53.5 -22.5h-389v-414q130 82 307 82q68 0 128.5 -14.5t116.5 -48.5t97 -85.5t65 -130t24 -177.5
v-334q0 -31 -22.5 -53.5t-53.5 -22.5h-99q-31 0 -53 22.5t-22 53.5v260q0 161 -65.5 228t-180.5 67q-122 0 -242 -78v-477q0 -31 -22 -53.5t-53 -22.5z" />
    <glyph glyph-name="afii10061" unicode="&#x40c;" horiz-adv-x="1359" 
d="M451 739v-663q0 -31 -22.5 -53.5t-53.5 -22.5h-101q-31 0 -53 22.5t-22 53.5v1282q0 31 22 53.5t53 22.5h101q31 0 53.5 -22.5t22.5 -53.5v-604l526 632q38 48 100 48h92q28 0 47 -20.5t19 -47.5q0 -29 -16 -45l-490 -555l531 -649q16 -19 16 -45q0 -29 -20 -50.5
t-50 -21.5h-108q-61 0 -101 49zM676 1673l303 158q13 8 33 8q46 0 65 -43l27 -63q6 -12 6 -29q0 -22 -13 -40.5t-34 -25.5l-318 -116q-8 -4 -26 -4q-56 0 -78 51q-8 13 -8 35t11.5 41t31.5 28z" />
    <glyph glyph-name="afii10062" unicode="&#x40e;" horiz-adv-x="1384" 
d="M328 1380l438 -747l317 743q10 26 34 42t52 16h74q33 0 55.5 -23.5t22.5 -54.5q0 -16 -6 -31l-441 -991q-76 -170 -167.5 -252t-221.5 -82q-65 0 -129 23q-49 18 -49 63q0 13 6 31l27 73q19 54 68 54q22 0 36 -4q24 -4 39 -4q94 0 142 100l20 49l-571 948q-11 22 -11 35
q0 27 19.5 46.5t48.5 19.5h105q28 0 53.5 -14.5t38.5 -39.5zM1126 1784q0 -133 -112 -214t-297 -81t-297.5 81t-112.5 214q0 52 31.5 86.5t89.5 34.5q57 0 86 -34t29 -87q0 -121 174 -121t174 121q0 53 29 87t86 34q58 0 89 -34.5t31 -86.5z" />
    <glyph glyph-name="afii10145" unicode="&#x40f;" horiz-adv-x="1519" 
d="M801 -313h-84q-31 0 -53.5 22t-22.5 53v238h-367q-31 0 -53 22.5t-22 53.5v1282q0 31 22 53.5t53 22.5h101q31 0 53.5 -22.5t22.5 -53.5v-1122h618v1122q0 31 22.5 53.5t53.5 22.5h100q31 0 53.5 -22.5t22.5 -53.5v-1282q0 -31 -22.5 -53.5t-53.5 -22.5h-368v-238
q0 -31 -22.5 -53t-53.5 -22z" />
    <glyph glyph-name="afii10017" unicode="&#x410;" horiz-adv-x="1445" 
d="M1022 367h-612l-127 -310q-9 -26 -32.5 -41.5t-51.5 -15.5h-74q-35 0 -57.5 23.5t-22.5 56.5q0 14 6 29l537 1271q10 26 34 42t52 16h98q28 0 52 -16t34 -42l537 -1271q6 -15 6 -29q0 -33 -22.5 -56.5t-57.5 -23.5h-88q-28 0 -51.5 15.5t-32.5 41.5zM717 1112l-211 -510
h420z" />
    <glyph glyph-name="afii10018" unicode="&#x411;" horiz-adv-x="1257" 
d="M451 879q83 12 192 12q223 0 352 -116.5t129 -315.5q0 -223 -144.5 -345t-408.5 -122q-69 0 -297 6q-32 2 -53.5 24t-21.5 54v1282q0 31 22 53.5t53 22.5h687q31 0 53 -22.5t22 -53.5v-84q0 -31 -22 -53.5t-53 -22.5h-510v-319zM451 643v-407q128 -9 159 -9
q134 0 199 56.5t65 156.5q0 98 -62.5 156.5t-188.5 58.5q-77 0 -172 -12z" />
    <glyph glyph-name="afii10019" unicode="&#x412;" horiz-adv-x="1263" 
d="M1083 1085q0 -229 -204 -327q113 -30 182 -115t69 -221q0 -108 -40 -191t-112.5 -135t-168 -78t-211.5 -26q-183 0 -324 6q-31 2 -53 24.5t-22 53.5v1278q0 32 22 55t53 25q282 6 338 6q125 0 217.5 -27t147 -76t80.5 -112t26 -140zM451 616v-378q96 -11 165 -11
q128 0 195.5 53t67.5 154q0 90 -65 136t-185 46h-178zM451 836h170q93 0 153 48t60 142q0 86 -61 132t-165 46q-90 0 -157 -6v-362z" />
    <glyph glyph-name="afii10020" unicode="&#x413;" horiz-adv-x="1038" 
d="M451 1198v-1122q0 -31 -22.5 -53.5t-53.5 -22.5h-101q-31 0 -53 22.5t-22 53.5v1282q0 31 22 53.5t53 22.5h658q31 0 53.5 -22.5t22.5 -53.5v-84q0 -31 -22.5 -53.5t-53.5 -22.5h-481z" />
    <glyph glyph-name="afii10021" unicode="&#x414;" horiz-adv-x="1548" 
d="M489 1434h738q31 0 53.5 -22.5t22.5 -53.5v-1122h118q31 0 53.5 -22.5t22.5 -53.5v-340q0 -31 -22.5 -53.5t-53.5 -22.5h-84q-31 0 -53 22.5t-22 53.5v180h-1002v-180q0 -31 -22.5 -53.5t-53.5 -22.5h-84q-31 0 -53 22.5t-22 53.5v340q0 31 22 53.5t53 22.5h78
q26 32 57 101t66 178.5t62 276.5t36 355l11 211q2 32 24.5 54t54.5 22zM1053 236v962h-396l-22 -250q-18 -251 -75.5 -452.5t-104.5 -259.5h598z" />
    <glyph glyph-name="afii10022" unicode="&#x415;" horiz-adv-x="1177" 
d="M1049 160v-84q0 -31 -22.5 -53.5t-53.5 -22.5h-699q-31 0 -53 22.5t-22 53.5v1282q0 31 22 53.5t53 22.5h678q31 0 53.5 -22.5t22.5 -53.5v-84q0 -31 -22.5 -53.5t-53.5 -22.5h-501v-356h440q31 0 53.5 -22.5t22.5 -53.5v-84q0 -31 -22.5 -53.5t-53.5 -22.5h-440v-370
h522q31 0 53.5 -22.5t22.5 -53.5z" />
    <glyph glyph-name="afii10024" unicode="&#x416;" horiz-adv-x="1921" 
d="M1010 0h-99q-31 0 -53 22.5t-22 53.5v667l-506 -692q-38 -51 -99 -51h-77q-33 0 -53.5 22.5t-20.5 53.5q0 25 14 45l471 627l-446 567q-15 21 -15 45q0 30 20.5 52t51.5 22h78q61 0 98 -50l484 -634v608q0 31 22 53.5t53 22.5h99q31 0 53 -22.5t22 -53.5v-608l482 634
q37 50 98 50h80q31 0 51.5 -22t20.5 -52q0 -24 -15 -45l-446 -565l471 -629q14 -20 14 -45q0 -31 -20.5 -53.5t-53.5 -22.5h-79q-61 0 -99 51l-504 692v-667q0 -31 -22 -53.5t-53 -22.5z" />
    <glyph glyph-name="afii10025" unicode="&#x417;" horiz-adv-x="1183" 
d="M565 1456q194 0 312 -103.5t118 -289.5q0 -89 -48.5 -175t-143.5 -143q125 -34 186.5 -125t61.5 -219q0 -127 -72 -225.5t-185 -148.5t-245 -50q-260 0 -451 183q-24 21 -24 57q0 30 18 51l53 62q25 28 60 28q25 0 47 -16q161 -129 285 -129q111 0 187.5 54.5t76.5 158.5
q0 87 -65.5 137.5t-188.5 50.5h-72q-31 0 -53.5 22.5t-22.5 53.5v84q0 31 22.5 53.5t53.5 22.5h64q84 0 145 51t61 137q0 89 -57.5 136t-150.5 47q-117 0 -244 -93q-26 -16 -49 -16q-36 0 -62 29l-45 55q-16 19 -16 47q0 34 26 57q100 78 198 117t220 39z" />
    <glyph glyph-name="afii10026" unicode="&#x418;" horiz-adv-x="1622" 
d="M1348 0h-101q-31 0 -53.5 22.5t-22.5 53.5v942l-714 -969q-39 -49 -90 -49h-93q-31 0 -53 22.5t-22 53.5v1282q0 31 22 53.5t53 22.5h101q31 0 53.5 -22.5t22.5 -53.5v-944l714 968q39 52 90 52h93q31 0 53 -22.5t22 -53.5v-1282q0 -31 -22 -53.5t-53 -22.5z" />
    <glyph glyph-name="afii10027" unicode="&#x419;" horiz-adv-x="1622" 
d="M1348 0h-101q-31 0 -53.5 22.5t-22.5 53.5v942l-714 -969q-39 -49 -90 -49h-93q-31 0 -53 22.5t-22 53.5v1282q0 31 22 53.5t53 22.5h101q31 0 53.5 -22.5t22.5 -53.5v-944l714 968q39 52 90 52h93q31 0 53 -22.5t22 -53.5v-1282q0 -31 -22 -53.5t-53 -22.5zM1245 1784
q0 -133 -112 -214t-297 -81t-297.5 81t-112.5 214q0 52 31.5 86.5t89.5 34.5q57 0 86 -34t29 -87q0 -121 174 -121t174 121q0 53 28.5 87t85.5 34q58 0 89.5 -34.5t31.5 -86.5z" />
    <glyph glyph-name="afii10028" unicode="&#x41a;" horiz-adv-x="1359" 
d="M451 739v-663q0 -31 -22.5 -53.5t-53.5 -22.5h-101q-31 0 -53 22.5t-22 53.5v1282q0 31 22 53.5t53 22.5h101q31 0 53.5 -22.5t22.5 -53.5v-604l526 632q38 48 100 48h92q28 0 47 -20.5t19 -47.5q0 -29 -16 -45l-490 -555l531 -649q16 -19 16 -45q0 -29 -20 -50.5
t-50 -21.5h-108q-61 0 -101 49z" />
    <glyph glyph-name="afii10029" unicode="&#x41b;" horiz-adv-x="1484" 
d="M1286 1358v-1282q0 -31 -22.5 -53.5t-53.5 -22.5h-98q-31 0 -53.5 22.5t-22.5 53.5v1122h-418l-28 -270q-22 -221 -55.5 -384.5t-73.5 -268.5t-93.5 -168t-109.5 -88t-127 -25h-8q-38 0 -61 21.5t-23 58.5v71q0 53 14.5 73.5t65.5 33.5q186 51 243 895l15 211
q3 32 26.5 54t55.5 22h751q31 0 53.5 -22.5t22.5 -53.5z" />
    <glyph glyph-name="afii10030" unicode="&#x41c;" horiz-adv-x="1845" 
d="M451 1030v-954q0 -31 -22.5 -53.5t-53.5 -22.5h-101q-31 0 -53 22.5t-22 53.5v1282q0 31 22 53.5t53 22.5h117q59 0 98 -52l453 -618l432 618q15 23 41.5 37.5t54.5 14.5h101q31 0 53.5 -22.5t22.5 -53.5v-1282q0 -31 -22.5 -53.5t-53.5 -22.5h-98q-31 0 -53.5 22.5
t-22.5 53.5v960l-375 -526q-40 -55 -96 -55q-59 0 -99 55z" />
    <glyph glyph-name="afii10031" unicode="&#x41d;" horiz-adv-x="1554" 
d="M1356 1358v-1282q0 -31 -22.5 -53.5t-53.5 -22.5h-98q-31 0 -53.5 22.5t-22.5 53.5v536h-655v-536q0 -31 -22.5 -53.5t-53.5 -22.5h-101q-31 0 -53 22.5t-22 53.5v1282q0 31 22 53.5t53 22.5h101q31 0 53.5 -22.5t22.5 -53.5v-510h655v510q0 31 22.5 53.5t53.5 22.5h98
q31 0 53.5 -22.5t22.5 -53.5z" />
    <glyph glyph-name="afii10032" unicode="&#x41e;" horiz-adv-x="1677" 
d="M92 717q0 154 55 290.5t152.5 235.5t237 156t301.5 57q212 0 381.5 -91t267.5 -260t98 -388q0 -212 -97.5 -381.5t-268 -264t-381.5 -94.5q-212 0 -381.5 91t-267 260.5t-97.5 388.5zM358 717q0 -214 139 -359t341 -145q220 0 350.5 143t130.5 361q0 220 -138 362
t-343 142q-207 0 -343.5 -141.5t-136.5 -362.5z" />
    <glyph glyph-name="afii10033" unicode="&#x41f;" horiz-adv-x="1540" 
d="M1341 1358v-1282q0 -31 -22 -53.5t-53 -22.5h-101q-31 0 -53 22.5t-22 53.5v1122h-639v-1122q0 -31 -22.5 -53.5t-53.5 -22.5h-101q-31 0 -53 22.5t-22 53.5v1282q0 31 22 53.5t53 22.5h992q31 0 53 -22.5t22 -53.5z" />
    <glyph glyph-name="afii10034" unicode="&#x420;" horiz-adv-x="1253" 
d="M606 1438q123 0 219.5 -25.5t158.5 -68.5t102.5 -103t57.5 -125t17 -139q0 -93 -34.5 -176t-98.5 -148t-165.5 -103t-225.5 -38q-125 0 -186 6v-442q0 -31 -22.5 -53.5t-53.5 -22.5h-101q-31 0 -53 22.5t-22 53.5v1282q0 31 21.5 53.5t53.5 22.5q204 4 332 4zM451 1198
v-440q98 -10 178 -10q119 0 192.5 58t73.5 173q0 223 -264 223q-44 0 -180 -4z" />
    <glyph glyph-name="afii10035" unicode="&#x421;" horiz-adv-x="1331" 
d="M1079 1151q-137 70 -254 70q-204 0 -335.5 -137.5t-131.5 -366.5q0 -224 138 -364t358 -140q127 0 258 72q24 12 47 12q46 0 66 -35l37 -57q14 -20 14 -47q0 -39 -29 -58q-187 -123 -416 -123q-217 0 -385 91.5t-261 260t-93 388.5q0 155 48.5 289t139.5 234.5t231.5 158
t313.5 57.5q92 0 192.5 -28t182.5 -74q41 -20 41 -60q0 -20 -12 -41l-43 -75q-23 -39 -62 -39q-24 0 -45 12z" />
    <glyph glyph-name="afii10036" unicode="&#x422;" horiz-adv-x="1222" 
d="M662 0h-101q-31 0 -53.5 22.5t-22.5 53.5v1122h-389q-31 0 -53.5 22.5t-22.5 53.5v84q0 31 22.5 53.5t53.5 22.5h1030q31 0 53.5 -22.5t22.5 -53.5v-84q0 -31 -22.5 -53.5t-53.5 -22.5h-389v-1122q0 -31 -22 -53.5t-53 -22.5z" />
    <glyph glyph-name="afii10037" unicode="&#x423;" horiz-adv-x="1384" 
d="M328 1380l438 -747l317 743q10 26 34 42t52 16h74q33 0 55.5 -23.5t22.5 -54.5q0 -16 -6 -31l-441 -991q-76 -170 -167.5 -252t-221.5 -82q-65 0 -129 23q-49 18 -49 63q0 13 6 31l27 73q19 54 68 54q22 0 36 -4q24 -4 39 -4q94 0 142 100l20 49l-571 948q-11 22 -11 35
q0 27 19.5 46.5t48.5 19.5h105q28 0 53.5 -14.5t38.5 -39.5z" />
    <glyph glyph-name="afii10038" unicode="&#x424;" horiz-adv-x="1718" 
d="M985 174v-115q0 -31 -22.5 -53t-53.5 -22h-100q-31 0 -53.5 22t-22.5 53v115q-302 0 -481.5 148t-179.5 415q0 263 180 410.5t481 152.5v74q0 31 22.5 53.5t53.5 22.5h100q31 0 53.5 -22.5t22.5 -53.5v-74q299 -5 480.5 -154.5t181.5 -408.5q0 -176 -84.5 -304t-233 -193
t-344.5 -66zM985 406q395 3 395 331q0 150 -100 239.5t-295 92.5v-663zM733 1069q-192 -1 -293.5 -91t-101.5 -241q0 -160 102.5 -244.5t292.5 -86.5v663z" />
    <glyph glyph-name="afii10039" unicode="&#x425;" horiz-adv-x="1341" 
d="M358 1382l318 -467l311 467q15 23 41.5 37.5t54.5 14.5h97q31 0 51 -22t20 -52q0 -21 -12 -39l-405 -590l423 -618q13 -20 13 -39q0 -30 -20.5 -52t-51.5 -22h-96q-28 0 -54.5 14t-41.5 37l-336 488l-334 -488q-15 -23 -41.5 -37t-54.5 -14h-97q-31 0 -51 22t-20 52
q0 21 12 39l424 618l-402 590q-12 18 -12 41q0 29 20.5 50.5t51.5 21.5h96q28 0 54.5 -14.5t41.5 -37.5z" />
    <glyph glyph-name="afii10040" unicode="&#x426;" horiz-adv-x="1576" 
d="M1450 -256h-84q-31 0 -53.5 22.5t-22.5 53.5v180h-1016q-31 0 -53 22.5t-22 53.5v1282q0 31 22 53.5t53 22.5h101q31 0 53.5 -22.5t22.5 -53.5v-1122h628v1122q0 31 22.5 53.5t53.5 22.5h100q31 0 53.5 -22.5t22.5 -53.5v-1122h119q31 0 53.5 -22.5t22.5 -53.5v-340
q0 -31 -22.5 -53.5t-53.5 -22.5z" />
    <glyph glyph-name="afii10041" unicode="&#x427;" horiz-adv-x="1366" 
d="M915 817v541q0 31 22.5 53.5t53.5 22.5h101q31 0 53 -22.5t22 -53.5v-1282q0 -31 -22 -53.5t-53 -22.5h-101q-31 0 -53.5 22.5t-22.5 53.5v512q-58 -42 -146.5 -70.5t-195.5 -28.5q-86 0 -160.5 24.5t-138 76t-100.5 143.5t-37 215v410q0 31 22.5 53.5t53.5 22.5h100
q31 0 53.5 -22.5t22.5 -53.5v-338q0 -295 252 -295q139 0 274 92z" />
    <glyph glyph-name="afii10042" unicode="&#x428;" horiz-adv-x="2041" 
d="M1843 1358v-1282q0 -31 -22.5 -53.5t-53.5 -22.5h-1493q-31 0 -53 22.5t-22 53.5v1282q0 31 22 53.5t53 22.5h101q31 0 53.5 -22.5t22.5 -53.5v-1122h444v1122q0 31 22.5 53.5t53.5 22.5h100q31 0 53.5 -22.5t22.5 -53.5v-1122h444v1122q0 31 22.5 53.5t53.5 22.5h100
q31 0 53.5 -22.5t22.5 -53.5z" />
    <glyph glyph-name="afii10043" unicode="&#x429;" horiz-adv-x="2088" 
d="M1962 -256h-84q-31 0 -53.5 22.5t-22.5 53.5v180h-1528q-31 0 -53 22.5t-22 53.5v1282q0 31 22 53.5t53 22.5h101q31 0 53.5 -22.5t22.5 -53.5v-1122h444v1122q0 31 22.5 53.5t53.5 22.5h100q31 0 53.5 -22.5t22.5 -53.5v-1122h444v1122q0 31 22.5 53.5t53.5 22.5h100
q31 0 53.5 -22.5t22.5 -53.5v-1122h119q31 0 53.5 -22.5t22.5 -53.5v-340q0 -31 -22.5 -53.5t-53.5 -22.5z" />
    <glyph glyph-name="afii10044" unicode="&#x42a;" horiz-adv-x="1378" 
d="M690 -4q-124 0 -284 4q-32 0 -54 22.5t-22 53.5v1122h-240q-31 0 -53.5 22.5t-22.5 53.5v84q0 31 22.5 53.5t53.5 22.5h414q31 0 53.5 -22.5t22.5 -53.5v-416q82 10 165 10q271 0 406 -122.5t135 -340.5q0 -230 -156 -361.5t-440 -131.5zM580 707v-469q11 0 61.5 -3.5
t79.5 -3.5q143 0 221 62t78 190q0 118 -79 176t-216 58q-50 0 -145 -10z" />
    <glyph glyph-name="afii10045" unicode="&#x42b;" horiz-adv-x="1769" 
d="M1571 1358v-1282q0 -31 -22.5 -53.5t-53.5 -22.5h-98q-31 0 -53.5 22.5t-22.5 53.5v1282q0 31 22.5 53.5t53.5 22.5h98q31 0 53.5 -22.5t22.5 -53.5zM451 707v-469q11 0 58.5 -3.5t76.5 -3.5q139 0 210.5 63.5t71.5 188.5q0 114 -72.5 174t-205.5 60q-44 0 -139 -10z
M199 76v1282q0 31 22 53.5t53 22.5h101q31 0 53.5 -22.5t22.5 -53.5v-416q79 10 159 10q259 0 392 -123t133 -340q0 -229 -153.5 -361t-426.5 -132q-121 0 -281 4q-32 0 -53.5 22.5t-21.5 53.5z" />
    <glyph glyph-name="afii10046" unicode="&#x42c;" horiz-adv-x="1247" 
d="M451 707v-469q9 0 59.5 -3.5t79.5 -3.5q143 0 221 62t78 190q0 118 -79 176t-216 58q-48 0 -143 -10zM199 76v1282q0 31 22 53.5t53 22.5h101q31 0 53.5 -22.5t22.5 -53.5v-416q79 10 163 10q271 0 406 -122.5t135 -340.5q0 -230 -155.5 -361.5t-438.5 -131.5
q-127 0 -287 4q-32 0 -53.5 22.5t-21.5 53.5z" />
    <glyph glyph-name="afii10047" unicode="&#x42d;" horiz-adv-x="1368" 
d="M174 307q21 0 49 -14q143 -80 299 -80q125 0 228 44t175 135.5t93 219.5h-569q-31 0 -53.5 22.5t-22.5 53.5v84q0 31 22.5 53.5t53.5 22.5h563q-36 178 -173.5 275.5t-342.5 97.5q-134 0 -254 -72q-24 -12 -47 -12q-45 0 -64 32l-45 64q-12 18 -12 41q0 39 35 63
q176 119 432 119q216 0 383 -90.5t259.5 -258.5t92.5 -388q0 -338 -203.5 -540t-546.5 -202q-133 0 -235 23.5t-203 91.5q-35 24 -35 66q0 17 10 37l48 75q21 37 63 37z" />
    <glyph glyph-name="afii10048" unicode="&#x42e;" horiz-adv-x="2213" 
d="M451 612v-536q0 -31 -22.5 -53.5t-53.5 -22.5h-101q-31 0 -53 22.5t-22 53.5v1282q0 31 22 53.5t53 22.5h101q31 0 53.5 -22.5t22.5 -53.5v-510h243q41 268 231 438t470 170q158 0 293 -53t230.5 -148.5t149.5 -234t54 -303.5q0 -213 -92.5 -381.5t-258.5 -263.5
t-376 -95q-182 0 -334 77.5t-250.5 222.5t-120.5 335h-239zM950 717q0 -214 131.5 -359t321.5 -145q146 0 250 68t153 180t49 256q0 223 -125 363.5t-327 140.5q-195 0 -324 -141.5t-129 -362.5z" />
    <glyph glyph-name="afii10049" unicode="&#x42f;" horiz-adv-x="1277" 
d="M1079 1358v-1282q0 -31 -22 -53.5t-53 -22.5h-99q-31 0 -53.5 22.5t-22.5 53.5v420h-206l-287 -443q-15 -24 -41.5 -38.5t-54.5 -14.5h-84q-32 0 -53 22t-21 52q0 23 12 41l291 432q-110 56 -181 157t-71 240q0 102 34.5 189.5t103 157t184.5 109.5t268 40q11 0 281 -6
q32 0 53.5 -22t21.5 -54zM829 731v467q-105 6 -157 6q-124 0 -198.5 -67.5t-74.5 -175.5q0 -91 59 -152.5t142 -77.5h229z" />
    <glyph glyph-name="afii10065" unicode="&#x430;" horiz-adv-x="948" 
d="M360 -12q-129 0 -208.5 75.5t-79.5 206.5q0 146 94.5 222.5t241.5 76.5q60 0 116.5 -16.5t91.5 -42.5v29q0 106 -39.5 157.5t-132.5 51.5q-80 0 -157 -25q-18 -6 -37 -6q-49 0 -70 43l-12 24q-8 20 -8 33q0 20 12 38.5t31 27.5q132 61 266 61q197 0 283 -96t86 -287v-485
q0 -31 -22.5 -53.5t-53.5 -22.5h-53q-31 0 -53.5 22.5t-22.5 53.5v30q-38 -54 -109.5 -86t-163.5 -32zM616 270v95q-60 45 -161 45q-63 0 -105.5 -29.5t-42.5 -85.5q0 -51 37 -80t94 -29q119 0 178 84z" />
    <glyph glyph-name="afii10066" unicode="&#x431;" horiz-adv-x="1114" 
d="M629 905q191 0 305.5 -122.5t114.5 -329.5q0 -129 -59.5 -237t-171 -173.5t-253.5 -65.5q-231 0 -365 157.5t-134 426.5q0 592 348 742q69 29 140.5 45t124 27.5t87.5 31.5q49 29 80 29q33 0 57 -27l47 -53q21 -21 21 -53t-21 -50q-53 -52 -113.5 -80.5t-108 -34.5
t-112.5 -21t-116 -40q-175 -80 -197 -344q45 76 135.5 124t190.5 48zM569 686q-94 0 -160.5 -49.5t-91.5 -124.5q2 -137 67 -226t175 -89q109 0 173.5 70.5t64.5 174.5q0 107 -59.5 175.5t-168.5 68.5z" />
    <glyph glyph-name="afii10067" unicode="&#x432;" horiz-adv-x="1028" 
d="M494 932q417 0 417 -242q0 -80 -50 -137t-122 -70q96 -25 146.5 -80t50.5 -135q0 -278 -438 -278q-50 0 -159 3.5t-132 4.5q-32 2 -54 24t-22 54v770q0 32 22 54t54 24q156 8 287 8zM367 391v-205q140 -8 155 -8q77 0 121.5 29.5t44.5 77.5q0 52 -45 79t-129 27h-147z
M367 737v-202h153q62 0 102 27t40 79q0 49 -40 74.5t-108 25.5q-97 0 -147 -4z" />
    <glyph glyph-name="afii10068" unicode="&#x433;" horiz-adv-x="765" 
d="M674 700h-307v-624q0 -31 -22.5 -53.5t-53.5 -22.5h-84q-31 0 -53.5 22.5t-22.5 53.5v770q0 31 22.5 53.5t53.5 22.5h467q31 0 53.5 -22.5t22.5 -53.5v-70q0 -31 -22.5 -53.5t-53.5 -22.5z" />
    <glyph glyph-name="afii10069" unicode="&#x434;" horiz-adv-x="1134" 
d="M893 0h-653v-139q0 -31 -22.5 -53.5t-53.5 -22.5h-68q-31 0 -53.5 22.5t-22.5 53.5v282q0 31 22.5 53.5t53.5 22.5h41q50 65 85 195t44 286l10 146q1 32 24.5 54t55.5 22h529q31 0 53.5 -22.5t22.5 -53.5v-627h77q31 0 53.5 -22.5t22.5 -53.5v-282q0 -31 -22.5 -53.5
t-53.5 -22.5h-69q-31 0 -53.5 22.5t-22.5 53.5v139zM383 219h342v481h-225l-6 -94q-12 -135 -44 -236.5t-67 -150.5z" />
    <glyph glyph-name="afii10070" unicode="&#x435;" horiz-adv-x="1071" 
d="M309 547h453v4q0 86 -57 141.5t-154 55.5q-102 0 -162 -53t-80 -148zM594 174q100 0 180 39q28 14 47 14q36 0 60 -34l18 -27q12 -18 12 -41q0 -43 -32 -62q-138 -86 -310 -86q-223 0 -359 133t-136 351q0 100 34 188.5t95.5 153.5t154 103t203.5 38q183 0 309.5 -119.5
t126.5 -308.5q0 -37 -2 -53q-2 -26 -27 -50t-53 -24h-598q15 -102 90.5 -158.5t186.5 -56.5z" />
    <glyph glyph-name="afii10072" unicode="&#x436;" horiz-adv-x="1425" 
d="M1323 811l-229 -336l254 -364q12 -18 12 -39q0 -29 -20 -50.5t-50 -21.5h-80q-29 0 -57 15t-43 40l-238 367q-16 26 -16 55q0 23 14 51l217 340q15 25 41 39.5t54 14.5h84q30 0 49.5 -21.5t19.5 -50.5q0 -21 -12 -39zM668 922h84q31 0 53 -22.5t22 -53.5v-770
q0 -31 -22 -53.5t-53 -22.5h-84q-31 0 -53.5 22.5t-22.5 53.5v770q0 31 22.5 53.5t53.5 22.5zM78 111l250 364l-232 336q-12 18 -12 39q0 29 20 50.5t50 21.5h88q29 0 57 -15.5t43 -40.5l207 -338q16 -26 16 -53t-16 -53l-234 -369q-15 -25 -40.5 -39t-53.5 -14h-86
q-30 0 -49.5 21.5t-19.5 50.5q0 21 12 39z" />
    <glyph glyph-name="afii10073" unicode="&#x437;" horiz-adv-x="952" 
d="M135 852q161 92 332 92q180 0 274.5 -70t94.5 -192q0 -67 -44.5 -122.5t-125.5 -84.5q94 -20 144 -78.5t50 -140.5q0 -128 -114.5 -203.5t-303.5 -75.5q-112 0 -190.5 22t-153.5 85q-26 17 -26 59q0 28 14 45l25 27q23 33 63 33q23 0 47 -15q103 -67 201 -67q90 0 139 31
t49 82q0 47 -36.5 75.5t-102.5 28.5h-96q-31 0 -53.5 23.5t-22.5 56.5q0 32 22.5 55t53.5 23h86q56 0 89.5 33t33.5 79q0 47 -43 74t-119 27q-77 0 -195 -58q-20 -10 -39 -10q-44 0 -65 41l-14 23q-11 18 -11 34q0 45 37 68z" />
    <glyph glyph-name="afii10074" unicode="&#x438;" horiz-adv-x="1163" 
d="M956 0h-84q-31 0 -53 22.5t-22 53.5v508l-394 -533q-38 -51 -98 -51h-98q-31 0 -53.5 22.5t-22.5 53.5v770q0 31 22.5 53.5t53.5 22.5h84q31 0 53.5 -22.5t22.5 -53.5v-508l393 532q39 52 98 52h98q31 0 53.5 -22.5t22.5 -53.5v-770q0 -31 -22.5 -53.5t-53.5 -22.5z" />
    <glyph glyph-name="afii10075" unicode="&#x439;" horiz-adv-x="1163" 
d="M956 0h-84q-31 0 -53 22.5t-22 53.5v508l-394 -533q-38 -51 -98 -51h-98q-31 0 -53.5 22.5t-22.5 53.5v770q0 31 22.5 53.5t53.5 22.5h84q31 0 53.5 -22.5t22.5 -53.5v-508l393 532q39 52 98 52h98q31 0 53.5 -22.5t22.5 -53.5v-770q0 -31 -22.5 -53.5t-53.5 -22.5z
M795 1454q51 0 79.5 -30t28.5 -81q0 -122 -81.5 -200t-231.5 -78q-164 0 -243 76t-79 202q0 51 26.5 81t76.5 30q54 0 83 -30t29 -81q0 -47 26 -78.5t81 -31.5q49 0 73.5 31.5t24.5 78.5q0 51 27 81t80 30z" />
    <glyph glyph-name="afii10076" unicode="&#x43a;" horiz-adv-x="1040" 
d="M700 49l-278 357q-23 30 -23 61q0 27 21 59l250 344q39 52 98 52h86q31 0 51.5 -21.5t20.5 -50.5q0 -21 -17 -45l-260 -322l301 -366q17 -20 17 -45q0 -29 -20 -50.5t-50 -21.5h-96q-61 0 -101 49zM207 922h84q31 0 53.5 -22.5t22.5 -53.5v-770q0 -31 -22.5 -53.5
t-53.5 -22.5h-84q-31 0 -53.5 22.5t-22.5 53.5v770q0 31 22.5 53.5t53.5 22.5z" />
    <glyph glyph-name="afii10077" unicode="&#x43b;" horiz-adv-x="1093" 
d="M340 922h547q31 0 53.5 -22.5t22.5 -53.5v-770q0 -31 -22.5 -53.5t-53.5 -22.5h-84q-31 0 -53.5 22.5t-22.5 53.5v610h-244l-6 -98q-20 -222 -63.5 -351t-108.5 -184t-168 -67h-8q-27 0 -48 17.5t-24 43.5l-8 78q-2 10 -2 27q0 26 11 39t44 32q127 64 148 412l10 211
q1 32 24.5 54t55.5 22z" />
    <glyph glyph-name="afii10078" unicode="&#x43c;" horiz-adv-x="1292" 
d="M565 324l-198 239v-487q0 -31 -22.5 -53.5t-53.5 -22.5h-84q-31 0 -53.5 22.5t-22.5 53.5v770q0 31 22.5 53.5t53.5 22.5h82q51 0 94 -50l274 -335l258 335q40 50 95 50h75q31 0 53.5 -22.5t22.5 -53.5v-770q0 -31 -22.5 -53.5t-53.5 -22.5h-84q-31 0 -53 22.5t-22 53.5
v487l-193 -239q-35 -41 -84 -41q-54 0 -84 41z" />
    <glyph glyph-name="afii10079" unicode="&#x43d;" horiz-adv-x="1136" 
d="M846 922h84q31 0 53.5 -22.5t22.5 -53.5v-770q0 -31 -22.5 -53.5t-53.5 -22.5h-84q-31 0 -53.5 22.5t-22.5 53.5v276h-403v-276q0 -31 -22.5 -53.5t-53.5 -22.5h-84q-31 0 -53.5 22.5t-22.5 53.5v770q0 31 22.5 53.5t53.5 22.5h84q31 0 53.5 -22.5t22.5 -53.5v-273h403
v273q0 31 22.5 53.5t53.5 22.5z" />
    <glyph glyph-name="afii10080" unicode="&#x43e;" horiz-adv-x="1150" 
d="M575 -23q-225 0 -363 137t-138 347t138 346.5t363 136.5q226 0 364 -136.5t138 -346.5t-138.5 -347t-363.5 -137zM575 723q-107 0 -178 -72t-71 -190q0 -115 70.5 -189.5t178.5 -74.5q110 0 181 72.5t71 191.5q0 116 -71.5 189t-180.5 73z" />
    <glyph glyph-name="afii10081" unicode="&#x43f;" horiz-adv-x="1126" 
d="M207 922h713q31 0 53 -22.5t22 -53.5v-770q0 -31 -22 -53.5t-53 -22.5h-84q-31 0 -53.5 22.5t-22.5 53.5v624h-393v-624q0 -31 -22.5 -53.5t-53.5 -22.5h-84q-31 0 -53.5 22.5t-22.5 53.5v770q0 31 22.5 53.5t53.5 22.5z" />
    <glyph glyph-name="afii10082" unicode="&#x440;" horiz-adv-x="1142" 
d="M1069 475q0 -214 -134.5 -356t-352.5 -142q-136 0 -215 46v-357q0 -31 -22.5 -53.5t-53.5 -22.5h-84q-31 0 -53.5 22.5t-22.5 53.5v1180q0 31 22.5 53.5t53.5 22.5h84q31 0 53.5 -23.5t22.5 -58.5q46 44 122.5 74t161.5 30q188 0 303 -131.5t115 -337.5zM367 623v-373
q81 -53 194 -53q120 0 189 76.5t69 195.5q0 113 -63.5 183.5t-177.5 70.5q-121 0 -211 -100z" />
    <glyph glyph-name="afii10083" unicode="&#x441;" horiz-adv-x="1005" 
d="M782 678q-18 0 -37 8q-75 37 -163 37q-103 0 -179.5 -72.5t-76.5 -189.5q0 -119 78.5 -191.5t187.5 -72.5q98 0 178 53q26 16 49 16q40 0 64 -30l35 -43q14 -14 14 -41q0 -43 -29 -66q-79 -62 -154 -85.5t-169 -23.5q-229 0 -367.5 133t-138.5 351q0 133 60 243.5
t170 175t247 64.5q174 0 303 -70q17 -9 27 -27.5t10 -39.5q0 -20 -8 -33l-31 -53q-25 -43 -70 -43z" />
    <glyph glyph-name="afii10084" unicode="&#x442;" horiz-adv-x="909" 
d="M498 0h-84q-31 0 -53.5 22.5t-22.5 53.5v610h-227q-31 0 -53.5 22.5t-22.5 53.5v84q0 31 22.5 53.5t53.5 22.5h688q31 0 53 -22.5t22 -53.5v-84q0 -31 -22 -53.5t-53 -22.5h-226v-610q0 -31 -22 -53.5t-53 -22.5z" />
    <glyph glyph-name="afii10085" unicode="&#x443;" horiz-adv-x="1013" 
d="M498 418q16 -41 45 -133q17 90 32 135l142 430q10 32 38 52t62 20h60q37 0 63.5 -27.5t26.5 -63.5q0 -16 -6 -34l-314 -797q-66 -169 -123.5 -259.5t-109 -120.5t-123.5 -30q-80 0 -156 39q-37 18 -37 60q0 14 6 26l27 56q12 26 25 35.5t34 9.5t48 -6q12 -3 26 -3
q84 0 142 144l20 49l-371 801q-8 20 -8 35q0 34 25 60t61 26h88q28 0 52 -16t34 -42z" />
    <glyph glyph-name="afii10086" unicode="&#x444;" horiz-adv-x="1406" 
d="M823 944q237 0 373.5 -136.5t136.5 -346.5q0 -215 -131.5 -349.5t-378.5 -134.5v-311q0 -31 -23.5 -53.5t-54.5 -22.5h-83q-31 0 -54.5 22.5t-23.5 53.5v311q-239 0 -374.5 136t-135.5 348q0 95 34 181t96.5 154t161 108t218.5 40v414q0 31 23.5 53.5t54.5 22.5h83
q31 0 54.5 -22.5t23.5 -53.5v-414zM825 197q126 0 191 71.5t65 192.5q0 111 -66 186.5t-190 75.5v-526zM584 197v526q-129 0 -193.5 -74t-64.5 -188q0 -120 66 -192t192 -72z" />
    </font>
</defs>
</svg>
